/* XPM */
static xpm_row_t const p1_front_9[] = {
/* columns rows colors chars-per-pixel */
"60 80 215 2 ",
"   c #151514",
".  c #1A1917",
"X  c #1D1C1A",
"o  c #181716",
"O  c #201E1B",
"+  c #231A17",
"@  c #2C2517",
"#  c #23211E",
"$  c #2A2319",
"%  c #2B271B",
"&  c #302213",
"*  c #3C2A16",
"=  c #352817",
"-  c #3C3315",
";  c #1D1F27",
":  c #231E28",
">  c #1F212B",
",  c #242422",
"<  c #292623",
"1  c #2C2A25",
"2  c #2C2C2B",
"3  c #26222F",
"4  c #322D25",
"5  c #332F29",
"6  c #34322B",
"7  c #3B342D",
"8  c #38382E",
"9  c #242534",
"0  c #26283A",
"q  c #333333",
"w  c #3A3633",
"e  c #3D3C32",
"r  c #3B3B3B",
"t  c #432D16",
"y  c #472F18",
"u  c #433A15",
"i  c #573A17",
"p  c #643D15",
"a  c #423C34",
"s  c #483E34",
"d  c #4F3E23",
"f  c #5B4118",
"g  c #684618",
"h  c #794A17",
"j  c #785617",
"k  c #685111",
"l  c #7E671D",
"z  c #444437",
"x  c #4A4136",
"c  c #464639",
"v  c #4C443A",
"b  c #4B4B3C",
"n  c #564B3F",
"m  c #54473A",
"M  c #4C4425",
"N  c #6C5328",
"B  c #776729",
"V  c #292B45",
"C  c #2C3153",
"Z  c #2D345A",
"A  c #343B5F",
"S  c #363D61",
"D  c #3F4566",
"F  c #444444",
"G  c #4C4C4C",
"H  c #554C42",
"J  c #5B4E41",
"K  c #5D5247",
"L  c #535353",
"P  c #5A5A5A",
"I  c #585857",
"U  c #434652",
"Y  c #615546",
"T  c #635648",
"R  c #6A5C4C",
"E  c #675E54",
"W  c #715F4D",
"Q  c #736351",
"!  c #7E6D59",
"~  c #766858",
"^  c #76634D",
"/  c #434969",
"(  c #565B76",
")  c #4D526A",
"_  c #5D6278",
"`  c #666666",
"'  c #786D61",
"]  c #696B78",
"[  c #797979",
"{  c #75706E",
"}  c #8A4E19",
"|  c #8C521A",
" . c #875616",
".. c #945619",
"X. c #965A1A",
"o. c #9A5C19",
"O. c #945F15",
"+. c #8A6714",
"@. c #916D10",
"#. c #A36219",
"$. c #A96C19",
"%. c #AB7117",
"&. c #B37419",
"*. c #BB7B19",
"=. c #B77B17",
"-. c #925824",
";. c #895629",
":. c #9D6533",
">. c #976232",
",. c #8D6F2A",
"<. c #A16A37",
"1. c #816D5A",
"2. c #85735E",
"3. c #8B745F",
"4. c #977858",
"5. c #A97648",
"6. c #AD7B4E",
"7. c #8C7962",
"8. c #887766",
"9. c #937C63",
"0. c #947E69",
"q. c #8A7E71",
"w. c #988219",
"e. c #BA8418",
"r. c #A18215",
"t. c #9C842D",
"y. c #A18626",
"u. c #A38A33",
"i. c #B09732",
"p. c #C28617",
"a. c #C58C17",
"s. c #C99518",
"d. c #D0991A",
"f. c #D5A619",
"g. c #E2B41C",
"h. c #E5BA1B",
"j. c #E7BB15",
"k. c #CA9724",
"l. c #D8A826",
"z. c #DAAE34",
"x. c #D4AB38",
"c. c #D3AE2F",
"v. c #E8BE22",
"b. c #E3BD33",
"n. c #E9C41D",
"m. c #EAC436",
"M. c #F7D239",
"N. c #F1CC28",
"B. c #B88759",
"V. c #AB835D",
"C. c #9B846B",
"Z. c #968069",
"A. c #998878",
"S. c #8E8071",
"D. c #A78767",
"F. c #BE8E62",
"G. c #B78D64",
"H. c #A58C72",
"J. c #A98F74",
"K. c #AA9075",
"L. c #AC9379",
"P. c #B59B7D",
"I. c #B99C7E",
"U. c #B19679",
"Y. c #D4B142",
"T. c #E9BE43",
"R. c #C39569",
"E. c #C08F62",
"W. c #CEA176",
"Q. c #D1A57A",
"!. c #EEC946",
"~. c #F6D448",
"^. c #F7D449",
"/. c #666A82",
"(. c #7A7F8E",
"). c #828283",
"_. c #999999",
"`. c #BB9F81",
"'. c #BEA283",
"]. c #BDA694",
"[. c #9C9EA7",
"{. c #A6A6A6",
"}. c #ABADB5",
"|. c #B3B3B5",
" X c #C2A484",
".X c #C5A989",
"XX c #CBAC8B",
"oX c #C3A789",
"OX c #DEB48C",
"+X c #D4B18C",
"@X c #D3B492",
"#X c #DAB693",
"$X c #DCB996",
"%X c #DFBC98",
"&X c #D3AF8A",
"*X c #E3BC95",
"=X c #E4BE99",
"-X c #E5C29D",
";X c #E9C39E",
":X c #DDC1A9",
">X c #ECC6A1",
",X c #EEC9A3",
"<X c #F1CBA5",
"1X c #F3CFAB",
"2X c #E8CCB4",
"3X c #F4D6BC",
"4X c #F4D2B3",
"5X c #F3D0AB",
"6X c #BFC0C5",
"7X c #C6C7CB",
"8X c #D3D3D4",
"9X c #D7D7D9",
"0X c #DADADA",
"qX c #D0CFD0",
"wX c #00b140",
/* pixels */
"wXwXwXwXwXwXwXwXwXwXwXwXwXwXwXwXwXwXwXwXwXwXwXwXwXwXwXwXwXwXwXwXwXwXwXwXwXwXwXwXwXwXwXwXwXwXwXwXwXwXwXwXwXwXwXwXwXwXwXwX",
"wXwXwXwXwXwXwXwXwXwXwXwXwXwXwXwXwXwXwXwXwXwXwXwXwXwXwXwXwXwXwXwXwXwXwXwXwXwXwXwXwXwXwXwXwXwXwXwXwXwXwXwXwXwXwXwXwXwXwXwX",
"wXwXwXwXwXwXwXwXwXwXwXwXwXwXwXwXwXwXwXwXwXwXwXwXwXwXwXwXwXwXwXwXwXwXwXwXwXwXwXwXwXwXwXwXwXwXwXwXwXwXwXwXwXwXwXwXwXwXwXwX",
"wXwXwXwXwXwXwXwXwXwXwXwXwXwXwXwXwXwXwXwXwXwXwXwXwXwXwXwXwXwXwXwXwXwXwXwXwXwXwXwXwXwXwXwXwXwXwXwXwXwXwXwXwXwXwXwXwXwXwXwX",
"wXwXwXwXwXwXwXwXwXwXwXwXwXwXwXwXwXwXwXwXwXwXwXwXwXwXwXwXwX. wXwXwXwXwXwXwXwXwXwXwXwXwXwXwXwXwXwXwXwXwXwXwXwXwXwXwXwXwXwX",
"wXwXwXwXwXwXwXwXwXwXwXwXwXwXwXwXwXwXwXwXwXwXwXwXwXwXwXwX. , # . wXwXwXwXwXwXwXwXwXwXwXwXwXwXwXwXwXwXwXwXwXwXwXwXwXwXwXwX",
"wXwXwXwXwXwXwXwXwXwXwXwXwXwXwXwXwXwXwXwXwXwXwXwXwXwXwXX 2 G G , . wXwXwXwXwXwXwXwXwXwXwXwXwXwXwXwXwXwXwXwXwXwXwXwXwXwXwX",
"wXwXwXwXwXwXwXwXwXwXwXwXwXwXwXwXwXwXwXwXwXwXwXwXwX. , q L P P L q X . wXwXwXwXwXwXwXwXwXwXwXwXwXwXwXwXwXwXwXwXwXwXwXwXwX",
"wXwXwXwXwXwXwXwXwXwXwXwXwXwXwXwXwXwXwXwXwXwXwXwX. ; F L L P P L G w : o wXwXwXwXwXwXwXwXwXwXwXwXwXwXwXwXwXwXwXwXwXwXwXwX",
"wXwXwXwXwXwXwXwXwXwXwXwXwXwXwXwXwXwXwXwXwXwX. X 2 F G G L P P L G L F 6 X . wXwXwXwXwXwXwXwXwXwXwXwXwXwXwXwXwXwXwXwXwXwX",
"wXwXwXwXwXwXwXwXwXwXwXwXwXwXwXwXwXwXwXwX. X 2 r G G L L I P P L G G F G F 1 . o wXwXwXwXwXwXwXwXwXwXwXwXwXwXwXwXwXwXwXwX",
"wXwXwXwXwXwXwXwXwXwXwXwXwXwXwXwXwXwX. X , w r F G G G L P P P L G G G F F G r 2 X . wXwXwXwXwXwXwXwXwXwXwXwXwXwXwXwXwXwX",
"wXwXwXwXwXwXwXwXwXwXwXwXwXwXwXwX. X , 2 r r F G G L L L P P P P L G G G G F F F r , X wXwXwXwXwXwXwXwXwXwXwXwXwXwXwXwXwX",
"wXwXwXwXwXwXwXwXwXwXwXwXwXwXwX. O 2 r r r G G G L L I P P P P P L G G G G F F r r r 2 , . wXwXwXwXwXwXwXwXwXwXwXwXwXwXwX",
"wXwXwXwXwXwXwXwXwXwXwXwXwXwX. , q r r r F G G L I P P P P P P P I L L L G G F F r r r q , . wXwXwXwXwXwXwXwXwXwXwXwXwXwX",
"wXwXwXwXwXwXwXwXwXwXwXwXwX. , w q r r G F G G L I P P P P P P P P I L L G G G F F r r r w , . wXwXwXwXwXwXwXwXwXwXwXwXwX",
"wXwXwXwXwXwXwXwXwXwXwXwXX < q r r r F F G G L L L P P P P P P P P P I L L L G L G r r r r r , X wXwXwXwXwXwXwXwXwXwXwXwX",
"wXwXwXwXwXwXwXwXwXwXwX. , r r q r r F G G G L G L I P P P P P L I I I I I L G G G G r r r r q , X wXwXwXwXwXwXwXwXwXwXwX",
"wXwXwXwXwXwXwXwXwXwX. # q r r r r F F H G F G L L I I I P P I L L L G G G G F F G F G r r r r q , . wXwXwXwXwXwXwXwXwXwX",
"wXwXwXwXwXwXwXwXwXX X q r r r r F F F V F z G G G L G L I I L L G G G G G F F F F r r F r r r r 2 X wXwXwXwXwXwXwXwXwXwX",
"wXwXwXwXwXwXwXwXwXX 2 q r r c V r F F F r r F G G G G G G F G F G F F G F G G F F r r r z r r r r < . wXwXwXwXwXwXwXwXwX",
"wXwXwXwXwXwXwXwX. , q r r r r r F F F b F F G F F F r r r r r r r F F F G F F F F F r r r r r r V q # . wXwXwXwXwXwXwXwX",
"wXwXwXwXwXwXwXwX. 2 w w r r q F F G F V F F r r r r r r r r r r r r r V F F F r r F r r r r r r c r 2 X wXwXwXwXwXwXwXwX",
"wXwXwXwXwXwXwXX , q r r r r r F G z F F r r r r r r q r r r r r r r r z r r r F r r r r r r r r r r q # . wXwXwXwXwXwXwX",
"wXwXwXwXwXwXwX. 2 q q r r r r r r r F r z r r r r w q q q q q q r r r r r r w r V c r c z r r r r q q 2 X wXwXwXwXwXwXwX",
"wXwXwXwXwXwX. , 2 q q r q r q r r r r r V q r r q 6 2 2 1 < 2 < 2 2 q q q q q r q r z V z V r r r r q q X wXwXwXwXwXwXwX",
"wXwXwXwXwXwXX < q q q r r r q r r r r r q r q 2 < O ; # @ @ = @ $ $ X , 2 2 q q r r r r z a V r r r q q , X wXwXwXwXwXwX",
"wXwXwXwXwXwXX 2 q q r r r q r r r r q q w 6 , X @ * k +.+.@.@. .j k i * O O < q q r q r V c v r r q q q 1 . wXwXwXwXwXwX",
"wXwXwXwXwXwXX 2 2 q q V z r q r r r r q , X . * h  .O.$.=.=.*.&.%.$.O.h i t o X 1 q w r r r r r r r q q 2 X wXwXwXwXwXwX",
"wXwXwXwXwX. X q q q r r w w q r r q 2 X 1 n 7 + i  .#.#.$.=.*.&.&.$.o.} g & + a O , 2 q q r r c q r q q q X wXwXwXwXwXwX",
"wXwXwXwXwX. , 2 q r q q q q r r q 2 X a 9.J.H.Y $ i o.#.....o.....} p = $ 7 ~ 3.Y # , 6 q q r V r r q 2 2 , . wXwXwXwXwX",
"wXwXwXwXwX. , q q q q r q q r q 2 X v H.'.%X-X XW # y h | } ....} t < n ! K.#X&XH.Q , , q q q r q q q q q , . wXwXwXwXwX",
"wXwXwXwXwXX < 2 q q q q q r w 2 X v H. X*X;X<X;X.X1.a O & * t * + 4 2.I.XX*X,X,X@XU.! , , w q r q r q q q , . wXwXwXwXwX",
"wXwXwXwXwXX < q q q q q q q q # 6 D.I.$X;X;X,X,X;X&XJ.2.R J m n ~ H.&X;X;X;X,X,X,XXXU.Q X 2 q q q q q q q , . wXwXwXwXwX",
"wXwXwXwXwXX , 2 q q q q q q 1 : 1.`.#X;X<X<X<X,X,X,X$XXX XI.I.I. X$X,X,X<X;X;X,X<X>XoXL.z O q q q q q 2 2 , X wXwXwXwXwX",
"wXwXwXwXwX. , q q q q q q q : s D.V.R.OX*X<X,X;X,X,X-X>X;X-X*X*X;X<X,X,X;X;X<X-XOXW.G.D.1.O 1 q q q 2 q q , . wXwXwXwXwX",
"wXwXwXwXwX. , q q q q q q 2 X N } } } -.-.W.<X<X,X,X,X,X,X,X>X,X,X,X,X,X<X<XOX:.-.| } | >.7 , q q 2 2 q 2 , . wXwXwXwXwX",
"wXwXwXwXwXwXX 2 q q q q 2 2 = ;.6.R.F.B.<.>.B.OX<X,X,X,X,X,X,X,X,X,X,X,X-XE.<.:.6.F.R.B.>.d X q q q q 2 2 ; . wXwXwXwXwX",
"wXwXwXwXwXwXX 2 q q q q q X m 9.~ K H J W 4.5.5.Q.=X,X,X,X,X,X,X*X;X>XOX6.5.4.^ K J n Q 7.^ O q q q q q 2 ; wXwXwXwXwXwX",
"wXwXwXwXwXwX. 2 2 2 q q 5 X W J r S.) 0 : : m 4.E.E.&X,X,X,X,X>X,XOXE.E.D.n , , 9 U ).L a 9.# 2 r 2 2 q 2 X wXwXwXwXwXwX",
"wXwXwXwXwXwXX , q 2 q q 2 ; Q e (.0X( C ; 9 0 < 3.-X;X<X<X,X;X;X<X>X*XJ.7 9 0 : V D 7X}.7 2.1 2 q 2 2 q < . wXwXwXwXwXwX",
"wXwXwXwXwXwXwXX 2 q q q 2 X Q 7 _.7XD V X : S ] r C.;X;X<X,X;X-X,X<XU.a ] / 0 + 0 A }.|.q ! 1 2 q q q q , . wXwXwXwXwXwX",
"wXwXwXwXwXwXwXX 1 2 2 q 6 X Q a (.8X/.Z V C / qX(.e @X,X,X<X,X<X,X;Xn ` 9X( C V C ) 7X{.7 ! < 2 q q 2 2 X wXwXwXwXwXwXwX",
"wXwXwXwXwXwXwX. ; 2 q q 2 ; Y J L 8X6X/./ ( [.0X[ b -X,X,X,X,X;X,X,XQ E 0X|._ ) ( }.0X[ e ! , 2 2 q q , . wXwXwXwXwXwXwX",
"wXwXwXwXwXwXwXwXX 1 q 2 q # z 7.5 (.8X8XqX8X0X_.6 K.<X,X,X,X;X$X,X<XoX7 [ 0X0X7X9X0X{.q ~ Y O q q q 2 X wXwXwXwXwXwXwXwX",
"wXwXwXwXwXwXwXwXX X 2 q 2 2 $ Z.8.7 ` {.|.{.{ q 2.,X5X<X<X<X<X,X<X<X>XK.6 ` _.|.{.[ q Q H.6 2 q q 2 , . wXwXwXwXwXwXwXwX",
"wXwXwXwXwXwXwXwXwX. , 2 q 2 O H XXL.n w w q J K.,X,XI.! 8.I.@XZ.1.P.,X<X'.T e w w v Z.@XR O q q 2 2 X wXwXwXwXwXwXwXwXwX",
"wXwXwXwXwXwXwXwXwXwXX 2 2 q 1 # 2.%X-X+XoX@X>X5X-X3.% M - 6 e % u 4 ! -X1X,X@X.X@X-X,XZ.% < q 2 2 X . wXwXwXwXwXwXwXwXwX",
"wXwXwXwXwXwXwXwXwXwXwXX < q 2 ; 1 Q K..X-X,X-X'.K 1 w.n.f.B M c.N.w.% K '.$X>X-X@XH.R , ; q q 2 ; X wXwXwXwXwXwXwXwXwXwX",
"wXwXwXwXwXwXwXwXwXwXwXwXX , 2 2 X . $ 6 v K v 4 M i.~.h.n.~.m.!.~.N.w.u < e b z 6 % o X 1 2 < X . wXwXwXwXwXwXwXwXwXwXwX",
"wXwXwXwXwXwXwXwXwXwXwXwXwX. , 1 < O l u.B N B w.m.!.b.e.,.u.t.u.x.~.~.n.u.,.j l y.+.$ < 2 , X . wXwXwXwXwXwXwXwXwXwXwXwX",
"wXwXwXwXwXwXwXwXwXwXwXwXwXwX. X O $ j x.!.l.f.h.n.h.j.m.c.x.k.m.M.~.~.M.m.x.s.d.=.g X X . o wXwXwXwXwXwXwXwXwXwXwXwXwXwX",
"wXwXwXwXwXwXwXwXwXwXwXwXwXwXwXo o . & i X.=.p.p.l.g.h.M.^.!.g.h.n.g.f.f.=.e.&.f * .     wXwXwXwXwXwXwXwXwXwXwXwXwXwXwXwX",
"wXwXwXwXwXwXwXwXwXwXwXwXwXwXwXwXwXo   . y | g +.k.s.d.k.e.s.s.j.s.e.a.e.#.g f $ X   wXwXwXwXwXwXwXwXwXwXwXwXwXwXwXwXwXwX",
"wXwXwXwXwXwXwXwXwXwXwXwXwXwXwXwXwX. # q < # . * h e.l.Y.&.$.z.m.f.a.=.h - X X , r # . wXwXwXwXwXwXwXwXwXwXwXwXwXwXwXwXwX",
"wXwXwXwXwXwXwXwXwXwXwXwXwXwXwXwXwX. w L q X r , @ $.l.T.l.e.c.k.=.*.%.= # q # q G w X wXwXwXwXwXwXwXwXwXwXwXwXwXwXwXwXwX",
"wXwXwXwXwXwXwXwXwXwXwXwXwXwXwXwX. , G G # , G r + g *.p.a.s.a.*.$.#.f X w L 2 , G F , . wXwXwXwXwXwXwXwXwXwXwXwXwXwXwXwX",
"wXwXwXwXwXwXwXwXwXwXwXwXwXwXwX. , q F r . r G G 2 % h g $.*.a.a.&.g O 2 F L r X q F 2 X wXwXwXwXwXwXwXwXwXwXwXwXwXwXwXwX",
"wXwXwXwXwXwXwXwXwXwXwXwXwXwXwX. 1 r F 1 , G L F q O + O g .. .o.i $ X w F L L , 1 q 2 X o wXwXwXwXwXwXwXwXwXwXwXwXwXwXwX",
"wXwXwXwXwXwXwXwXwXwXwXwXwXwX< w ; , 2 , 2 L G F r O 5 4 + O # @ + O X q r G L q X O , v v X wXwXwXwXwXwXwXwXwXwXwXwXwXwX",
"wXwXwXwXwXwXwXwXwXwXwXwXwXX q.2XA.s O . r L F F q X 6 e O ! 7.O e e X q r F L F : ~ ].%X X7 wXwXwXwXwXwXwXwXwXwXwXwXwXwX",
"wXwXwXwXwXwXwXwXwXwXwXwXwX5 @X3X3X:X8.X F G F r q X 5 v % Z.! , b q X 6 r F G F , ].3X<X+Xn o wXwXwXwXwXwXwXwXwXwXwXwXwX",
"wXwXwXwXwXwXwXwXwXwXwXwXwX1 oX4X2X4XL., F G r r q X 6 b 6 8 8 6 c 8 O 2 r r G G < C.4X>X&Xs wXwXwXwXwXwXwXwXwXwXwXwXwXwX",
"wXwXwXwXwXwXwXwXwXwXwXwXwXX 8.>X,X>X7., G G r r 2 X 6 c z X X e e e O 2 r r G G 3 1.>X*X3.O wXwXwXwXwXwXwXwXwXwXwXwXwXwX",
"wXwXwXwXwXwXwXwXwXwXwXwXwXwX4 C.#X$X^ 3 L F r w q X , 4 6 # O 6 2 1 # 2 8 r F L q K P.! 1 wXwXwXwXwXwXwXwXwXwXwXwXwXwXwX",
"wXwXwXwXwXwXwXwXwXwXwXwXwXwXwX# s J 5 1 L r r r 2 X # , # # # # O , X 2 r r r G q # 1 . wXwXwXwXwXwXwXwXwXwXwXwXwXwXwXwX",
"wXwXwXwXwXwXwXwXwXwXwXwXwXwXwXwXwXo . 1 F r V r 2 # ' q.E S.A.E F ~ , 2 q r r F q . wXwXwXwXwXwXwXwXwXwXwXwXwXwXwXwXwXwX",
"wXwXwXwXwXwXwXwXwXwXwXwXwXwXwXwXwXwX. < r r z q 6 X G K q.' ' E S.H O 2 q r r r 5 . wXwXwXwXwXwXwXwXwXwXwXwXwXwXwXwXwXwX",
"wXwXwXwXwXwXwXwXwXwXwXwXwXwXwXwXwXwXX , w w q q 2 X , a z 6 , v K e O 2 q q q q < . wXwXwXwXwXwXwXwXwXwXwXwXwXwXwXwXwXwX",
"wXwXwXwXwXwXwXwXwXwXwXwXwXwXwXwXwXwXwXX 2 q q 2 q , . . . . . . . X O q q q q q , . wXwXwXwXwXwXwXwXwXwXwXwXwXwXwXwXwXwX",
"wXwXwXwXwXwXwXwXwXwXwXwXwXwXwXwXwXwXwX. X , 2 2 2 ; O X . wXwX. # X X < 1 1 < , X wXwXwXwXwXwXwXwXwXwXwXwXwXwXwXwXwXwXwX",
"wXwXwXwXwXwXwXwXwXwXwXwXwXwXwXwXwXwXwXwX. X # # % 1 e 1 X wXwX. X < 6 2 < , . . wXwXwXwXwXwXwXwXwXwXwXwXwXwXwXwXwXwXwXwX",
"wXwXwXwXwXwXwXwXwXwXwXwXwXwXwXwXwXwXwXwX. # 6 6 7 6 8 6 X wXwXX 1 z c z z e # . wXwXwXwXwXwXwXwXwXwXwXwXwXwXwXwXwXwXwXwX",
"wXwXwXwXwXwXwXwXwXwXwXwXwXwXwXwXwXwXwXwX. . O O O X O O . wXwXX 4 6 6 4 6 1 # . wXwXwXwXwXwXwXwXwXwXwXwXwXwXwXwXwXwXwXwX",
"wXwXwXwXwXwXwXwXwXwXwXwXwXwXwXwXwXwXwXwXwXwXwXwXwXwXwXwXwXwXwXX X X X O X X X X wXwXwXwXwXwXwXwXwXwXwXwXwXwXwXwXwXwXwXwX",
"wXwXwXwXwXwXwXwXwXwXwXwXwXwXwXwXwXwXwXwXwXwXwXwXwXwXwXwXwXwXwXwXwXwXwXwXwXwXwXwXwXwXwXwXwXwXwXwXwXwXwXwXwXwXwXwXwXwXwXwX",
"wXwXwXwXwXwXwXwXwXwXwXwXwXwXwXwXwXwXwXwXwXwXwXwXwXwXwXwXwXwXwXwXwXwXwXwXwXwXwXwXwXwXwXwXwXwXwXwXwXwXwXwXwXwXwXwXwXwXwXwX",
"wXwXwXwXwXwXwXwXwXwXwXwXwXwXwXwXwXwXwXwXwXwXwXwXwXwXwXwXwXwXwXwXwXwXwXwXwXwXwXwXwXwXwXwXwXwXwXwXwXwXwXwXwXwXwXwXwXwXwXwX",
"wXwXwXwXwXwXwXwXwXwXwXwXwXwXwXwXwXwXwXwXwXwXwXwXwXwXwXwXwXwXwXwXwXwXwXwXwXwXwXwXwXwXwXwXwXwXwXwXwXwXwXwXwXwXwXwXwXwXwXwX",
"wXwXwXwXwXwXwXwXwXwXwXwXwXwXwXwXwXwXwXwXwXwXwXwXwXwXwXwXwXwXwXwXwXwXwXwXwXwXwXwXwXwXwXwXwXwXwXwXwXwXwXwXwXwXwXwXwXwXwXwX"
};
