/* XPM */
static xpm_row_t const p1_front_2[] = {
/* columns rows colors chars-per-pixel */
"60 80 207 2 ",
"   c #151513",
".  c #191715",
"X  c #1A1917",
"o  c #1D1C1A",
"O  c #211E1C",
"+  c #231C15",
"@  c #22211E",
"#  c #2A231A",
"$  c #2B2217",
"%  c #332D16",
"&  c #3C2C19",
"*  c #372A17",
"=  c #383216",
"-  c #1D1E25",
";  c #1F212D",
":  c #242423",
">  c #292724",
",  c #2B2A24",
"<  c #2C2C2C",
"1  c #312C24",
"2  c #322F2C",
"3  c #33322C",
"4  c #3A342D",
"5  c #3A382A",
"6  c #28283D",
"7  c #252433",
"8  c #333333",
"9  c #3C3B33",
"0  c #3B3B3B",
"q  c #3A3631",
"w  c #432C16",
"e  c #463516",
"r  c #573917",
"t  c #633C17",
"y  c #433C33",
"u  c #483F36",
"i  c #45382A",
"p  c #514416",
"a  c #694417",
"s  c #774917",
"d  c #6D5A14",
"f  c #7B6816",
"g  c #424235",
"h  c #4D443B",
"j  c #49493B",
"k  c #474337",
"l  c #554A3E",
"z  c #54473C",
"x  c #4A4120",
"c  c #6B4725",
"v  c #7A6A2D",
"b  c #2A2E48",
"n  c #2C3148",
"m  c #2C3358",
"M  c #363D62",
"N  c #434343",
"B  c #4C4C4B",
"V  c #4D4740",
"C  c #5C4E41",
"Z  c #554B43",
"A  c #5D5043",
"S  c #5F564B",
"D  c #535353",
"F  c #5A5A5A",
"G  c #625446",
"H  c #6B5C4B",
"J  c #645749",
"K  c #655B50",
"L  c #72614E",
"P  c #6A6158",
"I  c #746452",
"U  c #7B6956",
"Y  c #7D6D58",
"T  c #6E604F",
"R  c #474D6C",
"E  c #4F5369",
"W  c #686868",
"Q  c #7B6F63",
"!  c #63677A",
"~  c #7B7B7B",
"^  c #737373",
"/  c #854D18",
"(  c #864E17",
")  c #8D521C",
"_  c #895B14",
"`  c #935619",
"'  c #9C5E19",
"]  c #985C17",
"[  c #9A6616",
"{  c #916E15",
"}  c #AB6D1A",
"|  c #A36319",
" . c #A97315",
".. c #B57D17",
"X. c #B47319",
"o. c #B97A19",
"O. c #B06D1A",
"+. c #8F5725",
"@. c #935925",
"#. c #887228",
"$. c #967432",
"%. c #A26B3A",
"&. c #A07924",
"*. c #9F744B",
"=. c #816F5B",
"-. c #8A6F54",
";. c #85725D",
":. c #8A735C",
">. c #9C734B",
",. c #A97648",
"<. c #A77C54",
"1. c #8D7963",
"2. c #877766",
"3. c #937D66",
"4. c #8B7D71",
"5. c #AA8418",
"6. c #BD8319",
"7. c #B78115",
"8. c #A58A28",
"9. c #AB9234",
"0. c #B38E28",
"q. c #BBA13E",
"w. c #C48C16",
"e. c #C08218",
"r. c #C2881B",
"t. c #CA9518",
"y. c #D29D1A",
"u. c #C9A51C",
"i. c #D9A919",
"p. c #E4B918",
"a. c #C99827",
"s. c #CA8E25",
"d. c #CBAC22",
"f. c #D9AA23",
"g. c #DBB223",
"h. c #DAAA38",
"j. c #DAB937",
"k. c #E4BC36",
"l. c #E0B52B",
"z. c #F7D01F",
"x. c #EAC121",
"c. c #F1CB2B",
"v. c #ECC436",
"b. c #F8D536",
"n. c #F7D021",
"m. c #B68455",
"M. c #9A846C",
"N. c #958068",
"B. c #968676",
"V. c #A28A6F",
"C. c #B58C65",
"Z. c #A38A71",
"A. c #A28C78",
"S. c #AC9277",
"D. c #B4967A",
"F. c #B49A7D",
"G. c #BA9978",
"H. c #D9BA44",
"J. c #C7996C",
"K. c #C6976B",
"L. c #C69A70",
"P. c #C8A078",
"I. c #D3A87E",
"U. c #E8C645",
"Y. c #F6D344",
"T. c #FBDB55",
"R. c #6E7187",
"E. c #7D8192",
"W. c #848485",
"Q. c #838696",
"!. c #9B9B9C",
"~. c #959699",
"^. c #8E909D",
"/. c #B99E84",
"(. c #AA9A8A",
"). c #BDA082",
"_. c #BEAB9D",
"`. c #9294A2",
"'. c #AFAFB5",
"]. c #B6B7B9",
"[. c #C4A686",
"{. c #CAAB8A",
"}. c #C5A98B",
"|. c #D8AC83",
" X c #D4B492",
".X c #DDBA96",
"XX c #D9B897",
"oX c #CFAF8F",
"OX c #E1B88F",
"+X c #E4BE9A",
"@X c #E6C29D",
"#X c #E9C39E",
"$X c #ECC6A1",
"%X c #EFC9A3",
"&X c #F1CBA5",
"*X c #F2CEAB",
"=X c #F3D4B9",
"-X c #F2CFAD",
";X c #C2C2C4",
":X c #C9CACC",
">X c #CECED1",
",X c #D3D3D4",
"<X c #DBDADB",
"1X c #D6D6D9",
"2X c #F8DAC3",
"3X c #E1E1E2",
"4X c #00b140",
/* pixels */
"4X4X4X4X4X4X4X4X4X4X4X4X4X4X4X4X4X4X4X4X4X4X4X4X4X4X4X4X4X4X4X4X4X4X4X4X4X4X4X4X4X4X4X4X4X4X4X4X4X4X4X4X4X4X4X4X4X4X4X4X",
"4X4X4X4X4X4X4X4X4X4X4X4X4X4X4X4X4X4X4X4X4X4X4X4X4X4X4X4X4X4X4X4X4X4X4X4X4X4X4X4X4X4X4X4X4X4X4X4X4X4X4X4X4X4X4X4X4X4X4X4X",
"4X4X4X4X4X4X4X4X4X4X4X4X4X4X4X4X4X4X4X4X4X4X4X4X4X4X4X4X4X4X4X4X4X4X4X4X4X4X4X4X4X4X4X4X4X4X4X4X4X4X4X4X4X4X4X4X4X4X4X4X",
"4X4X4X4X4X4X4X4X4X4X4X4X4X4X4X4X4X4X4X4X4X4X4X4X4X4X4X4X4X4X4X4X4X4X4X4X4X4X4X4X4X4X4X4X4X4X4X4X4X4X4X4X4X4X4X4X4X4X4X4X",
"4X4X4X4X4X4X4X4X4X4X4X4X4X4X4X4X4X4X4X4X4X4X4X4X4X4X4X4X4X4X4X4X4X4X4X4X4X4X4X4X4X4X4X4X4X4X4X4X4X4X4X4X4X4X4X4X4X4X4X4X",
"4X4X4X4X4X4X4X4X4X4X4X4X4X4X4X4X4X4X4X4X4X4X4X4X4X4X4X4X4XX X 4X4X4X4X4X4X4X4X4X4X4X4X4X4X4X4X4X4X4X4X4X4X4X4X4X4X4X4X4X",
"4X4X4X4X4X4X4X4X4X4X4X4X4X4X4X4X4X4X4X4X4X4X4X4X4X4X4X4Xo < , o 4X4X4X4X4X4X4X4X4X4X4X4X4X4X4X4X4X4X4X4X4X4X4X4X4X4X4X4X",
"4X4X4X4X4X4X4X4X4X4X4X4X4X4X4X4X4X4X4X4X4X4X4X4X4X4XX @ 0 F D 8 o X 4X4X4X4X4X4X4X4X4X4X4X4X4X4X4X4X4X4X4X4X4X4X4X4X4X4X",
"4X4X4X4X4X4X4X4X4X4X4X4X4X4X4X4X4X4X4X4X4X4X4X4X4XX > B D F F D 0 @ X 4X4X4X4X4X4X4X4X4X4X4X4X4X4X4X4X4X4X4X4X4X4X4X4X4X",
"4X4X4X4X4X4X4X4X4X4X4X4X4X4X4X4X4X4X4X4X4X4X4XX o < B B D F F D D N < o X 4X4X4X4X4X4X4X4X4X4X4X4X4X4X4X4X4X4X4X4X4X4X4X",
"4X4X4X4X4X4X4X4X4X4X4X4X4X4X4X4X4X4X4X4X4XX o : 0 N B D D F F D B B B 0 : o 4X4X4X4X4X4X4X4X4X4X4X4X4X4X4X4X4X4X4X4X4X4X",
"4X4X4X4X4X4X4X4X4X4X4X4X4X4X4X4X4X4X4XX o @ 8 0 B B D B F F F F B N N B N 0 : o 4X4X4X4X4X4X4X4X4X4X4X4X4X4X4X4X4X4X4X4X",
"4X4X4X4X4X4X4X4X4X4X4X4X4X4X4X4X4X4Xo @ 8 0 0 B B B B D F F F D B B D N N N N 8 : X 4X4X4X4X4X4X4X4X4X4X4X4X4X4X4X4X4X4X",
"4X4X4X4X4X4X4X4X4X4X4X4X4X4X4X4XX o < 8 0 0 B B D D D F F F F F D D B B B N N 0 0 < O X 4X4X4X4X4X4X4X4X4X4X4X4X4X4X4X4X",
"4X4X4X4X4X4X4X4X4X4X4X4X4X4X4XX : 8 0 0 0 B B D B F F F F F F F D B B B B B B N 0 0 8 : X 4X4X4X4X4X4X4X4X4X4X4X4X4X4X4X",
"4X4X4X4X4X4X4X4X4X4X4X4X4X4XX < 0 0 0 0 N B B D F F F F F F F F F F F D B B N N N 0 0 0 < X 4X4X4X4X4X4X4X4X4X4X4X4X4X4X",
"4X4X4X4X4X4X4X4X4X4X4X4XX o < 0 0 8 n Z N B B D D F F F F F F F F F D D D B B N N 0 k g 0 > o 4X4X4X4X4X4X4X4X4X4X4X4X4X",
"4X4X4X4X4X4X4X4X4X4X4X4Xo < 0 0 0 0 N N B D B D D F F F F F F F F F D F D B D B B N 0 n 0 0 < o 4X4X4X4X4X4X4X4X4X4X4X4X",
"4X4X4X4X4X4X4X4X4X4X4Xo < 0 0 8 0 0 N B D B B D D F F F F F F F D D D D D D B B B B N 0 0 n 0 > o 4X4X4X4X4X4X4X4X4X4X4X",
"4X4X4X4X4X4X4X4X4X4XX : 0 0 0 0 0 N N N N N B D D D F D F F F B B D D B B N N N N N N k 0 g 0 0 : X 4X4X4X4X4X4X4X4X4X4X",
"4X4X4X4X4X4X4X4X4Xo : 8 0 0 0 N N N N 0 N N N B B B D D D D B D D N B B B N N N N j 0 N 0 0 0 0 8 o o 4X4X4X4X4X4X4X4X4X",
"4X4X4X4X4X4X4X4X4Xo < 0 q 0 0 0 0 N N B 0 k N B B B N N N N N N N B B N B N B B N n 0 0 N 0 0 0 0 < o 4X4X4X4X4X4X4X4X4X",
"4X4X4X4X4X4X4X4XX > 8 0 0 0 0 0 B 0 V k N B N N 0 0 0 0 0 0 0 0 0 0 n V B B N N N 0 0 0 0 0 0 0 0 0 : o 4X4X4X4X4X4X4X4X",
"4X4X4X4X4X4X4XX o 8 8 0 0 0 0 j N B n N N 0 0 0 0 0 0 0 0 0 0 0 0 0 9 0 k n N k 0 N 0 0 8 0 0 0 0 0 < o 4X4X4X4X4X4X4X4X",
"4X4X4X4X4X4X4XX < 8 8 0 8 0 0 n B 0 N N 0 0 0 0 0 q 0 0 0 0 8 8 0 N 0 0 0 0 0 0 0 0 0 0 0 0 0 0 0 0 8 : X 4X4X4X4X4X4X4X",
"4X4X4X4X4X4X4Xo < 8 8 0 0 0 0 0 0 0 0 0 0 0 0 0 0 8 8 8 8 3 8 8 8 0 8 0 0 8 0 0 0 0 0 0 0 0 0 0 0 8 8 < o 4X4X4X4X4X4X4X",
"4X4X4X4X4X4XX : < 8 8 0 0 0 8 0 0 0 0 0 0 8 0 8 8 8 > : @ @ @ $ : , < 8 8 8 8 0 0 0 0 0 0 k 0 0 0 0 0 8 : . 4X4X4X4X4X4X",
"4X4X4X4X4X4XX > 8 8 0 0 0 8 0 8 0 0 0 0 0 8 8 , o o # % e e p e = $ @ o : < 3 8 0 0 0 0 n k 0 0 0 0 8 8 : X 4X4X4X4X4X4X",
"4X4X4X4X4X4Xo < < 8 0 0 8 8 0 0 0 0 0 8 8 > O + e r _ {  . .[ [ [ _ s r $ + O < 8 8 0 0 0 k 0 0 8 0 8 8 < o 4X4X4X4X4X4X",
"4X4X4X4X4X4Xo < 8 0 0 0 8 0 8 0 0 8 8 < @ @ . * s ` ] } 7.7.e.o.X. .[ ( s w X X : < 8 8 0 g n 0 0 8 8 8 < o 4X4X4X4X4X4X",
"4X4X4X4X4XX : 8 < 8 0 0 0 8 0 0 8 8 : O g I l @ & ( | ' [ O.O.} | ' ` s r + 4 l > O < 0 8 8 0 0 0 8 8 8 8 O 4X4X4X4X4X4X",
"4X4X4X4X4XX : < 8 0 8 8 8 8 0 8 8 : @ K S./.[.:.1 & ) ' ] ` ` ` ] s w + 1 A M.V.U 2 o < 8 8 8 0 0 0 8 8 < : X 4X4X4X4X4X",
"4X4X4X4X4XX : 8 8 0 0 8 8 8 0 8 > O T D.{.$X$XOX3.4 + r s s ( ( t $ q =.Z.[.+X.XF.1.4 o 2 8 8 0 0 8 8 8 < : X 4X4X4X4X4X",
"4X4X4X4X4Xo : < 8 8 8 8 8 8 8 < @ J D.{.+X+X%X$XOXZ.J 4 O # $ $ 1 l Z.}. X#X&X%X+XG.M.4 @ 8 8 0 8 0 8 < 8 : o 4X4X4X4X4X",
"4X4X4X4X4XX > 8 8 8 8 8 0 0 8 o h S.[.+X%X%X&X&X%XXX).Z.3.=.=.;.3.L..X%X%X+X#X%X&X XF.2.: < 8 8 8 8 8 8 < > o 4X4X4X4X4X",
"4X4X4X4X4XX : < 8 8 8 8 8 < > , 3.F.OX%X%X%X$X$X%X%X+XXX{.[.[.[. X+X*X%X%X#X%X&X&X#X{.D.C o < 8 8 8 < 8 8 > X 4X4X4X4X4X",
"4X4X4X4X4XX : 8 < 8 8 0 < < - l <.>.,.K.L.$X%X$X%X%X+X%X%X%X@X#X&X&X%X%X%X&X&XI.K.<.,.,.-.@ < 8 8 < 8 8 < : X 4X4X4X4X4X",
"4X4X4X4X4XX : < 8 8 8 8 8 < @ s ) @.` ) ) m.+X&X%X%X%X%X%X%X&X#X%X%X%X%X&X#XK.+.) ` @.) +.i : 8 8 8 < 8 < - X 4X4X4X4X4X",
"4X4X4X4X4X4X@ < 8 8 8 8 8 @ & %.S.L.G.C.<.%.%.J.$X%X%X%X%X%X%X%X$X$X&X&XI.,.%.,.C.D.G.G.*.c o 8 8 8 < < 8 @ X 4X4X4X4X4X",
"4X4X4X4X4X4Xo < < 8 8 < 8 - C ;.y y 4 2 y H <.,.K.OX+X%X%X&X%X%X+X+XOXJ.,.<.L h 2 4 9 g I ;.@ < 8 8 8 8 < o 4X4X4X4X4X4X",
"4X4X4X4X4X4Xo > 8 < 8 < < - T h F '.! b 7 - > I J.J.|.%X%X%X#X%X&XOXJ.J.:.4 - - b E '.^ 5 1., < 0 8 < 8 < o 4X4X4X4X4X4X",
"4X4X4X4X4X4XX : 8 < 8 8 < O I 9 ~.,XR b O 7 b < J .X&X%X%X%X@X@X&X&X+X-.< b 6 + b M ].].8 ;., < 8 < 8 8 : o 4X4X4X4X4X4X",
"4X4X4X4X4X4X4Xo < 8 8 < 8 @ T q ~.:XR m O 6 M `.B L @X#X%X%X%X@X&X&X3.0 !.R b o 6 M '.].q Y , < 8 < 8 < @ X 4X4X4X4X4X4X",
"4X4X4X4X4X4X4Xo > < 8 8 < o T y 4.1XR.M m m E 1X!.5  X&X%X%X&X&X%X+Xz ^ 3XR.m m m ! ,X!.3 Y : < 8 8 < < o 4X4X4X4X4X4X4X",
"4X4X4X4X4X4X4XX o < 8 8 2 O C H 0 ;X,X`.R.Q.;X1XF H #X&X%X%X$X@X%X&X1.N :X>X^.R.Q.>X,XP z U O 8 < < 8 - o 4X4X4X4X4X4X4X",
"4X4X4X4X4X4X4X4Xo > 8 < 8 : 4 M.y W ;X<X<X<X:X^ 9 ).*X&X%X%X$X@X%X&X Xz D ;X<X<X<X:XR.3 1.l O 8 8 8 < X 4X4X4X4X4X4X4X4X",
"4X4X4X4X4X4X4X4X4Xo < 8 < < O 2.S.u N ^ W.^ N y F.&X&X@X@X%X*X$X+X&X&X{.z 0 W W.~ B 4 M.M.> < 8 8 < o X 4X4X4X4X4X4X4X4X",
"4X4X4X4X4X4X4X4X4XX o < 8 < O u /. X1.C h C 1. X*X.X1.k j N.S.S u =..X*X+XM.J z Z Y }. Xl O 3 8 8 : o 4X4X4X4X4X4X4X4X4X",
"4X4X4X4X4X4X4X4X4X4Xo : < 8 < o H {.@X#X#X%X*X*X}.z % f d $ @ p f = j }.&X*X&X%X%X%X XI - < < 8 : o 4X4X4X4X4X4X4X4X4X4X",
"4X4X4X4X4X4X4X4X4X4X4XX : < < : O k I M.[. X}.1.3 x d.z.x.9.v v.b.u.e 5 ;.F.}.).M.H 4 o : < 8 > X 4X4X4X4X4X4X4X4X4X4X4X",
"4X4X4X4X4X4X4X4X4X4X4X4XX : < < O X % * 1 3 , = v H.Y.u.g.U.k.j.U.n.u.d = , 1 1 5 e o o < < : X 4X4X4X4X4X4X4X4X4X4X4X4X",
"4X4X4X4X4X4X4X4X4X4X4X4X4XX - > : O #.H.q.8.8.d.b.v.g.r.&.$.$.9.H.T.T.b.j.q.5.0.0.{ O > > o o 4X4X4X4X4X4X4X4X4X4X4X4X4X",
"4X4X4X4X4X4X4X4X4X4X4X4X4X4XX X X + a 0.h.y.y.y.g.x.p.Y.v.k.g.c.n.b.Y.c.f.a.6.5.[ e X @ X X 4X4X4X4X4X4X4X4X4X4X4X4X4X4X",
"4X4X4X4X4X4X4X4X4X4X4X4X4X4X4X4X  . X * /  ...6.f.g.p.k.U.v.i.p.i.u.t.t.X.X. .& @     4X4X4X4X4X4X4X4X4X4X4X4X4X4X4X4X4X",
"4X4X4X4X4X4X4X4X4X4X4X4X4X4X4X4X4X. . - * t e a o.w.t.s.X...s.x.y.7.w.O._ & & @ o X 4X4X4X4X4X4X4X4X4X4X4X4X4X4X4X4X4X4X",
"4X4X4X4X4X4X4X4X4X4X4X4X4X4X4X4X4XX @ N > o o # r 6.l.U.6. .k.j.t.w.o.r # @ X < N > X 4X4X4X4X4X4X4X4X4X4X4X4X4X4X4X4X4X",
"4X4X4X4X4X4X4X4X4X4X4X4X4X4X4X4X4Xo 8 B < o N < + ] s.h.g.w.a.r. .o.[ # > N : < D N @ X 4X4X4X4X4X4X4X4X4X4X4X4X4X4X4X4X",
"4X4X4X4X4X4X4X4X4X4X4X4X4X4X4X4XX : 0 N o < B N o r X.X.o.w.w.e.X.] w o N D 8 O N B 8 o 4X4X4X4X4X4X4X4X4X4X4X4X4X4X4X4X",
"4X4X4X4X4X4X4X4X4X4X4X4X4X4X4X4XX < 0 3 o N D B < # r e ' X.e.r.[ r + 8 N D N @ 8 N 0 > o 4X4X4X4X4X4X4X4X4X4X4X4X4X4X4X",
"4X4X4X4X4X4X4X4X4X4X4X4X4X4X4Xo : o : : > D B N 0 o o O r a r s * X o q N B D < > 0 8 : X X 4X4X4X4X4X4X4X4X4X4X4X4X4X4X",
"4X4X4X4X4X4X4X4X4X4X4X4X4X4X. Z _.B.g o 8 F B N 8 - 5 2 @ % 3 o @ , o 8 N N D 0 O > O 4 U G o 4X4X4X4X4X4X4X4X4X4X4X4X4X",
"4X4X4X4X4X4X4X4X4X4X4X4X4X4Xo A.2X=X_.# 0 B N 0 8 o 3 g @ N.M.@ j 9 o 8 0 N D N O 8 4._.@X[.y 4X4X4X4X4X4X4X4X4X4X4X4X4X",
"4X4X4X4X4X4X4X4X4X4X4X4X4X4Xo Z.-X=X).> N B 0 0 8 O 1 j , T S , j 5 O < 0 0 B B : 3.2X=X%X XC . 4X4X4X4X4X4X4X4X4X4X4X4X",
"4X4X4X4X4X4X4X4X4X4X4X4X4X4X. S @X&XB.> B B 0 0 < O 3 j 9 @ @ 8 g 5 o < 0 0 B B : 1.*X-X%X{.y 4X4X4X4X4X4X4X4X4X4X4X4X4X",
"4X4X4X4X4X4X4X4X4X4X4X4X4X4X4XO U  X=.> B B 0 0 < X 1 g j @ @ 9 9 9 @ < 8 0 N D < I %X#X.X-.O 4X4X4X4X4X4X4X4X4X4X4X4X4X",
"4X4X4X4X4X4X4X4X4X4X4X4X4X4X4X4Xo y 4 < D N 0 0 < o O @ @ X X @ @ O o < 0 0 0 D 8 k G.F.=.> 4X4X4X4X4X4X4X4X4X4X4X4X4X4X",
"4X4X4X4X4X4X4X4X4X4X4X4X4X4X4X4X4X4X. < B 0 0 8 < o y V 0 V j y , h - < 8 N 0 B 8 o , , o 4X4X4X4X4X4X4X4X4X4X4X4X4X4X4X",
"4X4X4X4X4X4X4X4X4X4X4X4X4X4X4X4X4X4XX > N 0 0 0 < @ 2.^ Q B.(.P P P @ < 8 0 0 N 2 X 4X4X4X4X4X4X4X4X4X4X4X4X4X4X4X4X4X4X",
"4X4X4X4X4X4X4X4X4X4X4X4X4X4X4X4X4X4XX : 0 0 0 8 8 o 3 Z Y S h K N.j o < 8 8 0 0 < X 4X4X4X4X4X4X4X4X4X4X4X4X4X4X4X4X4X4X",
"4X4X4X4X4X4X4X4X4X4X4X4X4X4X4X4X4X4XX @ 8 8 < 8 < @ o , : @ o , 3 , o < 8 < 8 8 : X 4X4X4X4X4X4X4X4X4X4X4X4X4X4X4X4X4X4X",
"4X4X4X4X4X4X4X4X4X4X4X4X4X4X4X4X4X4X4Xo : < 8 8 8 : o o X X X X o X @ 8 8 8 3 < : 4X4X4X4X4X4X4X4X4X4X4X4X4X4X4X4X4X4X4X",
"4X4X4X4X4X4X4X4X4X4X4X4X4X4X4X4X4X4X4XX X o : @ : o o : o 4X4XX @ 8 @ @ @ @ @ o X 4X4X4X4X4X4X4X4X4X4X4X4X4X4X4X4X4X4X4X",
"4X4X4X4X4X4X4X4X4X4X4X4X4X4X4X4X4X4X4X4Xo X > g g g 3 O X 4X4Xo 1 9 3 , , , @ X 4X4X4X4X4X4X4X4X4X4X4X4X4X4X4X4X4X4X4X4X",
"4X4X4X4X4X4X4X4X4X4X4X4X4X4X4X4X4X4X4X4XX O 5 g g g g 3 X 4X4Xo @ @ @ @ @ @ O o 4X4X4X4X4X4X4X4X4X4X4X4X4X4X4X4X4X4X4X4X",
"4X4X4X4X4X4X4X4X4X4X4X4X4X4X4X4X4X4X4X4XX @ , , , , , , O 4X4Xo o X X X X X 4X4X4X4X4X4X4X4X4X4X4X4X4X4X4X4X4X4X4X4X4X4X",
"4X4X4X4X4X4X4X4X4X4X4X4X4X4X4X4X4X4X4X4Xo X X o o X o X X 4X4X4X4X4X4X4X4X4X4X4X4X4X4X4X4X4X4X4X4X4X4X4X4X4X4X4X4X4X4X4X",
"4X4X4X4X4X4X4X4X4X4X4X4X4X4X4X4X4X4X4X4X4X4X4X4X4X4X4X4X4X4X4X4X4X4X4X4X4X4X4X4X4X4X4X4X4X4X4X4X4X4X4X4X4X4X4X4X4X4X4X4X",
"4X4X4X4X4X4X4X4X4X4X4X4X4X4X4X4X4X4X4X4X4X4X4X4X4X4X4X4X4X4X4X4X4X4X4X4X4X4X4X4X4X4X4X4X4X4X4X4X4X4X4X4X4X4X4X4X4X4X4X4X",
"4X4X4X4X4X4X4X4X4X4X4X4X4X4X4X4X4X4X4X4X4X4X4X4X4X4X4X4X4X4X4X4X4X4X4X4X4X4X4X4X4X4X4X4X4X4X4X4X4X4X4X4X4X4X4X4X4X4X4X4X",
"4X4X4X4X4X4X4X4X4X4X4X4X4X4X4X4X4X4X4X4X4X4X4X4X4X4X4X4X4X4X4X4X4X4X4X4X4X4X4X4X4X4X4X4X4X4X4X4X4X4X4X4X4X4X4X4X4X4X4X4X"
};
