/* XPM */
static xpm_row_t const p1_front_4[] = {
/* columns rows colors chars-per-pixel */
"60 80 215 2 ",
"   c #151513",
".  c #191715",
"X  c #1A1917",
"o  c #1D1C1A",
"O  c #211F1B",
"+  c #241B16",
"@  c #1F201F",
"#  c #23211E",
"$  c #2A241B",
"%  c #2C261A",
"&  c #332517",
"*  c #332A17",
"=  c #3A2A16",
"-  c #352A19",
";  c #372717",
":  c #393118",
">  c #1E1F26",
",  c #221C25",
"<  c #1F222E",
"1  c #252423",
"2  c #292623",
"3  c #2C2A25",
"4  c #2C2C2C",
"5  c #322F2C",
"6  c #312D25",
"7  c #33322B",
"8  c #3A342D",
"9  c #3A382E",
"0  c #303027",
"q  c #262738",
"w  c #333333",
"e  c #3A3734",
"r  c #3D3A32",
"t  c #3B3B3B",
"y  c #373738",
"u  c #432D16",
"i  c #4B3516",
"p  c #543918",
"a  c #653D16",
"s  c #433B33",
"d  c #453F38",
"f  c #4D3A28",
"g  c #564616",
"h  c #6C4318",
"j  c #684618",
"k  c #7A4B17",
"l  c #775714",
"z  c #444237",
"x  c #45453A",
"c  c #4B433A",
"v  c #4A483B",
"b  c #554A3E",
"n  c #53483B",
"m  c #5C5127",
"M  c #7D6A25",
"N  c #704B29",
"B  c #292C46",
"V  c #2C3357",
"C  c #303657",
"Z  c #363E63",
"A  c #3C4364",
"S  c #444444",
"D  c #4C4C4C",
"F  c #484847",
"G  c #574D42",
"H  c #5B5247",
"J  c #535353",
"K  c #5A5A5A",
"L  c #484B5A",
"P  c #625445",
"I  c #61564A",
"U  c #695B4B",
"Y  c #665848",
"T  c #665D54",
"R  c #6D5E50",
"E  c #6D6155",
"W  c #716252",
"Q  c #7B6A56",
"!  c #7E6D59",
"~  c #76695A",
"^  c #6F604F",
"/  c #444A68",
"(  c #525876",
")  c #565A6D",
"_  c #6D6D6E",
"`  c #6F6F70",
"'  c #796D61",
"]  c #63677D",
"[  c #777776",
"{  c #7D7165",
"}  c #854D18",
"|  c #8A4E19",
" . c #8D521B",
".. c #885816",
"X. c #945619",
"o. c #975A19",
"O. c #9B5F17",
"+. c #876D1B",
"@. c #996716",
"#. c #926F0F",
"$. c #A26219",
"%. c #AC6C1A",
"&. c #A66C18",
"*. c #AB7216",
"=. c #AC7219",
"-. c #B57419",
";. c #BB7A19",
":. c #B57A18",
">. c #945B27",
",. c #8E5D31",
"<. c #88732A",
"1. c #987B25",
"2. c #9D6635",
"3. c #997F33",
"4. c #A46E3D",
"5. c #846D56",
"6. c #85725C",
"7. c #8D745C",
"8. c #A97748",
"9. c #A57D58",
"0. c #8F7A64",
"q. c #887765",
"w. c #927C65",
"e. c #957E68",
"r. c #8A7E71",
"t. c #BB8315",
"y. c #B88C18",
"u. c #AB911A",
"i. c #978335",
"p. c #B0942E",
"a. c #BDA12B",
"s. c #C48A16",
"d. c #C48A19",
"f. c #C99616",
"g. c #D39D18",
"h. c #DBAA1A",
"j. c #DAB21B",
"k. c #E4B81A",
"l. c #C79324",
"z. c #D1992A",
"x. c #D7A926",
"c. c #D8B438",
"v. c #D4A832",
"b. c #E5BB27",
"n. c #E3B83C",
"m. c #F0CA1D",
"M. c #F7D22A",
"N. c #EAC536",
"B. c #F1CA3A",
"V. c #F0CB2B",
"C. c #AB835B",
"Z. c #B5865A",
"A. c #9B846C",
"S. c #97816A",
"D. c #958677",
"F. c #A18469",
"G. c #BD9369",
"H. c #A38B71",
"J. c #AB9276",
"K. c #AD9479",
"L. c #A79079",
"P. c #B2967A",
"I. c #B69B7E",
"U. c #CCB042",
"Y. c #E8BF43",
"T. c #C39469",
"R. c #C79C72",
"E. c #C08F62",
"W. c #D3A77D",
"Q. c #ECCA46",
"!. c #F8D647",
"~. c #F5D34E",
"^. c #6E7285",
"/. c #7A7C86",
"(. c #676C84",
"). c #89898A",
"_. c #949495",
"`. c #99999A",
"'. c #BB9F81",
"]. c #BEA182",
"[. c #BAA089",
"{. c #BAA492",
"}. c #A3A3A4",
"|. c #ABACB4",
" X c #B7B7B9",
".X c #C29F81",
"XX c #C2A485",
"oX c #CCAC8C",
"OX c #C7A888",
"+X c #D6AB81",
"@X c #D5AE88",
"#X c #D9B28C",
"$X c #D4B492",
"%X c #DDBA97",
"&X c #DBBC99",
"*X c #D8B895",
"=X c #C8AE95",
"-X c #E0B78F",
";X c #E2BE9A",
":X c #E6BE97",
">X c #E5C19C",
",X c #E9C39E",
"<X c #ECC6A1",
"1X c #EFC9A3",
"2X c #F0CBA4",
"3X c #F3CEAA",
"4X c #F3D3B7",
"5X c #F1D0AF",
"6X c #BDBEC4",
"7X c #C9CACC",
"8X c #D3D3D4",
"9X c #DADADB",
"0X c #CECFD3",
"qX c #F4D9C4",
"wX c #00b140",
/* pixels */
"wXwXwXwXwXwXwXwXwXwXwXwXwXwXwXwXwXwXwXwXwXwXwXwXwXwXwXwXwXwXwXwXwXwXwXwXwXwXwXwXwXwXwXwXwXwXwXwXwXwXwXwXwXwXwXwXwXwXwXwX",
"wXwXwXwXwXwXwXwXwXwXwXwXwXwXwXwXwXwXwXwXwXwXwXwXwXwXwXwXwXwXwXwXwXwXwXwXwXwXwXwXwXwXwXwXwXwXwXwXwXwXwXwXwXwXwXwXwXwXwXwX",
"wXwXwXwXwXwXwXwXwXwXwXwXwXwXwXwXwXwXwXwXwXwXwXwXwXwXwXwXwXwXwXwXwXwXwXwXwXwXwXwXwXwXwXwXwXwXwXwXwXwXwXwXwXwXwXwXwXwXwXwX",
"wXwXwXwXwXwXwXwXwXwXwXwXwXwXwXwXwXwXwXwXwXwXwXwXwXwXwXwXwXwXwXwXwXwXwXwXwXwXwXwXwXwXwXwXwXwXwXwXwXwXwXwXwXwXwXwXwXwXwXwX",
"wXwXwXwXwXwXwXwXwXwXwXwXwXwXwXwXwXwXwXwXwXwXwXwXwXwXwXwXwXX X wXwXwXwXwXwXwXwXwXwXwXwXwXwXwXwXwXwXwXwXwXwXwXwXwXwXwXwXwX",
"wXwXwXwXwXwXwXwXwXwXwXwXwXwXwXwXwXwXwXwXwXwXwXwXwXwXwXwXX 2 2 X wXwXwXwXwXwXwXwXwXwXwXwXwXwXwXwXwXwXwXwXwXwXwXwXwXwXwXwX",
"wXwXwXwXwXwXwXwXwXwXwXwXwXwXwXwXwXwXwXwXwXwXwXwXwXwXX o w J D 4 X wXwXwXwXwXwXwXwXwXwXwXwXwXwXwXwXwXwXwXwXwXwXwXwXwXwXwX",
"wXwXwXwXwXwXwXwXwXwXwXwXwXwXwXwXwXwXwXwXwXwXwXwXwXX 1 t J K K J w o X wXwXwXwXwXwXwXwXwXwXwXwXwXwXwXwXwXwXwXwXwXwXwXwXwX",
"wXwXwXwXwXwXwXwXwXwXwXwXwXwXwXwXwXwXwXwXwXwXwXX o 1 S J J K K J J t 2 X wXwXwXwXwXwXwXwXwXwXwXwXwXwXwXwXwXwXwXwXwXwXwXwX",
"wXwXwXwXwXwXwXwXwXwXwXwXwXwXwXwXwXwXwXwXwXwXX 1 w F D J K K K D D D D w @ X wXwXwXwXwXwXwXwXwXwXwXwXwXwXwXwXwXwXwXwXwXwX",
"wXwXwXwXwXwXwXwXwXwXwXwXwXwXwXwXwXwXwXwXX o 4 t F D J D J K K J D F F F S w o X wXwXwXwXwXwXwXwXwXwXwXwXwXwXwXwXwXwXwXwX",
"wXwXwXwXwXwXwXwXwXwXwXwXwXwXwXwXwXwXX o 4 w t F D D D J K K K J F D D F S S S 4 o X wXwXwXwXwXwXwXwXwXwXwXwXwXwXwXwXwXwX",
"wXwXwXwXwXwXwXwXwXwXwXwXwXwXwXwXX o 1 w t S F D J D J K K K K K J D D D D S S x t 4 X X wXwXwXwXwXwXwXwXwXwXwXwXwXwXwXwX",
"wXwXwXwXwXwXwXwXwXwXwXwXwXwXwXX @ w t t t D D D D K K K K K ` K K D D D F F G B t t w # X wXwXwXwXwXwXwXwXwXwXwXwXwXwXwX",
"wXwXwXwXwXwXwXwXwXwXwXwXwXwXo 1 w t y t S D D J K K K K K K K K K J K J D D F F t t t t 1 X wXwXwXwXwXwXwXwXwXwXwXwXwXwX",
"wXwXwXwXwXwXwXwXwXwXwXwXwXX 3 y t t t S F D D J J K K K K K K K K K J D D D D S S t t t t 1 X wXwXwXwXwXwXwXwXwXwXwXwXwX",
"wXwXwXwXwXwXwXwXwXwXwXwXo 3 y y t t S S F D D J J K K K K K K K K K K J K D D J F S t t t t 1 X wXwXwXwXwXwXwXwXwXwXwXwX",
"wXwXwXwXwXwXwXwXwXwXwXo 4 y y y y t S F D J D J J K K K K K K K K J K K K J D D D F S t t t y 2 o wXwXwXwXwXwXwXwXwXwXwX",
"wXwXwXwXwXwXwXwXwXwXX 1 w y t y t S F S S S J J J K K K K K J D D J D D D F F S S F S t t t t y 1 o wXwXwXwXwXwXwXwXwXwX",
"wXwXwXwXwXwXwXwXwXX @ w t t y S S x S S S S F D D D D D J K J J D D D F F F S S S t S S t t t t 4 o X wXwXwXwXwXwXwXwXwX",
"wXwXwXwXwXwXwXwXwXo 4 y t t t S S S B S B x F F D D F F F F F F F D F F F D F F S t y t S t y t t 4 X wXwXwXwXwXwXwXwXwX",
"wXwXwXwXwXwXwXwXX 1 w y t t t t S v F S v F F S S t S t t t t t B v S F F F S S S S t t t t t t t w 1 X wXwXwXwXwXwXwXwX",
"wXwXwXwXwXwXwXwXo 7 y t t t t t S S S S G B y t t S t t y t t t t t t t t S F t S S t t t t t y t t 4 X wXwXwXwXwXwXwXwX",
"wXwXwXwXwXwXwXX 1 w y y y y t S F x x S S t t t t t y y y y y t t t t t t y t t t t t t t t t t t t w 1 X wXwXwXwXwXwXwX",
"wXwXwXwXwXwXwXX 4 w w y t y t t t t S t t t t t t w w w w w w w w t t t y t y t t t t z t t y t t w w 4 o wXwXwXwXwXwXwX",
"wXwXwXwXwXwXX 1 w w w y y y e y t y t t t y y w w 7 5 4 3 $ 1 1 1 4 4 7 w w y t t t B x y S t t t y w w o X wXwXwXwXwXwX",
"wXwXwXwXwXwXX 1 w w y t t y y y y t t y y y w 4 1 o @ $ = = : = % $ O # 4 4 w w t y t t t t t t t t y w 1 o wXwXwXwXwXwX",
"wXwXwXwXwXwXo 4 4 w t t t e y t t t y y w 4 # + * u l #.#.#.#.....l j u O o 1 7 w w y y t S t t t w w w 4 o wXwXwXwXwXwX",
"wXwXwXwXwXwXo 4 w w t t w y e t t y y 7 @ o . = k ..o.&.;.;.;.-.-.*.O.k a u . o 2 w w y y t S t t y w w 7 o wXwXwXwXwXwX",
"wXwXwXwXwXX > w w w y t y w y y y w 4 o 7 P d + i  .$.$.%.-.-.-.%.$.X.} a + % z # 1 5 y w w t t w t w w 4 > wXwXwXwXwXwX",
"wXwXwXwXwXX 1 5 w y y y y w t y w 4 o n A.P.J.W $ i o.$.o.X.X.X.X.} p & $ s 7.e.U % @ w w w y t y y w w 5 @ X wXwXwXwXwX",
"wXwXwXwXwXo 1 5 w w w w w w y w 4 o G J.XX>X,XOX! 2 = h } }  .X.k = 3 U 0.P.%X$XJ.! 3 @ w w w y t y w 5 w 1 o wXwXwXwXwX",
"wXwXwXwXwXX > 4 w y w w w t w 4 O b J.XX:X,X2X<XoXw.d $ $ & & & + s w.XXoX:X2X2X$XP.q.6 , w w y y y w w 5 1 o wXwXwXwXwX",
"wXwXwXwXwXo 1 w w w w w y w w O s H.'.;X<X,X1X1X<X$XP.e.Q U I U 7.J.$X,X1X:X<X2X1X#XP.Q O 4 w w w w w 5 w 1 o wXwXwXwXwX",
"wXwXwXwXwXo 1 w w w w y w w 3 1 7.I.;X1X2X2X1X1X2X<X;XoXXX.X'..XOX%X2X1X2X:X<X2X3X1X[.'.n O 5 w w w w 5 5 1 o wXwXwXwXwX",
"wXwXwXwXwXX 1 5 w w w w w 4 O c 9.9.Z.W.#X1X2X,X1X2X,X<X<X,X;X:X<X2X1X1X1X1X2X-X+XT.9.9.5.1 4 w w w 4 w w 1 X wXwXwXwXwX",
"wXwXwXwXwXX 1 w w w w w w 4 o N  . . . .X.T.1X3X1X1X<X1X1X1X1X<X2X1X1X2X2X2X+X>. . . .} ,.8 1 w w 4 7 4 w @ X wXwXwXwXwX",
"wXwXwXwXwXwXo 5 4 w w w w 1 & ,.C.R.R.Z.8.2.8.+X2X2X1X1X<X2X1X1X1X1X1X2X-XZ.2.8.Z.T.R.G.2.m o w w w q w w @ X wXwXwXwXwX",
"wXwXwXwXwXwXo 4 4 w w w w @ n w.P b d d H 5.8.8.R.:X1X1X<X2X2X1X:X,X,XW.8.8.5.Y c d d H 6.5.o w w 4 w 4 4 o wXwXwXwXwXwX",
"wXwXwXwXwXwXX 2 w w w w 7 + ^ b F _.) B , > s 7.E.E.+X1X1X2X<X2X1X-XE.E.F.n , , q L `.T e 0.$ 4 y w w w 4 X wXwXwXwXwXwX",
"wXwXwXwXwXwXX 1 w 4 w w q o W 9 _.8X( B , q q 2 Q >X<X1X1X1X>X>X1X1X:Xe.4 q q , B A 6X X8 6.3 4 w w w 4 2 o wXwXwXwXwXwX",
"wXwXwXwXwXwXwXo 4 5 w w 7 o W 9 `.7X/ B > < Z /.x 6.,X<X1X1X1X>X1X1XJ.8 /./ q O q Z |. Xw ! 3 4 w w 4 w 1 X wXwXwXwXwXwX",
"wXwXwXwXwXwXwXo 1 w 4 w 4 @ ^ s ).0X^.V B V / 0X`.9 $X1X1X1X1X1X2X,Xb _ 9X] V B V ( 7X}.7 6.1 4 w 4 5 4 o wXwXwXwXwXwXwX",
"wXwXwXwXwXwXwXX > 4 w w w o H P D 7X7X/.( (.|.9X_ G >X1X1X1X1X,X1X1X! J 8X6X^.( (. X9X_ d Q @ w w w w 1 X wXwXwXwXwXwXwX",
"wXwXwXwXwXwXwXwXX 4 5 5 4 1 s w.8 [ 0X9X8X9X9X).7 P.2X2X1X1X,X>X1X2XoXr _ 8X9X8X9X8X`.7 ! H @ w 4 w 4 o wXwXwXwXwXwXwXwX",
"wXwXwXwXwXwXwXwXo o 4 w 5 4 1 w.A.5 K _.}._.` 8 S.2X3X2X2X2X2X2X2X2X<XI.9 J ).}.`.` 7 ! H.3 4 w w 4 > X wXwXwXwXwXwXwXwX",
"wXwXwXwXwXwXwXwXwXX > w w 4 o b OX].U s e s Y '.2X,XL.E W K.].' U H.<X3XoXQ z 9 s G K.$XY o w 4 4 4 X wXwXwXwXwXwXwXwXwX",
"wXwXwXwXwXwXwXwXwXwXX 1 5 w 2 # ! *X<X&X$X%X1X3X&XW % g g % 7 * g * E *X3X3X>X$X&X1X,X0.# 3 w 7 4 o wXwXwXwXwXwXwXwXwXwX",
"wXwXwXwXwXwXwXwXwXwXwXo 1 5 w @ 1 Y e.I.%X,X%XK.c 0 u.m.j.<.m c.M.u.* F J.oX&X*X].w.b # > 5 4 4 o X wXwXwXwXwXwXwXwXwXwX",
"wXwXwXwXwXwXwXwXwXwXwXwXX 1 5 4 o X % 6 r c 9 % m v.!.j.k.!.N.Q.~.m.u.g $ 8 r 8 0 * o o 4 w 2 o X wXwXwXwXwXwXwXwXwXwXwX",
"wXwXwXwXwXwXwXwXwXwXwXwXwXX > 4 2 o <.p.i.M <.p.B.B.c.y.1.3.1.p.U.~.~.V.a.i.+.1.p.+.# 1 4 o X wXwXwXwXwXwXwXwXwXwXwXwXwX",
"wXwXwXwXwXwXwXwXwXwXwXwXwXwXX   o O l v.Y.h.g.h.k.b.k.V.c.c.x.N.M.!.~.M.b.v.y.f.:.p o o X X wXwXwXwXwXwXwXwXwXwXwXwXwXwX",
"wXwXwXwXwXwXwXwXwXwXwXwXwXwXwX    o + i  .-.t.t.x.b.k.B.~.N.h.k.k.h.g.g.:.t.-.p & .     wXwXwXwXwXwXwXwXwXwXwXwXwXwXwXwX",
"wXwXwXwXwXwXwXwXwXwXwXwXwXwXwXwXwX  . . u } g ..d.d.f.l.:.d.s.m.g.t.s.:.@.p p O o   wXwXwXwXwXwXwXwXwXwXwXwXwXwXwXwXwXwX",
"wXwXwXwXwXwXwXwXwXwXwXwXwXwXwXwXwXwXo y 4 o o - h t.x.Y.:.*.c.n.g.y.;.h = X X 2 t 1 X wXwXwXwXwXwXwXwXwXwXwXwXwXwXwXwXwX",
"wXwXwXwXwXwXwXwXwXwXwXwXwXwXwXwXwXo 4 J w X t 1 $ &.z.n.x.y.x.l.:.;.%.; # y > e J t o wXwXwXwXwXwXwXwXwXwXwXwXwXwXwXwXwX",
"wXwXwXwXwXwXwXwXwXwXwXwXwXwXwXwXX 1 t F 1 1 D t o a -.;.d.f.d.;.%.$.p o t D 4 1 D F 4 o wXwXwXwXwXwXwXwXwXwXwXwXwXwXwXwX",
"wXwXwXwXwXwXwXwXwXwXwXwXwXwXwXwXX 4 S w X t J F 4 $ j j $.;.d.d.*.a o 7 F J S o y S y , o wXwXwXwXwXwXwXwXwXwXwXwXwXwXwX",
"wXwXwXwXwXwXwXwXwXwXwXwXwXwXwXX X 4 y 4 # D J S w O o o a } l ..i + o y S J D 2 4 t w 2 . X wXwXwXwXwXwXwXwXwXwXwXwXwXwX",
"wXwXwXwXwXwXwXwXwXwXwXwXwXwXX d T 4 o o 4 J J S y O 7 3 + O $ $ + # @ w S D J w O 3 , 2 b 8 X wXwXwXwXwXwXwXwXwXwXwXwXwX",
"wXwXwXwXwXwXwXwXwXwXwXwXwXwX2 {.qX=X{ @ y J F t w o 8 r # S.S.@ z r o w t S D S o 3 T {.%XF.2 wXwXwXwXwXwXwXwXwXwXwXwXwX",
"wXwXwXwXwXwXwXwXwXwXwXwXwXwX8 &X4X4X=X1 S D S t w o 7 v # S.! # v 9 @ 4 y S D S 1 D.qX4X<XOXs wXwXwXwXwXwXwXwXwXwXwXwXwX",
"wXwXwXwXwXwXwXwXwXwXwXwXwXwX2 '.3X3XL.1 F D S t 7 o 7 v 7 9 7 9 x 7 o 7 y S D D 1 A.4X5X<X.X8 wXwXwXwXwXwXwXwXwXwXwXwXwX",
"wXwXwXwXwXwXwXwXwXwXwXwXwXwXX P &X1X0.1 D D t t 4 o 7 x z o O r r r o 4 y t D D 2 ! 1X<X;X5.o wXwXwXwXwXwXwXwXwXwXwXwXwX",
"wXwXwXwXwXwXwXwXwXwXwXwXwXwXwXo G H.U 3 J F z y 4 o 2 4 7 # o 0 0 0 o 3 y t S J w H @XOX7.3 wXwXwXwXwXwXwXwXwXwXwXwXwXwX",
"wXwXwXwXwXwXwXwXwXwXwXwXwXwXwXwXX O O 4 J B x w 4 o o 1 # # # # o 1 o 4 y t t D w # s s # wXwXwXwXwXwXwXwXwXwXwXwXwXwXwX",
"wXwXwXwXwXwXwXwXwXwXwXwXwXwXwXwXwXwXX 2 S t t y 4 # ' r.K D.D.E F ~ 1 4 y t t S w X wXwXwXwXwXwXwXwXwXwXwXwXwXwXwXwXwXwX",
"wXwXwXwXwXwXwXwXwXwXwXwXwXwXwXwXwXwXX 2 t t t w w o H H q.' { E S.F o 4 y y t t 7 X wXwXwXwXwXwXwXwXwXwXwXwXwXwXwXwXwXwX",
"wXwXwXwXwXwXwXwXwXwXwXwXwXwXwXwXwXwXX 1 w e w w w o 1 s x 7 2 c H z o 7 y w y y 1 X wXwXwXwXwXwXwXwXwXwXwXwXwXwXwXwXwXwX",
"wXwXwXwXwXwXwXwXwXwXwXwXwXwXwXwXwXwXwX> 4 w w 7 w 1 X X X X X X X X o w w 4 w 7 2 X wXwXwXwXwXwXwXwXwXwXwXwXwXwXwXwXwXwX",
"wXwXwXwXwXwXwXwXwXwXwXwXwXwXwXwXwXwXwXo o 1 4 4 4 X o # X wXwXX o O o 4 1 4 1 1 o wXwXwXwXwXwXwXwXwXwXwXwXwXwXwXwXwXwXwX",
"wXwXwXwXwXwXwXwXwXwXwXwXwXwXwXwXwXwXwXwXX X 1 2 3 7 3 o o wXwXX # z 0 1 # @ o X wXwXwXwXwXwXwXwXwXwXwXwXwXwXwXwXwXwXwXwX",
"wXwXwXwXwXwXwXwXwXwXwXwXwXwXwXwXwXwXwXwXo o 9 x z x x 0 X wXwXo 0 9 9 9 7 0 $ o wXwXwXwXwXwXwXwXwXwXwXwXwXwXwXwXwXwXwXwX",
"wXwXwXwXwXwXwXwXwXwXwXwXwXwXwXwXwXwXwXwXX # 0 0 0 0 0 0 o wXwXo o # o o o o o o wXwXwXwXwXwXwXwXwXwXwXwXwXwXwXwXwXwXwXwX",
"wXwXwXwXwXwXwXwXwXwXwXwXwXwXwXwXwXwXwXwXo o o o o o o o X wXwXwXwXwXwXwXwXwXwXwXwXwXwXwXwXwXwXwXwXwXwXwXwXwXwXwXwXwXwXwX",
"wXwXwXwXwXwXwXwXwXwXwXwXwXwXwXwXwXwXwXwXwXwXwXwXwXwXwXwXwXwXwXwXwXwXwXwXwXwXwXwXwXwXwXwXwXwXwXwXwXwXwXwXwXwXwXwXwXwXwXwX",
"wXwXwXwXwXwXwXwXwXwXwXwXwXwXwXwXwXwXwXwXwXwXwXwXwXwXwXwXwXwXwXwXwXwXwXwXwXwXwXwXwXwXwXwXwXwXwXwXwXwXwXwXwXwXwXwXwXwXwXwX",
"wXwXwXwXwXwXwXwXwXwXwXwXwXwXwXwXwXwXwXwXwXwXwXwXwXwXwXwXwXwXwXwXwXwXwXwXwXwXwXwXwXwXwXwXwXwXwXwXwXwXwXwXwXwXwXwXwXwXwXwX",
"wXwXwXwXwXwXwXwXwXwXwXwXwXwXwXwXwXwXwXwXwXwXwXwXwXwXwXwXwXwXwXwXwXwXwXwXwXwXwXwXwXwXwXwXwXwXwXwXwXwXwXwXwXwXwXwXwXwXwXwX",
"wXwXwXwXwXwXwXwXwXwXwXwXwXwXwXwXwXwXwXwXwXwXwXwXwXwXwXwXwXwXwXwXwXwXwXwXwXwXwXwXwXwXwXwXwXwXwXwXwXwXwXwXwXwXwXwXwXwXwXwX"
};
