/* XPM */
static xpm_row_t const p1_front_7[] = {
/* columns rows colors chars-per-pixel */
"60 80 203 2 ",
"   c #161514",
".  c #1A1917",
"X  c #1D1C1A",
"o  c #181716",
"O  c #211E1C",
"+  c #251C12",
"@  c #22211E",
"#  c #2B231A",
"$  c #2F2A1C",
"%  c #2C2417",
"&  c #372917",
"*  c #3B3319",
"=  c #1D1E25",
"-  c #1F212D",
";  c #252423",
":  c #292623",
">  c #2B2A25",
",  c #2C2C2C",
"<  c #322D25",
"1  c #322E2B",
"2  c #34322B",
"3  c #3B342D",
"4  c #39392E",
"5  c #28283D",
"6  c #252433",
"7  c #333333",
"8  c #3A3633",
"9  c #3C3B32",
"0  c #3B3B3B",
"q  c #452E16",
"w  c #473517",
"e  c #583A16",
"r  c #633E18",
"t  c #443D35",
"y  c #423F3C",
"u  c #413427",
"i  c #5A4B14",
"p  c #694317",
"a  c #794916",
"s  c #665616",
"d  c #775616",
"f  c #424235",
"g  c #44433A",
"h  c #4D453B",
"j  c #4A4539",
"k  c #54493D",
"l  c #56483B",
"z  c #5D4126",
"x  c #6C5024",
"c  c #6E612C",
"v  c #2A2E48",
"b  c #2C3148",
"n  c #2C3358",
"m  c #363D62",
"M  c #444444",
"N  c #4C4C4C",
"B  c #5A4E41",
"V  c #544C44",
"C  c #5C5145",
"Z  c #58524C",
"A  c #535353",
"S  c #5A5A5A",
"D  c #625547",
"F  c #6B5D4C",
"G  c #64574B",
"H  c #645C53",
"J  c #72614E",
"K  c #66615B",
"L  c #746352",
"P  c #7B6A57",
"I  c #7D6B58",
"U  c #75685A",
"Y  c #6F614F",
"T  c #474D6C",
"R  c #4F5369",
"E  c #686868",
"W  c #7C7165",
"Q  c #63677A",
"!  c #7B7B7B",
"~  c #737373",
"^  c #844D18",
"/  c #8C511B",
"(  c #875616",
")  c #945619",
"_  c #955A19",
"`  c #9B5F18",
"'  c #96720F",
"]  c #9E6219",
"[  c #966613",
"{  c #997615",
"}  c #8A6E1D",
"|  c #A66919",
" . c #AD7218",
".. c #B37319",
"X. c #BC7C19",
"o. c #B57818",
"O. c #B16E1A",
"+. c #8E5624",
"@. c #935925",
"#. c #977929",
"$. c #916F32",
"%. c #A26B3A",
"&. c #9F734A",
"*. c #826E58",
"=. c #85715C",
"-. c #8C745C",
";. c #9B724B",
":. c #A87648",
">. c #A77C54",
",. c #8E7A63",
"<. c #8A7763",
"1. c #927B65",
"2. c #BA8216",
"3. c #BD8917",
"4. c #B99B1B",
"5. c #988027",
"6. c #A99137",
"7. c #B08F25",
"8. c #C48B16",
"9. c #C48818",
"0. c #CB9716",
"q. c #D19919",
"w. c #D7A51B",
"e. c #D7AC19",
"r. c #E1B31D",
"t. c #E5BA1A",
"y. c #CA9327",
"u. c #C3932B",
"i. c #C6A729",
"p. c #D6A627",
"a. c #DCB326",
"s. c #CAA538",
"d. c #DBBB39",
"f. c #E4BA39",
"g. c #E0B428",
"h. c #F4CE1E",
"j. c #ECC627",
"k. c #F2CD2B",
"l. c #FAD52A",
"z. c #ECC539",
"x. c #F6D23B",
"c. c #F0C935",
"v. c #B68455",
"b. c #9B846B",
"n. c #9A856D",
"m. c #988673",
"M. c #B78C64",
"N. c #A58B71",
"B. c #AD9277",
"V. c #B1977A",
"C. c #B5997C",
"Z. c #BA9977",
"A. c #AF8B67",
"S. c #D5B743",
"D. c #E5BB41",
"F. c #C7996C",
"G. c #C6976B",
"H. c #C59B73",
"J. c #D0A479",
"K. c #E9C947",
"L. c #F9D749",
"P. c #FADA56",
"I. c #6E7187",
"U. c #7D8192",
"Y. c #848485",
"T. c #838696",
"R. c #9B9B9C",
"E. c #959699",
"W. c #8E909D",
"Q. c #A69483",
"!. c #BDA182",
"~. c #BCA797",
"^. c #9294A2",
"/. c #AFAFB5",
"(. c #B6B7B9",
"). c #C09F81",
"_. c #C4A586",
"`. c #CBAD8C",
"'. c #C6A888",
"]. c #D8AC83",
"[. c #D5B18D",
"{. c #D4B492",
"}. c #DEBD99",
"|. c #DBB794",
" X c #E1B88F",
".X c #E3BE9A",
"XX c #E6C19C",
"oX c #EAC39D",
"OX c #DFC1A8",
"+X c #ECC7A1",
"@X c #EFC9A3",
"#X c #EBCAA7",
"$X c #F1CBA5",
"%X c #F2CEA9",
"&X c #F2D2B5",
"*X c #ECCEB7",
"=X c #C2C2C4",
"-X c #C9CACC",
";X c #CECED1",
":X c #DBDADB",
">X c #D4D4D5",
",X c #E1E1E2",
"<X c #00b140",
/* pixels */
"<X<X<X<X<X<X<X<X<X<X<X<X<X<X<X<X<X<X<X<X<X<X<X<X<X<X<X<X<X<X<X<X<X<X<X<X<X<X<X<X<X<X<X<X<X<X<X<X<X<X<X<X<X<X<X<X<X<X<X<X",
"<X<X<X<X<X<X<X<X<X<X<X<X<X<X<X<X<X<X<X<X<X<X<X<X<X<X<X<X<X<X<X<X<X<X<X<X<X<X<X<X<X<X<X<X<X<X<X<X<X<X<X<X<X<X<X<X<X<X<X<X",
"<X<X<X<X<X<X<X<X<X<X<X<X<X<X<X<X<X<X<X<X<X<X<X<X<X<X<X<X<X<X<X<X<X<X<X<X<X<X<X<X<X<X<X<X<X<X<X<X<X<X<X<X<X<X<X<X<X<X<X<X",
"<X<X<X<X<X<X<X<X<X<X<X<X<X<X<X<X<X<X<X<X<X<X<X<X<X<X<X<X<X<X<X<X<X<X<X<X<X<X<X<X<X<X<X<X<X<X<X<X<X<X<X<X<X<X<X<X<X<X<X<X",
"<X<X<X<X<X<X<X<X<X<X<X<X<X<X<X<X<X<X<X<X<X<X<X<X<X<X<X<X<X<X<X<X<X<X<X<X<X<X<X<X<X<X<X<X<X<X<X<X<X<X<X<X<X<X<X<X<X<X<X<X",
"<X<X<X<X<X<X<X<X<X<X<X<X<X<X<X<X<X<X<X<X<X<X<X<X<X<X<X<X<X. . <X<X<X<X<X<X<X<X<X<X<X<X<X<X<X<X<X<X<X<X<X<X<X<X<X<X<X<X<X",
"<X<X<X<X<X<X<X<X<X<X<X<X<X<X<X<X<X<X<X<X<X<X<X<X<X<X<X<XX : : . <X<X<X<X<X<X<X<X<X<X<X<X<X<X<X<X<X<X<X<X<X<X<X<X<X<X<X<X",
"<X<X<X<X<X<X<X<X<X<X<X<X<X<X<X<X<X<X<X<X<X<X<X<X<X<XX X 8 A A , X <X<X<X<X<X<X<X<X<X<X<X<X<X<X<X<X<X<X<X<X<X<X<X<X<X<X<X",
"<X<X<X<X<X<X<X<X<X<X<X<X<X<X<X<X<X<X<X<X<X<X<X<X<Xo ; M A S S A 0 X . <X<X<X<X<X<X<X<X<X<X<X<X<X<X<X<X<X<X<X<X<X<X<X<X<X",
"<X<X<X<X<X<X<X<X<X<X<X<X<X<X<X<X<X<X<X<X<X<X<XX X > N N A S S S A 0 : X <X<X<X<X<X<X<X<X<X<X<X<X<X<X<X<X<X<X<X<X<X<X<X<X",
"<X<X<X<X<X<X<X<X<X<X<X<X<X<X<X<X<X<X<X<X<X<X. $ 7 N N A S A S N N N N 0 ; . <X<X<X<X<X<X<X<X<X<X<X<X<X<X<X<X<X<X<X<X<X<X",
"<X<X<X<X<X<X<X<X<X<X<X<X<X<X<X<X<X<X<X<XX @ , b N N A N S S S S N M M N M 7 @ o <X<X<X<X<X<X<X<X<X<X<X<X<X<X<X<X<X<X<X<X",
"<X<X<X<X<X<X<X<X<X<X<X<X<X<X<X<X<X<XX X , 0 M M N N N A S S S A N N N N M M M 7 @ . <X<X<X<X<X<X<X<X<X<X<X<X<X<X<X<X<X<X",
"<X<X<X<X<X<X<X<X<X<X<X<X<X<X<X<Xo X > 7 0 0 M A N A A S S S S S A A N N N M g j 0 , X . <X<X<X<X<X<X<X<X<X<X<X<X<X<X<X<X",
"<X<X<X<X<X<X<X<X<X<X<X<X<X<X<X. ; 7 0 0 0 N N N N S S S S S S S A N N A M N M b 0 0 2 ; . <X<X<X<X<X<X<X<X<X<X<X<X<X<X<X",
"<X<X<X<X<X<X<X<X<X<X<X<X<X<XX : 8 0 0 0 M N N A S S S S S S S S S S A A N N M N M 0 0 7 : X <X<X<X<X<X<X<X<X<X<X<X<X<X<X",
"<X<X<X<X<X<X<X<X<X<X<X<X<XX : 0 7 0 b N M N N N S S S S S S S A S S A A N N N M M 0 y 0 0 : X <X<X<X<X<X<X<X<X<X<X<X<X<X",
"<X<X<X<X<X<X<X<X<X<X<X<X. , 0 0 0 0 M M N Z A A A S S A S S S S S S A S A A N A N y 0 0 0 0 > X <X<X<X<X<X<X<X<X<X<X<X<X",
"<X<X<X<X<X<X<X<X<X<X<XX , 8 0 0 0 0 M N N N N A A S S S S S S S A S A S A A N N N N g 0 0 0 0 ; X <X<X<X<X<X<X<X<X<X<X<X",
"<X<X<X<X<X<X<X<X<X<X. ; 0 0 7 0 0 M M M N M N A A A S S S S S A N A N N N N M M M M N b 0 0 0 0 ; . <X<X<X<X<X<X<X<X<X<X",
"<X<X<X<X<X<X<X<X<XX @ 7 0 0 0 M M M M 0 M 0 N N N N N A A A A A N M N N N N M M M 0 M M 0 0 0 0 7 X . <X<X<X<X<X<X<X<X<X",
"<X<X<X<X<X<X<X<X<XX , 0 7 0 0 0 0 M M M y y M N N N N M M M M M N N N M M M N M M 0 0 0 0 0 0 0 0 , X <X<X<X<X<X<X<X<X<X",
"<X<X<X<X<X<X<X<XX ; 7 0 0 0 0 0 M M M M M M M M M y 0 0 0 0 0 0 0 0 M M N N M M M M 0 7 0 0 0 0 0 8 = X <X<X<X<X<X<X<X<X",
"<X<X<X<X<X<X<X<XX 7 7 0 0 0 0 0 M M M M M 0 0 0 y g b 0 0 0 0 0 0 0 7 0 0 M M 0 0 M 0 0 0 0 0 0 0 0 , X <X<X<X<X<X<X<X<X",
"<X<X<X<X<X<X<XX ; 7 0 0 0 7 0 M N 0 M M 0 0 y 0 0 8 0 0 9 0 8 7 0 M 0 0 0 0 0 0 0 0 0 M 0 0 0 0 g b 7 ; . <X<X<X<X<X<X<X",
"<X<X<X<X<X<X<XX , 7 7 0 0 0 0 0 0 0 M 0 g b 0 0 0 7 7 7 7 7 7 7 7 7 7 0 7 0 0 0 0 0 0 0 0 0 0 0 0 7 7 , X <X<X<X<X<X<X<X",
"<X<X<X<X<X<Xo ; 7 7 7 0 7 0 7 7 7 0 0 0 0 7 0 8 7 , : , @ ; ; ; , : , 7 7 7 7 0 0 0 0 0 0 0 0 0 0 8 7 7 @ . <X<X<X<X<X<X",
"<X<X<X<X<X<X. : 7 7 7 0 0 0 0 0 0 0 0 0 7 8 7 , ; X @ # & * w q $ # @ @ ; , 7 7 7 0 0 0 0 0 0 0 0 0 7 7 : . <X<X<X<X<X<X",
"<X<X<X<X<X<X. , , 7 0 0 0 8 0 0 0 0 0 7 7 , O + * e d ' ' ' [ [ [ ( p w # X ; , 7 7 0 0 0 0 0 0 0 8 7 7 , . <X<X<X<X<X<X",
"<X<X<X<X<X<XX , 7 7 t b 7 0 7 0 0 7 8 , @ @   & a ( ` | X.9.X.o. ...` a p q . X > , 7 0 0 0 y 0 8 0 7 7 7 X <X<X<X<X<X<X",
"<X<X<X<X<X. ; 7 7 7 0 0 7 7 0 0 7 7 , @ 4 F h O q / | ` | ....O.| | ) ^ e + < h @ ; , 7 7 7 y 0 7 0 7 7 , X <X<X<X<X<X<X",
"<X<X<X<X<X. ; , 7 7 7 7 0 7 8 7 7 , = k N.V.C.P # q ) ` ) ) ) ) ) ^ e + $ h ,.b.Y > ; 7 7 7 9 b 0 7 7 7 7 ; . <X<X<X<X<X",
"<X<X<X<X<X. ; , 7 0 8 7 7 7 0 7 : O G B.`..X@X].<.1 & r a ^ / ) r & 3 L 1.C..X|.V.*.3 O 7 7 7 0 0 7 7 7 7 ; . <X<X<X<X<X",
"<X<X<X<X<XX ; 7 7 7 7 7 0 7 7 , O C B._..X.X@X+X[.1.l > + # # + # t 1.'.{.oX$X$X|.C.,.< @ 7 7 8 7 0 7 7 , ; . <X<X<X<X<X",
"<X<X<X<X<X. : , 7 7 8 7 8 0 7 O t N.)..X@X@X@X@X@X|.!.1.<.L Y U 1.V.|.oX$X.XoX$X@X{.C.*.@ , 7 7 7 7 7 7 7 : . <X<X<X<X<X",
"<X<X<X<X<XX ; 7 7 7 5 7 7 7 : ; ,.!. X@X@X@X@X@X@X@X.X[.'._.H._.`..X@X@X+XoX+X$X%X+X'.V.V X , 7 7 7 7 , , : X <X<X<X<X<X",
"<X<X<X<X<X. ; , 7 7 7 0 7 , X h &.;.:.G.J..X$X+X@X@X.X@X@X+X.X.X$X$X@X@X$X$X$XJ.G.>.%.:.*.; , 7 7 , 7 , 7 ; . <X<X<X<X<X",
"<X<X<X<X<X. @ 7 , 7 7 7 7 , O a / @.@./ / v..X$X@X@X@X@X@X@X@X@X@X@X@X$X$XoXF.@.^ @.@.@.+.3 @ 7 7 7 , 7 7 = . <X<X<X<X<X",
"<X<X<X<X<X<X= , , 7 7 7 7 ; < %.A.H.Z.M.>.%.%.G.@X@X@X@X+X@X@X@X@X@X%X$XJ.:.%.:.M.Z.H.Z.:.e X 7 7 7 , 7 , ; . <X<X<X<X<X",
"<X<X<X<X<X<XX , 7 7 7 7 7 O l =.y t 3 1 t G >.:.G. X.X@X@X@X@X@X.X.X XF.:.>.J h 2 7 8 g L =.@ 2 7 7 7 , , X <X<X<X<X<X<X",
"<X<X<X<X<X<X. , 7 , 7 7 , X F h S /.Q v 6 = > L H.G.].@X@X@X@X$X@X XF.F.-.2 = - v R /.~ 3 ,.; , 0 , 7 7 , X <X<X<X<X<X<X",
"<X<X<X<X<X<X. ; , 7 7 7 , = L 4 E.;XT n O 6 b 6 D }.%X@X@X@XXXXX@X@X.X*.> b 5 O 5 m (.(.8 =.> > 7 7 , , : . <X<X<X<X<X<X",
"<X<X<X<X<X<X<XX , 7 7 , , @ Y 9 R.-XT n O 5 m E.N J XXoX$X@XoXXX@X@X1.y R.T v O 5 m /.(.8 I > , 7 7 , 7 @ . <X<X<X<X<X<X",
"<X<X<X<X<X<X<X. : , 7 7 , @ Y t <.>XI.m n n R :XR.2 |.$X@X@X$X$X@X+Xl ~ ,XI.n n n Q >XR.2 =.@ , 7 , 7 , X <X<X<X<X<X<X<X",
"<X<X<X<X<X<X<X. = , 7 7 1 = D F M =X>X^.I.T.=X>XK D oX@X@X@XoXXX@X$X,.M =X;XW.I.T.;X>XS h I @ 7 7 7 , ; X <X<X<X<X<X<X<X",
"<X<X<X<X<X<X<X<XX : 7 , 7 ; u b.t K =X:X:X:X;X~ 4 '.%X@X@X@X#XXX@X$X|.h A =X:X:X:X-X! 2 ,.C ; 7 7 , , X <X<X<X<X<X<X<X<X",
"<X<X<X<X<X<X<X<X<XX , 7 , , ; ,.V.t y ~ Y.~ M t C.%X%X@X@X@X%X@X+X%X@X`.k 0 E Y.! N 8 b.N.> , 7 7 7 = . <X<X<X<X<X<X<X<X",
"<X<X<X<X<X<X<X<X<X. @ , 7 , @ t _.{.1.C y B <.{.%XoXn.C D n.!.L B 1.XX%XXXn.G h k *.`.|.C @ , , , ; . <X<X<X<X<X<X<X<X<X",
"<X<X<X<X<X<X<X<X<X<X. : , , , X L {.+X#XoX@X%X%X{.H $ s i @ > w s $ C {.%X%X#X+X@X%X}.*.; ; 7 7 , X <X<X<X<X<X<X<X<X<X<X",
"<X<X<X<X<X<X<X<X<X<X<XX ; 7 7 ; @ B <.N.{.}.{.n.t * 4.h.t.#.c d.l.4.* f n.'.{.`.V.*.f O = 7 , ; . . <X<X<X<X<X<X<X<X<X<X",
"<X<X<X<X<X<X<X<X<X<X<X<X. ; , , X . # # 2 4 2 > c S.L.e.a.K.a.d.K.k.4.s $ < 1 > < * . X , , : X . <X<X<X<X<X<X<X<X<X<X<X",
"<X<X<X<X<X<X<X<X<X<X<X<X<XX X ; > X } S.6.#.5.4.z.z.a.3.#.#.#.6.S.P.P.k.i.6.{ 7.4.} O : , @ X <X<X<X<X<X<X<X<X<X<X<X<X<X",
"<X<X<X<X<X<X<X<X<X<X<X<X<X<X. . X O d u.f.p.q.w.a.j.t.x.f.f.a.k.l.x.L.l.a.s.3.3.| e . X X . <X<X<X<X<X<X<X<X<X<X<X<X<X<X",
"<X<X<X<X<X<X<X<X<X<X<X<X<X<X<X<Xo   + & ^ ..2.9.p.e.r.z.K.z.e.t.e.w.q.0.o.X. .w #     <X<X<X<X<X<X<X<X<X<X<X<X<X<X<X<X<X",
"<X<X<X<X<X<X<X<X<X<X<X<X<X<X<X<X<Xo o . & a w d 9.8.0.u.o.2.4.t.0.X.8.o.] w w O ; o <X<X<X<X<X<X<X<X<X<X<X<X<X<X<X<X<X<X",
"<X<X<X<X<X<X<X<X<X<X<X<X<X<X<X<X<Xo : M : O X # p 2.a.K.X. .f.f.0.8.o.p % = o : y : . <X<X<X<X<X<X<X<X<X<X<X<X<X<X<X<X<X",
"<X<X<X<X<X<X<X<X<X<X<X<X<X<X<X<Xo @ M A , = M : O | y.d.e.3.p.y. .o.| $ ; 0 ; 2 N 8 X <X<X<X<X<X<X<X<X<X<X<X<X<X<X<X<X<X",
"<X<X<X<X<X<X<X<X<X<X<X<X<X<X<X<XX , N M X , N y O r ..o.9.8.9.X. .| w @ 0 A 7 @ y 0 ; o <X<X<X<X<X<X<X<X<X<X<X<X<X<X<X<X",
"<X<X<X<X<X<X<X<X<X<X<X<X<X<X<X. : M M 7 X M A N , + p e ` ..8.8.| e @ , M A M ; 7 0 , X <X<X<X<X<X<X<X<X<X<X<X<X<X<X<X<X",
"<X<X<X<X<X<X<X<X<X<X<X<X<X<Xo X , 0 M : > A N M 8 O X O e a p ^ q . + 8 M N A , @ ; X O X <X<X<X<X<X<X<X<X<X<X<X<X<X<X<X",
"<X<X<X<X<X<X<X<X<X<X<X<X<XX H Z ; ; , @ 7 S N M 8 O 2 , X $ > X @ ; X 7 M M A 0 O t U N.h o <X<X<X<X<X<X<X<X<X<X<X<X<X<X",
"<X<X<X<X<X<X<X<X<X<X<X<Xo h *X*XQ.g X X 0 N M 0 5 @ 2 f @ =.,.@ j 9 X 7 0 M N M : ~.&X.Xb.; <X<X<X<X<X<X<X<X<X<X<X<X<X<X",
"<X<X<X<X<X<X<X<X<X<X<X<X  P &X*X&XOXU @ M N 0 0 , X 2 j > F C > j 4 X , 0 0 N N ; Q.&XoXB.# <X<X<X<X<X<X<X<X<X<X<X<X<X<X",
"<X<X<X<X<X<X<X<X<X<X<X<Xo D #X%X%X%Xb.; N N y 0 7 X 4 j 4 @ @ 4 f 4 X , 0 0 N A : ,.$X|.L . <X<X<X<X<X<X<X<X<X<X<X<X<X<X",
"<X<X<X<X<X<X<X<X<X<X<X<X<X> !.+X+X.X*.; N N 0 0 , = 2 f f X @ 4 4 4 @ , 0 0 M A , Y |.1.> <X<X<X<X<X<X<X<X<X<X<X<X<X<X<X",
"<X<X<X<X<X<X<X<X<X<X<X<X<X. u b._.!.B , A M 0 8 , X X X @ . X @ @ X X > 7 0 0 A 7 4 k @ . <X<X<X<X<X<X<X<X<X<X<X<X<X<X<X",
"<X<X<X<X<X<X<X<X<X<X<X<X<X<Xo @ 3 1 X > V y 0 0 , @ j Z g A Z f > V @ , 0 y 0 N 7 . . <X<X<X<X<X<X<X<X<X<X<X<X<X<X<X<X<X",
"<X<X<X<X<X<X<X<X<X<X<X<X<X<X<X<X<X<X. : b 0 0 7 1 X W W W m.Q.Y U K ; , 7 0 0 0 , . <X<X<X<X<X<X<X<X<X<X<X<X<X<X<X<X<X<X",
"<X<X<X<X<X<X<X<X<X<X<X<X<X<X<X<X<X<X. ; 0 0 7 8 , @ < V U Z t G m.g X , 7 0 0 0 , . <X<X<X<X<X<X<X<X<X<X<X<X<X<X<X<X<X<X",
"<X<X<X<X<X<X<X<X<X<X<X<X<X<X<X<X<X<Xo ; 7 7 7 7 7 @ X @ @ X X ; > @ X , 7 , 7 7 : . <X<X<X<X<X<X<X<X<X<X<X<X<X<X<X<X<X<X",
"<X<X<X<X<X<X<X<X<X<X<X<X<X<X<X<X<X<X<XX ; , 7 7 7 ; X . . . . . X X @ 7 , 7 2 > @ <X<X<X<X<X<X<X<X<X<X<X<X<X<X<X<X<X<X<X",
"<X<X<X<X<X<X<X<X<X<X<X<X<X<X<X<X<X<X<X<Xo X O X X @ 4 ; X <X<X. ; X X @ @ X X X <X<X<X<X<X<X<X<X<X<X<X<X<X<X<X<X<X<X<X<X",
"<X<X<X<X<X<X<X<X<X<X<X<X<X<X<X<X<X<X<X<XX @ > > < 2 4 2 X <X<XX X < g g f > . X <X<X<X<X<X<X<X<X<X<X<X<X<X<X<X<X<X<X<X<X",
"<X<X<X<X<X<X<X<X<X<X<X<X<X<X<X<X<X<X<X<X. @ @ @ @ X @ @ X <X<XX < f f f g 4 @ . <X<X<X<X<X<X<X<X<X<X<X<X<X<X<X<X<X<X<X<X",
"<X<X<X<X<X<X<X<X<X<X<X<X<X<X<X<X<X<X<X<X<XX . . X X . . <X<X<XX > > > > > > @ X <X<X<X<X<X<X<X<X<X<X<X<X<X<X<X<X<X<X<X<X",
"<X<X<X<X<X<X<X<X<X<X<X<X<X<X<X<X<X<X<X<X<X<X<X<X<X<X<X<X<X<X<X. X . X . . . . . <X<X<X<X<X<X<X<X<X<X<X<X<X<X<X<X<X<X<X<X",
"<X<X<X<X<X<X<X<X<X<X<X<X<X<X<X<X<X<X<X<X<X<X<X<X<X<X<X<X<X<X<X<X<X<X<X<X<X<X<X<X<X<X<X<X<X<X<X<X<X<X<X<X<X<X<X<X<X<X<X<X",
"<X<X<X<X<X<X<X<X<X<X<X<X<X<X<X<X<X<X<X<X<X<X<X<X<X<X<X<X<X<X<X<X<X<X<X<X<X<X<X<X<X<X<X<X<X<X<X<X<X<X<X<X<X<X<X<X<X<X<X<X",
"<X<X<X<X<X<X<X<X<X<X<X<X<X<X<X<X<X<X<X<X<X<X<X<X<X<X<X<X<X<X<X<X<X<X<X<X<X<X<X<X<X<X<X<X<X<X<X<X<X<X<X<X<X<X<X<X<X<X<X<X",
"<X<X<X<X<X<X<X<X<X<X<X<X<X<X<X<X<X<X<X<X<X<X<X<X<X<X<X<X<X<X<X<X<X<X<X<X<X<X<X<X<X<X<X<X<X<X<X<X<X<X<X<X<X<X<X<X<X<X<X<X"
};
