/* XPM */
static xpm_row_t const p1_front_0[] = {
/* columns rows colors chars-per-pixel */
"60 80 216 2 ",
"   c #151514",
".  c #1A1917",
"X  c #1D1C1A",
"o  c #181716",
"O  c #211C14",
"+  c #201F1C",
"@  c #201616",
"#  c #23211E",
"$  c #2A2319",
"%  c #2B2519",
"&  c #352A15",
"*  c #322518",
"=  c #3A2916",
"-  c #3B3319",
";  c #221E29",
":  c #1F2028",
">  c #242422",
",  c #292622",
"<  c #2B2A25",
"1  c #2C2C2B",
"2  c #23222D",
"3  c #322D26",
"4  c #322F2C",
"5  c #34322B",
"6  c #3B352D",
"7  c #3A392F",
"8  c #242534",
"9  c #28283E",
"0  c #333333",
"q  c #393632",
"w  c #3C3A32",
"e  c #3B3B3B",
"r  c #452D16",
"t  c #4B3117",
"y  c #4B3318",
"u  c #593A16",
"i  c #603B18",
"p  c #433C33",
"a  c #483E34",
"s  c #4A3B24",
"d  c #694716",
"f  c #774A17",
"g  c #775216",
"h  c #635318",
"j  c #786116",
"k  c #424236",
"l  c #4D453B",
"z  c #4A4A3C",
"x  c #484338",
"c  c #564B3E",
"v  c #57483A",
"b  c #5A4E22",
"n  c #665825",
"m  c #6C4D2F",
"M  c #736325",
"N  c #6D602B",
"B  c #2A2D49",
"V  c #2C3254",
"C  c #343B5F",
"Z  c #353C60",
"A  c #3F414B",
"S  c #3E4568",
"D  c #444444",
"F  c #4C4C4C",
"G  c #484847",
"H  c #534B43",
"J  c #5B4E42",
"K  c #5E5347",
"L  c #535353",
"P  c #5A5A5A",
"I  c #505259",
"U  c #645547",
"Y  c #645748",
"T  c #665949",
"R  c #6A5C4C",
"E  c #725F4E",
"W  c #645B52",
"Q  c #6E6153",
"!  c #746452",
"~  c #7C6A56",
"^  c #7E6D59",
"/  c #74685D",
"(  c #75614A",
")  c #424868",
"_  c #565B74",
"`  c #4D5371",
"'  c #5D627B",
"]  c #666669",
"[  c #796E63",
"{  c #767677",
"}  c #7E7266",
"|  c #884E19",
" . c #8D521B",
".. c #865616",
"X. c #935519",
"o. c #945919",
"O. c #9A5C19",
"+. c #935F14",
"@. c #856615",
"#. c #9B661C",
"$. c #8A7617",
"%. c #957814",
"&. c #A36419",
"*. c #A96C18",
"=. c #AA7116",
"-. c #B47C16",
";. c #BC7C19",
":. c #B6751A",
">. c #B06F1A",
",. c #8A5424",
"<. c #945C29",
"1. c #927B28",
"2. c #996434",
"3. c #9A602D",
"4. c #A36D3C",
"5. c #A07E21",
"6. c #816D58",
"7. c #87725D",
"8. c #9B7958",
"9. c #A97647",
"0. c #B27E4F",
"q. c #8A7761",
"w. c #897866",
"e. c #917B64",
"r. c #947E68",
"t. c #BB8316",
"y. c #BC8617",
"u. c #998223",
"i. c #A88F34",
"p. c #AB9332",
"a. c #C58817",
"s. c #CA9619",
"d. c #D29B19",
"f. c #D4A416",
"g. c #DEB61C",
"h. c #C7A217",
"j. c #E6BA19",
"k. c #C99B26",
"l. c #C18F23",
"z. c #D8A826",
"x. c #D6AA35",
"c. c #DCB739",
"v. c #CFAA2A",
"b. c #E7BB24",
"n. c #E3BD39",
"m. c #EEC71E",
"M. c #EAC422",
"N. c #EDC735",
"B. c #F6D337",
"V. c #F3CF3F",
"C. c #B88759",
"Z. c #9A836B",
"A. c #95816B",
"S. c #9C8978",
"D. c #8D8073",
"F. c #A68869",
"G. c #BE8E61",
"H. c #BD9268",
"J. c #A38B71",
"K. c #AD8E73",
"L. c #AD9276",
"P. c #AD957D",
"I. c #B59A7D",
"U. c #B6997C",
"Y. c #CEB143",
"T. c #E0B744",
"R. c #C49568",
"E. c #CA9E73",
"W. c #D4A87E",
"Q. c #EEC648",
"!. c #F4D144",
"~. c #F8D64B",
"^. c #F8D54C",
"/. c #838383",
"(. c #8A8A8A",
"). c #959599",
"_. c #BD9F81",
"`. c #A49585",
"'. c #BFA283",
"]. c #B9A08B",
"[. c #BEAA9B",
"{. c #ACACAD",
"}. c #A4A5AA",
"|. c #AAABB3",
" X c #BABBBC",
".X c #B2B2B2",
"XX c #C3A586",
"oX c #C6A989",
"OX c #CBAC8B",
"+X c #D3AD87",
"@X c #DAB38C",
"#X c #D4B492",
"$X c #DCB996",
"%X c #DEBE99",
"&X c #DAB693",
"*X c #E3BC94",
"=X c #E2BE9A",
"-X c #E0B88F",
";X c #C7B2A3",
":X c #E5C19D",
">X c #E9C39E",
",X c #EBC6A1",
"<X c #EEC9A3",
"1X c #EFCDAF",
"2X c #F1CBA5",
"3X c #F4CFAA",
"4X c #F2D2B5",
"5X c #F3D5BC",
"6X c #F0CEB0",
"7X c #C3C3C8",
"8X c #CECFD1",
"9X c #D3D3D5",
"0X c #DBDBDC",
"qX c #D7D7DA",
"wX c #F1D6C1",
"eX c #00b140",
/* pixels */
"eXeXeXeXeXeXeXeXeXeXeXeXeXeXeXeXeXeXeXeXeXeXeXeXeXeXeXeXeXeXeXeXeXeXeXeXeXeXeXeXeXeXeXeXeXeXeXeXeXeXeXeXeXeXeXeXeXeXeXeX",
"eXeXeXeXeXeXeXeXeXeXeXeXeXeXeXeXeXeXeXeXeXeXeXeXeXeXeXeXeXeXeXeXeXeXeXeXeXeXeXeXeXeXeXeXeXeXeXeXeXeXeXeXeXeXeXeXeXeXeXeX",
"eXeXeXeXeXeXeXeXeXeXeXeXeXeXeXeXeXeXeXeXeXeXeXeXeXeXeXeXeXeXeXeXeXeXeXeXeXeXeXeXeXeXeXeXeXeXeXeXeXeXeXeXeXeXeXeXeXeXeXeX",
"eXeXeXeXeXeXeXeXeXeXeXeXeXeXeXeXeXeXeXeXeXeXeXeXeXeXeXeXeXeXeXeXeXeXeXeXeXeXeXeXeXeXeXeXeXeXeXeXeXeXeXeXeXeXeXeXeXeXeXeX",
"eXeXeXeXeXeXeXeXeXeXeXeXeXeXeXeXeXeXeXeXeXeXeXeXeXeXeXeXX X X X eXeXeXeXeXeXeXeXeXeXeXeXeXeXeXeXeXeXeXeXeXeXeXeXeXeXeXeX",
"eXeXeXeXeXeXeXeXeXeXeXeXeXeXeXeXeXeXeXeXeXeXeXeXeXeXeXX < F G > X eXeXeXeXeXeXeXeXeXeXeXeXeXeXeXeXeXeXeXeXeXeXeXeXeXeXeX",
"eXeXeXeXeXeXeXeXeXeXeXeXeXeXeXeXeXeXeXeXeXeXeXeXeX. X q L P P F 1 X eXeXeXeXeXeXeXeXeXeXeXeXeXeXeXeXeXeXeXeXeXeXeXeXeXeX",
"eXeXeXeXeXeXeXeXeXeXeXeXeXeXeXeXeXeXeXeXeXeXeXeXX > e L L P P L F 0 X X eXeXeXeXeXeXeXeXeXeXeXeXeXeXeXeXeXeXeXeXeXeXeXeX",
"eXeXeXeXeXeXeXeXeXeXeXeXeXeXeXeXeXeXeXeXeXeX. + < A F L P P P L F L D 1 X . eXeXeXeXeXeXeXeXeXeXeXeXeXeXeXeXeXeXeXeXeXeX",
"eXeXeXeXeXeXeXeXeXeXeXeXeXeXeXeXeXeXeXeX. X > q D F L F L P P L F G G G e < X . eXeXeXeXeXeXeXeXeXeXeXeXeXeXeXeXeXeXeXeX",
"eXeXeXeXeXeXeXeXeXeXeXeXeXeXeXeXeXeX. X > 0 e G F F F L P P P L F F G G F G e > X . eXeXeXeXeXeXeXeXeXeXeXeXeXeXeXeXeXeX",
"eXeXeXeXeXeXeXeXeXeXeXeXeXeXeXeXeX. : 1 e e D F F L L P P P P P L F F F H B D D 0 # X eXeXeXeXeXeXeXeXeXeXeXeXeXeXeXeXeX",
"eXeXeXeXeXeXeXeXeXeXeXeXeXeXeX. X 1 0 e e F F F F L P P P P P P P F F F G G D e e e 1 X . eXeXeXeXeXeXeXeXeXeXeXeXeXeXeX",
"eXeXeXeXeXeXeXeXeXeXeXeXeXeX. > 0 e e e D F F L P P P P P P P P P L L L F F G G e e e 5 # X eXeXeXeXeXeXeXeXeXeXeXeXeXeX",
"eXeXeXeXeXeXeXeXeXeXeXeXeXX > 0 q e e D G F F L P P P P P P P P P P L L F F F D G e e e q > X eXeXeXeXeXeXeXeXeXeXeXeXeX",
"eXeXeXeXeXeXeXeXeXeXeXeXX , 0 e e e D D G F F L L P P P P P P P P P L L L F L F G e e A e 0 > . eXeXeXeXeXeXeXeXeXeXeXeX",
"eXeXeXeXeXeXeXeXeXeXeX. > 0 e e e e k G F F L L L P P P P P P L P P P L L L F F F G A e A e 0 > X eXeXeXeXeXeXeXeXeXeXeX",
"eXeXeXeXeXeXeXeXeXeXX > 0 e e e e e G G F D F L L P P P P P L L L L F L F F G G G F G e w e e 0 X X eXeXeXeXeXeXeXeXeXeX",
"eXeXeXeXeXeXeXeXeXX X 0 e e e e D D D A x z F F F F L L L L L L F F F F F G D D e k D e e e e e 1 X eXeXeXeXeXeXeXeXeXeX",
"eXeXeXeXeXeXeXeXeXo < 0 e e e e e D D D D B D F F F F F F F F G G G G G G G G G k A e e e e e e e > X eXeXeXeXeXeXeXeXeX",
"eXeXeXeXeXeXeXeXX > 0 e e e e e D D D D A G G D D k A e e e e e A A G G G G D D G A q e e e e e e 0 : . eXeXeXeXeXeXeXeX",
"eXeXeXeXeXeXeXeXX 1 0 e e e w e D D D D G k k B A e e q e e e e q e w e A D G e A k e q e e e e e e < X eXeXeXeXeXeXeXeX",
"eXeXeXeXeXeXeXX : 5 e e e e e A G D D D e e k e e e e e e e e e e e e e e e A e e w e e e e e e e e 0 > . eXeXeXeXeXeXeX",
"eXeXeXeXeXeXeXX 1 0 0 0 e e e e e e D e e e e e e q 0 0 0 0 0 0 e e e e q e w e e A e e e e e e e 0 0 1 X eXeXeXeXeXeXeX",
"eXeXeXeXeXeXX + 4 0 0 e e e 0 e e e e e e e e e 0 0 1 1 < < < 1 1 1 1 q 0 0 e e e e e e e e e e e e 0 0 + eXeXeXeXeXeXeX",
"eXeXeXeXeXeXX > 0 0 0 e e e 0 e e e e e 0 e 0 1 2 > X X O % % % # + # $ 1 0 0 0 e e e e B e e e e e 0 0 > . eXeXeXeXeXeX",
"eXeXeXeXeXeXo 1 0 0 e e e 0 e e e e 0 e e 4 , O $ - h g @.@.+...g h t & # : 1 1 0 0 e e x e e e 0 e 0 0 1 X eXeXeXeXeXeX",
"eXeXeXeXeXeXX 4 1 0 e e 0 e 0 e e 0 e 4 , X . = f ..+.=.-.-.-.>.=.*.+.f u & . + 1 0 0 q w e A w 0 e 0 0 4 . eXeXeXeXeXeX",
"eXeXeXeXeXeXX 4 0 0 B e w q 0 e 0 e 4 # > l 6 @ u X.O.&.>.;.;.:.:.*.O.| d = O 6 # , 0 0 0 e D e e e 0 0 4 + eXeXeXeXeXeX",
"eXeXeXeXeX. > 0 0 0 0 e e 0 e e 0 1 X 6 q.J.r.H O u &.O.X.O.O.X.X.X.i r O 3 E 7.c # > 0 0 0 q k 0 e 0 1 4 > . eXeXeXeXeX",
"eXeXeXeXeX. > 1 0 0 e 0 0 0 e 0 1 X a S._.$X=X_.T # t | X.| X.O.| t $ l ! F.+XoXJ.R > > 0 0 0 B e e 0 0 1 > . eXeXeXeXeX",
"eXeXeXeXeXX > 0 0 0 0 0 0 e 0 1 + p J._.*X,X<X,XW.! 5 $ & r r r + 3 ~ U.oX$X<X<XOXL.! > > 0 0 e 0 0 0 0 0 > . eXeXeXeXeX",
"eXeXeXeXeXX > 0 0 0 0 0 0 0 0 > 4 r.E.*X<X=X<X2X>XOXJ.6.J l x l E Z.OX=X,X,X<X<X,XOXU.T X 1 0 0 0 0 0 0 1 > X eXeXeXeXeX",
"eXeXeXeXeX. 2 1 0 e 0 0 0 0 1 # ~ _.#X=X<X2X<X2X<X,X&XXX_.U.U.U._.&X<X2X<X*X>X2X2X>XXXL.p > 0 0 0 0 0 0 0 2 X eXeXeXeXeX",
"eXeXeXeXeX. > 0 0 0 0 0 0 0 > p F.F.E.-X*X2X<X=X<X<X>X,X>X=X$X*X,X<X<X<X<X<X2X>X*XW.R.F.~ + 1 0 0 0 1 0 4 > X eXeXeXeXeX",
"eXeXeXeXeX. + 0 0 0 0 0 0 1 X m ,.|  .,.4.W.<X,X<X<X,X,X2X<X,X>X2X<X<X<X2X2X-X4.<.,.| | 2.5 > 0 0 0 1 0 4 > . eXeXeXeXeX",
"eXeXeXeXeXeX> 4 1 0 0 0 0 > % ,.9.R.G.9.3.3.R.-X2X<X<X<X<X<X2X<X<X<X<X2X=XE.4.<.9.C.H.C.2.u > 0 0 1 0 1 0 : X eXeXeXeXeX",
"eXeXeXeXeXeXX 1 0 0 0 0 0 > l 8.6.E U R 6.8.9.9.+X>X<X<X<X<X,X2X=X>X<X-X0.4.9.6.R Y T 6.e.( X 1 0 0 1 0 4 X eXeXeXeXeXeX",
"eXeXeXeXeXeXo 1 0 0 0 0 1 + R U q { I 8 ; , v F.C.R.@X,X<X<X<X<X<X-XR.C.F.U 3 ; 8 A { G x e.> 1 0 0 1 1 1 X eXeXeXeXeXeX",
"eXeXeXeXeXeXX > 1 1 0 1 1 X ! w (.qX_ V 2 2 8 3 r.*X*X<X<X<X>X>X<X>X*XK.p 8 8 ; B ) 7X{.5 7.< < 0 0 0 0 1 o eXeXeXeXeXeX",
"eXeXeXeXeXeXeXX 1 0 0 0 1 + ! 7 ).7X) B @ 2 Z ] w Z.<X,X<X<X,X=X<X<X'.p ] S 8 o 8 Z |. Xq ^ < 1 0 0 4 0 > . eXeXeXeXeXeX",
"eXeXeXeXeXeXeXX 1 4 0 1 1 + E w (.9X' V B B ) 7X(.w &X<X<X<X<X<X<X,XK W 8X' V 9 V ) 7X{.7 ^ < 1 0 4 0 1 X eXeXeXeXeXeXeX",
"eXeXeXeXeXeXeXX : 1 0 1 0 + T c P 8X X_ S ` ).0X/.z %X<X<X<X<X,X<X<XE P 0X|._ S ` }.qX{ w ^ + 0 0 1 0 > X eXeXeXeXeXeXeX",
"eXeXeXeXeXeXeXeXX 1 1 0 1 : x q.4 ).qX9X7X9X0X}.7 Z.2X<X<X<X,X*X<X2X_.q (.0X9X7X8X0X{.w ! K + 0 0 1 1 X eXeXeXeXeXeXeXeX",
"eXeXeXeXeXeXeXeXX + 1 1 1 1 % Z.^ 0 { |. X{./.q ^ >X3X2X2X2X2X1X2X2X,XZ.5 ] }. X.X(.e T J.5 1 0 0 1 2 X eXeXeXeXeXeXeXeX",
"eXeXeXeXeXeXeXeXeXX < 0 0 1 + K OXJ.x q e q a Z.:X2XOXA.A.oX$XJ.e.XX<X<X_.J 7 7 q p 7.#X! # 1 1 1 1 X eXeXeXeXeXeXeXeXeX",
"eXeXeXeXeXeXeXeXeXeXX < 1 0 > , e.:X%X'._.XX=X3X:XA.5 - - 5 l & - 3 e.,X1X:XOX].'.%X,XS.% > 0 0 1 X X eXeXeXeXeXeXeXeXeX",
"eXeXeXeXeXeXeXeXeXeX. X 2 0 1 + 5 6._.OX,X3X,XOXR % $.g.h.n - p.M.$.$ Q oX%X2X,X%X_.Q 4 # 4 0 1 + X eXeXeXeXeXeXeXeXeXeX",
"eXeXeXeXeXeXeXeXeXeXeXX X > 4 1 X X , q J R c 3 - i.!.M.M.^.c.!.~.M.%.- 3 H K l w % . X 1 4 < + X eXeXeXeXeXeXeXeXeXeXeX",
"eXeXeXeXeXeXeXeXeXeXeXeX. X > 1 > O j 1.N b n 1.n.!.c.y.u.i.i.i.Y.~.!.b.u.M h M 1.j $ 2 1 > X X eXeXeXeXeXeXeXeXeXeXeXeX",
"eXeXeXeXeXeXeXeXeXeXeXeXeXX o X # + @.T.Q.z.z.j.M.M.g.N.x.k.k.c.B.~.~.B.N.c.s.h.a.d . # . . eXeXeXeXeXeXeXeXeXeXeXeXeXeX",
"eXeXeXeXeXeXeXeXeXeXeXeXeXeXeXo o O = u #.;.a.a.z.j.j.V.!.V.g.j.m.j.z.f.-.t.:.d t O o o eXeXeXeXeXeXeXeXeXeXeXeXeXeXeXeX",
"eXeXeXeXeXeXeXeXeXeXeXeXeXeXeXeXeX    . t +.g #.k.s.d.k.l.k.s.j.s.t.a.a.*.d d $ o   eXeXeXeXeXeXeXeXeXeXeXeXeXeXeXeXeXeX",
"eXeXeXeXeXeXeXeXeXeXeXeXeXeXeXeXeXeXX 1 # % X - ..;.z.x.=.*.x.N.h.t.;.f t o X > 0 : . eXeXeXeXeXeXeXeXeXeXeXeXeXeXeXeXeX",
"eXeXeXeXeXeXeXeXeXeXeXeXeXeXeXeXeXX 1 L q X 1 > * *.z.Q.z.-.x.d.t.;.:.= X 0 X e L 0 X eXeXeXeXeXeXeXeXeXeXeXeXeXeXeXeXeX",
"eXeXeXeXeXeXeXeXeXeXeXeXeXeXeXeX. X e F 1 # F e + f :.a.s.s.a.;.*.&.d O 0 F 1 < F D < . eXeXeXeXeXeXeXeXeXeXeXeXeXeXeXeX",
"eXeXeXeXeXeXeXeXeXeXeXeXeXeXeXeXX 1 G B % 6 F F < * ..g *.;.s.a.-.f # 1 G L q X p D 0 # . eXeXeXeXeXeXeXeXeXeXeXeXeXeXeX",
"eXeXeXeXeXeXeXeXeXeXeXeXeXeXeX. : 0 e 5 + D L F 0 + X + f X.+.#.i O X 0 D L F > 1 e 0 2 X eXeXeXeXeXeXeXeXeXeXeXeXeXeXeX",
"eXeXeXeXeXeXeXeXeXeXeXeXeXeX. 1 < X < > , L L D e + < $ $ % # & + + X q D F L 0 # 1 # + w + eXeXeXeXeXeXeXeXeXeXeXeXeXeX",
"eXeXeXeXeXeXeXeXeXeXeXeXeXeX3 [.;X/ 5 . 0 L G e 0 + 6 6 + ! A.# 6 k X 0 e D L D X < W P.OX! + eXeXeXeXeXeXeXeXeXeXeXeXeX",
"eXeXeXeXeXeXeXeXeXeXeXeXeX  T 4X5X4X].< e F z A 0 + 4 k , J.J.# z w + 1 e D F G + S.wX4X>XL., eXeXeXeXeXeXeXeXeXeXeXeXeX",
"eXeXeXeXeXeXeXeXeXeXeXeXeXo Y 2X1X4X]., G L e e 0 X 5 z 3 H H 3 z 7 + 1 e e F F > S.5X6X>XK., eXeXeXeXeXeXeXeXeXeXeXeXeX",
"eXeXeXeXeXeXeXeXeXeXeXeXeXeX3 OX2X2XS.> F F e e 0 X 5 z k X + 7 k 7 # < B p G L 1 6.2X<X&XE X eXeXeXeXeXeXeXeXeXeXeXeXeX",
"eXeXeXeXeXeXeXeXeXeXeXeXeXeXo c '.$X7.> F F e e 1 X 3 7 k # + 7 7 7 # 3 e e D L 4 U &X+X7., eXeXeXeXeXeXeXeXeXeXeXeXeXeX",
"eXeXeXeXeXeXeXeXeXeXeXeXeXeXeXX 3 c p , L A e e 1 X X X X . . X X X . 1 0 e e L 7 < J x # eXeXeXeXeXeXeXeXeXeXeXeXeXeXeX",
"eXeXeXeXeXeXeXeXeXeXeXeXeXeXeXeXeXo o 1 G e e q 1 # H W l P W H 5 L > < e e e D 0 . o eXeXeXeXeXeXeXeXeXeXeXeXeXeXeXeXeX",
"eXeXeXeXeXeXeXeXeXeXeXeXeXeXeXeXeXeX. > e e e e 0 + [ [ { r.`.Q [ Q > 1 0 e e A 0 . eXeXeXeXeXeXeXeXeXeXeXeXeXeXeXeXeXeX",
"eXeXeXeXeXeXeXeXeXeXeXeXeXeXeXeXeXeX. > e e 0 0 1 + < z Q K w K w.z X 1 0 q e e < X eXeXeXeXeXeXeXeXeXeXeXeXeXeXeXeXeXeX",
"eXeXeXeXeXeXeXeXeXeXeXeXeXeXeXeXeXeXeX+ 0 0 0 0 5 : X $ X X X # # # # 1 0 0 0 0 > X eXeXeXeXeXeXeXeXeXeXeXeXeXeXeXeXeXeX",
"eXeXeXeXeXeXeXeXeXeXeXeXeXeXeXeXeXeXeXX > 1 0 1 0 > o X X eXX X X . + 0 1 0 1 < + eXeXeXeXeXeXeXeXeXeXeXeXeXeXeXeXeXeXeX",
"eXeXeXeXeXeXeXeXeXeXeXeXeXeXeXeXeXeXeXeXX X + # + , > X X eXeXX X > > + # # X X eXeXeXeXeXeXeXeXeXeXeXeXeXeXeXeXeXeXeXeX",
"eXeXeXeXeXeXeXeXeXeXeXeXeXeXeXeXeXeXeXeX. X 5 w 7 k x < . eXeX. < k k 7 7 7 # . eXeXeXeXeXeXeXeXeXeXeXeXeXeXeXeXeXeXeXeX",
"eXeXeXeXeXeXeXeXeXeXeXeXeXeXeXeXeXeXeXeX. # 3 5 5 5 5 3 X eXeX+ 3 5 5 5 5 3 # X eXeXeXeXeXeXeXeXeXeXeXeXeXeXeXeXeXeXeXeX",
"eXeXeXeXeXeXeXeXeXeXeXeXeXeXeXeXeXeXeXeXX X X + X X + + X eXeX. + + X X X X X X eXeXeXeXeXeXeXeXeXeXeXeXeXeXeXeXeXeXeXeX",
"eXeXeXeXeXeXeXeXeXeXeXeXeXeXeXeXeXeXeXeXeXeXeXeXeXeXeXeXeXeXeXeXeXeXeXeXeXeXeXeXeXeXeXeXeXeXeXeXeXeXeXeXeXeXeXeXeXeXeXeX",
"eXeXeXeXeXeXeXeXeXeXeXeXeXeXeXeXeXeXeXeXeXeXeXeXeXeXeXeXeXeXeXeXeXeXeXeXeXeXeXeXeXeXeXeXeXeXeXeXeXeXeXeXeXeXeXeXeXeXeXeX",
"eXeXeXeXeXeXeXeXeXeXeXeXeXeXeXeXeXeXeXeXeXeXeXeXeXeXeXeXeXeXeXeXeXeXeXeXeXeXeXeXeXeXeXeXeXeXeXeXeXeXeXeXeXeXeXeXeXeXeXeX",
"eXeXeXeXeXeXeXeXeXeXeXeXeXeXeXeXeXeXeXeXeXeXeXeXeXeXeXeXeXeXeXeXeXeXeXeXeXeXeXeXeXeXeXeXeXeXeXeXeXeXeXeXeXeXeXeXeXeXeXeX",
"eXeXeXeXeXeXeXeXeXeXeXeXeXeXeXeXeXeXeXeXeXeXeXeXeXeXeXeXeXeXeXeXeXeXeXeXeXeXeXeXeXeXeXeXeXeXeXeXeXeXeXeXeXeXeXeXeXeXeXeX",
"eXeXeXeXeXeXeXeXeXeXeXeXeXeXeXeXeXeXeXeXeXeXeXeXeXeXeXeXeXeXeXeXeXeXeXeXeXeXeXeXeXeXeXeXeXeXeXeXeXeXeXeXeXeXeXeXeXeXeXeX"
};
