/* XPM */
static xpm_row_t const p1_front_2[] = {
/* columns rows colors chars-per-pixel */
"60 90 215 2 ",
"   c #151514",
".  c #191715",
"X  c #1A1917",
"o  c #1C1B19",
"O  c #171818",
"+  c #241D16",
"@  c #201E1C",
"#  c #231917",
"$  c #242017",
"%  c #2D2215",
"&  c #22211E",
"*  c #2B2319",
"=  c #2E2816",
"-  c #382B17",
";  c #393118",
":  c #1D1E22",
">  c #231D27",
",  c #242422",
"<  c #292724",
"1  c #2C2A25",
"2  c #2C2C2C",
"3  c #22232B",
"4  c #312D26",
"5  c #322E2A",
"6  c #33312A",
"7  c #3A342D",
"8  c #39392F",
"9  c #353224",
"0  c #252435",
"q  c #333333",
"w  c #3B3B34",
"e  c #3B3B3B",
"r  c #393735",
"t  c #442D17",
"y  c #493317",
"u  c #553717",
"i  c #663E17",
"p  c #443C34",
"a  c #443E38",
"s  c #423B29",
"d  c #5A4315",
"f  c #4D4117",
"g  c #694718",
"h  c #774916",
"j  c #685515",
"k  c #785416",
"l  c #434236",
"z  c #464539",
"x  c #4B433B",
"c  c #4B463A",
"v  c #51463A",
"b  c #554A3E",
"n  c #574D24",
"m  c #715234",
"M  c #766527",
"N  c #7F6110",
"B  c #2A2C43",
"V  c #2C314C",
"C  c #2F3558",
"Z  c #343B5B",
"A  c #333B63",
"S  c #3D425E",
"D  c #3F4563",
"F  c #434343",
"G  c #4C4C4C",
"H  c #4C4C44",
"J  c #524A41",
"K  c #5B4E41",
"L  c #5D5143",
"P  c #5C534B",
"I  c #535353",
"U  c #5A5A5A",
"Y  c #65594A",
"T  c #695B4B",
"R  c #625647",
"E  c #655E56",
"W  c #735F4E",
"Q  c #7E6D59",
"!  c #776654",
"~  c #6F6151",
"^  c #4D526D",
"/  c #5E6279",
"(  c #686867",
")  c #686B7E",
"_  c #787777",
"`  c #874B15",
"'  c #884E19",
"]  c #8C521A",
"[  c #885617",
"{  c #935519",
"}  c #9C5D19",
"|  c #945A18",
" . c #826311",
".. c #9A6417",
"X. c #8F7815",
"o. c #A36419",
"O. c #A86B18",
"+. c #B16F1A",
"@. c #A97613",
"#. c #BC7A19",
"$. c #B57719",
"%. c #945C29",
"&. c #885628",
"*. c #9F6734",
"=. c #946C2A",
"-. c #A37033",
";. c #C17D1A",
":. c #85725D",
">. c #89735D",
",. c #8B6F53",
"<. c #AD794A",
"1. c #A87342",
"2. c #A47C56",
"3. c #A97546",
"4. c #8B7661",
"5. c #8E7A63",
"6. c #837769",
"7. c #927C65",
"8. c #977E65",
"9. c #B98517",
"0. c #BD991A",
"q. c #AE9330",
"w. c #BCA139",
"e. c #C58B16",
"r. c #C38318",
"t. c #C58B19",
"y. c #C89515",
"u. c #D49D18",
"i. c #D8A718",
"p. c #D3AB19",
"a. c #E3B718",
"s. c #C79422",
"d. c #D29D26",
"f. c #C69228",
"g. c #CCA726",
"h. c #D4AD32",
"j. c #E5BB37",
"k. c #E3B82D",
"l. c #E9C11C",
"z. c #F1C815",
"x. c #ECC526",
"c. c #F6D128",
"v. c #E8C43B",
"b. c #F8D43A",
"n. c #F2CC2F",
"m. c #B9885A",
"M. c #AE8155",
"N. c #9A836B",
"B. c #9A8268",
"V. c #978776",
"C. c #A1886F",
"Z. c #A78666",
"A. c #A38C72",
"S. c #AC9276",
"D. c #AC9378",
"F. c #B19579",
"G. c #B49A7D",
"H. c #B89A7C",
"J. c #BA8C61",
"K. c #CEB142",
"L. c #C49568",
"P. c #CB9D71",
"I. c #CBA178",
"U. c #D4A97E",
"Y. c #E0B445",
"T. c #DEC148",
"R. c #FAD847",
"E. c #F9D754",
"W. c #EBC742",
"Q. c #717482",
"!. c #8C8C8C",
"~. c #838487",
"^. c #979797",
"/. c #878996",
"(. c #A69787",
"). c #B99E82",
"_. c #B8A18B",
"`. c #999BA5",
"'. c #A7A7AA",
"]. c #B5B6B8",
"[. c #AAABB4",
"{. c #C3A485",
"}. c #CCAD8C",
"|. c #C6A787",
" X c #D4AD86",
".X c #D7B28C",
"XX c #D3B391",
"oX c #D9B693",
"OX c #DCBA96",
"+X c #DDBD9A",
"@X c #CDB08E",
"#X c #E1BA94",
"$X c #E3BE99",
"%X c #E6C19C",
"&X c #E9C39E",
"*X c #D9C1AD",
"=X c #EBC6A1",
"-X c #EFC9A3",
";X c #E4C7AD",
":X c #F1CBA5",
">X c #F1CEA9",
",X c #F3D1A8",
"<X c #ECCDB3",
"1X c #F1D2B8",
"2X c #F1CFB0",
"3X c #C2C2C4",
"4X c #CBCBCC",
"5X c #D3D3D4",
"6X c #DADADB",
"7X c #D7D8DA",
"8X c #CDCED2",
"9X c #F7DBC4",
"0X c #DFDFE0",
"qX c #E3E3E4",
"wX c #00B140",
/* pixels */
"wXwXwXwXwXwXwXwXwXwXwXwXwXwXwXwXwXwXwXwXwXwXwXwXwXwXwXwXwXwXwXwXwXwXwXwXwXwXwXwXwXwXwXwXwXwXwXwXwXwXwXwXwXwXwXwXwXwXwXwX",
"wXwXwXwXwXwXwXwXwXwXwXwXwXwXwXwXwXwXwXwXwXwXwXwXwXwXwXwXwXwXwXwXwXwXwXwXwXwXwXwXwXwXwXwXwXwXwXwXwXwXwXwXwXwXwXwXwXwXwXwX",
"wXwXwXwXwXwXwXwXwXwXwXwXwXwXwXwXwXwXwXwXwXwXwXwXwXwXwXwXwXwXwXwXwXwXwXwXwXwXwXwXwXwXwXwXwXwXwXwXwXwXwXwXwXwXwXwXwXwXwXwX",
"wXwXwXwXwXwXwXwXwXwXwXwXwXwXwXwXwXwXwXwXwXwXwXwXwXwXwXwXwXwXwXwXwXwXwXwXwXwXwXwXwXwXwXwXwXwXwXwXwXwXwXwXwXwXwXwXwXwXwXwX",
"wXwXwXwXwXwXwXwXwXwXwXwXwXwXwXwXwXwXwXwXwXwXwXwXwXwXwXwXwXwXX wXwXwXwXwXwXwXwXwXwXwXwXwXwXwXwXwXwXwXwXwXwXwXwXwXwXwXwXwX",
"wXwXwXwXwXwXwXwXwXwXwXwXwXwXwXwXwXwXwXwXwXwXwXwXwXwXwXwXo X @ o wXwXwXwXwXwXwXwXwXwXwXwXwXwXwXwXwXwXwXwXwXwXwXwXwXwXwXwX",
"wXwXwXwXwXwXwXwXwXwXwXwXwXwXwXwXwXwXwXwXwXwXwXwXwXwXwXX o q G 2 o X wXwXwXwXwXwXwXwXwXwXwXwXwXwXwXwXwXwXwXwXwXwXwXwXwXwX",
"wXwXwXwXwXwXwXwXwXwXwXwXwXwXwXwXwXwXwXwXwXwXwXwXwXwXX , F U U I e o X wXwXwXwXwXwXwXwXwXwXwXwXwXwXwXwXwXwXwXwXwXwXwXwXwX",
"wXwXwXwXwXwXwXwXwXwXwXwXwXwXwXwXwXwXwXwXwXwXwXwXo o 2 G I U U U I l , O X wXwXwXwXwXwXwXwXwXwXwXwXwXwXwXwXwXwXwXwXwXwXwX",
"wXwXwXwXwXwXwXwXwXwXwXwXwXwXwXwXwXwXwXwXwXwXX o & q G I G U U U I I F 2 : o wXwXwXwXwXwXwXwXwXwXwXwXwXwXwXwXwXwXwXwXwXwX",
"wXwXwXwXwXwXwXwXwXwXwXwXwXwXwXwXwXwXwXwXwXo o < e G I G U U U U I G I G l < o o wXwXwXwXwXwXwXwXwXwXwXwXwXwXwXwXwXwXwXwX",
"wXwXwXwXwXwXwXwXwXwXwXwXwXwXwXwXwXwXwXO o , q F G G G G I U U U I G F F G G w & X X wXwXwXwXwXwXwXwXwXwXwXwXwXwXwXwXwXwX",
"wXwXwXwXwXwXwXwXwXwXwXwXwXwXwXwXwXo o & 6 e S G G G G G U U U U I G G G F F G G q , o X wXwXwXwXwXwXwXwXwXwXwXwXwXwXwXwX",
"wXwXwXwXwXwXwXwXwXwXwXwXwXwXwXX O & 2 w e l z I G I G U U U U U I G G I G G c V F F q & o X wXwXwXwXwXwXwXwXwXwXwXwXwXwX",
"wXwXwXwXwXwXwXwXwXwXwXwXwXwXo o 2 q e e S c G G G G U U U U U U I I I G G G G F F e V e 2 o X wXwXwXwXwXwXwXwXwXwXwXwXwX",
"wXwXwXwXwXwXwXwXwXwXwXwXX o , q e e e z G G G G U U U U U U U U U I G G G G F G G F l a e q , X wXwXwXwXwXwXwXwXwXwXwXwX",
"wXwXwXwXwXwXwXwXwXwXwXo o 1 q e e e e G G G I I U U U U U U U U U U U I I I I G F F G e e e e < o X wXwXwXwXwXwXwXwXwXwX",
"wXwXwXwXwXwXwXwXwXwXo o 2 e e e w V G F G G G U U U U U U U U U U U U I I G G G G F F e e e e a 2 o X wXwXwXwXwXwXwXwXwX",
"wXwXwXwXwXwXwXwXwXo o 2 e q e r z F F H G G I I U U U U U U U U U U U U I I I G I G G F e e V l e 1 o o wXwXwXwXwXwXwXwX",
"wXwXwXwXwXwXwXwXo o 2 e e e e e F F G G G I I I I U U U U U U U I U U U I U I I G G G G F e e l e e 1 o o wXwXwXwXwXwXwX",
"wXwXwXwXwXwXwXo o 2 e q e w e e F G G G G G I I U U U U U U U U I I I I I I I G G G G G G F e w e V r < o wXwXwXwXwXwXwX",
"wXwXwXwXwXwXwXX , e e e r l V F F F F F F G I I I U I U I U U I G I G I G G G F F F F F F F V l e l a w , X wXwXwXwXwXwX",
"wXwXwXwXwXwXo , q e r e e F F z F F l F S F G G G G G G I I I H I G G G G G F F F F F e e F F e w e e V q o o wXwXwXwXwX",
"wXwXwXwXwXX o 2 q e e e e F e F F F F l w F F G G G G G H H S H F G G F F F G G G G F F e e e F e e e l e 1 o X wXwXwXwX",
"wXwXwXwXwXX < q e e e e r e F F F H z F G G F F F F S 8 S 8 w e e F F H G J H H F F H F e e e e e e e e e q , o wXwXwXwX",
"wXwXwXwXX : q q e e e e 8 l F F F V a G F e e F e e e w e r e e e e e e e V F G z l e F F e e e F e r e e e q o X wXwXwX",
"wXwXwXwXX 2 q e r e e e e S F F F z F F e e e e e e w e e e e e e e e w e e e e F S e e e e e e e e e e e V q 3 o wXwXwX",
"wXwXwXX o q q e e e e r e F G e e H V e e e e e e r e r r r r q e e V z e e e e e e e e e e e e e e e e w l e 2 o o wXwX",
"wXwXwXX < q q q r e e e q S e e F e e e V w e e e q q q q q q q q q e e e e e r e e e e S e r w e e e e q r q q , o wXwX",
"wXwXX o 2 q q q e q e e q 8 e e e e e e r w e q q 2 2 2 2 1 < 1 < 2 2 2 2 q q q q e e e 8 l e 8 e e e e e e e q 2 o wXwX",
"wXwXo , 2 q q r e e e q r e e e e e e r e q q 2 < : o o o $ $ $ o o o @ , < 2 q q q e e w r e S e e e e r e e q 2 o X wX",
"wXwXX , q q q e e e q q r e e e e q r r q 2 & o o - d j k N N N k g d y * o o , 2 q q r r r e e e e e e e e r q q , o wX",
"wXwXX 2 q 2 q e e e q e e e V r r e q 2 @ X + y h h ..@.@.@.+.o.......| [ u - % o , 2 q q r e e e z e e e e q q q 2 X wX",
"wXwXo 2 q q e e e q e e e w w r q 5 , o * X # i ` | ..o.#.r.r.;.;.9.#.o.[ h h t . o o 1 q q r r q V e e q e q q q 2 o wX",
"wXX o q 2 q q e e q r q e q r r 2 : @ v ! R * + g | } } o.O.+.+.+.o.} { { h t   * R 7 X , 2 q q 2 e F e q e q q q 2 o o ",
"wXo o q q q q e q e q q e q q 2 o < ! S.F.S.5.4 + i o.o.| { { { { { { i - + + s :.8.:.l o , q q q q e e e e q q 2 q : X ",
"wXo , 2 2 q e e q q q e r q 2 o 1 >.G.{.$X&X}.B.s + u h { { ` } } ' u # 9 T 4.F.XXXXG.B.J o , 6 q e q e e q q q q q , X ",
"wXX , q q q q q q q q e q 2 : 1 4.H.{.$X=X:X=XXXC.v $ + - y u u t % o b Z.H.{.oX-X-XOXH.A.L o , q q e q e e r q 2 2 , X ",
"wXX , 2 q q e q q q e q 5 , @ Q F.{.&X%X$X:X:X-XXXF.>.K 7 1 > < 1 a ! F.}.$X=X=X-X-X-XoXH.D.b X 1 q q e q q q q q 2 , X ",
"wXX , q q q q q q q e q 2 o K F.).+X$X-X:X:X&X:X&XoX{.G.S.C.Z.8.C.F.).OX-X-X-X#X&X-X-X-XXXH.C.4 o q q q q q q q q q , o ",
"wXX , 2 q q r q r q q q o 5 V.H.XX:X-X-X-X-X=X:X-X-X$X#X X|.|.{.|..X$X:X-X-X-X$X:X:X:X:X=X|.H.! o < q q q q q 2 2 q , X ",
"wXo & q 2 q q q q q q < X T 2.2.<.I.U.#X-X-X$X-X-X-X$X-X:X=X=X#X$X:X:X-X-X-X-X-X:X$XU.U.M.2.2.Z.7 : q q q 2 q q q 2 , X ",
"wXo @ 2 q q r q q q q , < &.' ` ` { ] %. X-X:X:X-X-X-X-X-X-X-X&X-X-X-X-X:X:X:X:X#X1.{ ] ` ` ` %.b @ 2 q q q q 2 2 q : o ",
"wXX o q 2 q q q q q 2 o y ] 1.J.J.<.-.%.%.L.#X:X-X-X-X-X=X:X-X-X-X-X-X-X:X:X$XI.*.{ *.<.m.L.<.%.m & , r q 2 q 2 q 2 o o ",
"wXwXo 2 q q q q q 2 2 o m Z.A.C.5.4.8.Z.<.*.*. X:X:X:X-X&X-X&X:X-X$X$X:X:X#X1.%.<.Z.8.4.>.7.S.Z.1.- : q q q q q q 2 o X ",
"wXwXX 3 2 q q q q 2 , , B.R , 6 q > : , a >.m.<.J.U.$X-X:X:X:X:X:X=X$X.XL.<.m.8.K 5 : : q q < p A.c o q q q 2 q q 1 o wX",
"wXwXo , q 2 2 q q q , 1 5.1 ( 4X`.C V 0 > @ v F.P.P..X=X-X-X-X&X:X:X#XP.P.I.T * > : B C Q.4X!.> 4.R o q q q q q 2 3 o wX",
"wXwXX : 2 q 2 q 2 q & 7 >.< `.6X) Z 0 # 0 V > 7 H.:X:X-X-X-X-X$X$X:X:X:X Xa > B B # 0 C ^ 8X3Xq ~ T o 2 q q 2 2 q , X wX",
"wXwXwXo < q q q q 2 : 7 Q < '.5X/ C : O 0 A Q.E 5 {.=X&X-X-X:X&X%X-X-XOXc e /.D B . : C D 3X3Xe Y T o 2 q q q 2 2 : X wX",
"wXwXwXX : q 2 q q q , 6 4., ^.7X/.C C 0 C Z [.8XV R &X-X-X-X-X-X-X-X:X5.< [.8XD C B B A / 8X].2 ~ L o q q 2 2 q < X wXwX",
"wXwXwXo o 2 q q 2 q , < 5.9 ( 5X4XQ.A A Z Q.5X8Xx T -X-X-X-X-X-X-X-X,XN.2 [.0X/.A A A ^ ].6X^., 4.l & q q q q q : o wXwX",
"wXwXwXwXX , 2 2 q 2 < o :.Y 2 '.6X5X[.`.].0X7X_ < H.:X-X-X:X-X%XOX-X-XOX8 U 8X0X3X`.'.4X6X3XF 8 N.1 < q 2 q 2 < o wXwXwX",
"wXwXwXwXX o 1 q 2 q 2 o L C.8 F '.4X6X6X7X4X~., :.&X-X-X-X-X-X=X&X-X-X&XA.< ( *X6X7X6X5X].( * B.Q o 2 q 2 q 6 @ o wXwXwX",
"wXwXwXwXwXX , 2 q q 2 : 4 C.G.p 2 ( !.!._ G < ! $X:X,X-X-X-X:X:X-X-X,X-X-XN.1 e _ !.!._ w 6 N.G.p o q q 2 q 3 X wXwXwXwX",
"wXwXwXwXwXwXo , 2 q q < o T }.XXQ l 1 1 6 L D.=X:X%XA.T Y B.@XH.~ Y N.%X,X-X|.~ 7 1 < 7 T ).+XQ & < q q q 2 o X wXwXwXwX",
"wXwXwXwXwXwXX o < q 6 2 & 1 7.OX=X+X@X}.oX=X>X>XXXY & - ; o z 1 = ; o L }.,X:X:X#X}.}.OX:X,XC.6 o q q 2 2 o X wXwXwXwXwX",
"wXwXwXwXwXwXwXo o < q q < o 7 4.|.XX&X,X,X:X=XD.l @ X.a.p.M & l g.a.9.  q G.+X=X,X,X:X%X).Q 6 o 1 2 q 2 & X wXwXwXwXwXwX",
"wXwXwXwXwXwXwXwXO o < 2 2 , O o 6 c ~ N.A.7.P , 9 q.n.n.z.b.w.h.R.R.l.q.$ , H Q B.:.Y l & O O 3 q q 2 o X wXwXwXwXwXwXwX",
"wXwXwXwXwXwXwXwXwXo o , 2 q : o ; y = & & $ = M h.E.W.y.0.T.v.g.h.T.v.n.0.j ; = & & 9 n f o & 2 2 3 o o wXwXwXwXwXwXwXwX",
"wXwXwXwXwXwXwXwXwXwXo o o < < o n j.T.w.q.q.p.c.b.h.p.0.=.X.=.=.q.T.E.E.R.c.T.K.9.0.g.s.j O < < & o X wXwXwXwXwXwXwXwXwX",
"wXwXwXwXwXwXwXwXwXwXwXX X X o o d @.Y.j.i.u.i.i.x.a.l.n.v.k.j.k.n.c.R.R.b.z.h.g.9.y.9.| - X o X X wXwXwXwXwXwXwXwXwXwXwX",
"wXwXwXwXwXwXwXwXwXwXwXwXO O X X % + h %.$.r.r.s.v.a.l.R.E.R.k.i.a.a.a.i.p.y.@.0.;.g - * .     wXwXwXwXwXwXwXwXwXwXwXwXwX",
"wXwXwXwXwXwXwXwXwXwXwXwXwXwX        % i ..[ [ t.d.y.u.y.9.g.y.i.a.y.9.y.e.#.o.h k - X     wXwXwXwXwXwXwXwXwXwXwXwXwXwXwX",
"wXwXwXwXwXwXwXwXwXwXwXwXwXwXwXwXX , , # t @ * ..O.y.d.h.@.o.$.j.l.i.9.9.o.&.y O o X < , X wXwXwXwXwXwXwXwXwXwXwXwXwXwXwX",
"wXwXwXwXwXwXwXwXwXwXwXwXwXwXwXX o V L < o < @ $ g y.j.E.d.O.s.E.d.y.e.;.| * o < X 2 G F @ O wXwXwXwXwXwXwXwXwXwXwXwXwXwX",
"wXwXwXwXwXwXwXwXwXwXwXwXwXwXwXo < F G & o F e O u +.f.d.k.y.e.s.9.O.+.+.u O 2 F & , G I e o X wXwXwXwXwXwXwXwXwXwXwXwXwX",
"wXwXwXwXwXwXwXwXwXwXwXwXwXwXX o q G r O 2 G H 3 $ h r.#.#.e.y.r.#.+.o.g o , F I q o e I F 2 o wXwXwXwXwXwXwXwXwXwXwXwXwX",
"wXwXwXwXwXwXwXwXwXwXwXwXwXwX# 2 e F < o e I I e o t k u } $.r.e.e.$.h $ , e I I F o 1 F F q , o wXwXwXwXwXwXwXwXwXwXwXwX",
"wXwXwXwXwXwXwXwXwXwXwXwXwXO O 2 e e , , G I G e 1 o o o g } { ..o.u % X 9 w F I G 6 @ e e e 2 o X wXwXwXwXwXwXwXwXwXwXwX",
"wXwXwXwXwXwXwXwXwXwXwXwXO , 5 : o & o q I I F e q o 1 @ + t + * ; o o o < 8 S I U e o q q , o & & X wXwXwXwXwXwXwXwXwXwX",
"wXwXwXwXwXwXwXwXwXwXwXwX@ (.*XV.c & X F I G S w 1 o a 7 o < T p O 6 8 o < e F F I F @ @ o , J N.A.4 X wXwXwXwXwXwXwXwXwX",
"wXwXwXwXwXwXwXwXwXwXwX. a ;X9X1X;XP o G I F p 7 < o 7 l @ W #XY & H z o , e l l G I < @ I _.;X-X.XQ o wXwXwXwXwXwXwXwXwX",
"wXwXwXwXwXwXwXwXwXwXwX  b =X<X2X;Xb , G H S e e < : 8 c 4 w ).6 6 c 8 & & r e S G G 2 7 *X9X1X:X$X8.@ wXwXwXwXwXwXwXwXwX",
"wXwXwXwXwXwXwXwXwXwXwXX 7 @X>X>X+X7 2 I H e e q , @ 8 z l @ z o l z 8 & & q e e G I r 5 XX2X<X>X#X>.# wXwXwXwXwXwXwXwXwX",
"wXwXwXwXwXwXwXwXwXwXwXwXX ! $X:X}.1 q I H F e q , @ r z c & X & l 8 w < & q e e G I a , ).:X-X$X|.v X wXwXwXwXwXwXwXwXwX",
"wXwXwXwXwXwXwXwXwXwXwXwXX @ ! |.S., e I F e e q , o 6 8 z 1 o 1 8 8 8 < & q e e F G H @ A.$X#X}.W o wXwXwXwXwXwXwXwXwXwX",
"wXwXwXwXwXwXwXwXwXwXwXwXwXX X 5 s o F I e e e q , o X o $ O O o o o o o @ q r z e I G @ K 8.>.v @ O wXwXwXwXwXwXwXwXwXwX",
"wXwXwXwXwXwXwXwXwXwXwXwXwXwXwX. O o e G e e e q , : a z w l x l 7 < c < : 6 e V e F F > o o X X wXwXwXwXwXwXwXwXwXwXwXwX",
"wXwXwXwXwXwXwXwXwXwXwXwXwXwXwXwXwXo r F e e e q , < (.V.E V.(.(.Y P 6.7 & q e e e e e & o wXwXwXwXwXwXwXwXwXwXwXwXwXwXwX",
"wXwXwXwXwXwXwXwXwXwXwXwXwXwXwXwXwXo 5 r e e e q < o J J 6.6.E ~ ( V.J o , q r r e e e @ wXwXwXwXwXwXwXwXwXwXwXwXwXwXwXwX",
"wXwXwXwXwXwXwXwXwXwXwXwXwXwXwXwXwXo 2 e q q q q 2 o * z H a 1 < P P b o , q q q e e q o wXwXwXwXwXwXwXwXwXwXwXwXwXwXwXwX",
"wXwXwXwXwXwXwXwXwXwXwXwXwXwXwXwXwXo , q q q q q 2 o o o O   X o o o o o 1 q q 2 q 2 2 o wXwXwXwXwXwXwXwXwXwXwXwXwXwXwXwX",
"wXwXwXwXwXwXwXwXwXwXwXwXwXwXwXwXwXo o 3 2 q 2 r 2 o @ & o o wXX o O O o 2 q q q 2 2 , o wXwXwXwXwXwXwXwXwXwXwXwXwXwXwXwX",
"wXwXwXwXwXwXwXwXwXwXwXwXwXwXwXwXwXwXX o o & @ o o o o & X wXwXwXo o 9 , o @ o & @ o o wXwXwXwXwXwXwXwXwXwXwXwXwXwXwXwXwX",
"wXwXwXwXwXwXwXwXwXwXwXwXwXwXwXwXwXwXwXo X , 8 8 l z 6 o o wXwXwXo 9 l r 9 1 1 1 @ O wXwXwXwXwXwXwXwXwXwXwXwXwXwXwXwXwXwX",
"wXwXwXwXwXwXwXwXwXwXwXwXwXwXwXwXwXwXwXX @ w z z l z z 6 o X wXo o 6 6 9 9 4 6 1 , o wXwXwXwXwXwXwXwXwXwXwXwXwXwXwXwXwXwX",
"wXwXwXwXwXwXwXwXwXwXwXwXwXwXwXwXwXwXwXo & 9 6 6 9 6 6 6 @ o wXo o o o o O o o o o o wXwXwXwXwXwXwXwXwXwXwXwXwXwXwXwXwXwX",
"wXwXwXwXwXwXwXwXwXwXwXwXwXwXwXwXwXwXwXX o @ o o o o o o o X wXwXwXwXwXwXwXwXwXwXwXwXwXwXwXwXwXwXwXwXwXwXwXwXwXwXwXwXwXwX",
"wXwXwXwXwXwXwXwXwXwXwXwXwXwXwXwXwXwXwXwXo X o X o o o o o wXwXwXwXwXwXwXwXwXwXwXwXwXwXwXwXwXwXwXwXwXwXwXwXwXwXwXwXwXwXwX",
"wXwXwXwXwXwXwXwXwXwXwXwXwXwXwXwXwXwXwXwXwXwXwXwXwXwXwXwXwXwXwXwXwXwXwXwXwXwXwXwXwXwXwXwXwXwXwXwXwXwXwXwXwXwXwXwXwXwXwXwX"
};
