/* XPM */
static xpm_row_t const p1_front_8[] = {
/* columns rows colors chars-per-pixel */
"60 80 216 2 ",
"   c #161514",
".  c #191715",
"X  c #1A1917",
"o  c #1D1C1A",
"O  c #211E1C",
"+  c #271D14",
"@  c #22211D",
"#  c #2A231A",
"$  c #2E2718",
"%  c #332517",
"&  c #372A18",
"*  c #383017",
"=  c #1E1F23",
"-  c #221B22",
";  c #1E202B",
":  c #252423",
">  c #292623",
",  c #2C2A25",
"<  c #2C2C2C",
"1  c #282729",
"2  c #302F2D",
"3  c #322D26",
"4  c #33322C",
"5  c #3B352D",
"6  c #39392F",
"7  c #262636",
"8  c #333333",
"9  c #3D3B32",
"0  c #3B3B3B",
"q  c #393632",
"w  c #432C17",
"e  c #483416",
"r  c #553B19",
"t  c #563716",
"y  c #653D15",
"u  c #433C33",
"i  c #493F35",
"p  c #4D3B2A",
"a  c #524615",
"s  c #4C4014",
"d  c #6B4318",
"f  c #654517",
"g  c #774A17",
"h  c #765714",
"j  c #424236",
"k  c #44423B",
"l  c #4C443B",
"z  c #4A4639",
"x  c #53483D",
"c  c #564A3C",
"v  c #574D26",
"b  c #6E4723",
"n  c #786625",
"m  c #292C44",
"M  c #292D4A",
"N  c #2D3459",
"B  c #2A2F50",
"V  c #373E62",
"C  c #3A4162",
"Z  c #444444",
"A  c #4C4C4C",
"S  c #4C4742",
"D  c #544B43",
"F  c #5A4E41",
"G  c #5B5248",
"H  c #535353",
"J  c #5A5A5A",
"K  c #4A4E5F",
"L  c #625345",
"P  c #66594B",
"I  c #6B5C4C",
"U  c #635649",
"Y  c #715D4D",
"T  c #6D6256",
"R  c #736353",
"E  c #7A6956",
"W  c #7E6D59",
"Q  c #796756",
"!  c #7B664F",
"~  c #454B6A",
"^  c #4C516C",
"/  c #585D77",
"(  c #5D627E",
")  c #696968",
"_  c #646464",
"`  c #7B6F63",
"'  c #646777",
"]  c #767676",
"[  c #7F7468",
"{  c #874E19",
"}  c #8E521C",
"|  c #885716",
" . c #935619",
".. c #965919",
"X. c #995E17",
"o. c #A05F1A",
"O. c #846B1B",
"+. c #996816",
"@. c #906E0F",
"#. c #A26319",
"$. c #AC6C1A",
"%. c #A66D18",
"&. c #AB7117",
"*. c #B47A17",
"=. c #B47419",
"-. c #BB7B19",
";. c #B67918",
":. c #905A29",
">. c #957826",
",. c #9B6737",
"<. c #87742C",
"1. c #846C54",
"2. c #816E5A",
"3. c #84725D",
"4. c #A87649",
"5. c #A27A54",
"6. c #B17C4D",
"7. c #8B7661",
"8. c #8D7963",
"9. c #88796B",
"0. c #927C65",
"q. c #997D61",
"w. c #A88D19",
"e. c #BB8315",
"r. c #B7861A",
"t. c #958033",
"y. c #AF942C",
"u. c #C38B16",
"i. c #C48A19",
"p. c #CA9616",
"a. c #D49E19",
"s. c #D9AA1B",
"d. c #D9B118",
"f. c #E4BA1C",
"g. c #E3B619",
"h. c #C89323",
"j. c #D39B2A",
"k. c #D9AA27",
"l. c #C9A63E",
"z. c #DEB736",
"x. c #D1AC37",
"c. c #E5BB2A",
"v. c #E3B73B",
"b. c #EEC91D",
"n. c #F7D22A",
"m. c #EBC738",
"M. c #F2CB38",
"N. c #EFCA2A",
"B. c #B7875B",
"V. c #9C836B",
"C. c #968169",
"Z. c #938577",
"A. c #A88868",
"S. c #A48C72",
"D. c #A98F74",
"F. c #AC9175",
"G. c #AE967A",
"H. c #A79076",
"J. c #B4997C",
"K. c #B79879",
"L. c #BA9068",
"P. c #D4B743",
"I. c #E6B940",
"U. c #C4956A",
"Y. c #C19265",
"T. c #C29B75",
"R. c #CDA278",
"E. c #CFA176",
"W. c #D1A57B",
"Q. c #EAC745",
"!. c #F2CC45",
"~. c #F9D747",
"^. c #F9D853",
"/. c #75788B",
"(. c #838384",
"). c #8B8B8C",
"_. c #848793",
"`. c #979797",
"'. c #BB9F81",
"]. c #AA9887",
"[. c #BEA182",
"{. c #B9A595",
"}. c #A2A2A3",
"|. c #B6B7B9",
" X c #ACADB5",
".X c #C6A888",
"XX c #CAAC8B",
"oX c #C4A585",
"OX c #D5AD86",
"+X c #D2B18F",
"@X c #DDB38A",
"#X c #D4B391",
"$X c #DBB996",
"%X c #DDBD99",
"&X c #DAB693",
"*X c #CCB19A",
"=X c #E3BE9A",
"-X c #E4BC95",
";X c #E6C29D",
":X c #E9C49E",
">X c #EBC6A1",
",X c #EFC9A3",
"<X c #EFCDAD",
"1X c #F0CBA5",
"2X c #F2CEAB",
"3X c #E2C9B6",
"4X c #F2D2B6",
"5X c #BCBDC3",
"6X c #CACBCC",
"7X c #C6C6CA",
"8X c #D3D3D5",
"9X c #DBDBDB",
"0X c #D7D7D8",
"qX c #CCCDD0",
"wX c #DEDEE0",
"eX c #00b140",
/* pixels */
"eXeXeXeXeXeXeXeXeXeXeXeXeXeXeXeXeXeXeXeXeXeXeXeXeXeXeXeXeXeXeXeXeXeXeXeXeXeXeXeXeXeXeXeXeXeXeXeXeXeXeXeXeXeXeXeXeXeXeXeX",
"eXeXeXeXeXeXeXeXeXeXeXeXeXeXeXeXeXeXeXeXeXeXeXeXeXeXeXeXeXeXeXeXeXeXeXeXeXeXeXeXeXeXeXeXeXeXeXeXeXeXeXeXeXeXeXeXeXeXeXeX",
"eXeXeXeXeXeXeXeXeXeXeXeXeXeXeXeXeXeXeXeXeXeXeXeXeXeXeXeXeXeXeXeXeXeXeXeXeXeXeXeXeXeXeXeXeXeXeXeXeXeXeXeXeXeXeXeXeXeXeXeX",
"eXeXeXeXeXeXeXeXeXeXeXeXeXeXeXeXeXeXeXeXeXeXeXeXeXeXeXeXeXeXeXeXeXeXeXeXeXeXeXeXeXeXeXeXeXeXeXeXeXeXeXeXeXeXeXeXeXeXeXeX",
"eXeXeXeXeXeXeXeXeXeXeXeXeXeXeXeXeXeXeXeXeXeXeXeXeXeXeXeXeXeXeXeXeXeXeXeXeXeXeXeXeXeXeXeXeXeXeXeXeXeXeXeXeXeXeXeXeXeXeXeX",
"eXeXeXeXeXeXeXeXeXeXeXeXeXeXeXeXeXeXeXeXeXeXeXeXeXeXeXeXeXX X eXeXeXeXeXeXeXeXeXeXeXeXeXeXeXeXeXeXeXeXeXeXeXeXeXeXeXeXeX",
"eXeXeXeXeXeXeXeXeXeXeXeXeXeXeXeXeXeXeXeXeXeXeXeXeXeXeXeXX : : X eXeXeXeXeXeXeXeXeXeXeXeXeXeXeXeXeXeXeXeXeXeXeXeXeXeXeXeX",
"eXeXeXeXeXeXeXeXeXeXeXeXeXeXeXeXeXeXeXeXeXeXeXeXeXeXeXo 4 H A 1 X eXeXeXeXeXeXeXeXeXeXeXeXeXeXeXeXeXeXeXeXeXeXeXeXeXeXeX",
"eXeXeXeXeXeXeXeXeXeXeXeXeXeXeXeXeXeXeXeXeXeXeXeXeXX = 0 H J J H 8 o X eXeXeXeXeXeXeXeXeXeXeXeXeXeXeXeXeXeXeXeXeXeXeXeXeX",
"eXeXeXeXeXeXeXeXeXeXeXeXeXeXeXeXeXeXeXeXeXeXeXX o : Z H H J J H H 0 : X eXeXeXeXeXeXeXeXeXeXeXeXeXeXeXeXeXeXeXeXeXeXeXeX",
"eXeXeXeXeXeXeXeXeXeXeXeXeXeXeXeXeXeXeXeXeXeXX @ 2 Z H A H J J H A H S 8 @ X eXeXeXeXeXeXeXeXeXeXeXeXeXeXeXeXeXeXeXeXeXeX",
"eXeXeXeXeXeXeXeXeXeXeXeXeXeXeXeXeXeXeXeXX = < 0 A A A H J J J H A Z Z A Z 4 @ o eXeXeXeXeXeXeXeXeXeXeXeXeXeXeXeXeXeXeXeX",
"eXeXeXeXeXeXeXeXeXeXeXeXeXeXeXeXeXeXX o 1 8 k Z A A A H J J J H A A A Z Z A m 4 o X eXeXeXeXeXeXeXeXeXeXeXeXeXeXeXeXeXeX",
"eXeXeXeXeXeXeXeXeXeXeXeXeXeXeXeXX o : 8 0 Z Z A A H H J J J J J H A A A Z Z 0 Z 0 1 X X eXeXeXeXeXeXeXeXeXeXeXeXeXeXeXeX",
"eXeXeXeXeXeXeXeXeXeXeXeXeXeXeXX = 2 0 0 0 A A H A H J J J J J J H A A H A A Z Z 0 0 2 = X eXeXeXeXeXeXeXeXeXeXeXeXeXeXeX",
"eXeXeXeXeXeXeXeXeXeXeXeXeXeXo : 8 0 0 0 Z A A H J J J J J J J J J H H H A A Z Z k 0 0 q : X eXeXeXeXeXeXeXeXeXeXeXeXeXeX",
"eXeXeXeXeXeXeXeXeXeXeXeXeXo 1 0 0 0 0 Z Z A A H J J J J J J J J J J H H A A A Z Z 0 0 0 0 : o eXeXeXeXeXeXeXeXeXeXeXeXeX",
"eXeXeXeXeXeXeXeXeXeXeXeXo 1 8 0 8 0 Z Z A A A H H J J J J J J J J J H J H H A H Z Z 0 0 0 q : X eXeXeXeXeXeXeXeXeXeXeXeX",
"eXeXeXeXeXeXeXeXeXeXeXX 1 0 0 0 0 0 Z A A A A H H J J J J J J J J H H H H H A A A A Z 0 0 Z 0 : X eXeXeXeXeXeXeXeXeXeXeX",
"eXeXeXeXeXeXeXeXeXeXX : q 0 0 q 0 Z Z Z A Z H H H H J J J J J H H H H A A A Z Z A Z Z 0 0 0 0 8 : o eXeXeXeXeXeXeXeXeXeX",
"eXeXeXeXeXeXeXeXeXX = 8 0 0 0 0 S m Z Z Z Z Z A A A A A H H H H A A A A A A Z Z Z 0 Z Z 0 0 0 0 2 o X eXeXeXeXeXeXeXeXeX",
"eXeXeXeXeXeXeXeXeXo < q 0 0 0 k k Z Z Z Z 0 Z A A A A A Z A Z Z A Z Z Z Z A Z A Z 0 0 0 Z 0 0 0 0 1 o eXeXeXeXeXeXeXeXeX",
"eXeXeXeXeXeXeXeXX : 8 8 0 0 0 0 Z Z Z Z Z Z Z Z Z Z k 0 m k 0 0 0 Z Z A Z Z Z Z Z Z 0 8 0 0 8 0 0 8 : o eXeXeXeXeXeXeXeX",
"eXeXeXeXeXeXeXeXo < 0 0 0 0 j m Z Z Z Z Z Z 0 0 0 k 0 0 0 0 0 0 0 0 0 0 Z Z Z 0 0 Z 0 0 0 0 0 0 0 0 < o eXeXeXeXeXeXeXeX",
"eXeXeXeXeXeXeXX : 8 0 0 0 0 0 Z A Z k Z 0 0 0 0 0 0 0 q 0 0 q 0 0 0 0 0 0 0 0 0 0 0 0 0 0 0 0 0 0 0 8 = X eXeXeXeXeXeXeX",
"eXeXeXeXeXeXeXo < 8 8 q 0 8 0 0 0 0 Z 0 0 0 0 0 0 8 0 8 8 8 8 8 8 0 0 0 0 8 0 0 0 0 0 0 0 0 0 0 0 0 q < o eXeXeXeXeXeXeX",
"eXeXeXeXeXeXX = < 8 8 0 0 0 8 0 0 0 0 0 0 8 0 q 8 4 < 1 > : > @ 1 < < 8 8 8 0 0 q 0 0 0 0 Z 0 0 0 8 8 8 = eXeXeXeXeXeXeX",
"eXeXeXeXeXeXX 1 8 8 0 0 0 0 8 0 8 0 0 0 0 8 8 , : = O @ $ * * * # @ = @ 1 < 2 8 0 0 0 0 0 0 0 0 0 0 q 4 : o eXeXeXeXeXeX",
"eXeXeXeXeXeXo < 8 8 0 0 0 8 0 0 0 0 0 q 8 < # @ $ e h @.@.@.+.| | h f e @ O : 2 8 8 0 0 k m 0 0 0 8 8 8 1 o eXeXeXeXeXeX",
"eXeXeXeXeXeXo < 2 8 0 0 8 0 8 0 8 0 8 8 : = . & g | X.&.*.*.-.=.&.%.X.g f w X o 1 8 8 0 9 0 0 0 8 0 8 8 2 o eXeXeXeXeXeX",
"eXeXeXeXeXX @ 2 8 8 0 0 8 8 0 8 8 8 < o 3 G u X t { +.o.$.=.;.=.&.#...{ y + $ j @ : < 8 8 q 0 Z 8 0 8 8 2 = eXeXeXeXeXeX",
"eXeXeXeXeXX : 2 8 8 8 8 0 8 8 0 8 < = z V.G.D.Y # t ..o....... ...{ t % # 9 3.0.P : : < 0 8 8 0 0 0 8 8 2 : X eXeXeXeXeX",
"eXeXeXeXeXX 1 < 8 8 0 8 8 q 0 8 1 O F D.oX=X:X.XE > & g { { }  .g w , U 7.G.$X+XF.Q , - 8 q q 0 0 8 8 8 2 : X eXeXeXeXeX",
"eXeXeXeXeXX : 2 8 8 8 8 8 q 8 < O x D.[.=X:X,X,XXX8.u @ + % & % + p 8.'.+X-X1X,X#XG.3., : 8 8 8 8 0 8 2 8 : X eXeXeXeXeX",
"eXeXeXeXeXX : 8 8 8 8 8 8 0 4 : 5 S.[.-X,X:X,X,X,X+XG.0.Q U G U W D.#X>X,X:X>X,X>X+X'.Q O < 8 8 8 8 8 8 2 : X eXeXeXeXeX",
"eXeXeXeXeXo : 2 8 0 8 8 8 8 1 @ 7.J.&X,X1X,X,X,X,X,X%X+XoXT.'.R..X$X,X,X,X=X>X1X<X>XoXG.l O 8 8 8 8 2 2 8 : o eXeXeXeXeX",
"eXeXeXeXeXX : 8 < 8 8 8 8 < = l 5.4.6.R.W.,X,X:X,X,X=X,X,X:X-X-X,X1X,X,X1X,X1X@XE.B.6.5.1.@ 1 8 8 8 2 < 8 : o eXeXeXeXeX",
"eXeXeXeXeXX : 2 8 8 8 8 8 < o b } } } } } Y.:X,X,X,X,X,X,X,X>X>X,X,X,X,X,X,XE.:.}  .} } :.5 : q 8 2 8 2 8 = X eXeXeXeXeX",
"eXeXeXeXeXeX= < 8 8 8 8 2 : % ,.A.T.T.L.4.,.4.W.,X,X,X,X,X,X,X,X,X,X1X1X@X6.,.4.B.K.T.U.,.v o 8 8 8 2 8 2 = X eXeXeXeXeX",
"eXeXeXeXeXeXo < 8 8 8 8 8 O c 8.F i u q x 1.4.4.U.-X:X,X,X,X,X,X:X-X-XE.4.6.1.c u q u S W 1.@ 4 8 8 7 8 < o eXeXeXeXeXeX",
"eXeXeXeXeXeXX < < 8 8 8 < = I x H }.' m ; = 2 1.L.U.OX,X,X,X,X,X,X@XU.U.q.u - 1 m ~ }.) 6 8., < q < 8 8 < o eXeXeXeXeXeX",
"eXeXeXeXeXeXX : 8 8 8 < < o R 5 `.8X^ M - 7 m 1 R %X1X1X,X,X;X;X,X,X=X0.1 m 7 - m V |.|.8 3., 1 8 8 < < 1 X eXeXeXeXeXeX",
"eXeXeXeXeXeXeXo < < 8 8 8 O R 6 `.7X~ M + 7 V _.S W :X:X,X,X:X;X>X,XA.q (.~ m o 7 V  X|.9 W , 1 8 8 < 8 : X eXeXeXeXeXeX",
"eXeXeXeXeXeXeXX 1 8 < 2 < = I j (.8X/.N B N ^ 8X`.5 #X,X,X1X1X1X1X>Xx ] 0X/.B B N ( 6X}.4 W , 2 8 8 8 < o eXeXeXeXeXeXeX",
"eXeXeXeXeXeXeXo @ 2 8 8 2 O U U A 7XqX_././. X0X) G :X,X1X1X:X:X,X,X3.A 6X7X_.( /.5X8X) z W @ 2 2 8 < : X eXeXeXeXeXeXeX",
"eXeXeXeXeXeXeXeXo 1 2 2 8 : u C.5 ] 7X9XqX8X8X(.6 J.1X,X1X1X:X%X,X1X+Xj _ 6X9X0X9X8X).4 8.F = 8 < 8 1 = eXeXeXeXeXeXeXeX",
"eXeXeXeXeXeXeXeXX o < 8 < 1 : 0.S.q A (.`.).H q H.1X1X1X1X1X1X1X1X2X>X[.i Z ] `.).J 4 8.S.3 < 8 8 2 : X eXeXeXeXeXeXeXeX",
"eXeXeXeXeXeXeXeXeXX : < 8 2 o x XXXXQ i u i Q .X1X:XJ.R E G.XX[ Y H.>X2X&X7.D u u I [.&XP o 2 2 < 1 o eXeXeXeXeXeXeXeXeX",
"eXeXeXeXeXeXeXeXeXeXX : 8 2 1 @ 2.&X>X;X%X;X1X2X%XQ , a s , 6 * a $ R %X2X1X:X%X;X1X:X8.: : 8 4 1 o eXeXeXeXeXeXeXeXeXeX",
"eXeXeXeXeXeXeXeXeXeXeXo : 8 < : > I V.'.%X>X%XJ.S * w.b.d.n v x.n.w.$ D G.#X%X&X[.V.c @ @ < 8 1 = X eXeXeXeXeXeXeXeXeXeX",
"eXeXeXeXeXeXeXeXeXeXeXeXX : < < o X # 3 9 x u , v P.!.d.c.!.z.I.Q.n.w.a $ 6 u 5 4 * . o < 8 1 o o eXeXeXeXeXeXeXeXeXeXeX",
"eXeXeXeXeXeXeXeXeXeXeXeXeXX : 1 > @ O.y.<.n <.w.m.Q.c.r.>.>.>.y.P.^.~.b.y.t.n >.y.O.# : 1 = X eXeXeXeXeXeXeXeXeXeXeXeXeX",
"eXeXeXeXeXeXeXeXeXeXeXeXeXeXX X O + h l.I.s.s.s.d.c.g.M.v.z.k.m.n.~.~.n.c.x.i.p.*.a + o o X eXeXeXeXeXeXeXeXeXeXeXeXeXeX",
"eXeXeXeXeXeXeXeXeXeXeXeXeXeXeX    X # e  .=.i.i.k.g.g.M.!.m.d.f.g.d.a.s.*.i.=.r $ .     eXeXeXeXeXeXeXeXeXeXeXeXeXeXeXeX",
"eXeXeXeXeXeXeXeXeXeXeXeXeXeXeXeXeX    X w { a | i.p.h.h.-.r.p.f.p.e.i.=.+.r r $ o   eXeXeXeXeXeXeXeXeXeXeXeXeXeXeXeXeXeX",
"eXeXeXeXeXeXeXeXeXeXeXeXeXeXeXeXeXX : 0 : @ o $ d r.c.v.*.%.z.m.p.u.-.d & o X 3 m : X eXeXeXeXeXeXeXeXeXeXeXeXeXeXeXeXeX",
"eXeXeXeXeXeXeXeXeXeXeXeXeXeXeXeXX = k H < = 0 : $ #.j.I.k.e.k.h.*.-.$.& : 0 : 8 A 8 X eXeXeXeXeXeXeXeXeXeXeXeXeXeXeXeXeX",
"eXeXeXeXeXeXeXeXeXeXeXeXeXeXeXeXX < A Z o < H k o f =.-.i.p.i.-.&.#.t o 0 A 8 @ Z 0 : . eXeXeXeXeXeXeXeXeXeXeXeXeXeXeXeX",
"eXeXeXeXeXeXeXeXeXeXeXeXeXeXeXo 1 Z A 8 o k H Z 1 $ g f #.-.u.u.&.d O 2 Z H Z O 2 0 1 o eXeXeXeXeXeXeXeXeXeXeXeXeXeXeXeX",
"eXeXeXeXeXeXeXeXeXeXeXeXeXeX. X 8 0 k : : H H Z q o o o d { g | e O O 8 k H H 1 : 1 O o X eXeXeXeXeXeXeXeXeXeXeXeXeXeXeX",
"eXeXeXeXeXeXeXeXeXeXeXeXeXo D k O 1 8 @ 8 H A 0 8 : 4 1 @ $ @ # O @ O 8 m S H 0 o q I 0.u X eXeXeXeXeXeXeXeXeXeXeXeXeXeX",
"eXeXeXeXeXeXeXeXeXeXeXeX  D 3X3X9.4 o o Z A Z 0 8 o 3 j @ E 3.O j 6 o 2 z Z H Z > {.<X=X3.o eXeXeXeXeXeXeXeXeXeXeXeXeXeX",
"eXeXeXeXeXeXeXeXeXeXeXeXX 3.4X4X4X*XG o Z A Z 0 2 o 4 z > R G > z 6 = < 0 k A A : ].4X:XA.O eXeXeXeXeXeXeXeXeXeXeXeXeXeX",
"eXeXeXeXeXeXeXeXeXeXeXeX. R 2X<X<X4XV.: A A k 0 2 O 4 z j @ @ 6 j 6 o 1 0 0 A A 1 8.1X&XY X eXeXeXeXeXeXeXeXeXeXeXeXeXeX",
"eXeXeXeXeXeXeXeXeXeXeXeXeX5 XX,X>X=X2.> A A 0 8 2 o 4 j j @ O 9 6 9 @ < 8 0 Z H < R &X0., eXeXeXeXeXeXeXeXeXeXeXeXeXeXeX",
"eXeXeXeXeXeXeXeXeXeXeXeXeXX c J.+X.XL 1 H k k 0 < o o O @ o X @ : o o < 0 0 0 H 8 6 L @ X eXeXeXeXeXeXeXeXeXeXeXeXeXeXeX",
"eXeXeXeXeXeXeXeXeXeXeXeXeXeXX , i u O 3 A 0 m 0 < o k S 9 S S 9 , z O 1 8 0 0 A 8 X X eXeXeXeXeXeXeXeXeXeXeXeXeXeXeXeXeX",
"eXeXeXeXeXeXeXeXeXeXeXeXeXeXeXeXeXeX. 1 Z 0 k 8 8 o [ [ ` Z.].T T T : < 0 0 0 Z 4 X eXeXeXeXeXeXeXeXeXeXeXeXeXeXeXeXeXeX",
"eXeXeXeXeXeXeXeXeXeXeXeXeXeXeXeXeXeXX : 0 0 8 q 2 o 4 D ` G l I C.k o < 8 8 0 0 < X eXeXeXeXeXeXeXeXeXeXeXeXeXeXeXeXeXeX",
"eXeXeXeXeXeXeXeXeXeXeXeXeXeXeXeXeXeXX @ 8 8 8 8 8 @ o , : @ o 1 < , O 2 8 4 8 8 1 X eXeXeXeXeXeXeXeXeXeXeXeXeXeXeXeXeXeX",
"eXeXeXeXeXeXeXeXeXeXeXeXeXeXeXeXeXeXeXo : < 8 8 8 : X X X X o X O o o 8 8 8 < < = eXeXeXeXeXeXeXeXeXeXeXeXeXeXeXeXeXeXeX",
"eXeXeXeXeXeXeXeXeXeXeXeXeXeXeXeXeXeXeXeXX o : o @ o 6 : o eXeXX : @ o : @ o o o X eXeXeXeXeXeXeXeXeXeXeXeXeXeXeXeXeXeXeX",
"eXeXeXeXeXeXeXeXeXeXeXeXeXeXeXeXeXeXeXeXX @ , , , 4 6 4 o eXeXo o , j j j $ X o eXeXeXeXeXeXeXeXeXeXeXeXeXeXeXeXeXeXeXeX",
"eXeXeXeXeXeXeXeXeXeXeXeXeXeXeXeXeXeXeXeXX o = @ @ O @ @ X eXeXX , j j j j 9 @ X eXeXeXeXeXeXeXeXeXeXeXeXeXeXeXeXeXeXeXeX",
"eXeXeXeXeXeXeXeXeXeXeXeXeXeXeXeXeXeXeXeXeXX X X X o X X eXeXeXo , 4 , 3 < , @ X eXeXeXeXeXeXeXeXeXeXeXeXeXeXeXeXeXeXeXeX",
"eXeXeXeXeXeXeXeXeXeXeXeXeXeXeXeXeXeXeXeXeXeXeXeXeXeXeXeXeXeXeXo o X o O o o o o eXeXeXeXeXeXeXeXeXeXeXeXeXeXeXeXeXeXeXeX",
"eXeXeXeXeXeXeXeXeXeXeXeXeXeXeXeXeXeXeXeXeXeXeXeXeXeXeXeXeXeXeXeXeXeXeXeXeXeXeXeXeXeXeXeXeXeXeXeXeXeXeXeXeXeXeXeXeXeXeXeX",
"eXeXeXeXeXeXeXeXeXeXeXeXeXeXeXeXeXeXeXeXeXeXeXeXeXeXeXeXeXeXeXeXeXeXeXeXeXeXeXeXeXeXeXeXeXeXeXeXeXeXeXeXeXeXeXeXeXeXeXeX",
"eXeXeXeXeXeXeXeXeXeXeXeXeXeXeXeXeXeXeXeXeXeXeXeXeXeXeXeXeXeXeXeXeXeXeXeXeXeXeXeXeXeXeXeXeXeXeXeXeXeXeXeXeXeXeXeXeXeXeXeX",
"eXeXeXeXeXeXeXeXeXeXeXeXeXeXeXeXeXeXeXeXeXeXeXeXeXeXeXeXeXeXeXeXeXeXeXeXeXeXeXeXeXeXeXeXeXeXeXeXeXeXeXeXeXeXeXeXeXeXeXeX"
};
