/* XPM */
static xpm_row_t const p1_front_5[] = {
/* columns rows colors chars-per-pixel */
"60 90 219 2 ",
"   c #151514",
".  c #181715",
"X  c #1A1917",
"o  c #1C1B19",
"O  c #171718",
"+  c #231D16",
"@  c #211E1C",
"#  c #231814",
"$  c #242117",
"%  c #2C2316",
"&  c #22211E",
"*  c #2E251A",
"=  c #382817",
"-  c #393218",
";  c #1C1D24",
":  c #221C25",
">  c #1F212D",
",  c #252422",
"<  c #292623",
"1  c #2B2925",
"2  c #2D2C2C",
"3  c #25222F",
"4  c #312C26",
"5  c #322F2B",
"6  c #34322B",
"7  c #3B342D",
"8  c #39392E",
"9  c #303027",
"0  c #262739",
"q  c #333333",
"w  c #3C3B33",
"e  c #3B3B3B",
"r  c #3B3733",
"t  c #422D16",
"y  c #493516",
"u  c #573917",
"i  c #653D17",
"p  c #433C33",
"a  c #433F3B",
"s  c #5A4517",
"d  c #6A4517",
"f  c #764817",
"g  c #695514",
"h  c #795418",
"j  c #424236",
"k  c #4A4136",
"l  c #44443A",
"z  c #4C443A",
"x  c #4B4B3D",
"c  c #54493D",
"v  c #4C4323",
"b  c #714D2C",
"n  c #786213",
"m  c #2A2C42",
"M  c #2D314C",
"N  c #2F3558",
"B  c #30385D",
"V  c #32364E",
"C  c #323A63",
"Z  c #2F3762",
"A  c #3E4465",
"S  c #444444",
"D  c #4C4C4C",
"F  c #4E4840",
"G  c #5B4E41",
"H  c #514941",
"J  c #5E5245",
"K  c #5D554C",
"L  c #535353",
"P  c #5A5A5A",
"I  c #6B5C4C",
"U  c #645647",
"Y  c #645B52",
"T  c #6B6258",
"R  c #746352",
"E  c #786959",
"W  c #4E536E",
"Q  c #555970",
"!  c #5E606E",
"~  c #776D62",
"^  c #757578",
"/  c #6B6B6D",
"(  c #8A4E1A",
")  c #854B16",
"_  c #8C521A",
"`  c #895717",
"'  c #935519",
"]  c #9B5C19",
"[  c #955A18",
"{  c #A05F19",
"}  c #996617",
"|  c #977613",
" . c #A56519",
".. c #A76C18",
"X. c #AB7515",
"o. c #B47319",
"O. c #BA761A",
"+. c #BD7C19",
"@. c #B47C16",
"#. c #AA7515",
"$. c #955B28",
"%. c #87582D",
"&. c #87722B",
"*. c #9C6736",
"=. c #8E6F32",
"-. c #A26B3A",
";. c #C17F19",
":. c #816F5B",
">. c #85735E",
",. c #89735D",
"<. c #AA7544",
"1. c #AA7545",
"2. c #B27E4F",
"3. c #AA7D54",
"4. c #8A7660",
"5. c #8E7A63",
"6. c #877869",
"7. c #927C65",
"8. c #957F68",
"9. c #BC8318",
"0. c #B89816",
"q. c #9B842E",
"w. c #B59328",
"e. c #A48C30",
"r. c #BAA03D",
"t. c #C58B16",
"y. c #C38A1A",
"u. c #C18318",
"i. c #CA9215",
"p. c #C79318",
"a. c #D19A17",
"s. c #D6A617",
"d. c #D2AC1B",
"f. c #E2B619",
"g. c #CB992A",
"h. c #D5A729",
"j. c #D4AF32",
"k. c #E3B82C",
"l. c #E5BA3A",
"z. c #EDC41C",
"x. c #F0C715",
"c. c #EDC727",
"v. c #F1CA2C",
"b. c #E8C235",
"n. c #FAD83B",
"m. c #F5CF30",
"M. c #B7875A",
"N. c #BAA243",
"B. c #9B846B",
"V. c #98836A",
"C. c #958575",
"Z. c #80807F",
"A. c #A68769",
"S. c #B88D64",
"D. c #A48C72",
"F. c #AB8D72",
"G. c #AB9175",
"H. c #AE9679",
"J. c #B29679",
"K. c #B69B7E",
"L. c #BA9D7F",
"P. c #B5916D",
"I. c #C79D75",
"U. c #C39367",
"Y. c #D4A87E",
"T. c #D1B545",
"R. c #F1CC47",
"E. c #F9D748",
"W. c #F9D853",
"Q. c #E8C549",
"!. c #75788A",
"~. c #7F8292",
"^. c #9B9B9B",
"/. c #929293",
"(. c #928C8B",
"). c #BB9E81",
"_. c #A09282",
"`. c #BDA183",
"'. c #9FA1AC",
"]. c #A7A7AA",
"[. c #BCBCBD",
"{. c #B1B2B5",
"}. c #9597A2",
"|. c #C3A585",
" X c #C6A98A",
".X c #CAAA8A",
"XX c #D3AF8B",
"oX c #D7B18C",
"OX c #CCB096",
"+X c #D4B492",
"@X c #DAB693",
"#X c #DEBC98",
"$X c #DDBB97",
"%X c #CBAF94",
"&X c #E1BA93",
"*X c #E4BE9A",
"=X c #D9BDA5",
"-X c #E5C19C",
";X c #E9C49E",
":X c #ECC6A1",
">X c #EFC9A3",
",X c #EECBAC",
"<X c #F1CCA5",
"1X c #F1CDA9",
"2X c #F5D2A9",
"3X c #F3D0A7",
"4X c #EFCFB2",
"5X c #F1D1B6",
"6X c #EFD1B9",
"7X c #DFC6B2",
"8X c #BDBEC3",
"9X c #C6C6C9",
"0X c #D4D4D4",
"qX c #DBDBDC",
"wX c #D6D6D8",
"eX c #CCCDD0",
"rX c #FCE0CD",
"tX c #E2E2E3",
"yX c #00B140",
/* pixels */
"yXyXyXyXyXyXyXyXyXyXyXyXyXyXyXyXyXyXyXyXyXyXyXyXyXyXyXyXyXyXyXyXyXyXyXyXyXyXyXyXyXyXyXyXyXyXyXyXyXyXyXyXyXyXyXyXyXyXyXyX",
"yXyXyXyXyXyXyXyXyXyXyXyXyXyXyXyXyXyXyXyXyXyXyXyXyXyXyXyXyXyXyXyXyXyXyXyXyXyXyXyXyXyXyXyXyXyXyXyXyXyXyXyXyXyXyXyXyXyXyXyX",
"yXyXyXyXyXyXyXyXyXyXyXyXyXyXyXyXyXyXyXyXyXyXyXyXyXyXyXyXyXyXyXyXyXyXyXyXyXyXyXyXyXyXyXyXyXyXyXyXyXyXyXyXyXyXyXyXyXyXyXyX",
"yXyXyXyXyXyXyXyXyXyXyXyXyXyXyXyXyXyXyXyXyXyXyXyXyXyXyXyXyXyXyXyXyXyXyXyXyXyXyXyXyXyXyXyXyXyXyXyXyXyXyXyXyXyXyXyXyXyXyXyX",
"yXyXyXyXyXyXyXyXyXyXyXyXyXyXyXyXyXyXyXyXyXyXyXyXyXyXyXyXyXyXyXyXyXyXyXyXyXyXyXyXyXyXyXyXyXyXyXyXyXyXyXyXyXyXyXyXyXyXyXyX",
"yXyXyXyXyXyXyXyXyXyXyXyXyXyXyXyXyXyXyXyXyXyXyXyXyXyXyXyXyXyXX yXyXyXyXyXyXyXyXyXyXyXyXyXyXyXyXyXyXyXyXyXyXyXyXyXyXyXyXyX",
"yXyXyXyXyXyXyXyXyXyXyXyXyXyXyXyXyXyXyXyXyXyXyXyXyXyXyXyXyXX X X yXyXyXyXyXyXyXyXyXyXyXyXyXyXyXyXyXyXyXyXyXyXyXyXyXyXyXyX",
"yXyXyXyXyXyXyXyXyXyXyXyXyXyXyXyXyXyXyXyXyXyXyXyXyXyXyXX o 2 l , X yXyXyXyXyXyXyXyXyXyXyXyXyXyXyXyXyXyXyXyXyXyXyXyXyXyXyX",
"yXyXyXyXyXyXyXyXyXyXyXyXyXyXyXyXyXyXyXyXyXyXyXyXyXyXX X e L P L 2 o X yXyXyXyXyXyXyXyXyXyXyXyXyXyXyXyXyXyXyXyXyXyXyXyXyX",
"yXyXyXyXyXyXyXyXyXyXyXyXyXyXyXyXyXyXyXyXyXyXyXyXo X , S L P P P L e o X yXyXyXyXyXyXyXyXyXyXyXyXyXyXyXyXyXyXyXyXyXyXyXyX",
"yXyXyXyXyXyXyXyXyXyXyXyXyXyXyXyXyXyXyXyXyXyXyXo @ 2 D L L L P P L L e 1 o X yXyXyXyXyXyXyXyXyXyXyXyXyXyXyXyXyXyXyXyXyXyX",
"yXyXyXyXyXyXyXyXyXyXyXyXyXyXyXyXyXyXyXyXyXX o & q S D L L P P P D D L D q , X X yXyXyXyXyXyXyXyXyXyXyXyXyXyXyXyXyXyXyXyX",
"yXyXyXyXyXyXyXyXyXyXyXyXyXyXyXyXyXyXyXo o & 2 a D L D L P P P P L D D S D D 2 o X yXyXyXyXyXyXyXyXyXyXyXyXyXyXyXyXyXyXyX",
"yXyXyXyXyXyXyXyXyXyXyXyXyXyXyXyXyXo o o 1 q S D D D L D P P P P L D D S S S D S 2 o X o yXyXyXyXyXyXyXyXyXyXyXyXyXyXyXyX",
"yXyXyXyXyXyXyXyXyXyXyXyXyXyXyXyXo o , e e e S D D D D L P P P P D D D L D S S S S S 2 o X yXyXyXyXyXyXyXyXyXyXyXyXyXyXyX",
"yXyXyXyXyXyXyXyXyXyXyXyXyXyXX o , q e e e D L D D L L P P P P P P P D D D D D S e S S q , o o yXyXyXyXyXyXyXyXyXyXyXyXyX",
"yXyXyXyXyXyXyXyXyXyXyXyXyXo o 2 e e e e D D D L L L P P P P P P L L D L D D S D D S e e e 2 @ O yXyXyXyXyXyXyXyXyXyXyXyX",
"yXyXyXyXyXyXyXyXyXyXyXo X , q e e e e D D D L L P P P P P P P P P P L L L D L S S D S e e e q , o yXyXyXyXyXyXyXyXyXyXyX",
"yXyXyXyXyXyXyXyXyXyXo o 1 q e e q e D S D D L P P P P P P P P P P P P L L L S L D e S e e e e e , o yXyXyXyXyXyXyXyXyXyX",
"yXyXyXyXyXyXyXyXyXo o 1 e e e e e D S S D D D L P P ! P P P P P P P L L L L L D L L S S e a e e e , o X yXyXyXyXyXyXyXyX",
"yXyXyXyXyXyXyXyXX o 1 q e e e e a S D D D L L L L P P P P P P P P P P P P L P L D L D S e e e e e q , o yXyXyXyXyXyXyXyX",
"yXyXyXyXyXyXyXyXo , e e e q e e S D D D L D D L P L P P P P P P P L P L L L L L D D D L D S e e S e q , o yXyXyXyXyXyXyX",
"yXyXyXyXyXyXyXX & e e e q e e S S S D S S D P L L L L P P P P L D L L L L D D D S S S S S D e e e e e q , o yXyXyXyXyXyX",
"yXyXyXyXyXyXX @ q q e e e e S S S S l l V D D D D L L L L P L L L D D D D S D S S S S e e S e e e e e e 2 o X yXyXyXyXyX",
"yXyXyXyXyXo o 2 e e e e a S e S S V F l e S S D D L L D D D D D D S S S S S D D D S S S e e S S e e e e e < o yXyXyXyXyX",
"yXyXyXyXyXo , q q e e e e w S S S S S a S S D D S S S e e e e e e S S D D D D S S S D S e q e e e e e e V q , X yXyXyXyX",
"yXyXyXyXo o 2 q e e e e e V S S D e S S D S e e e e e e e e e e V e e e e S S D S S e S S e e e e e e e j r 2 o X yXyXyX",
"yXyXyXyXo < q e q e e e e a S D e S S S e e e e e e e e e e e e j e e e e e e a S S e S S e e q e e e e e e q , o yXyXyX",
"yXyXyXX o q q e e e e q e S D e S S a e e e e e e e e e q e e q e e e e e e e e e e S e e w V e e e e e e e q 2 o X yXyX",
"yXyXyXX , q 2 e q e e e w V e e S e e e e e e e e e q e q q q q q q e e e e e e e q e e a e w a e e e e e e q q , o yXyX",
"yXyXyXX 2 q q q e e q e r e e e e e a e e e q e 2 q 2 2 2 2 2 2 2 2 2 q q q q q e e e q e S e w e e e e e q q q 1 X yXyX",
"yXyXX , 2 q q e e e e q e e q e V j e q e q q 2 2 , ; o o o o o o @ ; , , 2 2 q q q e e e e j V e e e e e e e q q o X yX",
"yXyXO , 2 q q e e e e q r e e e e q e e q 2 , + # # - s s g g g s s y % $ . @ , 2 q r e e e e V e e e e e e q q q , o yX",
"yXyXo 2 q q q e e e q e e e e e e e q 2 1 o + t u d | | #.#.#. .} } } ` g u % + @ < 2 q q q e e a e e e e q q q q < o yX",
"yXyXo 2 q 2 e q e e q q q e e q q q 1 o o X % i ` [ [ #.@.9.;.;.o.o.o. .) f d y X X @ 2 q q e q e e e e e e q q q 2 o yX",
"yXo o 2 q q q e e q e q e e e q 2 , o 7 U k . % f [ { {  .o.O.O.o.o. .] [ ) u # @ k < o < q q q q e l e e e q q q 2 o O ",
"yXX & q q q q e q q q e e q e 2 ; @ J D.D.A.R & % f  .{ ' ] ' ' ' ' [ f y % + 4 I 5.R 7 o , 2 e q q e V w r e 2 2 q @ X ",
"yXo , 2 q q e q q e q q q q 2 : & R H.L.@X*X|.>.% % i [ [ ( ' ] ] ' i + $ k R B. X XG.,.p o , q q q q e e r q q q 2 , X ",
"yXX , 2 2 q q q q q q e q q , @ R J.L.&X>X>X;X.X5.7 # = u i i i i t o 7 7.H.L.XX:X>X+XJ.V.a X < q e e q e e q q q 2 , X ",
"yXX , q q q e q q q e e q < o I J.L.*X;X-X>X>X;X.XD.I 7 1 @ @ # @ 1 J A.|.@X-X:X<X>X:XXXK.D.p o 2 q q q q e q q 2 q , o ",
"yXX , 2 q q q q q q V q 2 o k G.K.@X;X;X<X>X>X>X*XoXI.G.8.7.,.:.4.D.J.XX:X>X>X&X:X>X>X:X.XK.7.< & q q e q q q q q 2 , X ",
"yXX , 2 q q q q q q 6 q @ < 8.K.+X:X;X<X<X>X:X>X>X>X*X.X|.).).).`..X#X>X>X>X>X*X>X>X<X>X:X|.K.I o 3 q q q 2 q q q q , o ",
"yXX , q q q e q r q 2 2 o U F.A.S.oX&X;X<X<X;X:X>X>X*X;X>X:X*X@X-X>X>X>X>X>X>X>X<X>X&X&XU.S.A.8.1 ; q q q q q 2 2 q ; X ",
"yXo o q 2 q q 2 q q q , & %._ ( ) $.$.-.&X<X:X<X>X>X<X>X>X>X>X:X:X>X>X>X>X>X>X>X:X2.$.$.( ( _ *.c o 2 q q 2 q 2 q 2 & X ",
"yXo ; 2 q q q q q q q o t ( $.<.<.-.$.( -.XX;X<X<X<X>X<X>X>X<X:X>X>X<X:X<X>X<X&X2.( $.-.-.<.-.( b @ < q q 2 q q q q @ o ",
"yXyXo 2 q 2 e q q 2 2 o b 3.J.|.H.F.P.S.-.$.-.&X<X<X<X;X:X>X>X<X>X;X;X<X1X*XM.$.-.M.P.G.G.J.|.A.=.4 , r q q q 2 2 2 o X ",
"yXyXX < 2 q q 2 2 q 1 @ 5.T 6 1 1 , < r U A.M.-.I.&X;X>X>X>X:X<X>X;X*X*XXX2.<.A.R p 1 @ 4 < 4 G F.p ; q q q 2 q q 1 o yX",
"yXyXO , q 2 q q q q , 1 7.6 L ]./.V m : @ < R I.U.M.oX>X>X>X<X:X>X>X&XU.M.I.,.t : : m M ^ {.^ & 5.J X q q q q 2 q < o yX",
"yXyXo o 2 q 2 q 2 q : 9 ,.< ^.tX!.Z 0 : 3 m ; k .X<X:X<X>X>X>X*X;X>X>X:X@XI @ 0 0 : 0 B W wX[.q R I O 2 e 2 q q 2 , X yX",
"yXyXyXo 2 2 q q q 2 , 7 >., ].wXQ B > o 3 C ! l k +X;X;X>X>X>X;X&X>X<X;XI 2 / B m X o M A 8X9Xr I I o 2 q 2 2 q 2 ; o yX",
"yXyXyXo , q 2 q q q ; 6 >., ^.0X!.Z M > M B '.[.q R ;X>X>X>X>X>X<X<X<XB., ^.9XA N 3 0 B Q eX[.8 I J @ q q q q 2 < o yXyX",
"yXyXyXo o 2 q q q 2 , 1 5.* ^ 0X8XW Z Z B Q eXqXD G ;X>X<X>X>X>X<X:X<X5.2 [.tX!.B Z C A '.wX^.< >.z @ q q 2 q q ; o yXyX",
"yXyXyXyXX , 2 q q 2 , @ ,.c e [.wX8X/.!.}.eXqX/.< D.>X>X>X>X>X-X*X>X<X.X4 / wXwX].!.(.8XqXeXP 6 V.6 , q q 2 2 1 o yXyXyX",
"yXyXyXyXo o 1 q 2 q 2 o I V.1 P [.0XqXqXtXqX^.q U *X>X>X>X>X>X:X*X<X<X;X5.< Z.0XqXqXqXwX9XZ.$ E >.@ 2 q 2 q q ; o yXyXyX",
"yXyXyXyXyXo , q q q q @ 8 H.V.1 S (.].].^./ 2 c @X<X<X3X3X>X>X>X<X<X<X:X*XE < P /.].'./.L 1 R K.x o q q q q < o yXyXyXyX",
"yXyXyXyXyXyXX , q 2 6 , o R +XL.J 1 1 2 * 8 >.#X<X:X.XV.5.).#X+XB.5.`.<X<X;XD.a 1 2 2 < j B.$XV.& 1 q 6 2 2 o o yXyXyXyX",
"yXyXyXyXyXyXo o 2 2 q 2 ; 6 B.-X-X XH.D.L.$X1X1X-X>.9 $ $ 1 I j @ $ < E -X3X3X-X`.H.D.`.-X3XL.8 o 2 q 2 2 & o yXyXyXyXyX",
"yXyXyXyXyXyXyXX o 2 2 q 1 o k G.+X-X3X3X3X3X1X XU o g 0.0.s O * q.d.g o K +X;X>X3X2X2X3X+XD.l o < q 2 2 , X yXyXyXyXyXyX",
"yXyXyXyXyXyXyXyXo o 2 2 2 , X 1 c I V.`.`.K.>.6 $ &.c.v.x.j.e.r.E.n.c.n + 8 E D.K.H.V.I 8 @ . & q q q , X yXyXyXyXyXyXyX",
"yXyXyXyXyXyXyXyXyXo o 1 q 2 o X % % & 1 1 , & v e.E.R.d.d.E.E.k.b.Q.v.f.q.v $ & & & & - - o @ 2 q < o o yXyXyXyXyXyXyXyX",
"yXyXyXyXyXyXyXyXyXyXo X @ 2 < O g j.N.=.&.=.0.b.E.b.k.9.} &.&.&.e.T.W.W.m.z.r.e.| q.w.g.g o 1 2 ; o X yXyXyXyXyXyXyXyXyX",
"yXyXyXyXyXyXyXyXyXyXyXX X o ; o u w.Q.R.f.a.f.f.v.f.z.b.l.h.j.j.n.m.E.E.n.v.b.j.9.s.p.} t o o o X X yXyXyXyXyXyXyXyXyXyX",
"yXyXyXyXyXyXyXyXyXyXyXyXX . X o = - ` ..+.u.t.y.b.f.z.E.W.R.b.s.z.x.k.k.s.s.9.0.+.h u = X O X   yXyXyXyXyXyXyXyXyXyXyXyX",
"yXyXyXyXyXyXyXyXyXyXyXyXyXyX      O = f ....} i.h.i.s.d.h.h.s.s.f.t.u.t.i.9...[ } y X     yXyXyXyXyXyXyXyXyXyXyXyXyXyXyX",
"yXyXyXyXyXyXyXyXyXyXyXyXyXyXyXX . o o * u % = ..O.p.g.g...#.o.j.c.s.@.t...} u @ $ o < < . yXyXyXyXyXyXyXyXyXyXyXyXyXyXyX",
"yXyXyXyXyXyXyXyXyXyXyXyXyXyXyX. @ l S ; X @ o - h i.l.Q.p. .p.W.d.a.p.9.` = + , o , l e o o yXyXyXyXyXyXyXyXyXyXyXyXyXyX",
"yXyXyXyXyXyXyXyXyXyXyXyXyXyXo o e L D @ , S q O u O.g.l.k.p.y.h.9.o.O.O.d o < S , , D S 1 X yXyXyXyXyXyXyXyXyXyXyXyXyXyX",
"yXyXyXyXyXyXyXyXyXyXyXyXyXo o 2 D L q o 2 D D , * _ u.;.y.i.i.+.+. . .f & & S L q O e S q o o yXyXyXyXyXyXyXyXyXyXyXyXyX",
"yXyXyXyXyXyXyXyXyXyXyXyXyXX < j D S , o S L L q o y [ h  .O.y.p.t.+.' * @ e S L S & , e e , o yXyXyXyXyXyXyXyXyXyXyXyXyX",
"yXyXyXyXyXyXyXyXyXyXyXyXX & r V S r o 1 L L S e , + $ @ f ]  .o.X.d = o < e S L L 5 @ 6 2 & . X yXyXyXyXyXyXyXyXyXyXyXyX",
"yXyXyXyXyXyXyXyXyXyXyX. o o 2 e V 6 o r L L S e 2 o < & = u = t u @ O o 2 e S L P V + o X , 7 @ yXyXyXyXyXyXyXyXyXyXyXyX",
"yXyXyXyXyXyXyXyXyXyXo P _.z o ; 6 1 o D L S S e 2 o w 6 O @ p 1 o , 2 @ , e S S L D & 8 C.). XG X yXyXyXyXyXyXyXyXyXyXyX",
"yXyXyXyXyXyXyXyXyXX 7 =XrX,X6.2 o o , D D S e e < o 6 l $ x .Xc @ x j @ , q e S D D < K 6X1X$XA.@ yXyXyXyXyXyXyXyXyXyXyX",
"yXyXyXyXyXyXyXyXyX  U ,X6X5X6XOXI @ 1 D D S e q , @ 8 x 6 8 B.< 8 x 8 $ , q e e D D q r =X>X*XA.& yXyXyXyXyXyXyXyXyXyXyX",
"yXyXyXyXyXyXyXyXyX  G :X,X4X4X4X%X1 2 L D S e q , o r x j @ 5 @ j j 8 & & q e S D L e 1 OX>X@XR o yXyXyXyXyXyXyXyXyXyXyX",
"yXyXyXyXyXyXyXyXyX  5  X<X,X>X:XL.< q L D e e q , @ r l x , . < j w j < & q e e S L a : J.*XF.4 . yXyXyXyXyXyXyXyXyXyXyX",
"yXyXyXyXyXyXyXyXyXyXX I @X-X*X$XF.$ a L S e e q , o 1 2 8 < X < 6 1 6 & o q e e S L S & >.7.6 X yXyXyXyXyXyXyXyXyXyXyXyX",
"yXyXyXyXyXyXyXyXyXyXyXo c D.I.F.U X S L e e e q , X X o o o X X o o X X , 6 e j e D D @ * & . yXyXyXyXyXyXyXyXyXyXyXyXyX",
"yXyXyXyXyXyXyXyXyXyXyXyXo & 4 < O o e S e e e q , , T ~ H T E T H 6 T 5 ; 6 r V e S S @ X yXyXyXyXyXyXyXyXyXyXyXyXyXyXyX",
"yXyXyXyXyXyXyXyXyXyXyXyXyXyXyXyXyXo e e e e e q 1 , C.~ T C._._.K ~ T 6 ; q e e e e e , yXyXyXyXyXyXyXyXyXyXyXyXyXyXyXyX",
"yXyXyXyXyXyXyXyXyXyXyXyXyXyXyXyXyXo 6 e e q e q , o 8 F 6.E F F E C.J @ & q e q e e q @ yXyXyXyXyXyXyXyXyXyXyXyXyXyXyXyX",
"yXyXyXyXyXyXyXyXyXyXyXyXyXyXyXyXyXo 2 q q q q q 2 o & 6 1 < @ & 8 j 6 @ , q q 2 q e q o yXyXyXyXyXyXyXyXyXyXyXyXyXyXyXyX",
"yXyXyXyXyXyXyXyXyXyXyXyXyXyXyXyXyXX , 2 2 q q q q o O X X X X X o X X X 2 e 2 q q 2 2 o yXyXyXyXyXyXyXyXyXyXyXyXyXyXyXyX",
"yXyXyXyXyXyXyXyXyXyXyXyXyXyXyXyXyXX o ; 1 2 2 2 1 o 1 @ X yXyXyX@ & & o , 2 2 2 2 , @ O yXyXyXyXyXyXyXyXyXyXyXyXyXyXyXyX",
"yXyXyXyXyXyXyXyXyXyXyXyXyXyXyXyXyXyXyXX o & @ @ & , j 6 o X yXyXo $ @ o + & o o o O X yXyXyXyXyXyXyXyXyXyXyXyXyXyXyXyXyX",
"yXyXyXyXyXyXyXyXyXyXyXyXyXyXyXyXyXyXyXX $ 1 1 1 1 9 6 6 & X yXyXX o 1 j x x j & O o yXyXyXyXyXyXyXyXyXyXyXyXyXyXyXyXyXyX",
"yXyXyXyXyXyXyXyXyXyXyXyXyXyXyXyXyXyXyXo o o o o o + o o o X yXyXX 1 j x j j l j @ o yXyXyXyXyXyXyXyXyXyXyXyXyXyXyXyXyXyX",
"yXyXyXyXyXyXyXyXyXyXyXyXyXyXyXyXyXyXyXyXyXyXyXyXyXyXyXyXyXyXyXX & 9 8 6 6 8 6 9 , X yXyXyXyXyXyXyXyXyXyXyXyXyXyXyXyXyXyX",
"yXyXyXyXyXyXyXyXyXyXyXyXyXyXyXyXyXyXyXyXyXyXyXyXyXyXyXyXyXyXyXo o & & @ @ @ @ @ o X yXyXyXyXyXyXyXyXyXyXyXyXyXyXyXyXyXyX",
"yXyXyXyXyXyXyXyXyXyXyXyXyXyXyXyXyXyXyXyXyXyXyXyXyXyXyXyXyXyXyXyXX o X X X O o X o o yXyXyXyXyXyXyXyXyXyXyXyXyXyXyXyXyXyX"
};
