/* XPM */
static xpm_row_t const p1_front_5[] = {
/* columns rows colors chars-per-pixel */
"60 80 213 2 ",
"   c #151514",
".  c #1A1917",
"X  c #1D1C1A",
"o  c #181716",
"O  c #211C14",
"+  c #201F1C",
"@  c #201616",
"#  c #22211E",
"$  c #2A2319",
"%  c #2B2519",
"&  c #352A15",
"*  c #322518",
"=  c #3A2916",
"-  c #3B3319",
";  c #221E29",
":  c #1F2028",
">  c #242422",
",  c #292623",
"<  c #2C2A25",
"1  c #2C2C2C",
"2  c #23222D",
"3  c #322D26",
"4  c #322F2B",
"5  c #34332B",
"6  c #3B352D",
"7  c #39382E",
"8  c #242534",
"9  c #28283E",
"0  c #333333",
"q  c #393632",
"w  c #3C3A32",
"e  c #3B3B3B",
"r  c #373738",
"t  c #452D16",
"y  c #4B3117",
"u  c #4B3318",
"i  c #593A16",
"p  c #603B18",
"a  c #433C33",
"s  c #403F3F",
"d  c #4A3B24",
"f  c #694716",
"g  c #774A17",
"h  c #775216",
"j  c #635318",
"k  c #786116",
"l  c #434337",
"z  c #4B4137",
"x  c #4D443B",
"c  c #4A4A3C",
"v  c #444438",
"b  c #554A3E",
"n  c #564737",
"m  c #5A4E22",
"M  c #665825",
"N  c #6C4D2F",
"B  c #736325",
"V  c #6D602B",
"C  c #2A2D49",
"Z  c #2C3254",
"A  c #343B5F",
"S  c #353C60",
"D  c #3F414B",
"F  c #3E4568",
"G  c #444444",
"H  c #4C4B4B",
"J  c #5B4F42",
"K  c #534B43",
"L  c #5E5245",
"P  c #5D544C",
"I  c #535353",
"U  c #5A5A5A",
"Y  c #505259",
"T  c #635446",
"R  c #635749",
"E  c #655848",
"W  c #6A5C4C",
"Q  c #645B51",
"!  c #705F4E",
"~  c #76604A",
"^  c #6D6053",
"/  c #746452",
"(  c #7C6A56",
")  c #7E6D59",
"_  c #766556",
"`  c #6F614F",
"'  c #424868",
"]  c #565B74",
"[  c #4D5371",
"{  c #5D627B",
"}  c #666669",
"|  c #776D62",
" . c #767677",
".. c #7F7367",
"X. c #884E19",
"o. c #8D521B",
"O. c #865616",
"+. c #945919",
"@. c #9A5C19",
"#. c #935917",
"$. c #856615",
"%. c #9B661C",
"&. c #8A7617",
"*. c #957814",
"=. c #A36419",
"-. c #A96C18",
";. c #AA7116",
":. c #B47C16",
">. c #BC7C19",
",. c #B6751A",
"<. c #B06F1A",
"1. c #8A5424",
"2. c #945C29",
"3. c #927B28",
"4. c #996434",
"5. c #9A602D",
"6. c #A36D3C",
"7. c #A07E21",
"8. c #826E58",
"9. c #86735E",
"0. c #9B7958",
"q. c #A97647",
"w. c #B27E4F",
"e. c #8B7660",
"r. c #8A7865",
"t. c #917B64",
"y. c #947E68",
"u. c #BB8316",
"i. c #BC8617",
"p. c #998223",
"a. c #A88F34",
"s. c #AB9332",
"d. c #C58817",
"f. c #CA9619",
"g. c #D29B19",
"h. c #D4A416",
"j. c #DEB61C",
"k. c #C7A217",
"l. c #E6BA19",
"z. c #C99B26",
"x. c #C18F23",
"c. c #D8A826",
"v. c #D6AA35",
"b. c #DCB739",
"n. c #CFAA2A",
"m. c #E7BB24",
"M. c #E3BD39",
"N. c #EEC71E",
"B. c #EAC422",
"V. c #EDC735",
"C. c #F6D337",
"Z. c #F3CF3F",
"A. c #B88759",
"S. c #9A836B",
"D. c #95816B",
"F. c #958678",
"G. c #A78869",
"H. c #BE8E61",
"J. c #BD9268",
"K. c #A38B71",
"L. c #A68F78",
"P. c #AD9277",
"I. c #B59A7D",
"U. c #B5977A",
"Y. c #CEB143",
"T. c #E0B744",
"R. c #C49568",
"E. c #CA9E73",
"W. c #D4A87E",
"Q. c #EEC648",
"!. c #F4D144",
"~. c #F8D64B",
"^. c #F8D54C",
"/. c #838383",
"(. c #8A8A8A",
"). c #959599",
"_. c #A69483",
"`. c #B99E82",
"'. c #BFA283",
"]. c #B7A395",
"[. c #ACACAD",
"{. c #A4A5AA",
"}. c #AAABB3",
"|. c #BABBBC",
" X c #B2B2B2",
".X c #C3A586",
"XX c #C6A989",
"oX c #CBAC8B",
"OX c #D4AD87",
"+X c #DAB38C",
"@X c #D4B492",
"#X c #DCB996",
"$X c #DEBE99",
"%X c #DBB794",
"&X c #E3BC94",
"*X c #E2BE9A",
"=X c #E0B88F",
"-X c #E5C19D",
";X c #E9C39E",
":X c #EBC6A1",
">X c #EEC9A3",
",X c #EFCEAF",
"<X c #F1CBA5",
"1X c #F4CFAA",
"2X c #F2D2B5",
"3X c #EED0B7",
"4X c #C3C3C8",
"5X c #CECFD1",
"6X c #D3D3D5",
"7X c #DBDBDC",
"8X c #D7D7DA",
"9X c #F5D8C0",
"0X c #00b140",
/* pixels */
"0X0X0X0X0X0X0X0X0X0X0X0X0X0X0X0X0X0X0X0X0X0X0X0X0X0X0X0X0X0X0X0X0X0X0X0X0X0X0X0X0X0X0X0X0X0X0X0X0X0X0X0X0X0X0X0X0X0X0X0X",
"0X0X0X0X0X0X0X0X0X0X0X0X0X0X0X0X0X0X0X0X0X0X0X0X0X0X0X0X0X0X0X0X0X0X0X0X0X0X0X0X0X0X0X0X0X0X0X0X0X0X0X0X0X0X0X0X0X0X0X0X",
"0X0X0X0X0X0X0X0X0X0X0X0X0X0X0X0X0X0X0X0X0X0X0X0X0X0X0X0X0X0X0X0X0X0X0X0X0X0X0X0X0X0X0X0X0X0X0X0X0X0X0X0X0X0X0X0X0X0X0X0X",
"0X0X0X0X0X0X0X0X0X0X0X0X0X0X0X0X0X0X0X0X0X0X0X0X0X0X0X0X0X0X0X0X0X0X0X0X0X0X0X0X0X0X0X0X0X0X0X0X0X0X0X0X0X0X0X0X0X0X0X0X",
"0X0X0X0X0X0X0X0X0X0X0X0X0X0X0X0X0X0X0X0X0X0X0X0X0X0X0X0X. # # X 0X0X0X0X0X0X0X0X0X0X0X0X0X0X0X0X0X0X0X0X0X0X0X0X0X0X0X0X",
"0X0X0X0X0X0X0X0X0X0X0X0X0X0X0X0X0X0X0X0X0X0X0X0X0X0X0XX < H G > X 0X0X0X0X0X0X0X0X0X0X0X0X0X0X0X0X0X0X0X0X0X0X0X0X0X0X0X",
"0X0X0X0X0X0X0X0X0X0X0X0X0X0X0X0X0X0X0X0X0X0X0X0X0Xo X 0 I U U H 1 . 0X0X0X0X0X0X0X0X0X0X0X0X0X0X0X0X0X0X0X0X0X0X0X0X0X0X",
"0X0X0X0X0X0X0X0X0X0X0X0X0X0X0X0X0X0X0X0X0X0X0X0XX > e I I U U I H 0 + . 0X0X0X0X0X0X0X0X0X0X0X0X0X0X0X0X0X0X0X0X0X0X0X0X",
"0X0X0X0X0X0X0X0X0X0X0X0X0X0X0X0X0X0X0X0X0X0XX X 1 s I H I U U I H H G 1 X X 0X0X0X0X0X0X0X0X0X0X0X0X0X0X0X0X0X0X0X0X0X0X",
"0X0X0X0X0X0X0X0X0X0X0X0X0X0X0X0X0X0X0X0X. X < 0 G H I H U U U I H H H H v < X X 0X0X0X0X0X0X0X0X0X0X0X0X0X0X0X0X0X0X0X0X",
"0X0X0X0X0X0X0X0X0X0X0X0X0X0X0X0X0X0X. X > 0 e G H H I I U U U I H H H G H G e 2 X o 0X0X0X0X0X0X0X0X0X0X0X0X0X0X0X0X0X0X",
"0X0X0X0X0X0X0X0X0X0X0X0X0X0X0X0X0X. > 4 e e G H H I I I U U U U I H H H K C v G 0 > X 0X0X0X0X0X0X0X0X0X0X0X0X0X0X0X0X0X",
"0X0X0X0X0X0X0X0X0X0X0X0X0X0X0X. X 1 r r e G H H H I U U U U U U I H H H G H G v e e 1 X . 0X0X0X0X0X0X0X0X0X0X0X0X0X0X0X",
"0X0X0X0X0X0X0X0X0X0X0X0X0X0X. > 0 e r e G H I I U U U U U U U U U I I I H H G G e e e 5 # . 0X0X0X0X0X0X0X0X0X0X0X0X0X0X",
"0X0X0X0X0X0X0X0X0X0X0X0X0XX > 0 r e e G G H H I U U U U U U U U U U I I H H H G G C v e 0 > X 0X0X0X0X0X0X0X0X0X0X0X0X0X",
"0X0X0X0X0X0X0X0X0X0X0X0XX , 0 e r e G G H H H I I U U U U U U U U U U I I H I H G v s s e 0 > X 0X0X0X0X0X0X0X0X0X0X0X0X",
"0X0X0X0X0X0X0X0X0X0X0X. > r r e r e G H H H H I I U U U U U U U U I U I I I I H H H e e e l 0 + X 0X0X0X0X0X0X0X0X0X0X0X",
"0X0X0X0X0X0X0X0X0X0X. > 0 e e l e v G H H G H I I U U U U U I H I I I H H H G G H G H e e v C 0 X X 0X0X0X0X0X0X0X0X0X0X",
"0X0X0X0X0X0X0X0X0XX X 4 e r e C G G G s c C H I H H I I I I I I H H H H H H G G e e v G e e l e 1 X 0X0X0X0X0X0X0X0X0X0X",
"0X0X0X0X0X0X0X0X0XX 1 r e r e v e G G G G e G H H H H H H H H H H H H G G H H G G G e c C e r s e > X 0X0X0X0X0X0X0X0X0X",
"0X0X0X0X0X0X0X0X. # 0 r e e e e G G G G v G G G G G s e v C e e e G G H G G G G G G r e s e e e e 0 X X 0X0X0X0X0X0X0X0X",
"0X0X0X0X0X0X0X0XX 1 r r e e r s G G G G H G e s s e e e l e e e e e e e G G H e e G e 0 r e e r e e 1 X 0X0X0X0X0X0X0X0X",
"0X0X0X0X0X0X0XX > 0 r e r e e s G G G G e e e e e e e e e e r e e e e e e r l e e e e e e e e e e e 0 # X 0X0X0X0X0X0X0X",
"0X0X0X0X0X0X0XX 1 0 q r e r e s e e G e e e e e e 0 0 0 0 0 0 0 0 e e e e e e r D s e e e e e e e 0 0 1 . 0X0X0X0X0X0X0X",
"0X0X0X0X0X0XX X 0 0 0 r e r 0 r e e e e e e r 0 0 0 1 1 < < < < 1 0 5 0 0 0 e e e e e e e e e e e e 0 1 X 0X0X0X0X0X0X0X",
"0X0X0X0X0X0XX > 0 0 0 e e e r e e e e r 0 r 0 0 1 > X + O & % % # X # # 1 1 0 0 e e e e D e e e e e 0 0 > . 0X0X0X0X0X0X",
"0X0X0X0X0X0XX 1 0 0 e e e 0 r e e e 0 e r 0 , + $ t j h $.$.$.X.h f i = O : 1 1 0 0 r e e s e e e r r 0 1 . 0X0X0X0X0X0X",
"0X0X0X0X0X0XX 1 0 0 r e r r r e e e 0 0 , @ o = g O.$.;.:.:.,.<.;.-.$.g i = X + 1 0 0 r q e e e r r 0 0 1 X 0X0X0X0X0X0X",
"0X0X0X0X0X0XX 1 1 r r e 0 0 0 e 0 r 1 + , x 3 O i #.@.=.,.>.>.,.,.-.+.X.f = O 6 # > 5 0 0 0 e e r r 0 0 0 X 0X0X0X0X0X0X",
"0X0X0X0X0X. > 0 0 0 e r e 0 r e 0 1 X 6 e.K.S.J O i @.@.+.@.@.+.+.#.p t O 3 ~ 9.b # > 0 r 0 e e r r 0 5 1 > X 0X0X0X0X0X",
"0X0X0X0X0X. > 1 0 0 e 0 0 0 e 0 1 + a K.'.%X*X`.E O y X.o.X.o.@.X.y + n _ K.@X.XK.W # > 0 0 r e e 0 0 0 1 > . 0X0X0X0X0X",
"0X0X0X0X0XX > 0 0 0 0 0 0 e 0 1 + a K..X&X:X<X-X.X8.3 * = t y t O 3 8.U..X#X>X>XoXP._ > < 0 0 0 e r 0 0 0 > . 0X0X0X0X0X",
"0X0X0X0X0XX > 1 0 0 0 0 r r 4 > 3 S.`.#X:X;X>X>X-XoXK.8.T x z x ! y.oX*X>X:X>X<X>XoXU.W + 1 0 0 0 0 0 0 4 > X 0X0X0X0X0X",
"0X0X0X0X0XX > 0 0 r 0 0 0 0 1 # ( U.%X;X>X>X>X>X>X;X%XXXI.I.U.I..X=X:X<X>X&X;X<X<X-X.XL.a # 0 0 0 0 0 1 0 2 X 0X0X0X0X0X",
"0X0X0X0X0XX > 4 1 r 0 r 0 4 : a G.G.E.&X&X<X:X:X>X<X-X;X-X*X#X&X:X>X>X<X:X:X<X*X&XW.J.G.( X 1 0 0 0 0 1 1 > . 0X0X0X0X0X",
"0X0X0X0X0X. : 0 0 0 0 r 1 1 X N 1.X.o.2.5.W.>X:X>X>X:X<X<X<X;X;X>X>X>X>X<X<X=Xq.2.1.o.X.4.5 > r 0 0 1 0 5 > . 0X0X0X0X0X",
"0X0X0X0X0X0X# 1 1 0 0 0 0 > % 1.q.R.A.w.5.5.R.=X<X>X>X>X<X<X;X<X<X<X:X<X&XR.6.5.q.A.R.A.5.d X 0 0 1 1 0 1 : . 0X0X0X0X0X",
"0X0X0X0X0X0XX 4 0 0 0 0 4 : n 0.8.! T W 8.0.q.q.OX:X<X:X;X>X<X<X*X*X:X=Xw.q.q.8.W R R 8.y.~ + 5 r 0 0 0 1 X 0X0X0X0X0X0X",
"0X0X0X0X0X0XX 1 0 0 0 1 0 X W T r  .Y 8 ; , J 0.H.R.OX>X>X<X>X>X<X=XR.A.G.R 1 ; 8 G  .G a y.> 1 r 0 1 1 1 X 0X0X0X0X0X0X",
"0X0X0X0X0X0X. : 1 1 0 0 4 X ` a (.8X] Z 2 8 8 4 0.&X&X>X>X<X-X;X<X*X&XP.a 2 8 ; C ' 4X[.6 9.< < 0 1 0 0 1 X 0X0X0X0X0X0X",
"0X0X0X0X0X0X0XX 1 0 0 0 1 : / 7 ).4X' C @ 2 S } q K.>X;X>X>X>X*X<X1X.Xd } F 8 . 8 S }.|.q ) < 1 0 1 1 0 > . 0X0X0X0X0X0X",
"0X0X0X0X0X0X0XX , 0 0 1 1 + ` w (.5X{ Z C C ' 4X(.7 %X>X>X<X>X>X<X*XJ } 6X] Z 9 Z ' 4X[.5 ) < 1 0 0 0 1 X 0X0X0X0X0X0X0X",
"0X0X0X0X0X0X0XX # 4 0 0 4 X E K Q 5X|.] ' [ ).7X/.v $X>X>X>X>X:X<X>XW Q 7X}.] F [ {.8X .w ) : 0 0 0 0 > X 0X0X0X0X0X0X0X",
"0X0X0X0X0X0X0X0XX 2 1 1 0 # v e.5 ).8X6X4X5X7X{.w S.<X>X>X<X;X&X>X<X'.0 (.7X6X4X5X7X[.e / E X 0 0 1 1 X 0X0X0X0X0X0X0X0X",
"0X0X0X0X0X0X0X0XX : 1 0 5 2 , D.) 0  .[.|.}./.q ( ;X1X<X<X<X<X<X<X<X:XD.0 } {.|. X(.e E K.5 , 0 1 1 > X 0X0X0X0X0X0X0X0X",
"0X0X0X0X0X0X0X0X0XX > 5 0 4 + L oXK.v q e q z S.;X<XoXD.D.XX#XK.y..X<X<XI.J 7 r q a e.@X/ + 0 1 0 1 X 0X0X0X0X0X0X0X0X0X",
"0X0X0X0X0X0X0X0X0X0XX , 1 0 > , t.-X$X'.`.XX*X1X;XD.5 - - 5 c % = 3 r.:X1X-XoX'..X$X>XK.< > 0 0 1 X X 0X0X0X0X0X0X0X0X0X",
"0X0X0X0X0X0X0X0X0X0X. X 1 1 4 X 5 8.I.@X:X<X:XoXQ % &.j.k.M u s.B.&.% ^ XX-X>X:X#XI./ < + 4 1 1 X X 0X0X0X0X0X0X0X0X0X0X",
"0X0X0X0X0X0X0X0X0X0X0XX X > 5 1 X X , q J W L 4 6 s.C.m.B.^.b.!.~.B.*.- 3 K L x q % o X 1 1 1 X X 0X0X0X0X0X0X0X0X0X0X0X",
"0X0X0X0X0X0X0X0X0X0X0X0X. X : 1 > O k 3.V m M &.b.!.V.i.p.a.a.a.Y.^.!.j.p.B j B 3.$.# > 1 > X X 0X0X0X0X0X0X0X0X0X0X0X0X",
"0X0X0X0X0X0X0X0X0X0X0X0X0XX . . # + $.T.Q.c.c.l.B.m.j.M.v.z.z.M.C.~.~.C.V.b.f.k.d.f X # X X 0X0X0X0X0X0X0X0X0X0X0X0X0X0X",
"0X0X0X0X0X0X0X0X0X0X0X0X0X0X0Xo o O = i %.>.d.d.c.m.l.C.^.V.j.l.N.l.c.h.u.>.:.f u O     0X0X0X0X0X0X0X0X0X0X0X0X0X0X0X0X",
"0X0X0X0X0X0X0X0X0X0X0X0X0X0X0X0X0X    . y #.h %.f.f.g.z.x.f.f.l.f.u.d.u.-.f f $ o   0X0X0X0X0X0X0X0X0X0X0X0X0X0X0X0X0X0X",
"0X0X0X0X0X0X0X0X0X0X0X0X0X0X0X0X0X0XX 1 # $ . - O.u.c.v.;.;.v.V.h.u.>.h u o + 2 0 X 0X0X0X0X0X0X0X0X0X0X0X0X0X0X0X0X0X0X",
"0X0X0X0X0X0X0X0X0X0X0X0X0X0X0X0X0X. 1 I 0 X 0 > * -.v.Q.c.:.v.z.u.>.<.t X 5 X e I 0 X 0X0X0X0X0X0X0X0X0X0X0X0X0X0X0X0X0X",
"0X0X0X0X0X0X0X0X0X0X0X0X0X0X0X0X. X e H < # G e X g ,.d.f.f.d.>.-.=.f O 0 H > 1 I G > X 0X0X0X0X0X0X0X0X0X0X0X0X0X0X0X0X",
"0X0X0X0X0X0X0X0X0X0X0X0X0X0X0X0XX 1 G e + 5 I H , * O.h =.u.f.d.,.g + 1 G I 0 # s G 0 + . 0X0X0X0X0X0X0X0X0X0X0X0X0X0X0X",
"0X0X0X0X0X0X0X0X0X0X0X0X0X0X0X. + q D 4 X G I G 0 O # # g #.#.%.i $ + r G I G # 1 s r > . 0X0X0X0X0X0X0X0X0X0X0X0X0X0X0X",
"0X0X0X0X0X0X0X0X0X0X0X0X0X0X. , > : 1 > 1 I I v r # < # $ * O & + # X 0 G H I 5 # 1 # + q # 0X0X0X0X0X0X0X0X0X0X0X0X0X0X",
"0X0X0X0X0X0X0X0X0X0X0X0X0X0X3 ].].R < o 0 I G D r + 7 5 + _ D.# 7 7 + 0 e H I e X > P L.oX~ X 0X0X0X0X0X0X0X0X0X0X0X0X0X",
"0X0X0X0X0X0X0X0X0X0X0X0X0X  R 3X2X3X_.> G H D e 0 X 5 l < P.S.# c w X 4 e c I G > F.9X2X;XP., 0X0X0X0X0X0X0X0X0X0X0X0X0X",
"0X0X0X0X0X0X0X0X0X0X0X0X0X  R <X,X2X'.> G H s e 4 X 5 c < L b 1 c 5 X 1 e C H K > L.2X,X:XP., 0X0X0X0X0X0X0X0X0X0X0X0X0X",
"0X0X0X0X0X0X0X0X0X0X0X0X0X0X4 XX<X<XD.# H H s e 1 + 5 c w + + w l 7 + 1 e e H I 2 e.<X>X=X_ X 0X0X0X0X0X0X0X0X0X0X0X0X0X",
"0X0X0X0X0X0X0X0X0X0X0X0X0X0Xo b .X$X) < H H e e 1 + < w l + + 7 7 7 + 1 r e G I 1 W &XoX0., 0X0X0X0X0X0X0X0X0X0X0X0X0X0X",
"0X0X0X0X0X0X0X0X0X0X0X0X0X0X0X. 4 J a < I v e r 1 X X X + X . X + . X < r e e I 0 3 L z > 0X0X0X0X0X0X0X0X0X0X0X0X0X0X0X",
"0X0X0X0X0X0X0X0X0X0X0X0X0X0X0X0X0X  o 1 G e e e 1 + K P c P Q c 4 P # 1 r e e H 0 .     0X0X0X0X0X0X0X0X0X0X0X0X0X0X0X0X",
"0X0X0X0X0X0X0X0X0X0X0X0X0X0X0X0X0X0Xo , D e e 0 0 + | | ..F._.Q | Q > 1 r e e e 5 . 0X0X0X0X0X0X0X0X0X0X0X0X0X0X0X0X0X0X",
"0X0X0X0X0X0X0X0X0X0X0X0X0X0X0X0X0X0X. > r e 0 0 1 X 1 K _ K a Q ..c + 1 r 0 r e 1 . 0X0X0X0X0X0X0X0X0X0X0X0X0X0X0X0X0X0X",
"0X0X0X0X0X0X0X0X0X0X0X0X0X0X0X0X0X0X. # 0 0 0 0 0 # X # X X X > < # X 1 0 0 0 0 > o 0X0X0X0X0X0X0X0X0X0X0X0X0X0X0X0X0X0X",
"0X0X0X0X0X0X0X0X0X0X0X0X0X0X0X0X0X0X0XX > 1 0 5 0 # X X X o X o . . # 0 1 0 1 < + 0X0X0X0X0X0X0X0X0X0X0X0X0X0X0X0X0X0X0X",
"0X0X0X0X0X0X0X0X0X0X0X0X0X0X0X0X0X0X0X0X. X + # X # # X X 0X0XX + # > # # # X . 0X0X0X0X0X0X0X0X0X0X0X0X0X0X0X0X0X0X0X0X",
"0X0X0X0X0X0X0X0X0X0X0X0X0X0X0X0X0X0X0X0XX X 5 q w v l , X 0X0XX > l l 7 7 5 + . 0X0X0X0X0X0X0X0X0X0X0X0X0X0X0X0X0X0X0X0X",
"0X0X0X0X0X0X0X0X0X0X0X0X0X0X0X0X0X0X0X0X. # 5 7 7 5 5 5 + 0X0XX 3 5 5 5 5 3 # X 0X0X0X0X0X0X0X0X0X0X0X0X0X0X0X0X0X0X0X0X",
"0X0X0X0X0X0X0X0X0X0X0X0X0X0X0X0X0X0X0X0X. . + + + + + + . 0X0X. + + X X X X X + 0X0X0X0X0X0X0X0X0X0X0X0X0X0X0X0X0X0X0X0X",
"0X0X0X0X0X0X0X0X0X0X0X0X0X0X0X0X0X0X0X0X0X0X0X0X0X0X0X0X0X0X0X0X0X0X0X0X0X0X0X0X0X0X0X0X0X0X0X0X0X0X0X0X0X0X0X0X0X0X0X0X",
"0X0X0X0X0X0X0X0X0X0X0X0X0X0X0X0X0X0X0X0X0X0X0X0X0X0X0X0X0X0X0X0X0X0X0X0X0X0X0X0X0X0X0X0X0X0X0X0X0X0X0X0X0X0X0X0X0X0X0X0X",
"0X0X0X0X0X0X0X0X0X0X0X0X0X0X0X0X0X0X0X0X0X0X0X0X0X0X0X0X0X0X0X0X0X0X0X0X0X0X0X0X0X0X0X0X0X0X0X0X0X0X0X0X0X0X0X0X0X0X0X0X",
"0X0X0X0X0X0X0X0X0X0X0X0X0X0X0X0X0X0X0X0X0X0X0X0X0X0X0X0X0X0X0X0X0X0X0X0X0X0X0X0X0X0X0X0X0X0X0X0X0X0X0X0X0X0X0X0X0X0X0X0X",
"0X0X0X0X0X0X0X0X0X0X0X0X0X0X0X0X0X0X0X0X0X0X0X0X0X0X0X0X0X0X0X0X0X0X0X0X0X0X0X0X0X0X0X0X0X0X0X0X0X0X0X0X0X0X0X0X0X0X0X0X",
"0X0X0X0X0X0X0X0X0X0X0X0X0X0X0X0X0X0X0X0X0X0X0X0X0X0X0X0X0X0X0X0X0X0X0X0X0X0X0X0X0X0X0X0X0X0X0X0X0X0X0X0X0X0X0X0X0X0X0X0X"
};
