/* XPM */
static xpm_row_t const p1_front_3[] = {
/* columns rows colors chars-per-pixel */
"60 80 207 2 ",
"   c #161514",
".  c #1A1917",
"X  c #1D1C1A",
"o  c #181716",
"O  c #211E1C",
"+  c #251C12",
"@  c #22211E",
"#  c #2B231A",
"$  c #2F2A1C",
"%  c #2C2417",
"&  c #372917",
"*  c #3B3319",
"=  c #1D1E25",
"-  c #1F212D",
";  c #242423",
":  c #292623",
">  c #2B2A25",
",  c #2C2C2C",
"<  c #322C25",
"1  c #312F2B",
"2  c #34322C",
"3  c #3A342D",
"4  c #3A3A2F",
"5  c #28283D",
"6  c #252433",
"7  c #333333",
"8  c #3A3632",
"9  c #3C3A32",
"0  c #3B3B3B",
"q  c #452E16",
"w  c #473517",
"e  c #583A16",
"r  c #633E18",
"t  c #443C34",
"y  c #453F3A",
"u  c #413427",
"i  c #5A4B14",
"p  c #694317",
"a  c #794916",
"s  c #665616",
"d  c #775616",
"f  c #424135",
"g  c #4A4137",
"h  c #44433A",
"j  c #4D443B",
"k  c #4A4A3C",
"l  c #544A3D",
"z  c #54473A",
"x  c #5D4126",
"c  c #6C5024",
"v  c #6E612C",
"b  c #2A2E48",
"n  c #2C3148",
"m  c #2C3358",
"M  c #363D62",
"N  c #444444",
"B  c #4C4C4C",
"V  c #5A4E41",
"C  c #514A42",
"Z  c #5E5244",
"A  c #535353",
"S  c #5A5A5A",
"D  c #625546",
"F  c #6C5D4C",
"G  c #63574A",
"H  c #655B50",
"J  c #73614E",
"K  c #69625A",
"L  c #736352",
"P  c #7D6B58",
"I  c #6F614F",
"U  c #474D6C",
"Y  c #4F5369",
"T  c #686868",
"R  c #7D7165",
"E  c #63677A",
"W  c #7B7B7B",
"Q  c #737373",
"!  c #796E62",
"~  c #844D18",
"^  c #8C511B",
"/  c #875616",
"(  c #945619",
")  c #955A19",
"_  c #9B5F18",
"`  c #96720F",
"'  c #9E6219",
"]  c #966613",
"[  c #997615",
"{  c #8A6E1D",
"}  c #A36219",
"|  c #A76C18",
" . c #AD7218",
".. c #B37319",
"X. c #BC7C19",
"o. c #B57818",
"O. c #B16E1A",
"+. c #8E5624",
"@. c #935925",
"#. c #977929",
"$. c #916F32",
"%. c #A26B3A",
"&. c #9F734A",
"*. c #826F5B",
"=. c #856A50",
"-. c #84715C",
";. c #8C745C",
":. c #9B724B",
">. c #A87648",
",. c #A77C54",
"<. c #8E7A63",
"1. c #887767",
"2. c #917A64",
"3. c #BA8216",
"4. c #BD8917",
"5. c #B99B1B",
"6. c #988027",
"7. c #A99137",
"8. c #B08F25",
"9. c #C48B16",
"0. c #C48818",
"q. c #CB9716",
"w. c #D19919",
"e. c #D7A51B",
"r. c #D7AC19",
"t. c #E1B31D",
"y. c #E5BA1A",
"u. c #CA9327",
"i. c #C3932B",
"p. c #C6A729",
"a. c #D6A627",
"s. c #DCB326",
"d. c #CAA538",
"f. c #DBBB39",
"g. c #E4BA39",
"h. c #E0B428",
"j. c #F4CE1E",
"k. c #ECC627",
"l. c #F2CD2B",
"z. c #FAD52A",
"x. c #ECC539",
"c. c #F6D23B",
"v. c #F0C935",
"b. c #B68455",
"n. c #9B846B",
"m. c #9A856D",
"M. c #9E8872",
"N. c #958575",
"B. c #B78C64",
"V. c #A48B71",
"C. c #AD9277",
"Z. c #B1977A",
"A. c #B59A7C",
"S. c #BA9B7C",
"D. c #BA9672",
"F. c #AF8B67",
"G. c #D5B743",
"H. c #E5BB41",
"J. c #C7996C",
"K. c #C6976B",
"L. c #C59B73",
"P. c #D0A479",
"I. c #E9C947",
"U. c #F9D749",
"Y. c #FADA56",
"T. c #6E7187",
"R. c #7D8192",
"E. c #848485",
"W. c #838696",
"Q. c #9B9B9C",
"!. c #959699",
"~. c #8E909D",
"^. c #B09D8A",
"/. c #BDA182",
"(. c #B9A699",
"). c #9294A2",
"_. c #AFAFB5",
"`. c #B6B7B9",
"'. c #C4A585",
"]. c #CCAD8C",
"[. c #C6A888",
"{. c #D8AC83",
"}. c #D5B18D",
"|. c #D4B492",
" X c #DEBD99",
".X c #DBB794",
"XX c #C6AD98",
"oX c #E1B88F",
"OX c #E3BE9A",
"+X c #E6C19D",
"@X c #EAC39D",
"#X c #ECC6A1",
"$X c #EFC9A3",
"%X c #E7C6A0",
"&X c #F1CBA5",
"*X c #F2CEA9",
"=X c #F3D3B7",
"-X c #EFCEB1",
";X c #C2C2C4",
":X c #C9CACC",
">X c #CECED1",
",X c #D3D3D4",
"<X c #DBDADB",
"1X c #D6D6D9",
"2X c #F8DAC2",
"3X c #E1E1E2",
"4X c #00b140",
/* pixels */
"4X4X4X4X4X4X4X4X4X4X4X4X4X4X4X4X4X4X4X4X4X4X4X4X4X4X4X4X4X4X4X4X4X4X4X4X4X4X4X4X4X4X4X4X4X4X4X4X4X4X4X4X4X4X4X4X4X4X4X4X",
"4X4X4X4X4X4X4X4X4X4X4X4X4X4X4X4X4X4X4X4X4X4X4X4X4X4X4X4X4X4X4X4X4X4X4X4X4X4X4X4X4X4X4X4X4X4X4X4X4X4X4X4X4X4X4X4X4X4X4X4X",
"4X4X4X4X4X4X4X4X4X4X4X4X4X4X4X4X4X4X4X4X4X4X4X4X4X4X4X4X4X4X4X4X4X4X4X4X4X4X4X4X4X4X4X4X4X4X4X4X4X4X4X4X4X4X4X4X4X4X4X4X",
"4X4X4X4X4X4X4X4X4X4X4X4X4X4X4X4X4X4X4X4X4X4X4X4X4X4X4X4X4X4X4X4X4X4X4X4X4X4X4X4X4X4X4X4X4X4X4X4X4X4X4X4X4X4X4X4X4X4X4X4X",
"4X4X4X4X4X4X4X4X4X4X4X4X4X4X4X4X4X4X4X4X4X4X4X4X4X4X4X4X4X4X4X4X4X4X4X4X4X4X4X4X4X4X4X4X4X4X4X4X4X4X4X4X4X4X4X4X4X4X4X4X",
"4X4X4X4X4X4X4X4X4X4X4X4X4X4X4X4X4X4X4X4X4X4X4X4X4X4X4X4X4X. . 4X4X4X4X4X4X4X4X4X4X4X4X4X4X4X4X4X4X4X4X4X4X4X4X4X4X4X4X4X",
"4X4X4X4X4X4X4X4X4X4X4X4X4X4X4X4X4X4X4X4X4X4X4X4X4X4X4X4XX , : . 4X4X4X4X4X4X4X4X4X4X4X4X4X4X4X4X4X4X4X4X4X4X4X4X4X4X4X4X",
"4X4X4X4X4X4X4X4X4X4X4X4X4X4X4X4X4X4X4X4X4X4X4X4X4X4X. X 7 A A , X 4X4X4X4X4X4X4X4X4X4X4X4X4X4X4X4X4X4X4X4X4X4X4X4X4X4X4X",
"4X4X4X4X4X4X4X4X4X4X4X4X4X4X4X4X4X4X4X4X4X4X4X4X4X. ; N S S S A 0 X . 4X4X4X4X4X4X4X4X4X4X4X4X4X4X4X4X4X4X4X4X4X4X4X4X4X",
"4X4X4X4X4X4X4X4X4X4X4X4X4X4X4X4X4X4X4X4X4X4X4X. X , N A A S S A B N : . 4X4X4X4X4X4X4X4X4X4X4X4X4X4X4X4X4X4X4X4X4X4X4X4X",
"4X4X4X4X4X4X4X4X4X4X4X4X4X4X4X4X4X4X4X4X4X4X. : 7 B A B A S S A B B B 0 ; . 4X4X4X4X4X4X4X4X4X4X4X4X4X4X4X4X4X4X4X4X4X4X",
"4X4X4X4X4X4X4X4X4X4X4X4X4X4X4X4X4X4X4X4XX @ , 0 B B B A A S S A B N N B N 7 ; . 4X4X4X4X4X4X4X4X4X4X4X4X4X4X4X4X4X4X4X4X",
"4X4X4X4X4X4X4X4X4X4X4X4X4X4X4X4X4X4XX @ , 0 0 B B B B A S S S A B B B N N B N 1 @ . 4X4X4X4X4X4X4X4X4X4X4X4X4X4X4X4X4X4X",
"4X4X4X4X4X4X4X4X4X4X4X4X4X4X4X4X. X : 7 0 0 B B B A A S S S S S A A B B N N h k 0 , X . 4X4X4X4X4X4X4X4X4X4X4X4X4X4X4X4X",
"4X4X4X4X4X4X4X4X4X4X4X4X4X4X4X. ; 7 0 0 0 B B B A A S S S S S S A B B A B B N n 0 0 7 ; . 4X4X4X4X4X4X4X4X4X4X4X4X4X4X4X",
"4X4X4X4X4X4X4X4X4X4X4X4X4X4XX : 8 0 0 0 N B B A S S S S S S S S S S A A B B N B 0 0 0 0 : . 4X4X4X4X4X4X4X4X4X4X4X4X4X4X",
"4X4X4X4X4X4X4X4X4X4X4X4X4XX , 7 0 0 0 N N B B B S S S S S S S S S A A A B B B N N 0 0 0 0 : X 4X4X4X4X4X4X4X4X4X4X4X4X4X",
"4X4X4X4X4X4X4X4X4X4X4X4X. , 0 0 0 0 N N B A A A A S S S S S S S S S S S A A B A B N 0 0 0 0 : . 4X4X4X4X4X4X4X4X4X4X4X4X",
"4X4X4X4X4X4X4X4X4X4X4XX , 0 0 7 7 0 N B A B B A A S S S S S S S S A S A A A B B B B N 0 0 n 0 : X 4X4X4X4X4X4X4X4X4X4X4X",
"4X4X4X4X4X4X4X4X4X4XX : 0 7 0 0 0 N N B N N B A A A S A S S S B B A B B B B N N N N N h 0 h h 9 ; . 4X4X4X4X4X4X4X4X4X4X",
"4X4X4X4X4X4X4X4X4X. ; 7 0 0 0 0 N N N N N h B B N B A A A A A A A B N B B B N N 0 0 N N 0 0 0 n 7 X . 4X4X4X4X4X4X4X4X4X",
"4X4X4X4X4X4X4X4X4XX , 7 0 0 0 h 0 0 N B n j N N B B B N N N N N N B B N N B B N N N 0 0 N 0 0 0 0 , X 4X4X4X4X4X4X4X4X4X",
"4X4X4X4X4X4X4X4X. ; 7 0 0 0 h 0 N N B 0 N N N N N N 0 0 0 0 0 0 0 0 0 B B N N N N 0 7 0 0 0 7 0 0 7 ; X 4X4X4X4X4X4X4X4X",
"4X4X4X4X4X4X4X4XX 7 7 0 0 0 n 0 N B 0 N N N 0 0 0 0 0 0 0 0 0 0 0 0 0 0 0 N N N 0 N 0 0 0 0 0 0 0 0 , X 4X4X4X4X4X4X4X4X",
"4X4X4X4X4X4X4XX : 7 0 0 0 0 0 0 N 0 N B 0 0 0 0 0 7 0 0 8 0 7 0 0 0 0 0 0 0 0 0 0 0 0 0 0 0 0 0 h n 7 ; . 4X4X4X4X4X4X4X",
"4X4X4X4X4X4X4XX , 7 7 7 0 7 0 0 0 0 0 0 0 0 0 0 0 7 7 7 7 7 7 7 7 0 8 0 0 8 0 0 0 0 0 0 0 0 0 0 0 7 7 , X 4X4X4X4X4X4X4X",
"4X4X4X4X4X4X. = 7 7 0 0 0 0 7 0 0 0 0 0 0 0 0 8 7 7 , > ; ; ; @ > > , 7 7 7 7 0 0 0 h n 0 h 0 0 0 0 7 7 @ . 4X4X4X4X4X4X",
"4X4X4X4X4X4X. > 7 7 0 7 0 0 7 0 0 0 0 0 7 7 7 , ; X @ # & w w q $ # X = ; , 7 7 0 0 0 0 0 0 0 0 0 0 7 7 : . 4X4X4X4X4X4X",
"4X4X4X4X4X4X. , , 7 0 0 0 7 0 0 0 0 7 0 7 , O + & e d ` ` ` ] ] ] d a w # X ; , 7 7 7 0 0 0 0 0 7 8 7 7 , . 4X4X4X4X4X4X",
"4X4X4X4X4X4XX , 7 7 0 0 0 7 7 0 0 7 0 , @ X   & a / _ | X.0.X.o. . ._ ~ p q . . : 2 7 0 0 0 h h 0 0 7 7 7 X 4X4X4X4X4X4X",
"4X4X4X4X4X. ; 7 7 7 0 0 7 0 0 0 7 7 , X 3 F j O q ^ } _ } ....O.| } ( ~ e + < j @ ; , 7 7 7 0 n 7 0 7 7 , X 4X4X4X4X4X4X",
"4X4X4X4X4X. ; , 7 7 7 7 7 7 7 7 7 , X V V.A.Z.P # q ) ' ( ( ( ( ( ~ q % : z ;.n.L > @ 7 7 7 8 0 0 7 7 7 7 ; . 4X4X4X4X4X",
"4X4X4X4X4X. ; , 7 0 0 7 7 7 0 7 : O G C.[.#X@X{.;.3 & r ~ ~ ^ ( r & 3 J n.S.OX|.Z.*.1 X 7 7 7 0 0 7 7 7 7 = . 4X4X4X4X4X",
"4X4X4X4X4XX ; 7 1 7 7 7 7 0 7 1 O Z C.'.OXOX$X$X}.2.C < O % % + % t 2.[.}.+X&X$X.XS.2.1 ; 7 7 0 7 0 7 7 7 ; . 4X4X4X4X4X",
"4X4X4X4X4X. : , 7 7 7 7 0 7 1 = t V.'.OX#X#X$X$X#X|.S.2.*.L J L 2.Z..X#X&X+X#X$X$X|.A.*.O , 7 7 7 7 7 7 , : X 4X4X4X4X4X",
"4X4X4X4X4XX ; 7 7 7 7 7 7 7 : O 2./.oX$X$X$X$X$X$X$XOX}.[.'.'.'.}.OX#X#X&X+X#X&X&X#X[.C.l X , 7 7 7 7 , 7 : . 4X4X4X4X4X",
"4X4X4X4X4X. ; , 7 7 7 7 , 7 X z &.:.>.K.P.OX&X$X$X$XOX$X#X#XOXOX$X&X&X#X#X&X&XP.K.,.>.>.=.@ > 7 7 , 7 , 7 ; . 4X4X4X4X4X",
"4X4X4X4X4X. @ 7 7 7 7 7 7 , O c ^ @.@.^ ^ b.OX&X$X$X$X$X#X&X&X#X&X$X$X&X&X@XJ.@.^ @.@.^ +.u = 7 7 7 7 , 2 = . 4X4X4X4X4X",
"4X4X4X4X4X4X= , 7 7 7 7 7 ; & %.F.L.D.B.,.%.%.J.$X&X$X$X#X&X&X#X#X#X*X&XP.>.%.>.B.D.S.L.&.x @ 7 7 7 , 7 , = . 4X4X4X4X4X",
"4X4X4X4X4X4XX , 7 7 7 7 2 = V -.y t 8 , t G ,.>.K.oXOX$X#X&X#X&XOXOXoXJ.>.,.J j 2 2 9 f L -.@ , 7 7 7 , , @ 4X4X4X4X4X4X",
"4X4X4X4X4X4X. , , 7 7 , , = F j S _.E b 6 = : L J.J.{.#X&X#X#X&X&XoXJ.J.<.1 = - b Y _.Q 2 <.: , 7 , 7 7 , X 4X4X4X4X4X4X",
"4X4X4X4X4X4Xo ; 7 , 7 7 , @ L 9 !.,XU m O 6 b , D  X*X#X#X*X@XOX$X&XOX*., b 5 O 5 M `.`.8 -.> , 0 7 , , ; X 4X4X4X4X4X4X",
"4X4X4X4X4X4X4XX , 7 7 7 , @ I 8 !.:XU m O 5 M ).B J +X@X&X&X#X+X$X#X2.y !.U b X 6 M _.`.8 P > > 7 7 , 7 @ . 4X4X4X4X4X4X",
"4X4X4X4X4X4X4X. ; 7 , 7 , @ I t 1.1XT.M m m Y 1XQ.3 |.&X&X#X&X&X&X#Xl Q 3XQ m m m T.,XQ.2 -.; , 7 , 7 , X 4X4X4X4X4X4X4X",
"4X4X4X4X4X4X4XX = , 7 2 , O D F N ;X,X).T.W.;X,XS G #X&X$X$X#X+X$X&X<.N ;X>X~.T.W.:X<XK z P @ 7 7 7 , ; X 4X4X4X4X4X4X4X",
"4X4X4X4X4X4X4X4XX : , 7 7 ; 3 n.8 T ;X<X<X<X>XQ 4 [.*X#X$X$X#X+X#X&X|.z S ;X<X<X<X:XT.2 n.l @ 7 , 7 , X 4X4X4X4X4X4X4X4X",
"4X4X4X4X4X4X4X4X4XX , , 7 , @ 2.Z.t y Q E.Q N t A.&X*X$X$X$X$X$X#X*X&X].z 0 Q E.T.B u M.m.> > 7 7 , @ . 4X4X4X4X4X4X4X4X",
"4X4X4X4X4X4X4X4X4X. ; 7 , , O g '.|.2.Z y V <.|.*X@XM.Z Z M./.I V 2.+X*X Xm.D j l *.].|.l @ 2 7 7 : . 4X4X4X4X4X4X4X4X4X",
"4X4X4X4X4X4X4X4X4X4X. : , 7 , X L |.#X#X@X$X*X*X|.G $ s i ; , w s % Z |.*X*X*X@X#X*X XP = , , 7 > X 4X4X4X4X4X4X4X4X4X4X",
"4X4X4X4X4X4X4X4X4X4X4X. : , 7 = @ V 1.V.|. X|.M.9 3 5.j.y.6.v f.z.5.* f m.[.|.].Z.-.g O @ , 7 > X . 4X4X4X4X4X4X4X4X4X4X",
"4X4X4X4X4X4X4X4X4X4X4X4X. = , , X . # # 2 8 1 $ v G.U.r.r.I.s.f.I.l.5.s $ < < < < * . X , , : X X 4X4X4X4X4X4X4X4X4X4X4X",
"4X4X4X4X4X4X4X4X4X4X4X4X4XX @ : > X { G.7.#.6.5.v.v.s.4.#.#.#.7.G.Y.Y.l.p.7.{ 8.8.{ X > > @ . 4X4X4X4X4X4X4X4X4X4X4X4X4X",
"4X4X4X4X4X4X4X4X4X4X4X4X4X4X. X X O d i.g.a.w.e.s.k.y.c.g.g.r.v.z.c.U.l.s.d.9.4. .e . X X . 4X4X4X4X4X4X4X4X4X4X4X4X4X4X",
"4X4X4X4X4X4X4X4X4X4X4X4X4X4X4X4X  o + & ~ ..3.3.a.r.t.x.I.x.r.y.y.e.q.q.o.X...w %     4X4X4X4X4X4X4X4X4X4X4X4X4X4X4X4X4X",
"4X4X4X4X4X4X4X4X4X4X4X4X4X4X4X4X4Xo o X & a e d 4.9.q.i.o.4.9.k.q.3.9.o.) w w O X o 4X4X4X4X4X4X4X4X4X4X4X4X4X4X4X4X4X4X",
"4X4X4X4X4X4X4X4X4X4X4X4X4X4X4X4X4X. ; 0 : O X # p 3.s.I.X.| f.x.q.9.o.p $ X o , N : . 4X4X4X4X4X4X4X4X4X4X4X4X4X4X4X4X4X",
"4X4X4X4X4X4X4X4X4X4X4X4X4X4X4X4X4X. 1 B , X N : # } u.H.a.4.a.9. .o.| $ ; y ; , A y @ . 4X4X4X4X4X4X4X4X4X4X4X4X4X4X4X4X",
"4X4X4X4X4X4X4X4X4X4X4X4X4X4X4X4Xo ; 0 N X , B N X e ..o.3.q.0.X. .' w @ 0 A 7 @ N B 7 X 4X4X4X4X4X4X4X4X4X4X4X4X4X4X4X4X",
"4X4X4X4X4X4X4X4X4X4X4X4X4X4X4X4X. , 0 7 X N A B , # r e ' o.0.9.| r X , N A N O 8 N 0 : . 4X4X4X4X4X4X4X4X4X4X4X4X4X4X4X",
"4X4X4X4X4X4X4X4X4X4X4X4X4X4X4XX ; X : ; : A A 0 7 X X X r a p ~ q . X 8 N B A , < n 7 : . . 4X4X4X4X4X4X4X4X4X4X4X4X4X4X",
"4X4X4X4X4X4X4X4X4X4X4X4X4X4Xo C (.1.h X 7 A B N 0 O 2 , X $ > O @ : X 7 n B A 0 O : X 1 L D O 4X4X4X4X4X4X4X4X4X4X4X4X4X",
"4X4X4X4X4X4X4X4X4X4X4X4X4X4X. M.2X=XXX: 0 B N 0 7 X 2 f @ ;.2.@ h 9 X 7 h k B N = 7 R XXOX'.u 4X4X4X4X4X4X4X4X4X4X4X4X4X",
"4X4X4X4X4X4X4X4X4X4X4X4X4X4XX M.-X=X/.; N A N 8 2 X < k > L D : k 4 X , 0 y B B ; 2.2X=X*X.XV o 4X4X4X4X4X4X4X4X4X4X4X4X",
"4X4X4X4X4X4X4X4X4X4X4X4X4X4Xo D +X*XN.; B B N 0 , X 2 k 9 @ @ 4 f 4 X , 0 0 B B ; <.*X-X#X].y 4X4X4X4X4X4X4X4X4X4X4X4X4X",
"4X4X4X4X4X4X4X4X4X4X4X4X4X4X4XO P .X-.; B B 0 7 , = 2 f h O X f 4 9 @ : 0 0 B A > L #X#XOX;.O 4X4X4X4X4X4X4X4X4X4X4X4X4X",
"4X4X4X4X4X4X4X4X4X4X4X4X4X4X4X4XX t 3 , B N y 0 , X X O @ X . @ @ # X , 7 0 0 A 7 j S.S.*.< 4X4X4X4X4X4X4X4X4X4X4X4X4X4X",
"4X4X4X4X4X4X4X4X4X4X4X4X4X4X4X4X4X4Xo , B 0 n 7 , X 9 B 8 h k 4 : h @ > 0 0 N B 7 X > < X 4X4X4X4X4X4X4X4X4X4X4X4X4X4X4X",
"4X4X4X4X4X4X4X4X4X4X4X4X4X4X4X4X4X4X. : N 0 k 0 1 @ 1.R ! N.^.K K K ; , 7 0 0 0 7 . 4X4X4X4X4X4X4X4X4X4X4X4X4X4X4X4X4X4X",
"4X4X4X4X4X4X4X4X4X4X4X4X4X4X4X4X4X4X. ; 0 0 7 7 7 X 2 V R G C H N.j X , 7 8 0 0 , o 4X4X4X4X4X4X4X4X4X4X4X4X4X4X4X4X4X4X",
"4X4X4X4X4X4X4X4X4X4X4X4X4X4X4X4X4X4XX @ 7 7 7 7 , @ O > : @ X > 2 > X , 7 7 7 7 : . 4X4X4X4X4X4X4X4X4X4X4X4X4X4X4X4X4X4X",
"4X4X4X4X4X4X4X4X4X4X4X4X4X4X4X4X4X4X4XX : , 7 1 7 ; X X . . . . . . @ 7 7 7 , , O . 4X4X4X4X4X4X4X4X4X4X4X4X4X4X4X4X4X4X",
"4X4X4X4X4X4X4X4X4X4X4X4X4X4X4X4X4X4X4X. . X ; @ ; X O @ X 4X4XX @ 4 X @ @ = @ X . 4X4X4X4X4X4X4X4X4X4X4X4X4X4X4X4X4X4X4X",
"4X4X4X4X4X4X4X4X4X4X4X4X4X4X4X4X4X4X4X4XX . @ 4 f f > X X 4X4XX 2 4 2 $ > $ @ . 4X4X4X4X4X4X4X4X4X4X4X4X4X4X4X4X4X4X4X4X",
"4X4X4X4X4X4X4X4X4X4X4X4X4X4X4X4X4X4X4X4X. @ 4 k f f h 2 X 4X4XX @ @ @ @ @ @ X X 4X4X4X4X4X4X4X4X4X4X4X4X4X4X4X4X4X4X4X4X",
"4X4X4X4X4X4X4X4X4X4X4X4X4X4X4X4X4X4X4X4XX @ < > < > < > X 4X4XX X . . . o X 4X4X4X4X4X4X4X4X4X4X4X4X4X4X4X4X4X4X4X4X4X4X",
"4X4X4X4X4X4X4X4X4X4X4X4X4X4X4X4X4X4X4X4XX . X X X X X X X 4X4X4X4X4X4X4X4X4X4X4X4X4X4X4X4X4X4X4X4X4X4X4X4X4X4X4X4X4X4X4X",
"4X4X4X4X4X4X4X4X4X4X4X4X4X4X4X4X4X4X4X4X4X4X4X4X4X4X4X4X4X4X4X4X4X4X4X4X4X4X4X4X4X4X4X4X4X4X4X4X4X4X4X4X4X4X4X4X4X4X4X4X",
"4X4X4X4X4X4X4X4X4X4X4X4X4X4X4X4X4X4X4X4X4X4X4X4X4X4X4X4X4X4X4X4X4X4X4X4X4X4X4X4X4X4X4X4X4X4X4X4X4X4X4X4X4X4X4X4X4X4X4X4X",
"4X4X4X4X4X4X4X4X4X4X4X4X4X4X4X4X4X4X4X4X4X4X4X4X4X4X4X4X4X4X4X4X4X4X4X4X4X4X4X4X4X4X4X4X4X4X4X4X4X4X4X4X4X4X4X4X4X4X4X4X",
"4X4X4X4X4X4X4X4X4X4X4X4X4X4X4X4X4X4X4X4X4X4X4X4X4X4X4X4X4X4X4X4X4X4X4X4X4X4X4X4X4X4X4X4X4X4X4X4X4X4X4X4X4X4X4X4X4X4X4X4X"
};
