/* XPM */
static xpm_row_t const p1_front_1[] = {
/* columns rows colors chars-per-pixel */
"60 90 214 2 ",
"   c #161514",
".  c #191714",
"X  c #1A1917",
"o  c #1C1B19",
"O  c #171817",
"+  c #231D16",
"@  c #211E1C",
"#  c #231917",
"$  c #2C2317",
"%  c #22211E",
"&  c #2A2418",
"*  c #342D16",
"=  c #3D2917",
"-  c #342618",
";  c #38331D",
":  c #1D1F24",
">  c #221C24",
",  c #1F2029",
"<  c #252423",
"1  c #292622",
"2  c #2B2925",
"3  c #22222E",
"4  c #2C2C2C",
"5  c #322E2B",
"6  c #342E26",
"7  c #33322C",
"8  c #3B342D",
"9  c #39392F",
"0  c #3C3722",
"q  c #272632",
"w  c #333333",
"e  c #3A3734",
"r  c #3D3B32",
"t  c #3B3B3B",
"y  c #303139",
"u  c #402D16",
"i  c #473518",
"p  c #563817",
"a  c #613C17",
"s  c #433C34",
"d  c #433F3B",
"f  c #4E4218",
"g  c #5B4717",
"h  c #6C4419",
"j  c #6A4617",
"k  c #784916",
"l  c #7C5415",
"z  c #6C5816",
"x  c #414135",
"c  c #4A4036",
"v  c #474739",
"b  c #4C443B",
"n  c #4C4C3D",
"m  c #54493D",
"M  c #53473B",
"N  c #524923",
"B  c #6E532F",
"V  c #7D6B29",
"C  c #2B2D47",
"Z  c #2E3457",
"A  c #32385A",
"S  c #2C314C",
"D  c #323A62",
"F  c #3B4268",
"G  c #434343",
"H  c #4C4C4C",
"J  c #494A46",
"K  c #544C44",
"L  c #5A4E42",
"P  c #5B5147",
"I  c #535353",
"U  c #5A5A5A",
"Y  c #625446",
"T  c #67594A",
"R  c #6B5C4C",
"E  c #635749",
"W  c #665C52",
"Q  c #745F49",
"!  c #72614F",
"~  c #6D6153",
"^  c #746452",
"/  c #7A6957",
"(  c #444967",
")  c #50546B",
"_  c #5F6379",
"`  c #676767",
"'  c #7C7B7B",
"]  c #894E18",
"[  c #874C16",
"{  c #885317",
"}  c #925519",
"|  c #955919",
" . c #9A5C19",
".. c #85680F",
"X. c #916F0F",
"o. c #976317",
"O. c #8E6C16",
"+. c #A36319",
"@. c #AA6A1A",
"#. c #A56918",
"$. c #AD7217",
"%. c #A97614",
"&. c #BE7B1A",
"*. c #B47818",
"=. c #B16F1A",
"-. c #8F5827",
";. c #99602D",
":. c #9C6635",
">. c #9C7A2B",
",. c #A26B3A",
"<. c #C17E1B",
"1. c #85725D",
"2. c #8C755E",
"3. c #947250",
"4. c #AC7848",
"5. c #AC794A",
"6. c #8E7A63",
"7. c #867766",
"8. c #937D66",
"9. c #967E66",
"0. c #BA8816",
"q. c #AE9118",
"w. c #9B842D",
"e. c #B1902E",
"r. c #C48B16",
"t. c #C2831B",
"y. c #C38818",
"u. c #CB9618",
"i. c #D19818",
"p. c #D7A817",
"a. c #D8B31D",
"s. c #E4BA18",
"d. c #C68F23",
"f. c #C59424",
"g. c #C99937",
"h. c #D9AB27",
"j. c #C4A93B",
"k. c #DDB737",
"l. c #D2AA2B",
"z. c #E4BB25",
"x. c #E5BB35",
"c. c #F0C91A",
"v. c #F6D126",
"b. c #EAC53A",
"n. c #F3CD34",
"m. c #F9D537",
"M. c #EFC725",
"N. c #B78557",
"B. c #AD8259",
"V. c #9B836B",
"C. c #99836A",
"Z. c #9A8B7B",
"A. c #A1896E",
"S. c #AC8865",
"D. c #A98F74",
"F. c #AC9276",
"G. c #AA9377",
"H. c #B1967A",
"J. c #B59A7D",
"K. c #BA9D7F",
"L. c #BB8F65",
"P. c #CAAE41",
"I. c #DDBD45",
"U. c #C39467",
"Y. c #CA9D72",
"T. c #CDA177",
"R. c #D3A87D",
"E. c #E9C643",
"W. c #F1CE44",
"Q. c #F8D549",
"!. c #F9D855",
"~. c #6A6E82",
"^. c #8A8A8A",
"/. c #838694",
"(. c #94959B",
"). c #AC9C8D",
"_. c #BB9E80",
"`. c #BDA183",
"'. c #B6A396",
"]. c #9698A2",
"[. c #A4A4A5",
"{. c #B8B8BA",
"}. c #C4A585",
"|. c #CBAC8B",
" X c #C9A988",
".X c #D4AC86",
"XX c #D8B28B",
"oX c #DAB693",
"OX c #DCBA96",
"+X c #D9B895",
"@X c #C9AE92",
"#X c #E3BE9A",
"$X c #E2BA92",
"%X c #CCB7A8",
"&X c #E3C19C",
"*X c #E9C39E",
"=X c #ECC6A1",
"-X c #EFC9A3",
";X c #E8C7A9",
":X c #F0CBA5",
">X c #F1CEAA",
",X c #ECCEB6",
"<X c #F2D2B6",
"1X c #F1D0AF",
"2X c #BCBDC2",
"3X c #CCCCCE",
"4X c #C3C4C5",
"5X c #D4D4D5",
"6X c #DADADB",
"7X c #D6D6D8",
"8X c #CCCDD0",
"9X c #F8DBC4",
"0X c #E1E1E2",
"qX c #00B140",
/* pixels */
"qXqXqXqXqXqXqXqXqXqXqXqXqXqXqXqXqXqXqXqXqXqXqXqXqXqXqXqXqXqXqXqXqXqXqXqXqXqXqXqXqXqXqXqXqXqXqXqXqXqXqXqXqXqXqXqXqXqXqXqX",
"qXqXqXqXqXqXqXqXqXqXqXqXqXqXqXqXqXqXqXqXqXqXqXqXqXqXqXqXqXqXqXqXqXqXqXqXqXqXqXqXqXqXqXqXqXqXqXqXqXqXqXqXqXqXqXqXqXqXqXqX",
"qXqXqXqXqXqXqXqXqXqXqXqXqXqXqXqXqXqXqXqXqXqXqXqXqXqXqXqXqXqXqXqXqXqXqXqXqXqXqXqXqXqXqXqXqXqXqXqXqXqXqXqXqXqXqXqXqXqXqXqX",
"qXqXqXqXqXqXqXqXqXqXqXqXqXqXqXqXqXqXqXqXqXqXqXqXqXqXqXqXqXX X qXqXqXqXqXqXqXqXqXqXqXqXqXqXqXqXqXqXqXqXqXqXqXqXqXqXqXqXqX",
"qXqXqXqXqXqXqXqXqXqXqXqXqXqXqXqXqXqXqXqXqXqXqXqXqXqXqXqXX o < o X qXqXqXqXqXqXqXqXqXqXqXqXqXqXqXqXqXqXqXqXqXqXqXqXqXqXqX",
"qXqXqXqXqXqXqXqXqXqXqXqXqXqXqXqXqXqXqXqXqXqXqXqXqXqXqXX < t I e o X qXqXqXqXqXqXqXqXqXqXqXqXqXqXqXqXqXqXqXqXqXqXqXqXqXqX",
"qXqXqXqXqXqXqXqXqXqXqXqXqXqXqXqXqXqXqXqXqXqXqXqXqXX X 4 H U U U G < X qXqXqXqXqXqXqXqXqXqXqXqXqXqXqXqXqXqXqXqXqXqXqXqXqX",
"qXqXqXqXqXqXqXqXqXqXqXqXqXqXqXqXqXqXqXqXqXqXqXqXX @ t H I U U U I H 4 X X qXqXqXqXqXqXqXqXqXqXqXqXqXqXqXqXqXqXqXqXqXqXqX",
"qXqXqXqXqXqXqXqXqXqXqXqXqXqXqXqXqXqXqXqXqXqXo X < t I H H U U U I I H w : X o qXqXqXqXqXqXqXqXqXqXqXqXqXqXqXqXqXqXqXqXqX",
"qXqXqXqXqXqXqXqXqXqXqXqXqXqXqXqXqXqXqXqXo o % 4 S H H H I U U U H H H H J 4 o X qXqXqXqXqXqXqXqXqXqXqXqXqXqXqXqXqXqXqXqX",
"qXqXqXqXqXqXqXqXqXqXqXqXqXqXqXqXqXqXo O o 4 t G P H I I I U U U I H J G J H G 4 o X qXqXqXqXqXqXqXqXqXqXqXqXqXqXqXqXqXqX",
"qXqXqXqXqXqXqXqXqXqXqXqXqXqXqXqXqXo o 2 w t G H H H H I U U U U I H H J J G J K t 4 o X qXqXqXqXqXqXqXqXqXqXqXqXqXqXqXqX",
"qXqXqXqXqXqXqXqXqXqXqXqXqXqXqXX o < w t d G H H I I H U U U U U I I H H H H G S G J t 2 X X qXqXqXqXqXqXqXqXqXqXqXqXqXqX",
"qXqXqXqXqXqXqXqXqXqXqXqXqXX X < 4 t t t G H H H H I U U U U U U U I I H H H J J d t G t 7 < o qXqXqXqXqXqXqXqXqXqXqXqXqX",
"qXqXqXqXqXqXqXqXqXqXqXqXX o 2 e t t t G H H H H I U U U U U U U U I I H H I H J J G S t t e 2 o o qXqXqXqXqXqXqXqXqXqXqX",
"qXqXqXqXqXqXqXqXqXqXqXo o 4 t t w t G H H H I U U U U U U U ` U U U U I U H H H J G K t t t t 4 o X qXqXqXqXqXqXqXqXqXqX",
"qXqXqXqXqXqXqXqXqXqXo @ w t t t t G J G H H I I U U U U U U U U U U U I I I H H H G G G t G t t w o o qXqXqXqXqXqXqXqXqX",
"qXqXqXqXqXqXqXqXqXo @ w t t t t t G G H H H I I I U U U U U U U U U U U I I I H H I J G t t t t t 4 o X qXqXqXqXqXqXqXqX",
"qXqXqXqXqXqXqXqXo @ w t w t t t G G H H I H I I U U U U U U U U I U I U U U U I I H H H G t t t x x 4 o X qXqXqXqXqXqXqX",
"qXqXqXqXqXqXqXo o 7 y t t t w t G J H H J H I I I U U U U U U U I I I I I I H H H J H H J J t t d S t 4 o o qXqXqXqXqXqX",
"qXqXqXqXqXqXo o 2 t t t y t G G G J G d S H I I H U I I I U U I I I H H H H H H G S v G G G t t t t t t < X qXqXqXqXqXqX",
"qXqXqXqXqXqXX < w t t w t G G G J v S G v J J J H H H I I I H I H H G H G H H G J G G t t G G t t t G t w < X qXqXqXqXqX",
"qXqXqXqXqXX : 7 w t t t t t t J d G J t S G J H H H J K J G J G G J H H G J G G J J J G t t t G t t r t t 4 o X qXqXqXqX",
"qXqXqXqXqXX 4 w t t t G t t G G G G G v J J G G G v t S t t t t t t d A J H H J G G J G t y t t S s t t t t 2 X qXqXqXqX",
"qXqXqXqXX < w w t t t e t G G G G x G J G t t t G t t t t t t t t t t t t t G J J t t G G t t t t t t t t t w @ o qXqXqX",
"qXqXqXqXX 4 w t t t t t t t J G S J J d t t t t t t t t t t t w t t t t t t t t G t t t t t t t t t t t t t w 2 X qXqXqX",
"qXqXqXX : 7 w t t e y t t G G t G G t t t t t t t w w t w w e w e t t t t t t w t t t t t t t t t t t t t t t 4 : o qXqX",
"qXqXqXX 2 w w w y t t t t t t t S t t t t t w t w w w w w y w 5 w w w t t t w t t t t t G t t t t t t t t w w w < o qXqX",
"qXqXX o 4 y w w t t t w w t t t s d t t w t t w w 4 2 2 < < < : < < 2 2 4 w 7 w w t t t t t t t t t t t t t y y 4 X qXqX",
"qXqXX < w w y e t t t w t t t t t t y t t w 4 4 < o X + & * * * $ & % . : < 4 4 w y t w t t t t t t t t e t t w w % X qX",
"qXqXo < w w w t t t w t t t t t t t w w 7 < % + & i z l ..X.X.X.{ l l g = + X : 2 7 w y t t t t t t t t e t t w w < o qX",
"qXqXo 4 4 w e t t t w t w t t w t w 7 2 X O & p { l o.%.%.%.*.%.#.%.o.o.{ j p $ o @ 4 7 w w y t t G t t t t w w 4 4 X qX",
"qXo o 4 7 w w t t w t t e t y t w 4 o # 8 @ . p [ | +.+.*.<.t.<.&.&.*.+.{ [ h u . % o < 4 w t w y t t t w t w w w 4 o qX",
"qXo % 4 4 w t w t w w y e t e w 4 o 2 R 1.Q 6 # p } +. . .+.@.@.#. .} } [ a =   8 ! c + % 7 w w w t t t t w t 7 w 4 @ o ",
"qXX % w y w t t w w w e t y w 1 o 8 6.H.K.}.A.s # p  .+. .} } } } } ] p + + 2 Y V.A.8.L @ o 4 w w w t t w t t w 4 w % X ",
"qXo @ w w w w t t w y e e w 2 o 8 C.J.|.*X=XoXD.K o u a [ ] ] | } k = + M 1.A.K.OX&XK.A.R < @ w w w t t t t w w w 4 % O ",
"qXo < w w w w w w w t w w 4 o 8 V.K.|.*X=X-X-XoXH.R 2 # $ - u u - # < T F.}. X#X-X:X#XK.F.^ % : w w w w t t y w 4 w < X ",
"qXX < 4 w w w w w w t w 5 : 1 6.J.}.*X*X*X-X-X-XoXK.V./ m s 8 8 s E 8.T.oX*X-X*X-X-X:X#XK.H.T X 2 w w t w w w w w 7 < o ",
"qXX < w 4 y w w w w w w 2 X R H.}.#X#X:X:X=X-X-X-X#X XK.H.F.F.F.F.J.}.#X:X-X:XoX*X-X:X:X+XK.D.s o 4 w w w w w w 4 w < O ",
"qXX < 4 7 w t w w w w w X s D.H..X-X-X:X:X-X*X-X-X-X*X#X+X.X|..X|.OX*X-X-X:X:X=X-X:X:X:X&X}.J.7.@ 2 w y w w 7 4 y 4 < o ",
"qXX < w 4 w w w e w 4 < : Q 4.3.:.N.L.R.*X:X*X:X-X-X*X=X:X-X-X$X-X:X-X-X-X-X=X-X:XXXU.U.,.4.:.3.r @ 7 w w y w 4 7 4 < o ",
"qXo o w w w w w w w w < & -.] ] ] ] [ } Y.*X:X:X:X-X-X-X-X-X-X-X-X:X-X-X:X=X:X:X.X;.[ ] ] ] [ -.B o 3 t w 4 w w 4 w @ o ",
"qXX o 4 w w w w w 4 4 o p ;.5.T.R.U.N.,.;.5.R.:X:X-X-X*X=X-X-X-X:X:X:X-X:X:X$XN.;.;.4.U.Y.T.L.:.B & < w w 7 w 4 y 4 o o ",
"qXqXo 4 4 w w w w w 4 + Q V.7.^ E E ! 2.B.4.;.U.*X:X:X-X=X-X-X-X-X#X#X:X-XR.,.,.B.3.1.Y Y T 7.9.9.6 @ t y 4 4 w w 4 o qX",
"qXqXX < w 4 w y w w < < C.M 1 H I 3 : : 2 R S.N.B.Y.$X-X-X-X:X=X-X=X$XR.N.5.L./ 8 @ : : J I w 5 S.M o w y w 7 w w 4 X qX",
"qXqXo < 4 w 7 w 4 w < 2 6.6 ~.6X(.A S 3 3 : 6 V.XXR.$X*X-X:X=X*X-X-X#X.X.XY.c > 3 3 C Z ~.7X[.1 1.E o w w w w 4 7 < X qX",
"qXqXX o 4 y 4 w w 4 : 8 1.2 ].6X_ Z q # 3 Z y 2 C.=X-X-X-X-X-X&X#X:X:X:XH.6 4 A C # > Z ( 4X4Xe R R o 4 w w 4 7 4 % o qX",
"qXqXqXX 2 4 w w w 5 % 8 / 2 [.5X_ D 3 # q D /.' * G.*X*X:X-X-X=X#X:X-X|.s I ].D C # > Z ( 4X2Xt T T o 5 w 7 y y 4 o qXqX",
"qXqXqXX < 4 y w w 4 < 5 7.& ^.6X].D Z S Z A {.6XJ m *X-X-X-X-X-X:X-X-X1.2 2X7X) Z S Z D ~.5X{.5 / L o w w 4 w y < o qXqX",
"qXqXqXqXo < w 4 4 w < < 6.8 U 8X5X/.( F ) /.6X4Xt ^ -X-X-X-X-X=X-X-X:XG.2 [.0X[.) F F ~.4X8XZ.% 6.s % w w 4 4 4 @ X qXqX",
"qXqXqXqXX < 4 w w w 2 o / ^ 2 (.7X6X4X{.8X0X8X` 6  X-X-X-X-X-X&XOX-X-X&Xn G 2X0X7X2X2X7X6X{.t b C.< 2 y 7 w w 2 X qXqXqX",
"qXqXqXqXqXo 2 w w 4 4 o m G.m 7 ^.4X5X7X5X{.` % C.:X-X-X-X-X-X-X*X:X-X*XK.7 J [.8X5X7X4X[.G 9 A.! O 7 w y 4 4 o o qXqXqX",
"qXqXqXqXqXo o 4 4 w y % 1 C. XP % J ` ` U w 7 V.-X>X:X&X&X*X-X-X&X#X-X-X:XK.v 2 H ` ` I 2 r J.G.8 @ w 4 w 4 < X qXqXqXqX",
"qXqXqXqXqXqXX < 4 w 4 2 o L }.&XG.P x s m 1.|.-X-X+X/ x r ~ J.C.c s ^ @X:X>X+XC.P x r L C.OX+XR o 4 w y 4 2 o o qXqXqXqX",
"qXqXqXqXqXqXqXo < w w w < % / XX*X:X&X&X*X>X>X-X`.s % g g + 2 % ; z & 9 J.:X>X>X=X&X&X-X>X&X6.2 % y 7 4 4 o o qXqXqXqXqX",
"qXqXqXqXqXqXqXX O < 4 7 4 o 1 ! G.`.OX-X>X*X+X7.1 * q.c.s.w.; B M.v.q.* < C.@X&X-X=X&X@XC.L % o 4 4 w 2 o o qXqXqXqXqXqX",
"qXqXqXqXqXqXqXqXX o < 4 w < o O < 2 b ~ ^ R x o N P.m.M.c.Q.b.b.!.Q.v.q.; . 0 m T P x q @ O O < 4 w 2 o X qXqXqXqXqXqXqX",
"qXqXqXqXqXqXqXqXqXX X < 2 4 < X f z N ; * 6 f w.I.Q.E.0.q.j.j.e.e.P.m.m.a.w.g i * ; N O.g o < 7 4 < X o qXqXqXqXqXqXqXqX",
"qXqXqXqXqXqXqXqXqXqXo o o < < o g k.!.I.l.l.a.v.n.z.a.i.e.O.>.w.j.b.!.!.!.n.Q.I.u.p.h.y.g o 2 < o X qXqXqXqXqXqXqXqXqXqX",
"qXqXqXqXqXqXqXqXqXqXqXX O o o o p { g.l.u.r.i.u.z.s.M.m.W.x.b.h.m.v.m.Q.m.c.i.e.*.q.#.k * O O O X qXqXqXqXqXqXqXqXqXqXqX",
"qXqXqXqXqXqXqXqXqXqXqXqXqXqXO . #   a } *.y.y.d.x.p.s.n.W.W.k.p.s.p.i.u.u.r.$.r.&.g & X     qXqXqXqXqXqXqXqXqXqXqXqXqXqX",
"qXqXqXqXqXqXqXqXqXqXqXqXqXqXqX    O + p } j h t.u.u.d.d.0.r.0.p.s.u.&.u.0.&.| p p - o O   qXqXqXqXqXqXqXqXqXqXqXqXqXqXqX",
"qXqXqXqXqXqXqXqXqXqXqXqXqXqXqXqXX < 4 o & X + l +.i.h.k.$.+.0.E.c.p.r.0.o.j *   X o 4 4 O qXqXqXqXqXqXqXqXqXqXqXqXqXqXqX",
"qXqXqXqXqXqXqXqXqXqXqXqXqXqXqXX o G I 4 X 2 < o h <.x.Q.h.*.0.W.u.0.y.<.{ o % 2 o w H J < X qXqXqXqXqXqXqXqXqXqXqXqXqXqX",
"qXqXqXqXqXqXqXqXqXqXqXqXqXqXqXX 4 H H < o G t X i @.<.d.h.i.u.t.&.#.@.#.i O w H > < H H t : X qXqXqXqXqXqXqXqXqXqXqXqXqX",
"qXqXqXqXqXqXqXqXqXqXqXqXqXqXX < t H t X 4 H I 4 o h 0.@.=.t.u.r.0.*.+.p o 2 J I w o t H d 4 X qXqXqXqXqXqXqXqXqXqXqXqXqX",
"qXqXqXqXqXqXqXqXqXqXqXqXqXX o 7 S J 2 X t I I t @ - a i | =.<.y.r.#.j % < t H I J @ 1 G d w > X qXqXqXqXqXqXqXqXqXqXqXqX",
"qXqXqXqXqXqXqXqXqXqXqXqXqXX : w x t @ < H I H t 4 O o X p ] k [ } i . o 4 t J I I 4 : e t w < . X qXqXqXqXqXqXqXqXqXqXqX",
"qXqXqXqXqXqXqXqXqXqXqXqXX 5 : X 2 4 o w I I G t 7 o 7 1 % - X # $ o o o 2 t G I I S X 4 4 X o r 2 X qXqXqXqXqXqXqXqXqXqX",
"qXqXqXqXqXqXqXqXqXqXqX. b %X'.W 2 X o d I H J t 4 o x 9 o r 8.P o 9 x % < t G J I P < X @ J V.|.V.1 qXqXqXqXqXqXqXqXqXqX",
"qXqXqXqXqXqXqXqXqXqXqX# Z.9X9X,X@Xb @ J I G S e 4 o 7 c @ ^ *X^ @ n n @ < w t G H H 2 6 ).9X,X#X.XL O qXqXqXqXqXqXqXqXqX",
"qXqXqXqXqXqXqXqXqXqXqX@ J.1X,X,X,XL < H H G x t 2 o 7 n 7 r `.8 2 J 9 % < w t G H I 7 r ;X<X,X=XoXR O qXqXqXqXqXqXqXqXqX",
"qXqXqXqXqXqXqXqXqXqXqXo 8.>X>X>X&Xs 4 P H G t t < o 9 v x % n o x x 9 < @ w t t J I t 6 |.1X>X*X Xs o qXqXqXqXqXqXqXqXqX",
"qXqXqXqXqXqXqXqXqXqXqX. s XX-X-X|.5 7 I H t t w 2 o 9 v n % o % x 9 x & @ w t t G I d @ J.:X=XoX9.# qXqXqXqXqXqXqXqXqXqX",
"qXqXqXqXqXqXqXqXqXqXqXqXX L }.oX_.1 x I J t t w < o 7 9 v 2 X 2 9 9 r 2 % y t G G I J : 9.$X|.9.6 X qXqXqXqXqXqXqXqXqXqX",
"qXqXqXqXqXqXqXqXqXqXqXqXqX. 5 Y L o S I G t t w < o o o o o X o % o o X % 4 w t t H H @ s E M % X qXqXqXqXqXqXqXqXqXqXqX",
"qXqXqXqXqXqXqXqXqXqXqXqXqXqXX O X o t H t S v w < o e d 9 8 t r 8 < v 1 o w t G t K K @ O O O qXqXqXqXqXqXqXqXqXqXqXqXqX",
"qXqXqXqXqXqXqXqXqXqXqXqXqXqXqXqXqXo w G t t t 8 2 1 Z.Z.W Z.).).W L 7.t @ w w t t S t < o qXqXqXqXqXqXqXqXqXqXqXqXqXqXqX",
"qXqXqXqXqXqXqXqXqXqXqXqXqXqXqXqXqXo w t t y t w 1 o P H 7.7.! ^ ~ ^.K < < w w t t t t < qXqXqXqXqXqXqXqXqXqXqXqXqXqXqXqX",
"qXqXqXqXqXqXqXqXqXqXqXqXqXqXqXqXqXo 4 t t w e w 4 o < b P v 4 4 P ~ P o % w t w w t w o qXqXqXqXqXqXqXqXqXqXqXqXqXqXqXqX",
"qXqXqXqXqXqXqXqXqXqXqXqXqXqXqXqXqXo < w w 7 4 y w o o o o O O o o o o X 2 w w 4 w w 4 % qXqXqXqXqXqXqXqXqXqXqXqXqXqXqXqX",
"qXqXqXqXqXqXqXqXqXqXqXqXqXqXqXqXqXX o 2 5 w w w 7 o o o o o qXX o o o o 4 9 w w 4 4 2 o qXqXqXqXqXqXqXqXqXqXqXqXqXqXqXqX",
"qXqXqXqXqXqXqXqXqXqXqXqXqXqXqXqXqXqXX o % % % % o o o o o qXqXqXo o o + @ % % % % o O qXqXqXqXqXqXqXqXqXqXqXqXqXqXqXqXqX",
"qXqXqXqXqXqXqXqXqXqXqXqXqXqXqXqXqXqXqXX o 2 2 2 7 v x < o qXqXqXo % 9 v 9 4 2 2 o o qXqXqXqXqXqXqXqXqXqXqXqXqXqXqXqXqXqX",
"qXqXqXqXqXqXqXqXqXqXqXqXqXqXqXqXqXqXqXX < e r x r r x 9 o o qXqXo 7 x x r x r 9 % o qXqXqXqXqXqXqXqXqXqXqXqXqXqXqXqXqXqX",
"qXqXqXqXqXqXqXqXqXqXqXqXqXqXqXqXqXqXqXo % 2 2 2 2 & 2 2 o o qXo o 2 2 2 2 % 2 1 % o qXqXqXqXqXqXqXqXqXqXqXqXqXqXqXqXqXqX",
"qXqXqXqXqXqXqXqXqXqXqXqXqXqXqXqXqXqXqXX X X X o o o o X o o qXo o o o o X o o o o o qXqXqXqXqXqXqXqXqXqXqXqXqXqXqXqXqXqX",
"qXqXqXqXqXqXqXqXqXqXqXqXqXqXqXqXqXqXqXqXqXqXqXqXqXqXqXqXqXqXqXqXqXqXqXqXqXqXqXqXqXqXqXqXqXqXqXqXqXqXqXqXqXqXqXqXqXqXqXqX",
"qXqXqXqXqXqXqXqXqXqXqXqXqXqXqXqXqXqXqXqXqXqXqXqXqXqXqXqXqXqXqXqXqXqXqXqXqXqXqXqXqXqXqXqXqXqXqXqXqXqXqXqXqXqXqXqXqXqXqXqX",
"qXqXqXqXqXqXqXqXqXqXqXqXqXqXqXqXqXqXqXqXqXqXqXqXqXqXqXqXqXqXqXqXqXqXqXqXqXqXqXqXqXqXqXqXqXqXqXqXqXqXqXqXqXqXqXqXqXqXqXqX"
};
