/* XPM */
static xpm_row_t const p1_front_1[] = {
/* columns rows colors chars-per-pixel */
"60 80 214 2 ",
"   c #151513",
".  c #1A1917",
"X  c #1D1C1A",
"o  c #191715",
"O  c #211F1B",
"+  c #241B16",
"@  c #1F201F",
"#  c #23211E",
"$  c #2A241B",
"%  c #2C261A",
"&  c #332517",
"*  c #332A17",
"=  c #352A19",
"-  c #382917",
";  c #393118",
":  c #1E1F26",
">  c #221C25",
",  c #1F222E",
"<  c #252423",
"1  c #2A2723",
"2  c #2C2B25",
"3  c #2C2C2C",
"4  c #322E2B",
"5  c #312D25",
"6  c #33322C",
"7  c #3A342D",
"8  c #3A382E",
"9  c #303027",
"0  c #262738",
"q  c #333333",
"w  c #3A3733",
"e  c #3D3A32",
"r  c #3B3B3B",
"t  c #373738",
"y  c #432D16",
"u  c #4B3516",
"i  c #543918",
"p  c #653D16",
"a  c #40372D",
"s  c #423B33",
"d  c #453E37",
"f  c #5A3F25",
"g  c #564616",
"h  c #6C4318",
"j  c #684618",
"k  c #7A4B17",
"l  c #775714",
"z  c #444237",
"x  c #454439",
"c  c #4B4339",
"v  c #4A483B",
"b  c #544A3E",
"n  c #54483C",
"m  c #5C5127",
"M  c #7D6A25",
"N  c #704B29",
"B  c #292C46",
"V  c #2C3357",
"C  c #303657",
"Z  c #363E63",
"A  c #3C4364",
"S  c #444444",
"D  c #4C4C4C",
"F  c #4A4844",
"G  c #554C42",
"H  c #5D5143",
"J  c #59534C",
"K  c #535353",
"L  c #5A5A5A",
"P  c #484B5A",
"I  c #625545",
"U  c #635648",
"Y  c #695B4B",
"T  c #665848",
"R  c #6A5F53",
"E  c #675E55",
"W  c #716252",
"Q  c #7B6A56",
"!  c #7E6D59",
"~  c #78695A",
"^  c #6F6050",
"/  c #444A68",
"(  c #525876",
")  c #565A6D",
"_  c #6D6D6E",
"`  c #6F6F70",
"'  c #776C61",
"]  c #63677D",
"[  c #777776",
"{  c #7F7062",
"}  c #854D18",
"|  c #8A4E19",
" . c #8D521B",
".. c #885816",
"X. c #945619",
"o. c #975A19",
"O. c #9B5F17",
"+. c #876D1B",
"@. c #996716",
"#. c #926F0F",
"$. c #A26219",
"%. c #AC6C1A",
"&. c #A66C18",
"*. c #AB7216",
"=. c #AC7219",
"-. c #B57419",
";. c #BB7A19",
":. c #B57A18",
">. c #945B27",
",. c #8E5D31",
"<. c #88732A",
"1. c #987B25",
"2. c #9D6635",
"3. c #997F33",
"4. c #A46E3D",
"5. c #836C54",
"6. c #866F5A",
"7. c #85725C",
"8. c #8D735A",
"9. c #A97748",
"0. c #A57D58",
"q. c #8B7661",
"w. c #8B7A67",
"e. c #917C65",
"r. c #977F68",
"t. c #BB8315",
"y. c #B88C18",
"u. c #AB911A",
"i. c #978335",
"p. c #B0942E",
"a. c #BDA12B",
"s. c #C48A16",
"d. c #C48A19",
"f. c #C99616",
"g. c #D39D18",
"h. c #DBAA1A",
"j. c #DAB21B",
"k. c #E4B81A",
"l. c #C79324",
"z. c #D1992A",
"x. c #D7A926",
"c. c #D8B438",
"v. c #D4A832",
"b. c #E5BB27",
"n. c #E3B83C",
"m. c #F0CA1D",
"M. c #F7D22A",
"N. c #EAC536",
"B. c #F1CA3A",
"V. c #F0CB2B",
"C. c #AB835B",
"Z. c #B5865A",
"A. c #9A836C",
"S. c #97816A",
"D. c #8E8173",
"F. c #9D8C7D",
"G. c #A2856B",
"H. c #BD9369",
"J. c #A48C73",
"K. c #AB9276",
"L. c #AD9479",
"P. c #B2967A",
"I. c #B69B7E",
"U. c #CCB042",
"Y. c #E8BF43",
"T. c #C39469",
"R. c #C59C76",
"E. c #C08F62",
"W. c #D3A77D",
"Q. c #ECCA46",
"!. c #F8D647",
"~. c #F5D34E",
"^. c #6E7285",
"/. c #7A7C86",
"(. c #676C84",
"). c #89898A",
"_. c #949495",
"`. c #99999A",
"'. c #BB9F81",
"]. c #BEA183",
"[. c #BFA895",
"{. c #A3A3A4",
"}. c #ABACB4",
"|. c #B7B7B9",
" X c #C3A485",
".X c #CCAC8B",
"XX c #C5A889",
"oX c #D6AB81",
"OX c #D8AD84",
"+X c #D9B28C",
"@X c #D4B492",
"#X c #DCBA97",
"$X c #DCBC99",
"%X c #D9B794",
"&X c #C7AC91",
"*X c #E0B78F",
"=X c #E2BE9A",
"-X c #E6BE97",
";X c #CDB4A0",
":X c #E5C19C",
">X c #E9C39E",
",X c #ECC6A1",
"<X c #EFC9A3",
"1X c #F0CBA4",
"2X c #F3CEAA",
"3X c #F3D2B6",
"4X c #F1CFAE",
"5X c #BDBEC4",
"6X c #C9CACC",
"7X c #D3D3D4",
"8X c #DADADB",
"9X c #CECFD3",
"0X c #F5D9C5",
"qX c #00b140",
/* pixels */
"qXqXqXqXqXqXqXqXqXqXqXqXqXqXqXqXqXqXqXqXqXqXqXqXqXqXqXqXqXqXqXqXqXqXqXqXqXqXqXqXqXqXqXqXqXqXqXqXqXqXqXqXqXqXqXqXqXqXqXqX",
"qXqXqXqXqXqXqXqXqXqXqXqXqXqXqXqXqXqXqXqXqXqXqXqXqXqXqXqXqXqXqXqXqXqXqXqXqXqXqXqXqXqXqXqXqXqXqXqXqXqXqXqXqXqXqXqXqXqXqXqX",
"qXqXqXqXqXqXqXqXqXqXqXqXqXqXqXqXqXqXqXqXqXqXqXqXqXqXqXqXqXqXqXqXqXqXqXqXqXqXqXqXqXqXqXqXqXqXqXqXqXqXqXqXqXqXqXqXqXqXqXqX",
"qXqXqXqXqXqXqXqXqXqXqXqXqXqXqXqXqXqXqXqXqXqXqXqXqXqXqXqXqXqXqXqXqXqXqXqXqXqXqXqXqXqXqXqXqXqXqXqXqXqXqXqXqXqXqXqXqXqXqXqX",
"qXqXqXqXqXqXqXqXqXqXqXqXqXqXqXqXqXqXqXqXqXqXqXqXqXqXqXqXqX. . qXqXqXqXqXqXqXqXqXqXqXqXqXqXqXqXqXqXqXqXqXqXqXqXqXqXqXqXqX",
"qXqXqXqXqXqXqXqXqXqXqXqXqXqXqXqXqXqXqXqXqXqXqXqXqXqXqXqXX < < X qXqXqXqXqXqXqXqXqXqXqXqXqXqXqXqXqXqXqXqXqXqXqXqXqXqXqXqX",
"qXqXqXqXqXqXqXqXqXqXqXqXqXqXqXqXqXqXqXqXqXqXqXqXqXqX. X q K D 3 . qXqXqXqXqXqXqXqXqXqXqXqXqXqXqXqXqXqXqXqXqXqXqXqXqXqXqX",
"qXqXqXqXqXqXqXqXqXqXqXqXqXqXqXqXqXqXqXqXqXqXqXqXqX. < r K L L K t X . qXqXqXqXqXqXqXqXqXqXqXqXqXqXqXqXqXqXqXqXqXqXqXqXqX",
"qXqXqXqXqXqXqXqXqXqXqXqXqXqXqXqXqXqXqXqXqXqXqX. X < S K K L L K K r < . qXqXqXqXqXqXqXqXqXqXqXqXqXqXqXqXqXqXqXqXqXqXqXqX",
"qXqXqXqXqXqXqXqXqXqXqXqXqXqXqXqXqXqXqXqXqXqX. < q S K D K L L K D D F t # . qXqXqXqXqXqXqXqXqXqXqXqXqXqXqXqXqXqXqXqXqXqX",
"qXqXqXqXqXqXqXqXqXqXqXqXqXqXqXqXqXqXqXqX. : 2 r S K K D K L L K D S S D S q X . qXqXqXqXqXqXqXqXqXqXqXqXqXqXqXqXqXqXqXqX",
"qXqXqXqXqXqXqXqXqXqXqXqXqXqXqXqXqXqXX X 2 t r S D D K K L L L K D D D D S S S 3 X . qXqXqXqXqXqXqXqXqXqXqXqXqXqXqXqXqXqX",
"qXqXqXqXqXqXqXqXqXqXqXqXqXqXqXqX. X 2 q r r S D D K K K L L L L K D K D S S r S r 2 X . qXqXqXqXqXqXqXqXqXqXqXqXqXqXqXqX",
"qXqXqXqXqXqXqXqXqXqXqXqXqXqXqX. @ 9 t t S S K D K K L L L L ` L K D D D S D D r r r 6 # . qXqXqXqXqXqXqXqXqXqXqXqXqXqXqX",
"qXqXqXqXqXqXqXqXqXqXqXqXqXqXX < t r r r S D K K L L L L L L L L L K K K D D D S C r t t < X qXqXqXqXqXqXqXqXqXqXqXqXqXqX",
"qXqXqXqXqXqXqXqXqXqXqXqXqX. 2 t t r r S S D D K K L L L L L L L L L K K D D D S v d r r t 1 . qXqXqXqXqXqXqXqXqXqXqXqXqX",
"qXqXqXqXqXqXqXqXqXqXqXqXX 2 t t r r S S F D K K K L L ` L L L L L L L L K D K K D r r r r t < . qXqXqXqXqXqXqXqXqXqXqXqX",
"qXqXqXqXqXqXqXqXqXqXqX. 2 t t t t r S D D K D K K L L L L L L K L L K K K K D D D D S r r r t < X qXqXqXqXqXqXqXqXqXqXqX",
"qXqXqXqXqXqXqXqXqXqXX < t t t t r S S S S S D K K K L K L L L K K D D D K S S S S D S r r r S w < X qXqXqXqXqXqXqXqXqXqX",
"qXqXqXqXqXqXqXqXqX. @ q t r r S S S S S S r D D F D K K K K K K D D D S D D S S r r S S r r r r 9 X . qXqXqXqXqXqXqXqXqX",
"qXqXqXqXqXqXqXqXqXX 3 t r r r S r S r S S r S D D D D D S D S D D D D S S D D S S r t r S t t r r 2 X qXqXqXqXqXqXqXqXqX",
"qXqXqXqXqXqXqXqXX < q t r r r r S S S S S S S S S S r r r r r r r r S S D S S S D S t r S r t r C q < . qXqXqXqXqXqXqXqX",
"qXqXqXqXqXqXqXqXO 9 t t r r t r S D S S S S t r r r r r t r r r r r t r S S S r S S r r t r r t d t 9 X qXqXqXqXqXqXqXqX",
"qXqXqXqXqXqXqX. < q t r t t r S S S S S r r r r r r t t t t t t r r r r r r r r r r r r r r r r t r q # . qXqXqXqXqXqXqX",
"qXqXqXqXqXqXqX. 3 3 t t t r r r r r S r t r r t r t q q w q q q t t r r t t t r r x r e r r t r t t t 3 X qXqXqXqXqXqXqX",
"qXqXqXqXqXqX. < q q t t r t w t t t r r t t t t q 6 3 3 1 1 < < 2 3 3 6 q t t t t t C z r r r r t t q 3 X X qXqXqXqXqXqX",
"qXqXqXqXqXqXX < 6 q t t r t w t r r r t t t w 2 < X # $ - - ; - $ $ O # 1 3 q w t t t r r r r r r t t q < X qXqXqXqXqXqX",
"qXqXqXqXqXqXX 3 q t r t t t t r r r t t w 3 # + * y l #.#.#.#.....l j ; $ @ < 3 w t t t r x r r r t t q 2 X qXqXqXqXqXqX",
"qXqXqXqXqXqXX 3 3 t t r t t t r t t t q @ X . - k ..o.&.;.;.;.-.-.*.o.k j y   . 2 q t t t r S r t r w q 3 X qXqXqXqXqXqX",
"qXqXqXqXqX. < 3 q t t t w t t t t t 3 X 4 I d . u  .$.$.&.-.-.-.%.$.o.} i & % d # # 3 t q q t r t t q q 3 : qXqXqXqXqXqX",
"qXqXqXqXqX. < q 3 t t q t q t t q 2 X n A.L.K.W $ u O.$.o.X.o.o.o.| i & $ s 8.r.Y 1 @ 9 t q t r t t q 9 9 < . qXqXqXqXqX",
"qXqXqXqXqXX < 3 q t t q q q t q 2 O G K. X:X>X.XQ 1 - h } } | X.k - 2 T e.P.%X@XK.Q 3 @ q q t t t t q q q < . qXqXqXqXqX",
"qXqXqXqXqXX < 3 q t q q w t t 3 O n K. X-X>X1X,X.Xe.d 1 $ & - & + a e.]..X-X2X<X@X'.7.1 > q t t t t q 3 q < . qXqXqXqXqX",
"qXqXqXqXqXX < q q q q q t t 3 > a J.'.=X,X,X<X<X,X@XP.r.Q Y U Y 7.K.@X,X1X-X,X<X,X@X'.~ O 3 q q q q q q q < X qXqXqXqXqX",
"qXqXqXqXqXX < q 9 t q t q q 2 < q.'.=X,X<X<X<X,X<X<X=X.X X'.'.'..X#X<X<X<X=X<X<X1X,X].'.c O q q q q q 3 3 < X qXqXqXqXqX",
"qXqXqXqXqX. < 3 q q q q q 3 O c 0.0.Z.oX+X<X<X,X<X<X-X,X<X>X-X-X<X<X<X<X<X1X1X*XOXT.C.0.6.# 2 q q q 3 q q < . qXqXqXqXqX",
"qXqXqXqXqXX < q 3 t q q 3 3 # N |  . . . .T.<X2X<X<X<X<X1X<X,X,X<X<X<X1X1X1XoX>. . . .} ,.8 < q q 3 q 3 q < . qXqXqXqXqX",
"qXqXqXqXqXqXX 3 q q q q q < = ,.C.R.R.Z.9.2.9.OX<X1X<X<X,X<X1X<X<X<X1X2X*XZ.2.9.Z.H.R.H.2.f X q q q 3 q 3 X . qXqXqXqXqX",
"qXqXqXqXqXqXX 3 3 q q q 4 @ n e.U G d d I 5.9.9.R.-X,X<X<X<X<X1X-X-X-XW.9.9.8.T c c c I 7.5.O q t q 3 3 q X qXqXqXqXqXqX",
"qXqXqXqXqXqXX < q q q 3 4 O ^ b S _.` B < > s 8.E.E.OX,X1X1X>X1X1X*XT.E.G.d O > 0 P _.L e e.< 3 t 3 q q 3 . qXqXqXqXqXqX",
"qXqXqXqXqXqX. < q 3 q q 3 X W e _.7X( B > 0 0 > ! :X<X<X<X<X>X:X1X<X-Xr.9 0 0 > B A 5X|.6 7.2 3 q q q 3 2 . qXqXqXqXqXqX",
"qXqXqXqXqXqXqXX 3 q q q 3 > ^ 8 `.6X/ B > , Z /.x 7.>X,X<X<X>X:X1X1XK.7 /./ B + 0 Z }.|.w Q 5 2 q q 3 q < . qXqXqXqXqXqX",
"qXqXqXqXqXqXqXX < 3 q q 9 X ^ d /.7X^.V B V / 7X_.6 @X<X<X<X<X2X<X>Xn _ 8X] V B V ( 6X{.6 7.1 3 q 3 3 3 X qXqXqXqXqXqXqX",
"qXqXqXqXqXqXqX. : q 3 3 q X U H K 6X6X/.( (.}.8X[ b :X<X<X<X<X:X<X<X5.K 7X5X^.( (.|.7X_ z ~ @ q q q q < . qXqXqXqXqXqXqX",
"qXqXqXqXqXqXqXqX. < q q 3 < s e.6 [ 9X8X7X8X8X).6 P.2X<X<X<X,X=X<X1X.Xe _ 7X8X7X8X7X`.6 ! H @ q 3 q 3 X qXqXqXqXqXqXqXqX",
"qXqXqXqXqXqXqXqXX X 3 q q 2 < w.A.6 L _.{._.` 7 S.<X2X1X2X<X<X<X<X1X,XI.8 K ).{._._ q ! J.2 < q q 3 < . qXqXqXqXqXqXqXqX",
"qXqXqXqXqXqXqXqXqXX < 3 3 q X b .X].Y s w s T '.<X,XK.R W K. X! R J.,X2X.XQ s w e H K.@XT @ q q q < . qXqXqXqXqXqXqXqXqX",
"qXqXqXqXqXqXqXqXqXqXX < q 3 2 # Q %X,X#X@X#X1X2X$XW % g g 1 4 ; g = R %X2X2X:X@X#X<X:Xq.# 1 9 q 3 X qXqXqXqXqXqXqXqXqXqX",
"qXqXqXqXqXqXqXqXqXqXqXX < 3 q < < T r.I.#X:X$XL.v 2 u.m.j.<.m c.M.u.* F K..X=X+X Xe.b # : q q 2 X X qXqXqXqXqXqXqXqXqXqX",
"qXqXqXqXqXqXqXqXqXqXqXqX. < 3 3 X . % 5 s c s % m v.!.j.k.!.N.Q.Q.M.u.g % 7 8 9 9 * . X 3 3 < X . qXqXqXqXqXqXqXqXqXqXqX",
"qXqXqXqXqXqXqXqXqXqXqXqXqX. : 2 < O <.p.3.M <.u.B.B.c.y.1.3.1.p.U.!.~.V.a.i.+.i.p.+.# < 2 > . qXqXqXqXqXqXqXqXqXqXqXqXqX",
"qXqXqXqXqXqXqXqXqXqXqXqXqXqX. . X O l v.Y.x.g.h.b.k.k.B.c.c.x.B.M.!.~.M.b.v.y.f.:.i X X . . qXqXqXqXqXqXqXqXqXqXqXqXqXqX",
"qXqXqXqXqXqXqXqXqXqXqXqXqXqXqXo o . + u  .-.t.t.x.k.k.B.Q.B.x.k.k.h.h.g.:.;.-.i & o     qXqXqXqXqXqXqXqXqXqXqXqXqXqXqXqX",
"qXqXqXqXqXqXqXqXqXqXqXqXqXqXqXqXqXo   . y } g ..d.d.g.l.:.y.f.k.f.t.s.-.@.i i # .   qXqXqXqXqXqXqXqXqXqXqXqXqXqXqXqXqXqX",
"qXqXqXqXqXqXqXqXqXqXqXqXqXqXqXqXqXqX# r < # X % h t.x.n.:.*.c.b.f.s.;.h - . . 2 r < . qXqXqXqXqXqXqXqXqXqXqXqXqXqXqXqXqX",
"qXqXqXqXqXqXqXqXqXqXqXqXqXqXqXqXqXX 3 D q X t < % &.z.Y.x.y.v.l.:.;.&.- < t X t K r O qXqXqXqXqXqXqXqXqXqXqXqXqXqXqXqXqX",
"qXqXqXqXqXqXqXqXqXqXqXqXqXqXqXqX. @ r S < 1 D S X p -.:.d.f.d.;.*.$.i X t D 3 < D S 9 X qXqXqXqXqXqXqXqXqXqXqXqXqXqXqXqX",
"qXqXqXqXqXqXqXqXqXqXqXqXqXqXqXqX. q S t X t K D 3 % j j O.;.d.d.*.h + 3 D K r X t S t < . qXqXqXqXqXqXqXqXqXqXqXqXqXqXqX",
"qXqXqXqXqXqXqXqXqXqXqXqXqXqXqXo . 3 t 2 < D K S t X X + p } l ..u X O t S K K 1 1 r w < . o qXqXqXqXqXqXqXqXqXqXqXqXqXqX",
"qXqXqXqXqXqXqXqXqXqXqXqXqXqX. c E 3 X X 9 K D S t # 6 2 + > % $ X < X t r D K t : 2 X 1 H e o qXqXqXqXqXqXqXqXqXqXqXqXqX",
"qXqXqXqXqXqXqXqXqXqXqXqXqXqX1 [.0X;X{ # r K S r q : 6 e # 8.A.# z e X q r S K r X 4 ~ [.=XG.1 qXqXqXqXqXqXqXqXqXqXqXqXqX",
"qXqXqXqXqXqXqXqXqXqXqXqXqXqXw $X3X3X[.1 S D S r 9 X 9 v # S.{ # v 8 X 3 r S D D > F.0X3X<XXXs qXqXqXqXqXqXqXqXqXqXqXqXqX",
"qXqXqXqXqXqXqXqXqXqXqXqXqXqX1  X2X4XK.< S D S r 3 O 6 v 9 8 6 6 x 8 # 3 r r D D > A.3X4X,XR.4 qXqXqXqXqXqXqXqXqXqXqXqXqX",
"qXqXqXqXqXqXqXqXqXqXqXqXqXqX. I #X<Xw.< D D r r 9 O 6 v x X @ e e e # 3 t r S K 3 5.<X,X%XQ X qXqXqXqXqXqXqXqXqXqXqXqXqX",
"qXqXqXqXqXqXqXqXqXqXqXqXqXqXqXX G J.U 2 K S r t 3 X 1 3 6 # O 9 2 9 @ 2 q r S K 9 H .X X6.1 qXqXqXqXqXqXqXqXqXqXqXqXqXqX",
"qXqXqXqXqXqXqXqXqXqXqXqXqXqXqXqXo O O 3 K r r t 3 X < 1 # # # # X 2 X 3 q S r K q < a 7 O qXqXqXqXqXqXqXqXqXqXqXqXqXqXqX",
"qXqXqXqXqXqXqXqXqXqXqXqXqXqXqXqXqXqXo 2 S r B t 6 < ' w.E D.F.E F ~ < 3 t S t S q . qXqXqXqXqXqXqXqXqXqXqXqXqXqXqXqXqXqX",
"qXqXqXqXqXqXqXqXqXqXqXqXqXqXqXqXqXqX. < r z r q 3 X G J D.' ' E D.v O 3 q t t r 3 . qXqXqXqXqXqXqXqXqXqXqXqXqXqXqXqXqXqX",
"qXqXqXqXqXqXqXqXqXqXqXqXqXqXqXqXqXqX. < t t q q 4 X < s z 6 # v H r X 3 q q q t 2 . qXqXqXqXqXqXqXqXqXqXqXqXqXqXqXqXqXqX",
"qXqXqXqXqXqXqXqXqXqXqXqXqXqXqXqXqXqXqXX 3 q q q t < . . . . . . . . O q q q q q < . qXqXqXqXqXqXqXqXqXqXqXqXqXqXqXqXqXqX",
"qXqXqXqXqXqXqXqXqXqXqXqXqXqXqXqXqXqXqXX X < 3 2 2 X X # X qXqX. X O @ 2 1 2 1 @ . qXqXqXqXqXqXqXqXqXqXqXqXqXqXqXqXqXqXqX",
"qXqXqXqXqXqXqXqXqXqXqXqXqXqXqXqXqXqXqXqX. . O 2 2 6 2 X . qXqX. < e 9 < < @ O . qXqXqXqXqXqXqXqXqXqXqXqXqXqXqXqXqXqXqXqX",
"qXqXqXqXqXqXqXqXqXqXqXqXqXqXqXqXqXqXqXqXX X 8 x x x x 9 . qXqXX 9 8 8 6 6 9 # . qXqXqXqXqXqXqXqXqXqXqXqXqXqXqXqXqXqXqXqX",
"qXqXqXqXqXqXqXqXqXqXqXqXqXqXqXqXqXqXqXqX. # 9 9 9 9 9 9 X qXqXX X # O X O O X X qXqXqXqXqXqXqXqXqXqXqXqXqXqXqXqXqXqXqXqX",
"qXqXqXqXqXqXqXqXqXqXqXqXqXqXqXqXqXqXqXqXX X X X X X X X X qXqXqXqXqXqXqXqXqXqXqXqXqXqXqXqXqXqXqXqXqXqXqXqXqXqXqXqXqXqXqX",
"qXqXqXqXqXqXqXqXqXqXqXqXqXqXqXqXqXqXqXqXqXqXqXqXqXqXqXqXqXqXqXqXqXqXqXqXqXqXqXqXqXqXqXqXqXqXqXqXqXqXqXqXqXqXqXqXqXqXqXqX",
"qXqXqXqXqXqXqXqXqXqXqXqXqXqXqXqXqXqXqXqXqXqXqXqXqXqXqXqXqXqXqXqXqXqXqXqXqXqXqXqXqXqXqXqXqXqXqXqXqXqXqXqXqXqXqXqXqXqXqXqX",
"qXqXqXqXqXqXqXqXqXqXqXqXqXqXqXqXqXqXqXqXqXqXqXqXqXqXqXqXqXqXqXqXqXqXqXqXqXqXqXqXqXqXqXqXqXqXqXqXqXqXqXqXqXqXqXqXqXqXqXqX",
"qXqXqXqXqXqXqXqXqXqXqXqXqXqXqXqXqXqXqXqXqXqXqXqXqXqXqXqXqXqXqXqXqXqXqXqXqXqXqXqXqXqXqXqXqXqXqXqXqXqXqXqXqXqXqXqXqXqXqXqX",
"qXqXqXqXqXqXqXqXqXqXqXqXqXqXqXqXqXqXqXqXqXqXqXqXqXqXqXqXqXqXqXqXqXqXqXqXqXqXqXqXqXqXqXqXqXqXqXqXqXqXqXqXqXqXqXqXqXqXqXqX"
};
