/* XPM */
static xpm_row_t const p1_front_6[] = {
/* columns rows colors chars-per-pixel */
"60 80 214 2 ",
"   c #161514",
".  c #1A1917",
"X  c #1D1C1A",
"o  c #191714",
"O  c #211F1B",
"+  c #241B16",
"@  c #1F201F",
"#  c #22211E",
"$  c #2A241B",
"%  c #2C261A",
"&  c #332517",
"*  c #332A17",
"=  c #3A2A16",
"-  c #352A19",
";  c #372717",
":  c #393118",
">  c #1E1F26",
",  c #221C25",
"<  c #1F222E",
"1  c #252423",
"2  c #292724",
"3  c #2C2A25",
"4  c #2C2C2C",
"5  c #322F2C",
"6  c #312D26",
"7  c #34322C",
"8  c #39342D",
"9  c #3C382F",
"0  c #26293C",
"q  c #272535",
"w  c #333333",
"e  c #3B3732",
"r  c #3D3A32",
"t  c #3B3B3B",
"y  c #373738",
"u  c #432D16",
"i  c #4B3516",
"p  c #543918",
"a  c #653D16",
"s  c #433B33",
"d  c #493F35",
"f  c #403F3E",
"g  c #4D3A28",
"h  c #564616",
"j  c #6C4318",
"k  c #684618",
"l  c #7A4B17",
"z  c #775714",
"x  c #434336",
"c  c #4C4339",
"v  c #49473A",
"b  c #51473C",
"n  c #544A3E",
"m  c #594A3B",
"M  c #5C5127",
"N  c #704B29",
"B  c #7D6A25",
"V  c #292C46",
"C  c #2C3357",
"Z  c #303657",
"A  c #363E63",
"S  c #3C4364",
"D  c #444444",
"F  c #4C4C4C",
"G  c #4B4843",
"H  c #564C42",
"J  c #5D5144",
"K  c #59534C",
"L  c #535353",
"P  c #5A5A5A",
"I  c #484B5A",
"U  c #615545",
"Y  c #6A5B4C",
"T  c #645748",
"R  c #6A5E52",
"E  c #6B6155",
"W  c #716252",
"Q  c #7C6A56",
"!  c #7E6C59",
"~  c #766758",
"^  c #70604F",
"/  c #444A68",
"(  c #525876",
")  c #565A6D",
"_  c #6D6D6E",
"`  c #6F6F70",
"'  c #786D63",
"]  c #63677D",
"[  c #777776",
"{  c #7D7266",
"}  c #854D18",
"|  c #8A4E19",
" . c #8D521B",
".. c #885816",
"X. c #945619",
"o. c #975A19",
"O. c #9B5F17",
"+. c #876D1B",
"@. c #996716",
"#. c #926F0F",
"$. c #A26219",
"%. c #AC6C1A",
"&. c #A66C18",
"*. c #AB7216",
"=. c #AC7219",
"-. c #B57419",
";. c #BB7A19",
":. c #B57A18",
">. c #945B27",
",. c #8E5D31",
"<. c #88732A",
"1. c #987B25",
"2. c #9D6635",
"3. c #997F33",
"4. c #A46E3D",
"5. c #846C53",
"6. c #85725C",
"7. c #8D735A",
"8. c #A97748",
"9. c #A57D58",
"0. c #8B7661",
"q. c #8B7A68",
"w. c #927C65",
"e. c #977F68",
"r. c #BB8315",
"t. c #B88C18",
"y. c #AB911A",
"u. c #978335",
"i. c #B0942E",
"p. c #BDA12B",
"a. c #C48A16",
"s. c #C48A19",
"d. c #C99616",
"f. c #D39D18",
"g. c #DBAA1A",
"h. c #DAB21B",
"j. c #E4B81A",
"k. c #C79324",
"l. c #D1992A",
"z. c #D7A926",
"x. c #D8B438",
"c. c #D4A832",
"v. c #E5BB27",
"b. c #E3B83C",
"n. c #F0CA1D",
"m. c #F7D22A",
"M. c #EAC536",
"N. c #F1CA3A",
"B. c #F0CB2B",
"V. c #AB835B",
"C. c #B5865A",
"Z. c #97816A",
"A. c #9B846C",
"S. c #948373",
"D. c #8F8275",
"F. c #BD9369",
"G. c #A48C73",
"H. c #AB9276",
"J. c #AD9479",
"K. c #B2967A",
"L. c #B5997D",
"P. c #A18264",
"I. c #CCB042",
"U. c #E8BF43",
"Y. c #C39469",
"T. c #C79C72",
"R. c #C08F62",
"E. c #D3A77D",
"W. c #ECCA46",
"Q. c #F8D647",
"!. c #F5D34E",
"~. c #6E7285",
"^. c #7A7C86",
"/. c #676C84",
"(. c #89898A",
"). c #949495",
"_. c #99999A",
"`. c #BA9E80",
"'. c #A09282",
"]. c #BEA182",
"[. c #B7A291",
"{. c #A3A3A4",
"}. c #ABACB4",
"|. c #B7B7B9",
" X c #C2A485",
".X c #C6A98A",
"XX c #CCAC8B",
"oX c #D6AB81",
"OX c #D5AD88",
"+X c #D8B28D",
"@X c #D4B492",
"#X c #DCBA97",
"$X c #DCBC98",
"%X c #D9B794",
"&X c #CBB195",
"*X c #E0B78F",
"=X c #E2BE9A",
"-X c #E6BE97",
";X c #E5C19D",
":X c #E9C39E",
">X c #ECC6A1",
",X c #EFC9A3",
"<X c #EFCCAB",
"1X c #F0CBA5",
"2X c #F3CFAA",
"3X c #F4D4B7",
"4X c #EFCEAF",
"5X c #BDBEC4",
"6X c #C9CACC",
"7X c #D3D3D4",
"8X c #DADADB",
"9X c #CECFD3",
"0X c #EDD3C1",
"qX c #00b140",
/* pixels */
"qXqXqXqXqXqXqXqXqXqXqXqXqXqXqXqXqXqXqXqXqXqXqXqXqXqXqXqXqXqXqXqXqXqXqXqXqXqXqXqXqXqXqXqXqXqXqXqXqXqXqXqXqXqXqXqXqXqXqXqX",
"qXqXqXqXqXqXqXqXqXqXqXqXqXqXqXqXqXqXqXqXqXqXqXqXqXqXqXqXqXqXqXqXqXqXqXqXqXqXqXqXqXqXqXqXqXqXqXqXqXqXqXqXqXqXqXqXqXqXqXqX",
"qXqXqXqXqXqXqXqXqXqXqXqXqXqXqXqXqXqXqXqXqXqXqXqXqXqXqXqXqXqXqXqXqXqXqXqXqXqXqXqXqXqXqXqXqXqXqXqXqXqXqXqXqXqXqXqXqXqXqXqX",
"qXqXqXqXqXqXqXqXqXqXqXqXqXqXqXqXqXqXqXqXqXqXqXqXqXqXqXqXqXqXqXqXqXqXqXqXqXqXqXqXqXqXqXqXqXqXqXqXqXqXqXqXqXqXqXqXqXqXqXqX",
"qXqXqXqXqXqXqXqXqXqXqXqXqXqXqXqXqXqXqXqXqXqXqXqXqXqXqXqXqX. . qXqXqXqXqXqXqXqXqXqXqXqXqXqXqXqXqXqXqXqXqXqXqXqXqXqXqXqXqX",
"qXqXqXqXqXqXqXqXqXqXqXqXqXqXqXqXqXqXqXqXqXqXqXqXqXqXqXqX. 2 1 . qXqXqXqXqXqXqXqXqXqXqXqXqXqXqXqXqXqXqXqXqXqXqXqXqXqXqXqX",
"qXqXqXqXqXqXqXqXqXqXqXqXqXqXqXqXqXqXqXqXqXqXqXqXqXqX. X w L F 4 . qXqXqXqXqXqXqXqXqXqXqXqXqXqXqXqXqXqXqXqXqXqXqXqXqXqXqX",
"qXqXqXqXqXqXqXqXqXqXqXqXqXqXqXqXqXqXqXqXqXqXqXqXqX. 1 t L P P L w X . qXqXqXqXqXqXqXqXqXqXqXqXqXqXqXqXqXqXqXqXqXqXqXqXqX",
"qXqXqXqXqXqXqXqXqXqXqXqXqXqXqXqXqXqXqXqXqXqXqX. X 3 D L L P P L L f 2 . qXqXqXqXqXqXqXqXqXqXqXqXqXqXqXqXqXqXqXqXqXqXqXqX",
"qXqXqXqXqXqXqXqXqXqXqXqXqXqXqXqXqXqXqXqXqXqXX @ w D F F L P P L F F F w @ X qXqXqXqXqXqXqXqXqXqXqXqXqXqXqXqXqXqXqXqXqXqX",
"qXqXqXqXqXqXqXqXqXqXqXqXqXqXqXqXqXqXqXqXX @ 3 y D L L L L P P L F F D F D 4 X . qXqXqXqXqXqXqXqXqXqXqXqXqXqXqXqXqXqXqXqX",
"qXqXqXqXqXqXqXqXqXqXqXqXqXqXqXqXqXqXX X 3 y t F F F F L P P P L F F F D D F f 5 @ . qXqXqXqXqXqXqXqXqXqXqXqXqXqXqXqXqXqX",
"qXqXqXqXqXqXqXqXqXqXqXqXqXqXqXqX. X 1 w t D D F F L L P P P P P L F L F D D t D t 2 X . qXqXqXqXqXqXqXqXqXqXqXqXqXqXqXqX",
"qXqXqXqXqXqXqXqXqXqXqXqXqXqXqX. @ w y t t D L F L L P P P P ` P L F F F D F F t t t 5 1 . qXqXqXqXqXqXqXqXqXqXqXqXqXqXqX",
"qXqXqXqXqXqXqXqXqXqXqXqXqXqX. 2 w t t f D F L L P P P P P P P P P L L L F F F D f t t y 2 . qXqXqXqXqXqXqXqXqXqXqXqXqXqX",
"qXqXqXqXqXqXqXqXqXqXqXqXqX. 3 y t t t D D F D L L P P P P P P P P P L L F F F D D t t t y 2 X qXqXqXqXqXqXqXqXqXqXqXqXqX",
"qXqXqXqXqXqXqXqXqXqXqXqXX 3 t t y t D D F F L L P P P P P P P P P P P P P F F F F f t t t y 1 X qXqXqXqXqXqXqXqXqXqXqXqX",
"qXqXqXqXqXqXqXqXqXqXqX. 3 y r r y t D F F F F L L P P P P P P L P P L L L P F F F F f t f t y 1 . qXqXqXqXqXqXqXqXqXqXqX",
"qXqXqXqXqXqXqXqXqXqX. 1 y t y r t D D D D D F P L L P P P P L L F F F F F F D D D D D f t t f w # . qXqXqXqXqXqXqXqXqXqX",
"qXqXqXqXqXqXqXqXqX. @ w t y t Z D D D f D D D F F F F L L P L L F F F D F F D D f f f D t t t t 7 > . qXqXqXqXqXqXqXqXqX",
"qXqXqXqXqXqXqXqXqXX 4 y t t f t V D D D f f D F F F F D F D D D F D F D D F D F D f V D D t y f t 3 . qXqXqXqXqXqXqXqXqX",
"qXqXqXqXqXqXqXqX. 2 w y t t t t G D D f f F D f D f t f t f f t f D D F F F D D F t t t t f y t V w 1 . qXqXqXqXqXqXqXqX",
"qXqXqXqXqXqXqXqXX 4 w y t t t t D F D D F f t t f t t t y y t t t t y t t D D t t D t t y t t y x t 4 X qXqXqXqXqXqXqXqX",
"qXqXqXqXqXqXqX. 2 w t t y t t D F f f D t t t t t y y y t y t t t t t t t t t D t t t t t t t t t t w 2 . qXqXqXqXqXqXqX",
"qXqXqXqXqXqXqX. 4 w w y t t y t t t D t t t y y r w y w w w w w w t t t y t y t t f t t t t t t y y y 2 X qXqXqXqXqXqXqX",
"qXqXqXqXqXqX. 1 w w w y t t w t y t t t t y y y w w 4 3 2 $ 1 1 1 4 4 w w w w t y t f t t f t t y y w w X . qXqXqXqXqXqX",
"qXqXqXqXqXqX. 2 w w y t t w w t y t t y t y w 3 > X @ $ = = : * % % O O 1 4 w y t y t t t t t t t y y w 2 . qXqXqXqXqXqX",
"qXqXqXqXqXqXX 3 w w t t t w t t t t y y w 4 # + * i z #.#.#.#.o.z z k i # O 1 4 w y y y t f t t t y y w 3 X qXqXqXqXqXqX",
"qXqXqXqXqXqXX 4 4 w t t w y y t t y y 5 @ @ o = l ..o.&.;.;.;.-.-.*.O.l k u o X 3 w w w y t f t y y y w 4 X qXqXqXqXqXqX",
"qXqXqXqXqX. > w w w y t w w w t y w 4 # 7 U x + i  .$.O.%.:.-.%.%.$.o.} p & * x # 1 w w w y t t y y w w w X qXqXqXqXqXqX",
"qXqXqXqXqX. 1 4 w y y y t w t w w 3 X v A.J.H.^ $ p o.$.X.X.X.X.X.} p & $ s 6.w.Y % @ 4 w w y t y y w w 4 1 . qXqXqXqXqX",
"qXqXqXqXqX. 2 w w w w w w w t w 3 O H H. X;X:XXXQ 2 = j } } X.X.l = 3 T w.K.#X+XJ.Q 3 @ w w y y t y w 5 w 2 . qXqXqXqXqX",
"qXqXqXqXqX. 2 4 w y w w w t w 4 O m H. X-X>X,X>XXXw.d $ $ & ; & + s w. XXX-X2X,X@XL.0.2 1 w w y y y w w 4 1 . qXqXqXqXqX",
"qXqXqXqXqX. 2 w w w w w w w w > e G.].=X>X>X,X,X>X@XK.e.Q Y T Y 6.H.@X:X,X-X>X1X,X+X`.~ O 3 w y w w w w w 1 . qXqXqXqXqX",
"qXqXqXqXqX. # 4 w w w w w w 3 1 0.L.*X>X,X,X,X,X,X,X=XXX X`.L. XXX#X1X,X1X=X>X1X2X>X.XJ.c O 7 w w w w 4 w 1 X qXqXqXqXqX",
"qXqXqXqXqX. > w w w w w w w @ c 9.9.R.E.+X,X,X>X,X,X:X>X>X:X-X-X>X1X,X,X,X1X1X*XoXY.V.9.6., 3 w w w 4 w w 1 . qXqXqXqXqX",
"qXqXqXqXqX. 1 w 7 w w w w 2 X N  . . . . .Y.,X1X,X,X,X,X1X,X>X>X,X,X,X,X1X,XE.>. . . .} ,.s 1 w w 4 w 4 w > . qXqXqXqXqX",
"qXqXqXqXqXqXX w w w w w w 2 - ,.9.T.T.C.8.2.8.OX1X,X,X,X>X,X1X,X,X,X,X1X*XC.2.8.C.F.T.F.2.g X w w w 4 w w X . qXqXqXqXqX",
"qXqXqXqXqXqX. 4 w w w w 5 @ m w.T b d c U 5.8.8.T.-X,X,X>X1X1X:X-X:X-XoX8.8.7.T c c c U 6.5.O w w w 4 4 4 X qXqXqXqXqXqX",
"qXqXqXqXqXqX. 1 w 4 w w 5 O Y H D _.) V > > s 7.Y.R.oX>X,X,X1X1X,X*XY.Y.9.b O , 0 I ).P 9 w.2 4 w w w w 3 X qXqXqXqXqXqX",
"qXqXqXqXqXqX. 2 w w w w 4 X W 9 ).7X( C > q 0 , ! ;X>X1X1X>X:X:X,X,X-Xe.4 0 q , V S 5X|.8 6.3 3 y 4 w 4 2 . qXqXqXqXqXqX",
"qXqXqXqXqXqXqX> 4 4 w 4 w X W e _.6X/ V o q A ^.x 6.:X:X1X1X>X;X,X,XH.e ^./ 0 + 0 A }.|.w Q 6 3 w w 4 w 1 . qXqXqXqXqXqX",
"qXqXqXqXqXqXqX. 2 w w w 4 X ^ s ^.7X~.C V C / 7X_.7 @X,X>X1X>X1X,X:XH _ 8X] C V Z ( 6X{.7 6.2 4 w w w 2 X qXqXqXqXqXqXqX",
"qXqXqXqXqXqXqX. > 4 4 4 w X J U K 6X6X^.( ] }.8X[ n ;X,X1X1X>X:X,X<X5.F 7X5X~.( /.|.7X_ x ~ @ w w 4 w 1 X qXqXqXqXqXqXqX",
"qXqXqXqXqXqXqXqX. 3 w w w 1 s w.w [ 6X8X7X8X8X(.7 J.1X,X,X,X>X=X,X2XXXr _ 7X8X7X8X7X_.7 ! J @ w 4 w 4 X qXqXqXqXqXqXqXqX",
"qXqXqXqXqXqXqXqXX X 4 w w 3 1 w.A.8 P ).{.).` 8 Z.<X2X1X1X,X,X,X,X1X>XL.r L (.{.)._ w ! G.3 4 w w 4 > . qXqXqXqXqXqXqXqX",
"qXqXqXqXqXqXqXqXqX. > 4 4 4 X n .X XY s e s Y `.,X>XH.R W J..X! Y G.>X2XXXQ x e s J H.@XT @ 4 4 w 2 . qXqXqXqXqXqXqXqXqX",
"qXqXqXqXqXqXqXqXqXqX. 1 w w 2 O Q %X>X$X@X$X,X2X$XW $ h h 3 5 : h % R $X2X1X;X@X#X>X;X0.$ 3 w w 2 X qXqXqXqXqXqXqXqXqXqX",
"qXqXqXqXqXqXqXqXqXqXqXX 2 4 w @ # Y e.`.$X;X$XH.v 3 y.n.h.<.M x.m.y.* G H.XX$X%X].w.n # > 4 w 4 > . qXqXqXqXqXqXqXqXqXqX",
"qXqXqXqXqXqXqXqXqXqXqXqX. 1 4 4 X o % % r c r 3 M c.Q.h.v.Q.M.M.Q.B.y.h % 7 r 8 7 * . X 3 w 2 X . qXqXqXqXqXqXqXqXqXqXqX",
"qXqXqXqXqXqXqXqXqXqXqXqXqXX X 3 1 O <.i.u.B <.t.N.N.v.t.1.3.3.i.I.!.Q.B.p.u.+.1.i.+.# 2 3 > . qXqXqXqXqXqXqXqXqXqXqXqXqX",
"qXqXqXqXqXqXqXqXqXqXqXqXqXqX. X > O z c.U.z.f.g.v.v.j.M.x.c.z.M.m.Q.Q.N.v.c.t.d.-.p X X . o qXqXqXqXqXqXqXqXqXqXqXqXqXqX",
"qXqXqXqXqXqXqXqXqXqXqXqXqXqXqX    . + i  .-.r.r.z.h.j.N.W.N.g.j.j.g.f.f.:.r.-.p & o     qXqXqXqXqXqXqXqXqXqXqXqXqXqXqXqX",
"qXqXqXqXqXqXqXqXqXqXqXqXqXqXqXqXqX  o . u } h ..s.s.d.k.:.t.d.j.d.r.a.:.@.p p O X o qXqXqXqXqXqXqXqXqXqXqXqXqXqXqXqXqXqX",
"qXqXqXqXqXqXqXqXqXqXqXqXqXqXqXqXqX. 1 y 2 # X % l r.z.U.-.*.x.M.f.a.;.j - . . 2 t 2 . qXqXqXqXqXqXqXqXqXqXqXqXqXqXqXqXqX",
"qXqXqXqXqXqXqXqXqXqXqXqXqXqXqXqXqX. y L w X t 2 $ &.l.U.z.t.z.k.-.:.%.= @ t @ w L y X qXqXqXqXqXqXqXqXqXqXqXqXqXqXqXqXqX",
"qXqXqXqXqXqXqXqXqXqXqXqXqXqXqXqXX 1 F F X 3 F f X a -.;.s.d.a.;.*.@.p X t L 4 2 G x 2 . qXqXqXqXqXqXqXqXqXqXqXqXqXqXqXqX",
"qXqXqXqXqXqXqXqXqXqXqXqXqXqXqX. 1 y D y X y L F 3 $ k k $.;.a.t.-.a X 7 D L Z X 9 Z w X qXqXqXqXqXqXqXqXqXqXqXqXqXqXqXqX",
"qXqXqXqXqXqXqXqXqXqXqXqXqXqXqX. 1 y f 3 @ F L D w O X X a } z ..i + X w D L K % 3 w 4 X . qXqXqXqXqXqXqXqXqXqXqXqXqXqXqX",
"qXqXqXqXqXqXqXqXqXqXqXqXqXqX2 G 2 @ 4 @ w L F f y , 8 3 + O $ $ X # @ w f F L e X O 2 J J O qXqXqXqXqXqXqXqXqXqXqXqXqXqX",
"qXqXqXqXqXqXqXqXqXqXqXqXqXX q.0X[.K 1 X t L D f w X 7 r @ Z.Z.@ x r X w t D L D , ' &X;XXXc   qXqXqXqXqXqXqXqXqXqXqXqXqX",
"qXqXqXqXqXqXqXqXqXqXqXqXqX2 &X3X3X4XS.1 D F D t 7 X 7 v # Z.W $ v 8 X 4 t f F D 3 [.0X2X%XY   qXqXqXqXqXqXqXqXqXqXqXqXqX",
"qXqXqXqXqXqXqXqXqXqXqXqXqX1 `.<X4X4XJ.1 D F f t 4 @ 7 v 7 7 7 7 v 7 X 4 t f F F 2 e.3X,XXXc   qXqXqXqXqXqXqXqXqXqXqXqXqX",
"qXqXqXqXqXqXqXqXqXqXqXqXqX. ^ ;X,X>X0.1 F F f r 4 @ 7 v x X X r r x @ 4 y f D L 2 Q >X-X7.O qXqXqXqXqXqXqXqXqXqXqXqXqXqX",
"qXqXqXqXqXqXqXqXqXqXqXqXqXqX# Q XX+X^ 2 L D Z e 4 X 1 3 6 @ X 3 3 3 @ 4 y t D L 4 n J.Q 3 qXqXqXqXqXqXqXqXqXqXqXqXqXqXqX",
"qXqXqXqXqXqXqXqXqXqXqXqXqXqXqXX 8 d 2 4 F t x e 4 X 2 3 1 2 3 $ @ 3 . 3 y f f F y X $ o qXqXqXqXqXqXqXqXqXqXqXqXqXqXqXqX",
"qXqXqXqXqXqXqXqXqXqXqXqXqXqXqXqXqXqXo 3 D t t w 4 # { q.E D.'.E H ' 1 4 y f t D w . qXqXqXqXqXqXqXqXqXqXqXqXqXqXqXqXqXqX",
"qXqXqXqXqXqXqXqXqXqXqXqXqXqXqXqXqXqX. 2 t t t w 7 X G K q.' E R D.v X 4 w y y t 4 . qXqXqXqXqXqXqXqXqXqXqXqXqXqXqXqXqXqX",
"qXqXqXqXqXqXqXqXqXqXqXqXqXqXqXqXqXqX. 1 y y w w w X # e t 4 # x H 9 X 4 w w w w 3   qXqXqXqXqXqXqXqXqXqXqXqXqXqXqXqXqXqX",
"qXqXqXqXqXqXqXqXqXqXqXqXqXqXqXqXqXqXqXX 3 w w w w 1 . . . . . . X X @ w w w w w 1 X qXqXqXqXqXqXqXqXqXqXqXqXqXqXqXqXqXqX",
"qXqXqXqXqXqXqXqXqXqXqXqXqXqXqXqXqXqXqX. X 1 4 2 3 X X X X qXqX. @ X @ 1 1 3 2 @ X qXqXqXqXqXqXqXqXqXqXqXqXqXqXqXqXqXqXqX",
"qXqXqXqXqXqXqXqXqXqXqXqXqXqXqXqXqXqXqXqX  X 1 1 3 4 x 3 . qXqX. X 6 7 6 6 # X . qXqXqXqXqXqXqXqXqXqXqXqXqXqXqXqXqXqXqXqX",
"qXqXqXqXqXqXqXqXqXqXqXqXqXqXqXqXqXqXqXqX. # 6 8 7 7 8 6 O qXqXX 3 x x x x r # . qXqXqXqXqXqXqXqXqXqXqXqXqXqXqXqXqXqXqXqX",
"qXqXqXqXqXqXqXqXqXqXqXqXqXqXqXqXqXqXqXqX. X @ @ O @ @ @ . qXqXX 6 6 6 6 3 3 # . qXqXqXqXqXqXqXqXqXqXqXqXqXqXqXqXqXqXqXqX",
"qXqXqXqXqXqXqXqXqXqXqXqXqXqXqXqXqXqXqXqXqXqXqXqXqXqXqXqXqXqXqXX X X X X X X X X qXqXqXqXqXqXqXqXqXqXqXqXqXqXqXqXqXqXqXqX",
"qXqXqXqXqXqXqXqXqXqXqXqXqXqXqXqXqXqXqXqXqXqXqXqXqXqXqXqXqXqXqXqXqXqXqXqXqXqXqXqXqXqXqXqXqXqXqXqXqXqXqXqXqXqXqXqXqXqXqXqX",
"qXqXqXqXqXqXqXqXqXqXqXqXqXqXqXqXqXqXqXqXqXqXqXqXqXqXqXqXqXqXqXqXqXqXqXqXqXqXqXqXqXqXqXqXqXqXqXqXqXqXqXqXqXqXqXqXqXqXqXqX",
"qXqXqXqXqXqXqXqXqXqXqXqXqXqXqXqXqXqXqXqXqXqXqXqXqXqXqXqXqXqXqXqXqXqXqXqXqXqXqXqXqXqXqXqXqXqXqXqXqXqXqXqXqXqXqXqXqXqXqXqX",
"qXqXqXqXqXqXqXqXqXqXqXqXqXqXqXqXqXqXqXqXqXqXqXqXqXqXqXqXqXqXqXqXqXqXqXqXqXqXqXqXqXqXqXqXqXqXqXqXqXqXqXqXqXqXqXqXqXqXqXqX",
"qXqXqXqXqXqXqXqXqXqXqXqXqXqXqXqXqXqXqXqXqXqXqXqXqXqXqXqXqXqXqXqXqXqXqXqXqXqXqXqXqXqXqXqXqXqXqXqXqXqXqXqXqXqXqXqXqXqXqXqX"
};
