/* XPM */
static xpm_row_t const number_1_xpm[] = {
/* columns rows colors chars-per-pixel */
"14 20 22 1 ",
"  c #000000",
". c #0D0D0D",
"X c #0E0E0E",
"o c #0F0F0F",
"O c #2C2C2C",
"+ c #2D2D2D",
"@ c #2E2E2E",
"# c #3C3C3C",
"$ c #3D3D3D",
"% c #3E3E3E",
"& c #717171",
"* c #8F8F8F",
"= c #919191",
"- c #949494",
"; c #BFBFBF",
": c #C1C1C1",
"> c #C6C6C6",
", c #D2D2D2",
"< c #DADADA",
"1 c #F5F5F5",
"2 c #F8F8F8",
"3 c #00b140",
/* pixels */
"33          33",
"33   .@$$@. 33",
"33   @=>>*@ 33",
"33 .@&,22;$ 33",
"33 @-<122;$ 33",
"33 @-<122;$ 33",
"33 .@&,22;$ 33",
"33   $:22;$ 33",
"3333 $;22;$ 33",
"3333 $;22;$ 33",
"3333 $;22;$ 33",
"3333 $;22;$ 33",
"3333 $;22;$ 33",
"3333 $;22;$ 33",
"3333 $;22;$ 33",
"3333 $;22;$ 33",
"3333 $;22;$ 33",
"3333 @*>>*@ 33",
"3333 .@$$@. 33",
"3333        33"
};
