/* XPM */
static xpm_row_t const number_6_xpm[] = {
/* columns rows colors chars-per-pixel */
"14 20 54 1 ",
"  c black",
". c #0D0D0D",
"X c #0E0E0E",
"o c #0F0F0F",
"O c #292929",
"+ c #2C2C2C",
"@ c #2D2D2D",
"# c #2E2E2E",
"$ c #303030",
"% c #363636",
"& c #373737",
"* c #383838",
"= c #393939",
"- c #3A3A3A",
"; c #3B3B3B",
": c #3C3C3C",
"> c #3D3D3D",
", c #3E3E3E",
"< c #3F3F3F",
"1 c #404040",
"2 c #414141",
"3 c #6B6B6B",
"4 c #6C6C6C",
"5 c #6F6F6F",
"6 c #707070",
"7 c #737373",
"8 c #8E8E8E",
"9 c #8F8F8F",
"0 c #929292",
"q c #939393",
"w c #BFBFBF",
"e c #C0C0C0",
"r c #C1C1C1",
"t c #C2C2C2",
"y c #C3C3C3",
"u c #C4C4C4",
"i c #C5C5C5",
"p c #C7C7C7",
"a c #C8C8C8",
"s c #C9C9C9",
"d c #D0D0D0",
"f c #D1D1D1",
"g c #D2D2D2",
"h c #D4D4D4",
"j c #D5D5D5",
"k c #D6D6D6",
"l c #D7D7D7",
"z c #D9D9D9",
"x c #F0F0F0",
"c c #F1F1F1",
"v c #F2F2F2",
"b c #F6F6F6",
"n c #F8F8F8",
"m c white",
/* pixels */
"              ",
" X@,,,,1111$X ",
" @9yyyyiiis0@ ",
" ,wmmvdyyis0@ ",
" ,wmmd3&-,,@X ",
" ,wmmd3&---OX ",
" ,wmmvdyyii9@ ",
" ,wmmvjiizny, ",
" ,wmmd4--7jy, ",
" ,wmmy,  1si1 ",
" ,wmmy,  1ii1 ",
" ,wmmy,  1ii1 ",
" ,wmmy,  1si1 ",
" ,wmmd4&&7jy, ",
" ,wmmvdwwjby, ",
" ,wmmmmmmmmw, ",
" ,wmmmmmmmmw, ",
" @9yywwwwyy9@ ",
" X@,,,,,,,,@X ",
"              "
};
