/* XPM */
static xpm_row_t const number_2_xpm[] = {
/* columns rows colors chars-per-pixel */
"14 20 52 1 ",
"  c black",
". c #0C0C0C",
"X c #0D0D0D",
"o c #0E0E0E",
"O c #0F0F0F",
"+ c #2A2A2A",
"@ c #2B2B2B",
"# c #2D2D2D",
"$ c #2E2E2E",
"% c #2F2F2F",
"& c #303030",
"* c #323232",
"= c #3C3C3C",
"- c #3D3D3D",
"; c #3E3E3E",
": c #3F3F3F",
"> c #404040",
", c #414141",
"< c #424242",
"1 c #636363",
"2 c #656565",
"3 c #666666",
"4 c #6F6F6F",
"5 c #717171",
"6 c #737373",
"7 c #8E8E8E",
"8 c #8F8F8F",
"9 c #939393",
"0 c #949494",
"q c #959595",
"w c #9A9A9A",
"e c #A8A8A8",
"r c #ACACAC",
"t c #ADADAD",
"y c #BFBFBF",
"u c #C0C0C0",
"i c #C1C1C1",
"p c #C3C3C3",
"a c #C5C5C5",
"s c #C6C6C6",
"d c #C7C7C7",
"f c #C9C9C9",
"g c #CACACA",
"h c #D1D1D1",
"j c #D5D5D5",
"k c #D7D7D7",
"l c #D9D9D9",
"z c #F2F2F2",
"x c #F8F8F8",
"c c #F9F9F9",
"v c white",
"b c None",
/* pixels */
"              ",
" O&,,,,,,,;$O ",
" $9fsssssss7$ ",
" $9fssssslxu; ",
" O&,,,,;;6ku; ",
"         ,ss, ",
"bbbbbb   ,ss, ",
"bbbbbb O$2e9$ ",
"bbbb   &wr1@O ",
"bbbb O$2rw&   ",
"bb   &wr2$O bb",
"bb O@1rw&   bb",
"   &qe2$O bbbb",
" O@6ks,   bbbb",
" $7lcu;       ",
" ;yvvh4;;,,&O ",
" ;yvvzkssff9$ ",
" $7uuuusssf9$ ",
" O$;;;;,,,,&O ",
"              "
};
