/* XPM */
static xpm_row_t const number_8_xpm[] = {

/* columns rows colors chars-per-pixel */
"14 20 28 1 ",
"  c #000000",
". c #0E0E0E",
"X c #2D2D2D",
"o c #3A3A3A",
"O c #3C3C3C",
"+ c #3D3D3D",
"@ c #3E3E3E",
"# c #3F3F3F",
"$ c #404040",
"% c #414141",
"& c #6F6F6F",
"* c #737373",
"= c #8E8E8E",
"- c #8F8F8F",
"; c #BFBFBF",
": c #C0C0C0",
"> c #C1C1C1",
", c #C3C3C3",
"< c #C5C5C5",
"1 c #C6C6C6",
"2 c #C7C7C7",
"3 c #D1D1D1",
"4 c #D5D5D5",
"5 c #D7D7D7",
"6 c #D9D9D9",
"7 c #F2F2F2",
"8 c #F8F8F8",
"9 c #FFFFFF",
/* pixels */
"              ",
" .X#$$$####X. ",
" X=<<<<::::=X ",
" #:86<<5799;# ",
" #:5*oo&399;# ",
" $<<$  #:99;# ",
" $<<$  #:99;# ",
" #:5*oo&399;# ",
" #:86<<5799;# ",
" #:86<<5799;# ",
" #:5*oo&399;# ",
" $<<$  #:99;# ",
" $<<$  #:99;# ",
" $<<$  #:99;# ",
" $<<$  #:99;# ",
" #:5*oo&399;# ",
" #:86<<5799;# ",
" X=<<<<::::=X ",
" .X#$$$####X. ",
"              "
};
