/* XPM */
static const char *number_2_xpm[] = {
/* columns rows colors chars-per-pixel */
"36 36 167 2 ",
"   c #00B140",
".  c #01B140",
"X  c #01B141",
"o  c #02B141",
"O  c #02B241",
"+  c #02B242",
"@  c #03B242",
"#  c #04B243",
"$  c #05B244",
"%  c #05B344",
"&  c #06B344",
"*  c #06B345",
"=  c #07B345",
"-  c #08B446",
";  c #0AB448",
":  c #0BB448",
">  c #0CB549",
",  c #0DB54A",
"<  c #0EB54A",
"1  c #0EB54B",
"2  c #10B64C",
"3  c #11B64D",
"4  c #12B64D",
"5  c #12B74E",
"6  c #13B74E",
"7  c #15B750",
"8  c #16B851",
"9  c #18B852",
"0  c #1AB954",
"q  c #1CB955",
"w  c #1CBA55",
"e  c #1EBA56",
"r  c #1FBA57",
"t  c #20BB58",
"y  c #22BB5A",
"u  c #23BB5A",
"i  c #23BC5A",
"p  c #24BC5B",
"a  c #26BC5D",
"s  c #27BD5D",
"d  c #2ABD5F",
"f  c #2BBE60",
"g  c #2DBF61",
"h  c #2EBF62",
"j  c #32C066",
"k  c #34C167",
"l  c #36C169",
"z  c #36C269",
"x  c #38C26A",
"c  c #39C26B",
"v  c #3DC46D",
"b  c #3DC46E",
"n  c #3FC46F",
"m  c #43C572",
"M  c #43C672",
"N  c #44C573",
"B  c #46C674",
"V  c #49C776",
"C  c #49C777",
"Z  c #4AC877",
"A  c #4BC878",
"S  c #4CC879",
"D  c #53CB7F",
"F  c #55CB7F",
"G  c #56CB81",
"H  c #5ACC83",
"J  c #5BCC84",
"K  c #5CCD85",
"L  c #61CF89",
"P  c #64CF8B",
"I  c #66D08C",
"U  c #67D08D",
"Y  c #6AD18F",
"T  c #6AD190",
"R  c #6FD393",
"E  c #70D394",
"W  c #75D497",
"Q  c #74D597",
"!  c #77D599",
"~  c #79D69B",
"^  c #7BD69C",
"/  c #7BD79C",
"(  c #7CD79D",
")  c #7ED79F",
"_  c #80D8A0",
"`  c #83D9A2",
"'  c #86DAA4",
"]  c #89DAA7",
"[  c #8ADBA7",
"{  c #8CDCA9",
"}  c #8DDCAA",
"|  c #8EDCAA",
" . c #8FDCAB",
".. c #96DFB0",
"X. c #9BE0B4",
"o. c #9CE0B4",
"O. c #9DE1B5",
"+. c #9EE1B6",
"@. c #9FE2B7",
"#. c #9FE2B8",
"$. c #A0E2B8",
"%. c #A1E2B9",
"&. c #A1E3B9",
"*. c #A3E3BA",
"=. c #A5E3BB",
"-. c #A6E3BC",
";. c #A6E3BD",
":. c #A8E4BE",
">. c #AEE6C2",
",. c #B0E6C4",
"<. c #B0E7C4",
"1. c #B1E7C5",
"2. c #B3E7C6",
"3. c #B3E8C6",
"4. c #B9E9CA",
"5. c #BEEBCE",
"6. c #BFEBCF",
"7. c #C2ECD1",
"8. c #C5EDD4",
"9. c #CBEFD8",
"0. c #CCEFD9",
"q. c #CFF0DB",
"w. c #D3F1DE",
"e. c #D4F2DF",
"r. c #D7F3E1",
"t. c #D9F3E2",
"y. c #D9F3E3",
"u. c #DBF4E4",
"i. c #DEF5E6",
"p. c #DFF5E7",
"a. c #E0F5E8",
"s. c #E1F5E9",
"d. c #E1F6E9",
"f. c #E2F6E9",
"g. c #E3F6EA",
"h. c #E5F7EB",
"j. c #E6F7EC",
"k. c #E8F8EE",
"l. c #E9F8EF",
"z. c #EAF8EF",
"x. c #EBF9F0",
"c. c #ECF9F0",
"v. c #ECF9F1",
"b. c #EDF9F1",
"n. c #EDF9F2",
"m. c #EEF9F2",
"M. c #EFFAF3",
"N. c #F0FAF3",
"B. c #F1FBF4",
"V. c #F1FBF5",
"C. c #F2FBF5",
"Z. c #F3FBF6",
"A. c #F4FBF6",
"S. c #F4FBF7",
"D. c #F5FBF7",
"F. c #F4FCF6",
"G. c #F6FCF8",
"H. c #F6FCF9",
"J. c #F7FDF9",
"K. c #FAFEFB",
"L. c #FBFEFC",
"P. c #FCFEFD",
"I. c #FDFEFD",
"U. c #FEFEFE",
"Y. c #FEFFFE",
"T. c #FEFFFF",
"R. c #FFFFFF",
/* pixels */
"                            $ ; , 2 2 , ; $                             ",
"                      ; e x L ' &.<.<.;. .I x e $                       ",
"                  ; z R 4.v.R.R.R.R.R.R.R.R.v.<.K e                     ",
"                t Q 0.L.R.R.R.R.R.R.R.R.R.R.R.R.v.o.j                   ",
"              v &.H.R.R.R.R.R.R.R.R.R.R.R.R.R.R.R.R.4.s                 ",
"          $ G 7.K.R.R.R.R.R.R.R.R.R.R.R.R.R.R.R.R.R.R.o.;               ",
"            ) N.R.R.R.R.R.R.R.R.R.R.R.R.R.R.R.R.R.R.R.v.F               ",
"            e 3.L.R.R.R.R.R.i.X.T D K  .d.R.R.R.R.R.R.L.>.              ",
"              i w.R.R.R.d./ p , $ # $ , m 9.R.R.R.R.R.R.e.t             ",
"                s h.B.:.d               # P A.R.R.R.R.R.i.m             ",
"                  V / ,                   B r.R.R.R.R.R.d.A             ",
"                                          v q.R.R.R.R.R.d.N             ",
"                                          V u.R.R.R.R.R.y.h             ",
"                                        $ I B.R.R.R.R.R.8.,             ",
"                                        t =.R.R.R.R.R.H. .              ",
"                                      $ J z.R.R.R.R.R.z.z               ",
"                                      h 0.R.R.R.R.R.R.o.$               ",
"                                    2 <.R.R.R.R.R.R.v.e                 ",
"                                  ; ;.R.R.R.R.R.R.A.H                   ",
"                                2 [ R.R.R.R.R.R.B.[ ;                   ",
"                              7 _ A.R.R.R.R.R.B.o.0                     ",
"                            8 ) x.R.R.R.R.R.B.&.s                       ",
"                          8 ~ h.R.R.R.R.R.B.&.f                         ",
"                        7 ! d.R.R.R.R.R.B.o.d                           ",
"                      2 Q h.R.R.R.R.R.B...t                             ",
"                    , E z.R.R.R.R.R.H. .9                               ",
"                  $ Y v.R.R.R.R.R.R._ ,                                 ",
"                $ E K.R.R.R.R.R.B.~                                     ",
"              , P K.R.R.R.R.R.j.R -                                     ",
"            2 T v.R.R.R.R.R.R.&.Z v v v v v v v v v v v v k 2           ",
"          $ I h.R.R.R.R.R.R.R.z.d.d.d.d.d.d.d.d.d.d.d.d.d.6.m           ",
"          2 4.R.R.R.R.R.R.R.R.R.R.R.R.R.R.R.R.R.R.R.R.R.R.y.S           ",
"          8 6.R.R.R.R.R.R.R.R.R.R.R.R.R.R.R.R.R.R.R.R.R.R.y.S           ",
"          8 6.R.R.R.R.R.R.R.R.R.R.R.R.R.R.R.R.R.R.R.R.R.R.y.S           ",
"          8 6.R.R.R.R.R.R.R.R.R.R.R.R.R.R.R.R.R.R.R.R.R.R.y.S           ",
"          8 6.R.R.R.R.R.R.R.R.R.R.R.R.R.R.R.R.R.R.R.R.R.R.y.S           "
};
