/* XPM */
static xpm_row_t const number_9_xpm[] = {

/* columns rows colors chars-per-pixel */
"14 20 38 1 ",
"  c black",
". c #0E0E0E",
"X c #0F0F0F",
"o c #2D2D2D",
"O c #2E2E2E",
"+ c #393939",
"@ c #3A3A3A",
"# c #3B3B3B",
"$ c #3C3C3C",
"% c #3D3D3D",
"& c #3E3E3E",
"* c #3F3F3F",
"= c #404040",
"- c #414141",
"; c #6C6C6C",
": c #6F6F6F",
"> c #737373",
", c #8E8E8E",
"< c #8F8F8F",
"1 c #919191",
"2 c #BFBFBF",
"3 c #C0C0C0",
"4 c #C1C1C1",
"5 c #C3C3C3",
"6 c #C4C4C4",
"7 c #C5C5C5",
"8 c #C6C6C6",
"9 c #C7C7C7",
"0 c #C9C9C9",
"q c #D0D0D0",
"w c #D1D1D1",
"e c #D5D5D5",
"r c #D7D7D7",
"t c #D9D9D9",
"y c #F0F0F0",
"u c #F2F2F2",
"i c #F8F8F8",
"p c white",
/* pixels */
"              ",
" .o*===****o. ",
" o,66663333,o ",
" *3it66rupp2* ",
" *3r>@@:wpp2* ",
" =66=  *3pp2* ",
" =66=  *3pp2* ",
" *3r>@@>wpp2* ",
" *3it66rupp2* ",
" o16066rupp2* ",
" .o==**:wpp2* ",
"       *3pp2* ",
"       *3pp2* ",
" .o**@@:wpp2* ",
" o16633wupp2* ",
" *2pppppppp2* ",
" *2pppppppp2* ",
" o,33222233,o ",
" .o********o. ",
"              "
};
