/* XPM */
static const char *number_1_xpm[] = {
/* columns rows colors chars-per-pixel */
"36 36 73 1 ",
"  c #00B140",
". c #01B140",
"X c #01B141",
"o c #02B241",
"O c #02B242",
"+ c #03B243",
"@ c #05B243",
"# c #05B244",
"$ c #06B345",
"% c #0DB549",
"& c #0DB54A",
"* c #0FB64B",
"= c #11B64D",
"- c #15B74F",
"; c #19B952",
": c #19B953",
"> c #1AB953",
", c #1AB954",
"< c #25BC5C",
"1 c #26BD5C",
"2 c #29BE5F",
"3 c #2FBF63",
"4 c #32C066",
"5 c #34C167",
"6 c #36C169",
"7 c #38C26A",
"8 c #3CC36C",
"9 c #3CC36D",
"0 c #3EC46E",
"q c #44C573",
"w c #46C674",
"e c #46C675",
"r c #4AC778",
"t c #4FC97B",
"y c #51C97C",
"u c #62CF89",
"i c #6AD190",
"p c #6ED292",
"a c #7DD79D",
"s c #88DBA6",
"d c #8CDCA9",
"f c #8DDCA9",
"g c #92DEAD",
"h c #96DFB1",
"j c #A6E4BC",
"k c #A8E4BE",
"l c #ADE6C1",
"z c #BAEACB",
"x c #C3ECD1",
"c c #CDEFD9",
"v c #CFF0DC",
"b c #D5F2E0",
"n c #D6F2E0",
"m c #D8F3E2",
"M c #E2F6E9",
"N c #E4F7EB",
"B c #EAF8EF",
"V c #EAF9EF",
"C c #EBF9F0",
"Z c #ECF9F1",
"A c #EDF9F1",
"S c #EFFAF3",
"D c #F0FAF3",
"F c #F6FCF8",
"G c #F7FCF9",
"H c #F8FDFA",
"J c #F9FDFB",
"K c #FBFEFC",
"L c #FCFEFD",
"P c #FDFEFE",
"I c #FEFEFE",
"U c #FEFFFE",
"Y c #FFFFFF",
/* pixels */
"                                    ",
"                 >qwwww0=           ",
"               $4jYYYYYM0           ",
"              *txKYYYYYM0           ",
"             >pnYYYYYYYM0           ",
"            <dNYYYYYYYYM0           ",
"           6lSYYYYYYYYYM0           ",
"         @rcHYYYYYYYYYYM0           ",
"         iBYYYYYYYYYYYYM0           ",
"       -hYYYYYYKvHYYYYYM0           ",
"       gHYYYYYFzwBYYYYYM0           ",
"       wmYYYYSk3<BYYYYYM0           ",
"        uSYYNd< 2CYYYYYM0           ",
"        $sFnp>  3CYYYYYM0           ",
"         >ay*   5SYYYYYM0           ",
"          *$    7SYYYYYM0           ",
"                8SYYYYYM0           ",
"                8SYYYYYM0           ",
"                8SYYYYYM0           ",
"                8SYYYYYM0           ",
"                8SYYYYYM0           ",
"                8SYYYYYM0           ",
"                8SYYYYYM0           ",
"                8SYYYYYM0           ",
"                8SYYYYYM0           ",
"                8SYYYYYM0           ",
"                8SYYYYYM0           ",
"                8SYYYYYM0           ",
"                8SYYYYYM0           ",
"                8SYYYYYM0           ",
"                8SYYYYYM0           ",
"                8SYYYYYM0           ",
"                8SYYYYYM0           ",
"                8SYYYYYM0           ",
"                8SYYYYYM0           ",
"                8SYYYYYM0           "
};
