/* XPM */
static const char *number_8_xpm[] = {
/* columns rows colors chars-per-pixel */
"36 36 233 2 ",
"   c #00B140",
".  c #01B141",
"X  c #02B141",
"o  c #02B241",
"O  c #02B142",
"+  c #02B242",
"@  c #03B242",
"#  c #03B243",
"$  c #04B243",
"%  c #05B243",
"&  c #05B244",
"*  c #05B344",
"=  c #06B344",
"-  c #06B345",
";  c #07B345",
":  c #08B346",
">  c #09B447",
",  c #0AB447",
"<  c #0AB448",
"1  c #0BB448",
"2  c #0CB549",
"3  c #0DB549",
"4  c #0EB54B",
"5  c #0FB64B",
"6  c #10B64C",
"7  c #12B64E",
"8  c #13B74E",
"9  c #14B74F",
"0  c #15B750",
"q  c #16B750",
"w  c #16B851",
"e  c #17B851",
"r  c #19B852",
"t  c #19B953",
"y  c #1AB953",
"u  c #1BB954",
"i  c #1CBA55",
"p  c #1DBA55",
"a  c #1DBA56",
"s  c #1EBA56",
"d  c #1EBA57",
"f  c #1FBA57",
"g  c #1FBB58",
"h  c #20BB58",
"j  c #22BB59",
"k  c #22BB5A",
"l  c #24BC5B",
"z  c #25BC5C",
"x  c #26BD5D",
"c  c #27BD5D",
"v  c #29BD5F",
"b  c #2CBE61",
"n  c #2DBF62",
"m  c #2EBF63",
"M  c #2FBF63",
"N  c #30C064",
"B  c #31C065",
"V  c #33C066",
"C  c #33C166",
"Z  c #34C167",
"A  c #35C167",
"S  c #35C168",
"D  c #37C169",
"F  c #37C269",
"G  c #39C26B",
"H  c #3AC36C",
"J  c #3BC36C",
"K  c #3BC36D",
"L  c #3CC36D",
"P  c #3FC46F",
"I  c #40C470",
"U  c #42C572",
"Y  c #43C572",
"T  c #44C672",
"R  c #46C674",
"E  c #4AC777",
"W  c #4DC879",
"Q  c #4EC97A",
"!  c #4FC97B",
"~  c #51C97D",
"^  c #52CA7E",
"/  c #53CA7E",
"(  c #55CA7F",
")  c #56CB81",
"_  c #58CC82",
"`  c #59CC83",
"'  c #5ACC83",
"]  c #5ACD84",
"[  c #5BCD84",
"{  c #5CCD85",
"}  c #5DCD85",
"|  c #5ECE87",
" . c #61CE88",
".. c #61CF89",
"X. c #63CF8A",
"o. c #65D08B",
"O. c #67D08D",
"+. c #6AD18F",
"@. c #6DD291",
"#. c #6ED392",
"$. c #71D394",
"%. c #71D495",
"&. c #73D496",
"*. c #74D497",
"=. c #75D497",
"-. c #77D599",
";. c #7AD79C",
":. c #7BD79C",
">. c #80D8A0",
",. c #81D8A1",
"<. c #85D9A4",
"1. c #8BDBA8",
"2. c #8DDCAA",
"3. c #91DDAC",
"4. c #91DDAD",
"5. c #92DDAD",
"6. c #92DEAE",
"7. c #93DEAE",
"8. c #94DEAF",
"9. c #97DFB1",
"0. c #99DFB3",
"q. c #99E0B2",
"w. c #9AE0B3",
"e. c #9BE0B4",
"r. c #9CE0B5",
"t. c #9DE1B6",
"y. c #9FE1B7",
"u. c #A0E2B7",
"i. c #A1E2B9",
"p. c #A2E2BA",
"a. c #A2E3BA",
"s. c #A4E3BB",
"d. c #A5E3BB",
"f. c #A5E3BC",
"g. c #A6E3BC",
"h. c #A8E4BE",
"j. c #A8E5BE",
"k. c #A9E5BF",
"l. c #ABE5C0",
"z. c #ABE5C1",
"x. c #ACE5C0",
"c. c #ADE5C1",
"v. c #B0E7C4",
"b. c #B1E7C4",
"n. c #B1E7C5",
"m. c #B2E7C5",
"M. c #B3E7C6",
"N. c #B4E7C6",
"B. c #B5E8C7",
"V. c #B6E8C8",
"C. c #B7E8C9",
"Z. c #B7E9C9",
"A. c #B8E9CA",
"S. c #B9E9CB",
"D. c #B9EACB",
"F. c #BAEACC",
"G. c #BCEACC",
"H. c #BCEACD",
"J. c #BDEACD",
"K. c #BCEBCD",
"L. c #BFEBCF",
"P. c #C0ECD0",
"I. c #C1ECD0",
"U. c #C4EDD3",
"Y. c #C6EDD4",
"T. c #C7EED5",
"R. c #C8EED6",
"E. c #C9EED6",
"W. c #C9EFD7",
"Q. c #CAEFD7",
"!. c #CCEFD9",
"~. c #CCF0D9",
"^. c #CEF0DA",
"/. c #CEF0DB",
"(. c #CFF0DB",
"). c #CFF1DB",
"_. c #D0F0DC",
"`. c #D0F1DC",
"'. c #D2F1DD",
"]. c #D2F1DE",
"[. c #D4F2DE",
"{. c #D5F2E0",
"}. c #D6F2E0",
"|. c #D7F3E1",
" X c #D9F3E3",
".X c #DAF4E3",
"XX c #DCF4E5",
"oX c #DDF4E6",
"OX c #E1F6E9",
"+X c #E3F6EA",
"@X c #E4F7EB",
"#X c #E6F7EC",
"$X c #E6F7ED",
"%X c #E7F7ED",
"&X c #E8F8ED",
"*X c #E8F8EE",
"=X c #E9F8EE",
"-X c #EBF9F0",
";X c #ECF9F0",
":X c #ECF9F1",
">X c #EDF9F1",
",X c #EDF9F2",
"<X c #EEFAF2",
"1X c #EFFAF3",
"2X c #F0FAF4",
"3X c #F1FAF4",
"4X c #F0FBF4",
"5X c #F1FBF4",
"6X c #F1FBF5",
"7X c #F2FAF5",
"8X c #F2FBF5",
"9X c #F3FBF6",
"0X c #F4FBF6",
"qX c #F4FCF7",
"wX c #F5FCF8",
"eX c #F6FCF8",
"rX c #F7FCF9",
"tX c #F7FDF9",
"yX c #F8FDF9",
"uX c #F8FDFA",
"iX c #F9FDFA",
"pX c #F9FDFB",
"aX c #FAFDFB",
"sX c #FBFDFC",
"dX c #FBFEFC",
"fX c #FCFEFC",
"gX c #FCFEFD",
"hX c #FDFEFD",
"jX c #FDFFFE",
"kX c #FEFEFE",
"lX c #FEFFFE",
"zX c #FEFFFF",
"xX c #FFFFFF",
/* pixels */
"                            & , 2 2 2 2 , &                             ",
"                      & u C ' >.9.f.f.0.>.{ Z f :                       ",
"                    f { x.&XxXxXxXxXxXxXxXxX-XM. .h                     ",
"                  K p.6XxXxXxXxXxXxXxXxXxXxXxXxX6Xh.I                   ",
"                Z U.xXxXxXxXxXxXxXxXxXxXxXxXxXxXxXxXW.F                 ",
"              q M.xXxXxXxXxXxXxXxXxXxXxXxXxXxXxXxXxXxXV.q               ",
"              O.6XxXxXxXxXxXxX>XB.4.4.D.6XxXxXxXxXxXxX6Xo.              ",
"              B.xXxXxXxXxXxXW.^ f 9 9 h ' ).xXxXxXxXxXxXM.              ",
"            y ].xXxXxXxXxX&X{ &         &  .-XxXxXxXxXxX].6             ",
"            x |.xXxXxXxXxXF.b             C H.xXxXxXxXxX|.h             ",
"            y ].xXxXxXxXxXD.b             C H.xXxXxXxXxX].9             ",
"            % H.xXxXxXxXxX.XQ             Q XXxXxXxXxXxXV.              ",
"              >.wXxXxXxXxXdXu.x         h y.dXxXxXxXxXqX=.              ",
"              b XXxXxXxXxXxX6Xy.K % % Z 0.>XxXxXxXxXxX).h               ",
"                $.xXxXxXxXxXxXuXY.;.-.I.wXxXxXxXxXxX6X)                 ",
"                6 q.xXxXxXxXxXxXxX>X>XxXxXxXxXxXxX>X@.:                 ",
"                  f 4.uXxXxXxXxXxXxXxXxXxXxXxXxX).( 2                   ",
"                    9 @.$XxXxXxXxXxXxXxXxXxX>X2.x &                     ",
"                    e  .|.xXxXxXxXxXxXxXxXxXuXM.K ,                     ",
"                  C z.dXxXxXxXxXxXxXxXxXxXxXxXxX$X&.u                   ",
"                P [.xXxXxXxXxXxXdXOXwXxXxXxXxXxXxXdXy.h                 ",
"              F ).xXxXxXxXxXxXOXs.{ 4.|.xXxXxXxXxXxXxXy.f               ",
"            9 h.uXxXxXxXxXxX!.+.e   1 ^ x.6XxXxXxXxXxXwX<.:             ",
"            ' @XxXxXxXxXxX).^ 1       % v 4.>XxXxXxXxXxX XI             ",
"            y.uXxXxXxXxX&X&.1             h e.uXxXxXxXxXwX4.            ",
"          f I.xXxXxXxXxXH.C                 R ).xXxXxXxXxXH.y           ",
"          C !.xXxXxXxXxXh.6                 f M.xXxXxXxXxXW.b           ",
"          G ).xXxXxXxXxXz.e                 f M.xXxXxXxXxX).Z           ",
"          b W.xXxXxXxXxXW.L                 T ).xXxXxXxXxXU.l           ",
"          q D.xXxXxXxXxXqX8.j           % l q.wXxXxXxXxXxXz.,           ",
"            1.0XxXxXxXxXxX>Xp.[ G b b K [ s.6XxXxXxXxXxX-X@.            ",
"            K |.xXxXxXxXxXxXxX&XY.V.D.W.&XxXxXxXxXxXxXxXH.h             ",
"            & =.6XxXxXxXxXxXxXxXxXxXxXxXxXxXxXxXxXxXxXXXE               ",
"              6 ;.wXxXxXxXxXxXxXxXxXxXxXxXxXxXxXxXxXXXQ &               ",
"                2 ' ].xXxXxXxXxXxXxXxXxXxXxXxXxXuXh.F %                 ",
"                  & f  .H.6XxXxXxXxXxXxXxXxX$Xp.I 6                     "
};
