/* XPM */
static const char *number_6_xpm[] = {
/* columns rows colors chars-per-pixel */
"36 36 217 2 ",
"   c #00B140",
".  c #00B140",
"X  c #00B140",
"o  c #00B140",
"O  c #00B140",
"+  c #00B140",
"@  c #00B140",
"#  c #00B140",
"$  c #00B140",
"%  c #00B140",
"&  c #00B140",
"*  c #00B140",
"=  c #00B140",
"-  c #00B140",
";  c #00B140",
":  c #00B140",
">  c #00B140",
",  c #00B140",
"<  c #00B140",
"1  c #00B140",
"2  c #00B140",
"3  c #00B140",
"4  c #00B140",
"5  c #00B140",
"6  c #00B140",
"7  c #00B140",
"8  c #00B140",
"9  c #00B140",
"0  c #00B140",
"q  c #00B140",
"w  c #00B140",
"e  c #00B140",
"r  c #00B140",
"t  c #00B140",
"y  c #00B140",
"u  c #00B140",
"i  c #00B140",
"p  c #00B140",
"a  c #00B140",
"s  c #00B140",
"d  c #00B140",
"f  c #00B140",
"g  c #00B140",
"h  c #00B140",
"j  c #00B140",
"k  c #00B140",
"l  c #00B140",
"z  c #00B140",
"x  c #00B140",
"c  c #00B140",
"v  c #00B140",
"b  c #00B140",
"n  c #00B140",
"m  c #00B140",
"M  c #00B140",
"N  c #00B140",
"B  c #00B140",
"V  c #00B140",
"C  c #00B140",
"Z  c #00B140",
"A  c #00B140",
"S  c #00B140",
"D  c #00B140",
"F  c #00B140",
"G  c #00B140",
"H  c #00B140",
"J  c #00B140",
"K  c #00B140",
"L  c #00B140",
"P  c #00B140",
"I  c #00B140",
"U  c #00B140",
"Y  c #00B140",
"T  c #00B140",
"R  c #00B140",
"E  c #00B140",
"W  c #00B140",
"Q  c #00B140",
"!  c #00B140",
"~  c #00B140",
"^  c #00B140",
"/  c #00B140",
"(  c #00B140",
")  c #00B140",
"_  c #00B140",
"`  c #00B140",
"'  c #00B140",
"]  c #00B140",
"[  c #00B140",
"{  c #00B140",
"}  c #00B140",
"|  c #00B140",
" . c #00B140",
".. c #00B140",
"X. c #00B140",
"o. c #00B140",
"O. c #00B140",
"+. c #00B140",
"@. c #00B140",
"#. c #00B140",
"$. c #00B140",
"%. c #00B140",
"&. c #00B140",
"*. c #00B140",
"=. c #00B140",
"-. c #00B140",
";. c #00B140",
":. c #00B140",
">. c #00B140",
",. c #00B140",
"<. c #00B140",
"1. c #00B140",
"2. c #00B140",
"3. c #00B140",
"4. c #00B140",
"5. c #00B140",
"6. c #00B140",
"7. c #00B140",
"8. c #00B140",
"9. c #00B140",
"0. c #00B140",
"q. c #00B140",
"w. c #00B140",
"e. c #00B140",
"r. c #00B140",
"t. c #00B140",
"y. c #00B140",
"u. c #00B140",
"i. c #00B140",
"p. c #00B140",
"a. c #00B140",
"s. c #00B140",
"d. c #00B140",
"f. c #00B140",
"g. c #00B140",
"h. c #00B140",
"j. c #00B140",
"k. c #00B140",
"l. c #00B140",
"z. c #00B140",
"x. c #00B140",
"c. c #00B140",
"v. c #00B140",
"b. c #00B140",
"n. c #00B140",
"m. c #00B140",
"M. c #00B140",
"N. c #00B140",
"B. c #00B140",
"V. c #00B140",
"C. c #00B140",
"Z. c #00B140",
"A. c #00B140",
"S. c #00B140",
"D. c #00B140",
"F. c #00B140",
"G. c #00B140",
"H. c #00B140",
"J. c #00B140",
"K. c #00B140",
"L. c #00B140",
"P. c #00B140",
"I. c #00B140",
"U. c #00B140",
"Y. c #00B140",
"T. c #00B140",
"R. c #00B140",
"E. c #00B140",
"W. c #00B140",
"Q. c #00B140",
"!. c #00B140",
"~. c #00B140",
"^. c #00B140",
"/. c #00B140",
"(. c #00B140",
"). c #00B140",
"_. c #00B140",
"`. c #E1F5E8",
"'. c #E1F6E9",
"]. c #E2F6E9",
"[. c #E3F6EA",
"{. c #E4F7EB",
"}. c #E5F7EB",
"|. c #E5F7EC",
" X c #E6F7EC",
".X c #E7F7ED",
"XX c #E8F7EE",
"oX c #E7F8ED",
"OX c #E9F8EE",
"+X c #E9F8EF",
"@X c #EBF9F0",
"#X c #ECF9F1",
"$X c #EDF9F2",
"%X c #F0FAF3",
"&X c #F0FAF4",
"*X c #F1FBF4",
"=X c #F1FBF5",
"-X c #F3FBF6",
";X c #F4FBF7",
":X c #F4FCF6",
">X c #F4FCF7",
",X c #F5FCF8",
"<X c #F6FCF8",
"1X c #F7FDF9",
"2X c #F8FDFA",
"3X c #F9FDFA",
"4X c #F9FDFB",
"5X c #FAFDFB",
"6X c #FBFEFC",
"7X c #FCFEFC",
"8X c #FCFEFD",
"9X c #FDFEFD",
"0X c #FDFEFE",
"qX c #FDFFFE",
"wX c #FEFEFE",
"eX c #FEFFFE",
"rX c #FFFFFF",
/* pixels */
"                                      $ ; > 3 3 3 > ; @                 ",
"                              $ 0 f F [ *.7.q.w.q.7.&.I                 ",
"                          > z ( t./.rXrXrXrXrXrXrXrXrXB.                ",
"                        p } N.:XrXrXrXrXrXrXrXrXrXrXrXB.                ",
"                    $ B i.+XrXrXrXrXrXrXrXrXrXrXrXrXrXB.                ",
"                    C b.4XrXrXrXrXrXrXrXrXrXrXrXrXrXrXB.                ",
"                  p N.6XrXrXrXrXrXrXrXrXrX&X X[.{.&XrXB.                ",
"                  p.6XrXrXrXrXrXrX4Xk.o.P v z h h z G T                 ",
"                P 4XrXrXrXrXrXrXb.S 5 =               $                 ",
"              ; G.rXrXrXrXrX;X>.5                                       ",
"              E &XrXrXrXrX4X9.q                                         ",
"            @ i.4XrXrXrXrXD.S                                           ",
"            y T.rXrXrXrX4X3.3                                           ",
"            E [.rXrXrXrX[.(     $ f I / ( ! H d $                       ",
"            *.%XrXrXrXrXD.S   C <.c.R.[.{._.U.x.1.C @                   ",
"            t.4XrXrXrXrXx.z ( A.:XrXrXrXrXrXrXrX:XU.X.                  ",
"          > x.rXrXrXrXrXf.} E.rXrXrXrXrXrXrXrXrXrXrX#X+.                ",
"          y C.rXrXrXrXrXE.D.rXrXrXrXrXrXrXrXrXrXrXrXrXoXT               ",
"          h D.rXrXrXrXrXrXrXrXrX6X:X&X:X6XrXrXrXrXrXrXrXD.8             ",
"          m H.rXrXrXrXrXrXrX6X[.f.#.` %.h. XrXrXrXrXrXrX+X]             ",
"          C U.rXrXrXrXrXrX4XC.T ;       3 { _.rXrXrXrXrX4Xi.$           ",
"          C U.rXrXrXrXrXrXH.P @           5 7.1XrXrXrXrXrXC.y           ",
"          B U.rXrXrXrXrX1X>.>               Q _.rXrXrXrXrXU.C           ",
"          z D.rXrXrXrXrX{.(                 B A.rXrXrXrXrXE.P           ",
"          y C.rXrXrXrXrX_.~                 z N.rXrXrXrXrX/.Y           ",
"          $ h.rXrXrXrXrX+X]                 z N.rXrXrXrXrXE.I           ",
"            8.1XrXrXrXrX6X>.$               F G.rXrXrXrXrXT.S           ",
"            ~  XrXrXrXrXrXN.n               [ +XrXrXrXrXrXA.s           ",
"            y U.rXrXrXrXrX1X*.5           p a.rXrXrXrXrX6Xs.$           ",
"              7.1XrXrXrXrXrX[.| p @   ; f <.#XrXrXrXrXrX#XX.            ",
"              z /.rXrXrXrXrXrX#Xp.| ` #.h.&XrXrXrXrXrXrXH.f             ",
"                | 4XrXrXrXrXrXrXrXrX4XrXrXrXrXrXrXrXrX&X+.              ",
"                3 t.rXrXrXrXrXrXrXrXrXrXrXrXrXrXrXrXrXi.0               ",
"                  d t.4XrXrXrXrXrXrXrXrXrXrXrXrXrXrXh.p                 ",
"                    y #.[.rXrXrXrXrXrXrXrXrXrXrX&X3.s                   ",
"                      ; n 1._.rXrXrXrXrXrXrXXXt.S 3                     "
};
