/* XPM */
static xpm_row_t const number_4_xpm[] = {
/* columns rows colors chars-per-pixel */
"14 20 38 1 ",
"  c black",
". c #0E0E0E",
"X c #0F0F0F",
"o c #2D2D2D",
"O c #2E2E2E",
"+ c #2F2F2F",
"@ c #303030",
"# c #313131",
"$ c #3A3A3A",
"% c #3C3C3C",
"& c #3D3D3D",
"* c #3E3E3E",
"= c #3F3F3F",
"- c #404040",
"; c #414141",
": c #6F6F6F",
"> c #737373",
", c #8E8E8E",
"< c #8F8F8F",
"1 c #919191",
"2 c #939393",
"3 c #959595",
"4 c #BFBFBF",
"5 c #C0C0C0",
"6 c #C1C1C1",
"7 c #C3C3C3",
"8 c #C4C4C4",
"9 c #C5C5C5",
"0 c #C6C6C6",
"q c #C7C7C7",
"w c #D1D1D1",
"e c #D5D5D5",
"r c #D7D7D7",
"t c #D9D9D9",
"y c #F2F2F2",
"u c #F8F8F8",
"i c white",
"p c None",
/* pixels */
"              ",
" X++X  X+&&+X ",
" @23@  +2qq<+ ",
" -qq-  &6ii4& ",
" -qq-  &6ii4& ",
" -qq-  &6ii4& ",
" -qq-  &6ii4& ",
" -qq-  &6ii4& ",
" -qq-  &6ii4& ",
" &6e>$$:wii4& ",
" &6utqqeyii4& ",
" +<qqqqeyii4& ",
" X+&-&&:wii4& ",
"       &6ii4& ",
"pppppp &4ii4& ",
"pppppp &4ii4& ",
"pppppp &4ii4& ",
"pppppp +<qq<+ ",
"pppppp X+&&+X ",
"pppppp        "
};
