/* XPM */
static const char *number_0_xpm[] = {
/* columns rows colors chars-per-pixel */
"36 36 209 2 ",
"   c #00B140",
".  c #01B140",
"X  c #01B141",
"o  c #02B241",
"O  c #03B242",
"+  c #04B243",
"@  c #05B243",
"#  c #05B244",
"$  c #05B344",
"%  c #06B345",
"&  c #08B346",
"*  c #09B346",
"=  c #09B447",
"-  c #0AB447",
";  c #0AB448",
":  c #0BB448",
">  c #0CB449",
",  c #0DB54A",
"<  c #0EB54A",
"1  c #0FB54B",
"2  c #0FB64B",
"3  c #10B64C",
"4  c #11B64D",
"5  c #12B64D",
"6  c #12B64E",
"7  c #13B74E",
"8  c #14B74F",
"9  c #15B74F",
"0  c #15B850",
"q  c #17B851",
"w  c #18B852",
"e  c #19B953",
"r  c #1BB954",
"t  c #1EBA56",
"y  c #1EBA57",
"u  c #1FBA57",
"i  c #20BB58",
"p  c #23BC5A",
"a  c #23BC5B",
"s  c #24BC5B",
"d  c #25BC5C",
"f  c #27BD5D",
"g  c #27BD5E",
"h  c #2ABE5F",
"j  c #2ABE60",
"k  c #2BBE60",
"l  c #2CBE61",
"z  c #2DBF61",
"x  c #2DBF62",
"c  c #2EBF62",
"v  c #2EBF63",
"b  c #2FBF63",
"n  c #30BF64",
"m  c #30C064",
"M  c #31C065",
"N  c #32C066",
"B  c #33C166",
"V  c #35C167",
"C  c #36C168",
"Z  c #3CC36C",
"A  c #3FC46F",
"S  c #40C46F",
"D  c #43C572",
"F  c #44C673",
"G  c #46C674",
"H  c #4DC87A",
"J  c #4FC97B",
"K  c #50C97C",
"L  c #51C97D",
"P  c #53CA7E",
"I  c #55CB7F",
"U  c #59CC83",
"Y  c #5ACD84",
"T  c #5BCD84",
"R  c #5CCD85",
"E  c #5DCD85",
"W  c #5ECD86",
"Q  c #5FCE86",
"!  c #60CE88",
"~  c #61CE89",
"^  c #62CF89",
"/  c #62CF8A",
"(  c #63CF8A",
")  c #64D08B",
"_  c #65D08B",
"`  c #67D08D",
"'  c #68D18E",
"]  c #69D18F",
"[  c #6AD18F",
"{  c #6BD190",
"}  c #6CD290",
"|  c #6CD291",
" . c #6DD292",
".. c #6ED292",
"X. c #6FD393",
"o. c #70D394",
"O. c #71D394",
"+. c #72D396",
"@. c #72D495",
"#. c #73D496",
"$. c #77D699",
"%. c #78D69A",
"&. c #79D69A",
"*. c #7CD79D",
"=. c #7FD79F",
"-. c #83D9A1",
";. c #83D9A2",
":. c #84D9A3",
">. c #89DBA6",
",. c #8CDCA9",
"<. c #8EDDAA",
"1. c #8EDCAB",
"2. c #91DDAC",
"3. c #91DDAD",
"4. c #94DEAE",
"5. c #94DEAF",
"6. c #99E0B3",
"7. c #9AE0B3",
"8. c #9BE0B4",
"9. c #9FE1B7",
"0. c #9FE2B7",
"q. c #A0E2B8",
"w. c #A1E2B9",
"e. c #A2E2B9",
"r. c #A3E3BA",
"t. c #A5E3BB",
"y. c #A6E4BC",
"u. c #A9E4BE",
"i. c #ACE5C1",
"p. c #ADE6C1",
"a. c #AEE6C2",
"s. c #B1E7C4",
"d. c #B3E8C6",
"f. c #B4E8C7",
"g. c #B5E8C7",
"h. c #B6E9C8",
"j. c #B7E9C9",
"k. c #B8E9C9",
"l. c #BAE9CB",
"z. c #BAEACB",
"x. c #BBEACB",
"c. c #BBEACC",
"v. c #BCEBCD",
"b. c #BEEBCE",
"n. c #BFEBCF",
"m. c #C0ECD0",
"M. c #C1ECD0",
"N. c #C2ECD1",
"B. c #C3ECD2",
"V. c #C4EDD3",
"C. c #C5EDD3",
"Z. c #C6EED4",
"A. c #C7EED5",
"S. c #C8EED6",
"D. c #C9EED7",
"F. c #CAEFD7",
"G. c #CAEFD8",
"H. c #CCEFD9",
"J. c #CEF0DB",
"K. c #CFF0DB",
"L. c #D1F0DC",
"P. c #D3F1DE",
"I. c #D4F1DF",
"U. c #D4F2DF",
"Y. c #D5F2DF",
"T. c #D8F3E2",
"R. c #D9F3E2",
"E. c #DCF4E5",
"W. c #E0F5E8",
"Q. c #E0F6E8",
"!. c #E1F6E9",
"~. c #E2F6EA",
"^. c #E3F6EA",
"/. c #E4F7EA",
"(. c #E5F7EC",
"). c #E6F7EC",
"_. c #E6F7ED",
"`. c #E7F7ED",
"'. c #E7F8ED",
"]. c #E8F8EE",
"[. c #E9F8EE",
"{. c #EAF8EF",
"}. c #EBF9F0",
"|. c #EDF9F1",
" X c #EEF9F2",
".X c #EEFAF2",
"XX c #EFFAF2",
"oX c #F0FAF4",
"OX c #F0FBF4",
"+X c #F1FBF5",
"@X c #F2FBF5",
"#X c #F3FBF6",
"$X c #F5FCF8",
"%X c #F6FCF8",
"&X c #F7FCF9",
"*X c #F8FDF9",
"=X c #F8FDFA",
"-X c #F9FDFA",
";X c #FAFDFB",
":X c #FAFEFB",
">X c #FBFEFC",
",X c #FCFEFD",
"<X c #FDFEFD",
"1X c #FDFEFE",
"2X c #FDFFFE",
"3X c #FEFEFE",
"4X c #FEFFFE",
"5X c #FEFFFF",
"6X c #FFFFFF",
/* pixels */
"                            $ ; 2 4 4 2 ; +                             ",
"                        9 M Q ,.i.v.c.u.;.P d 2                         ",
"                    - A 2.Q.6X6X6X6X6X6X6X*XK.$.h $                     ",
"                  ; ! K.6X6X6X6X6X6X6X6X6X6X6X*Xs.S +                   ",
"                  ! Q.6X6X6X6X6X6X6X6X6X6X6X6X6X6XB.C                   ",
"                z E.6X6X6X6X6X6X6X6X6X6X6X6X6X6X6X6Xj.2                 ",
"                r.6X6X6X6X6X6X6X6X|.#X6X6X6X6X6X6X6X*X..                ",
"              Z '.6X6X6X6X6X6XP.! M M ..E.6X6X6X6X6X6XY.q               ",
"              2.*X6X6X6X6X6XY.F $     - P Q.6X6X6X6X6X#X`               ",
"            9 K.6X6X6X6X6X*Xo.*         2 ;.6X6X6X6X6X6Xl.+             ",
"            G Q.6X6X6X6X6XP.D             H Q.6X6X6X6X6XR.z             ",
"            @.|.6X6X6X6X6Xi.d             z l.6X6X6X6X6X_.Q             ",
"            5.%X6X6X6X6X6X5.4             w 9.6X6X6X6X6X#X:.            ",
"            i.6X6X6X6X6X>X=.              * >.6X6X6X6X6X*Xr.            ",
"          4 c.6X6X6X6X6X#Xo.                &.*X6X6X6X6X6Xf.-           ",
"          i B.6X6X6X6X6X}.`                 ..#X6X6X6X6X6Xv.w           ",
"          k S.6X6X6X6X6X_.!                 [ |.6X6X6X6X6XC.s           ",
"          n G.6X6X6X6X6XQ.Q                 _ {.6X6X6X6X6XS.k           ",
"          M H.6X6X6X6X6XQ.Y                 ! '.6X6X6X6X6XS.z           ",
"          M H.6X6X6X6X6XQ.T                 ! {.6X6X6X6X6XS.z           ",
"          z S.6X6X6X6X6XQ.Q                 _ {.6X6X6X6X6XA.h           ",
"          d A.6X6X6X6X6X_.!                 [ |.6X6X6X6X6XC.p           ",
"          r B.6X6X6X6X6X|.[                 o.#X6X6X6X6X6Xv.q           ",
"          - f.6X6X6X6X6X%X@.                =.>X6X6X6X6X6Xf.*           ",
"            r.*X6X6X6X6X6X;.$             2 ,.6X6X6X6X6X*Xr.            ",
"            ;.#X6X6X6X6X6X7.9             t t.6X6X6X6X6X#X:.            ",
"            Y _.6X6X6X6X6Xf.k             V B.6X6X6X6X6X'.Q             ",
"            d Y.6X6X6X6X6XQ.P             T |.6X6X6X6X6XR.z             ",
"              i.>X6X6X6X6X6X,.0         t r.6X6X6X6X6X6Xl.$             ",
"              T #X6X6X6X6X6X/.[ r   + i &.|.6X6X6X6X6X#X..              ",
"              4 C.6X6X6X6X6X6X_.8.{ ..r.|.6X6X6X6X6X6XY.t               ",
"                I %X6X6X6X6X6X6X6X6X6X6X6X6X6X6X6X6X6X..                ",
"                - 7.6X6X6X6X6X6X6X6X6X6X6X6X6X6X6X6Xs.4                 ",
"                  p y.6X6X6X6X6X6X6X6X6X6X6X6X6X6Xl.M                   ",
"                    s ,.#X6X6X6X6X6X6X6X6X6X6X%X9.z                     ",
"                      2 G i.#X6X6X6X6X6X6X#Xj.H 4                       "
};
