/* XPM */
static const char *number_4_xpm[] = {
/* columns rows colors chars-per-pixel */
"36 36 126 2 ",
"   c #00B140",
".  c #00B140",
"X  c #00B140",
"o  c #00B140",
"O  c #00B140",
"+  c #00B140",
"@  c #00B140",
"#  c #00B140",
"$  c #00B140",
"%  c #00B140",
"&  c #00B140",
"*  c #00B140",
"=  c #00B140",
"-  c #00B140",
";  c #00B140",
":  c #00B140",
">  c #00B140",
",  c #00B140",
"<  c #00B140",
"1  c #00B140",
"2  c #00B140",
"3  c #00B140",
"4  c #00B140",
"5  c #00B140",
"6  c #00B140",
"7  c #00B140",
"8  c #00B140",
"9  c #00B140",
"0  c #00B140",
"q  c #00B140",
"w  c #00B140",
"e  c #00B140",
"r  c #00B140",
"t  c #00B140",
"y  c #00B140",
"u  c #00B140",
"i  c #00B140",
"p  c #00B140",
"a  c #00B140",
"s  c #00B140",
"d  c #00B140",
"f  c #00B140",
"g  c #00B140",
"h  c #00B140",
"j  c #00B140",
"k  c #00B140",
"l  c #00B140",
"z  c #00B140",
"x  c #00B140",
"c  c #00B140",
"v  c #00B140",
"b  c #00B140",
"n  c #00B140",
"m  c #00B140",
"M  c #00B140",
"N  c #00B140",
"B  c #00B140",
"V  c #00B140",
"C  c #00B140",
"Z  c #00B140",
"A  c #00B140",
"S  c #00B140",
"D  c #00B140",
"F  c #00B140",
"G  c #00B140",
"H  c #00B140",
"J  c #00B140",
"K  c #00B140",
"L  c #00B140",
"P  c #00B140",
"I  c #00B140",
"U  c #00B140",
"Y  c #00B140",
"T  c #00B140",
"R  c #00B140",
"E  c #00B140",
"W  c #00B140",
"Q  c #00B140",
"!  c #00B140",
"~  c #00B140",
"^  c #00B140",
"/  c #00B140",
"(  c #00B140",
")  c #00B140",
"_  c #00B140",
"`  c #00B140",
"'  c #00B140",
"]  c #00B140",
"[  c #00B140",
"{  c #00B140",
"}  c #00B140",
"|  c #00B140",
" . c #00B140",
".. c #00B140",
"X. c #00B140",
"o. c #00B140",
"O. c #00B140",
"+. c #DEF5E6",
"@. c #DEF5E7",
"#. c #E0F5E8",
"$. c #E1F6E8",
"%. c #E4F7EB",
"&. c #E5F7EB",
"*. c #E6F7EC",
"=. c #E8F8ED",
"-. c #EAF9F0",
";. c #EFFAF3",
":. c #F1FBF4",
">. c #F2FBF5",
",. c #F3FBF6",
"<. c #F5FCF7",
"1. c #F6FCF8",
"2. c #F7FCF9",
"3. c #F8FDFA",
"4. c #F9FDFB",
"5. c #FAFEFB",
"6. c #FAFDFC",
"7. c #FBFEFC",
"8. c #FCFEFC",
"9. c #FCFEFD",
"0. c #FDFEFD",
"q. c #FDFEFE",
"w. c #FEFEFE",
"e. c #FEFFFE",
"r. c #FEFFFF",
"t. c #FFFFFF",
/* pixels */
"                                                                        ",
"                                      > l z z z z z h                   ",
"                                    = Z 3.e.e.e.e.e.[                   ",
"                                    j O.e.e.e.e.e.e.[                   ",
"                                  > Q e.e.e.e.e.e.e.[                   ",
"                                  A 7.e.e.e.e.e.e.e.[                   ",
"                                l O.e.e.e.e.e.e.e.e.[                   ",
"                              5 Q e.e.e.e.e.e.e.e.e.[                   ",
"                              D >.e.e.e.e.e.e.e.e.e.[                   ",
"                            m O.e.e.e.e.e.e.e.e.e.e.[                   ",
"                          t Q e.e.e.3.` *.e.e.e.e.e.[                   ",
"                        > G >.e.e.e.$.V -.e.e.e.e.e.[                   ",
"                      * m o.e.e.e.e.H s >.e.e.e.e.e.[                   ",
"                      u Q e.e.e.e.[ 0 s 7.e.e.e.e.e.[                   ",
"                    > G 1.e.e.e.>.M   h e.e.e.e.e.e.[                   ",
"                  # b *.e.e.e.e.K >   l e.e.e.e.e.e.[                   ",
"                  0 ' e.e.e.e.' s     x e.e.e.e.e.e.[                   ",
"                  P e.e.e.e.>.B *     c e.e.e.e.e.e.[                   ",
"                b e.e.e.e.3.J 2       b e.e.e.e.e.e.[                   ",
"              w X.e.e.e.e.) d         b e.e.e.e.e.e.[                   ",
"            > Y 3.e.e.e.%.V *         b e.e.e.e.e.e.[                   ",
"          * V =.e.e.e.<.I 5           b e.e.e.e.e.e.[                   ",
"          h ` e.e.e.e.[ n 4 4 4 4 4 5 N e.e.e.e.e.e. .2 4 4 > #         ",
"        1 P 1.e.e.e.e.*.E T T T T T T ) e.e.e.e.e.e.;.T T T S q         ",
"        t ~ e.e.e.e.e.e.e.e.e.e.e.e.e.e.e.e.e.e.e.e.e.e.e.e.) s         ",
"        u ^ e.e.e.e.e.e.e.e.e.e.e.e.e.e.e.e.e.e.e.e.e.e.e.e.) s         ",
"        u ^ e.e.e.e.e.e.e.e.e.e.e.e.e.e.e.e.e.e.e.e.e.e.e.e.) s         ",
"        u ^ e.e.e.e.e.e.e.e.e.e.e.e.e.e.e.e.e.e.e.e.e.e.e.e.( s         ",
"        w Y [ [ [ [ [ [ [ [ [ [ [ [  .$.e.e.e.e.e.e.1.[ [ [ Y t         ",
"        # > 5 5 5 5 5 5 5 5 5 5 5 5 0 B e.e.e.e.e.e. .5 5 5 > #         ",
"                                      b e.e.e.e.e.e.[                   ",
"                                      b e.e.e.e.e.e.[                   ",
"                                      b e.e.e.e.e.e.[                   ",
"                                      b e.e.e.e.e.e.[                   ",
"                                      b e.e.e.e.e.e.[                   ",
"                                      b e.e.e.e.e.e.[                   "
};
