/* XPM */
static xpm_row_t const number_3_xpm[] = {
/* columns rows colors chars-per-pixel */
"14 20 41 1 ",
"  c #000000",
". c #0E0E0E",
"X c #0F0F0F",
"o c #2D2D2D",
"O c #2E2E2E",
"+ c #2F2F2F",
"@ c #303030",
"# c #313131",
"$ c #393939",
"% c #3B3B3B",
"& c #3C3C3C",
"* c #3D3D3D",
"= c #3E3E3E",
"- c #3F3F3F",
"; c #404040",
": c #414141",
"> c #424242",
", c #434343",
"< c #6C6C6C",
"1 c #6F6F6F",
"2 c #8F8F8F",
"3 c #919191",
"4 c #939393",
"5 c #959595",
"6 c #BFBFBF",
"7 c #C0C0C0",
"8 c #C1C1C1",
"9 c #C3C3C3",
"0 c #C4C4C4",
"q c #C5C5C5",
"w c #C6C6C6",
"e c #C7C7C7",
"r c #C9C9C9",
"t c #CACACA",
"y c #CCCCCC",
"u c #D0D0D0",
"i c #D1D1D1",
"p c #D5D5D5",
"a c #F0F0F0",
"s c #F2F2F2",
"d c #F8F8F8",
/* pixels */
"              ",
" X@::::----+X ",
" +4rqqq99992+ ",
" +5yrqqpsdd6- ",
" X@::--1idd6- ",
"       -9dd6- ",
"       -9dd6- ",
" X@::--1idd6- ",
" +5yrqqpsdd6- ",
" +5yrqqpsdd6- ",
" X@::--1idd6- ",
"       -9dd6- ",
"       -9dd6- ",
" X+--%%1idd6- ",
" +4qq99isdd6- ",
" -6dddddddd6- ",
" -6dddddddd6- ",
" +2996666992+ ",
" X+--------+X ",
"              "
};
