/* XPM */
static xpm_row_t const number_5_xpm[] = {
/* columns rows colors chars-per-pixel */
"14 20 47 1 ",
"  c black",
". c #0D0D0D",
"X c #0E0E0E",
"o c #0F0F0F",
"O c #2A2A2A",
"+ c #2C2C2C",
"@ c #2D2D2D",
"# c #2E2E2E",
"$ c #303030",
"% c #373737",
"& c #383838",
"* c #393939",
"= c #3A3A3A",
"- c #3B3B3B",
"; c #3C3C3C",
": c #3D3D3D",
"> c #3E3E3E",
", c #3F3F3F",
"< c #404040",
"1 c #414141",
"2 c #6C6C6C",
"3 c #6E6E6E",
"4 c #6F6F6F",
"5 c #8E8E8E",
"6 c #8F8F8F",
"7 c #929292",
"8 c #939393",
"9 c #BFBFBF",
"0 c #C0C0C0",
"q c #C1C1C1",
"w c #C2C2C2",
"e c #C3C3C3",
"r c #C4C4C4",
"t c #C5C5C5",
"y c #C6C6C6",
"u c #C7C7C7",
"i c #C8C8C8",
"p c #C9C9C9",
"a c #D0D0D0",
"s c #D1D1D1",
"d c #D5D5D5",
"f c #D6D6D6",
"g c #F0F0F0",
"h c #F2F2F2",
"j c #F7F7F7",
"k c white",
"l c None",
/* pixels */
"              ",
" X@,<<<<<<<$X ",
" @6ttttttii7@ ",
" ,0jf00ttti7@ ",
" ,0f3%---,,@X ",
" ,0f3%-----OX ",
" ,0jf0009006@ ",
" @6tittfhkk9, ",
" X@,<,,3skk9, ",
"       ,0kk9, ",
"llll   ,0kk9, ",
"llll   ,0kk9, ",
"       ,0kk9, ",
" X@,,--3skk9, ",
" @6t000shkk9, ",
" ,9kkkkkkkk9, ",
" ,9kkkkkkkk9, ",
" @6009999006@ ",
" X@,,,,,,,,@X ",
"              "
};
