/* XPM */
static const char *number_7_xpm[] = {
/* columns rows colors chars-per-pixel */
"36 36 128 2 ",
"   c #00B140",
".  c #00B140",
"X  c #00B140",
"o  c #00B140",
"O  c #00B140",
"+  c #00B140",
"@  c #00B140",
"#  c #00B140",
"$  c #00B140",
"%  c #00B140",
"&  c #00B140",
"*  c #00B140",
"=  c #00B140",
"-  c #00B140",
";  c #00B140",
":  c #00B140",
">  c #00B140",
",  c #00B140",
"<  c #00B140",
"1  c #00B140",
"2  c #00B140",
"3  c #00B140",
"4  c #00B140",
"5  c #00B140",
"6  c #00B140",
"7  c #00B140",
"8  c #00B140",
"9  c #00B140",
"0  c #00B140",
"q  c #00B140",
"w  c #00B140",
"e  c #00B140",
"r  c #00B140",
"t  c #00B140",
"y  c #00B140",
"u  c #00B140",
"i  c #00B140",
"p  c #00B140",
"a  c #00B140",
"s  c #00B140",
"d  c #00B140",
"f  c #00B140",
"g  c #00B140",
"h  c #00B140",
"j  c #00B140",
"k  c #00B140",
"l  c #00B140",
"z  c #00B140",
"x  c #00B140",
"c  c #00B140",
"v  c #00B140",
"b  c #00B140",
"n  c #00B140",
"m  c #00B140",
"M  c #00B140",
"N  c #00B140",
"B  c #00B140",
"V  c #00B140",
"C  c #00B140",
"Z  c #00B140",
"A  c #00B140",
"S  c #00B140",
"D  c #00B140",
"F  c #00B140",
"G  c #00B140",
"H  c #00B140",
"J  c #00B140",
"K  c #00B140",
"L  c #00B140",
"P  c #00B140",
"I  c #00B140",
"U  c #00B140",
"Y  c #00B140",
"T  c #00B140",
"R  c #00B140",
"E  c #00B140",
"W  c #00B140",
"Q  c #00B140",
"!  c #00B140",
"~  c #00B140",
"^  c #00B140",
"/  c #00B140",
"(  c #00B140",
")  c #00B140",
"_  c #00B140",
"`  c #00B140",
"'  c #00B140",
"]  c #00B140",
"[  c #00B140",
"{  c #00B140",
"}  c #00B140",
"|  c #00B140",
" . c #00B140",
".. c #00B140",
"X. c #00B140",
"o. c #00B140",
"O. c #00B140",
"+. c #00B140",
"@. c #00B140",
"#. c #00B140",
"$. c #00B140",
"%. c #E3F6EA",
"&. c #E4F7EA",
"*. c #E5F7EB",
"=. c #E6F7EC",
"-. c #E6F8EC",
";. c #E8F8EE",
":. c #EAF9F0",
">. c #EBF9F0",
",. c #EFFAF3",
"<. c #F1FBF5",
"1. c #F2FBF5",
"2. c #F3FBF5",
"3. c #F3FBF6",
"4. c #F5FCF8",
"5. c #F6FCF8",
"6. c #F7FDF9",
"7. c #F8FDFA",
"8. c #F9FDFA",
"9. c #F9FDFB",
"0. c #FAFDFB",
"q. c #FAFEFB",
"w. c #FBFEFC",
"e. c #FCFEFD",
"r. c #FDFEFD",
"t. c #FEFFFE",
"y. c #FEFFFF",
"u. c #FFFFFF",
/* pixels */
"                                                                        ",
"          7 u p p p p p p p p p p p p p p p p p p p p p p r 2           ",
"          H 3.u.u.u.u.u.u.u.u.u.u.u.u.u.u.u.u.u.u.u.u.u.u.@.j           ",
"          H 3.u.u.u.u.u.u.u.u.u.u.u.u.u.u.u.u.u.u.u.u.u.u.@.j           ",
"          H 3.u.u.u.u.u.u.u.u.u.u.u.u.u.u.u.u.u.u.u.u.u.u.@.j           ",
"          H 3.u.u.u.u.u.u.u.u.u.u.u.u.u.u.u.u.u.u.u.u.u.u.@.j           ",
"          H 3.u.u.u.u.u.u.u.u.u.u.u.u.u.u.u.u.u.u.u.u.u.u. .p           ",
"          V } X.X.X.X.X.X.X.X.X.X.X.X.X.X.o.>.u.u.u.u.u.0.R =           ",
"          = 2 3 3 3 3 3 3 3 3 3 3 3 3 3 3 p ) u.u.u.u.u.*.c             ",
"                                          n ,.u.u.u.u.u.` #             ",
"                                        0 E u.u.u.u.u.3.M               ",
"                                      @ j ;.u.u.u.u.u.X.4               ",
"                                      5 Y u.u.u.u.u.u.D                 ",
"                                      d *.u.u.u.u.u.>.7                 ",
"                                    = L u.u.u.u.u.u.Y                   ",
"                                    w %.u.u.u.u.u.3.u                   ",
"                                    F u.u.u.u.u.u.! 2                   ",
"                                  = -.u.u.u.u.u.w.j @                   ",
"                                  Z u.u.u.u.u.u.( 7                     ",
"                                2 X.u.u.u.u.u.6.B $                     ",
"                                N 3.u.u.u.u.u.[ r                       ",
"                              3 _ u.u.u.u.u.0.F >                       ",
"                              v =.u.u.u.u.u.o.h                         ",
"                            2 E 0.u.u.u.u.u.I 5                         ",
"                            j @.u.u.u.u.u.$.b                           ",
"                          > I 0.u.u.u.u.u.~ 7                           ",
"                          f  .u.u.u.u.u.>.A                             ",
"                        = K 0.u.u.u.u.u.] w                             ",
"                        p [ u.u.u.u.u.3.J                               ",
"                      = S 6.u.u.u.u.u.+.r                               ",
"                      e ` u.u.u.u.u.0.T @                               ",
"                    # M 3.u.u.u.u.u.>.f                                 ",
"                    7 / u.u.u.u.u.u.^ $                                 ",
"                  @ j 3.u.u.u.u.u.u.j                                   ",
"                  > Q u.u.u.u.u.u.+.$                                   ",
"                  u 6.u.u.u.u.u.u.C                                     "
};
