/* XPM */
static xpm_row_t const number_0_xpm[] = {
/* columns rows colors chars-per-pixel */
"14 20 44 1 ",
"  c #000000",
". c #020202",
"X c #060606",
"o c #080808",
"O c #090909",
"+ c #0E0E0E",
"@ c #121212",
"# c #323232",
"$ c #444444",
"% c #454545",
"& c #464646",
"* c #474747",
"= c #484848",
"- c #494949",
"; c #4A4A4A",
": c #4B4B4B",
"> c #4D4D4D",
", c #4E4E4E",
"< c #515151",
"1 c #7E7E7E",
"2 c #818181",
"3 c #838383",
"4 c #AFAFAF",
"5 c #B0B0B0",
"6 c #B1B1B1",
"7 c #B2B2B2",
"8 c #B3B3B3",
"9 c #B4B4B4",
"0 c #B5B5B5",
"q c #B6B6B6",
"w c #B7B7B7",
"e c #B8B8B8",
"r c #B9B9B9",
"t c #C7C7C7",
"y c #CACACA",
"u c #CCCCCC",
"i c #CECECE",
"p c #E2E2E2",
"a c #E5E5E5",
"s c #EEEEEE",
"d c #F4F4F4",
"f c #F5F5F5",
"g c #F6F6F6",
"h c #F9F9F9",
/* pixels */
"  XooooooooX  ",
" @#&====&=&#@ ",
"X#2707770e72#X",
"o&4pu00yads7&o",
"o=0y2>>1uhd0&o",
"o=70<++>edd0&o",
"o=77=oo&0dd0&o",
"o=77=oo=0dd0&o",
"o=77=oo=0dd0&o",
"o=77=oo=0dd0&o",
"o=77=oo=0dd0&o",
"o=77=oo=0dd0&o",
"o=77=oo=0dd0&o",
"o=77=oo&0dd0&o",
"o=70<++>edd0&o",
"o=0y2>>1uhd0=o",
"o&7pu00tads7&o",
"X#2707770072#X",
" @#&=====&&#@ ",
"  XooooooooX  "
};
