/* XPM */
static const char *number_3_xpm[] = {
/* columns rows colors chars-per-pixel */
"36 36 206 2 ",
"   c #00B140",
".  c #00B140",
"X  c #00B140",
"o  c #00B140",
"O  c #00B140",
"+  c #00B140",
"@  c #00B140",
"#  c #00B140",
"$  c #00B140",
"%  c #00B140",
"&  c #00B140",
"*  c #00B140",
"=  c #00B140",
"-  c #00B140",
";  c #00B140",
":  c #00B140",
">  c #00B140",
",  c #00B140",
"<  c #00B140",
"1  c #00B140",
"2  c #00B140",
"3  c #00B140",
"4  c #00B140",
"5  c #00B140",
"6  c #00B140",
"7  c #00B140",
"8  c #00B140",
"9  c #00B140",
"0  c #00B140",
"q  c #00B140",
"w  c #00B140",
"e  c #00B140",
"r  c #00B140",
"t  c #00B140",
"y  c #00B140",
"u  c #00B140",
"i  c #00B140",
"p  c #00B140",
"a  c #00B140",
"s  c #00B140",
"d  c #00B140",
"f  c #00B140",
"g  c #00B140",
"h  c #00B140",
"j  c #00B140",
"k  c #00B140",
"l  c #00B140",
"z  c #00B140",
"x  c #00B140",
"c  c #00B140",
"v  c #00B140",
"b  c #00B140",
"n  c #00B140",
"m  c #00B140",
"M  c #00B140",
"N  c #00B140",
"B  c #00B140",
"V  c #00B140",
"C  c #00B140",
"Z  c #00B140",
"A  c #00B140",
"S  c #00B140",
"D  c #00B140",
"F  c #00B140",
"G  c #00B140",
"H  c #00B140",
"J  c #00B140",
"K  c #00B140",
"L  c #00B140",
"P  c #00B140",
"I  c #00B140",
"U  c #00B140",
"Y  c #00B140",
"T  c #00B140",
"R  c #00B140",
"E  c #00B140",
"W  c #00B140",
"Q  c #00B140",
"!  c #00B140",
"~  c #00B140",
"^  c #00B140",
"/  c #00B140",
"(  c #00B140",
")  c #00B140",
"_  c #00B140",
"`  c #00B140",
"'  c #00B140",
"]  c #00B140",
"[  c #00B140",
"{  c #00B140",
"}  c #00B140",
"|  c #00B140",
" . c #00B140",
".. c #00B140",
"X. c #00B140",
"o. c #00B140",
"O. c #00B140",
"+. c #00B140",
"@. c #00B140",
"#. c #00B140",
"$. c #00B140",
"%. c #00B140",
"&. c #00B140",
"*. c #00B140",
"=. c #00B140",
"-. c #00B140",
";. c #00B140",
":. c #00B140",
">. c #00B140",
",. c #00B140",
"<. c #00B140",
"1. c #00B140",
"2. c #00B140",
"3. c #00B140",
"4. c #00B140",
"5. c #00B140",
"6. c #00B140",
"7. c #00B140",
"8. c #00B140",
"9. c #00B140",
"0. c #00B140",
"q. c #00B140",
"w. c #00B140",
"e. c #00B140",
"r. c #00B140",
"t. c #00B140",
"y. c #00B140",
"u. c #00B140",
"i. c #00B140",
"p. c #00B140",
"a. c #00B140",
"s. c #00B140",
"d. c #00B140",
"f. c #00B140",
"g. c #00B140",
"h. c #00B140",
"j. c #00B140",
"k. c #00B140",
"l. c #00B140",
"z. c #00B140",
"x. c #00B140",
"c. c #00B140",
"v. c #00B140",
"b. c #00B140",
"n. c #00B140",
"m. c #00B140",
"M. c #00B140",
"N. c #00B140",
"B. c #00B140",
"V. c #00B140",
"C. c #00B140",
"Z. c #00B140",
"A. c #00B140",
"S. c #00B140",
"D. c #00B140",
"F. c #00B140",
"G. c #00B140",
"H. c #00B140",
"J. c #00B140",
"K. c #00B140",
"L. c #00B140",
"P. c #00B140",
"I. c #00B140",
"U. c #00B140",
"Y. c #00B140",
"T. c #00B140",
"R. c #00B140",
"E. c #00B140",
"W. c #E0F5E8",
"Q. c #E1F6E8",
"!. c #E1F6E9",
"~. c #E5F7EB",
"^. c #E5F7EC",
"/. c #E6F7EC",
"(. c #E6F7ED",
"). c #E7F7ED",
"_. c #E7F8ED",
"`. c #E8F8EE",
"'. c #EAF8EF",
"]. c #EAF9EF",
"[. c #ECF9F1",
"{. c #EDF9F2",
"}. c #EDFAF2",
"|. c #EFFAF3",
" X c #F1FBF5",
".X c #F2FBF5",
"XX c #F3FBF6",
"oX c #F5FBF7",
"OX c #F5FCF8",
"+X c #F6FCF8",
"@X c #F7FCF9",
"#X c #F8FDF9",
"$X c #F8FDFA",
"%X c #F9FDFA",
"&X c #F9FDFB",
"*X c #FAFDFB",
"=X c #FBFDFC",
"-X c #FBFEFC",
";X c #FCFEFD",
":X c #FDFEFD",
">X c #FDFEFE",
",X c #FDFFFE",
"<X c #FEFEFE",
"1X c #FEFFFE",
"2X c #FEFFFF",
"3X c #FFFFFF",
/* pixels */
"                          * , 4 6 6 6 4 : *                             ",
"                  # r k S ..3.y.h.z.h.w.-.~ b a *                       ",
"                g Y 9.L.%X>X>X>X>X>X>X>X>X>X_.a.) g                     ",
"            u Q a.XX>X>X>X>X>X>X>X>X>X>X>X>X>X>XXXy.C                   ",
"            X.Q.>X>X>X>X>X>X>X>X>X>X>X>X>X>X>X>X>X>XZ.b                 ",
"            ) /.>X>X>X>X>X>X>X>X>X>X>X>X>X>X>X>X>X>X>Xh.4               ",
"            4 q.%X>X>X>X>X>X>X=XXXoX>X>X>X>X>X>X>X>X>X}.E               ",
"              g L.>X>X>XQ.r.' V v b K 5./.>X>X>X>X>X>X%Xr.              ",
"                L >X/.%.h 4 *         4 Y Q.>X>X>X>X>X>XV.              ",
"                  ) s                   6 1.>X>X>X>X>X>XG.              ",
"                                          [ =X>X>X>X>X>XM.              ",
"                                          { %X>X>X>X>X%Xw.              ",
"                                        6 1.>X>X>X>X>X}.E               ",
"                                      * D G.>X>X>X>X>Xc.6               ",
"                                    l | V.=X>X>X>X>X/.S                 ",
"                    : F %.%.*.>.7.s.S.~.>X>X>X>X>XR.~ #                 ",
"                    6 3.}.}.}.XX+X>X>X>X>X>X>X%Xj.S ;                   ",
"                    w 7.>X>X>X>X>X>X>X>X>X_.y.K w                       ",
"                    w 7.>X>X>X>X>X>X>X>X>X`.b.1.Z r *                   ",
"                    w 7.>X>X>X>X>X>X>X>X>X>X>X>X=XN.E 6                 ",
"                    6 *.U.U.R.R./. X>X>X>X>X>X>X>X>X+X*.r               ",
"                    * v Y Y Y ~ } #.q.b.`.>X>X>X>X>X>XXX#.*             ",
"                                    * v o.J.>X>X>X>X>X>XI.V             ",
"                                        4 X.`.>X>X>X>X>XXX:.            ",
"                                          b V.>X>X>X>X>X>Xh.*           ",
"                                          k h.>X>X>X>X>X>Xb.w           ",
"                                          l z.>X>X>X>X>X>Xb.r           ",
"                                          K I.>X>X>X>X>X>Xj.*           ",
"          6 Z l 6                       u 5.>X>X>X>X>X>X+X9.            ",
"          k V.H.>.F v u :         # t N 1.}.>X>X>X>X>X>X_.)             ",
"          k S.>X>X}.N.q.#.[ ) ^ ) X.7.D.%X>X>X>X>X>X>X>XV.s             ",
"          k S.>X>X>X>X>X>X%XXXXX+X>X>X>X>X>X>X>X>X>X>X}.)               ",
"          k S.>X>X>X>X>X>X>X>X>X>X>X>X>X>X>X>X>X>X>X%X:.4               ",
"          k S.>X>X>X>X>X>X>X>X>X>X>X>X>X>X>X>X>X>X}.*.w                 ",
"          u r.oX>X>X>X>X>X>X>X>X>X>X>X>X>X>X>X%Xx.P 6                   ",
"            4 b O.Z.XX>X>X>X>X>X>X>X>X>X>XR.w.F r #                     "
};
