/* XPM */
static xpm_row_t const number_7_xpm[] = {

/* columns rows colors chars-per-pixel */
"14 20 34 1 ",
"  c #000000",
". c #0C0C0C",
"X c #0E0E0E",
"o c #0F0F0F",
"O c #2A2A2A",
"+ c #2D2D2D",
"@ c #2E2E2E",
"# c #303030",
"$ c #3C3C3C",
"% c #3D3D3D",
"& c #3E3E3E",
"* c #3F3F3F",
"= c #404040",
"- c #414141",
"; c #6F6F6F",
": c #8F8F8F",
"> c #939393",
", c #BFBFBF",
"< c #C0C0C0",
"1 c #C1C1C1",
"2 c #C3C3C3",
"3 c #C4C4C4",
"4 c #C5C5C5",
"5 c #C6C6C6",
"6 c #C7C7C7",
"7 c #C9C9C9",
"8 c #D1D1D1",
"9 c #D3D3D3",
"0 c #D5D5D5",
"q c #D8D8D8",
"w c #F2F2F2",
"e c #F8F8F8",
"r c #FFFFFF",
"t c #00b140",
/* pixels */
"              ",
" o#----%%%%@o ",
" @>73332222:@ ",
" @>73330wrr,% ",
" o#--%%;8rr,% ",
"       %2rr,% ",
"tttttt %,rr,% ",
"tttttt %,rr,% ",
"tttttt %,rr,% ",
"tttttt %,rr,% ",
"tttt   %2rr,% ",
"tttt oO;8eq:@ ",
"tttt @:qe8;Oo ",
"tttt %,rr2%   ",
"tttt %,rr,% tt",
"tttt %,rr,% tt",
"tttt %,rr,% tt",
"tttt @:33:@ tt",
"tttt o@%%@o tt",
"tttt        tt"
};
