/* XPM */
static const char *number_5_xpm[] = {
/* columns rows colors chars-per-pixel */
"36 36 167 2 ",
"   c #00B140",
".  c #00B140",
"X  c #00B140",
"o  c #00B140",
"O  c #00B140",
"+  c #00B140",
"@  c #00B140",
"#  c #00B140",
"$  c #00B140",
"%  c #00B140",
"&  c #00B140",
"*  c #00B140",
"=  c #00B140",
"-  c #00B140",
";  c #00B140",
":  c #00B140",
">  c #00B140",
",  c #00B140",
"<  c #00B140",
"1  c #00B140",
"2  c #00B140",
"3  c #00B140",
"4  c #00B140",
"5  c #00B140",
"6  c #00B140",
"7  c #00B140",
"8  c #00B140",
"9  c #00B140",
"0  c #00B140",
"q  c #00B140",
"w  c #00B140",
"e  c #00B140",
"r  c #00B140",
"t  c #00B140",
"y  c #00B140",
"u  c #00B140",
"i  c #00B140",
"p  c #00B140",
"a  c #00B140",
"s  c #00B140",
"d  c #00B140",
"f  c #00B140",
"g  c #00B140",
"h  c #00B140",
"j  c #00B140",
"k  c #00B140",
"l  c #00B140",
"z  c #00B140",
"x  c #00B140",
"c  c #00B140",
"v  c #00B140",
"b  c #00B140",
"n  c #00B140",
"m  c #00B140",
"M  c #00B140",
"N  c #00B140",
"B  c #00B140",
"V  c #00B140",
"C  c #00B140",
"Z  c #00B140",
"A  c #00B140",
"S  c #00B140",
"D  c #00B140",
"F  c #00B140",
"G  c #00B140",
"H  c #00B140",
"J  c #00B140",
"K  c #00B140",
"L  c #00B140",
"P  c #00B140",
"I  c #00B140",
"U  c #00B140",
"Y  c #00B140",
"T  c #00B140",
"R  c #00B140",
"E  c #00B140",
"W  c #00B140",
"Q  c #00B140",
"!  c #00B140",
"~  c #00B140",
"^  c #00B140",
"/  c #00B140",
"(  c #00B140",
")  c #00B140",
"_  c #00B140",
"`  c #00B140",
"'  c #00B140",
"]  c #00B140",
"[  c #00B140",
"{  c #00B140",
"}  c #00B140",
"|  c #00B140",
" . c #00B140",
".. c #00B140",
"X. c #00B140",
"o. c #00B140",
"O. c #00B140",
"+. c #00B140",
"@. c #00B140",
"#. c #00B140",
"$. c #00B140",
"%. c #00B140",
"&. c #00B140",
"*. c #00B140",
"=. c #00B140",
"-. c #00B140",
";. c #00B140",
":. c #00B140",
">. c #00B140",
",. c #00B140",
"<. c #00B140",
"1. c #00B140",
"2. c #00B140",
"3. c #00B140",
"4. c #00B140",
"5. c #00B140",
"6. c #00B140",
"7. c #00B140",
"8. c #00B140",
"9. c #00B140",
"0. c #00B140",
"q. c #00B140",
"w. c #00B140",
"e. c #00B140",
"r. c #00B140",
"t. c #00B140",
"y. c #00B140",
"u. c #00B140",
"i. c #00B140",
"p. c #00B140",
"a. c #00B140",
"s. c #E0F6E8",
"d. c #E2F6E9",
"f. c #E3F6EA",
"g. c #E4F7EA",
"h. c #E4F6EB",
"j. c #E4F7EB",
"k. c #E5F7EB",
"l. c #E6F7EC",
"z. c #E7F7ED",
"x. c #E8F8ED",
"c. c #E9F8EE",
"v. c #EBF9F0",
"b. c #EDF9F1",
"n. c #EDF9F2",
"m. c #EEFAF2",
"M. c #EFFAF3",
"N. c #F0FAF4",
"B. c #F1FBF4",
"V. c #F2FBF6",
"C. c #F3FBF6",
"Z. c #F4FCF6",
"A. c #F5FCF7",
"S. c #F5FCF8",
"D. c #F6FCF8",
"F. c #F7FDF9",
"G. c #F9FDFB",
"H. c #FAFDFB",
"J. c #FAFDFC",
"K. c #FAFEFC",
"L. c #FBFEFC",
"P. c #FCFEFD",
"I. c #FDFEFD",
"U. c #FDFEFE",
"Y. c #FDFFFE",
"T. c #FEFFFE",
"R. c #FFFFFF",
/* pixels */
"                                                                        ",
"                6 v v v v v v v v v v v v v v v v v v -                 ",
"                Q R.R.R.R.R.R.R.R.R.R.R.R.R.R.R.R.R.R.g                 ",
"                { R.R.R.R.R.R.R.R.R.R.R.R.R.R.R.R.R.R.g                 ",
"                +.R.R.R.R.R.R.R.R.R.R.R.R.R.R.R.R.R.R.g                 ",
"                ,.R.R.R.R.R.R.R.R.R.R.R.R.R.R.R.R.R.R.g                 ",
"                8.R.R.R.R.R.R.R.R.R.R.R.R.R.R.R.R.R.R.g                 ",
"                y.R.R.R.R.R.Z.i.e.e.e.e.e.e.e.e.e.e.e.t                 ",
"              # h.R.R.R.R.R.4.h , , , , , , , , , , , @                 ",
"              3 c.R.R.R.R.R.$.0                                         ",
"              u v.R.R.R.R.R...3                                         ",
"              j b.R.R.R.R.R.' >                                         ",
"              m b.R.R.R.R.R.~ =                                         ",
"              S B.R.R.R.R.R.J - 3 r u r 3 &                             ",
"              F B.R.R.R.R.R.,.X.=.1.2.1.=. .Y k =                       ",
"              ~ S.R.R.R.R.R.H.R.R.R.R.R.R.R.b.e.| p                     ",
"              [ S.R.R.R.R.R.R.R.R.R.R.R.R.R.R.R.S.0.v                   ",
"              X.H.R.R.R.R.R.R.R.R.R.R.R.R.R.R.R.R.R.z.g                 ",
"              #.H.R.R.R.R.R.R.R.R.R.R.R.R.R.R.R.R.R.R.r.2               ",
"              Z 7.b.K.B.z.a.i.y.i.s.b.R.R.R.R.R.R.R.R.S./               ",
"                , R @./ D c s u g v Y ;.h.R.R.R.R.R.R.R.9.2             ",
"                                      > P i.R.R.R.R.R.R.s.N             ",
"                                        > ~ B.R.R.R.R.R.b.U             ",
"                                          z 0.R.R.R.R.R.B._             ",
"                                          t ;.R.R.R.R.R.Z.[             ",
"                                          r =.R.R.R.R.R.Z.`             ",
"                                          g 4.R.R.R.R.R.b.Q             ",
"            @                             S z.R.R.R.R.R.h.Z             ",
"            j z 6 &                     p =.R.R.R.R.R.R.r.u             ",
"            E h.,.P c p 3 > % @ # > 0 N $.K.R.R.R.R.R.K.$.              ",
"            E b.R.R.c.4.X.) Y P Y ) &.s.R.R.R.R.R.R.R.c.B               ",
"            E b.R.R.R.R.R.R.R.R.R.R.R.R.R.R.R.R.R.R.R.| &               ",
"            E b.R.R.R.R.R.R.R.R.R.R.R.R.R.R.R.R.R.R.1.0                 ",
"            E b.R.R.R.R.R.R.R.R.R.R.R.R.R.R.R.R.K.#.g                   ",
"            Z a.R.R.R.R.R.R.R.R.R.R.R.R.R.R.R.y.I 0                     ",
"            % 0 F 7.B.R.R.R.R.R.R.R.R.R.B.4.J w %                       "
};
