/* XPM */
static const char *number_9_xpm[] = {
/* columns rows colors chars-per-pixel */
"36 36 225 2 ",
"   c #00B140",
".  c #00B140",
"X  c #00B140",
"o  c #00B140",
"O  c #00B140",
"+  c #00B140",
"@  c #00B140",
"#  c #00B140",
"$  c #00B140",
"%  c #00B140",
"&  c #00B140",
"*  c #00B140",
"=  c #00B140",
"-  c #00B140",
";  c #00B140",
":  c #00B140",
">  c #00B140",
",  c #00B140",
"<  c #00B140",
"1  c #00B140",
"2  c #00B140",
"3  c #00B140",
"4  c #00B140",
"5  c #00B140",
"6  c #00B140",
"7  c #00B140",
"8  c #00B140",
"9  c #00B140",
"0  c #00B140",
"q  c #00B140",
"w  c #00B140",
"e  c #00B140",
"r  c #00B140",
"t  c #00B140",
"y  c #00B140",
"u  c #00B140",
"i  c #00B140",
"p  c #00B140",
"a  c #00B140",
"s  c #00B140",
"d  c #00B140",
"f  c #00B140",
"g  c #00B140",
"h  c #00B140",
"j  c #00B140",
"k  c #00B140",
"l  c #00B140",
"z  c #00B140",
"x  c #00B140",
"c  c #00B140",
"v  c #00B140",
"b  c #00B140",
"n  c #00B140",
"m  c #00B140",
"M  c #00B140",
"N  c #00B140",
"B  c #00B140",
"V  c #00B140",
"C  c #00B140",
"Z  c #00B140",
"A  c #00B140",
"S  c #00B140",
"D  c #00B140",
"F  c #00B140",
"G  c #00B140",
"H  c #00B140",
"J  c #00B140",
"K  c #00B140",
"L  c #00B140",
"P  c #00B140",
"I  c #00B140",
"U  c #00B140",
"Y  c #00B140",
"T  c #00B140",
"R  c #00B140",
"E  c #00B140",
"W  c #00B140",
"Q  c #00B140",
"!  c #00B140",
"~  c #00B140",
"^  c #00B140",
"/  c #00B140",
"(  c #00B140",
")  c #00B140",
"_  c #00B140",
"`  c #00B140",
"'  c #00B140",
"]  c #00B140",
"[  c #00B140",
"{  c #00B140",
"}  c #00B140",
"|  c #00B140",
" . c #00B140",
".. c #00B140",
"X. c #00B140",
"o. c #00B140",
"O. c #00B140",
"+. c #00B140",
"@. c #00B140",
"#. c #00B140",
"$. c #00B140",
"%. c #00B140",
"&. c #00B140",
"*. c #00B140",
"=. c #00B140",
"-. c #00B140",
";. c #00B140",
":. c #00B140",
">. c #00B140",
",. c #00B140",
"<. c #00B140",
"1. c #00B140",
"2. c #00B140",
"3. c #00B140",
"4. c #00B140",
"5. c #00B140",
"6. c #00B140",
"7. c #00B140",
"8. c #00B140",
"9. c #00B140",
"0. c #00B140",
"q. c #00B140",
"w. c #00B140",
"e. c #00B140",
"r. c #00B140",
"t. c #00B140",
"y. c #00B140",
"u. c #00B140",
"i. c #00B140",
"p. c #00B140",
"a. c #00B140",
"s. c #00B140",
"d. c #00B140",
"f. c #00B140",
"g. c #00B140",
"h. c #00B140",
"j. c #00B140",
"k. c #00B140",
"l. c #00B140",
"z. c #00B140",
"x. c #00B140",
"c. c #00B140",
"v. c #00B140",
"b. c #00B140",
"n. c #00B140",
"m. c #00B140",
"M. c #00B140",
"N. c #00B140",
"B. c #00B140",
"V. c #00B140",
"C. c #00B140",
"Z. c #00B140",
"A. c #00B140",
"S. c #00B140",
"D. c #00B140",
"F. c #00B140",
"G. c #00B140",
"H. c #00B140",
"J. c #00B140",
"K. c #00B140",
"L. c #00B140",
"P. c #00B140",
"I. c #00B140",
"U. c #00B140",
"Y. c #00B140",
"T. c #00B140",
"R. c #00B140",
"E. c #00B140",
"W. c #00B140",
"Q. c #00B140",
"!. c #00B140",
"~. c #00B140",
"^. c #00B140",
"/. c #00B140",
"(. c #00B140",
"). c #00B140",
"_. c #00B140",
"`. c #00B140",
"'. c #00B140",
"]. c #00B140",
"[. c #00B140",
"{. c #00B140",
"}. c #00B140",
"|. c #00B140",
" X c #00B140",
".X c #00B140",
"XX c #E0F5E8",
"oX c #E1F6E8",
"OX c #E3F6E9",
"+X c #E3F6EA",
"@X c #E5F7EC",
"#X c #E6F7EC",
"$X c #E7F8ED",
"%X c #E9F8EE",
"&X c #E9F8EF",
"*X c #EAF9F0",
"=X c #EBF9F0",
"-X c #ECF9F0",
";X c #ECF9F1",
":X c #EFFAF3",
">X c #F0FAF3",
",X c #F1FAF4",
"<X c #F1FBF4",
"1X c #F1FBF5",
"2X c #F2FBF5",
"3X c #F3FBF6",
"4X c #F4FCF7",
"5X c #F5FCF7",
"6X c #F6FCF8",
"7X c #F7FCF9",
"8X c #F7FDF9",
"9X c #F8FDFA",
"0X c #F9FDFA",
"qX c #F9FDFB",
"wX c #FAFDFB",
"eX c #FBFEFC",
"rX c #FCFDFD",
"tX c #FCFEFD",
"yX c #FDFEFD",
"uX c #FDFEFE",
"iX c #FDFFFE",
"pX c #FEFEFE",
"aX c #FEFFFE",
"sX c #FEFFFF",
"dX c #FFFFFF",
/* pixels */
"                            * < 4 4 2 < $                               ",
"                      > s S | 5.t.p.9.1.^ v t *                         ",
"                    g X.M.:XdXdXdXdXdXdXdX+Xa.Q t                       ",
"                  P l.<XdXdXdXdXdXdXdXdXdXdXdX+X9.x                     ",
"                G I.dXdXdXdXdXdXdXdXdXdXdXdXdXdXwXb.v                   ",
"              g Z.dXdXdXdXdXdXdXdXdXdXdXdXdXdXdXdXdXM.7                 ",
"              9.6XdXdXdXdXdXdXdXdXwXdXdXdXdXdXdXdXdXwX3.                ",
"            S '.dXdXdXdXdXdX:Xs.Q V U w.=XdXdXdXdXdXdX+XV               ",
"            5.<XdXdXdXdXdX&X-.7 $     4 ` +XdXdXdXdXdXwXu.              ",
"          4 V.dXdXdXdXdXeX9.7           * &.<XdXdXdXdXdX).g             ",
"          v R.dXdXdXdXdX X'               l M.dXdXdXdXdX$X|             ",
"          I ).dXdXdXdXdXI.G               * 5.wXdXdXdXdX5X9.            ",
"          Q {.dXdXdXdXdXS.l                 #.:XdXdXdXdXdXm.*           ",
"          ^ }.dXdXdXdXdXZ.l                 | +XdXdXdXdXdXG.u           ",
"          R '.dXdXdXdXdXL.C                 #.=XdXdXdXdXdXI.l           ",
"          L ^.dXdXdXdXdX X_               7 t.eXdXdXdXdXdXQ.V           ",
"          g L.dXdXdXdXdXwXt.e           * '  XdXdXdXdXdXdX~.S           ",
"            k.eXdXdXdXdXdX=X<.4       2 +. XdXdXdXdXdXdXdXQ.V           ",
"            | @XdXdXdXdXdXdXdX^.t.2.i.'.dXdXdXdXdXdXdXdXdXR.v           ",
"            7 Z.dXdXdXdXdXdXdXdXdXdXdXdXdXdX6XwXdXdXdXdXdXP.h           ",
"              Q  XdXdXdXdXdXdXdXdXdXdXdXdXwXG.^.dXdXdXdXdXG.7           ",
"                &.+XdXdXdXdXdXdXdXdXdXdXwXL.X.B.dXdXdXdXdXb.$           ",
"                $ X.G.3XdXdXdXdXdXdXdX<Xb.Y S G.dXdXdXdX6Xt.            ",
"                  $ V =.s.L.{. X{.I.s.#.x   E ).dXdXdXdX=X-.            ",
"                      * s v G P G m i *     -.>XdXdXdXdX XI             ",
"                                          i s.dXdXdXdXdXR.7             ",
"                                          Q  XdXdXdXdXwXt.              ",
"                                        V Z.dXdXdXdXdX&XS               ",
"                                    > C c.dXdXdXdXdXdXc.                ",
"                4             * t v O.R.dXdXdXdXdXdX=XV                 ",
"                >.&.[ ^ ^ _ | ,.t.P.wXdXdXdXdXdXdX6X5.                  ",
"                Q.dX<X@X@X&X3XdXdXdXdXdXdXdXdXdXwXj.u                   ",
"                Q.dXdXdXdXdXdXdXdXdXdXdXdXdXdX5Xs.l                     ",
"                Q.dXdXdXdXdXdXdXdXdXdXdXdXdX+X5.h                       ",
"                Q.dXdXdXdXdXdXdXdXdXdXdX<Xc.R 7                         ",
"                Q.dXdXdXdXdXdXdXdXdX^.5.G 4 $                           "
};
