/* XPM */
static xpm_row_t const p1_back_5[] = {
/* columns rows colors chars-per-pixel */
"60 90 71 1 ",
"  c #161514",
". c #181716",
"X c #1A1917",
"o c #1C1B19",
"O c #201F1D",
"+ c #22211E",
"@ c #242423",
"# c #292623",
"$ c #2B2B25",
"% c #2C2C2C",
"& c #312D26",
"* c #352F29",
"= c #33322B",
"- c #3B342C",
"; c #38382E",
": c #333333",
"> c #383736",
", c #3A3937",
"< c #3B3B3B",
"1 c #433C35",
"2 c #4A443F",
"3 c #403F40",
"4 c #444344",
"5 c #484748",
"6 c #4A4A4A",
"7 c #5C4E41",
"8 c #5D5043",
"9 c #50504F",
"0 c #525252",
"q c #585857",
"w c #5A5A5A",
"e c #635446",
"r c #675849",
"t c #6B5C4E",
"y c #605750",
"u c #645A52",
"i c #7B6553",
"p c #8B735E",
"a c #8A7A6B",
"s c #927862",
"d c #9D826A",
"f c #918071",
"g c #A5876E",
"h c #A8896F",
"j c #A68A70",
"k c #AC8D73",
"l c #B5997D",
"z c #BC9C7F",
"x c #9F8F84",
"c c #BC9E81",
"v c #CBAB8B",
"b c #CEB196",
"n c #CAB09A",
"m c #DAB592",
"M c #DEBA96",
"N c #E0BA96",
"B c #E3BE9A",
"V c #D6BAA3",
"C c #E7C29D",
"Z c #DFC2A9",
"A c #DFC6B2",
"S c #EAC5A1",
"D c #EFC9A4",
"F c #EECBAC",
"G c #F1CAA4",
"H c #F1CCA9",
"J c #EFCFB2",
"K c #F2D1B4",
"L c #F1D2B9",
"P c #FCE0CD",
"I c #00B140",
/* pixels */
"IIIIIIIIIIIIIIIIIIIIIIIIIIIIIIIIIIIIIIIIIIIIIIIIIIIIIIIIIIII",
"IIIIIIIIIIIIIIIIIIIIIIIIIIIIIIIIIIIIIIIIIIIIIIIIIIIIIIIIIIII",
"IIIIIIIIIIIIIIIIIIIIIIIIIIIIIIIIIIIIIIIIIIIIIIIIIIIIIIIIIIII",
"IIIIIIIIIIIIIIIIIIIIIIIIIIIIIIIIIIIIIIIIIIIIIIIIIIIIIIIIIIII",
"IIIIIIIIIIIIIIIIIIIIIIIIIIIIIIIIIIIIIIIIIIIIIIIIIIIIIIIIIIII",
"IIIIIIIIIIIIIIIIIIIIIIIIIIIIIIIIIIIIIIIIIIIIIIIIIIIIIIIIIIII",
"IIIIIIIIIIIIIIIIIIIIIIIIIIIIIXXoIIIIIIIIIIIIIIIIIIIIIIIIIIII",
"IIIIIIIIIIIIIIIIIIIIIIIIIIIIo+%oXIIIIIIIIIIIIIIIIIIIIIIIIIII",
"IIIIIIIIIIIIIIIIIIIIIIIIIIoo%6w3@XIIIIIIIIIIIIIIIIIIIIIIIIII",
"IIIIIIIIIIIIIIIIIIIIIIIIIoo:0www6%XXIIIIIIIIIIIIIIIIIIIIIIII",
"IIIIIIIIIIIIIIIIIIIIIIIXO%6wwwwwwq<oXIIIIIIIIIIIIIIIIIIIIIII",
"IIIIIIIIIIIIIIIIIIIIIIoO>0wwwww0qww6%XXIIIIIIIIIIIIIIIIIIIII",
"IIIIIIIIIIIIIIIIIIIIoo%6wwqq000000qwq3@XXIIIIIIIIIIIIIIIIIII",
"IIIIIIIIIIIIIIIIIIoo@3qwq099990099qwww0<@XXIIIIIIIIIIIIIIIII",
"IIIIIIIIIIIIIIII.o@<0wq0000990990090qwww9<@XXIIIIIIIIIIIIIII",
"IIIIIIIIIIIIIIIXO>6qq00000900900990900qwww6>+XIIIIIIIIIIIIII",
"IIIIIIIIIIIIIXX%6wwqq000000000qq00099090qwww6%o.IIIIIIIIIIII",
"IIIIIIIIIIIIX@4qwww00990600wwwwwwwwq099000www9:oXIIIIIIIIIII",
"IIIIIIIIIIIX#6qqq000090900qwwwwwwwww90090000qq0:OXIIIIIIIIII",
"IIIIIIIIIIX%6q000q09999966qwwwwwww00065969900006<@XIIIIIIIII",
"IIIIIIIIIo@5900000643344600qwwwww09953<<<36545556<@XIIIIIIII",
"IIIIIIII.@55606543<<>>>><5990006643<<<<:>::<>:><44%oXIIIIIII",
"IIIIIIIXo:4<4<>::::%:::<<<<33433<<<<<:::<<<:>:%::>%%oXIIIIII",
"IIIIIIoo%><>::::<33<::%%::><>><><<<<:::<5554443::=::%ooIIIII",
"IIIIIIX#:>>%:355565653<:%%%::><<::::::<664665604<::::#XIIIII",
"IIIIIX@:>%:<5655655565555<::%::%%::<3556446466965::%%%OXIIII",
"IIIIXo%>::>4566556555556655433<<<<4446644654656963>:::%oIIII",
"IIIIX@>>:><556556544456556554555556565556644466663<>:%%OXIII",
"IIIoo%::::355665555445556555544444444465644445695<<>:%:%oIII",
"IIIX@:>::>445654455555556554444434444655544645666<<>::%:@XII",
"IIIo#::%:>345654455446555555555565556543454445666<><>%:%#XII",
"IIXo%:%:::>45444445554555555455566644445644444664<><<%::%ooI",
"II.@:%%:::<3443444565544455545554434645454444564<<:<:::%:@oI",
"IIo@%:::::<<3<3344455654554455556446554444445643<<<<::%:%@+I",
"IIo@:%::::<<<<345544455555555555554444344444665<:<<:::%:%%oI",
"I@o%:::%::<<<<3<5444554444454554455444444456444<<<<<::::%%oI",
"Ioo%::::::<<<<<<354444544444444444444434556644<<<<<::::%%%oo",
"IO+%%:%::%<:<:<<<45544444444444444343445665444<:<<<:::%::%+X",
"Io+%%:::%::<<<<3<<444544434343444444444444445<<<:<:::::::%@X",
"Io+%%:%%::::<<<343<45455444434343445444434453<<<<<<:::%::%@o",
"IXO%%%::::::<<<<43<<444554444444454443444453:<<:<>:::::::%@.",
"IoO%:%:%%::::<<<<343<3433455545444444555553<<<<<>:>>::%:%%@o",
"Io+%:%%:::<::<<<<3433433333444444454555543<<<<<<::>>:::%%%+X",
"IXO%:%%%::::::<<<<<33<3334444344555544333<:<:<<:::>:::%::%Oo",
"IXO%%%%%%::<:::<<<<<33<3334345555443343<<<<:<<<::<:::>::%$OX",
"IXO@%::%::::<::<<:<<<3433<333333443443<<:<<<<:::><:::::%%$oo",
"IIo@%:%%%%:::<:::<:<<<<<333<<<<<<333<<<<<<:<::::<:::>::%%@oI",
"IIoo%%:%%:%:::::::<<<<<<<<<33333<43<<3<<<<<:::<:::::>%::%@oI",
"IIoO%%:%%%:::::>:%<<<<:<<:<<<<<<<<<<<<<<<::::>::::::::::@@oI",
"IIoo@@%%%%%%%:>><:::<<<<<<<<<<<:<<:<<<<<:<::>>::<<:::%:%%oOI",
"IIIX+%%:%%%::%:><:%::<<<<<:<<<<<<<<<<:::<>:>:::><::<:::%@oII",
"IIIoo%@%:%%:%:::<<:::<:<<::::::<::<::<<<::<::::<::::%:%%@.II",
"IIIIX#%@:%%%::%::<<:%::<<:<:<::::<<<<<::<<::::<::::%:%@@OOII",
"IIIIoo@%%%%%:%:::::<:::::<:<<<<<<<<:<:::::%::>::::::%%%@XIII",
"IIIIIo@%@%%%%:%:::::<::::<<::<:<::::::::<:<::<:::%:%%%@oXIII",
"IIIIIXo@@%%%%%:%:::<::::::<<<::::::::<<<<<<::<:::::%%@ooIIII",
"IIIIIIXO%@%%@%%%::%:::::::<:::::<:<<<<:<>>><::%:::%@%@oIIIII",
"IIIIIIIoo%@%%%%%%%:::%:::::::::::<<<:<<:>:::::::%@%%+oXIIIII",
"IIIIIII.oO%%%%%%:%%%::%:::::::::::::::<::::%:::%%@%+X.IIIIII",
"IIIIIIII .o@%@%%%:%%%%:%::::::::::::<::::%::%%%@%@Oo.IIIIIII",
"IIIIIIIIIIXOo@%%%%%:%%%%%:%::::%%::::::%::%%@%%@+OX IIIIIIII",
"IIIIIIIIIIIX oO@%%%%:::%%%%%%%%::::::%%:%%@%%@OoX.IIIIIIIIII",
"IIIIIIIIIIIIIo.o@@%@%%%::%%%%%:::%:%%%%%%@@@ooo.IIIIIIIIIIII",
"IIIIIIIIIIIIIII ..o@@@@%%%:::%%::%%@%@%@@oo.. IIIIIIIIIIIIII",
"IIIIIIIIIIIIIIII .@ooo+@@@%%@@%@@@@@OooooO%o IIIIIIIIIIIIIII",
"IIIIIIIIIIIIIIIXo,4>XoooooooooooXXOOO@@O :4:o.IIIIIIIIIIIIII",
"IIIIIIIIIIIIIIXo>q0* @%%:::%%%%%::><<<:%X%94$oIIIIIIIIIIIIII",
"IIIIIIIIIIIIIoo%504+@:3<345555556699963<@O<4;OoIIIIIIIIIIIII",
"IIIIIIIIIIIIIX$<55:o%>33460wwwwwwq00994<:o%<>@XIIIIIIIIIIIII",
"IIIIIIIIIIIIXO>343@o%<334450wwwwqqq9694<>+O:%+XXIIIIIIIIIIII",
"IIIIIIIIIIIooo%>3>o+><33453590999999953<<@oOX@;OIIIIIIIIIIII",
"IIIIIIIIIIXyx4X@%%o$><33355455999996944<<%o<fcv9XIIIIIIIIIII",
"IIIIIIIII.>VPAa*ooo=<<33334656666646443<3:XuLHNd+IIIIIIIIIII",
"IIIIIIIII.eFLLLnwOo:<<<3334446666464433<<:o1ZGCg+IIIIIIIIIII",
"IIIIIIIII 7SFHKKb=o:<<<4333334344344333<,:+*bDmioIIIIIIIIIII",
"IIIIIIIII.&vGGDCl$+::<<<333<34344433334<,:++lMj*XIIIIIIIIIII",
"IIIIIIIIIIXrmSBMj++=:<<3333434344333333<,:@Ops=XIIIIIIIIIIII",
"IIIIIIIIIIIo7jzkro@=:<<<33333333333333<<>:@o$+XIIIIIIIIIIIII",
"IIIIIIIIIIII.+&#oX@==:<<<3<4<33333333<<>>:@ooIIIIIIIIIIIIIII",
"IIIIIIIIIIIIIIIIIX@%:=<<<<4<433<<3<3<<<>:%@oIIIIIIIIIIIIIIII",
"IIIIIIIIIIIIIIIIIo@%%::>>::<<<<<,,,<<,>::%@XIIIIIIIIIIIIIIII",
"IIIIIIIIIIIIIIIIIO@$%:%:::::::::;;::::::%%@XIIIIIIIIIIIIIIII",
"IIIIIIIIIIIIIIIIIoo@@#$$%%%%%%%%$$$&%$@@@+oXIIIIIIIIIIIIIIII",
"IIIIIIIIIIIIIIIIIXXXXoXo.oXooOoooOoXoooooooIIIIIIIIIIIIIIIII",
"IIIIIIIIIIIIIIIIIIIo+$$+$+++oXXXX+$+$$$;$oIIIIIIIIIIIIIIIIII",
"IIIIIIIIIIIIIIIIIIIo+&&$$$&&+XIIo&;=;=;;$oIIIIIIIIIIIIIIIIII",
"IIIIIIIIIIIIIIIIIIIooOoOooooooIIo===&;==@XIIIIIIIIIIIIIIIIII",
"IIIIIIIIIIIIIIIIIIIIIIIIIIIIIIIoo$&$$$&&@XIIIIIIIIIIIIIIIIII",
"IIIIIIIIIIIIIIIIIIIIIIIIIIIIIIIooOooo+ooOoIIIIIIIIIIIIIIIIII",
"IIIIIIIIIIIIIIIIIIIIIIIIIIIIIIIIoXooooooooIIIIIIIIIIIIIIIIII"
};
