/* XPM */
static xpm_row_t const p1_back_1[] = {
/* columns rows colors chars-per-pixel */
"60 80 63 1 ",
"  c #171614",
". c #181716",
"X c #1A1917",
"o c #1D1C1A",
"O c #201F1D",
"+ c #22211F",
"@ c #252423",
"# c #2A2622",
"$ c #2C2B25",
"% c #2C2C2C",
"& c #302F27",
"* c #322E2B",
"= c #303027",
"- c #32322B",
"; c #3B342C",
": c #333333",
"> c #393837",
", c #3B3B3B",
"< c #40382F",
"1 c #423830",
"2 c #40403F",
"3 c #49433D",
"4 c #584C3F",
"5 c #403F40",
"6 c #444444",
"7 c #484847",
"8 c #484748",
"9 c #4A4A4A",
"0 c #5E5143",
"q c #525252",
"w c #5A5A5A",
"e c #625445",
"r c #685849",
"t c #675E56",
"y c #746960",
"u c #806A56",
"i c #846F5B",
"p c #837365",
"a c #917B65",
"s c #9D866F",
"d c #A3876E",
"f c #A18E7D",
"g c #AD947C",
"h c #C09D7F",
"j c #BFA284",
"k c #BFA895",
"l c #C5A384",
"z c #CAA686",
"x c #C0A68E",
"c c #CEAB8A",
"v c #CAB09A",
"b c #DDB794",
"n c #DCB996",
"m c #DDBB9B",
"M c #CDB4A0",
"N c #ECC7A2",
"B c #F0CAA4",
"V c #F3CEAB",
"C c #EFCEB1",
"Z c #F3D2B4",
"A c #F3D3B9",
"S c #F5D9C5",
"D c #00b140",
/* pixels */
"DDDDDDDDDDDDDDDDDDDDDDDDDDDDDDDDDDDDDDDDDDDDDDDDDDDDDDDDDDDD",
"DDDDDDDDDDDDDDDDDDDDDDDDDDDDDDDDDDDDDDDDDDDDDDDDDDDDDDDDDDDD",
"DDDDDDDDDDDDDDDDDDDDDDDDDDDDDDDDDDDDDDDDDDDDDDDDDDDDDDDDDDDD",
"DDDDDDDDDDDDDDDDDDDDDDDDDDDDDDDDDDDDDDDDDDDDDDDDDDDDDDDDDDDD",
"DDDDDDDDDDDDDDDDDDDDDDDDDDDDDDDDDDDDDDDDDDDDDDDDDDDDDDDDDDDD",
"DDDDDDDDDDDDDDDDDDDDDDDDDDDDoooDDDDDDDDDDDDDDDDDDDDDDDDDDDDD",
"DDDDDDDDDDDDDDDDDDDDDDDDDDDX@76+XDDDDDDDDDDDDDDDDDDDDDDDDDDD",
"DDDDDDDDDDDDDDDDDDDDDDDDDXo:qww9$oDDDDDDDDDDDDDDDDDDDDDDDDDD",
"DDDDDDDDDDDDDDDDDDDDDDDDo@6wwwwwq>ooDDDDDDDDDDDDDDDDDDDDDDDD",
"DDDDDDDDDDDDDDDDDDDDDDX+:qwwwwqqww8%ooDDDDDDDDDDDDDDDDDDDDDD",
"DDDDDDDDDDDDDDDDDDDDXo%9wwqqqqqqqwww6@oDDDDDDDDDDDDDDDDDDDDD",
"DDDDDDDDDDDDDDDDDDDo@2qwqq9qqqqqqqqwwq,#oDDDDDDDDDDDDDDDDDDD",
"DDDDDDDDDDDDDDDDDo@,qwqqqqqqqqqq9qqqqwwq,@XDDDDDDDDDDDDDDDDD",
"DDDDDDDDDDDDDDDXO:qwwqqqqqqqqwqqqqqqqqwwwq:oXDDDDDDDDDDDDDDD",
"DDDDDDDDDDDDDDX@7wwqqqqqqqqqwwwwwwqqqqqqwwq:OXDDDDDDDDDDDDDD",
"DDDDDDDDDDDDDX%9wqqqqqqq9qqwwwwwwwqq9qq9qqwq>@XDDDDDDDDDDDDD",
"DDDDDDDDDDDDo@9qqqqq98898qqqwwwwqqq95568999995+oDDDDDDDDDDDD",
"DDDDDDDDDDDo@89q9995,>>>59qqqqq9965,,>>>5,,,58:OoDDDDDDDDDDD",
"DDDDDDDDDDXO,555>>::%:::>,556555,,,>::,,>::::::%oXDDDDDDDDDD",
"DDDDDDDDDDo%>>::>>555>::%:::>,,,,,:::,686685:::%%oDDDDDDDDDD",
"DDDDDDDDDo@::::689888865>:%:::>::::,5988889q8,:::@oDDDDDDDDD",
"DDDDDDDDXO>>:>8888998889885,>::::,588888888996:::%ooDDDDDDDD",
"DDDDDDDDo%:::5898988668989888666698888886688q6,::%%oDDDDDDDD",
"DDDDDDDX+:::>6899888668889868866686688886689q5,>%:%+XDDDDDDD",
"DDDDDDDo%:::,6898688888988866666666888686889q5>,:%%%oDDDDDDD",
"DDDDDDDo%:%:,5886668688888898888699866866568q5,,>::%oDDDDDDD",
"DDDDDDo@%:::>,6666668866688868888686688666895,>>>%%:@XDDDDDD",
"DDDDDDo@:::%>,5556668888688688866686666658885>,,::*%%oDDDDDD",
"DDDDDDo%%::::>5,5686686888888688798666658898,>,>>:%%%oDDDDDD",
"DDDDDDo%%::%>>,,,568868666666886666665688865,,>>::%:%ODDDDDD",
"DDDDDX+*:::::>>>,,6666666666666666565679966,,,>>::::%OXDDDDD",
"DDDDDo+%%:%::>>>,,5686666666666665569696666>,>>:::%:%@XDDDDD",
"DDDDDo@%%::%::,>,25,6668666665665666656668,,,:,:::%:%@XDDDDD",
"DDDDDo+%%%::::>,,525,66866666666766656567,,,,,,:::%:%@oDDDDD",
"DDDDDo+%:%:%:::,,,555,556668668666668778,,,,,:::::::%@ODDDDD",
"DDDDDoO%:%%::::>,,,56555555666666797876,:,,,::,::::%%@oDDDDD",
"DDDDDO+%%%::%>:::,,:,5,555656668886556,,,:,::::::::%%@ODDDDD",
"DDDDDDO%%%%%::>::,,,,,555565666656665,,,,,,:::,:::%:%o+DDDDD",
"DDDDDDo%%%%%::>::::,,,,,55,,,,,,55,,,,,:,::::,::::%%@oDDDDDD",
"DDDDDDX@%:%%%::::::,,,,,,,55555555,,,,,,,:::,::,:::%@oDDDDDD",
"DDDDDDo@%%%%%:::,,::,,,,>,>>,,,,,,,,,,,,::,:::::>%%%@oDDDDDD",
"DDDDDDoo%%%%%%%::::::,:,,>,,>,:,,,,,,::::::::,:::::%OoDDDDDD",
"DDDDDDDo@@%%%%::::,:::,,,>:>>,,,,::,:,::,:::,:::%:%%oDDDDDDD",
"DDDDDDDoO@%%%%%:%::,::::>>>>:::::,:,,,:,:::::::::%@@oDDDDDDD",
"DDDDDDDDo@%%%%%%::::,:::::>,,>,,,,,::::::::::,%:%%@ooDDDDDDD",
"DDDDDDDDo@@%%%:%%::::::::>>:>>:>:::::,,::::::::%%%OoDDDDDDDD",
"DDDDDDDDDOO%%%%%%::::::::>>>>:::::::,,,,,,::::%%%@oDDDDDDDDD",
"DDDDDDDDDDo@@%%%%%%:::::::::::::,,,,,::,:::::%%%@ooDDDDDDDDD",
"DDDDDDDDDD.o@@%%%%%%:%%::::::::::>>>>>>:%:%:%%%@OoDDDDDDDDDD",
"DDDDDDDDDDD.o@@%%%%%%%:%:%::::::::::::%:::%%%@@o.DDDDDDDDDDD",
"DDDDDDDDDDDD oo@@%%%:%%%%%:::%%::::::%:%%%@%@oo.DDDDDDDDDDDD",
"DDDDDDDDDDDDDD.oO@%%%%::%%%%%%:%:%:%:%%%%@@oooDDDDDDDDDDDDDD",
"DDDDDDDDDDDDDDDDooO+@%%%%:%:%:::%%%%%@@@OoX.DDDDDDDDDDDDDDDD",
"DDDDDDDDDDDDDDDDDD ooo@@@%%%%%%%%@@@@+OOo DDDDDDDDDDDDDDDDDD",
"DDDDDDDDDDDDDDDDDDo::oXooOOOO+OOoooOooo,,OoDDDDDDDDDDDDDDDDD",
"DDDDDDDDDDDDDDDDDo%92X@%%%%%%@@%%:,,:%o,q,oDDDDDDDDDDDDDDDDD",
"DDDDDDDDDDDDDDDDX+29:o:2,7999999qqq95>@%98-oDDDDDDDDDDDDDDDD",
"DDDDDDDDDDDDDDDDo%22@@,229qwwwwwwqqq8,%o,6>@oDDDDDDDDDDDDDDD",
"DDDDDDDDDDDDDDD.X%>:o%,2287qwwwwqqq96,:O%,:@..DDDDDDDDDDDDDD",
"DDDDDDDDDDDDDDX3t=o+O:,258679qq9qqq865>++%O#0;XDDDDDDDDDDDDD",
"DDDDDDDDDDDDDD#kSvy+@,,2529789qqq9q85,5@X&yxmd#DDDDDDDDDDDDD",
"DDDDDDDDDDDDDD;mAAM=@,,22567898869565,,%OfSZNz1DDDDDDDDDDDDD",
"DDDDDDDDDDDDDD#jVVjo%,,,55252666665555,%osZCNh*DDDDDDDDDDDDD",
"DDDDDDDDDDDDDDoenCyo%,,,,22,266266555,>:oiBNbuoDDDDDDDDDDDDD",
"DDDDDDDDDDDDDDDo0dro%:,,,526562255522,>%O0cxi#DDDDDDDDDDDDDD",
"DDDDDDDDDDDDDDDD.oOo%:>,,55555555522,,>%O+<;ODDDDDDDDDDDDDDD",
"DDDDDDDDDDDDDDDDDDoo%::,555522555555,,:%+XDDDDDDDDDDDDDDDDDD",
"DDDDDDDDDDDDDDDDDDoo%%:>>>,5,,,,,,,>>::%OXDDDDDDDDDDDDDDDDDD",
"DDDDDDDDDDDDDDDDDDXo%%:%:::::>>:::::::%$OXDDDDDDDDDDDDDDDDDD",
"DDDDDDDDDDDDDDDDDDDo@@#$@%%%%%%%%==%%@@+oDDDDDDDDDDDDDDDDDDD",
"DDDDDDDDDDDDDDDDDDDooXoooooooOOoOoXOoOoooDDDDDDDDDDDDDDDDDDD",
"DDDDDDDDDDDDDDDDDDDD.@-==$$$oDDo+$$$==+XDDDDDDDDDDDDDDDDDDDD",
"DDDDDDDDDDDDDDDDDDDDo+-----=oDDO$$=$=$+oDDDDDDDDDDDDDDDDDDDD",
"DDDDDDDDDDDDDDDDDDDDX+$$$$$$ODDXO++oo+ooDDDDDDDDDDDDDDDDDDDD",
"DDDDDDDDDDDDDDDDDDDDXoooXooooDDDDDDDDDDDDDDDDDDDDDDDDDDDDDDD",
"DDDDDDDDDDDDDDDDDDDDDDDDDDDDDDDDDDDDDDDDDDDDDDDDDDDDDDDDDDDD",
"DDDDDDDDDDDDDDDDDDDDDDDDDDDDDDDDDDDDDDDDDDDDDDDDDDDDDDDDDDDD",
"DDDDDDDDDDDDDDDDDDDDDDDDDDDDDDDDDDDDDDDDDDDDDDDDDDDDDDDDDDDD",
"DDDDDDDDDDDDDDDDDDDDDDDDDDDDDDDDDDDDDDDDDDDDDDDDDDDDDDDDDDDD",
"DDDDDDDDDDDDDDDDDDDDDDDDDDDDDDDDDDDDDDDDDDDDDDDDDDDDDDDDDDDD"
};
