/* XPM */
static xpm_row_t const p1_back_4[] = {
/* columns rows colors chars-per-pixel */
"60 90 69 1 ",
"  c #151413",
". c #181716",
"X c #1A1917",
"o c #1C1B19",
"O c #201F1E",
"+ c #22211E",
"@ c #252423",
"# c #292726",
"$ c #2B2A25",
"% c #2C2C2C",
"& c #302C26",
"* c #312E2B",
"= c #303027",
"- c #33322A",
"; c #3A342D",
": c #333333",
"> c #3E3934",
", c #3B3B3B",
"< c #433A32",
"1 c #4B4137",
"2 c #49433C",
"3 c #564A3E",
"4 c #403F40",
"5 c #444344",
"6 c #484748",
"7 c #4A4A4A",
"8 c #50504F",
"9 c #58504A",
"0 c #525252",
"q c #5A5A5A",
"w c #635244",
"e c #6C5E50",
"r c #756251",
"t c #856E5A",
"y c #87735E",
"u c #857463",
"i c #89786A",
"p c #967D66",
"a c #9B7F67",
"s c #97816A",
"d c #9F856C",
"f c #908277",
"g c #928379",
"h c #A2856C",
"j c #A68970",
"k c #B29579",
"l c #BA9D80",
"z c #BDA083",
"x c #C6A788",
"c c #D3AE8C",
"v c #CDB299",
"b c #D9B593",
"n c #DEB895",
"m c #D1B499",
"M c #DFBD9D",
"N c #E2BE9A",
"B c #D7BDA7",
"V c #E5C09C",
"C c #ECC7A2",
"Z c #EEC9A3",
"A c #EFCDAE",
"S c #F1CBA6",
"D c #E4C7B0",
"F c #E4CBB9",
"G c #F1CFB1",
"H c #F1D1B5",
"J c #F1D3BA",
"K c #F9DDCA",
"L c #00B140",
/* pixels */
"LLLLLLLLLLLLLLLLLLLLLLLLLLLLLLLLLLLLLLLLLLLLLLLLLLLLLLLLLLLL",
"LLLLLLLLLLLLLLLLLLLLLLLLLLLLLLLLLLLLLLLLLLLLLLLLLLLLLLLLLLLL",
"LLLLLLLLLLLLLLLLLLLLLLLLLLLLLLLLLLLLLLLLLLLLLLLLLLLLLLLLLLLL",
"LLLLLLLLLLLLLLLLLLLLLLLLLLLLLLLLLLLLLLLLLLLLLLLLLLLLLLLLLLLL",
"LLLLLLLLLLLLLLLLLLLLLLLLLLLLLLLLLLLLLLLLLLLLLLLLLLLLLLLLLLLL",
"LLLLLLLLLLLLLLLLLLLLLLLLLLLLLXXXLLLLLLLLLLLLLLLLLLLLLLLLLLLL",
"LLLLLLLLLLLLLLLLLLLLLLLLLLLLX@:OXLLLLLLLLLLLLLLLLLLLLLLLLLLL",
"LLLLLLLLLLLLLLLLLLLLLLLLLLXo%7q5@XLLLLLLLLLLLLLLLLLLLLLLLLLL",
"LLLLLLLLLLLLLLLLLLLLLLLLLXO,qqqq8%XXLLLLLLLLLLLLLLLLLLLLLLLL",
"LLLLLLLLLLLLLLLLLLLLLLLoX%7qqqqqqq<+XLLLLLLLLLLLLLLLLLLLLLLL",
"LLLLLLLLLLLLLLLLLLLLLLX+,0qqqqq00qq8%ooLLLLLLLLLLLLLLLLLLLLL",
"LLLLLLLLLLLLLLLLLLLLXo:7qqq0008000qqq5@oXLLLLLLLLLLLLLLLLLLL",
"LLLLLLLLLLLLLLLLLLXo%6qqq0008008080qqqq,@oXLLLLLLLLLLLLLLLLL",
"LLLLLLLLLLLLLLLLXX@,0q00008000800000qqqq0,@oXLLLLLLLLLLLLLLL",
"LLLLLLLLLLLLLLXX@,0q000008800000800880qqqq05@oLLLLLLLLLLLLLL",
"LLLLLLLLLLLLLoo:8qqq0q008080000q000808880qqq8%ooLLLLLLLLLLLL",
"LLLLLLLLLLLLX@5qqq000000000qqqqqqqq0078000qqq8:oXLLLLLLLLLLL",
"LLLLLLLLLLLX%7q000000008880qqqqqqqqq00808000qq0,+XLLLLLLLLLL",
"LLLLLLLLLLX%800000007087880qqqqqqq00075778088807<@oLLLLLLLLL",
"LLLLLLLLLX#700000076,,557000qqqqq08774,,,46555560,OXLLLLLLLL",
"LLLLLLLLX@6778655,,:,:,,,6788087654,,,:,::,,,:,,44%OoLLLLLLL",
"LLLLLLLoO:4,4,,%%:::::::,,44444,4,,,,,:%,4,:::%%:,:%OXLLLLLL",
"LLLLLLoo%:,,:%:,455,::%%%:,:,,,,,,:,:::,5665564:%:::%XXLLLLL",
"LLLLLLX#:,%::566677755,,%%%:::,,::::::46766668854%%::@XLLLLL",
"LLLLLX@::::,66777766766654:::%:%%:,,5577557767876,:%%%OXLLLL",
"LLLLXo%,::,5676666666776766654,,,45556756655667874,%::%oLLLL",
"LLLLX@::::,576666755557666666666676767676665567874,::%%@XLLL",
"LLLXo%,::,466776675556667666566555555566665556686,,,::%%oLLL",
"LLLo@*::%,557765566666676666555555555775665656687,,,:%::@oLL",
"LLLX#::%%,,56765566566676666666656677555565556677,,,,%%:@XLL",
"LLoo%:::::,56555556665666666656677655556655556674,,,,%:%%ooL",
"LLX@:%:%:,,,545555666555666556665555665555555664,,,:,%:%:@XL",
"LLo@:%:::,:,5,,55646777566565775666666555556777,,,,:::%%%@oL",
"LLo@%:%:%:,,,,565655655757557577756555555555775,,,,,::::%%+L",
"L+o%:::%::,,,,4,5656665555556655565555455557555,,,,,::%:%%oL",
"LOO%:%::::,:,,,,466555575555545555555455777755,,,:,::::%:%oo",
"LoO%%::::::,:,,,,65655555555565555544556775555:,,,,:::::%%+o",
"LOO%%::%%%:,,,,4,,565555555545544545555554556,,,,:,:::%::=+X",
"LoO%%::%:::::,,454,45557554554545566555545574,,,,,:::::::%@X",
"LOO%%%::::::,,,,444,555575555556555454555564:,:,,::::::%:%@o",
"Lo@%%%%:::::,,,,,444,4444566566555665667654,,,,,,:::::%:%%+o",
"LoO%:%%%%:::::,,,,544444445545556555666655,,,::,::,:::::%%+o",
"LoO@%:%:::,:::,,,,,444445445545666765545,::,,,,::,,::::%%%OX",
"LXo%%%%%%::,,:::,,,,45,4445556655554,54,,,,,,,::::::::%:%%OX",
"LLo#%%%%%:%:,::::,:,,,544,44,444544554,,,,,,:::::,::::::%#Oo",
"LLo@%:%%%::::::::,,,,,,,,44,,,,,,45,,,,,,,,,,:::,::::::%%@oL",
"LLoO#%:%%::%:,,,::,,,,,,,,,,444,4444,,,,,,,:::,,::,::::%%@oL",
"LLoO#%:%%%%::::,::::,,,,,,,,,,,,,,,,,,,,:::::::::,::::%:%+oL",
"LLoo@#%%%%%::::,,::,,,:,,,,,,,,,:,,,,,,::,::::::,,:::%:%%ooL",
"LLLoO%%%%%%:%:::,:%::,,,,::,,,:,,,,,,::,,::,:::::::::::%@oLL",
"LLLoO@#%%%%%%:%:,::%::,,,::,:::,:::::,,,:,,::::,:::::%%#+XLL",
"LLLLoO%@%:%%:%:::,,:::::,,:,,,:::,:,,,::,:::::,:::::%%%@ooLL",
"LLLLoO@%%%%%:%:::::,:::::::,,,,,,,,,::::::::,:::::::%#%OoLLL",
"LLLLLX@%@%%%%::%:::,:::::,,::::,:::::::,,:,::::,:::%%#@ooLLL",
"LLLLLXo@%@%#%%%:::::::,:::,,,,:::::::,,,,::,:,::%:%%%%ooLLLL",
"LLLLLLXO@%%%##%%%:::::::::::%:::::,,,,,:,,,::::%::%#@OXLLLLL",
"LLLLLLLoO@#%%%%%%%::%::::::::::::,,,,,,::,:::%::%%##@oXLLLLL",
"LLLLLLLLXO@#%%%%%%%%%:%::::::,::::::::,::::%:::%###@XXLLLLLL",
"LLLLLLLLLoo@@%@%%:%%%%%::%:::::%::::,:::%:%:%%%#%@OX.LLLLLLL",
"LLLLLLLLLLooO@@%%%:::%%%%:%::%%:%:::%%:%::%%%##@OoX LLLLLLLL",
"LLLLLLLLLLL..oO@%%@%%::%%%%%%::%:%:::%:%%%%#@@Ooo.LLLLLLLLLL",
"LLLLLLLLLLLLL.ooO@@%%%%%:%%%%%::::%%%%%%%@@OoXX LLLLLLLLLLLL",
"LLLLLLLLLLLLLLL..ooO@@@%%%:::%%:%%%@%%@@@ooXX LLLLLLLLLLLLLL",
"LLLLLLLLLLLLLLLL o@OooOO@@@@@@%@@O@Oooooo@%O LLLLLLLLLLLLLLL",
"LLLLLLLLLLLLLLLXo,6,XoOOooooooooooO++@@+.:5,+oLLLLLLLLLLLLLL",
"LLLLLLLLLLLLLLXo:08-.@%:::::%:%%::,,44:%o%88%oLLLLLLLLLLLLLL",
"LLLLLLLLLLLLLLo@585@O,4,56787777778887,,@o45,+oLLLLLLLLLLLLL",
"LLLLLLLLLLLLLX@:57:X@,44570qqqqqqqq0885,:o%5,=oXLLLLLLLLLLLL",
"LLLLLLLLLLLLXo*,54#o:,445570qqqqq0q08754,o+::%OXLLLLLLLLLLLL",
"LLLLLLLLLLLXooO%,:o@:,,4555680008088764,,@o$+o$=oLLLLLLLLLLL",
"LLLLLLLLLLL+gg>XO#o@,,,4476577888888855,,%.+2rzk-oLLLLLLLLLL",
"LLLLLLLLLL eKKBi;oo%,,44457766678667554,5:.8FJAbr.LLLLLLLLLL",
"LLLLLLLLLLosHHHJv,o:,,,4445557776665544,,:O2DHVNtoLLLLLLLLLL",
"LLLLLLLLLLXuSAAGM,o:,,,44444555555554444,:O&mGScw.LLLLLLLLLL",
"LLLLLLLLLLX<nSSSk-o:,,,4444,44554554444,,-@+xVnh$XLLLLLLLLLL",
"LLLLLLLLLLLorbNNk$+::,,4444445455444444,,:+Odcs;XLLLLLLLLLLL",
"LLLLLLLLLLLoO3pjro$=:,,,,4544444444544,,::@o11+XLLLLLLLLLLLL",
"LLLLLLLLLLLLLXoOoo@=::,,,44444444,444,,,,%@XoXLLLLLLLLLLLLLL",
"LLLLLLLLLLLLLLLLLo@%=:,,4,444444444,,,,,,%@oLLLLLLLLLLLLLLLL",
"LLLLLLLLLLLLLLLLLo@%::--,,,,,,,,,,,,,,,:%%@oLLLLLLLLLLLLLLLL",
"LLLLLLLLLLLLLLLLLo@$%:*::*::::,::::,::::%%+oLLLLLLLLLLLLLLLL",
"LLLLLLLLLLLLLLLLL++@$$%%%%%%:%%:==-%%%%$@@OoLLLLLLLLLLLLLLLL",
"LLLLLLLLLLLLLLLLLoXo+oooOoO+OO+++++++OoOooooLLLLLLLLLLLLLLLL",
"LLLLLLLLLLLLLLLLLLLX+++++OOoooXXXo+++++=+oLLLLLLLLLLLLLLLLLL",
"LLLLLLLLLLLLLLLLLLLo+---====OXLLo=----;;$oLLLLLLLLLLLLLLLLLL",
"LLLLLLLLLLLLLLLLLLLo+=$$+$$$OXLLo=-=----+oLLLLLLLLLLLLLLLLLL",
"LLLLLLLLLLLLLLLLLLLooOooooooooLo+$=$=$$$+oLLLLLLLLLLLLLLLLLL",
"LLLLLLLLLLLLLLLLLLLLLLLLLLLLLLLoooooooooOoLLLLLLLLLLLLLLLLLL",
"LLLLLLLLLLLLLLLLLLLLLLLLLLLLLLLLooooooLLLLLLLLLLLLLLLLLLLLLL",
"LLLLLLLLLLLLLLLLLLLLLLLLLLLLLLLLLLLLLLLLLLLLLLLLLLLLLLLLLLLL"
};
