/* XPM */
static xpm_row_t const p1_back_7[] = {
/* columns rows colors chars-per-pixel */
"60 80 61 1 ",
"  c #161614",
". c #181715",
"X c #1A1917",
"o c #1C1B1A",
"O c #201F1D",
"+ c #22211E",
"@ c #242423",
"# c #282724",
"$ c #2B2A26",
"% c #2C2C2C",
"& c #322F2C",
"* c #303027",
"= c #34332A",
"- c #3C342D",
"; c #333333",
": c #3B3B3B",
"> c #423E3B",
", c #4D443C",
"< c #53483C",
"1 c #594B3E",
"2 c #403F40",
"3 c #444444",
"4 c #484747",
"5 c #484748",
"6 c #4B4A4B",
"7 c #5E4F41",
"8 c #50504F",
"9 c #5C544D",
"0 c #535353",
"q c #5A5A5A",
"w c #625546",
"e c #625952",
"r c #766251",
"t c #786755",
"y c #7A6959",
"u c #826D5A",
"i c #8F7B68",
"p c #947963",
"a c #9E856C",
"s c #A28970",
"d c #A98B71",
"f c #B4987C",
"g c #A59180",
"h c #AC9785",
"j c #C09F81",
"k c #C7A686",
"l c #C1AB9B",
"z c #DBB592",
"x c #E6C19C",
"c c #EAC49F",
"v c #DFC1A8",
"b c #EBC6A2",
"n c #EEC8A2",
"m c #EFCDAD",
"M c #F1CDA9",
"N c #E5CAB5",
"B c #F1CFB1",
"V c #EDD2BF",
"C c #F3D1B2",
"Z c #F1D3B8",
"A c #00b140",
/* pixels */
"AAAAAAAAAAAAAAAAAAAAAAAAAAAAAAAAAAAAAAAAAAAAAAAAAAAAAAAAAAAA",
"AAAAAAAAAAAAAAAAAAAAAAAAAAAAAAAAAAAAAAAAAAAAAAAAAAAAAAAAAAAA",
"AAAAAAAAAAAAAAAAAAAAAAAAAAAAAAAAAAAAAAAAAAAAAAAAAAAAAAAAAAAA",
"AAAAAAAAAAAAAAAAAAAAAAAAAAAAAAAAAAAAAAAAAAAAAAAAAAAAAAAAAAAA",
"AAAAAAAAAAAAAAAAAAAAAAAAAAAAAAAAAAAAAAAAAAAAAAAAAAAAAAAAAAAA",
"AAAAAAAAAAAAAAAAAAAAAAAAAAAAAAAAAAAAAAAAAAAAAAAAAAAAAAAAAAAA",
"AAAAAAAAAAAAAAAAAAAAAAAAAAAAXOoXAAAAAAAAAAAAAAAAAAAAAAAAAAAA",
"AAAAAAAAAAAAAAAAAAAAAAAAAAAX%63@XAAAAAAAAAAAAAAAAAAAAAAAAAAA",
"AAAAAAAAAAAAAAAAAAAAAAAAAoO;0qq0%oAAAAAAAAAAAAAAAAAAAAAAAAAA",
"AAAAAAAAAAAAAAAAAAAAAAAAo#5qqqqqq:+XAAAAAAAAAAAAAAAAAAAAAAAA",
"AAAAAAAAAAAAAAAAAAAAAAXO:0qqqq00qq6=oXAAAAAAAAAAAAAAAAAAAAAA",
"AAAAAAAAAAAAAAAAAAAAXo&8qq0000888qqq3%o.AAAAAAAAAAAAAAAAAAAA",
"AAAAAAAAAAAAAAAAAAXo#3qq0080808088qqq02#oXAAAAAAAAAAAAAAAAAA",
"AAAAAAAAAAAAAAAAAX#20q00080800088800qqqq3@oAAAAAAAAAAAAAAAAA",
"AAAAAAAAAAAAAAAXO:0qq0000880q0000000800qq0:oXAAAAAAAAAAAAAAA",
"AAAAAAAAAAAAAAX$6qqq0080800qqqqqqq008800qq0:+XAAAAAAAAAAAAAA",
"AAAAAAAAAAAAAX%800000088880qqqqqqq0060000000:@oAAAAAAAAAAAAA",
"AAAAAAAAAAAAX%8000006356580qqqqq08862223668663@oAAAAAAAAAAAA",
"AAAAAAAAAAAo#5606632:;;:25680008332::;;:::;::5;OoAAAAAAAAAAA",
"AAAAAAAAAAXO:22:;;;;;;;;;:22222:::;:;;:2:;;;;;;%OXAAAAAAAAAA",
"AAAAAAAAAXo;:;;;::332:;;%;;;::;::;;;;:553363;;;;#oAAAAAAAAAA",
"AAAAAAAAAX#;;;;355555532:;%;;;;;;;;:363555685:%;;#XAAAAAAAAA",
"AAAAAAAAX@;;;:5655565656553::;;;;2365335355683;;;%oXAAAAAAAA",
"AAAAAAAAX;:;;:55565533556555535366355566335686:;;;%XAAAAAAAA",
"AAAAAAAo@;;;:356655533555655553333535655335683::;;;@XAAAAAAA",
"AAAAAAAo#;;;:355535555555553333333355333335582;:;%;#oAAAAAAA",
"AAAAAAXO%;;;::55333555555555555565553355325563;:;;%%@AAAAAAA",
"AAAAAAX@;;%;::3335335533355535555333353333563:::;%;;@XAAAAAA",
"AAAAAAX#%;;;;:2223533555353555555354333335552:::;;;%#oAAAAAA",
"AAAAAAo%%;%;;;:::335353555555355533333335553::;:;;%;%oAAAAAA",
"AAAAAAo%;;;;;::::333355333333353333323335533:;;:;;;%%oAAAAAA",
"AAAAAX@%%;%;;:::::3333333333333333323366533::::;;;%;%@XAAAAA",
"AAAAAoO;%;;%%:;::::336333333333333333343332::::;;;;;%@XAAAAA",
"AAAAAX@%%%;;;;:::33:3333332323233333333333::;:::%;%;%@XAAAAA",
"AAAAAX+%;%%;;;::::22:23333333333333333333:::::;;;;;;%#oAAAAA",
"AAAAAo+%;%;%;;;:::2222223335533533343533:::;:;;;;;%%%@oAAAAA",
"AAAAAO+%;%;%;:;;::::2222222323333553533::::::;;;;;;%%@oAAAAA",
"AAAAAO+%%%%;;;;;;::::22223233335533223:::;;:;;:;;;;%%OOAAAAA",
"AAAAAAo%%%%;;;:;;;::::22:222333333322::::::;;;:;;;;;@ooAAAAA",
"AAAAAAo%%%%%;%;:;;;::::2222:::::222:::;::;;;;:;;;;%%%oAAAAAA",
"AAAAAAo@%%%%%;;;:;;;::;:;::2:2:222:::::::;;;;;;;;;;%#oAAAAAA",
"AAAAAAX@%%%%%%;;;:;;:::::::::::::::2::;;;;:;;;:;;;%;@oAAAAAA",
"AAAAAAXo@%%%%;%%;;:;;:;:;:::::::;::::;;:;:;;;:;;;%;#+oAAAAAA",
"AAAAAAAo@%%%%%;;;;:;;;::::;::;:;::;;;::;:;%;:;;;;;%#oAAAAAAA",
"AAAAAAAX+%@%%%%;%;::;;;;:;:;:;;;;;;::;;:;%;:;;;;%%%+XAAAAAAA",
"AAAAAAAAo@%%%%%%%;;;;;;;;:;:;::::::;;;;;;;;:;;;;%%#ooAAAAAAA",
"AAAAAAAAO+%@%%%;;;;;;;;;;;;;:;;:;;;;;:;;:;;;;;%%%#+oAAAAAAAA",
"AAAAAAAAA.O%%%%%%%;;;;;;;;:::;;;;;;2::::;:;;;;;%%#oAAAAAAAAA",
"AAAAAAAAAAo@%#%#%%%;%;;;;;;;;;;;::::;:;:;;;%;;%#@O.AAAAAAAAA",
"AAAAAAAAAA o@#%%%%%%%;%;;;;;;;;:;;;;:;:;;;%;%%#@o.AAAAAAAAAA",
"AAAAAAAAAAAXoO#%%%%;%%%;%;;;;;;;;;;;;;;%;%%%##@ooAAAAAAAAAAA",
"AAAAAAAAAAAA oo@#%%%;%%%%%%;%;%%;;;;;%;%%%%#@Oo AAAAAAAAAAAA",
"AAAAAAAAAAAAAA.oO@##%%;%;%%%%;%;;;%%%%%%%#@oo AAAAAAAAAAAAAA",
"AAAAAAAAAAAAAAAAXOO@@@%%%%%%%;;;%%%%%%@@oo. AAAAAAAAAAAAAAAA",
"AAAAAAAAAAAAAAAAAA oOO@@@@%%%%%%%%@@@ooOO AAAAAAAAAAAAAAAAAA",
"AAAAAAAAAAAAAAAAA @:;ooOOOOOoooo.oOoOoo;2@oAAAAAAAAAAAAAAAAA",
"AAAAAAAAAAAAAAAA.O30:o@%%;;%%%%%;;::;%o:8;oAAAAAAAAAAAAAAAAA",
"AAAAAAAAAAAAAAAAo;66#O:::366866880063:@@2:@oAAAAAAAAAAAAAAAA",
"AAAAAAAAAAAAAAAo%23:O#:2358qqqqq0q085:;o;:$oAAAAAAAAAAAAAAAA",
"AAAAAAAAAAAAAA.o%:2%o;:223360qq000663::o@#oOoAAAAAAAAAAAAAAA",
"AAAAAAAAAAAAAOe9@@;@@;:225536688008522:@O>rs4.AAAAAAAAAAAAAA",
"AAAAAAAAAAAA.4NVs,Oo@::22255556655532::%#lMca@AAAAAAAAAAAAAA",
"AAAAAAAAAAAA tMZZvyo%:::2223365555332::%OhCcd+AAAAAAAAAAAAAA",
"AAAAAAAAAAAA wbMmmao%:::22:2233323223::%OpMzrOAAAAAAAAAAAAAA",
"AAAAAAAAAAAAA$fccxuX%::::332223232223::%otzi$AAAAAAAAAAAAAAA",
"AAAAAAAAAAAAA >akj7X%;::::22232222222::%O=1+XAAAAAAAAAAAAAAA",
"AAAAAAAAAAAAAAX+-=OO%;;:222222222222::;%+X AAAAAAAAAAAAAAAAA",
"AAAAAAAAAAAAAAAAAA.O#;;:::22:2:22::::;;%+XAAAAAAAAAAAAAAAAAA",
"AAAAAAAAAAAAAAAAAAXO$&%;;;:;:::;;:::;;=*+XAAAAAAAAAAAAAAAAAA",
"AAAAAAAAAAAAAAAAAAXo#%;%;;%;=;;;=;;%;%%+oXAAAAAAAAAAAAAAAAAA",
"AAAAAAAAAAAAAAAAAAAooo@OOO@O@@@@@+++OOOooAAAAAAAAAAAAAAAAAAA",
"AAAAAAAAAAAAAAAAAAAAXo@+++OOXXXXo+++@$+oAAAAAAAAAAAAAAAAAAAA",
"AAAAAAAAAAAAAAAAAAAAX+*****$OAAo*===-=$XAAAAAAAAAAAAAAAAAAAA",
"AAAAAAAAAAAAAAAAAAAAoo++OOOOXAAO*==*==+XAAAAAAAAAAAAAAAAAAAA",
"AAAAAAAAAAAAAAAAAAAAAoXXXXooAAAo#+##+++XAAAAAAAAAAAAAAAAAAAA",
"AAAAAAAAAAAAAAAAAAAAAAAAAAAAAAAoXXXXOoOXAAAAAAAAAAAAAAAAAAAA",
"AAAAAAAAAAAAAAAAAAAAAAAAAAAAAAAAAAAAAAAAAAAAAAAAAAAAAAAAAAAA",
"AAAAAAAAAAAAAAAAAAAAAAAAAAAAAAAAAAAAAAAAAAAAAAAAAAAAAAAAAAAA",
"AAAAAAAAAAAAAAAAAAAAAAAAAAAAAAAAAAAAAAAAAAAAAAAAAAAAAAAAAAAA",
"AAAAAAAAAAAAAAAAAAAAAAAAAAAAAAAAAAAAAAAAAAAAAAAAAAAAAAAAAAAA"
};
