/* XPM */
static xpm_row_t const p1_back_9[] = {
/* columns rows colors chars-per-pixel */
"60 80 65 1 ",
"  c #151413",
". c #181715",
"X c #1A1917",
"o c #1D1C1A",
"O c #201F1D",
"+ c #22211F",
"@ c #252423",
"# c #282725",
"$ c #2D2C25",
"% c #2C2C2C",
"& c #332D27",
"* c #302F2E",
"= c #303027",
"- c #33322C",
"; c #3B342C",
": c #333333",
"> c #3C3733",
", c #383837",
"< c #383738",
"1 c #3B3B3B",
"2 c #453E37",
"3 c #483E34",
"4 c #4D4237",
"5 c #4E4439",
"6 c #51463B",
"7 c #403F40",
"8 c #444444",
"9 c #484748",
"0 c #4B4A4B",
"q c #5C4E41",
"w c #50504F",
"e c #525252",
"r c #5A5A5A",
"t c #605244",
"y c #776553",
"u c #746961",
"i c #806A57",
"p c #826F5C",
"a c #8D745F",
"s c #867565",
"d c #8A7560",
"f c #8F7A64",
"g c #8C7C6F",
"h c #9A826A",
"j c #9D8773",
"k c #9A897B",
"l c #B0967E",
"z c #BA997C",
"x c #BFA793",
"c c #BFA998",
"v c #C0A081",
"b c #CCAB8B",
"n c #D4B395",
"m c #DAB592",
"M c #DEB895",
"N c #DEBB99",
"B c #DDC1A9",
"V c #EDC7A2",
"C c #EEC9A4",
"Z c #F1CEAD",
"A c #EFCEB0",
"S c #E1C9B8",
"D c #F4D2B3",
"F c #F4D6BC",
"G c #00b140",
/* pixels */
"GGGGGGGGGGGGGGGGGGGGGGGGGGGGGGGGGGGGGGGGGGGGGGGGGGGGGGGGGGGG",
"GGGGGGGGGGGGGGGGGGGGGGGGGGGGGGGGGGGGGGGGGGGGGGGGGGGGGGGGGGGG",
"GGGGGGGGGGGGGGGGGGGGGGGGGGGGGGGGGGGGGGGGGGGGGGGGGGGGGGGGGGGG",
"GGGGGGGGGGGGGGGGGGGGGGGGGGGGGGGGGGGGGGGGGGGGGGGGGGGGGGGGGGGG",
"GGGGGGGGGGGGGGGGGGGGGGGGGGGGGGGGGGGGGGGGGGGGGGGGGGGGGGGGGGGG",
"GGGGGGGGGGGGGGGGGGGGGGGGGGGGXooGGGGGGGGGGGGGGGGGGGGGGGGGGGGG",
"GGGGGGGGGGGGGGGGGGGGGGGGGGGo@81OXGGGGGGGGGGGGGGGGGGGGGGGGGGG",
"GGGGGGGGGGGGGGGGGGGGGGGGGGo%0rr9#XGGGGGGGGGGGGGGGGGGGGGGGGGG",
"GGGGGGGGGGGGGGGGGGGGGGGG.O7rrrrre-ooGGGGGGGGGGGGGGGGGGGGGGGG",
"GGGGGGGGGGGGGGGGGGGGGGoo:wrrrrerrr8#oGGGGGGGGGGGGGGGGGGGGGGG",
"GGGGGGGGGGGGGGGGGGGGGo#8rreeeeweeere1@oGGGGGGGGGGGGGGGGGGGGG",
"GGGGGGGGGGGGGGGGGGGo@1erewewewewwerrrw:@XGGGGGGGGGGGGGGGGGGG",
"GGGGGGGGGGGGGGGGGo+:0reeeeweeeweweeerrrw:+XGGGGGGGGGGGGGGGGG",
"GGGGGGGGGGGGGGGX.:0rrreeewewereeewweeerrrw%XGGGGGGGGGGGGGGGG",
"GGGGGGGGGGGGGGX@7rrreeweweerrrrrrreeeewerre:ooGGGGGGGGGGGGGG",
"GGGGGGGGGGGGGX#9reeeeeeewwerrrrrrreewweweere:+XGGGGGGGGGGGGG",
"GGGGGGGGGGGGX#9eeeeew9000werrrrrree078800w0w07O.GGGGGGGGGGGG",
"GGGGGGGGGGGX@80www087,,170weeeee98811<,1711179:ooGGGGGGGGGGG",
"GGGGGGGGGGoo,878,::*%::<,178988711<<::11,::::,:%ooGGGGGGGGGG",
"GGGGGGGGGGo%,,:::,787<:%*::,11,,1<,::1898781::::#oGGGGGGGGGG",
"GGGGGGGGGo@::::799099981,*%:*,,,:::<7998090w81:%:@oGGGGGGGGG",
"GGGGGGGGXO:<:199909990999811::**:1889989999ww8:::%ooGGGGGGGG",
"GGGGGGGGo%:::1909009889090999888808999999890w81,%:#oGGGGGGGG",
"GGGGGGGX+:::18900999889999999989989899998889w8,,:*%OXGGGGGGG",
"GGGGGGGo%:::18999899990999988888888999988999w81,::*#oGGGGGGG",
"GGGGGGGo%::%1799978988990999999998998889878908,1<*:*oGGGGGGG",
"GGGGGGX@**%:,1988889999889998899989889988890911,<%%*@XGGGGGG",
"GGGGGGX#**::<17778889998899899998898889888997,1,<*:*#oGGGGGG",
"GGGGGGo%:*:*<<1178898899999999999988878889091<<1::%%%oGGGGGG",
"GGGGGGO%*:*:<<111798898888889888888888889997111<::*:%oGGGGGG",
"GGGGGXo%*:%%:<<117898888888888888888888099811<<<::**%OXGGGGG",
"GGGGGo@%:::::<1<1118998888888888888888088871<11:::*:%@XGGGGG",
"GGGGGX+*%::%::1<1771889888787878888888878911,<1:::%:*@oGGGGG",
"GGGGGO+%%%::::<1178718889888888888888878911111<:::::%@XGGGGG",
"GGGGGo+%%::%::<<11777178888988898888988811<1,,:::::%%@oGGGGG",
"GGGGGo+%:%%::::<1117787777888898880900871<11:::<::%:%@oGGGGG",
"GGGGGo+%%%%::<:::111771777878889988878111<1<::1::::%%OOGGGGG",
"GGGGGo+%%%%:::<::,1,1187777888888788711,<<<::,::::%:%O+GGGGG",
"GGGGGGo%%:%%%:<:::,,,17777711117787111,11,:::1::::%%@oGGGGGG",
"GGGGGGo@%%%%::::,::,1,,,1117771171111,1,1:::<::,:::%%oGGGGGG",
"GGGGGGo@%%%%%:::,,::,11,,1,1111111111111::1:::<::*:%@oGGGGGG",
"GGGGGGoo%%%%%:%:,:,::1,11,1,1<1111111::::::::,:::*:%OoGGGGGG",
"GGGGGGGo@@%%%%%::,,::,,11<,,<111,11::11:1:::1:::*:*#oGGGGGGG",
"GGGGGGGo@@%%%%:%%::,::::,<<:::::::,11::1:%:1:::::%#@oGGGGGGG",
"GGGGGGGGo@%%%%%:%:::,::::<,<,11,111:::::::,::::::%@ooGGGGGGG",
"GGGGGGGGX@@%%%%%:::::1:%:<<<<:<,:::::,:1::::::%:%@@oGGGGGGGG",
"GGGGGGGGG@@%%%%%%:::::::::,1<:::::::11111:,:::%%%@o.GGGGGGGG",
"GGGGGGGGG.o@@%%@%%%:::::::::::::1<111,::,:::::%@@OXGGGGGGGGG",
"GGGGGGGGGGXo##%%%%%%*:::::::::<::<<<<<:::%::*%%#OoGGGGGGGGGG",
"GGGGGGGGGGG.o@#%#%**%%%:%:::::::*:::<:*:::%%##@ooGGGGGGGGGGG",
"GGGGGGGGGGGG oO@#%%**%%%%::%:%%::::::%:%%%%@@@o.GGGGGGGGGGGG",
"GGGGGGGGGGGGGG.oO@%$%::%%%%%%%:::*%:%::%@@@OoX GGGGGGGGGGGGG",
"GGGGGGGGGGGGGGG oo+@@%%%%::%%:::*%%%%%@@@oX.GGGGGGGGGGGGGGGG",
"GGGGGGGGGGGGGGGGG .oo+@@@%%%%%%%%%@@@+ooO GGGGGGGGGGGGGGGGGG",
"GGGGGGGGGGGGGGGGGGX**oooooOOO@OOoOooO.o<<o.GGGGGGGGGGGGGGGGG",
"GGGGGGGGGGGGGGGGGX,e7o+%%%%@@@@@%*:1:#.1w<oGGGGGGGGGGGGGGGGG",
"GGGGGGGGGGGGGGGGX@8w:o:11800088w0w0081@%07@oGGGGGGGGGGGGGGGG",
"GGGGGGGGGGGGGGGo+,07+@1780errrrrreew81%O11*oGGGGGGGGGGGGGGGG",
"GGGGGGGGGGGGGGGX$18-o%17788errreeeew81:o%>%o.GGGGGGGGGGGGGGG",
"GGGGGGGGGGGGGG@>o@:$o,178888wwwweee0811OOO+95oGGGGGGGGGGGGGG",
"GGGGGGGGGGGGGogSk1oo@,,7788899www0w0811@OuxNv>GGGGGGGGGGGGGG",
"GGGGGGGGGGGGG&nFFBso%,177780909w9987717%@bFCnq.GGGGGGGGGGGGG",
"GGGGGGGGGGGGG$bAAFvo%,,7777788988887771%ojDVb3GGGGGGGGGGGGGG",
"GGGGGGGGGGGGGodVCBso%,1,77777788787771<*opVMaOGGGGGGGGGGGGGG",
"GGGGGGGGGGGGGG&hnMyO%:1177777887877771,%Oqzu$GGGGGGGGGGGGGGG",
"GGGGGGGGGGGGGGG+46&O%:,117777777777771,%O+=oGGGGGGGGGGGGGGGG",
"GGGGGGGGGGGGGGGGG XO%*:1117777777171,,:%+oGGGGGGGGGGGGGGGGGG",
"GGGGGGGGGGGGGGGGGGXO%*::111711711111,,:%OoGGGGGGGGGGGGGGGGGG",
"GGGGGGGGGGGGGGGGGGXo%%:*:*::,,:,::,:::=#OXGGGGGGGGGGGGGGGGGG",
"GGGGGGGGGGGGGGGGGGGo@##%%%%=%%%%%%%$%#@+oGGGGGGGGGGGGGGGGGGG",
"GGGGGGGGGGGGGGGGGGGoXooooo+ooooooooooo+ooGGGGGGGGGGGGGGGGGGG",
"GGGGGGGGGGGGGGGGGGGG.+$$$#+#ooGo@=$==-+oGGGGGGGGGGGGGGGGGGGG",
"GGGGGGGGGGGGGGGGGGGGX+==$$=$oGG+=--;=;+oGGGGGGGGGGGGGGGGGGGG",
"GGGGGGGGGGGGGGGGGGGGooOOoo++oGGo$$+=$$+oGGGGGGGGGGGGGGGGGGGG",
"GGGGGGGGGGGGGGGGGGGGGGGGGGGGGGGooooOXoooGGGGGGGGGGGGGGGGGGGG",
"GGGGGGGGGGGGGGGGGGGGGGGGGGGGGGGGGGGGGGGGGGGGGGGGGGGGGGGGGGGG",
"GGGGGGGGGGGGGGGGGGGGGGGGGGGGGGGGGGGGGGGGGGGGGGGGGGGGGGGGGGGG",
"GGGGGGGGGGGGGGGGGGGGGGGGGGGGGGGGGGGGGGGGGGGGGGGGGGGGGGGGGGGG",
"GGGGGGGGGGGGGGGGGGGGGGGGGGGGGGGGGGGGGGGGGGGGGGGGGGGGGGGGGGGG",
"GGGGGGGGGGGGGGGGGGGGGGGGGGGGGGGGGGGGGGGGGGGGGGGGGGGGGGGGGGGG"
};
