/* XPM */
static xpm_row_t const p1_back_0[] = {
/* columns rows colors chars-per-pixel */
"60 80 61 1 ",
"  c #151413",
". c #181715",
"X c #1A1917",
"o c #1D1C1A",
"O c #201F1D",
"+ c #22211E",
"@ c #242423",
"# c #282724",
"$ c #2B2B25",
"% c #2C2C2C",
"& c #312D26",
"* c #332F2A",
"= c #33322B",
"- c #333333",
"; c #3B3B3B",
": c #40382F",
"> c #413A31",
", c #483E34",
"< c #40403F",
"1 c #53483D",
"2 c #5B4C3F",
"3 c #403F40",
"4 c #444444",
"5 c #484748",
"6 c #4B4A4B",
"7 c #5B4D40",
"8 c #535353",
"9 c #5A5A5A",
"0 c #665748",
"q c #67594B",
"w c #735F4E",
"e c #645A52",
"r c #756251",
"t c #76695E",
"y c #83705C",
"u c #89725D",
"i c #A38B74",
"p c #AD8E73",
"a c #AD957D",
"s c #B19276",
"d c #A08E81",
"f c #BFA182",
"g c #BEA691",
"h c #BEAA9B",
"j c #C1A78F",
"k c #C7A888",
"l c #CFAB8A",
"z c #D0AE8D",
"x c #DBB693",
"c c #DFBA97",
"v c #C7B2A3",
"b c #E9C39E",
"n c #ECC6A2",
"m c #EDC9A7",
"M c #EFCDAF",
"N c #F1CBA6",
"B c #F0CEB0",
"V c #F2D1B5",
"C c #F5D7BF",
"Z c #F1D5C1",
"A c #00b140",
/* pixels */
"AAAAAAAAAAAAAAAAAAAAAAAAAAAAAAAAAAAAAAAAAAAAAAAAAAAAAAAAAAAA",
"AAAAAAAAAAAAAAAAAAAAAAAAAAAAAAAAAAAAAAAAAAAAAAAAAAAAAAAAAAAA",
"AAAAAAAAAAAAAAAAAAAAAAAAAAAAAAAAAAAAAAAAAAAAAAAAAAAAAAAAAAAA",
"AAAAAAAAAAAAAAAAAAAAAAAAAAAAAAAAAAAAAAAAAAAAAAAAAAAAAAAAAAAA",
"AAAAAAAAAAAAAAAAAAAAAAAAAAAAAoXAAAAAAAAAAAAAAAAAAAAAAAAAAAAA",
"AAAAAAAAAAAAAAAAAAAAAAAAAAAX+;;oXAAAAAAAAAAAAAAAAAAAAAAAAAAA",
"AAAAAAAAAAAAAAAAAAAAAAAAAAo$6995@XAAAAAAAAAAAAAAAAAAAAAAAAAA",
"AAAAAAAAAAAAAAAAAAAAAAAAX+;899998%oAAAAAAAAAAAAAAAAAAAAAAAAA",
"AAAAAAAAAAAAAAAAAAAAAAAo%699998999<+oAAAAAAAAAAAAAAAAAAAAAAA",
"AAAAAAAAAAAAAAAAAAAAAo@;999888888898-+oAAAAAAAAAAAAAAAAAAAAA",
"AAAAAAAAAAAAAAAAAAAX+-8988868886889996-+oAAAAAAAAAAAAAAAAAAA",
"AAAAAAAAAAAAAAAAAXO=69988888868888889996-oXAAAAAAAAAAAAAAAAA",
"AAAAAAAAAAAAAAAAo%599888888898888888888995$XAAAAAAAAAAAAAAAA",
"AAAAAAAAAAAAAAX+;99988888688999998888688998=oXAAAAAAAAAAAAAA",
"AAAAAAAAAAAAAX@59888888888899999998888888986-OXAAAAAAAAAAAAA",
"AAAAAAAAAAAAX+5888888566588999999886444686886;ooAAAAAAAAAAAA",
"AAAAAAAAAAAX@4686865;;;;;6888988644;;;-;<;;;<6%ooAAAAAAAAAAA",
"AAAAAAAAAAXo-445;-------;;<4454<;;;;--;;;----;-%oAAAAAAAAAAA",
"AAAAAAAAAAo%;;----<4;--%---;;;-;;;;---454;4;----#oAAAAAAAAAA",
"AAAAAAAAAo@----;5555554;--%--;;-----;55555684-%--@XAAAAAAAAA",
"AAAAAAAAX+---;555555555554;--%-%-;<55545556664--%%ooAAAAAAAA",
"AAAAAAAAX%---;56555555555565544<45455555455684;---@XAAAAAAAA",
"AAAAAAAoo--%-455655544555655555555555555445584;-%%%@XAAAAAAA",
"AAAAAAAX%---;556555555655554444<<<45555544566<;;---#oAAAAAAA",
"AAAAAAAo%-%-;;5554454555555555555555445544558<;;---%oAAAAAAA",
"AAAAAAX@--%-;;5444455545555454555544445<<4555;;-;%-%@XAAAAAA",
"AAAAAAX@%---;;34<444555444545564445554544455;;;;---%%XAAAAAA",
"AAAAAAo%-%---;;;<454445565554555554543445555;;;;-%-%%XAAAAAA",
"AAAAAAo%%--%-;;;;<54545444455555544433445554;-;;---%%oAAAAAA",
"AAAAAo+%%----;;;;;44444444444<44444<4455644;;;;-----%+XAAAAA",
"AAAAAo+%---%-;;-;;<45444444444444<444555444;;;;---%-%@XAAAAA",
"AAAAAX@%%-%-%-;;;4;<44554<4<4<4<444444<445;;;-;---%-%@XAAAAA",
"AAAAAo@%%%%---;-;33<;445544<4<444444<<4453;;;;;---%-%@oAAAAA",
"AAAAAX@%-%-----;;;<33;<<4455454544445554;;-;;-------%@XAAAAA",
"AAAAAo+%%%%--;-;;;;3333333<4444445555543;;;;--;--%%-%@oAAAAA",
"AAAAAoO%-%%%-;--;;;;<333<<4<4445554<<4;;-;;;--;----%%+oAAAAA",
"AAAAAo+@%%%---;---;;;3<3334<55454<4<<;;;;;--------%%%OOAAAAA",
"AAAAAAO%%-%%%--;---;-;;4333;;;3;<4<3;;;;;;---;-----%@OAAAAAA",
"AAAAAAo@%%%%-%-----;;;-;;;333;;;33;;;;-;;---;------%%oAAAAAA",
"AAAAAAo@%%%%%----;--;;;;;;-;;;3;3;;;;;;----;--;----%@oAAAAAA",
"AAAAAAo+@%%%%-%--;---;;;;;;;;--;;;;;;;-------;---%-%@oAAAAAA",
"AAAAAAAX@%%%%%-%--;----;-;-;;;;;;-;--;;-;---;-----%@oAAAAAAA",
"AAAAAAAo@@%%%%---------;;;;------;;-;--;---;----%%%@XAAAAAAA",
"AAAAAAAAo@@%%%%----;------;;;;;;;;-;------;----%-%%oXAAAAAAA",
"AAAAAAAAo@%%%%%%%----;---;---;-;-------;----;---%%+XAAAAAAAA",
"AAAAAAAAAo@@%%%%%-%-------;;;------;;;;;;---%--%%@oXAAAAAAAA",
"AAAAAAAAAOO@@%%%%%-------------;--;;;;-;---%-%%@@+XAAAAAAAAA",
"AAAAAAAAAA o@%%%%%%%%%----------;;;--;-------%%@+oAAAAAAAAAA",
"AAAAAAAAAAAXo@@%%%%%%%-%----------------%%-%#%@OoAAAAAAAAAAA",
"AAAAAAAAAAAAXX@@@%%-%%%%%--%%--%-----%-%%%%@#@oXAAAAAAAAAAAA",
"AAAAAAAAAAAAAAXo+%%%%%-%%%%%%--%---%%%%%%%@@oX AAAAAAAAAAAAA",
"AAAAAAAAAAAAAAA .oO@%%%%%-%%%%--%%%%%%%#@oXX AAAAAAAAAAAAAAA",
"AAAAAAAAAAAAAAAAA XXo@@#%%%%%%%%%@%@@@oOoX AAAAAAAAAAAAAAAAA",
"AAAAAAAAAAAAAAAAAA.%%oooooO+@@O+++OooXo--X AAAAAAAAAAAAAAAAA",
"AAAAAAAAAAAAAAAAAX%64oo#%%@@@++@@%---@X46-XAAAAAAAAAAAAAAAAA",
"AAAAAAAAAAAAAAAAXO;8;o-;;455545566864-+%84%XAAAAAAAAAAAAAAAA",
"AAAAAAAAAAAAAAAAo%44$+;3<689999999885;%o,4-+XAAAAAAAAAAAAAAA",
"AAAAAAAAAAAAAAAXO-<;o%;<<569999998885;-o-;-@XAAAAAAAAAAAAAAA",
"AAAAAAAAAAAAAAX%$O$$o-;<<5468888888643;+@*+#;+AAAAAAAAAAAAAA",
"AAAAAAAAAAAAAA*hvt=o+-;<<45456888666<;3@X&edzroAAAAAAAAAAAAA",
"AAAAAAAAAAAAA qVCVg&@;;3<<55566655543;3%OdZBbs$AAAAAAAAAAAAA",
"AAAAAAAAAAAAA qmMVg+%;;;<<<44565554<33;%oiBBnp#AAAAAAAAAAAAA",
"AAAAAAAAAAAAAA=kNNio%;;;<3<<<44<4<43<3;%oyNnxwXAAAAAAAAAAAAA",
"AAAAAAAAAAAAAAX1gcto%-;;<<<<<4<44<<<<;;%O0xzu+AAAAAAAAAAAAAA",
"AAAAAAAAAAAAAAAX&7>o%-;;;4<4<<<<<<<<<;;-o%2<+AAAAAAAAAAAAAAA",
"AAAAAAAAAAAAAAAAA Xo%--;;<3<333<<<<<;;-%+X AAAAAAAAAAAAAAAAA",
"AAAAAAAAAAAAAAAAAAAO%%--;;<<3;3;<;;;;;-%+XAAAAAAAAAAAAAAAAAA",
"AAAAAAAAAAAAAAAAAAAo%%--;--;-;;;;-;----#OoAAAAAAAAAAAAAAAAAA",
"AAAAAAAAAAAAAAAAAAAo@%%=%-%----%=---=%$$OXAAAAAAAAAAAAAAAAAA",
"AAAAAAAAAAAAAAAAAAAooo++OO+++@@@++++OOoooAAAAAAAAAAAAAAAAAAA",
"AAAAAAAAAAAAAAAAAAAAo+$+@+++XoXX++++#$+oAAAAAAAAAAAAAAAAAAAA",
"AAAAAAAAAAAAAAAAAAAAX@======oAAo======+XAAAAAAAAAAAAAAAAAAAA",
"AAAAAAAAAAAAAAAAAAAAo+$$$$$$oAAO$$$$$$+oAAAAAAAAAAAAAAAAAAAA",
"AAAAAAAAAAAAAAAAAAAAXoOOooOOoAAXOOoooooOAAAAAAAAAAAAAAAAAAAA",
"AAAAAAAAAAAAAAAAAAAAAAAAAAAAAAAAAAAAAAAAAAAAAAAAAAAAAAAAAAAA",
"AAAAAAAAAAAAAAAAAAAAAAAAAAAAAAAAAAAAAAAAAAAAAAAAAAAAAAAAAAAA",
"AAAAAAAAAAAAAAAAAAAAAAAAAAAAAAAAAAAAAAAAAAAAAAAAAAAAAAAAAAAA",
"AAAAAAAAAAAAAAAAAAAAAAAAAAAAAAAAAAAAAAAAAAAAAAAAAAAAAAAAAAAA",
"AAAAAAAAAAAAAAAAAAAAAAAAAAAAAAAAAAAAAAAAAAAAAAAAAAAAAAAAAAAA",
"AAAAAAAAAAAAAAAAAAAAAAAAAAAAAAAAAAAAAAAAAAAAAAAAAAAAAAAAAAAA"
};
