/* XPM */
static xpm_row_t const p1_back_6[] = {
/* columns rows colors chars-per-pixel */
"60 80 68 1 ",
"  c #171614",
". c #181716",
"X c #1A1917",
"o c #1D1C1A",
"O c #201F1D",
"+ c #22211F",
"@ c #252423",
"# c #2B2621",
"$ c #2B2A25",
"% c #2C2C2C",
"& c #302F27",
"* c #302F2F",
"= c #32322A",
"- c #3A322B",
"; c #333333",
": c #383837",
"> c #3B3B3B",
", c #4A3F36",
"< c #403F3F",
"1 c #40403F",
"2 c #4F4338",
"3 c #403F40",
"4 c #444444",
"5 c #4D4741",
"6 c #484847",
"7 c #484748",
"8 c #4A4A4A",
"9 c #5B4D40",
"0 c #5D5043",
"q c #5F544A",
"w c #4F5050",
"e c #535353",
"r c #5A5A5A",
"t c #605345",
"y c #685748",
"u c #6F5F4F",
"i c #736150",
"p c #7A6653",
"a c #7C6957",
"s c #7D7168",
"d c #806D5A",
"f c #8F7560",
"g c #8D7862",
"h c #8C7C6D",
"j c #9A8470",
"k c #9C8876",
"l c #AD947C",
"z c #B09176",
"x c #B99D80",
"c c #B6A191",
"v c #BDA795",
"b c #C6AA8F",
"n c #CBA989",
"m c #D2AD8B",
"M c #D4B18F",
"N c #C9B09C",
"B c #DDB793",
"V c #DDB895",
"C c #E6C19E",
"Z c #ECC6A1",
"A c #EFC9A4",
"S c #EFCCAB",
"D c #F2CEAB",
"F c #EACCB3",
"G c #F3D1B2",
"H c #F4D5BB",
"J c #EDD3C1",
"K c #00b140",
/* pixels */
"KKKKKKKKKKKKKKKKKKKKKKKKKKKKKKKKKKKKKKKKKKKKKKKKKKKKKKKKKKKK",
"KKKKKKKKKKKKKKKKKKKKKKKKKKKKKKKKKKKKKKKKKKKKKKKKKKKKKKKKKKKK",
"KKKKKKKKKKKKKKKKKKKKKKKKKKKKKKKKKKKKKKKKKKKKKKKKKKKKKKKKKKKK",
"KKKKKKKKKKKKKKKKKKKKKKKKKKKKKKKKKKKKKKKKKKKKKKKKKKKKKKKKKKKK",
"KKKKKKKKKKKKKKKKKKKKKKKKKKKKKKKKKKKKKKKKKKKKKKKKKKKKKKKKKKKK",
"KKKKKKKKKKKKKKKKKKKKKKKKKKKKoooKKKKKKKKKKKKKKKKKKKKKKKKKKKKK",
"KKKKKKKKKKKKKKKKKKKKKKKKKKKX@64+XKKKKKKKKKKKKKKKKKKKKKKKKKKK",
"KKKKKKKKKKKKKKKKKKKKKKKKKXo;err8$oKKKKKKKKKKKKKKKKKKKKKKKKKK",
"KKKKKKKKKKKKKKKKKKKKKKKKX$4rrrrre:oXKKKKKKKKKKKKKKKKKKKKKKKK",
"KKKKKKKKKKKKKKKKKKKKKKXO;errrerrrr8%oXKKKKKKKKKKKKKKKKKKKKKK",
"KKKKKKKKKKKKKKKKKKKKXo%8rreeweeweerr4#oKKKKKKKKKKKKKKKKKKKKK",
"KKKKKKKKKKKKKKKKKKKo@1erewewewwwwerrre>#XKKKKKKKKKKKKKKKKKKK",
"KKKKKKKKKKKKKKKKKX@>ereeewewwwwweweerrre>@XKKKKKKKKKKKKKKKKK",
"KKKKKKKKKKKKKKKXo:wrreeeeeeeerrweeewewrrre;oXKKKKKKKKKKKKKKK",
"KKKKKKKKKKKKKKX@8rrreeewewerrrrrrrewwwwerre:OXKKKKKKKKKKKKKK",
"KKKKKKKKKKKKKX%8eeeeeewewwerrrrrrreewweweere:@XKKKKKKKKKKKKK",
"KKKKKKKKKKKKX%8eeeeww7774werrrrrrww8334788w8w1+oKKKKKKKKKKKK",
"KKKKKKKKKKKo@48ew873>:::37wweeww743>>>;>>>:>>7;OXKKKKKKKKKKK",
"KKKKKKKKKKoO>33>:;*;;*;;>>334113>>>>;;:>>;;*;:;%OXKKKKKKKKKK",
"KKKKKKKKKKo%::;;:>443>;*%;;:>>>>>>;;;>777474;**;%oKKKKKKKKKK",
"KKKKKKKKKo%;;;;477777773>*%;;;:;;;;>3777788w7>**%@XKKKKKKKKK",
"KKKKKKKKXO;;;>7787777777773>:;;;;>3777474788w4;;;*OXKKKKKKKK",
"KKKKKKKKX%;;;>787777447777774444777777774478w7>;;*%oKKKKKKKK",
"KKKKKKKX@;;;>478w777447786777744474478774477w1>:**%+XKKKKKKK",
"KKKKKKKo%;;;>4487477777777774444444774744477w4>:;;%%XKKKKKKK",
"KKKKKKKO%;**>377744774777777777746774477417784:>:%;%oKKKKKKK",
"KKKKKKX@*;*;>>4444447744477747777474477444774>>>:%%;@oKKKKKK",
"KKKKKKX@**;*:>3334447777477477744477444447773:>:;;;%%XKKKKKK",
"KKKKKKo%*;*;:>>>3474474777777477844444437774>>>>:***%oKKKKKK",
"KKKKKK+%*;;*;>>>>374747444444774444443467773>>;>;;**%oKKKKKK",
"KKKKKX+%*;*;;>::>>4444444444444444444467747>>>>;;;*;%@XKKKKK",
"KKKKKo+%*;***>:>>>3447444444444444444466444>>;:;;;*;%@XKKKKK",
"KKKKKo+*%;;%;;>>>33>4466444434444444434344>>>>>;;;;;%@XKKKKK",
"KKKKKo+*%;%;;;;>>133>34644444444444444447>>>;>;;;;%;%@oKKKKK",
"KKKKKoO%%%%;;;;>>>3133134447444744444864>>>>>>;;;;;%%@oKKKKK",
"KKKKKoO%;%;%;>;;>>>333314>3444444487774>>>;>;;;>;;%;%@oKKKKK",
"KKKKKo@%;%%;%>;;;>>:>33334434477744444>>>>>>;;>;;;%;%OoKKKKK",
"KKKKKKO%%%%;;;>;;>>>>>33>34344444344>>>>;>;;;>;;;;;%@OoKKKKK",
"KKKKKKo%%%%%;;;>;;;>:>>333>>>>>>343>>>;>>>;;;>;;;;;;%OKKKKKK",
"KKKKKKo@%%%%%;;;>;;;>:>:>>33>34>3>>>>:>>>;;;;;;;;;%%@OKKKKKK",
"KKKKKKo@%*%%%;%;;>;;>>>>>>>>>>>>>>>>>>>>;;>;;;>;;*;%@XKKKKKK",
"KKKKKKoo@%*%%*;;;;;;;>>;>>;>>>>>>>>>>;;;;;;;;>;;;*;%@oKKKKKK",
"KKKKKKKo@@%%%%;%;;>;;;>>>;;>;>>>>>;;;>;;>;;;>;;;*;%@oKKKKKKK",
"KKKKKKKXO@%%%%%;;;;>;;;;>;>;;;;;;;>>>>;>;%;>;;;%**%@XKKKKKKK",
"KKKKKKKKo@%%%%%%%;;;>;;;;>;>>>>>>>>;;;;;;;>;;;;;*%@oXKKKKKKK",
"KKKKKKKKo@@%%%;;;;;;;;;;;;>;;;;>;;;;;>>;;;;;;;;%%@+oKKKKKKKK",
"KKKKKKKKKO@@%%@%%;;;;;;;;;>>>;;;;;;>>>>>>;;;;;;%%@oKKKKKKKKK",
"KKKKKKKKKKo@%@%%%%%;;;;;;;;;;;;;;>>>>;;>>;;;;%%@@ooKKKKKKKKK",
"KKKKKKKKKK.o@@%*%%%%***;;;:;;;;;;::>:::;;**;*%%@OoKKKKKKKKKK",
"KKKKKKKKKKK.o@@%%%*%%%****;;;;;;;;;;;;*****%@@@o.KKKKKKKKKKK",
"KKKKKKKKKKKK Xo@@%%***%%%%*;;%;%;;;;****%%@%@@oXKKKKKKKKKKKK",
"KKKKKKKKKKKKKK.oo@%$%**;%%%%%%;;;%*%**%%%@@OX.KKKKKKKKKKKKKK",
"KKKKKKKKKKKKKKKK.oO@@@%%;%%;%;;%%%%%%%@@ooo.KKKKKKKKKKKKKKKK",
"KKKKKKKKKKKKKKKKKK oOO@@@%%%%%%%%@@@+OoOo.KKKKKKKKKKKKKKKKKK",
"KKKKKKKKKKKKKKKKK.O;;OoooooOOOOOooOOOXo>>O.KKKKKKKKKKKKKKKKK",
"KKKKKKKKKKKKKKKKKo;w4X@%%;%%%@@%%;>>;%X>w:OKKKKKKKKKKKKKKKKK",
"KKKKKKKKKKKKKKKKo@6w%+;>>78w87wwwwww3>@%83@XKKKKKKKKKKKKKKKK",
"KKKKKKKKKKKKKKKX+:61+@>118wrrrrrreww7>%o>3;oKKKKKKKKKKKKKKKK",
"KKKKKKKKKKKKKKK.@>1;o%>1447wrrrereww7>;O%;%oXKKKKKKKKKKKKKKK",
"KKKKKKKKKKKKKK$5@+%@o;>437448wwwwww83>>+oo$9toKKKKKKKKKKKKKK",
"KKKKKKKKKKKKKohJcq@X@:>13444778ww8w433>%OsNCn,.KKKKKKKKKKKKK",
"KKKKKKKKKKKKK@bHHFkO%:>134467w8848443>>%@vHDVy.KKKKKKKKKKKKK",
"KKKKKKKKKKKKK+xDFGlO%>>>33143444444>4>>%ojGZm2.KKKKKKKKKKKKK",
"KKKKKKKKKKKKKXiCAZgX%:>>>31>344344334>>%oaZVf@KKKKKKKKKKKKKK",
"KKKKKKKKKKKKKK+anMiX%;>>3314343444>4>>>%O2la$KKKKKKKKKKKKKKK",
"KKKKKKKKKKKKKKKO-,#O%;:3>333343>>44>>>;%OO+oKKKKKKKKKKKKKKKK",
"KKKKKKKKKKKKKKKKKKXO%*;>>333341>4>3>>>;%+oKKKKKKKKKKKKKKKKKK",
"KKKKKKKKKKKKKKKKKKoo%*;;:>>>>>>>>>>>>;;%+oKKKKKKKKKKKKKKKKKK",
"KKKKKKKKKKKKKKKKKKXo%%**;*;;;;;>;;;;;;%$O.KKKKKKKKKKKKKKKKKK",
"KKKKKKKKKKKKKKKKKKKo@@$@@$$%%%%%$%%$$@++oKKKKKKKKKKKKKKKKKKK",
"KKKKKKKKKKKKKKKKKKKXXXooooooooXooooooOOXoKKKKKKKKKKKKKKKKKKK",
"KKKKKKKKKKKKKKKKKKKKX+=&&%$$oKKX$&&===+oKKKKKKKKKKKKKKKKKKKK",
"KKKKKKKKKKKKKKKKKKKKo+&&&&&&oKKo$&=-=-+oKKKKKKKKKKKKKKKKKKKK",
"KKKKKKKKKKKKKKKKKKKKooOoooOOoKKO$$+$&++oKKKKKKKKKKKKKKKKKKKK",
"KKKKKKKKKKKKKKKKKKKKKKKKKKKKKKKoooooXoooKKKKKKKKKKKKKKKKKKKK",
"KKKKKKKKKKKKKKKKKKKKKKKKKKKKKKKKKKKKKKKKKKKKKKKKKKKKKKKKKKKK",
"KKKKKKKKKKKKKKKKKKKKKKKKKKKKKKKKKKKKKKKKKKKKKKKKKKKKKKKKKKKK",
"KKKKKKKKKKKKKKKKKKKKKKKKKKKKKKKKKKKKKKKKKKKKKKKKKKKKKKKKKKKK",
"KKKKKKKKKKKKKKKKKKKKKKKKKKKKKKKKKKKKKKKKKKKKKKKKKKKKKKKKKKKK",
"KKKKKKKKKKKKKKKKKKKKKKKKKKKKKKKKKKKKKKKKKKKKKKKKKKKKKKKKKKKK"
};
