/* XPM */
static xpm_row_t const p1_back_3[] = {
/* columns rows colors chars-per-pixel */
"60 80 66 1 ",
"  c #161614",
". c #181715",
"X c #1A1917",
"o c #1C1B1A",
"O c #201F1D",
"+ c #21211E",
"@ c #252423",
"# c #282727",
"$ c #2B2A25",
"% c #2C2C2C",
"& c #302D26",
"* c #312E2C",
"= c #303027",
"- c #333329",
"; c #3E362E",
": c #38382E",
"> c #333333",
", c #3B3B3B",
"< c #433A31",
"1 c #493E34",
"2 c #423F3C",
"3 c #53473B",
"4 c #403F40",
"5 c #444444",
"6 c #484747",
"7 c #484748",
"8 c #4A4A4A",
"9 c #504842",
"0 c #5D4E41",
"q c #5E5144",
"w c #50504F",
"e c #535353",
"r c #5A5A5A",
"t c #615445",
"y c #736251",
"u c #786654",
"i c #7E6B58",
"p c #7C7067",
"a c #856E5A",
"s c #87725E",
"d c #87796E",
"f c #907660",
"g c #937D66",
"h c #9A8673",
"j c #9E8873",
"k c #A38B72",
"l c #BC9B7E",
"z c #BFA58F",
"x c #B9A699",
"c c #C5A384",
"v c #CFAA89",
"b c #CBB19B",
"n c #D7B492",
"m c #DAB491",
"M c #DFB996",
"N c #E6C29E",
"B c #EAC5A0",
"V c #EEC9A5",
"C c #F4CDA7",
"Z c #F3CEAC",
"A c #EFCEB1",
"S c #F2D1B2",
"D c #F4D5BC",
"F c #F5D8C0",
"G c #FADCC4",
"H c #00b140",
/* pixels */
"HHHHHHHHHHHHHHHHHHHHHHHHHHHHHHHHHHHHHHHHHHHHHHHHHHHHHHHHHHHH",
"HHHHHHHHHHHHHHHHHHHHHHHHHHHHHHHHHHHHHHHHHHHHHHHHHHHHHHHHHHHH",
"HHHHHHHHHHHHHHHHHHHHHHHHHHHHHHHHHHHHHHHHHHHHHHHHHHHHHHHHHHHH",
"HHHHHHHHHHHHHHHHHHHHHHHHHHHHHHHHHHHHHHHHHHHHHHHHHHHHHHHHHHHH",
"HHHHHHHHHHHHHHHHHHHHHHHHHHHHHHHHHHHHHHHHHHHHHHHHHHHHHHHHHHHH",
"HHHHHHHHHHHHHHHHHHHHHHHHHHHHHHHHHHHHHHHHHHHHHHHHHHHHHHHHHHHH",
"HHHHHHHHHHHHHHHHHHHHHHHHHHHHXOoXHHHHHHHHHHHHHHHHHHHHHHHHHHHH",
"HHHHHHHHHHHHHHHHHHHHHHHHHHHo%85@XHHHHHHHHHHHHHHHHHHHHHHHHHHH",
"HHHHHHHHHHHHHHHHHHHHHHHHHXo,errw*oHHHHHHHHHHHHHHHHHHHHHHHHHH",
"HHHHHHHHHHHHHHHHHHHHHHHHo#7rrrrrr,+XHHHHHHHHHHHHHHHHHHHHHHHH",
"HHHHHHHHHHHHHHHHHHHHHHo+,errrreerr8-ooHHHHHHHHHHHHHHHHHHHHHH",
"HHHHHHHHHHHHHHHHHHHHXo%8rreeeeew8rrr5#ooHHHHHHHHHHHHHHHHHHHH",
"HHHHHHHHHHHHHHHHHHoo#5ereeweeewweerrre5#oXHHHHHHHHHHHHHHHHHH",
"HHHHHHHHHHHHHHHHHo#4erreeeeweeewwweerrre3#oHHHHHHHHHHHHHHHHH",
"HHHHHHHHHHHHHHHX+,erreeewewereeeeeeeweerre>OoHHHHHHHHHHHHHHH",
"HHHHHHHHHHHHHHX#8rreeewweeerrrrrrreewweerre,ooHHHHHHHHHHHHHH",
"HHHHHHHHHHHHHo%eeeeeeewewwerrrrrrrewwweeeeee,@oHHHHHHHHHHHHH",
"HHHHHHHHHHHHo#8eeeee85577eerrrrreew8,44788w885@oHHHHHHHHHHHH",
"HHHHHHHHHHHo#88w8774,,>,,8weeeew75,,,>>,,,>,,7>@oHHHHHHHHHHH",
"HHHHHHHHHHX@,,3,>>>>%>>>>,,,45,,,,,,>>,,,>>>>>>%ooHHHHHHHHHH",
"HHHHHHHHHoo%>,>>,,554,>%%%>,,,>,>>>>>,875584>>%%%oHHHHHHHHHH",
"HHHHHHHHHo#>>%,577887775,>%>>>>>>>>,4777778e8,>>>#oHHHHHHHHH",
"HHHHHHHHo+>>>,7777777777775,,>>>>47877575788w5>>%%OoHHHHHHHH",
"HHHHHHHHo%,>>4877887557887877577877777885578w8,>>>#oHHHHHHHH",
"HHHHHHHX@>>>,5788777557788775755557578775577w5,,%>-+oHHHHHHH",
"HHHHHHHo#>>>,5777557777777755555555775755577w4>,,>%%oHHHHHHH",
"HHHHHHoo%>%>,,77555775777777877778775575557785>,,%%%OHHHHHHH",
"HHHHHHo@>>*>,,5555577755757755787555557545775,,,,%>%#XHHHHHH",
"HHHHHHo#%>>>>,,44555777757757775655855755577,,,,>%>%#oHHHHHH",
"HHHHHHo%%>%>>,,,4575557777757777857554457877,>,,>>>%%oHHHHHH",
"HHHHHHo%>>>>>,,,,475775555555557555555577754,,,>>>>%%oHHHHHH",
"HHHHHo+%%>%>>,,,,,4755555555555555,55588755,,,,,>>%>%+XHHHHH",
"HHHHHo@*>%>>>>,>,,,558555555555555555565555,,,,>>>%>%@XHHHHH",
"HHHHH.@%%>%%>>,,,5445555554445455555555555,,,,,>>>%>*@XHHHHH",
"HHHHHo@%%>>>>>,,,,5,,55577555555555555555,,,>,>>>>>>%@oHHHHH",
"HHHHHX@%%%%>>>>,,,,54,444457755755555565,,>,,>>,>>>%%@oHHHHH",
"HHHHHo+%>%>>>>>>,,,45444445545555855855,,>,,>>>>>%>%%@oHHHHH",
"HHHHH++#%%%%>>,>>,,,,44454545557555454,,,,,>>>,>>>%>#OOHHHHH",
"HHHHHHO#>%%>>>,>>>,>>444,44455555555,,,,,>>>>,,>>>>%#OoHHHHH",
"HHHHHHO#%%%%>>>>>>,,,,,4444,,,,,454,,,>,,,>>>,>>>>>%#OHHHHHH",
"HHHHHHo#%%%%>>>>>,>,,,,,,,,,,4,44,,,,>,,>>>>,>>>>>>*#oHHHHHH",
"HHHHHHXO#%%%%%>>,>>>>,,>,>,,,,,,,,,4,,>,>>>,>>,>>%>%@oHHHHHH",
"HHHHHHoo#%>%%>>%>>,>>,,,,,,,,,,,,,,,>,>,>,>>>,>>>>>#OXHHHHHH",
"HHHHHHHo@#%%%%%>>>>>>>>,,,>>,>,>,>,>,,>>,>>>>>>>%>%#oHHHHHHH",
"HHHHHHHo+#%%%%%>>>>,>>>>,,>,>,>>>>,,>>>,>%>,>>>>>%%+XHHHHHHH",
"HHHHHHHHo@##%%%>%>>>,>>>>>,>,,,,,,,>>>>>>>,>>>>>%##ooHHHHHHH",
"HHHHHHHHo+##%%%%>%>>>>>>>,,>>>,>>>>>,>,,>>,>>>%>%%+oHHHHHHHH",
"HHHHHHHHHo+#%%%%%>>>>>>>>>>,,>>%>>>,,,,>,>>>>>>##@oHHHHHHHHH",
"HHHHHHHHHHo@##%#%%%>>%>>>>>>>>,,>,,,,>,>>>>>>>###oXHHHHHHHHH",
"HHHHHHHHHHXo@#%%%%%%%>>>>>>>>>>>>>>,>,>>>>%>%###o.HHHHHHHHHH",
"HHHHHHHHHHH o+###%%>%%>%>%>%>>%>>>>>>>%>>%%%##@ooHHHHHHHHHHH",
"HHHHHHHHHHHH oo@#%%%>%%%%>%>>%>>>>>>%>>%%###@Oo HHHHHHHHHHHH",
"HHHHHHHHHHHHHH oO@##%%>>%%%%%%>%>>%>%%%%##@oo HHHHHHHHHHHHHH",
"HHHHHHHHHHHHHHHH OO+@##%>%>%%>>%%%%%%%#++oX HHHHHHHHHHHHHHHH",
"HHHHHHHHHHHHHHHHHH ooO+@##%%%%%%##@++OoOo HHHHHHHHHHHHHHHHHH",
"HHHHHHHHHHHHHHHHH o,>XXoooooo+ooooOO+oo,4@oHHHHHHHHHHHHHHHHH",
"HHHHHHHHHHHHHHHHHo>8,X@>>>%>%%#>>,,4>%o,e2+XHHHHHHHHHHHHHHHH",
"HHHHHHHHHHHHHHHHX+,6$+,,,588w88w8we85,@@86>oHHHHHHHHHHHHHHHH",
"HHHHHHHHHHHHHHHHo=2,+@,555wrrrrrreew5,%O,5,@oHHHHHHHHHHHHHHH",
"HHHHHHHHHHHHHHHo+o@$o>,,455werreeew854>O#,>#XXHHHHHHHHHHHHHH",
"HHHHHHHHHHHHHH 9xd2o@>,445558wwweww854,@O#o*yqoHHHHHHHHHHHHH",
"HHHHHHHHHHHHHHojGDb=@,,44578878887854,,#X*pbBc<HHHHHHHHHHHHH",
"HHHHHHHHHHHHHHojSSx@%,,,4,45587777544,,%ohFDVn0 HHHHHHHHHHHH",
"HHHHHHHHHHHHHH tNCkO%>,,44444555545444,%ogZAVv1HHHHHHHHHHHHH",
"HHHHHHHHHHHHHHHOanso%,,,,4,5,45545444,,%ouVBMf+HHHHHHHHHHHHH",
"HHHHHHHHHHHHHHHHo<;o%>,,,454454544444,>>o3lla&HHHHHHHHHHHHHH",
"HHHHHHHHHHHHHHHHHHXo%>,,4445444,4444,,>%Oo$=oHHHHHHHHHHHHHHH",
"HHHHHHHHHHHHHHHHHHoo%%>>,,4444,44,4,,,>=OoHHHHHHHHHHHHHHHHHH",
"HHHHHHHHHHHHHHHHHHoo#>>>:>,,,,,>>,,>>>>$OXHHHHHHHHHHHHHHHHHH",
"HHHHHHHHHHHHHHHHHHoo#%**>>%>>>>>>:>>>*%#OXHHHHHHHHHHHHHHHHHH",
"HHHHHHHHHHHHHHHHHHHooO+@+@@@@@@##@@@@OoooHHHHHHHHHHHHHHHHHHH",
"HHHHHHHHHHHHHHHHHHHHoo@+oooooXoooo+o+++oHHHHHHHHHHHHHHHHHHHH",
"HHHHHHHHHHHHHHHHHHHHO+:----=oHH+$=====+oHHHHHHHHHHHHHHHHHHHH",
"HHHHHHHHHHHHHHHHHHHHO+----==oHHo+oo+OOooHHHHHHHHHHHHHHHHHHHH",
"HHHHHHHHHHHHHHHHHHHHX+$$#$$$+HHoooooXoHHHHHHHHHHHHHHHHHHHHHH",
"HHHHHHHHHHHHHHHHHHHHXXoooooooHHHHHHHHHHHHHHHHHHHHHHHHHHHHHHH",
"HHHHHHHHHHHHHHHHHHHHHHHHHHHHHHHHHHHHHHHHHHHHHHHHHHHHHHHHHHHH",
"HHHHHHHHHHHHHHHHHHHHHHHHHHHHHHHHHHHHHHHHHHHHHHHHHHHHHHHHHHHH",
"HHHHHHHHHHHHHHHHHHHHHHHHHHHHHHHHHHHHHHHHHHHHHHHHHHHHHHHHHHHH",
"HHHHHHHHHHHHHHHHHHHHHHHHHHHHHHHHHHHHHHHHHHHHHHHHHHHHHHHHHHHH"
};
