/* XPM */
static xpm_row_t const p1_back_5[] = {
/* columns rows colors chars-per-pixel */
"60 80 64 1 ",
"  c #151513",
". c #181715",
"X c #1A1917",
"o c #1D1C1A",
"O c #201F1E",
"+ c #22211E",
"@ c #242423",
"# c #292725",
"$ c #2C2B25",
"% c #2C2C2C",
"& c #322E27",
"* c #332E28",
"= c #33322B",
"- c #3C352E",
"; c #333333",
": c #383837",
"> c #3B3B3B",
", c #40372F",
"< c #4E4237",
"1 c #40403F",
"2 c #54493D",
"3 c #403F40",
"4 c #444444",
"5 c #484748",
"6 c #4B4A4B",
"7 c #5E4F42",
"8 c #5B524B",
"9 c #535353",
"0 c #5A5A5A",
"q c #625345",
"w c #635649",
"e c #705F4E",
"r c #655A50",
"t c #72604F",
"y c #786351",
"u c #816E5A",
"i c #8F7660",
"p c #8D7862",
"a c #9C856D",
"s c #9E8D7F",
"d c #A58E77",
"f c #AB927C",
"g c #B19176",
"h c #AF9986",
"j c #BAA18B",
"k c #B7A395",
"l c #C1A284",
"z c #C7A888",
"x c #CCAB8B",
"c c #D2AE8C",
"v c #DDB794",
"b c #DEB996",
"n c #E0BB98",
"m c #E9C39E",
"M c #EBC5A0",
"N c #ECC9A6",
"B c #EFCEAF",
"V c #F1CBA6",
"C c #ECCEB5",
"Z c #F0CEB1",
"A c #EED3BE",
"S c #F2D2B5",
"D c #F5D8C0",
"F c #00b140",
/* pixels */
"FFFFFFFFFFFFFFFFFFFFFFFFFFFFFFFFFFFFFFFFFFFFFFFFFFFFFFFFFFFF",
"FFFFFFFFFFFFFFFFFFFFFFFFFFFFFFFFFFFFFFFFFFFFFFFFFFFFFFFFFFFF",
"FFFFFFFFFFFFFFFFFFFFFFFFFFFFFFFFFFFFFFFFFFFFFFFFFFFFFFFFFFFF",
"FFFFFFFFFFFFFFFFFFFFFFFFFFFFFFFFFFFFFFFFFFFFFFFFFFFFFFFFFFFF",
"FFFFFFFFFFFFFFFFFFFFFFFFFFFFFooFFFFFFFFFFFFFFFFFFFFFFFFFFFFF",
"FFFFFFFFFFFFFFFFFFFFFFFFFFFo+>:+XFFFFFFFFFFFFFFFFFFFFFFFFFFF",
"FFFFFFFFFFFFFFFFFFFFFFFFFFo$6004@XFFFFFFFFFFFFFFFFFFFFFFFFFF",
"FFFFFFFFFFFFFFFFFFFFFFFFoo>900009%oFFFFFFFFFFFFFFFFFFFFFFFFF",
"FFFFFFFFFFFFFFFFFFFFFFFo%6000099001+XFFFFFFFFFFFFFFFFFFFFFFF",
"FFFFFFFFFFFFFFFFFFFFFo+>009999999909;+XFFFFFFFFFFFFFFFFFFFFF",
"FFFFFFFFFFFFFFFFFFF.+;9099999999990006;oXFFFFFFFFFFFFFFFFFFF",
"FFFFFFFFFFFFFFFFFXO;60099969999999990006;+XFFFFFFFFFFFFFFFFF",
"FFFFFFFFFFFFFFFFX%500999999609999699990006#oFFFFFFFFFFFFFFFF",
"FFFFFFFFFFFFFFX+>00099999990000000996999009=oXFFFFFFFFFFFFFF",
"FFFFFFFFFFFFFX@50999999996900000009999999906;OXFFFFFFFFFFFFF",
"FFFFFFFFFFFFX+5999999559599000000996444696996>ooFFFFFFFFFFFF",
"FFFFFFFFFFFoO46996643>>>159999996533>::>3>3>36;OXFFFFFFFFFFF",
"FFFFFFFFFFXO:444>:;;;;;;>>445541>>>:;;:::;;;;:;@oFFFFFFFFFFF",
"FFFFFFFFFFX%::;;;:33>;;%;;::>>:>>::;;:45435>;;;;@oFFFFFFFFFF",
"FFFFFFFFFX@;;;;34555544>;%%;;::;;;;;>55555664;;;;@oFFFFFFFFF",
"FFFFFFFFoo;;%:555555655554>:;%;%;>345545555665;;*%oXFFFFFFFF",
"FFFFFFFFX%:;:355665545566555444155555555446665>;;;@oFFFFFFFF",
"FFFFFFFoO;;;:456655544556555554545545555445594>:%%%@XFFFFFFF",
"FFFFFFFX@;;;>456544555565554444434455555445663>:;;;@oFFFFFFF",
"FFFFFFFo%;%;>355544544555555555555554455444564:>:%;%oFFFFFFF",
"FFFFFFX@;;%;:>44444555545555545555444444445543>::;%%@oFFFFFF",
"FFFFFFo@%;;;:>3444445554455545554455545444553>::;;%;#oFFFFFF",
"FFFFFFo%;%;;:>>>3444455555545555554543445564>>:>;;;%%oFFFFFF",
"FFFFFFo%%;;%;>>>3344554444455554544444355553>::>;;%;%oFFFFFF",
"FFFFFo+%%;;;;>::>>44444544444144444334556443:>::;;;%%ooFFFFF",
"FFFFFX+%;;%%;>>>>>3455444444444443444555444::>:;;;%;%@oFFFFF",
"FFFFFo@%%;;;%;>:>3>344444431414114444434443>>::;;;;;%@oFFFFF",
"FFFFFoO;%;%;;;;>>443>555554434345444134443>>;>>;;;%;%@oFFFFF",
"FFFFFOO%%%;;;;:>>>>>3>>434445455444455543:>:>:;;;;;;%@oFFFFF",
"FFFFFoO%%%;%;:;>:>>44>4>3344445445555543>>>>;;>;;%%;%@OFFFFF",
"FFFFFoO%;%%%;:;;>>>>>4>434344345554344>:>;>>;;>;;;;%%OoFFFFF",
"FFFFFOO@;%%;;;>;;:>:>>3>3334554444443>>>>>;;;:>;;;%%%O@FFFFF",
"FFFFFFO%%%%%%;;:;;:>:>>4333>>>3>3333>:>:>>;;;;;;;;;%%oFFFFFF",
"FFFFFFo@%;%%;%;;;;;:>:::>>333>>>3>>>>>:>>;;;:;;;;;;%@oFFFFFF",
"FFFFFFX@%%%%%;;;;>;;:>>>:>::>>333>>>>>:;;;;>;;>;;;;%@oFFFFFF",
"FFFFFFXO%%%%%%%;:>;;;>>;>:>>::::>>>>>>;;;;:;;;;;;%;%@oFFFFFF",
"FFFFFFFo@@%%%%;%;;>%;>>>>>;>:>>:>;::;>>;>;;;>;;:;;%%oFFFFFFF",
"FFFFFFFXO%%%%%;;%;>>%;;;>;:;;;;;;:::>;;>;;;;;;;;%%%OXFFFFFFF",
"FFFFFFFFo@%%%%%;%;;>>;;;:;>>>>>>:>::;;;;;;>;;;;;;%%OXFFFFFFF",
"FFFFFFFFoO%@%%%%;;;;;>;;;:;;:::::;;;;;;>;;>;;;;%%%O.FFFFFFFF",
"FFFFFFFFFO@%%%%%%%;;;;;;;:>>:;;;;;;>>>>>;>;;;;%%%@o.FFFFFFFF",
"FFFFFFFFFOo%@%%%%%%;%;;;;;;;;;;:::>>>>:>>;;%;%%%%O.FFFFFFFFF",
"FFFFFFFFFF O@@%%%%%%;;%;;;;;;;;;;>:;:;;;;%;;%%%@OXFFFFFFFFFF",
"FFFFFFFFFFFXO@%%%%%%%%%;;%;;;;;;;;;:;;;%%%%%#%@O.FFFFFFFFFFF",
"FFFFFFFFFFFF.XO@%%%%;%%%%;%;;%%;;;;%;%;;%%%%@@oXFFFFFFFFFFFF",
"FFFFFFFFFFFFFF.o+@%%%%%;%%%%%;;%;%%;%;%%%%@Ooo FFFFFFFFFFFFF",
"FFFFFFFFFFFFFFF .o+@%%%%;%%;%%;;;%%%%%%@@oo. FFFFFFFFFFFFFFF",
"FFFFFFFFFFFFFFFFF XXo@@#%#%%;%%%%%@@@@ooo. FFFFFFFFFFFFFFFFF",
"FFFFFFFFFFFFFFFFFF.%%ooooo++O@@OOooOoX@;;..FFFFFFFFFFFFFFFFF",
"FFFFFFFFFFFFFFFFFo%64oO#%%@@@@@@%%;:%@o46;oFFFFFFFFFFFFFFFFF",
"FFFFFFFFFFFFFFFFXo>9:o;>>455444556664;o;95@XFFFFFFFFFFFFFFFF",
"FFFFFFFFFFFFFFFFX%45#+:11690000000964>%+44;OXFFFFFFFFFFFFFFF",
"FFFFFFFFFFFFFFFo+:1:o$>14560000009995>;o;>;@XFFFFFFFFFFFFFFF",
"FFFFFFFFFFFFFFo@++%$o;>>14169999996643:+@%@O-+FFFFFFFFFFFFFF",
"FFFFFFFFFFFFFF*kkr$X@:>11454569996953>>@o@8dxeoFFFFFFFFFFFFF",
"FFFFFFFFFFFFF wADCh$@>>31156566655543>3%OhCZmg%FFFFFFFFFFFFF",
"FFFFFFFFFFFFF.qNBSj+%::31111445554443>>%ofCCMg#FFFFFFFFFFFFF",
"FFFFFFFFFFFFFF*zBVao%>:>3333441441111>:%oiVNvyXFFFFFFFFFFFFF",
"FFFFFFFFFFFFFFX2knyo%:>>1111114414141>>%oenci#FFFFFFFFFFFFFF",
"FFFFFFFFFFFFFFFX*7,o%;:1>314311111111>>%O%7<+FFFFFFFFFFFFFFF",
"FFFFFFFFFFFFFFFFF.oo%;;>>1>333331111>>;%OX..FFFFFFFFFFFFFFFF",
"FFFFFFFFFFFFFFFFFFXo%%;:>333>33>>>>>>:;%+oFFFFFFFFFFFFFFFFFF",
"FFFFFFFFFFFFFFFFFFXO%%;;;;::>:>>::::;;%%ooFFFFFFFFFFFFFFFFFF",
"FFFFFFFFFFFFFFFFFFFo@%=%;%%;;;%;=;;;;%$#ooFFFFFFFFFFFFFFFFFF",
"FFFFFFFFFFFFFFFFFFFoooo+O++++@+@++++oooooFFFFFFFFFFFFFFFFFFF",
"FFFFFFFFFFFFFFFFFFFFo+#+@+++oooX++++$$+oFFFFFFFFFFFFFFFFFFFF",
"FFFFFFFFFFFFFFFFFFFFo+=====&oFFo&=====+oFFFFFFFFFFFFFFFFFFFF",
"FFFFFFFFFFFFFFFFFFFFo+&=$$&$+FFo&$$$$$+oFFFFFFFFFFFFFFFFFFFF",
"FFFFFFFFFFFFFFFFFFFFooooo+o+oFFoooooooooFFFFFFFFFFFFFFFFFFFF",
"FFFFFFFFFFFFFFFFFFFFFFFFFFFFFFFFFFFFFFFFFFFFFFFFFFFFFFFFFFFF",
"FFFFFFFFFFFFFFFFFFFFFFFFFFFFFFFFFFFFFFFFFFFFFFFFFFFFFFFFFFFF",
"FFFFFFFFFFFFFFFFFFFFFFFFFFFFFFFFFFFFFFFFFFFFFFFFFFFFFFFFFFFF",
"FFFFFFFFFFFFFFFFFFFFFFFFFFFFFFFFFFFFFFFFFFFFFFFFFFFFFFFFFFFF",
"FFFFFFFFFFFFFFFFFFFFFFFFFFFFFFFFFFFFFFFFFFFFFFFFFFFFFFFFFFFF",
"FFFFFFFFFFFFFFFFFFFFFFFFFFFFFFFFFFFFFFFFFFFFFFFFFFFFFFFFFFFF"
};
