/* XPM */
static xpm_row_t const p1_back_8[] = {
/* columns rows colors chars-per-pixel */
"60 80 65 1 ",
"  c #171615",
". c #181715",
"X c #1A1917",
"o c #1D1C1A",
"O c #201F1D",
"+ c #22211E",
"@ c #252423",
"# c #292724",
"$ c #2B2A24",
"% c #2C2C2C",
"& c #302F27",
"* c #302F2F",
"= c #33322A",
"- c #3C352D",
"; c #38382D",
": c #333333",
"> c #3A3735",
", c #383837",
"< c #383738",
"1 c #3B3B3B",
"2 c #423931",
"3 c #493F35",
"4 c #46403B",
"5 c #53483D",
"6 c #403F40",
"7 c #444444",
"8 c #484847",
"9 c #484748",
"0 c #4A4A4A",
"q c #554E47",
"w c #504F4F",
"e c #535353",
"r c #5A5A5A",
"t c #625244",
"y c #645649",
"u c #6C5D4F",
"i c #715D4D",
"p c #766553",
"a c #836E5B",
"s c #85725E",
"d c #8E7660",
"f c #88786B",
"g c #937B65",
"h c #917E6B",
"j c #9E846C",
"k c #B7997C",
"l c #AF9A88",
"z c #BEA998",
"x c #CAA787",
"c c #CAAA8A",
"v c #D3B08E",
"b c #CCB19A",
"n c #DBB693",
"m c #E4BF9A",
"M c #E6C19C",
"N c #E8C29D",
"B c #EBC6A0",
"V c #EFCAA5",
"C c #EFCDAD",
"Z c #F2CEAB",
"A c #E0C7B5",
"S c #E4CAB6",
"D c #F2D1B4",
"F c #F2D3BA",
"G c #00b140",
/* pixels */
"GGGGGGGGGGGGGGGGGGGGGGGGGGGGGGGGGGGGGGGGGGGGGGGGGGGGGGGGGGGG",
"GGGGGGGGGGGGGGGGGGGGGGGGGGGGGGGGGGGGGGGGGGGGGGGGGGGGGGGGGGGG",
"GGGGGGGGGGGGGGGGGGGGGGGGGGGGGGGGGGGGGGGGGGGGGGGGGGGGGGGGGGGG",
"GGGGGGGGGGGGGGGGGGGGGGGGGGGGGGGGGGGGGGGGGGGGGGGGGGGGGGGGGGGG",
"GGGGGGGGGGGGGGGGGGGGGGGGGGGGGGGGGGGGGGGGGGGGGGGGGGGGGGGGGGGG",
"GGGGGGGGGGGGGGGGGGGGGGGGGGGGGGGGGGGGGGGGGGGGGGGGGGGGGGGGGGGG",
"GGGGGGGGGGGGGGGGGGGGGGGGGGGGXooGGGGGGGGGGGGGGGGGGGGGGGGGGGGG",
"GGGGGGGGGGGGGGGGGGGGGGGGGGGX$76+XGGGGGGGGGGGGGGGGGGGGGGGGGGG",
"GGGGGGGGGGGGGGGGGGGGGGGGGXo:err0$oGGGGGGGGGGGGGGGGGGGGGGGGGG",
"GGGGGGGGGGGGGGGGGGGGGGGGX@7rrrrre<OXGGGGGGGGGGGGGGGGGGGGGGGG",
"GGGGGGGGGGGGGGGGGGGGGGXo:errrreerr8%XGGGGGGGGGGGGGGGGGGGGGGG",
"GGGGGGGGGGGGGGGGGGGGXo%8rreeeeeweere6@oGGGGGGGGGGGGGGGGGGGGG",
"GGGGGGGGGGGGGGGGGGGX@6rreeweeweweeerre1@oGGGGGGGGGGGGGGGGGGG",
"GGGGGGGGGGGGGGGGGX@1wreeeewweeweweeerrre1@XGGGGGGGGGGGGGGGGG",
"GGGGGGGGGGGGGGGXo:wrreeeeweeereeeeweeeerre=oGGGGGGGGGGGGGGGG",
"GGGGGGGGGGGGGGX@8rrreeewwwerrrrrrreeeeeerre<ooGGGGGGGGGGGGGG",
"GGGGGGGGGGGGGX%0eeeeeewewwerrrrrrree0eweeeew<@oGGGGGGGGGGGGG",
"GGGGGGGGGGGGX%0eeeee08800werrrrreew06679w0ww06+oGGGGGGGGGGGG",
"GGGGGGGGGGG.@80ew0871<<,10weeeee076111<1111168:+oGGGGGGGGGGG",
"GGGGGGGGGGXO<666<::::::,<16677661111:*11,::*:,:%oXGGGGGGGGGG",
"GGGGGGGGGGO%,<:::<661<:%%::<<<<<1,,:*1997606:***%oGGGGGGGGGG",
"GGGGGGGGGX#<:::790000876<:%::<<::::,6907000w91*:=@oGGGGGGGGG",
"GGGGGGGGX+:::<70090980889761<::::6690770780009,***ooGGGGGGGG",
"GGGGGGGGo%<:<1090908778090097777997907907700w71,:*#oGGGGGGGG",
"GGGGGGGX@:::17090999777909999797799799997790w71<:%%oXGGGGGGG",
"GGGGGGGo%::*17909779900999977777777999978779w6<1:::%oGGGGGGG",
"GGGGGGGo*:**11889770779099900999909977977699w7<1,*:%oGGGGGGG",
"GGGGGGX@**:*11777769907799997799777777976780711<<***@XGGGGGG",
"GGGGGGX#**:*<1666677999779979999777097977700611,:***%.GGGGGG",
"GGGGGGX%*::*,<1167977770997999990077767770071<11,***%oGGGGGG",
"GGGGGGo%*:*::1116678987767797777777776698886<,<,::**%oGGGGGG",
"GGGGGX@%*::*:1<11177777977777779777767900771,1<<:::*%@XGGGGG",
"GGGGGXO*%::%:<1<1117877777777777767770877771111:::::%@.GGGGG",
"GGGGGX@%:%::::<117617788776767776777766797111:1:::%:%@oGGGGG",
"GGGGGoO*%:%:::11166617779777777777777677711:11::::::*@oGGGGG",
"GGGGGo@%%%:%:::1,1666666679977970777780711111::::::%%@oGGGGG",
"GGGGGO@%:%:%:::1111676666667777777800071,111::<<:%:%%@OGGGGG",
"GGGGG+O%%%%::<::,11,176667677779077666111,:1::<:::%:%@+GGGGG",
"GGGGGGo%:%%:%:1:::1,,1666667777777766111,1,::,:::::%@ooGGGGG",
"GGGGGGo@%%%%::<:::,1,1166611111666611,1,11:::,:::::%%oGGGGGG",
"GGGGGGo@%%%%%:::,::111111116611166111111:::1<<:<<**%%oGGGGGG",
"GGGGGGX@%%%%%*%::1:::11,,1111111111111:<::1:::<:::*%@XGGGGGG",
"GGGGGGoo%%*%%::::,1::11,,,,111,11,111::,:::::<:::*:%oXGGGGGG",
"GGGGGGGo@@%*%%%::::::::1,<<1,,,1,,,,:11:1:::1:::**%%oGGGGGGG",
"GGGGGGGoO@%*%%%::::1::::1<:::::::,,1,<:1:::<::::*%%@XGGGGGGG",
"GGGGGGGGo@@%%%:%%:::1::::<,11111111:::::::1:::::*%@ooGGGGGGG",
"GGGGGGGGo@%@%%%::::::1::::,,<::1:::::,,,::<<<:%%%%@.GGGGGGGG",
"GGGGGGGGGo@%@%%%%%::::::::1:1<:::::11,1,<::::%:%%@oGGGGGGGGG",
"GGGGGGGGGXo@%%%@%%%:*::::::::::<,1<1<:<:<::*:*%%@oXGGGGGGGGG",
"GGGGGGGGGGXo@@%*%%%%**:%:::::::<:,<<<<<:***:%%@@O.GGGGGGGGGG",
"GGGGGGGGGGG.o@@%$%*%%%::::::::::::::::*:*:*%%@@ooGGGGGGGGGGG",
"GGGGGGGGGGGG .O@$%%%*%%%%%%:%:%%:::*:::*%%%@@@o GGGGGGGGGGGG",
"GGGGGGGGGGGGGG.X+@$%%%%:%%%%%%%:%:*%:%%%@@@OXXGGGGGGGGGGGGGG",
"GGGGGGGGGGGGGGGGXOO@@%%%%::%%:::*%%%@%@@@oX GGGGGGGGGGGGGGGG",
"GGGGGGGGGGGGGGGGGGXXOO+@%%%%%%%%@%@@@OoOO.GGGGGGGGGGGGGGGGGG",
"GGGGGGGGGGGGGGGGG o,:oXOoooo+++oOooOOoo:<OXGGGGGGGGGGGGGGGGG",
"GGGGGGGGGGGGGGGG.O6e1X@%%%%%%@@%*:<1*%o,0,oGGGGGGGGGGGGGGGGG",
"GGGGGGGGGGGGGGGGO%00%+,117008000w0e061@@71+XGGGGGGGGGGGGGGGG",
"GGGGGGGGGGGGGGGX$681O@16780rrrrrreew91*o:1%oGGGGGGGGGGGGGGGG",
"GGGGGGGGGGGGGG.o:17%X:166780erreeew071,+@@oXXGGGGGGGGGGGGGGG",
"GGGGGGGGGGGGGoq3o$:@+,,6677700eeewe0661@o>ug2XGGGGGGGGGGGGGG",
"GGGGGGGGGGGG qAAf=Oo@,16678880000007611%#zZmdoGGGGGGGGGGGGGG",
"GGGGGGGGGGGG.sDFFbro%116667780087076611%OlDNjOGGGGGGGGGGGGGG",
"GGGGGGGGGGGG pVCCCjo%,,1661666777676611%ohZniXGGGGGGGGGGGGGG",
"GGGGGGGGGGGGG-cVBNao%,1117666767766661,*opnj$GGGGGGGGGGGGGGG",
"GGGGGGGGGGGGGX5kvxtX%:1111676666666661,%O;t+XGGGGGGGGGGGGGGG",
"GGGGGGGGGGGGGGX$32OO%:,167661666667611,%+X GGGGGGGGGGGGGGGGG",
"GGGGGGGGGGGGGGGGGG.O%*:,1166666161111,:%+oGGGGGGGGGGGGGGGGGG",
"GGGGGGGGGGGGGGGGGGXO%**:,,,11111,,,,,:=&ooGGGGGGGGGGGGGGGGGG",
"GGGGGGGGGGGGGGGGGGXo@%:%****::*:*::::*&+oXGGGGGGGGGGGGGGGGGG",
"GGGGGGGGGGGGGGGGGGGoo++O+@+@@@@@@@@++O+ooGGGGGGGGGGGGGGGGGGG",
"GGGGGGGGGGGGGGGGGGGGXo@++oOOoXXXoo+++$+XGGGGGGGGGGGGGGGGGGGG",
"GGGGGGGGGGGGGGGGGGGGX+&&&&&&oGGo&====;$XGGGGGGGGGGGGGGGGGGGG",
"GGGGGGGGGGGGGGGGGGGGoo+OOo++XGGo&;&===+oGGGGGGGGGGGGGGGGGGGG",
"GGGGGGGGGGGGGGGGGGGGGXoXXoXoGGGo$+$$$$+XGGGGGGGGGGGGGGGGGGGG",
"GGGGGGGGGGGGGGGGGGGGGGGGGGGGGGGoXoXoooXXGGGGGGGGGGGGGGGGGGGG",
"GGGGGGGGGGGGGGGGGGGGGGGGGGGGGGGGGGGGGGGGGGGGGGGGGGGGGGGGGGGG",
"GGGGGGGGGGGGGGGGGGGGGGGGGGGGGGGGGGGGGGGGGGGGGGGGGGGGGGGGGGGG",
"GGGGGGGGGGGGGGGGGGGGGGGGGGGGGGGGGGGGGGGGGGGGGGGGGGGGGGGGGGGG",
"GGGGGGGGGGGGGGGGGGGGGGGGGGGGGGGGGGGGGGGGGGGGGGGGGGGGGGGGGGGG"
};
