/* XPM */
static xpm_row_t const p1_back_2[] = {
/* columns rows colors chars-per-pixel */
"60 80 69 1 ",
"  c #161514",
". c #181715",
"X c #1A1917",
"o c #1C1B1A",
"O c #201F1D",
"+ c #21211E",
"@ c #242423",
"# c #292724",
"$ c #2B2A24",
"% c #2C2C2C",
"& c #302F27",
"* c #312F2C",
"= c #303027",
"- c #33322A",
"; c #3C352D",
": c #2F2F30",
"> c #333333",
", c #383837",
"< c #3B3B3B",
"1 c #433A31",
"2 c #403F3F",
"3 c #40403F",
"4 c #49413A",
"5 c #51453A",
"6 c #403F40",
"7 c #444444",
"8 c #484748",
"9 c #4A4A4A",
"0 c #554C45",
"q c #5C4D40",
"w c #504F4F",
"e c #4F4F50",
"r c #525252",
"t c #585757",
"y c #585857",
"u c #5A5A5A",
"i c #625446",
"p c #776654",
"a c #7C6956",
"s c #86715D",
"d c #8A725D",
"f c #84776E",
"g c #927C66",
"h c #8B7C71",
"j c #9D8875",
"k c #A28A71",
"l c #A28C78",
"z c #B7977A",
"x c #BEA48E",
"c c #BEAB9D",
"v c #C6A484",
"b c #CDA888",
"n c #CBB19B",
"m c #D5B391",
"M c #D9B391",
"N c #DDB895",
"B c #D0B69F",
"V c #E5C19C",
"C c #E8C39F",
"Z c #EAC5A0",
"A c #EEC9A4",
"S c #F4CDA7",
"D c #F2CFAD",
"F c #EFCEB0",
"G c #F2D1B3",
"H c #F4D5BC",
"J c #F6D8C1",
"K c #F9DBC4",
"L c #00b140",
/* pixels */
"LLLLLLLLLLLLLLLLLLLLLLLLLLLLLLLLLLLLLLLLLLLLLLLLLLLLLLLLLLLL",
"LLLLLLLLLLLLLLLLLLLLLLLLLLLLLLLLLLLLLLLLLLLLLLLLLLLLLLLLLLLL",
"LLLLLLLLLLLLLLLLLLLLLLLLLLLLLLLLLLLLLLLLLLLLLLLLLLLLLLLLLLLL",
"LLLLLLLLLLLLLLLLLLLLLLLLLLLLLLLLLLLLLLLLLLLLLLLLLLLLLLLLLLLL",
"LLLLLLLLLLLLLLLLLLLLLLLLLLLLLLLLLLLLLLLLLLLLLLLLLLLLLLLLLLLL",
"LLLLLLLLLLLLLLLLLLLLLLLLLLLLLXLLLLLLLLLLLLLLLLLLLLLLLLLLLLLL",
"LLLLLLLLLLLLLLLLLLLLLLLLLLLLX++XLLLLLLLLLLLLLLLLLLLLLLLLLLLL",
"LLLLLLLLLLLLLLLLLLLLLLLLLLLo:w9#XLLLLLLLLLLLLLLLLLLLLLLLLLLL",
"LLLLLLLLLLLLLLLLLLLLLLLLLX+3uuur>oXLLLLLLLLLLLLLLLLLLLLLLLLL",
"LLLLLLLLLLLLLLLLLLLLLLLLo=9uuuuuu7@XLLLLLLLLLLLLLLLLLLLLLLLL",
"LLLLLLLLLLLLLLLLLLLLLLX@3uuuurrrtur>ooLLLLLLLLLLLLLLLLLLLLLL",
"LLLLLLLLLLLLLLLLLLLLX+>ruyrrrreewyuu9:oXLLLLLLLLLLLLLLLLLLLL",
"LLLLLLLLLLLLLLLLLLXo%9uyrererrrrwryyuu8%ooLLLLLLLLLLLLLLLLLL",
"LLLLLLLLLLLLLLLLXo%7yurrrrerrrrewreryuuy8%oLLLLLLLLLLLLLLLLL",
"LLLLLLLLLLLLLLLX@3yuyrrrrrrrurrutrererruuy<+XLLLLLLLLLLLLLLL",
"LLLLLLLLLLLLLLo%wuuyrrerwrruuuuuuuyeerrryuy3@XLLLLLLLLLLLLLL",
"LLLLLLLLLLLLLo>rrrrtrwrweeruuuuuutrr9eeeerrr3#oLLLLLLLLLLLLL",
"LLLLLLLLLLLLo%wrrrrw87788eruuuuutee7<667989997@oLLLLLLLLLLLL",
"LLLLLLLLLLLo%89r877<,,,,<79erre9736,<,,,<,,,<7>@oLLLLLLLLLLL",
"LLLLLLLLLLo@,<<<>>>>::>>,<<3<7<<<,,,>><6,,>>>>>%OoLLLLLLLLLL",
"LLLLLLLLLoo%,>:>,3887<,:%:>>,<,,,,>>>6887797,>::%oLLLLLLLLLL",
"LLLLLLLLLo%>>><8888888776>:::>>>>>><7888999r96:>>#oLLLLLLLLL",
"LLLLLLLLo@,>><88989888888973<,>><67898788899e7,>>%+oLLLLLLLL",
"LLLLLLLLo%,:,6988988778998988889888888887789e7<,%>%oLLLLLLLL",
"LLLLLLLo@>>><7899888779888877877777799887788e7,,>%>+XLLLLLLL",
"LLLLLLLo%>>:<789877878989888777777788787778897<,>>%%oLLLLLLL",
"LLLLLLo+%>%><<88777887888889988998887787778997,<>>>%+LLLLLLL",
"LLLLLLo@:>%>,<7778778877788777888777787737897<,<>>>%@oLLLLLL",
"LLLLLLo#>:>>>,6<6787788888778888778877877888<<<,>>:%%oLLLLLL",
"LLLLLLo%%>>%,,<<<778787888888888887776678887<,<<>>:>%oLLLLLL",
"LLLLLXo%>>>>><<<3387778777777778787767788877<,,,>>>%%oLLLLLL",
"LLLLLo+%%>%>>,,<,<3887777777777777777799877<,<,>>>%>%+XLLLLL",
"LLLLLoO::::>>><<<<<778777777777776777777776<<<<>:>:>%@oLLLLL",
"LLLLLX+%::::>><><76<7788776767677777777787<<<><>>>:>%@oLLLLL",
"LLLLLo+:::::>><<<<76<37777877777777777777<<<<<>>>>:>%#oLLLLL",
"LLLLLo@%::::>>><<<<37<666778777877887887<><<<>>>>>::%@oLLLLL",
"LLLLLo+=:%::>>>><<<<7<76666766778788777<,<><,:<>>:::%@oLLLLL",
"LLLLLo+%:%=:>><>><<<<6<667678788886673<,<<<>>><>>>::%OoLLLLL",
"LLLLLLo%:%%:>><>>><<,<676<33677776766<,,<,<>>,,:>>>:@OXLLLLL",
"LLLLLLo$%:%%::<>>>>,<<<<333<<<<<666<,,<<<,::><>>,:::%oLLLLLL",
"LLLLLLo@%%%%::>><>:<<<<<,<<<666<6<<<<,<<>>><<>>>>>:%#oLLLLLL",
"LLLLLLo+%%:%%::>><,:><<,<,<<,<<<<<<6<<>>>>>>>>,>>:>%@oLLLLLL",
"LLLLLLLo@%%%%::>>><>><<,<<<<<<,<<,<<><<>><>>>,>>>:>%ooLLLLLL",
"LLLLLLLo+%%%%%:::,<::>><<>>,><,>,,,>,<>><>:><>>>>:%#oLLLLLLL",
"LLLLLLLoO@%%%%::::><>:>>,,<,,>,>>,<,,>><::><:>>>::#@oLLLLLLL",
"LLLLLLLLo@%%:%:::>>,<>>>>,>,,<,<<<<>>>>:>><>>>:>%#@oLLLLLLLL",
"LLLLLLLLoO%@%%%%:>>>><>>>>,,,>,>:>>>,,<<,>>,>>::%%@XLLLLLLLL",
"LLLLLLLLLXO%@%%%::::>>>>>>,<>,>>>>,<<<><<>,::>:%@@oLLLLLLLLL",
"LLLLLLLLLLo@##%%%%%:::>>>>>>>>,,,,,,,,,,>>>:>:#%@oXLLLLLLLLL",
"LLLLLLLLLL o@%%%%:%%::::>>>>>>>>>>,,,,>>>:::%@%@oXLLLLLLLLLL",
"LLLLLLLLLLL XO@@%%%:%%%>:>>>:>>:>>>,::::::%%%@@oXLLLLLLLLLLL",
"LLLLLLLLLLLLL.o@@#%:>:%%%%%:::::>>>::>::%#%@@oX LLLLLLLLLLLL",
"LLLLLLLLLLLLLL oo@%%%:::%%%%%:::::::%%%%#@@oo LLLLLLLLLLLLLL",
"LLLLLLLLLLLLLLLL oXO@%@%%::::>::::%%%%@OooX LLLLLLLLLLLLLLLL",
"LLLLLLLLLLLLLLLLLL.OooO@@@%%#%@%%@OOOoo@O LLLLLLLLLLLLLLLLLL",
"LLLLLLLLLLLLLLLLL.O<>XoOoOoooOOoooo@@oo<7@oLLLLLLLLLLLLLLLLL",
"LLLLLLLLLLLLLLLLLo>9,o#>>>>>-::>,<66,:o,r7+XLLLLLLLLLLLLLLLL",
"LLLLLLLLLLLLLLLL.@<8%+,338eeeeerrer96<@@88>oLLLLLLLLLLLLLLLL",
"LLLLLLLLLLLLLLLLX=<,O%,338euuuuutrre7<>o,6<#oLLLLLLLLLLLLLLL",
"LLLLLLLLLLLLLLLo@O##X:,3377eryyrtree76,o%<>@oXLLLLLLLLLLLLLL",
"LLLLLLLLLLLLLL 0cj<o+><<38779eeeree96<<@O#o-aioLLLLLLLLLLLLL",
"LLLLLLLLLLLLLLolKHn=@<<33389889e989766<%o*fBZv1LLLLLLLLLLLLL",
"LLLLLLLLLLLLLLokFGx@%<<33<37799888737<<%ojJHAmq.LLLLLLLLLLLL",
"LLLLLLLLLLLLLLoiVSjo:,<<3333737737733<<%ogDFAb1LLLLLLLLLLLLL",
"LLLLLLLLLLLLLLLOamso%><<3366677366633<,:XpAZMdOLLLLLLLLLLLLL",
"LLLLLLLLLLLLLLLLo1;o%><<6366766333733<,:o4zzs$LLLLLLLLLLLLLL",
"LLLLLLLLLLLLLLLLLLXo%>,<<33333333333<,>:+o$#oLLLLLLLLLLLLLLL",
"LLLLLLLLLLLLLLLLLLoo%:>,<<6336<333<<<,>:+oLLLLLLLLLLLLLLLLLL",
"LLLLLLLLLLLLLLLLLLoo%::>,,,,,<<,,,,,,>:%ooLLLLLLLLLLLLLLLLLL",
"LLLLLLLLLLLLLLLLLLoo#%:::::::>>>>:>>::%#ooLLLLLLLLLLLLLLLLLL",
"LLLLLLLLLLLLLLLLLLLooO++@@@@@@@@###@++oooLLLLLLLLLLLLLLLLLLL",
"LLLLLLLLLLLLLLLLLLLLoo#+OoOoooooooo++++oLLLLLLLLLLLLLLLLLLLL",
"LLLLLLLLLLLLLLLLLLLLo+-----=oLLO$=&&&&+oLLLLLLLLLLLLLLLLLLLL",
"LLLLLLLLLLLLLLLLLLLLo+---===oLLo++o++oooLLLLLLLLLLLLLLLLLLLL",
"LLLLLLLLLLLLLLLLLLLLo+$$@$##oLLooXXoXXLLLLLLLLLLLLLLLLLLLLLL",
"LLLLLLLLLLLLLLLLLLLLXoXoXXXooLLLLLLLLLLLLLLLLLLLLLLLLLLLLLLL",
"LLLLLLLLLLLLLLLLLLLLLLLLLLLLLLLLLLLLLLLLLLLLLLLLLLLLLLLLLLLL",
"LLLLLLLLLLLLLLLLLLLLLLLLLLLLLLLLLLLLLLLLLLLLLLLLLLLLLLLLLLLL",
"LLLLLLLLLLLLLLLLLLLLLLLLLLLLLLLLLLLLLLLLLLLLLLLLLLLLLLLLLLLL",
"LLLLLLLLLLLLLLLLLLLLLLLLLLLLLLLLLLLLLLLLLLLLLLLLLLLLLLLLLLLL"
};
