/* XPM */
static xpm_row_t const p1_back_4[] = {
/* columns rows colors chars-per-pixel */
"60 80 61 1 ",
"  c #171614",
". c #181716",
"X c #1A1917",
"o c #1D1C1A",
"O c #201F1D",
"+ c #22211F",
"@ c #252423",
"# c #292622",
"$ c #2C2B25",
"% c #2C2C2C",
"& c #302F27",
"* c #303027",
"= c #33322B",
"- c #3B332C",
"; c #333333",
": c #393837",
"> c #3B3B3B",
", c #443A32",
"< c #453F3A",
"1 c #40403F",
"2 c #574B3F",
"3 c #403F40",
"4 c #444444",
"5 c #484847",
"6 c #484748",
"7 c #4A4A4A",
"8 c #5A4D40",
"9 c #525252",
"0 c #5A5A5A",
"q c #635547",
"w c #6A5A4A",
"e c #635A53",
"r c #6C6159",
"t c #856E5A",
"y c #83705C",
"u c #8C745F",
"i c #807163",
"p c #927C66",
"a c #9E8770",
"s c #9E8B7B",
"d c #A1866D",
"f c #A58A70",
"g c #AE957D",
"h c #BEA183",
"j c #BAA089",
"k c #BAA492",
"l c #C29F81",
"z c #CAA787",
"x c #D2AE8D",
"c c #CBB29D",
"v c #DEB996",
"b c #D9BA9C",
"n c #ECC7A3",
"m c #F1CBA4",
"M c #F3CEAB",
"N c #EFCFB2",
"B c #F3D0B1",
"V c #F3D3B9",
"C c #F3D7C1",
"Z c #F4DAC6",
"A c #00b140",
/* pixels */
"AAAAAAAAAAAAAAAAAAAAAAAAAAAAAAAAAAAAAAAAAAAAAAAAAAAAAAAAAAAA",
"AAAAAAAAAAAAAAAAAAAAAAAAAAAAAAAAAAAAAAAAAAAAAAAAAAAAAAAAAAAA",
"AAAAAAAAAAAAAAAAAAAAAAAAAAAAAAAAAAAAAAAAAAAAAAAAAAAAAAAAAAAA",
"AAAAAAAAAAAAAAAAAAAAAAAAAAAAAAAAAAAAAAAAAAAAAAAAAAAAAAAAAAAA",
"AAAAAAAAAAAAAAAAAAAAAAAAAAAAAAAAAAAAAAAAAAAAAAAAAAAAAAAAAAAA",
"AAAAAAAAAAAAAAAAAAAAAAAAAAAAoooAAAAAAAAAAAAAAAAAAAAAAAAAAAAA",
"AAAAAAAAAAAAAAAAAAAAAAAAAAAX#54+XAAAAAAAAAAAAAAAAAAAAAAAAAAA",
"AAAAAAAAAAAAAAAAAAAAAAAAAXo;9007$oAAAAAAAAAAAAAAAAAAAAAAAAAA",
"AAAAAAAAAAAAAAAAAAAAAAAAX@4000009:ooAAAAAAAAAAAAAAAAAAAAAAAA",
"AAAAAAAAAAAAAAAAAAAAAAXO;9000999007%oXAAAAAAAAAAAAAAAAAAAAAA",
"AAAAAAAAAAAAAAAAAAAAXo%70099999990094@oAAAAAAAAAAAAAAAAAAAAA",
"AAAAAAAAAAAAAAAAAAAo#19099999999790009>#oAAAAAAAAAAAAAAAAAAA",
"AAAAAAAAAAAAAAAAAo@>90999999999999990009>#oAAAAAAAAAAAAAAAAA",
"AAAAAAAAAAAAAAAXO;900999999999999997990009=oXAAAAAAAAAAAAAAA",
"AAAAAAAAAAAAAAX@500999999999000000999999009:oXAAAAAAAAAAAAAA",
"AAAAAAAAAAAAAX%70999997999900000009979799909>@XAAAAAAAAAAAAA",
"AAAAAAAAAAAAX$79999976664999000099973347777773@oAAAAAAAAAAAA",
"AAAAAAAAAAAo@4799743>>::36999999643>>>;;3>>>34;OoAAAAAAAAAAA",
"AAAAAAAAAAoO>33>:;;;%;;:>>334113>>>>;;>3:;;;;;;%oXAAAAAAAAAA",
"AAAAAAAAAAo%::;;;>443>;%%;;>>>>>>>;;;>474473;;%;%oAAAAAAAAAA",
"AAAAAAAAAo@;;;;666666663>;%%;;;;;;;:374477797>;;;#oAAAAAAAAA",
"AAAAAAAAoO;:;>6667666666663>:;;;;3447647466774;;;%ooAAAAAAAA",
"AAAAAAAAo%;;;366766646667676644666477466446776>;%%%oAAAAAAAA",
"AAAAAAAo@;;;;466766644666664664446444767444794>;;;%OoAAAAAAA",
"AAAAAAAo%;;;>466646666655664444444467464444693:>;;%%oAAAAAAA",
"AAAAAAAo%;%=>366644664667666676666664466437774>>:%;%oAAAAAAA",
"AAAAAAo@%;;;>>4444466644646644666444464444474>:::%%;@oAAAAAA",
"AAAAAAo@;;;%;>3334446666466666664466446446763>>>;;;%#oAAAAAA",
"AAAAAAo%%;;;;>>3>464464666664666666444444774>:::;;;%%oAAAAAA",
"AAAAAAO%%;%;;>>>3164646444466446444434447444>:>>;;;%%oAAAAAA",
"AAAAAXO%;;;;;:>:>>4644444441444444434466744>>:::;;;%%OXAAAAA",
"AAAAAo+%%;%;;::>>>>446444444444134346466444::>:;;;;;%@XAAAAA",
"AAAAAo@%%%;;;;>:>13>4455444343434444443446>>>>>;;;;;%@oAAAAA",
"AAAAA.O%;;%%;;;>>313>34574444444444434446>;>;>;;;;%;%@oAAAAA",
"AAAAAo@%%%%;;;>>>>33331134644446444447643>>>>>;;;;;%%@oAAAAA",
"AAAAAoO%;%;;;;;;>>>31333333444444676664>;>>;;;;>;;%;%@oAAAAA",
"AAAAAo@%%%%;;;;;;>>;>33334434466664334>>>;>>;;;;;;%;%OoAAAAA",
"AAAAAAO%;%%%;;>;;>>>>>33>343444444343>>>>>>;;;>;;;;%%OOAAAAA",
"AAAAAAo%%%%%%;>;;;;>:>>3333>>>>>333>>:::>;;;;>;;;;;;@OAAAAAA",
"AAAAAAX@%;%%;%;;;;;>>>:>>>>3333>33>>>>:>>;;;>;;>;;%%@oAAAAAA",
"AAAAAAo@%%%%%;;;>>;;>>>>>:>:>>>>>>>>>>>>;;>;;;;;:%%%@oAAAAAA",
"AAAAAAoo@%%%%%%;;;;;;>>>>>:::>:>>>>>>;;;;;;;;>;;;;;%OoAAAAAA",
"AAAAAAAo@%;%%%;;;;>;;;;>:;;>:>:>>>:;;>;;>;;;>;;;%;%%oAAAAAAA",
"AAAAAAAoO%@%%%%;%;;>;;;;>:>;;:;;;;:>>>;>;%;>;;;;;%@@oAAAAAAA",
"AAAAAAAAo@@%%%%%%;;;>;%;;>;>>>>>>>>;;;;;;;;;;>%;%%@ooAAAAAAA",
"AAAAAAAAo@%@%%%%;;;;;>;;;;>;;;;:;;;;;>>;;;;;;;;%%%OoAAAAAAAA",
"AAAAAAAAAO@@%%%%%;;;;;;;;;>>>;;;;;;>>>>>>>;;;;;%%@oAAAAAAAAA",
"AAAAAAAAAAo@%%%%%%%;;;;;;;;;;;;:;>>>:;;>;;;;;%%@@ooAAAAAAAAA",
"AAAAAAAAAA.o@@%%%%%%;;;%;;;;;;;;;::;:::;;;;;%%%@OoAAAAAAAAAA",
"AAAAAAAAAAA.o@@%%%%%%%%;;%;;;;;;;;;:;;;%%%%%%@@o.AAAAAAAAAAA",
"AAAAAAAAAAAA oo@%@%%%;%%%%;;;%;%;;;;%%%;%%%@@Oo.AAAAAAAAAAAA",
"AAAAAAAAAAAAAA.oo@%%%%%;%%%%%%;;;%;%;%%%%@@oo.AAAAAAAAAAAAAA",
"AAAAAAAAAAAAAAAAooo@@%%%;%%;%;;%%%%%%@@@OoX.AAAAAAAAAAAAAAAA",
"AAAAAAAAAAAAAAAAAA.ooo@@@%%%%%%%%%@@@Oo@o AAAAAAAAAAAAAAAAAA",
"AAAAAAAAAAAAAAAAAAX;;ooooooOOOOOooooooO>>ooAAAAAAAAAAAAAAAAA",
"AAAAAAAAAAAAAAAAAX%91X@%%;%%%@@%%;:>;%o>9>oAAAAAAAAAAAAAAAAA",
"AAAAAAAAAAAAAAAAo+>9%+;>1677777799974>@%76%oAAAAAAAAAAAAAAAA",
"AAAAAAAAAAAAAAAAo%11+@>11790000009994>%o>4>@oAAAAAAAAAAAAAAA",
"AAAAAAAAAAAAAAA.X$:;o%>14479009099976>;o%>:#..AAAAAAAAAAAAAA",
"AAAAAAAAAAAAAAX<e*o++;>11515799999974>:@@%o#2-.AAAAAAAAAAAAA",
"AAAAAAAAAAAAAA#kZcr+@:>314764799979433>@o$ejvd#AAAAAAAAAAAAA",
"AAAAAAAAAAAAAA-bVVb*%:>3>144496746443>3%osZVnz,AAAAAAAAAAAAA",
"AAAAAAAAAAAAAA#hBBjO%::>13114464444333>%oaBNnl-AAAAAAAAAAAAA",
"AAAAAAAAAAAAAAXqvBrX%:>>1333141411333>:%otmnvtoAAAAAAAAAAAAA",
"AAAAAAAAAAAAAAAo8fwo%;>>1441143111333>:%oqxzu$AAAAAAAAAAAAAA",
"AAAAAAAAAAAAAAAA.+Oo%;;>>>11143311331>:%O@,:+AAAAAAAAAAAAAAA",
"AAAAAAAAAAAAAAAAAAXo%;;>1>1133331111:>;%+XAAAAAAAAAAAAAAAAAA",
"AAAAAAAAAAAAAAAAAAoO%%;;>>>3>3>>>>>>:;;%OXAAAAAAAAAAAAAAAAAA",
"AAAAAAAAAAAAAAAAAAXo%%;;;;;;;:;:;:;;;;%$OXAAAAAAAAAAAAAAAAAA",
"AAAAAAAAAAAAAAAAAAAo@@@$%%%%%%%%%%%%%#@+oAAAAAAAAAAAAAAAAAAA",
"AAAAAAAAAAAAAAAAAAAoooooXooooOoooooooooooAAAAAAAAAAAAAAAAAAA",
"AAAAAAAAAAAAAAAAAAAAX+=&$$*#oAAo+$$$**+XAAAAAAAAAAAAAAAAAAAA",
"AAAAAAAAAAAAAAAAAAAAX+=====*oAAo**$***+oAAAAAAAAAAAAAAAAAAAA",
"AAAAAAAAAAAAAAAAAAAAX+$*$$$$OAAo+oooooooAAAAAAAAAAAAAAAAAAAA",
"AAAAAAAAAAAAAAAAAAAAooooXooooAAAAAAAAAAAAAAAAAAAAAAAAAAAAAAA",
"AAAAAAAAAAAAAAAAAAAAAAAAAAAAAAAAAAAAAAAAAAAAAAAAAAAAAAAAAAAA",
"AAAAAAAAAAAAAAAAAAAAAAAAAAAAAAAAAAAAAAAAAAAAAAAAAAAAAAAAAAAA",
"AAAAAAAAAAAAAAAAAAAAAAAAAAAAAAAAAAAAAAAAAAAAAAAAAAAAAAAAAAAA",
"AAAAAAAAAAAAAAAAAAAAAAAAAAAAAAAAAAAAAAAAAAAAAAAAAAAAAAAAAAAA",
"AAAAAAAAAAAAAAAAAAAAAAAAAAAAAAAAAAAAAAAAAAAAAAAAAAAAAAAAAAAA"
};
