/* XPM */
static xpm_row_t const p1_back_3[] = {
/* columns rows colors chars-per-pixel */
"60 90 69 1 ",
"  c #151413",
". c #181716",
"X c #1A1917",
"o c #1C1B19",
"O c #201F1D",
"+ c #22211F",
"@ c #252423",
"# c #292623",
"$ c #2B2B25",
"% c #2C2C2C",
"& c #312D26",
"* c #302F2F",
"= c #33332A",
"- c #3D362E",
"; c #39392E",
": c #333333",
"> c #3B3836",
", c #3B3B3B",
"< c #473F37",
"1 c #423F3C",
"2 c #4B4137",
"3 c #40403F",
"4 c #4E463E",
"5 c #57493D",
"6 c #403F40",
"7 c #444344",
"8 c #484847",
"9 c #484748",
"0 c #4A4A4A",
"q c #544B42",
"w c #50504F",
"e c #525252",
"r c #585857",
"t c #5A5A5A",
"y c #675647",
"u c #6F5E4E",
"i c #735F4E",
"p c #615851",
"a c #736352",
"s c #796A5E",
"d c #86705C",
"f c #817366",
"g c #947B64",
"h c #9B836B",
"j c #A1866D",
"k c #AD8D72",
"l c #B3977B",
"z c #BA9B7E",
"x c #9C8C81",
"c c #A79281",
"v c #BBA087",
"b c #CCAC8C",
"n c #D6B18F",
"m c #CEB49C",
"M c #DDBA97",
"N c #E2BD99",
"B c #E7C19C",
"V c #DDC5B3",
"C c #EAC6A0",
"Z c #EECAA6",
"A c #E0C4AD",
"S c #ECCAAC",
"D c #F2CCA5",
"F c #F1CEAD",
"G c #EFCFB3",
"H c #F3D4BB",
"J c #F7DAC4",
"K c #F4DAC8",
"L c #00B140",
/* pixels */
"LLLLLLLLLLLLLLLLLLLLLLLLLLLLLLLLLLLLLLLLLLLLLLLLLLLLLLLLLLLL",
"LLLLLLLLLLLLLLLLLLLLLLLLLLLLLLLLLLLLLLLLLLLLLLLLLLLLLLLLLLLL",
"LLLLLLLLLLLLLLLLLLLLLLLLLLLLLLLLLLLLLLLLLLLLLLLLLLLLLLLLLLLL",
"LLLLLLLLLLLLLLLLLLLLLLLLLLLLLLLLLLLLLLLLLLLLLLLLLLLLLLLLLLLL",
"LLLLLLLLLLLLLLLLLLLLLLLLLLLLLLLLLLLLLLLLLLLLLLLLLLLLLLLLLLLL",
"LLLLLLLLLLLLLLLLLLLLLLLLLLLLLLLLLLLLLLLLLLLLLLLLLLLLLLLLLLLL",
"LLLLLLLLLLLLLLLLLLLLLLLLLLLLLXXXLLLLLLLLLLLLLLLLLLLLLLLLLLLL",
"LLLLLLLLLLLLLLLLLLLLLLLLLLLLo@:OXLLLLLLLLLLLLLLLLLLLLLLLLLLL",
"LLLLLLLLLLLLLLLLLLLLLLLLLLXo%et9#.LLLLLLLLLLLLLLLLLLLLLLLLLL",
"LLLLLLLLLLLLLLLLLLLLLLLLLXO6rtrte=ooLLLLLLLLLLLLLLLLLLLLLLLL",
"LLLLLLLLLLLLLLLLLLLLLLL.O%0ttttttt6@oLLLLLLLLLLLLLLLLLLLLLLL",
"LLLLLLLLLLLLLLLLLLLLLoo@6rttttrertt0:ooLLLLLLLLLLLLLLLLLLLLL",
"LLLLLLLLLLLLLLLLLLLLXO:wttreeeee0ertt9@ooLLLLLLLLLLLLLLLLLLL",
"LLLLLLLLLLLLLLLLLLoo%9ttrewe0eeeewetttr6#ooLLLLLLLLLLLLLLLLL",
"LLLLLLLLLLLLLLLLXX@6rrrewweweweeewwerttte7#oXLLLLLLLLLLLLLLL",
"LLLLLLLLLLLLLLXX@,etreeweeweeeeeweeweerrtte,#XoLLLLLLLLLLLLL",
"LLLLLLLLLLLLLXO>wttrreeeweweeeteeeeeweewettte:ooLLLLLLLLLLLL",
"LLLLLLLLLLLLo#9rttreewweewetttttttttwwweeettte:OXLLLLLLLLLLL",
"LLLLLLLLLLLX%wrreeeeweweewrtttttttteeweeeeeerre:+oLLLLLLLLLL",
"LLLLLLLLLLX%weewerew00ww0eettttttteeww7900wweeew6#XLLLLLLLLL",
"LLLLLLLLLo%0weeeee06,,760eerrrttte0076,,,,9767770,+oLLLLLLLL",
"LLLLLLLLo@990w996,,,,,:,,7000ee0976,,,:,:,:,,::,77*OoLLLLLLL",
"LLLLLLLoO:666,::%::%%::,,,,666,,,,,,,:::,6,:::**::**ooLLLLLL",
"LLLLLLoo%:,:*:::677,,:%%::::,,,,,,,::::,9997797:**:*%XoLLLLL",
"LLLLLLo#:::::709090997,::%%::,,,:::%::7999990ww96:*:*@oLLLLL",
"LLLLLo+::::699900009990076:::%%%*:,,7909799999w00::*:*+oLLLL",
"LLLLXo%,:::9099009970009900976,,,67779977897990006,::*@ooLLL",
"LLLLo@:,::,990999077699999999990990099909997790ww,,:***+XLLL",
"LLLoo%::*,6990079997790909979977777777909977790w0,,,***%oLLL",
"LLLo@::**,779099799999999997777777779099797979900,,,:**:@oLL",
"LLLo#::**:6609977097700099909999999099779977790w0,::,***#oLL",
"LLoo%:***,,7977767999779999997990997777797677900,,,,,***%ooL",
"LLoO%::%::,3777777709977799979997777779787777907,:,,:%:%:@oL",
"LLo@:%::::,,6,,77979999999779999999999777777900,,,,,,:%:%@OL",
"LLo%%::::::,,,679977777099999999997977777779098,,:,:::::%%oL",
"L@o%%::%::,,,,6,7779997767779779797777767790976,,,,,::%%%%oo",
"LoO%:%::::,,,,,,679777777777777777776677990977,:,,,:::%:%%Oo",
"LOO%%::::%,:,:,,,77977777977777777777779099796,,:,,::::%:%OX",
"LoO*%:::%::,,,,66,799977776776766777777776777,,,,,:::::::%@X",
"LoO%%:%%::::,,,67,,77799776776777779767776796,,,,,::::%::%@o",
"LX@%%***::::,,:,7,,,777799777777777777777793:,,:,,::::::*%@X",
"Loo%*%**%::::,,,,767,676679999997779877099,,,,,,::,:::%**%@X",
"Lo@%:%%*:::::,,,,,7,6766666666777779999973,,:,,,::,:,%**%%Oo",
"LXo%**%%%:,,::,,,,,76,6666777777999976673:,,,,,:::,::::**%OX",
"Loo@%*%%:::,,::,:,,,66,6667777977777376,,,:,,,:::,:*:,:*%%OX",
"LLo%%:%%%:%:,:%:,,,:,6776,6,666677677,,,:,,,,:::,,:*::**%@OX",
"LLo@%*%%%::::::::,,,,,,,666,,,,,,66,,,,,,,:,::::,:::::**%@OL",
"LLXO%%:%%%%%:,,:::,:,,,,,,,666663633,3,:,,,::::,::,:::**%@XL",
"LLo+@%:%%%::%::,,::,,,,,,,,,,,,,,,,,,,,,,::::::::,::::*:%OoL",
"LLLo@%%%%%%*:::,,:::,::,,::,,,:,,,,,,,,::,::,,::,::::*:%%oOL",
"LLLo+@@*%%%::%:::::::,,,,,,,,,,,,:,:,::,,::,::*:,::::*:%@oLL",
"LLLoO@%%:%%%::%:,,:::,:,::::::::::,::,,:,:,:**,,:*,:*%%%OXLL",
"LLLLo@@%%%%%%::%:,::%::,,,,,:,:,,:,,,,:::,::*:,:*:::%%@@ooLL",
"LLLLoo%@%%%%:%::::,::::::::,:,,,,,,:::::::::,:::::%:*%%OoLLL",
"LLLLLo@#@%%%%:%:::::,::::,:::::,:::::::,,,:::,:::**:%%@ooLLL",
"LLLLLXo@%@%%%%:%:::::::::,,,,,::::::,,,:,,:,:,::::%%@@OXLLLL",
"LLLLLL.O@%%%%@%%::%::::::::::::,,:,,,,:,:,:,:**:::%@@OoLLLLL",
"LLLLLLLoO@@%%%%%%%:%:::::::::::::,,,:,,:,,::****%@%@@oXLLLLL",
"LLLLLLLLXO@%%%%%:%%%%::%:::::::::::::,,::::%*:*%%@@@o.LLLLLL",
"LLLLLLLLLXo@@@%%%%:%%%%:::::::%::*::::%:***:*%%%%@Oo.LLLLLLL",
"LLLLLLLLLLXoo@%@%%%::%%%%%:%:**%:::::***:*%%%@@@OoX LLLLLLLL",
"LLLLLLLLLLL..oO@%@%%%%:%%%%%%%*:****:***%%%@@@OoX LLLLLLLLLL",
"LLLLLLLLLLLLL..oO@@@%%%:%::%%::::*%%%%%%%@@Oooo LLLLLLLLLLLL",
"LLLLLLLLLLLLLLL .oOO@@@%%%%:**%*%%%@@%@@OoooXLLLLLLLLLLLLLLL",
"LLLLLLLLLLLLLLLL o%oXXOO+@@@%@@@@@@OOooXX%%o LLLLLLLLLLLLLLL",
"LLLLLLLLLLLLLLLoo:7:.O+OoooXXooOXooO@@@O.:06@XLLLLLLLLLLLLLL",
"LLLLLLLLLLLLLLLo#70%X@:*,:::::%:,,,663::o@ee,oXLLLLLLLLLLLLL",
"LLLLLLLLLLLLLLXo:77@@:,,,9ww000000wee96,%o3w9*ooLLLLLLLLLLLL",
"LLLLLLLLLLLLLLo#,7:o%,6670ertttttreeew3,:X%77,@XLLLLLLLLLLLL",
"LLLLLLLLLLLLLo.+%:@o*,66778ertttrere0073,OO,,,%ooLLLLLLLLLLL",
"LLLLLLLLLLLLX#p>OXX@:,667879weewweww006,,@o::%oo#oLLLLLLLLLL",
"LLLLLLLLLLLLXfKVl4X@,,,63987900wwwwww76,,%o@Oo3hl2oLLLLLLLLL",
"LLLLLLLLLLLL+vHHKs.%,,36,79090000890773,6=oo3jAZMj+LLLLLLLLL",
"LLLLLLLLLLLLOlFGA0o:,,,6,73770000897736,,:+=mJHFBz&LLLLLLLLL",
"LLLLLLLLLLLL.aCDM;o:,,,633,6773777773,63,:+$mFGZBk#LLLLLLLLL",
"LLLLLLLLLLLL.#hBb$O::,,3636633733737337,,:@+zZZBnioLLLLLLLLL",
"LLLLLLLLLLLLLo#us++=:,,,33673777333,666,::@ohBBng+oLLLLLLLLL",
"LLLLLLLLLLLLLL.ooo@=:,3,33373336663766,,,*#o5hgy+OLLLLLLLLLL",
"LLLLLLLLLLLLLLLLLX@*::,3,3333666366666,:::@oooooXLLLLLLLLLLL",
"LLLLLLLLLLLLLLLLLX@%:::,,,3,336,3,66,:,,:*@oLLLLLLLLLLLLLLLL",
"LLLLLLLLLLLLLLLLLX#%**:,:,,,,,,,,,,,,::::%@XLLLLLLLLLLLLLLLL",
"LLLLLLLLLLLLLLLLLX@%*=**:%::::::::::::::%%@XLLLLLLLLLLLLLLLL",
"LLLLLLLLLLLLLLLLLXO@@@$$%%%%%%%%=$$=%%$@@+ooLLLLLLLLLLLLLLLL",
"LLLLLLLLLLLLLLLLLXXXooooooooOOOo+oooOoooXooLLLLLLLLLLLLLLLLL",
"LLLLLLLLLLLLLLLLLLLo#=$+++OOoXoXX+++++$$@XLLLLLLLLLLLLLLLLLL",
"LLLLLLLLLLLLLLLLLLLX#;=;;=;=oLLX+$&&=&$&+XLLLLLLLLLLLLLLLLLL",
"LLLLLLLLLLLLLLLLLLLo+======&@LLooOooooooOoLLLLLLLLLLLLLLLLLL",
"LLLLLLLLLLLLLLLLLLLX+=&$$$&$+XLLXoooooooXLLLLLLLLLLLLLLLLLLL",
"LLLLLLLLLLLLLLLLLLLXoOOOOooooOLLLLLLLLLLLLLLLLLLLLLLLLLLLLLL",
"LLLLLLLLLLLLLLLLLLLooXoooooXoLLLLLLLLLLLLLLLLLLLLLLLLLLLLLLL"
};
