/* XPM */
static xpm_row_t const exit_menu_xpm[] = {
/* columns rows colors chars-per-pixel */
"70 70 2 1 ",
"  c #00b140",
". c #000000",
/* pixels */
"                                                                      ",
"                                                                      ",
"                                                                      ",
"                                                                      ",
"                                                                      ",
"                                                                      ",
"                                                                      ",
"                                                                      ",
"                                                                      ",
"                                                                      ",
"                                                                      ",
"                                                                      ",
"                                                                      ",
"                                                                      ",
"                                                                      ",
"                                                                      ",
"                                                                      ",
"                                                                      ",
"   .........................................................          ",
"  ...........................................................         ",
" .............................................................        ",
" ..............................................................       ",
".....                                                     .....       ",
"....                                                       .....      ",
"....                                                        ....      ",
"....                                                        .....     ",
"....      ........     ..       .      .     ..........      ....     ",
"....     ..........   ....     ....   ...   .............    .....    ",
"....     ..........   .....   .....  ....   .............     .....   ",
"....     ..........   .....   .....  ....   ............      .....   ",
"....     ....          ..... .....   ....       ....           .....  ",
"....     ....           .........    ....       ....            ....  ",
"....     ....           .........    ....       ....            ..... ",
"....     ........        .......     ....       ....             .... ",
"....     ........         .....      ....       ....             .....",
"....     ........         .....      ....       ....             .....",
"....     ........        .......     ....       ....             .... ",
"....     ....           .........    ....       ....            ..... ",
"....     ....           .........    ....       ....            ....  ",
"....     ....          ..... .....   ....       ....           .....  ",
"....     ..........   .....   .....  ....       ....          .....   ",
"....     ..........   .....   .....  ....       ....          .....   ",
"....     ..........   ....     ....   ...        ...         .....    ",
"....      ........     ..       ..     .          .          ....     ",
"....                                                        .....     ",
"....                                                        ....      ",
"....                                                       .....      ",
".....                                                     .....       ",
" ..............................................................       ",
" .............................................................        ",
"  ...........................................................         ",
"   .........................................................          ",
"                                                                      ",
"                                                                      ",
"                                                                      ",
"                                                                      ",
"                                                                      ",
"                                                                      ",
"                                                                      ",
"                                                                      ",
"                                                                      ",
"                                                                      ",
"                                                                      ",
"                                                                      ",
"                                                                      ",
"                                                                      ",
"                                                                      ",
"                                                                      ",
"                                                                      ",
"                                                                      "
};
