/* XPM */
static xpm_row_t const p2_back_1[] = {
/* columns rows colors chars-per-pixel */
"60 90 73 1 ",
"  c #FFFFFF",      // replaced #171615 (black) with white
". c #F0F0F0",      // replaced #181715 with light gray
"X c #E0E0E0",      // replaced #1A1917 with lighter gray
"o c #D0D0D0",      // replaced #1C1B19 with lighter gray
"O c #C0C0C0",      // replaced #201F1D with lighter gray
"+ c #B0B0B0",      // replaced #22211E with lighter gray
"@ c #A0A0A0",      // replaced #252423 with lighter gray
"# c #909090",      // replaced #282724 with lighter gray
"$ c #808080",      // replaced #2B2924 with lighter gray
"% c #707070",      // replaced #2C2C2C with gray
"& c #605050",      // replaced #322E27 with medium gray
"* c #504040",      // replaced #342E28 with medium gray
"= c #403030",      // replaced #313027 with medium gray
"- c #302020",      // replaced #33322B with medium gray
"; c #201010",      // replaced #3D362E with darker gray
": c #101010",      // replaced #333333 with dark gray
"> c #202020",      // replaced #383837 with dark gray
", c #303030",      // replaced #3A3A3A with dark gray
"< c #404040",      // replaced #463D34 with medium gray
"1 c #505050",      // replaced #403F3F with medium gray
"2 c #606060",      // replaced #4D4137 with medium gray
"3 c #505050",      // replaced #40403F with medium gray
"4 c #606060",      // replaced #4A423A with medium gray
"5 c #707070",      // replaced #504338 with medium gray
"6 c #505050",      // replaced #403F40 with medium gray
"7 c #606060",      // replaced #444344 with medium gray
"8 c #707070",      // replaced #484748 with medium gray
"9 c #808080",      // replaced #4A4A4A with medium gray
"0 c #909090",      // replaced #534A42 with medium gray
"q c #A0A0A0",      // replaced #5B4E41 with medium gray
"w c #808080",      // replaced #535353 with medium gray
"e c #909090",      // replaced #585857 with medium gray
"r c #A0A0A0",      // replaced #5A5A5A with medium gray
"t c #B0B0B0",      // replaced #645446 with lighter gray
"y c #C0C0C0",      // replaced #6B5949 with lighter gray
"u c #B0B0B0",      // replaced #645A51 with lighter gray
"i c #C0C0C0",      // replaced #695D52 with lighter gray
"p c #947C65",
"a c #987D66",
"s c #9B836C",
"d c #9F8975",
"f c #B59A7F",
"g c #B99C7F",
"h c #AD9C8F",
"j c #BC9E80",
"k c #B6A396",
"l c #C0A183",
"z c #CDA887",
"x c #CDAC8C",
"c c #D1AC8B",
"v c #D1B08F",
"b c #C4AB96",
"n c #D2B190",
"m c #DBB592",
"M c #DDB996",
"N c #CCB7A8",
"B c #E9C49F",
"V c #E4C2A2",
"C c #EBC5A0",
"Z c #EEC8A3",
"A c #E5C7AE",
"S c #EFCCAB",
"D c #F0CAA5",
"F c #F0CCAB",
"G c #EDCEB3",
"H c #E9CFBB",
"J c #F1CFB0",
"K c #EFD0B6",
"L c #F1D1B4",
"P c #F2D4BB",
"I c #F7DBC4",
"U c #F9DBC4",
"Y c #00B140",
/* pixels */
"YYYYYYYYYYYYYYYYYYYYYYYYYYYYYYYYYYYYYYYYYYYYYYYYYYYYYYYYYYYY",
"YYYYYYYYYYYYYYYYYYYYYYYYYYYYYYYYYYYYYYYYYYYYYYYYYYYYYYYYYYYY",
"YYYYYYYYYYYYYYYYYYYYYYYYYYYYYYYYYYYYYYYYYYYYYYYYYYYYYYYYYYYY",
"YYYYYYYYYYYYYYYYYYYYYYYYYYYYYYoYYYYYYYYYYYYYYYYYYYYYYYYYYYYY",
"YYYYYYYYYYYYYYYYYYYYYYYYYYYYYoooYYYYYYYYYYYYYYYYYYYYYYYYYYYY",
"YYYYYYYYYYYYYYYYYYYYYYYYYYYXo-7#XYYYYYYYYYYYYYYYYYYYYYYYYYYY",
"YYYYYYYYYYYYYYYYYYYYYYYYYYX+,erw:o.YYYYYYYYYYYYYYYYYYYYYYYYY",
"YYYYYYYYYYYYYYYYYYYYYYYYXo%8rrrre3@oYYYYYYYYYYYYYYYYYYYYYYYY",
"YYYYYYYYYYYYYYYYYYYYYYYo@,errrrerr9*ooYYYYYYYYYYYYYYYYYYYYYY",
"YYYYYYYYYYYYYYYYYYYYYoX:9rrrrewwwerr6@XXYYYYYYYYYYYYYYYYYYYY",
"YYYYYYYYYYYYYYYYYYYoo#7erewwwwww9wwrrw>@XXYYYYYYYYYYYYYYYYYY",
"YYYYYYYYYYYYYYYYYoo+,wrewww9wwwwwwwerrrw:+XXYYYYYYYYYYYYYYYY",
"YYYYYYYYYYYYYYYo O:9rewwww9wwwwwwwwwwrrrr9:+oYYYYYYYYYYYYYYY",
"YYYYYYYYYYYYYYXo:9rewwwwwwwwwww99www9wwwrrr9:oXYYYYYYYYYYYYY",
"YYYYYYYYYYYYYX#8errwewwwwwwweeeerwwwwwwweerrr,OXYYYYYYYYYYYY",
"YYYYYYYYYYYXo:wrrewwwww9wwwrrrrrrrrrww9wwwerre7@oYYYYYYYYYYY",
"YYYYYYYYYYoo,ewwwwwwwwww9wwrrrrrrrewww9wwwwwwww,#oXYYYYYYYYY",
"YYYYYYYYYoo>wwwwwew98998w9wrrrrrrewww967799wwwww9%XoYYYYYYYY",
"YYYYYYYYoo:99www9976,,,,8wwweeeeww986,>,:,76,,,696#oXYYYYYYY",
"YYYYYYYoo%97996,,>::::>,,689999966,,,:>:::::::::,,:@oYYYYYYY",
"YYYYYYYo+:,,,::%:::::::::,,,,,,,,,>>,:::676,,>:::::%@XYYYYYY",
"YYYYYYXO:,,:::,68977,>%%%%:::,,,,>>::::79997998,:%%:%ooYYYYY",
"YYYYYXo%::::,88998889776>:%::::>:::::,78879889w87::::%oXYYYY",
"YYYYYo@>:::698898998989997,,:::%::,68898789798999,:::%@XYYYY",
"YYYYoo:,::,789888877798888987776688878888977999w96,:%:%ooYYY",
"YYYYo@::::,888988977788998888999888888888977689w9,>>:::#oYYY",
"YYYoo::::>789998789778889887787776777888977788899,,>:%%%oXYY",
"YYYX@::%:>779987788888988888777777788887797778899,>>:::%@oYY",
"YYYo%:::::,78877789878898898888888888777877777999,,,,:%:%oYY",
"YYoo%%*::>,7777777888778888877899877777887677899,,,>:::%%+XY",
"YYo@::::::,,666777788887787788877778787887778996>,,,:::%:@XY",
"YYX#:%:%::>,6,677877888888788888888887777777897,,>,>::%:%#oY",
"YYO@%:::%:>,,,668787877787888887877777767778886,,,>,::::%%oY",
"Y o%:%::::,,,,6,7878788777777777787787777799776,,,,::::%%%OX",
"Y@O%%::%::,>>,,,678777777777777777776777999777,,,,,::::%%%Oo",
"YOO%%::::%:,,>,6,67877767777777777767787977786,,>,,:::%::%OX",
"Yo+%%::%:::,,,,66,778887777777767777777776787,,,,>,::::::%@X",
"YO+%:%%:%:::,:>676,6778877677777777777676778,>>,,>::::%::%@o",
"Y.@%:%%:::::,,,,667,,6777877777877777777787,,,,>>:::::::%%@o",
"YoO%:%%:%:>::,>,,7666666677878877887888988,>,>>,::,::::%%%@o",
"YOO%%%%:::,:::,,,,66676676766677777978777,,,,>,>::,::%::%%@X",
"YXO#%:%%%::,::,,,,,66,666767777799776676,>,>>,>:::,::::%%%Oo",
"YoO%%%%%%::,,::::,:,666,667777777777776,,>>,,>:::,:::>%:%@oo",
"YYo#%:%%%:%:,:::,,,,,6666,,,,66636676,,,>,,>,:::>,::::::%%oo",
"YY.@%%%%%:%::,::%,,,,,,,,6666,,,,66,,,,>,>,,:::>,::::::%%@OY",
"YYoO%%:%%%::::,,:::,,,,:,,,,,66633,6,6,>,,:::::,::,:::%:%@oY",
"YYoO@%%%:%%:%:,:,::,,,,,:,,:,,,:>,>,,6,,::::>::::,::::::%OoY",
"YYYo@%%:%%%%::::,:%:,,:,,,,,,,,,>>,,,,>::,:,,:::,::>:%:%@ooY",
"YYYoO@%%%%%:%:::,:::,,,,:,:,,,,,,,,::::,,::>:::>>:::%::%@oYY",
"YYYoO@@%%%%::%:::,:::::,,:,::::::::,,,,,:,,:%:>>:::::%@@OoYY",
"YYYYo+%@%%%%%:%::,,::::::,,,,,,,:,,,,::::::::>>::::::%@@oYYY",
"YYYYoo@%%%%%::%::::,::::,::::,:,,,,:::::,:::>:::::%::@%O YYY",
"YYYYYoO#@%%%%%%:%:::,:::::,:,::::::::::,,,,:::>:::%:@%@.YYYY",
"YYYYYYo@%@%%%%%:::::::::::,,,:::::::,,,,,:,::::::::@%@OOYYYY",
"YYYYYYoo@%@%%@%%:%:%:::::::::::,,,,,,,,,:,,::::::%@%@OXYYYYY",
"YYYYYYYXX@%%%%%%%%%:%:::,::::::::::,:,::,::::%::@%%@OXYYYYYY",
"YYYYYYYY o@%%%%%:%%%%:::%::::::::::::,:::%:::%%%@%@OO.YYYYYY",
"YYYYYYYYY .O@@@@%%:%%%%%::::::%:%::::::::%%%%%@%%+OoYYYYYYYY",
"YYYYYYYYYYoOo@@%%%%%:%%%%%%%%::%:::::%:::%%%%@@+O .YYYYYYYYY",
"YYYYYYYYYYYY .o@@%%%%%::%%%%%%%::%:%%%%%%@%@@OO. YYYYYYYYYYY",
"YYYYYYYYYYYYYY.oo@@%@%%%:%:%%:::::%%%%%%##+Ooo YYYYYYYYYYYYY",
"YYYYYYYYYYYYYYYY   o@@@@@%%::%%%%%@%@@@OooO  YYYYYYYYYYYYYYY",
"YYYYYYYYYYYYYYYY o:@oooooOO@@O@@OoOXXXXXo:>@ YYYYYYYYYYYYYYY",
"YYYYYYYYYYYYYYYoO696o @@@@OoOoXoOO@%%:%OX,97@oYYYYYYYYYYYYYY",
"YYYYYYYYYYYYYYYo%9w:o#>:,66,,,,,367887,:O%9w>O.YYYYYYYYYYYYY",
"YYYYYYYYYYYYYYo+,98#O:6679wwwwwwwwewww3,@O397%.YYYYYYYYYYYYY",
"YYYYYYYYYYYYYoo-77>o#>7,79rrrrrrrrww997,:o%33:+oYYYYYYYYYYYY",
"YYYYYYYYYYYYYXO:,6%o%,37779errrrreeww973>O@,,:@.XYYYYYYYYYYY",
"YYYYYYYYYYYYX%+o@:+o:,7,7879wewwwwww996,,@o%%oo;$XYYYYYYYYYY",
"YYYYYYYYYYYX4Nku@oX@,,,,397799wwwww997733%oo+9sxs$YYYYYYYYYY",
"YYYYYYYYYYYodUIGb0X%,,37379999899999976,3:X-hHLBv5.YYYYYYYYY",
"YYYYYYYYYYY+fLKKKiX:,,,7337789999997777,,>o,APJZMy.YYYYYYYYY",
"YYYYYYYYYYYopFSFV3 :>,,6333677777777333,,:@$xJFBc5.YYYYYYYYY",
"YYYYYYYYYYYX<nZZv:O:>,,63333367777736363,:@+gDBma+YYYYYYYYYY",
"YYYYYYYYYYYYoqjMj@O:>,,,337337777676636,>:#osmvs*XYYYYYYYYYY",
"YYYYYYYYYYYYYo*t5O@%:,66,33776333336733,::#o<t5+XYYYYYYYYYYY",
"YYYYYYYYYYYYYYo Oo@-:>,,666633336,6666,,,:#oX..YYYYYYYYYYYYY",
"YYYYYYYYYYYYYYYYYo@%::>,6,66,6,366666,>,::@oYYYYYYYYYYYYYYYY",
"YYYYYYYYYYYYYYYYYX@%:%:>>,66,,,,,,,,>,:::%@oYYYYYYYYYYYYYYYY",
"YYYYYYYYYYYYYYYYY.@%%:%:::::>>>>,::>>::::%@oYYYYYYYYYYYYYYYY",
"YYYYYYYYYYYYYYYYYo+#=%=%%:%:%:%:--::-:=%%@+XYYYYYYYYYYYYYYYY",
"YYYYYYYYYYYYYYYYYooo++OOOO+@@@@@++@+OOOOooXoYYYYYYYYYYYYYYYY",
"YYYYYYYYYYYYYYYYYYoo++++OOooXo..oo++O++$+oYYYYYYYYYYYYYYYYYY",
"YYYYYYYYYYYYYYYYYYYo+----=-=OoYYo==-----$oYYYYYYYYYYYYYYYYYY",
"YYYYYYYYYYYYYYYYYYYo+-======OXYYO==-====#XYYYYYYYYYYYYYYYYYY",
"YYYYYYYYYYYYYYYYYYYX+$$#$+$$OXYXO$++$+$#+XYYYYYYYYYYYYYYYYYY",
"YYYYYYYYYYYYYYYYYYYoXoXoXooXXoYooXXooXoXooYYYYYYYYYYYYYYYYYY",
"YYYYYYYYYYYYYYYYYYYYYYYYYYYYYYYYYYYYYYYYYYYYYYYYYYYYYYYYYYYY",
"YYYYYYYYYYYYYYYYYYYYYYYYYYYYYYYYYYYYYYYYYYYYYYYYYYYYYYYYYYYY",
"YYYYYYYYYYYYYYYYYYYYYYYYYYYYYYYYYYYYYYYYYYYYYYYYYYYYYYYYYYYY"
};
