/* XPM */
static xpm_row_t const p2_back_2[] = {
/* columns rows colors chars-per-pixel */
"60 90 75 1 ",
"  c #FFFFFF",
". c #F0F0F0",
"X c #E0E0E0",
"o c #D0D0D0",
"O c #C0C0C0",
"+ c #B0B0B0",
"@ c #A0A0A0",
"# c #909090",
"$ c #808080",
"% c #707070",
"& c #605050",
"* c #504040",
"= c #403030",
"- c #302020",
"; c #201010",
": c #101010",
"> c #202020",
", c #303030",
"< c #404040",
"1 c #505050",
"2 c #606060",
"3 c #505050",
"4 c #606060",
"5 c #707070",
"6 c #505050",
"7 c #606060",
"8 c #707070",
"9 c #808080",
"0 c #909090",
"q c #A0A0A0",
"w c #808080",
"e c #909090",
"r c #A0A0A0",
"t c #B0B0B0",
"y c #C0C0C0",
"u c #B0B0B0",
"i c #C0C0C0",
"p c #6A5E53",
"a c #746351",
"s c #786654",
"d c #7C6855",
"f c #8A725D",
"g c #967B64",
"h c #9D8169",
"j c #948477",
"k c #A1886F",
"l c #A78C72",
"z c #AE9277",
"x c #A19083",
"c c #B3A193",
"v c #C2A385",
"b c #C9A485",
"n c #CCAA8A",
"m c #D0AF8E",
"M c #D3B393",
"N c #D9B491",
"B c #DFBD9D",
"V c #E0BB97",
"C c #E2BC98",
"Z c #E6C19C",
"A c #DEC2AB",
"S c #D6C0B0",
"D c #EAC6A4",
"F c #EFCAA7",
"G c #E4C6AD",
"H c #E6C8AE",
"J c #F1CBA5",
"K c #F0CCA8",
"L c #EECEB3",
"P c #F1CFB0",
"I c #EFD0B5",
"U c #F0D1B7",
"Y c #F3D5BC",
"T c #F7DBC4",
"R c #00B140",
/* pixels */
"RRRRRRRRRRRRRRRRRRRRRRRRRRRRRRRRRRRRRRRRRRRRRRRRRRRRRRRRRRRR",
"RRRRRRRRRRRRRRRRRRRRRRRRRRRRRRRRRRRRRRRRRRRRRRRRRRRRRRRRRRRR",
"RRRRRRRRRRRRRRRRRRRRRRRRRRRRRRRRRRRRRRRRRRRRRRRRRRRRRRRRRRRR",
"RRRRRRRRRRRRRRRRRRRRRRRRRRRRRRRRRRRRRRRRRRRRRRRRRRRRRRRRRRRR",
"RRRRRRRRRRRRRRRRRRRRRRRRRRRRRRRRRRRRRRRRRRRRRRRRRRRRRRRRRRRR",
"RRRRRRRRRRRRRRRRRRRRRRRRRRRRRXXXRRRRRRRRRRRRRRRRRRRRRRRRRRRR",
"RRRRRRRRRRRRRRRRRRRRRRRRRRRRo#,+XRRRRRRRRRRRRRRRRRRRRRRRRRRR",
"RRRRRRRRRRRRRRRRRRRRRRRRRRXo:yuw$XXRRRRRRRRRRRRRRRRRRRRRRRRR",
"RRRRRRRRRRRRRRRRRRRRRRRRRX@0uuuuy<oXRRRRRRRRRRRRRRRRRRRRRRRR",
"RRRRRRRRRRRRRRRRRRRRRRRXo-yuuuuuuu0#XXRRRRRRRRRRRRRRRRRRRRRR",
"RRRRRRRRRRRRRRRRRRRRRXX#0uuuuuuyyuuy>ooRRRRRRRRRRRRRRRRRRRRR",
"RRRRRRRRRRRRRRRRRRRRoO,yuuyyyywyyyyuuw%oXRRRRRRRRRRRRRRRRRRR",
"RRRRRRRRRRRRRRRRRRoo%wuuyyyyyywyyyyuuuu0%X.RRRRRRRRRRRRRRRRR",
"RRRRRRRRRRRRRRRRXX$0uuyyyyyyyyyywyyyyuuuu0%ooRRRRRRRRRRRRRRR",
"RRRRRRRRRRRRRRXo$0yuuyyywywyyyyyyyyyyyyyuuy0#ooRRRRRRRRRRRRR",
"RRRRRRRRRRRRRX+1yuuuyyyyyyyyyyyuyyyyyyyyyuupy<oXRRRRRRRRRRRR",
"RRRRRRRRRRRRX$wuuuyyyywyyyyuuuuuuuuuyyyyyyuuuy1OXRRRRRRRRRRR",
"RRRRRRRRRRoX%yyyyyyyyyyywyyuuuuuuuuyywyywyyyyuy<@oRRRRRRRRRR",
"RRRRRRRRRoo:yyyyyyyywwwwwyyuuuuuuuuyyq0qqwywyyyw0#oRRRRRRRRR",
"RRRRRRRRRo%wyyyyyww01100wyyuuuuuyyww01<1<5q09000y1+oRRRRRRRR",
"RRRRRRRRX#w0ww099<<:1<:150wwwyyw0051<1<::::<::,:10%ooRRRRRRR",
"RRRRRRRoO<1191:::::**::<<111115111,,1:::505<,::::::%ooRRRRRR",
"RRRRRRoo%<<:::<<9q091:%%%<<<<1<11<1<:::5qqq00w0:::%:%ooRRRRR",
"RRRRRoo$:<::<0wqqqqwq09<%%%:%<<<<<%-:<5qqqqqwwyq1::::#oRRRRR",
"RRRRRo@:<::1qwqqqqqwqqqwqq<::-%%-:<10ww00qqqqwyww1:::%OoRRRR",
"RRRRoo%<::10qwqwqwqqqqqqqqqq055515w00ww00w0qqqwww1<:::%ooRRR",
"RRRR.@:::<1qqqwwqq000qqqqqqqqqqqwwwwqqwqqqq00qwyw91<%::OoRRR",
"RRRoo:<::<9qwww0qqq0qqqqqqqqqq00050000qwqq000qqwq1<<%::$ooRR",
"RRRo@::%:<00wwq00qqqqqqqqqq000000000qwq00q0q0qwww1<1::%%+oRR",
"RRRo#:::*<10qq000qq0qqqqqqqqqqqqq0ww0q000q000qwww1<1<%::$oRR",
"RRoo%:%%:<<0q00000qqq00qqqqqq0qqwqq0000qq0000qwq511<<::%:ooR",
"RRX+:::::<<10990q0qqqq00qqqqqqqq0000qq0000000wq0<<11::%:%@XR",
"RRo@:%:::<11515500000wwqqq00q00wqqqqq000q000qwq51<11::%:%%oR",
"RRo@%:%:%:<<5150qqq0q000qqqwqqwwq0q0009050qqwq01111<:::%%%OR",
"ROo%:::%::111115000qq0005000000000q0000900qw0q511<<<::%:%%oX",
"Roo%:%::::<<11159qq000q000000000q0005000qwwq0011111::::%%%OX",
"RoO%%:::-:<<1<11100q000000000000000000qqww00q5,<<1<::::::%+X",
"Ro+%:%:%%::1<1155100qq00000005005090q009055qq111<<<<::%::%+X",
"Ro+%%::%::::1,15051000qq0050005000q00005500011,111:::::-:%@X",
"Ro+%%%::%:::<11155515000qqq00000q050000000q51,<1<<:::::-%%@o",
"RoO%:%%:%:<:<1,1<055110150qqqq0qqq0qqqqwqq1<,1<,<:<:::%:-%@X",
"RoO%:%%%::<::<111150050059955900000qqqq005<11<1<::<::::%%%@o",
"RXo$:%%%:%<:::<<1<1001109050000qwwq0095551<1,1,::<<:::::%%OX",
"RoO$%:%%%::1<::<<11<109199050q0q00090055<<1<1,<::<<%:<%:%%oX",
"RRo%%:%%%::<1:::<1<11900511515559995051<<1<11:::<<:::<%:%%oo",
"RRo@%%%%%:%::<::<<1<<11<55551<111995<<1<1<1<<:::1:::<::%%#oR",
"RRoO%%%%%%:::<<<::<<<1<<1<155555999951<<<<<:::<<::,:<%%:%+oR",
"RRoo@%:%%%%%:::<<:<<1111<1<<1111<1<11511<<<::<<::<,:<%:%%+XR",
"RRRo@%%%%%%:%:<<<::<<<1<111<,1,,<1<11<<,:<<:::::,::,:%:%%ooR",
"RRRoO%%%%%%::%::<<%<<<<1<<<11,1111<<,,:,<<:<:::<<::::%:%@XRR",
"RRRoo@%%%%%::%%:<<<:<<<<<:<::<::::,:,<<<<<<:::<<::::%:%%+.RR",
"RRRRX@@@%%%%::%::<<:%:::<1<11,,<<<<1<,:,:<::::<::::::%@@ooRR",
"RRRRoo#%%%%%%:%:::<<::::<:<<<<1111<<::::::::<<::::%:%%%OoRRR",
"RRRRRo@#@%%%:%%:::::<::::,<<:::,,:::::<<1<,<<::::::%%%@ooRRR",
"RRRRRoo@%@%%%%:::%:::::::<,1,,<:::::,11,,,<<<<<%::%%@@O.RRRR",
"RRRRRRoo@%@%%@%%%:::::::::::::::<<<1<,,<<<,<<:%::%%@%OXRRRRR",
"RRRRRRRoo@%%%%%%%%:::%::::::::::>:<<<<<<<<::%:::%%%#@oXRRRRR",
"RRRRRRRRXOO%%%@%%%%%%:%:::<::<::::::<<<:::%:%:%%@##+X.RRRRRR",
"RRRRRRRRRoOO@%%%%::%%%%::%:%:::::*::<:-:%:%%%%%%%@oo RRRRRRR",
"RRRRRRRRRR.oO@@@%%%%:%%%%%:%:%%:::::%%-:::%%%@@@OoXRRRRRRRRR",
"RRRRRRRRRRR .oOO@%%%%%::%%%%%%:%%:%::%%%%%@%#@oo. RRRRRRRRRR",
"RRRRRRRRRRRRR ooO@@%%%%%::%%%:::::%%%%%%%#@Ooo. RRRRRRRRRRRR",
"RRRRRRRRRRRRRRR ..oo@@@%%%%::%%%%%%@%@%+ooo..RRRRRRRRRRRRRRR",
"RRRRRRRRRRRRRRRR o%@ooooO@@@@@@@@@OOOOXXo%:O RRRRRRRRRRRRRRR",
"RRRRRRRRRRRRRRRoo<q<.o++OooooOXoOOO+@%%O <w5+oRRRRRRRRRRRRRR",
"RRRRRRRRRRRRRRRX#0w:.#::<11<::::<11555<%X%yy<ooRRRRRRRRRRRRR",
"RRRRRRRRRRRRRRXO>wq#O<910wwwwwwyywyyyw5<@O5y0%oRRRRRRRRRRRRR",
"RRRRRRRRRRRRRRo%10<o#<090wuuuuuuuuyyyw05%O%00:+oRRRRRRRRRRRR",
"RRRRRRRRRRRRRXo%<1$o:<9900wuuuuuyuyyww01<+@11<%oXRRRRRRRRRRR",
"RRRRRRRRRRRR.@*oo#o@<<190q5qyyyyyyyyyw511@O%:%O++oRRRRRRRRRR",
"RRRRRRRRRRRR+xSj6+o#<1195qq0qwyyyyyww0555%oOo+8hk=XRRRRRRRRR",
"RRRRRRRRRRR.4HTYGpX%119950wwqqqqwwwww0515%OOycHDNdoRRRRRRRRR",
"RRRRRRRRRRR.8DLLLyX:115555000wwwqqqq50511:O3ATUFChORRRRRRRRR",
"RRRRRRRRRRRX;mJKB1o:<<155550000q000055011:O-MPIFCfoRRRRRRRRR",
"RRRRRRRRRRRRosCJn=O:<11515115005900955511:++vJFZb7XRRRRRRRRR",
"RRRRRRRRRRRRoOsvz+@%<1115550505000955551<:#+kZVnioRRRRRRRRRR",
"RRRRRRRRRRRRRoo*;O+::<155555595505109911<:@orgf7OXRRRRRRRRRR",
"RRRRRRRRRRRRRRR.oo@=:<115955559991999911<*#ooooXRRRRRRRRRRRR",
"RRRRRRRRRRRRRRRRRo@%::<115059955950111<<::@oRRRRRRRRRRRRRRRR",
"RRRRRRRRRRRRRRRRRX@%%::<1<111111111111:::%@oRRRRRRRRRRRRRRRR",
"RRRRRRRRRRRRRRRRRo@$:%::::::::::,:::<:::%%+.RRRRRRRRRRRRRRRR",
"RRRRRRRRRRRRRRRRRo+@#=%%%%:%::::*=:%%:=%%@OoRRRRRRRRRRRRRRRR",
"RRRRRRRRRRRRRRRRRoooOooOoOO+++O+++++OOoOooXoRRRRRRRRRRRRRRRR",
"RRRRRRRRRRRRRRRRRRRo++++OOOoXXoXXoO+O+@++oRRRRRRRRRRRRRRRRRR",
"RRRRRRRRRRRRRRRRRRRo#;;;;-;=oRRoO$======@oRRRRRRRRRRRRRRRRRR",
"RRRRRRRRRRRRRRRRRRRX+=--====+XRo+$+=$$$$+oRRRRRRRRRRRRRRRRRR",
"RRRRRRRRRRRRRRRRRRRo+==$=$$=+XRoooooooooooRRRRRRRRRRRRRRRRRR",
"RRRRRRRRRRRRRRRRRRRo+ooooOOoooRRRRRRRRRRRRRRRRRRRRRRRRRRRRRR",
"RRRRRRRRRRRRRRRRRRRRXoooXooooRRRRRRRRRRRRRRRRRRRRRRRRRRRRRRR",
"RRRRRRRRRRRRRRRRRRRRRRRRRRRRRRRRRRRRRRRRRRRRRRRRRRRRRRRRRRRR"
};
