/* XPM */
static xpm_row_t const bomb_xpm_2[] = {
/* columns rows colors chars-per-pixel */
"80 60 160 2 ",
"   c #030203",
".  c #0B0906",
"X  c #0E0B09",
"o  c #120C06",
"O  c #130D0B",
"+  c #180F0D",
"@  c #17100E",
"#  c #1A110F",
"$  c #151211",
"%  c #1D1411",
"&  c #1F1E1C",
"*  c #211613",
"=  c #241915",
"-  c #261C19",
";  c #291E1B",
":  c #25211E",
">  c #2B211E",
",  c #1C1E23",
"<  c #222221",
"1  c #2E2422",
"2  c #2A2826",
"3  c #2A2729",
"4  c #2D2A2B",
"5  c #312724",
"6  c #322926",
"7  c #352D2B",
"8  c #382F2D",
"9  c #36312E",
"0  c #39302E",
"q  c #2E2E30",
"w  c #343232",
"e  c #3C3533",
"r  c #3E3936",
"t  c #3D3B39",
"y  c #403936",
"u  c #433D3B",
"i  c #45403F",
"p  c #393E47",
"a  c #454241",
"s  c #4A4544",
"d  c #4D4847",
"f  c #494548",
"g  c #4D4B4B",
"h  c #524E4D",
"j  c #54504E",
"k  c #484850",
"l  c #4B4D5C",
"z  c #514F52",
"x  c #555353",
"c  c #595656",
"v  c #5A5856",
"b  c #55545D",
"n  c #595758",
"m  c #5C5B5A",
"M  c #615E5D",
"N  c #61605F",
"B  c #5A5962",
"V  c #5A6071",
"C  c #646363",
"Z  c #696666",
"A  c #696967",
"S  c #6D6C6C",
"D  c #706E6E",
"F  c #71706F",
"G  c #757474",
"H  c #797777",
"J  c #7A7977",
"K  c #7B7B7A",
"L  c #BA904F",
"P  c #AC8A51",
"I  c #BB9455",
"U  c #BA985E",
"Y  c #80807F",
"T  c #C29E62",
"R  c #CEA264",
"E  c #C7A56A",
"W  c #D3AE74",
"Q  c #DEB273",
"!  c #DBB67D",
"~  c #E6B87A",
"^  c #E7D873",
"/  c #EEE573",
"(  c #F4F57E",
")  c #FDFD7B",
"_  c #70778E",
"`  c #767C94",
"'  c #797F96",
"]  c #7A8197",
"[  c #7D849C",
"{  c #828282",
"}  c #8C8787",
"|  c #8E8C8C",
" . c #97928A",
".. c #80879F",
"X. c #A69787",
"o. c #A99A8C",
"O. c #A1A09E",
"+. c #A5AB9C",
"@. c #B9BE94",
"#. c #B2B798",
"$. c #848DA6",
"%. c #00b140",
"&. c #8F97A4",
"*. c #999CA3",
"=. c #A39FA6",
"-. c #9CA3A9",
";. c #A4A3A2",
":. c #A8A7A7",
">. c #A1A7A8",
",. c #ADACAB",
"<. c #B5AAA5",
"1. c #BFAFA3",
"2. c #BBB7A6",
"3. c #B1B1B1",
"4. c #DBB782",
"5. c #C6B098",
"6. c #D0B69A",
"7. c #E0BC87",
"8. c #C6B3A4",
"9. c #CDBBA8",
"0. c #BFC4AA",
"q. c #CCCF8C",
"w. c #CED18B",
"e. c #D1D38B",
"r. c #C3C791",
"t. c #D8DB99",
"y. c #E6C18E",
"u. c #FBCB8E",
"i. c #E7C59B",
"p. c #F4CA96",
"a. c #FBCD93",
"s. c #F3CD9D",
"d. c #F9CF99",
"f. c #F5D09F",
"g. c #FBD19B",
"h. c #DEE097",
"j. c #E6E784",
"k. c #ECEE80",
"l. c #EEEF8E",
"z. c #F3E381",
"x. c #F7F880",
"c. c #FBFC84",
"v. c #EBE992",
"b. c #EAED9E",
"n. c #F7ED90",
"m. c #F1E49E",
"M. c #FBFA96",
"N. c #C2C7AA",
"B. c #CACFA8",
"V. c #CCD1A9",
"C. c #D8DAA8",
"Z. c #F6CFA1",
"A. c #F6D1A2",
"S. c #FAD4A3",
"D. c #EAEDA0",
"F. c #FCFDAF",
"G. c #FBFEBC",
"H. c #E3E3E3",
"J. c #FAFEF2",
"K. c #F9FFFD",
/* pixels */
"%.%.%.%.%.%.%.%.%.%.%.%.%.%.%.%.%.%.%.%.%.%.%.%.%.%.%.%.%.%.%.%.%.%.%.%.%.%.%.%.%.%.%.%.%.%.%.%.%.%.%.%.%.%.%.%.%.%.%.%.%.%.%.%.%.%.%.%.%.%.%.%.%.%.%.%.%.%.%.%.",
"%.%.%.%.%.%.%.%.%.%.%.%.%.%.%.%.%.%.%.%.%.%.%.%.%.%.%.%.%.%.%.%.%.%.%.%.%.%.%.%.%.%.%.%.%.%.%.%.%.%.%.%.%.%.%.%.%.%.%.%.%.%.%.%.%.%.%.%.%.%.%.%.%.%.%.%.%.%.%.%.",
"%.%.%.%.%.%.%.%.%.%.%.%.%.%.%.%.%.%.%.%.%.%.%.%.%.%.%.%.%.%.%.%.%.%.%.%.%.%.%.%.%.%.%.%.%.%.%.%.%.%.%.%.%.%.%.%.%.%.%.%.%.%.%.%.%.%.%.%.%.%.%.%.%.%.%.%.%.%.%.%.",
"%.%.%.%.%.%.%.%.%.%.%.%.%.%.%.%.%.%.%.%.%.%.%.%.%.%.%.%.%.%.%.%.%.%.%.%.%.%.[ %.%.%.%.%.%.%.%.%.%.%.%.%.%.%.%.%.%.%.%.%.%.%.%.%.%.%.%.%.%.%.%.%.%.%.%.%.%.%.%.%.",
"%.%.%.%.%.%.%.%.%.%.%.%.%.%.%.%.%.%.%.%.%.%.%.%.%.%.%.%.%.%.%.%.%.%.$.8.g.o.u.a.d.g.d.X.1.%.%.%.%.%.%.%.%.%.%.%.%.%.%.%.%.%.%.%.%.%.%.%.%.%.%.%.%.%.%.%.%.%.%.%.",
"%.%.%.%.%.%.%.%.%.%.%.%.%.%.%.%.%.%.%.%.%.%.%.%.%.%.%.%.%.%.%.%.%.*.u.a.d.^ ~ a.d.d.Q d.f.A.i.%.%.%.%.%.%.%.%.%.%.%.%.%.%.%.%.%.%.%.%.%.%.%.%.%.%.%.%.%.%.%.%.%.",
"%.%.%.%.%.%.%.%.%.%.%.%.%.%.%.%.%.%.%.%.%.%.%.%.%.%.%.%.%.%.%.&.%.u.a.a.a.a.T a.d.g.T g.f.S.S.s.%.%.%.%.%.%.%.%.%.%.%.%.%.%.%.%.%.%.%.%.%.%.%.%.%.%.%.%.%.%.%.%.",
"%.%.%.%.%.%.%.%.%.%.%.%.%.%.%.%.%.%.%.%.%.%.%.%.%.%.%.%.%.%.%.d.Q L a.a.p.%.%.%.$.%.%.8.S.g.s.T =.%.%.%.%.%.%.%.%.%.%.%.%.%.%.%.%.%.%.%.%.%.%.%.%.%.%.%.%.%.%.%.",
"%.%.%.%.%.%.%.%.%.%.%.%.%.%.%.%.%.%.%.%.%.%.%.%.%.%.%.%.%.%.y.u.u.a. .%.%.%.%.%.%.%.%.%.%.A.I s.S.9.%.%.%.%.%.%.%.%.%.%.%.%.%.%.%.%.%.%.%.%.%.%.%.%.%.%.%.%.%.%.",
"%.%.%.%.%.%.%.%.%.%.%.%.%.%.%.%.%.%.%.%.%.%.%.%.%.%.%.%.%.%.a.u.a.a.$.%.%.%.%.%.%.%.%.%.%.%.! S.S.S.%.%.%.%.%.%.%.%.%.%.%.%.%.%.%.%.%.%.%.%.%.%.%.%.%.%.%.%.%.%.",
"%.%.%.%.%.%.%.%.%.%.%.%.%.%.%.%.%.%.%.%.%.%.%.%.%.%.%.%.%.o.u.a.u.%.%.%.%.%.%.%.%.%.%.%.%.%.%.S.S.S.Z.%.%.%.%.%.%.%.%.%.%.%.%.%.%.%.%.%.%.%.%.%.%.%.%.%.%.%.%.%.",
"%.%.%.%.%.%.%.%.%.%.%.%.%.%.%.%.%.%.%.%.%.%.%.%.%.%.%.%.%.4.R I $.%.%.%.%.%.%.%.%.%.%.%.%.%.%.8.S.4.E %.%.%.%.%.%.%.%.%.%.%.%.%.%.%.%.%.%.%.%.%.%.%.%.%.%.%.%.%.",
"%.%.%.%.%.%.%.%.%.%.%.%.%.%.%.%.%.%.%.%.%.%.%.%.%.%.w < o.m.S.S.%.%.%.%.%.%.%.%.%.%.%.%.%.%.%.%.5.W Z.A.%.%.%.%.%.%.%.%.%.$.%.%.%.%.%.%.%.%.%.%.%.%.%.%.%.%.%.%.",
"%.%.%.%.%.%.%.%.%.%.%.%.%.%.%.%.%.%.%.%.%.%.%.%.%.%.4 h ] < < < D V %.%.%.%.%.%.%.%.%.%.%.%.%.%.*.S.S.Z.%.%.%.%.%.+.%.%.%.@.+.%.%.%.%.%.%.%.%.%.%.%.%.%.%.%.%.%.",
"%.%.%.%.%.%.%.%.%.%.%.%.%.%.%.%.%.%.%.%.%.%.%.%.[ g 2 C C < < k h < %.%.%.%.%.%.%.%.%.%.%.%.%.%.%.S.A.Z.Z.%.%.%.%.#.&.%.%.q.e.>.C.%.%.@.%.%.%.%.%.%.%.%.%.%.%.%.",
"%.%.%.%.%.%.%.%.%.%.%.%.%.%.%.%.%.%.%.%.%.%.%.%.%.q 2 ] g < < k k : %.%.%.%.%.%.%.%.%.%.%.%.%.%.%.<.A.A.W N.%.%.>.%.w.t.%.q.b.%.%.%.w.%.%.%.%.%.%.%.%.%.%.%.%.%.",
"%.%.%.%.%.%.%.%.%.%.%.%.%.%.%.%.%.%.$.k           4 : G < < < x q , %.%.%.%.%.%.%.%.%.%.%.%.%.%.%.%.7.U y.+.$.%.j.B.r.c.t.) b.$.w.q.*.%.%.%.%.%.%.%.%.%.%.%.%.%.",
"%.%.%.%.%.%.%.%.%.%.%.%.%.%.%.`         X K { { Y ] { | q 4 < g < ] %.%.%.%.%.%.%.%.%.%.%.%.%.%.%.%.%.Z.s.s.1.q.w.k.x.) ) ) l.( ) %.%.0.%.%.%.%.%.%.%.%.%.%.%.%.",
"%.%.%.%.%.%.%.%.%.%.%.$.%.,   . S { { ` ] Y K K K K K K G G G J p   , %.%.%.%.%.%.%.%.%.%.%.%.%.%.%.%.Z.f.s.s.P %.h.) J.K.G.c.b.D.%.%.%.%.%.%.%.%.%.%.%.%.%.%.%.",
"%.%.%.%.%.%.%.%.%.%.%.l . a K K J J H H G G H H G F F F F F F S S A w   p %.%.%.%.%.%.%.%.%.%.%.%.%.%.%.s.V.B.V.) ) K.K.K.K.) j.e.q.w.%.%.%.%.%.%.%.%.%.%.%.%.%.",
"%.%.%.%.%.%.%.%.$.%.. & H G  .3.3. .F D S F D D S A A A A A C C C C N N .   %.%.%.%.%.%.%.%.%.%.%.%.%.%.%.i.+.s.e.v.) F.) ) ( M.c.q.e.w.e.%.%.%.%.%.%.%.%.%.%.%.",
"%.%.%.%.%.%.%.%.$.X D D D :.H.H.,.Y N N N N N N N N N m m m m m m v m n v p   [ %.%.%.%.%.%.%.%.%.%.%.%.%.%.-.w.q.n.) M.M.) e.D.V.e.@.%.%.%.%.%.%.%.%.%.%.%.%.%.",
"%.%.%.%.%.%.%.[ # Z Z Z ;.H.H.H.+.M N M M M N v v v v v n n x j j j z g k g a   _ %.%.%.%.%.%.%.%.%.%.%.%.%.%.6.i.m.) z.v.) e.w.%.V.%.%.%.%.%.%.%.%.%.%.%.%.%.%.",
"%.%.%.%.%.%.[ O M M M | H.H.H.+.M v c c j c x j j j g g g g g g d d f f f a a a   [ %.%.%.%.%.%.%.%.%.%.%.%.%.%.%.%./ ^ e.%.%.w.%.%.2.%.%.%.%.%.%.%.%.%.%.%.%.%.",
"%.%.%.%.%.%.O v v c c O.H.H.O.v h h h h h g d d d d s s s a a a i i i u u t t t t   %.%.%.%.%.%.%.%.%.%.%.%.%.%.%.%.%./ :.%.-.%.e.%.N.%.%.%.%.%.%.%.%.%.%.%.%.%.",
"%.%.%.%.$.@ j j h h d J } D i d i d s i s i i i i u i t u t e t t w e w w w w w 7 < . %.%.%.%.%.%.%.%.%.%.%.%.%.%.%.%.%.%.%.%.%.%.%.%.%.%.%.%.%.%.%.%.%.%.%.%.%.",
"%.%.%.%.@ 0 d d i i i i i i i i i u u u y r r r e e w e w 9 9 9 q 9 4 4 4 4 2 2 3 2 . $ %.%.%.%.%.%.%.%.%.%.%.%.%.%.%.%.%.%.%.-.%.%.%.%.%.%.%.%.%.%.%.%.%.%.%.%.",
"%.%.%.%.# i i i i i i i y r r r e e r 0 9 9 9 9 9 9 $ $ O o O X X @ @ @ : : : : < - , X %.%.%.%.%.%.%.%.%.%.%.%.%.%.%.%.%.%.$.$.%.%.%.%.%.%.%.%.%.%.%.%.%.%.%.%.",
"%.%.%.% y r y e y y e 0 0 0 0 9 9 7 4 6 6 : @ O X @ O O o o o X o X o X O X X o + % $ $ X %.%.%.%.%.%.%.%.%.%.%.%.%.%.%.%.%.%.%.%.%.%.%.%.%.%.%.%.%.%.%.%.%.%.%.",
"%.%.%.$ 0 8 0 7 7 7 7 6 7 6 6 > 5 > - @ O @ O @ @ O O O @ o O o o O O X O X X X X X O X o $.%.%.%.%.%.%.%.%.%.%.%.%.%.%.%.%.%.%.%.%.%.%.%.%.%.%.%.%.%.%.%.%.%.%.",
"%.%.7 ; 6 6 5 1 5 > 1 > > > : : # # # @ @ @ @ O @ o @ @ @ @ O O O O o O o o @ X O X X X o , %.%.%.%.%.%.%.%.%.%.%.%.%.%.%.%.%.%.%.%.%.%.%.%.%.%.%.%.%.%.%.%.%.%.",
"%.%.% 1 1 > > ; > = > = = & # # # # # # # # @ # @ @ @ @ @ O @ O + + O @ @ O @ O O O O O O o %.%.%.%.%.%.%.%.%.%.%.%.%.%.%.%.%.%.%.%.%.%.%.%.%.%.%.%.%.%.%.%.%.%.",
"%.%.* = = * = * * * * % * + * + # + * # # # # # % # + + + + + + @ O + + O O @ @ + O O O O o %.%.%.%.%.%.%.%.%.%.%.%.%.%.%.%.%.%.%.%.%.%.%.%.%.%.%.%.%.%.%.%.%.%.",
"%.%.* * * * * * % % * * * * % % * * # # * % # + % # % # + % + + # @ + + @ + @ O O O O O O @ %.%.%.%.%.%.%.%.%.%.%.%.%.%.%.%.%.%.%.%.%.%.%.%.%.%.%.%.%.%.%.%.%.%.",
"%.5 = = = = * * * * * * * * * * * # % * % # # * # # # % % % * + $ % + + # # O @ + + O O @ O 2 %.%.%.%.%.%.%.%.%.%.%.%.%.%.%.%.%.%.%.%.%.%.%.%.%.%.%.%.%.%.%.%.%.",
"%.- = = = = = = * * * * * * * * * * * % * % * * % % % + % % + % % + # % # # # # % + + + @ @ 3 %.%.%.%.%.%.%.%.%.%.%.%.%.%.%.%.%.%.%.%.%.%.%.%.%.%.%.%.%.%.%.%.%.",
"%.; ; = = - = = = = = = = * * * * * * * * * * % % % % * + * # + # # * # # $ # # # $ % + # + 4 %.%.%.%.%.%.%.%.%.%.%.%.%.%.%.%.%.%.%.%.%.%.%.%.%.%.%.%.%.%.%.%.%.",
"%.; ; ; ; - ; - - = = = = = = = * * = = * * * * * * % * * * * * * % % # % # # * + % % % # # 4 %.%.%.%.%.%.%.%.%.%.%.%.%.%.%.%.%.%.%.%.%.%.%.%.%.%.%.%.%.%.%.%.%.",
"%.> > ; > ; ; ; ; - ; - = - = = = = = = = = = * * = = % * * * * * * # * * # * # % % % + % % 6 %.%.%.%.%.%.%.%.%.%.%.%.%.%.%.%.%.%.%.%.%.%.%.%.%.%.%.%.%.%.%.%.%.",
"%.> > > > > ; > ; ; ; ; - ; ; ; ; ; = = = = = = = * = = * * * * * * * * * * * * % * % % % % 4 %.%.%.%.%.%.%.%.%.%.%.%.%.%.%.%.%.%.%.%.%.%.%.%.%.%.%.%.%.%.%.%.%.",
"%.%.1 1 1 > > > > > > > > ; > ; ; ; ; = ; = = ; = = = = = = = = * * * = * * * * * * % * * % $.%.%.%.%.%.%.%.%.%.%.%.%.%.%.%.%.%.%.%.%.%.%.%.%.%.%.%.%.%.%.%.%.%.",
"%.%.5 6 5 5 1 5 1 1 1 > > > > > ; ; > ; ; ; ; ; ; = = ; = = = = = = * = = = * * * * * * * * $.%.%.%.%.%.%.%.%.%.%.%.%.%.%.%.%.%.%.%.%.%.%.%.%.%.%.%.%.%.%.%.%.%.",
"%.%.6 6 7 6 5 5 1 1 1 1 1 1 1 > > > > > ; > ; ; ; ; ; ; ; = = ; = = = = = = = = = * * * * * $.%.%.%.%.%.%.%.%.%.%.%.%.%.%.%.%.%.%.%.%.%.%.%.%.%.%.%.%.%.%.%.%.%.",
"%.%.6 8 8 7 7 7 7 5 5 5 1 1 1 1 5 > 1 > > > > > > > ; > ; ; ; ; - - - - - = = = = = = = = = %.%.%.%.%.%.%.%.%.%.%.%.%.%.%.%.%.%.%.%.%.%.%.%.%.%.%.%.%.%.%.%.%.%.",
"%.%.%.7 y e 7 8 8 8 8 6 6 5 6 1 5 1 1 > 5 1 1 > > > > > > > > ; > ; ; ; ; ; - = = - = u = $.%.%.%.%.%.%.%.%.%.%.%.%.%.%.%.%.%.%.%.%.%.%.%.%.%.%.%.%.%.%.%.%.%.%.",
"%.%.%.7 y e y y e 8 e 8 8 8 8 6 6 5 5 1 5 5 5 1 1 > > > > > 1 1 > 1 > ; ; ; > ; - - y = - $.%.%.%.%.%.%.%.%.%.%.%.%.%.%.%.%.%.%.%.%.%.%.%.%.%.%.%.%.%.%.%.%.%.%.",
"%.%.%.$.8 y y y y y y 8 y y 8 8 y 8 8 8 8 6 8 8 5 5 5 5 5 6 5 5 5 1 1 5 1 > 1 > > 6 y > [ %.%.%.%.%.%.%.%.%.%.%.%.%.%.%.%.%.%.%.%.%.%.%.%.%.%.%.%.%.%.%.%.%.%.%.",
"%.%.%.%.e y u y y y y y y y y y 8 y y 8 y 8 y 8 y 5 y y 7 8 6 6 7 7 5 5 5 5 5 1 8 i 1 > %.%.%.%.%.%.%.%.%.%.%.%.%.%.%.%.%.%.%.%.%.%.%.%.%.%.%.%.%.%.%.%.%.%.%.%.",
"%.%.%.%.%.e i u z u u u u u y u u y y y y y y y y 8 8 8 6 8 8 7 8 8 8 7 7 7 6 u f 6 1 %.%.%.%.%.%.%.%.%.%.%.%.%.%.%.%.%.%.%.%.%.%.%.%.%.%.%.%.%.%.%.%.%.%.%.%.%.",
"%.%.%.%.%.' e f a z u i i u u u u u y u y y y y y y y y y y y 8 8 0 8 8 8 9 d f 0 5 ` %.%.%.%.%.%.%.%.%.%.%.%.%.%.%.%.%.%.%.%.%.%.%.%.%.%.%.%.%.%.%.%.%.%.%.%.%.",
"%.%.%.%.%.%.B r s f x h s s s i i i i u u u u u u y y y y y y y e y e e u d d t 7 B %.%.%.%.%.%.%.%.%.%.%.%.%.%.%.%.%.%.%.%.%.%.%.%.%.%.%.%.%.%.%.%.%.%.%.%.%.%.",
"%.%.%.%.%.%.%.y u g d h x s s s a d i i u u u u u y u u u y y u y y t g g g a e e %.%.%.%.%.%.%.%.%.%.%.%.%.%.%.%.%.%.%.%.%.%.%.%.%.%.%.%.%.%.%.%.%.%.%.%.%.%.%.",
"%.%.%.%.%.%.%.%.b i h d d c x z d d d d s a i a s u i u i i u u s h h z g u e x %.%.%.%.%.%.%.%.%.%.%.%.%.%.%.%.%.%.%.%.%.%.%.%.%.%.%.%.%.%.%.%.%.%.%.%.%.%.%.%.",
"%.%.%.%.%.%.%.%.%.$.u h h h h c c c h d d d d f s s s s s d x x z z h d i 7 [ %.%.%.%.%.%.%.%.%.%.%.%.%.%.%.%.%.%.%.%.%.%.%.%.%.%.%.%.%.%.%.%.%.%.%.%.%.%.%.%.%.",
"%.%.%.%.%.%.%.%.%.%.%.u s z h h h v n n n n n c M x x c x x x x x h a a e %.%.%.%.%.%.%.%.%.%.%.%.%.%.%.%.%.%.%.%.%.%.%.%.%.%.%.%.%.%.%.%.%.%.%.%.%.%.%.%.%.%.%.",
"%.%.%.%.%.%.%.%.%.%.%.%.[ i f x x x x h x v c n c c c c c z h d d i e ..%.%.%.%.%.%.%.%.%.%.%.%.%.%.%.%.%.%.%.%.%.%.%.%.%.%.%.%.%.%.%.%.%.%.%.%.%.%.%.%.%.%.%.%.",
"%.%.%.%.%.%.%.%.%.%.%.%.%.%.%.s i d z x x x x x z z h z h g g y u %.%.%.%.%.%.%.%.%.%.%.%.%.%.%.%.%.%.%.%.%.%.%.%.%.%.%.%.%.%.%.%.%.%.%.%.%.%.%.%.%.%.%.%.%.%.%.",
"%.%.%.%.%.%.%.%.%.%.%.%.%.%.%.%.%.' g a a u i u u u u u u f ' %.%.%.%.%.%.%.%.%.%.%.%.%.%.%.%.%.%.%.%.%.%.%.%.%.%.%.%.%.%.%.%.%.%.%.%.%.%.%.%.%.%.%.%.%.%.%.%.%.",
"%.%.%.%.%.%.%.%.%.%.%.%.%.%.%.%.%.%.%.%.%.%.%.%.%.%.%.%.%.%.%.%.%.%.%.%.%.%.%.%.%.%.%.%.%.%.%.%.%.%.%.%.%.%.%.%.%.%.%.%.%.%.%.%.%.%.%.%.%.%.%.%.%.%.%.%.%.%.%.%.",
"%.%.%.%.%.%.%.%.%.%.%.%.%.%.%.%.%.%.%.%.%.%.%.%.%.%.%.%.%.%.%.%.%.%.%.%.%.%.%.%.%.%.%.%.%.%.%.%.%.%.%.%.%.%.%.%.%.%.%.%.%.%.%.%.%.%.%.%.%.%.%.%.%.%.%.%.%.%.%.%."
};
