/* XPM */
static xpm_row_t const bomb_xpm_1[] = {
/* columns rows colors chars-per-pixel */
"60 60 157 2 ",
"   c #040201",
".  c #0C0503",
"X  c #0F0805",
"o  c #0D0B0B",
"O  c #100705",
"+  c #130A06",
"@  c #160C08",
"#  c #190E0A",
"$  c #16110F",
"%  c #1C110D",
"&  c #141011",
"*  c #1E1513",
"=  c #1B1B1B",
"-  c #20130E",
";  c #211612",
":  c #241915",
">  c #261C19",
",  c #291F1C",
"<  c #24211F",
"1  c #2A211E",
"2  c #232222",
"3  c #2C2422",
"4  c #2D2926",
"5  c #2A2429",
"6  c #2C2B2A",
"7  c #302724",
"8  c #322926",
"9  c #342D2A",
"0  c #382F2D",
"q  c #36312E",
"w  c #39312E",
"e  c #2E2E30",
"r  c #363331",
"t  c #3B3533",
"y  c #3D3836",
"u  c #3B353B",
"i  c #3F3B3A",
"p  c #403736",
"a  c #403937",
"s  c #423D3C",
"d  c #45413E",
"f  c #363945",
"g  c #433F40",
"h  c #454242",
"j  c #494444",
"k  c #4D4946",
"l  c #4A4748",
"z  c #4D4B4A",
"x  c #514D4D",
"c  c #53514F",
"v  c #4E4C58",
"b  c #534F50",
"n  c #555353",
"m  c #585554",
"M  c #5A5957",
"N  c #575558",
"B  c #595758",
"V  c #5D5C5B",
"C  c #605D5A",
"Z  c #62615F",
"A  c #515261",
"S  c #5B5C6B",
"D  c #5B5F72",
"F  c #656363",
"G  c #696664",
"H  c #6D6967",
"J  c #696768",
"K  c #6C6C6B",
"L  c #716D6C",
"P  c #72706E",
"I  c #6A6C7E",
"U  c #716F70",
"Y  c #747473",
"T  c #797574",
"R  c #797876",
"E  c #7C7C7B",
"W  c #817F7F",
"Q  c #BA964A",
"!  c #C49F55",
"~  c #C2A667",
"^  c #D1AC62",
"/  c #D6B16A",
"(  c #DCB670",
")  c #D4D37A",
"_  c #F7FA6E",
"`  c #FAFE6C",
"'  c #E2E977",
"]  c #E8EC76",
"[  c #F0E77C",
"{  c #F2F670",
"}  c #FAFF76",
"|  c #FAFE7A",
" . c #6E7185",
".. c #71768D",
"X. c #787E98",
"o. c #7D839D",
"O. c #7F85A0",
"+. c #838282",
"@. c #929291",
"#. c #A09D9C",
"$. c #A1A79E",
"%. c #A3A99D",
"&. c #ACB298",
"*. c #B0B795",
"=. c #B4B994",
"-. c #8187A2",
";. c #838AA6",
":. c #878EAB",
">. c #00b140",
",. c #8F96A7",
"<. c #8790AB",
"1. c #8C93AA",
"2. c #9197A7",
"3. c #969DA4",
"4. c #989FA2",
"5. c #9299AB",
"6. c #9CA2A5",
"7. c #A6A4A2",
"8. c #A8A7A6",
"9. c #A9B0A9",
"0. c #B1B7A4",
"q. c #B2B1AF",
"w. c #B4B9A9",
"e. c #B4B9A9",
"r. c #BDC38F",
"t. c #BEC4A7",
"y. c #C9CE87",
"u. c #C6CB8A",
"i. c #CED286",
"p. c #D1D584",
"a. c #D5DB81",
"s. c #D0D688",
"d. c #DADF8E",
"f. c #EEC683",
"g. c #F5CD8A",
"h. c #E7DC8F",
"j. c #E3C592",
"k. c #E0E58D",
"l. c #EAEE88",
"z. c #F0F585",
"x. c #FAFE85",
"c. c #E2E797",
"v. c #EAEE97",
"b. c #E6EB9A",
"n. c #EDF092",
"m. c #F7F494",
"M. c #FAFE97",
"N. c #C8CEA7",
"B. c #CCD2A7",
"V. c #CDD2A8",
"C. c #D4DAA7",
"Z. c #F6D6A3",
"A. c #FAFEA6",
"S. c #FAFEC4",
"D. c #E4E4E4",
"F. c #FBFEEA",
"G. c #FAFEFC",
/* pixels */
">.>.>.>.>.>.>.>.>.>.>.>.>.>.>.>.>.>.>.>.>.>.>.>.>.>.>.>.>.>.>.>.>.>.>.>.>.>.>.>.>.>.>.>.>.>.>.>.>.>.>.>.>.>.>.>.>.>.>.>.",
">.>.>.>.>.>.>.>.>.>.>.>.>.>.>.>.>.>.>.>.>.>.>.>.>.>.>.>.>.>.>.>.>.>.>.>.>.>.>.>.>.>.>.>.>.>.>.>.>.>.>.>.>.>.>.>.>.>.>.>.",
">.>.>.>.>.>.>.>.>.>.>.>.>.>.>.>.>.>.>.>.>.>.>.>.>.>.>.>.>.>.>.>.>.>.>.>.>.>.>.>.>.>.>.>.>.>.>.>.>.>.>.>.>.>.>.>.>.>.>.>.",
">.>.>.>.>.>.>.>.>.>.>.>.>.>.>.>.>.>.>.>.>.>.>.>.>.>.>.>.>.>.>.>.>.>.>.>.&.>.,.1.>.>.,.>.>.>.>.>.>.>.>.>.>.>.>.>.>.>.>.>.",
">.>.>.>.>.>.>.>.>.>.>.>.>.>.>.>.>.>.>.>.>.>.>.>.>.>.>.>.>.>.>.>.>.>.>.>.>.4.>.>.>.>.u.>.>.>.9.>.>.>.>.3.>.>.>.>.>.>.>.>.",
">.>.>.>.>.>.>.>.>.>.>.>.>.>.>.>.>.>.>.>.>.>.>.>.>.>.>.>.>.>.>.>.>.>.>.>.>.1.2.<.>.>.i.$.w.C.>.>.>.&.>.>.>.>.>.>.>.>.>.>.",
">.>.>.>.>.>.>.>.>.>.>.>.>.>.>.>.>.>.>.>.>.>.>.>.>.>.>.>.>.>.>.>.>.>.>.>.,.>.y.] w.>.p.0.>.>.>.$.u.>.>.>.>.>.>.>.>.>.>.>.",
">.>.>.>.>.>.>.>.>.>.>.>.>.>.>.>.>.>.>.>.>.>.>.>.>.>.>.>.>.>.>.>.2.>.>.>.a.B.>.i.l.u.` b.>.=.i.,.&.>.>.>.>.>.>.>.>.>.>.>.",
">.>.>.>.>.>.>.>.>.>.>.>.>.>.>.>.>.>.>.>.>.>.>.>.>.>.>.>.>.>.>.>.>.>.>.i.i.5.` c.A.` ` s.p.` 6.>.:.,.>.>.>.>.>.>.>.>.>.>.",
">.>.>.>.>.>.>.>.>.>.>.>.>.>.>.>.>.>.>.>.>.>.>.>.>.>.>.>.>.>.>.>.>.>.>.>.>.r.d.| x.G.} x.n.b.5.>.>.>.>.>.>.>.>.>.>.>.>.>.",
">.>.>.>.>.>.>.>.>.>.>.>.>.>.>.>.>.>.>.>.>.>.>.>.>.>.>.>.>.>.>.>.6.t.V.V.k._ x.G.G.G.F.` ) s.p.y.>.>.>.>.>.>.>.>.>.>.>.>.",
">.>.>.>.>.>.>.>.>.>.>.>.>.>.>.>.>.>.>.>.>.>.>.>.>.>.>.>.>.>.>.>.>.' >.>.3.i.m.` S.M.` z.| ` i.i.i.i.i.>.>.>.>.>.>.>.>.>.",
">.>.>.>.>.>.>.>.>.>.>.>.>.>.>.>.>.>.>.>.>.>.>.>.>.>.>.>.>.>.>.>.>.>.>.i.p.i.m.` [ n._ i.b.V.3.{ <.>.>.>.>.>.>.>.>.>.>.>.",
">.>.>.>.>.>.>.>.>.>.>.>.>.>.>.>.>.>.>.>.>.>.>.>.>.>.>.>.>.>.>.>.>.i.=.1.>.>.h._ [ v._ y.s.>.N.>.>.1.>.>.>.>.>.>.>.>.>.>.",
">.>.>.>.>.>.>.>.>.>.>.>.>.>.>.>.>.>.>.>.>.>.>.>.>.>.>.>.>.>.>.%.>.>.>.:.>.! f.~ ) 1.>.>.*.<.>.>.>.>.>.>.>.>.>.>.>.>.>.>.",
">.>.>.>.>.>.>.>.>.>.>.>.>.>.>.>.>.>.>.>.>.>.>.>.>.>.>.>.>.>.>.>.>.>.>.:.g.g.^ ( >.>.>.>.>.>.>.>.>.>.>.>.>.>.>.>.>.>.>.>.",
">.>.>.>.>.>.>.>.>.>.>.>.>.>.>.>.>.>.>.>.>.>.>.>.>.>.>.>.>.>.>.>.>.>.<.g.g.g.g.>.>.>.>.>.>.>.>.>.>.>.>.>.>.>.>.>.>.>.>.>.",
">.>.>.>.>.>.>.>.>.>.>.>.>.>.>.>.>.>.>.>.>.>.>.>.>.>.>.>.>.>.>.>.>.>.>.g.g.g.j.>.>.>.>.>.>.>.>.>.>.>.>.>.>.>.>.>.>.>.>.>.",
">.>.>.>.>.>.>.>.>.>.>.>.>.>.>.>.>.>.>.>.>.>.>.>.>.>.>.>.>.>.>.>.<.>.j.! Q / >.>.>.>.>.>.>.>.>.>.>.>.>.>.>.>.>.>.>.>.>.>.",
">.>.>.>.>.>.>.>.>.>.>.>.>.>.>.>.>.>.>.>.>.>.>.>.>.>.>.>.>.>.>.e 2 +.=.b.Z.<.>.>.>.>.>.>.>.>.>.>.>.>.>.>.>.>.>.>.>.>.>.>.",
">.>.>.>.>.>.>.>.>.>.>.>.>.>.>.>.>.>.>.>.>.>.>.>.>.>.>.>.>.>.>.5 = @.= = = N r 5.>.>.>.>.>.>.>.>.>.>.>.>.>.>.>.>.>.>.>.>.",
">.>.>.>.>.>.>.>.>.>.>.>.>.>.>.>.>.>.>.>.>.>.>.>.>.>.>.>.>.>...2 V K = = = K = O.>.>.>.>.>.>.>.>.>.>.>.>.>.>.>.>.>.>.>.>.",
">.>.>.>.>.>.>.>.>.>.>.>.>.>.>.>.>.>.>.>.>.>.>.>.>.>.>.<.<.O.6 2 Y V = = z z = O.>.>.>.>.>.>.>.>.>.>.>.>.>.>.>.>.>.>.>.>.",
">.>.>.>.>.>.>.>.>.>.>.>.>.>.>.>.>.>.>.>.>.O.                2 2 z = = = c f 2 O.>.>.>.>.>.>.>.>.>.>.>.>.>.>.>.>.>.>.>.>.",
">.>.>.>.>.>.>.>.>.>.>.>.>.>.>.>.<.<.;.      d o.o.Q o.Q ..E +.E E E E o.V = o o.>.>.>.>.>.>.>.>.>.>.>.>.>.>.>.>.>.>.>.>.",
">.>.>.>.>.>.>.>.>.>.>.>.>.>.>.>.D     W E E R E  . .R R  .I Y Y Y Y Y K P K K e   f >.>.>.>.>.>.>.>.>.>.>.>.>.>.>.>.>.>.",
">.>.>.>.>.>.>.>.>.>.>.>.>.>.;.  r Y R @.w.8.W U I I K K K K K J K J F F F F F Z S <   O.>.>.>.>.>.>.>.>.>.>.>.>.>.>.>.>.",
">.>.>.>.>.>.>.>.>.>.>.>.>.# . L K R e.D.D.9.P J Z Z F F Z Z Z Z V Z V V V M M M B n n     >.<.<.>.>.>.>.>.>.>.>.>.>.>.>.",
">.>.>.>.>.>.>.>.>.>.>.>.. C G G E t.D.D.D. .A V C C M M M M M c n c c c c x x c z z z l =   <.<.>.>.>.>.>.>.>.>.>.>.>.>.",
">.>.>.>.>.>.>.>.>.>.>.. C C C C 7.D.D.D.~ n v c c c c c c z c z z z z k h j h d d h g g i y   <.>.>.>.>.>.>.>.>.>.>.>.>.",
">.>.>.>.>.>.>.>.>.>.O m b b b T #.q.3.J z z k k k j j d h d g s d s s i i i y y i r r r r e 6   >.>.>.>.>.>.>.>.>.>.>.>.",
">.>.>.>.>.>.>.>.>.O k k k k j k H m j g d d d d i i i i i y i r r r r r r e e e 6 9 6 6 4 6 5 =   >.>.>.>.>.>.>.>.>.>.>.",
">.>.>.>.>.>.>.>.5 3 s d d d s s a i y y y w t t w w q q 9 q 4 8 9 3 3 2 3 < < 3 3 < 1 < > < > =     >.>.>.>.>.>.>.>.>.>.",
">.>.>.>.>.>.>.>.+ a p t w t w w w q q q 9 9 6 6 6 4 4 @ . . .     . . .                   & $ $ @   O.<.>.>.>.>.>.>.>.>.",
">.>.>.>.>.>.>.+ 8 0 9 9 8 8 8 8 4 3 3 1 1 1 1 * X X . . . . . . .     . . .       .     .       .     >.>.>.>.>.>.>.>.>.",
">.>.>.>.>.>.:.# 3 3 3 1 1 1 1 > > > > : * X X + X X X X X . X X X . X X . . O . . .   . .   .     .   >.>.>.>.>.>.>.>.>.",
">.>.>.>.>.>.u % : : ; : ; % * % - % # + + + O + O O + X O O X X X . X . . . . . . . . . . . .     . . O >.>.>.>.>.>.>.>.",
">.>.>.>.>.>.# % % $ % # # # # $ @ @ + + @ + @ @ + + + + + + O + + X X X . + O . . . . . . . . . X     . >.>.>.>.>.>.>.>.",
">.>.>.>.>.>.% # % # # # # # # # # # # # # @ @ @ @ @ + + + + + + + + + + + O + X + . . O O . O . X . . X >.>.>.>.>.>.>.>.",
">.>.>.>.>.>.* % % % % - # $ % # # # # # # @ # # # @ @ # @ @ @ @ + + + + + + + + O + + + O O O O O . . . O.>.>.>.>.>.>.>.",
">.>.>.>.>.>.- - - % % % - % # % # - # # % # $ # # # # # @ # # @ @ @ @ @ @ + + + + + + + + + + O O O O O A >.>.>.>.>.>.>.",
">.>.>.>.>.>.: : ; ; ; ; ; - % - - # - % % % % % % % # # # @ # # # # # # @ + # @ # + + + + @ + + @ O + O v >.>.>.>.>.>.>.",
">.>.>.>.>.>.: : : : : : ; ; ; ; - - - - % % % % % % # % % # $ % # # # # # @ # # # + # + @ @ @ @ O @ @ O D >.>.>.>.>.>.>.",
">.>.>.>.>.>.> > : > : : : : : : : : ; ; - - ; - - % % - % - % % % % # - # # $ # # # # # # @ # @ @ @ @ @ -.>.>.>.>.>.>.>.",
">.>.>.>.>.>., , , , > > > > > > > > : : : : : : ; ; ; ; - - - % % % - % % % % % % # # $ # # # # # # # @ >.>.>.>.>.>.>.>.",
">.>.>.>.>.>.1 7 7 3 , > 1 , > > > , > : : : : > : ; ; : : - ; - - - - % % % % % % % % % # % # # # # # # >.>.>.>.>.>.>.>.",
">.>.>.>.>.>. .3 8 7 7 7 3 , 1 1 , , , , > > > > > > > : > : : : ; : - ; - ; - - - - % - % % - % % # % 1 >.>.>.>.>.>.>.>.",
">.>.>.>.>.>.>.3 9 9 9 9 8 8 7 7 , 7 1 1 1 , , 1 , > > > > > > > : : : : : : ; ; - - ; - - % - % % 8 % >.>.>.>.>.>.>.>.>.",
">.>.>.>.>.>.>.g 8 0 0 0 q 9 q 9 9 9 1 3 3 1 3 1 1 1 1 > 1 > > > 1 1 1 : : 1 : : : : : - : - ; ; t ; % >.>.>.>.>.>.>.>.>.",
">.>.>.>.>.>.>.>.9 t t t t t w w w 0 w w 9 9 9 9 7 7 1 7 3 7 7 1 1 1 1 1 1 1 1 1 , > > > > > > t : : >.>.>.>.>.>.>.>.>.>.",
">.>.>.>.>.>.>.>.-.0 u s t y t y t t w w w w w w 0 9 w 9 9 9 8 8 8 8 8 7 7 7 3 3 1 7 , , , , s s : b >.>.>.>.>.>.>.>.>.>.",
">.>.>.>.>.>.>.>.>.t t s s s a a a a a a y t t t p w w w w 0 w w 9 9 9 9 8 8 8 7 7 7 8 7 7 j j 7 > >.>.>.>.>.>.>.>.>.>.>.",
">.>.>.>.>.>.>.>.>.>.t s g g b s d s s s s s a a a p t y t t t t w w 0 0 p 0 9 9 9 9 9 g l j 8 , >.>.>.>.>.>.>.>.>.>.>.>.",
">.>.>.>.>.>.>.>.>.>.>.t h j j n m d g s d s s s s s s a a a p t a p t p w w w p t s z z l 9 3 >.>.>.>.>.>.>.>.>.>.>.>.>.",
">.>.>.>.>.>.>.>.>.>.>.>.s s k k k b n h j d h d d d d s s d d s d a a a a a p d x z z a w 8 >.>.>.>.>.>.>.>.>.>.>.>.>.>.",
">.>.>.>.>.>.>.>.>.>.>.>.>.X.u x x x z m m n k k j j j j h d d d d d s d x c c c b x u 9  .>.>.>.>.>.>.>.>.>.>.>.>.>.>.>.",
">.>.>.>.>.>.>.>.>.>.>.>.>.>.>.g s x x x z N N N N N c k j k k k c c m c n n x x s s 0 >.>.>.>.>.>.>.>.>.>.>.>.>.>.>.>.>.",
">.>.>.>.>.>.>.>.>.>.>.>.>.>.>.>.:.s s b b b b x n N m m N N N n c m n m k j h h t ;.>.>.>.>.>.>.>.>.>.>.>.>.>.>.>.>.>.>.",
">.>.>.>.>.>.>.>.>.>.>.>.>.>.>.>.>.>.>.I s s z n n n c c b x x x x x k x d t S <.>.>.>.>.>.>.>.>.>.>.>.>.>.>.>.>.>.>.>.>.",
">.>.>.>.>.>.>.>.>.>.>.>.>.>.>.>.>.>.>.>.>.>.>.l s s d s s s i i y i d :.>.>.>.<.>.>.>.>.>.>.>.>.>.>.>.>.>.>.>.>.>.>.>.>."
};
