/* XPM */
static xpm_row_t const bomb_xpm_8[] = {
/* columns rows colors chars-per-pixel */
"80 60 133 2 ",
"   c #030203",
".  c #0B0906",
"X  c #0E0B09",
"o  c #120C06",
"O  c #130D0B",
"+  c #180F0D",
"@  c #17100E",
"#  c #1A110F",
"$  c #151211",
"%  c #1D1411",
"&  c #1F1E1C",
"*  c #211613",
"=  c #241915",
"-  c #261C19",
";  c #291E1B",
":  c #25211E",
">  c #2B211E",
",  c #1C1E23",
"<  c #222221",
"1  c #2E2422",
"2  c #2A2826",
"3  c #2A2729",
"4  c #2D2A2B",
"5  c #312724",
"6  c #322926",
"7  c #352D2B",
"8  c #382F2D",
"9  c #36312E",
"0  c #39302E",
"q  c #2E2E30",
"w  c #343232",
"e  c #3C3533",
"r  c #3E3936",
"t  c #3D3B39",
"y  c #403936",
"u  c #433D3B",
"i  c #45403F",
"p  c #393E47",
"a  c #454241",
"s  c #4A4544",
"d  c #4D4847",
"f  c #494548",
"g  c #4D4B4B",
"h  c #524E4D",
"j  c #54504E",
"k  c #404350",
"l  c #484850",
"z  c #4B4D5C",
"x  c #514F52",
"c  c #555353",
"v  c #595656",
"b  c #5A5856",
"n  c #55545D",
"m  c #595758",
"M  c #5C5B5A",
"N  c #615E5D",
"B  c #61605F",
"V  c #5A5962",
"C  c #5A6071",
"Z  c #646363",
"A  c #696666",
"S  c #696967",
"D  c #6D6C6C",
"F  c #706E6E",
"G  c #71706F",
"H  c #757474",
"J  c #797777",
"K  c #7A7977",
"L  c #7B7B7A",
"P  c #BE9453",
"I  c #80807F",
"U  c #CFA162",
"Y  c #E7D873",
"T  c #EEE573",
"R  c #F4F57E",
"E  c #FDFD7B",
"W  c #767C94",
"Q  c #797F96",
"!  c #7A8197",
"~  c #7D849C",
"^  c #828282",
"/  c #8C8787",
"(  c #8E8C8C",
")  c #92918F",
"_  c #80879F",
"`  c #A99A8C",
"'  c #9AA19F",
"]  c #A1A09E",
"[  c #A5AB9C",
"{  c #B9BE94",
"}  c #B2B798",
"|  c #848CA5",
" . c #00b140",
".. c #8F97A4",
"X. c #9CA3A9",
"o. c #A8A7A7",
"O. c #ADACAB",
"+. c #B9BDA9",
"@. c #B1B1B1",
"#. c #DDBA83",
"$. c #BFC4AA",
"%. c #CCCF8C",
"&. c #CED18B",
"*. c #D1D38B",
"=. c #C3C791",
"-. c #D6DA9F",
";. c #FBCB8E",
":. c #FBCC91",
">. c #DEE097",
",. c #E6E784",
"<. c #ECEE80",
"1. c #EEEF8E",
"2. c #F3E381",
"3. c #F7F880",
"4. c #FBFC84",
"5. c #EBE992",
"6. c #EAED9E",
"7. c #F7ED90",
"8. c #F1E49E",
"9. c #F9F691",
"0. c #FCFA96",
"q. c #FBFE9B",
"w. c #C1C6AA",
"e. c #C3C8A9",
"r. c #CCD1A9",
"t. c #D8DAA8",
"y. c #F9D6A6",
"u. c #EAEDA0",
"i. c #FCFDAF",
"p. c #FBFEBC",
"a. c #E3E3E3",
"s. c #FAFEF2",
"d. c #F9FFFD",
/* pixels */
" . . . . . . . . . . . . . . . . . . . . . . . . . . . . . . . . . . . . . . . . . . . . . . . . . . . . . . . . . . . . . . . . . . . . . . . . . . . . . . . .",
" . . . . . . . . . . . . . . . . . . . . . . . . . . . . . . . .} .. . .&.*.X.t. .| { |  . . . . . . . . . . . . . . . . . . . . . . . . . . . . . . . . . . . .",
" . . . . . . . . . . . . . . . . . . . . . . . . . . . .e. . .X. .&.-.~ &.u. . .| &. . . . . . . . . . . . . . . . . . . . . . . . . . . . . . . . . . . . . . .",
" . . . . . . . . . . . . . . . . . . . . . . . . . . . .[  . .,.r.=.4.>.E u. .*.%.X. . . . . . . . . . . . . . . . . . . . . . . . . . . . . . . . . . . . . . .",
" . . . . . . . . . . . . . . . . . . . . . . . . . . . . . .&.&.<.R E E E 1.3.E  . .$. . . . . . . . . . . . . . . . . . . . . . . . . . . . . . . . . . . . . .",
" . . . . . . . . . . . . . . . . . . . . . . . . . . . . . . . .>.4.s.d.p.4.6.u. . . . . . . . . . . . . . . . . . . . . . . . . . . . . . . . . . . . . . . . .",
" . . . . . . . . . . . . . . . . . . . . . . . . . . . .r.r.r.4.E d.d.d.d.E ,.&.&.&. . . . . . . . . . . . . . . . . . . . . . . . . . . . . . . . . . . . . . .",
" . . . . . . . . . . . . . . . . . . . . . . . . . . . . .[  .*.1.E i.E E 4.q.E &.&.&.&. . . . . . . . . . . . . . . . . . . . . . . . . . . . . . . . . . . . .",
" . . . . . . . . . . . . . . . . . . . . . . . . . . . . .' &.&.7.E 0.9.E &.6.r.&.{  . . . . . . . . . . . . . . . . . . . . . . . . . . . . . . . . . . . . . .",
" . . . . . . . . . . . . . . . . . . . . . . . . . . . . . .;.;.8.E 2.5.E &.&. .r. . . . . . . . . . . . . . . . . . . . . . . . . . . . . . . . . . . . . . . .",
" . . . . . . . . . . . . . . . . . . . . . . . . . . . . .` ;.;.:.T Y %. . .&. . .+. . . . . . . . . . . . . . . . . . . . . . . . . . . . . . . . . . . . . . .",
" . . . . . . . . . . . . . . . . . . . . . . . . . . . . .#.U P  . .2.[  .X. .&. .w. . . . . . . . . . . . . . . . . . . . . . . . . . . . . . . . . . . . . . .",
" . . . . . . . . . . . . . . . . . . . . . . . . . .w < ' 8.y.y. . . . . . .| |  . . . . . . . . . . . . . . . . . . . . . . . . . . . . . . . . . . . . . . . .",
" . . . . . . . . . . . . . . . . . . . . . . . . . .2 x / , : : D C  . . . .X. . . . . . . . . . . . . .|  . . . . . . . . . . . . . . . . . . . . . . . . . . .",
" . . . . . . . . . . . . . . . . . . . . . . . . .l 2 Z Z , < g g <  . . . . . . . . . . . . . . . . . . . . . . . . . . . . . . . . . . . . . . . . . . . . . .",
" . . . . . . . . . . . . . . . . . . . . . . . . .q 3 ^ g < < l g <  . . . . . . . . . . . . . . . . . . . . . . . . . . . . . . . . . . . . . . . . . . . . . .",
" . . . . . . . . . . . . . . . . . . .k           4 < H < < < c q ,  . . . . . . . . . . . . . . . . . . . . . . . . . . . . . . . . . . . . . . . . . . . . . .",
" . . . . . . . . . . . . . . .W         X L ! ^ I I I ) q 2 < l < !  . . . . . . . . . . . . . . . . . . . . . . . . . . . . . . . . . . . . . . . . . . . . . .",
" . . . . . . . . . . . . .,   . D ^ ^ ^ I I L L ! K L K K K H L p   ,  . . . . . . . . . . . . . . . . . . . . . . . . . . . . . . . . . . . . . . . . . . . . .",
" . . . . . . . . . . .z   a L L L K J J H K H H G G G G G D D D D D w   p  . . . . . . . . . . . . . . . . . . . . . . . . . . . . . . . . . . . . . . . . . . .",
" . . . . . . . . . .o = J H ) @.@.) G G F G G D D S S S S S Z Z Z B Z B X   ~  . . . . . . . . . . . . . . . . . . . . . . . . . . . . . . . . . . . . . . . . .",
" . . . . . . . .| o F F D o.a.a.O.L S B B B A B B B B B M M M M b b m m m t    . . . . . . . . . . . . . . . . . . . . . . . . . . . . . . . . . . . . . . . . .",
" . . . . . . .~ * A B A ] a.a.a.[ N B N B M N b b b b b m c c j j x x x x g a   W  . . . . . . . . . . . . . . . . . . . . . . . . . . . . . . . . . . . . . . .",
" . . . . . .~ O N B B ( a.a.a.[ N v j v v v j j j h h h g g g g d d d a f a a p   ~  . . . . . . . . . . . . . . . . . . . . . . . . . . . . . . . . . . . . . .",
" . . . . . .O b v v v ] a.a.' v h j j h g g g d d s s s a a a i i i i t t t t t e . ~  . . . . . . . . . . . . . . . . . . . . . . . . . . . . . . . . . . . . .",
" . . . . .O j j h h h K / F i h i i d i s a i i i u u u u t t r t w e w e w w 9 9 < X  . . . . . . . . . . . . . . . . . . . . . . . . . . . . . . . . . . . . .",
" . . . .# 0 d d i i i i i i i i i u u u y t r r r w e w w 0 9 9 q 9 4 4 4 q 4 2 3 2 . $  . . . . . . . . . . . . . . . . . . . . . . . . . . . . . . . . . . . .",
" . . . .# i i u i u u i y r r r y 0 y 0 9 9 9 9 9 9 % $ O X O X X @ @ @ : : : : < & & .  . . . . . . . . . . . . . . . . . . . . . . . . . . . . . . . . . . . .",
" . . .% r r y r y y e 0 0 0 9 9 7 7 7 4 5 - @ o X o o @ o O O X X o X X X X o X % $ $ $ .  . . . . . . . . . . . . . . . . . . . . . . . . . . . . . . . . . . .",
" . . .% 0 8 8 8 8 8 7 6 6 6 6 > 1 1 - O @ @ O @ @ @ o @ O o o o o O O O O X X @ X X O O X  . . . . . . . . . . . . . . . . . . . . . . . . . . . . . . . . . . .",
" . .7 - 6 5 5 5 > > > > > : : > # @ # # @ @ @ @ @ @ o @ @ @ O @ O O O X o O X O X X O X X &  . . . . . . . . . . . . . . . . . . . . . . . . . . . . . . . . . .",
" . .% 1 1 : : ; > > - - : * # % % # # # @ # @ # @ @ @ @ O @ @ O @ O o @ @ o @ o O O O O X O  . . . . . . . . . . . . . . . . . . . . . . . . . . . . . . . . . .",
" . .* = = = = * * % % * * # # % # * * # + # # # # + + + + + + + # O O % O O + O O @ O O o O  . . . . . . . . . . . . . . . . . . . . . . . . . . . . . . . . . .",
" . .= = * * * * * * * # * * * # # # # # * + * # * + % + # + + % # + O # $ O # O O O O @ @ O  . . . . . . . . . . . . . . . . . . . . . . . . . . . . . . . . . .",
" .5 = = = * * = * * * * * * # * * * # # * # + # # + + * % # # + % + # + % O + # O # + O @ O 2  . . . . . . . . . . . . . . . . . . . . . . . . . . . . . . . . .",
" .= = = = = = = * * = * * * * * * * * * * * * * * * * + * % # % % # + % % # # # # # + + @ @ 3  . . . . . . . . . . . . . . . . . . . . . . . . . . . . . . . . .",
" .= ; = = = = = = = = = = = = = * * * * * * * * * * # * % % % % % # % # # + % + # # # + # # 4  . . . . . . . . . . . . . . . . . . . . . . . . . . . . . . . . .",
" .; ; ; ; ; ; - = = - = = = = = * = = = = * * * * * % * % * * % % * % % % % % % % % # # # # 4  . . . . . . . . . . . . . . . . . . . . . . . . . . . . . . . . .",
" .1 1 ; ; ; ; ; ; - - - - = = = = = = * * = = = * * * * * * * * * % % % * % % % % # % # % # 6  . . . . . . . . . . . . . . . . . . . . . . . . . . . . . . . . .",
" .; 1 1 1 ; > > ; ; ; ; ; ; - - ; = ; = = = = = = * * * * * * * * * * * * * % % * % % % % % 4  . . . . . . . . . . . . . . . . . . . . . . . . . . . . . . . . .",
" . .5 1 1 1 ; 1 > > 1 ; 1 ; ; ; ; ; ; = ; ; = = = = = = = = = * = * * * * * * * * * * * % % |  . . . . . . . . . . . . . . . . . . . . . . . . . . . . . . . . .",
" . .5 5 5 1 1 1 1 1 ; > 1 > 1 ; > ; > ; ; ; ; ; ; ; ; = = = = = = = = = * = * * * * * * = #  . . . . . . . . . . . . . . . . . . . . . . . . . . . . . . . . . .",
" . .5 6 6 6 5 5 6 5 1 1 1 1 ; 1 > > > > > > ; ; ; ; ; ; ; = = ; = = = = = * = * * = * * * =  . . . . . . . . . . . . . . . . . . . . . . . . . . . . . . . . . .",
" . .6 8 8 8 8 6 6 5 5 5 1 1 5 1 5 > > > > > > > ; > ; ; ; ; ; ; ; - - - ; = = = = = = * = *  . . . . . . . . . . . . . . . . . . . . . . . . . . . . . . . . . .",
" . . .8 e w 0 0 8 8 8 6 5 5 5 5 5 5 1 5 5 1 > > ; 5 ; ; 1 > ; ; ; ; ; ; ; ; = ; = = = t =  . . . . . . . . . . . . . . . . . . . . . . . . . . . . . . . . . . .",
" . .| 8 y e e y e 0 e 0 w 8 8 5 5 5 5 5 5 5 5 5 5 > 5 > > ; 5 1 1 1 > > ; ; > > ; > r - -  . . . . . . . . . . . . . . . . . . . . . . . . . . . . . . . . . . .",
" . . .| 8 y y y y y e y y 8 0 e 8 8 8 8 8 8 6 8 5 7 6 5 5 5 5 5 5 5 5 1 1 > > > > 5 y > ~  . . . . . . . . . . . . . . . . . . . . . . . . . . . . . . . . . . .",
" . . . .e y u u y y y y y y y e r e e e e 8 e 8 8 7 y 8 8 8 6 5 6 6 5 5 5 5 5 1 6 s 1 >  . . . . . . . . . . . . . . . . . . . . . . . . . . . . . . . . . . . .",
" . . . . .e i i x y u u u u u y y y y y y y y y 8 8 0 y 7 8 8 7 8 8 8 6 6 6 6 u s 5 1  . . . . . . . . . . . . . . . . . . . . . . . . . . . . . . . . . . . . .",
" . . . . .Q e a a x u a u i u u u u u y y y y y y y 8 y y y 0 y 8 0 8 8 w 8 g d w 1 W  . . . . . . . . . . . . . . . . . . . . . . . . . . . . . . . . . . . . .",
" . . . . . .V r d f x h u s s i u i s u u u u u u y y y y y y y y e e e u h d t 8 V  . . . . . . . . . . . . . . . . . . . . . . . . . . . . . . . . . . . . . .",
" . . . . . . .r i d d h v s d s s i s u u s u u u u u u u y y y y y r g g h i e r  . . . . . . . . . . . . . . . . . . . . . . . . . . . . . . . . . . . . . . .",
" . . . . . . . .n u h g h v c h d s s s s s i i i s u i u i u u s x h h h y r x  . . . . . . . . . . . . . . . . . . . . . . . . . . . . . . . . . . . . . . . .",
" . . . . . . . . .| u h h h h v v m h h d d d s s s s s s h c c x x x d u 8 ~  . . . . . . . . . . . . . . . . . . . . . . . . . . . . . . . . . . . . . . . . .",
" . . . . . . . . . . .u s x h h h m m m m m m m N v c c c c c c c h i i w  . . . . . . . . . . . . . . . . . . . . . . . . . . . . . . . . . . . . . . . . . . .",
" . . . . . . . . . . .| _ i d x x v j h v v m m c v v v v c h d d u e |  . . . . . . . . . . . . . . . . . . . . . . . . . . . . . . . . . . . . . . . . . . . .",
" . . . . . . . . . . . . . . .a i f x c c j c c x x h x h h d y u  . . . . . . . . . . . . . . . . . . . . . . . . . . . . . . . . . . . . . . . . . . . . . . .",
" . . . . . . . . . . . . . . . . .Q l s a i u u u u u u u f Q  . . . . . . . . . . . . . . . . . . . . . . . . . . . . . . . . . . . . . . . . . . . . . . . . .",
" . . . . . . . . . . . . . . . . . . . . . . . . . . . . . . . . . . . . . . . . . . . . . . . . . . . . . . . . . . . . . . . . . . . . . . . . . . . . . . . .",
" . . . . . . . . . . . . . . . . . . . . . . . . . . . . . . . . . . . . . . . . . . . . . . . . . . . . . . . . . . . . . . . . . . . . . . . . . . . . . . . ."
};
