/* XPM */
static xpm_row_t const bomb_xpm_2[] = {
/* columns rows colors chars-per-pixel */
"60 60 149 2 ",
"   c #040201",
".  c #0C0503",
"X  c #0F0805",
"o  c #0D0B0B",
"O  c #110706",
"+  c #140906",
"@  c #160B08",
"#  c #190D0B",
"$  c #16110F",
"%  c #1D110D",
"&  c #131011",
"*  c #1E1413",
"=  c #1B1B1B",
"-  c #20110E",
";  c #211512",
":  c #251916",
">  c #261B19",
",  c #291E1C",
"<  c #24211F",
"1  c #2A201E",
"2  c #232222",
"3  c #2C2322",
"4  c #2D2926",
"5  c #2A242A",
"6  c #2C2B2A",
"7  c #312725",
"8  c #322926",
"9  c #342C2A",
"0  c #382F2D",
"q  c #36302E",
"w  c #39312E",
"e  c #2E2F30",
"r  c #363331",
"t  c #3B3533",
"y  c #3D3836",
"u  c #3B353B",
"i  c #3F3B3A",
"p  c #403736",
"a  c #403937",
"s  c #433E3C",
"d  c #45413F",
"f  c #363A45",
"g  c #454242",
"h  c #494544",
"j  c #4D4947",
"k  c #4D4B4A",
"l  c #514E4D",
"z  c #53504F",
"x  c #4F4C56",
"c  c #4C4B59",
"v  c #555353",
"b  c #585554",
"n  c #5A5957",
"m  c #575558",
"M  c #585658",
"N  c #5D5C5B",
"B  c #605C5A",
"V  c #62615F",
"C  c #515361",
"Z  c #5B5C6B",
"A  c #5B6172",
"S  c #656463",
"D  c #696664",
"F  c #6D6967",
"G  c #696769",
"H  c #6C6C6B",
"J  c #716D6C",
"K  c #72706E",
"L  c #6A6D7E",
"P  c #747473",
"I  c #797574",
"U  c #797876",
"Y  c #7C7C7C",
"T  c #817F7F",
"R  c #BA894A",
"E  c #C49755",
"W  c #C29E67",
"Q  c #D6AB6A",
"!  c #D4CD7A",
"~  c #EFDB78",
"^  c #FDF56C",
"/  c #FFF86C",
"(  c #EBE977",
")  c #F6ED70",
"_  c #F0E17C",
"`  c #FEF576",
"'  c #FFF875",
"]  c #FEFA7A",
"[  c #6E7285",
"{  c #71788D",
"}  c #7C849C",
"|  c #7E88A0",
" . c #838282",
".. c #929291",
"X. c #9F9D9C",
"o. c #A09D9C",
"O. c #ADB298",
"+. c #B2B795",
"@. c #B7B994",
"#. c #838CA5",
"$. c #858EA9",
"%. c #8F97A7",
"&. c #8791AB",
"*. c #00b140",
"=. c #939BA6",
"-. c #929AAB",
";. c #97A0A3",
":. c #9AA1A1",
">. c #9BA3AA",
",. c #A6A4A2",
"<. c #A8A7A6",
"1. c #AAB0A9",
"2. c #B3B7A4",
"3. c #B2B1AF",
"4. c #B5B9A9",
"5. c #B5B9A9",
"6. c #C2A889",
"7. c #EEBE83",
"8. c #E0B992",
"9. c #CECE87",
"0. c #C2C38F",
"q. c #CBCB8A",
"w. c #D3D286",
"e. c #DBDB81",
"r. c #D6D688",
"t. c #DFDE8E",
"y. c #F5C48A",
"u. c #E7D78F",
"i. c #E5C092",
"p. c #E5E58D",
"a. c #EEEB88",
"s. c #F5EE85",
"d. c #FEFA85",
"f. c #E7E797",
"g. c #EFEC93",
"h. c #ECEC9A",
"j. c #F4EC93",
"k. c #FEF997",
"l. c #C0C4A7",
"z. c #CACEA7",
"x. c #D8DAA7",
"c. c #D1D2A8",
"v. c #C0C0BF",
"b. c #F5D0A3",
"n. c #FEFDA6",
"m. c #FEFCC4",
"M. c #E4E4E4",
"N. c #FCFEEA",
"B. c #FAFEFC",
/* pixels */
"*.*.*.*.*.*.*.*.*.*.*.*.*.*.*.*.*.*.*.*.*.*.*.*.*.*.*.*.*.*.*.*.$.*.*.*.*.*.*.*.*.*.*.*.*.*.*.*.*.*.*.*.&.*.*.*.*.*.*.*.",
"*.*.*.*.*.*.*.*.*.*.*.*.*.*.*.*.*.*.*.*.*.*.*.*.*.*.*.*.*.*.*.*.*.*.*.*.*.*.*.*.*.*.*.*.*.*.*.*.*.*.*.*.*.*.*.*.*.*.*.*.",
"*.*.*.*.*.*.*.*.*.*.*.*.*.*.*.*.*.*.*.*.*.*.*.*.*.*.*.*.*.*.*.*.*.*.*.*.*.*.*.*.*.*.*.*.*.*.*.*.*.*.*.*.*.*.*.*.*.*.*.*.",
"*.*.*.*.*.*.*.*.*.*.*.*.*.*.*.*.*.*.*.*.*.*.*.*.*.*.*.*.*.*.*.*.*.*.*.*.*.*.*.*.*.*.*.*.*.*.*.*.*.*.*.*.*.*.*.*.*.*.*.*.",
"*.*.*.*.*.*.*.*.*.*.*.*.*.*.*.*.*.*.*.*.*.*.*.*.*.*.*.*.*.*.*.*.*.*.*.O.*.%.%.*.*.%.*.*.*.*.*.*.*.*.*.*.*.*.*.*.*.*.*.*.",
"*.*.*.*.*.*.*.*.*.*.*.*.*.*.*.*.*.*.*.*.*.*.*.*.*.*.*.*.*.*.*.*.*.*.*.*.:.&.&.*.*.q.*.*.*.1.*.&.*.*.;.*.*.*.*.*.*.*.*.*.",
"*.*.*.*.*.*.*.*.*.*.*.*.*.*.*.*.*.*.*.*.*.*.*.*.*.*.*.*.*.*.*.*.*.*.*.*.%.%.&.*.*.w.,.4.x.*.*.&.O.&.*.*.*.*.*.*.*.*.*.*.",
"*.*.*.*.*.*.*.*.*.*.*.*.*.*.*.*.*.*.*.*.*.*.*.*.*.*.*.*.*.*.*.*.*.*.*.%.*.q.( 4.*.w.2.*.*.*.:.q.*.*.*.*.*.*.*.*.*.*.*.*.",
"*.*.*.*.*.*.*.*.*.*.*.*.*.*.*.*.*.*.*.*.*.*.*.*.*.*.*.*.*.*.*.%.*.*.*.e.c.*.w.a.q./ h.*.@.w.%.O.*.*.*.*.*.*.*.*.*.*.*.*.",
"*.*.*.*.*.*.*.*.*.*.*.*.*.*.*.*.*.*.*.*.*.*.*.*.*.*.*.*.*.*.*.*.*.*.9.w.%./ f.n./ / r.w.^ :.*.&.-.*.*.*.*.*.*.*.*.*.*.*.",
"*.*.*.*.*.*.*.*.*.*.*.*.*.*.*.*.*.*.*.*.*.*.*.*.*.*.*.*.*.*.*.*.*.*.*.*.0.t.] d.B.' d.g.h.-.*.*.*.*.*.*.*.*.*.*.*.*.*.*.",
"*.*.*.*.*.*.*.*.*.*.*.*.*.*.*.*.*.*.*.*.*.*.*.*.*.*.*.*.*.*.*.>.l.c.c.p./ d.B.B.B.N./ e.w.w.w.&.*.*.*.*.*.*.*.*.*.*.*.*.",
"*.*.*.*.*.*.*.*.*.$.*.*.*.*.*.*.*.*.*.*.*.*.*.*.*.*.*.*.*.*.*.*.( *.*.=.w.j./ m.k.^ s.` ` w.w.w.w.w.*.*.*.*.*.*.*.*.*.*.",
"*.*.*.*.*.*.*.*.*.*.*.*.*.*.*.*.*.*.*.*.*.*.*.*.*.*.*.*.*.*.*.*.*.$.w.w.w.j./ _ g.^ w.h.c.;.) &.*.*.*.*.*.*.*.*.*.*.*.*.",
"*.*.*.*.*.*.*.*.*.*.*.*.*.*.*.*.*.*.*.*.*.*.*.*.*.*.*.*.*.*.*.*.w.0.*.*.*.u.^ ~ h.^ 9.w.&.z.*.*.*.*.*.*.*.*.*.*.*.*.*.*.",
"*.*.*.*.*.*.*.*.*.*.*.*.*.*.*.*.*.*.*.*.*.*.*.*.*.*.*.*.*.*.,.*.*.*.*.*.E 7.W ! *.*.*.+.&.*.&.*.*.*.*.*.*.*.*.*.*.&.*.*.",
"*.*.*.*.*.*.*.*.*.*.*.*.*.*.*.*.*.*.*.*.*.*.*.*.*.*.*.*.*.*.*.*.&.&.&.y.y.y.y.&.*.*.*.*.*.*.*.*.*.*.*.*.*.*.*.*.*.*.*.*.",
"*.*.*.*.*.*.*.*.*.*.*.*.$.*.*.*.*.*.&.*.*.*.*.*.*.*.*.*.*.*.*.*.&.&.&.y.y.y.8.*.*.*.*.*.*.*.*.*.*.*.*.*.*.*.*.*.*.*.*.*.",
"*.*.*.*.*.*.*.*.*.*.*.*.*.*.*.*.*.*.*.*.*.*.*.*.*.*.*.*.*.*.*.*.&.&.i.R R Q *.*.*.*.*.*.*.*.*.*.*.*.*.*.*.*.*.*.*.*.*.*.",
"*.*.*.*.*.*.*.*.*.*.*.*.*.*.*.*.*.*.*.*.*.*.*.*.*.*.*.*.*.*.*.e 2 ..6.f.b.*.*.*.*.*.*.*.*.*.*.*.*.*.*.*.*.*.*.*.*.*.*.*.",
"*.*.*.*.*.*.*.*.*.*.*.*.*.*.*.*.*.*.*.*.*.*.*.*.*.*.*.*.*.*.*.5 = ..= = = C e -.*.*.*.*.*.*.*.*.*.*.*.*.*.*.*.*.*.*.*.*.",
"*.*.*.*.*.*.*.*.*.*.*.*.*.*.*.*.*.*.*.*.*.*.*.*.*.*.*.*.*.*.{ 2 N H = = = H 2 | *.*.*.*.*.*.*.*.*.*.*.*.*.*.*.*.*.*.*.*.",
"*.*.*.*.*.*.*.*.*.*.*.*.*.*.*.*.*.*.*.*.*.*.*.*.*.*.*.&.&.| 6 2 P N = = k k = | *.*.*.*.*.*.*.*.*.*.*.*.*.*.*.*.*.*.*.*.",
"*.*.*.*.*.*.*.*.*.*.*.*.*.*.*.*.*.*.*.*.*.|                 6 = k = = = z f 2 | *.*.*.*.*.*.*.*.*.*.*.*.*.*.*.*.*.*.*.*.",
"*.*.*.*.*.*.*.*.*.*.*.*.*.*.*.*.*.*.$.      i } } T  . .T } T U Y Y Y } N = o } *.*.*.*.*.*.*.*.*.*.*.*.*.*.*.*.*.*.*.*.",
"*.*.*.*.*.*.*.*.*.*.*.*.*.*.*.*.A     T Y Y U [ U I U U U P K K P P P H K H H e   f *.*.*.*.*.*.*.*.*.*.*.*.*.*.*.*.*.*.",
"*.*.*.*.*.*.*.*.*.*.*.*.*.*.$.  e P U ..5.<.W A K P H H J F J F H G G G S S S V V =   | *.*.*.*.*.*.*.*.*.*.*.*.*.*.*.*.",
"*.*.*.*.$.*.*.*.*.*.*.*.*.& . J J U 5.M.M.1.K D D S S S V V V V N N N N N n n n M m v     *.*.*.*.*.*.*.*.*.*.*.*.*.*.*.",
"*.*.*.*.*.*.*.*.*.*.*.*.. B F V Y v.M.M.M. .B B N N n n n n n v v z z z z z l l k k k k =   &.&.*.*.*.*.*.*.*.*.*.*.*.*.",
"*.*.*.*.*.*.*.*.$.*.*.. B B B B ,.M.M.M. .b b z z z z l z l l j k k k g g h g g g g g i i y   &.*.*.*.*.*.*.*.*.*.*.*.*.",
"*.*.*.*.*.*.*.*.$.*.O b z z z I o.3.X.S k j j j h j h h g g d d s d s i i i y y u u r r e r 6   *.*.*.*.*.*.*.*.*.*.*.*.",
"*.*.*.*.*.*.*.*.%.O j j j j h j F b d d d d d d a a i i y y y t t r r q r e q 6 6 6 6 6 6 4 5 =   *.*.*.*.*.*.*.*.*.*.*.",
"*.*.*.*.*.*.*.*.5 5 s s s s s s a i y y t t t t q t q q 9 9 9 4 4 4 2 2 3 < 1 2 3 < 1 < = = > =     *.*.*.*.*.*.*.*.*.*.",
"*.*.*.*.*.*.*.*.+ p p t p t w w q q q q 9 9 6 4 4 4 4 @ . . . . . .   .           .     . $ $ $ @   | *.*.*.*.*.*.*.*.*.",
"*.*.*.*.*.*.*.O 8 0 9 9 8 8 8 7 3 3 3 3 1 1 < * . . . . . . . . . . . . . .   .         .       .     *.*.*.*.*.*.*.*.*.",
"*.*.*.*.*.*.$.@ 3 3 3 , 1 , , , > > > : * X + + O X . X O O . . . . . . . . . . . . . . .   . .   .   $.*.*.*.*.*.*.*.*.",
"*.*.*.*.*.*.u % : = ; ; ; * % % - # # + + + + + + O O O O . O . X . . O . . . . . . . . . .   . .     o *.*.*.*.*.*.*.*.",
"*.*.*.*.*.*.# % # % % # # # # # @ @ @ + + + + + + + + + + + + O . + . O . + + . . . . . . . . . . . . . *.*.*.*.*.*.*.*.",
"*.*.*.*.*.*.% % % # # # # # # # # @ # # @ @ @ @ @ + + + + @ @ + + + + + + O O O O O . O O . . . . . . . *.*.*.*.*.*.*.*.",
"*.*.*.*.*.*.% % % % # % % # # # # # # # # @ # # @ # # @ + + + + + + + + + O + O O O O O O O O . + O . . } *.*.*.*.*.*.*.",
"*.*.*.*.*.*.; - % % % % # % # % - # % # # % # # # # # # @ # # @ + + + + @ + + + + + + + + O + O X . O O C *.*.*.*.*.*.*.",
"*.*.*.*.*.*.; ; ; ; ; ; ; - - - # # % % % # # % # # # # # # # @ # # # # @ @ @ + + + + + + + + + + + O + c *.*.*.*.*.*.*.",
"*.*.*.*.*.*.: : : ; ; : ; ; ; ; ; - - - % % % % % % % % # % % # # # # # # # @ # # @ @ @ @ @ + + + O O O Z *.*.*.*.*.*.*.",
"*.*.*.*.*.*.: , > > > : : : : ; : ; ; ; ; - ; - % % % % # % % % % % % # # # # # # # # # @ # @ @ # @ # O #.*.*.*.*.*.*.*.",
"*.*.*.*.*.*., , , > > > > > > : : : : : : ; ; ; ; ; ; % - - % % % % % % % % % % # # # # # # # # # @ # # *.*.*.*.*.*.*.*.",
"*.*.*.*.*.*.1 3 3 3 , , , , , , , > : > : : : : : : : : ; ; ; ; - - - % % % % % % % % % # - # # # # # # *.*.*.*.*.*.*.*.",
"*.*.*.*.*.*.[ 3 7 7 7 7 1 1 , , , , , , , > , > > > : : : : : : ; ; ; ; - ; - - % % % % % % # - # % # 3 *.*.*.*.*.*.*.*.",
"*.*.*.*.*.*.*.7 9 9 9 8 9 8 3 3 1 3 , 3 , , , , > , > > > > : : : : : ; ; : ; ; ; ; - ; - % - % % 8 % *.*.*.*.*.*.*.*.*.",
"*.*.*.*.*.*.*.g 8 w 0 0 q 9 9 9 9 8 1 3 1 1 1 1 , 1 1 1 , , , : 1 1 > > : > > : : ; : : - ; ; ; t - * $.*.*.*.*.*.*.*.*.",
"*.*.*.*.*.*.*.*.9 t t t t w w w w w w 9 q 9 9 9 7 7 1 1 3 3 7 1 1 1 1 1 1 1 , , , > > : > > : t : ; *.*.*.*.*.*.*.*.*.*.",
"*.*.*.*.*.*.*.*.#.9 u p y y y y t t w t w w w w w 9 9 0 9 9 8 8 7 8 8 7 7 7 7 1 1 1 , , , 1 d d : v $.*.*.*.*.*.*.*.*.*.",
"*.*.*.*.*.*.*.*.*.t t s a d a a a a a a y t p t p w w w 0 w w w 9 9 9 9 8 8 8 8 7 7 7 7 7 d d 7 , *.*.*.*.*.*.*.*.*.*.*.",
"*.*.*.*.*.*.*.*.*.*.u s g g v s s s s s a a a a a p t y t t t t w w 0 0 p 0 8 0 9 9 9 g j g 7 , *.*.*.*.*.*.*.*.*.*.*.*.",
"*.*.*.*.*.*.*.*.*.*.*.u g g g v m d s s d d s s s s s a a a p a p p t p 0 w 0 p 0 s k l j 9 3 *.*.*.*.*.*.*.*.*.*.*.*.*.",
"*.*.*.*.*.*.*.*.*.*.*.*.s s j h h b v g g g h g d s d s s s a s d a a a a a p d k x k i t 3 *.*.*.*.*.*.*.*.*.*.*.*.*.*.",
"*.*.*.*.*.*.*.*.*.*.*.*.-.{ u k j l l m b b h h h h h h d h d d d d s s l z z z z l t 0 [ *.*.*.*.*.*.*.*.*.*.*.*.*.*.*.",
"*.*.*.*.*.*.*.*.*.*.*.*.*.*.*.g s l l l k m m m m m z l h j h k z b z b v l v l s s 0 *.*.*.*.*.*.*.*.*.*.*.*.*.*.*.*.*.",
"*.*.*.*.*.*.*.*.*.*.*.*.*.*.*.*.*.s s v z z l l v b b m m m b m z b b z k h g s t $.*.*.*.*.*.*.*.*.*.*.*.*.*.*.*.*.*.*.",
"*.*.*.*.*.*.*.*.*.*.*.*.*.*.*.*.*.*.*.L g s k z v v z l l l v k l k k l d t Z *.*.*.*.*.*.*.*.*.*.*.*.*.*.*.*.*.*.*.*.*.",
"*.*.*.*.*.*.*.*.*.*.*.*.*.*.*.*.*.*.*.*.*.*.$.k i s s s s s i s y i d $.*.*.*.*.*.*.*.*.*.*.*.*.*.*.$.*.*.*.*.*.*.*.*.*."
};
