/* XPM */
static xpm_row_t const bomb_xpm_3[] = {
/* columns rows colors chars-per-pixel */
"80 60 155 2 ",
"   c #030203",
".  c #0B0906",
"X  c #0E0B09",
"o  c #120C06",
"O  c #130D0B",
"+  c #180F0D",
"@  c #17100E",
"#  c #1A110F",
"$  c #151211",
"%  c #1D1411",
"&  c #1F1E1C",
"*  c #211613",
"=  c #241915",
"-  c #261C19",
";  c #291E1B",
":  c #25211E",
">  c #2B211E",
",  c #1C1E23",
"<  c #222221",
"1  c #2E2422",
"2  c #2A2826",
"3  c #2D2A2B",
"4  c #312724",
"5  c #322926",
"6  c #352D2B",
"7  c #382F2D",
"8  c #36312E",
"9  c #39302E",
"0  c #2E2E30",
"q  c #343232",
"w  c #3C3533",
"e  c #3E3936",
"r  c #3D3B39",
"t  c #403936",
"y  c #433D3B",
"u  c #45403F",
"i  c #393E47",
"p  c #454241",
"a  c #4A4544",
"s  c #4D4847",
"d  c #494548",
"f  c #4D4B4B",
"g  c #524E4D",
"h  c #54504E",
"j  c #404350",
"k  c #484850",
"l  c #4B4D5C",
"z  c #514F52",
"x  c #555353",
"c  c #595656",
"v  c #5A5856",
"b  c #55545D",
"n  c #595758",
"m  c #5C5B5A",
"M  c #615E5D",
"N  c #61605F",
"B  c #5A5962",
"V  c #5A6071",
"C  c #646363",
"Z  c #696666",
"A  c #696967",
"S  c #6D6C6C",
"D  c #706E6E",
"F  c #71706F",
"G  c #757474",
"H  c #797777",
"J  c #7A7977",
"K  c #7B7B7A",
"L  c #BA904F",
"P  c #BB9455",
"I  c #80807F",
"U  c #C29E62",
"Y  c #CEA264",
"T  c #C7A56A",
"R  c #D3AE74",
"E  c #DEB273",
"W  c #DBB67D",
"Q  c #E6B87A",
"!  c #E7D873",
"~  c #EEE573",
"^  c #F4F57E",
"/  c #FDFD7B",
"(  c #70778E",
")  c #767C94",
"_  c #797F96",
"`  c #7A8197",
"'  c #7D849C",
"]  c #828282",
"[  c #8C8787",
"{  c #8E8C8C",
"}  c #97928A",
"|  c #80879F",
" . c #A69787",
".. c #A99A8C",
"X. c #A59E96",
"o. c #A1A09E",
"O. c #A5AB9C",
"+. c #BDAB9E",
"@. c #B9BE94",
"#. c #B2B798",
"$. c #848DA6",
"%. c #00b140",
"&. c #8F97A4",
"*. c #999CA3",
"=. c #A39FA6",
"-. c #9CA3A9",
";. c #A4A3A2",
":. c #A8A7A7",
">. c #A1A7A8",
",. c #ADACAB",
"<. c #B5AAA5",
"1. c #B9BDA9",
"2. c #B1B1B1",
"3. c #DBB782",
"4. c #C6B098",
"5. c #E0BC87",
"6. c #C6B3A4",
"7. c #CDBBA8",
"8. c #CCCF8C",
"9. c #CED18B",
"0. c #D1D38B",
"q. c #C3C791",
"w. c #D8DB99",
"e. c #FBCB8E",
"r. c #E1C19F",
"t. c #F4CA96",
"y. c #FBCD93",
"u. c #F4CE9B",
"i. c #F9CF99",
"p. c #F5D19F",
"a. c #FBD19B",
"s. c #DEE097",
"d. c #E6E784",
"f. c #ECEE80",
"g. c #EEEF8E",
"h. c #F3E381",
"j. c #F7F880",
"k. c #FBFC84",
"l. c #EBE992",
"z. c #EAED9E",
"x. c #F7ED90",
"c. c #F1E49E",
"v. c #FBFA96",
"b. c #C2C7AA",
"n. c #CACFA8",
"m. c #CCD1A9",
"M. c #D8DAA8",
"N. c #F6D1A2",
"B. c #FAD4A3",
"V. c #EAEDA0",
"C. c #FCFDAF",
"Z. c #FBFEBC",
"A. c #E3E3E3",
"S. c #FAFEF2",
"D. c #F9FFFD",
/* pixels */
"%.%.%.%.%.%.%.%.%.%.%.%.%.%.%.%.%.%.%.%.%.%.%.%.%.%.%.%.%.%.%.%.%.%.%.%.%.%.%.%.%.%.%.%.%.%.%.%.%.%.%.%.%.%.%.%.%.%.%.%.%.%.%.%.%.%.%.%.%.%.%.%.%.%.%.%.%.%.%.%.",
"%.%.%.%.%.%.%.%.%.%.%.%.%.%.%.%.%.%.%.%.%.%.%.%.%.%.%.%.%.%.%.%.%.%.%.%.%.%.%.%.%.%.%.%.%.%.%.%.%.%.%.%.%.%.%.%.%.%.%.%.%.%.%.%.%.%.%.%.%.%.%.%.%.%.%.%.%.%.%.%.",
"%.%.%.%.%.%.%.%.%.%.%.%.%.%.%.%.%.%.%.%.%.%.%.%.%.%.%.%.%.%.%.%.%.%.%.%.%.%.%.%.%.%.%.%.%.%.%.%.%.%.%.%.%.%.%.%.%.%.%.%.%.$.%.%.%.%.%.%.%.%.%.%.%.%.%.%.%.%.%.%.",
"%.%.%.%.%.%.%.%.%.%.%.%.%.%.%.%.%.%.%.%.%.%.%.%.%.%.%.%.%.%.%.%.%.%.%.%.%.%.' %.$.%.%.%.%.%.%.%.%.%.%.%.%.%.%.%.%.%.%.%.%.%.%.%.%.%.%.%.%.%.%.%.%.%.%.%.%.%.%.%.",
"%.%.%.%.%.%.%.%.%.%.%.%.%.%.%.%.%.%.%.%.%.%.%.%.%.%.%.%.%.%.%.%.%.%.%.+.a...e.y.i.a.a. .6.%.%.%.%.%.%.%.%.%.%.%.%.%.%.%.%.%.%.%.%.%.%.%.%.%.%.%.%.%.%.%.%.%.%.%.",
"%.%.%.%.%.%.%.%.%.%.%.%.%.%.%.%.%.%.%.%.%.%.%.%.%.%.%.%.%.%.%.%.%.*.y.y.y.! Q y.i.i.E i.p.p.r.%.%.%.%.%.%.%.%.%.%.%.%.%.%.%.%.%.%.%.%.%.%.%.%.%.%.%.%.%.%.%.%.%.",
"%.%.%.%.%.%.%.%.%.%.%.%.%.%.%.%.%.%.%.%.%.%.%.%.%.%.%.%.%.%.%.%.%.y.y.y.y.y.Y y.y.a.U i.p.a.B.p.%.%.%.%.%.%.%.%.%.%.%.%.%.%.%.%.%.%.%.%.%.%.%.%.%.%.%.%.%.%.%.%.",
"%.%.%.%.%.%.%.%.%.%.%.%.%.%.%.%.%.%.%.%.%.%.%.%.%.%.%.%.%.%.%.y.E L y.y.t.%.%.%.%.%.%.6.B.B.u.U =.%.%.%.%.%.%.%.%.%.%.%.%.%.%.%.%.%.%.%.%.%.%.%.%.%.%.%.%.%.%.%.",
"%.%.%.%.%.%.%.%.%.%.%.%.%.%.%.%.%.%.%.%.%.%.%.%.%.%.%.%.$.&.r.e.e.y.} $.%.%.%.%.%.%.%.%.%.N.P p.B.7.%.%.%.%.%.%.%.%.%.%.%.%.%.%.%.%.%.%.%.%.%.%.%.%.%.%.%.%.%.%.",
"%.%.%.%.%.%.%.%.%.%.%.%.%.%.%.%.%.%.%.%.%.%.%.%.%.%.%.%.%.$.e.e.e.y.%.$.%.%.%.%.%.%.%.%.%.%.W B.B.B.%.%.%.%.%.%.%.%.%.%.%.%.%.%.%.%.%.%.%.%.%.%.%.%.%.%.%.%.%.%.",
"%.%.%.%.%.%.%.%.%.%.%.%.%.%.%.%.%.%.%.%.%.%.%.%.%.%.%.%.%...e.e.y.%.%.%.%.%.%.%.%.%.%.%.%.%.%.B.B.B.N.%.%.%.%.%.%.%.%.%.%.%.%.%.%.%.%.%.%.%.%.%.%.%.%.%.%.%.%.%.",
"%.%.%.%.%.%.%.%.%.%.%.%.%.%.%.%.%.%.%.%.%.%.%.%.%.%.%.%.%.3.Y P $.%.%.%.%.%.%.%.%.%.%.%.%.%.%.6.B.3.T %.%.%.%.%.%.%.%.%.%.%.%.%.%.%.%.%.%.%.%.%.%.%.%.%.%.%.%.%.",
"%.%.%.%.%.%.%.%.%.%.%.%.%.%.%.%.%.%.%.%.%.%.%.%.%.%.q < X.c.a.B.$.%.%.%.%.%.%.%.%.%.%.%.%.%.%.%.4.R N.N.%.%.%.%.%.%.%.%.%.%.%.%.%.%.%.%.%.%.%.%.%.%.%.%.%.%.%.%.",
"%.%.%.%.%.%.%.%.%.%.%.%.%.%.%.%.%.%.%.%.%.%.%.%.%.%.3 z ` < : < D V %.%.%.%.%.%.%.%.%.%.%.%.%.%.*.B.N.N.O.%.%.%.q.;.%.%.%.%.%.%.%.%.%.%.%.%.%.%.%.%.%.%.%.%.%.%.",
"%.%.%.%.%.%.%.%.%.%.%.%.%.%.%.%.%.%.%.%.%.%.%.%.%.f 2 C C < < f g < %.%.%.%.%.%.%.%.%.%.%.%.%.%.%.B.B.N.#.&.%.%.8.0.-.M.%.%.@.%.%.%.%.%.%.%.%.%.%.%.%.%.%.%.%.%.",
"%.%.%.%.%.%.%.%.%.%.%.%.%.%.%.%.%.%.%.%.%.%.%.%.%.0 < ` k < < f f < %.%.%.%.%.%.%.%.%.%.%.%.%.%.b.<.N.>.R 9.w.%.9.z.%.%.%.8.%.%.%.%.%.%.%.%.%.%.%.%.%.%.%.%.%.%.",
"%.%.%.%.%.%.%.%.%.%.%.%.%.%.%.%.%.%.%.j           3 : G < < < x 0 < %.%.%.%.%.%.%.%.%.%.%.%.%.%.O.%.5.d.n.q.k.w./ z.%.9.8.*.%.%.%.%.%.%.%.%.%.%.%.%.%.%.%.%.%.%.",
"%.%.%.%.%.%.%.%.%.%.%.%.%.%.%.`         X K I ` I ` ] { 0 3 , f < ` %.%.%.%.%.%.%.%.%.%.%.%.%.%.%.%.8.9.f.j./ / / g.^ / %.%.b.%.%.%.%.%.%.%.%.%.%.%.%.%.%.%.%.%.",
"%.%.%.%.%.%.%.%.%.%.%.$.%.,     S ] ] ] I K I K K K K J J G G K r   , %.%.%.%.%.%.%.%.%.%.%.%.%.%.%.%.p.s./ S.D.Z.k.z.z.%.%.$.%.%.%.%.%.%.%.%.%.%.%.%.%.%.%.%.%.",
"%.%.%.%.%.%.%.%.%.%.%.l   p I K J J J H J J J F F G F F F F S S S S q   i %.%.%.%.%.%.%.%.%.%.%.m.m.m./ / D.D.D.D./ d.0.9.8.%.%.%.%.%.%.%.%.%.%.%.%.%.%.%.%.%.%.",
"%.%.%.%.%.%.%.%.$.%.. - H G } 2.2.{ F F D S D S S A S A A C C C C C N N .   %.%.%.%.%.%.%.%.%.%.%.O.%.0.l./ C./ / k.v./ 9.9.9.9.%.%.%.%.%.%.%.%.%.%.%.%.%.%.%.%.",
"%.%.%.%.%.%.%.%.$.X F D D :.A.A.,.K Z Z N Z Z N N N N m m N m m m n n b v i   ' %.%.%.%.%.%.%.%.%.*.9.0.x./ v.v./ 0.V.n.0.@.%.%.%.%.%.%.%.%.%.%.%.%.%.%.%.%.%.%.",
"%.%.%.%.%.%.%.' # Z Z Z ;.A.A.A.O.M N m M m m v v v v v n n h h h f z h f k p   ( %.%.%.%.%.%.%.%.%.%.%.V./ h.l./ 8.0.%.m.%.%.%.%.%.%.%.%.%.%.%.%.%.%.%.%.%.%.%.",
"%.%.%.%.%.%.' O M M M { A.A.A.O.v v v v h v h h h h f f f f f f f f f p d p p p   ' %.%.%.%.%.%.%.%.%.%.$.~ ! 9.%.%.9.%.%.1.%.%.%.%.%.%.%.%.%.%.%.%.%.%.%.%.%.%.",
"%.%.%.%.%.%.O v v c c o.A.A.o.v h g g g f f f s s a p a a p p u u r u r r r r r w   %.%.%.%.%.%.%.%.%.%.%.%.h.O.%.-.%.9.%.b.%.%.%.%.%.%.%.%.%.%.%.%.%.%.%.%.%.%.",
"%.%.%.%.$.@ h h g g s J [ D u s a a a u a p u u u u u y r r r r e r w q w q q q 8 < X %.%.%.%.%.%.%.%.%.%.%.%.%.%.%.%.%.%.%.%.%.%.%.%.%.%.%.%.%.%.%.%.%.%.%.%.%.",
"%.%.%.%.@ 9 s s u u u u u u u u u u y y e e e w w q q w q 8 8 8 0 3 8 2 0 3 3 2 2 2 . $ %.%.%.%.%.%.%.%.%.%.%.%.%.%.*.%.%.%.%.%.%.%.%.%.%.%.%.%.%.%.%.%.%.%.%.%.",
"%.%.%.%.# u u u u u u u t t e w w w w 9 w 8 8 8 8 8 # $ @ o o o X @ @ @ : : : : , ; , . %.%.%.%.%.%.%.%.%.%.%.%.%.%.%.%.%.%.%.%.%.%.%.%.%.%.%.%.%.%.%.%.%.%.%.%.",
"%.%.%.% t e t w t t w 9 9 9 8 8 8 6 3 6 5 - @ o @ X O O o O O O X O X o o O X . @ $ $ @ . %.%.%.%.%.%.%.%.%.%.%.%.%.%.%.%.%.%.%.%.%.%.%.%.%.%.%.%.%.%.%.%.%.%.%.",
"%.%.%.$ 9 7 9 6 6 6 6 5 6 5 5 1 1 1 = @ @ @ O @ @ O O O O O o O o o O X O X X o O X O O X %.%.%.%.%.%.%.%.%.%.%.%.%.%.%.%.%.%.%.%.%.%.%.%.%.%.%.%.%.%.%.%.%.%.%.",
"%.%.6 ; 5 5 4 1 4 > 1 > > > : : # # # # @ @ @ @ @ O O O O O O O O O X O o o @ X X X O X X & %.%.%.%.%.%.%.%.%.%.%.%.%.%.%.%.%.%.%.%.%.%.%.%.%.%.%.%.%.%.%.%.%.%.",
"%.%.% 1 1 > > ; > = > = = & # # # # # # @ @ @ # @ @ # @ @ O # O + O @ @ @ O X @ O O O X O O %.%.%.%.%.%.%.%.%.%.%.%.%.%.%.%.%.%.%.%.%.%.%.%.%.%.%.%.%.%.%.%.%.%.",
"%.%.* = = * = * * * % % % % % % # # % % # # # % # + # # + + + + # O + + O O @ O @ O O o O o %.%.%.%.%.%.%.%.%.%.%.%.%.%.%.%.%.%.%.%.%.%.%.%.%.%.%.%.%.%.%.%.%.%.",
"%.%.= * * * * * * * % % * % % % * % # # # % % # % % # + + % + + # + + + # + O @ O O @ O @ @ %.%.%.%.%.%.%.%.%.%.%.%.%.%.%.%.%.%.%.%.%.%.%.%.%.%.%.%.%.%.%.%.%.%.",
"%.4 = * = = * * * * % = * * % % * * % # * # # # % + % # % % + + # + # + # # @ @ + + + + @ O 2 %.%.%.%.%.%.%.%.%.%.%.%.%.%.%.%.%.%.%.%.%.%.%.%.%.%.%.%.%.%.%.%.%.",
"%.= = - = = = = * * = * * = * * % * * * * * * # % % % % # % % % % $ # % # # # # # + + + @ @ 2 %.%.%.%.%.%.%.%.%.%.%.%.%.%.%.%.%.%.%.%.%.%.%.%.%.%.%.%.%.%.%.%.%.",
"%.; ; = - = - = = = = = = = * * * * * * * * * * * * % % % % % % # % % # # $ # # # + # # # + 3 %.%.%.%.%.%.%.%.%.%.%.%.%.%.%.%.%.%.%.%.%.%.%.%.%.%.%.%.%.%.%.%.%.",
"%.; ; ; ; ; - - ; = = = = = = = = * = = * * * * * * * * % * * % * % % # # % % % % % # # # # 3 %.%.%.%.%.%.%.%.%.%.%.%.%.%.%.%.%.%.%.%.%.%.%.%.%.%.%.%.%.%.%.%.%.",
"%.> > > ; ; ; ; ; - ; - - = = = = = = = = = = * * * * * * * * * * * % * * % % % # % % + % # 3 %.%.%.%.%.%.%.%.%.%.%.%.%.%.%.%.%.%.%.%.%.%.%.%.%.%.%.%.%.%.%.%.%.",
"%.> > > ; 1 > ; ; ; ; ; ; ; - ; ; ; = = = = = = = = = * * * * * * * * * * % * * % % * * % % 3 %.%.%.%.%.%.%.%.%.%.%.%.%.%.%.%.%.%.%.%.%.%.%.%.%.%.%.%.%.%.%.%.%.",
"%.%.4 1 1 > 1 > > > > ; > ; ; ; ; ; ; ; = ; = = = = = = = = = = * * * * * * * * * * % % % % $.%.%.%.%.%.%.%.%.%.%.%.%.%.%.%.%.%.%.%.%.%.%.%.%.%.%.%.%.%.%.%.%.%.",
"%.%.4 4 4 1 1 1 1 1 > 1 > > > > ; ; ; ; ; ; ; ; ; = ; = = = = = = = = = * = * * * * * * = * %.%.%.%.%.%.%.%.%.%.%.%.%.%.%.%.%.%.%.%.%.%.%.%.%.%.%.%.%.%.%.%.%.%.",
"%.%.4 4 4 4 4 1 4 1 1 1 1 1 > 1 > > > > > ; ; ; ; ; ; ; ; = - = = = = = = = = = = * * = = % %.%.%.%.%.%.%.%.%.%.%.%.%.%.%.%.%.%.%.%.%.%.%.%.%.%.%.%.%.%.%.%.%.%.",
"%.%.6 7 7 7 7 7 6 4 4 4 4 1 1 1 4 > 1 > > 1 > > > > ; ; ; ; ; ; ; - - - ; = = = = = = = * = %.%.%.%.%.%.%.%.%.%.%.%.%.%.%.%.%.%.%.%.%.%.%.%.%.%.%.%.%.%.%.%.%.%.",
"%.%.%.6 w 7 9 9 7 7 7 5 4 4 4 4 4 4 4 1 4 1 1 > > > > > > > > ; ; ; ; ; ; = ; = = = - u * $.%.%.%.%.%.%.%.%.%.%.%.%.%.%.%.%.%.%.%.%.%.%.%.%.%.%.%.%.%.%.%.%.%.%.",
"%.%.%.7 t t t w w 7 w 7 9 7 7 4 4 4 4 1 4 1 4 1 4 4 > > > ; 4 > > 1 > > > ; ; > ; ; 9 ; ; $.%.%.%.%.%.%.%.%.%.%.%.%.%.%.%.%.%.%.%.%.%.%.%.%.%.%.%.%.%.%.%.%.%.%.",
"%.%.%.$.7 t t t t t t 7 t t 7 7 t 7 6 6 7 6 7 6 4 5 4 4 4 5 4 4 4 4 1 1 1 > > > ; 5 t > ' %.%.%.%.%.%.%.%.%.%.%.%.%.%.%.%.%.%.%.%.%.%.%.%.%.%.%.%.%.%.%.%.%.%.%.",
"%.%.%.%.w t y y t t t t t t t t 7 t t 7 t 7 t 7 7 7 t 7 7 7 6 4 5 6 5 4 4 4 4 4 7 u 1 > $.%.%.%.%.%.%.%.%.%.%.%.%.%.%.%.%.%.%.%.%.%.%.%.%.%.%.%.%.%.%.%.%.%.%.%.",
"%.%.%.%.%.w u u k y t y y y y y t t t t t t t t 9 7 9 9 6 7 7 6 6 7 6 6 5 6 5 y d 5 1 %.%.%.%.%.%.%.%.%.%.%.%.%.%.%.%.%.%.%.%.%.%.%.%.%.%.%.%.%.%.%.%.%.%.%.%.%.",
"%.%.%.%.%._ w p a z a y y y y y y t t y t t t t t t t t t t 7 t 9 7 7 7 9 6 f s q 1 ) %.%.%.%.%.%.%.%.%.%.%.%.%.%.%.%.%.%.%.%.%.%.%.%.%.%.%.%.%.%.%.%.%.%.%.%.%.",
"%.%.%.%.%.%.B e s s z z a a a y y u y y y t y t t t t t t t t t t t w w y f s r 7 B %.%.%.%.%.%.%.%.%.%.%.%.%.%.%.%.%.%.%.%.%.%.%.%.%.%.%.%.%.%.%.%.%.%.%.%.%.%.",
"%.%.%.%.%.%.%.e u s s f h s a a a a s u u a y u u y y y y t t t t t y k f f p w w %.%.%.%.%.%.%.%.%.%.%.%.%.%.%.%.%.%.%.%.%.%.%.%.%.%.%.%.%.%.%.%.%.%.%.%.%.%.%.",
"%.%.%.%.%.%.%.%.b u g s s c x z s s s s a p u p a u u u y u u y a z g z h r w x %.%.%.%.%.%.%.%.%.%.%.%.%.%.%.%.%.%.%.%.%.%.%.%.%.%.%.%.%.%.%.%.%.%.%.%.%.%.%.%.",
"%.%.%.%.%.%.%.%.%.$.u f g g g c n c g s s s s s a a a a a g x x g h g s y 6 ' %.%.%.%.%.%.%.%.%.%.%.%.%.%.%.%.%.%.%.%.%.%.%.%.%.%.%.%.%.%.%.%.%.%.%.%.%.%.%.%.%.",
"%.%.%.%.%.%.%.%.%.%.%.u a z h g g n n n n n c n c n x x h x x x z g a a w $.%.%.%.%.%.%.%.%.%.%.%.%.%.%.%.%.%.%.%.%.%.%.%.%.%.%.%.%.%.%.%.%.%.%.%.%.%.%.%.%.%.%.",
"%.%.%.%.%.%.%.%.%.%.%.$.| u s h c h h g c v c c c c n n x x g s s u w _ %.%.%.%.%.%.%.%.%.%.%.%.%.%.%.%.%.%.%.%.%.%.%.%.%.%.%.%.%.%.%.%.%.%.%.%.%.%.%.%.%.%.%.%.",
"%.%.%.%.%.%.%.%.%.%.%.%.%.%.%.p a s z x x h x z g z z z g f f t u %.%.%.%.%.%.%.%.%.%.%.%.%.%.%.%.%.%.%.%.%.%.%.%.%.%.%.%.%.%.%.%.%.%.%.%.%.%.%.%.%.%.%.%.%.%.%.",
"%.%.%.%.%.%.%.%.%.%.%.%.%.%.%.%.%._ k p p y p y y y y y y d _ %.%.%.%.%.%.%.%.%.%.%.%.%.%.%.%.%.%.%.%.%.%.%.%.%.%.%.%.%.%.%.%.%.%.%.%.%.%.%.%.%.%.%.%.%.%.%.%.%.",
"%.%.%.%.%.%.%.%.%.%.%.%.%.%.%.%.%.%.%.%.%.%.%.%.%.%.$.%.%.%.%.%.%.%.%.%.%.%.%.%.%.%.%.%.%.%.%.%.%.%.%.%.%.%.%.%.%.%.%.%.%.%.%.%.%.%.%.%.%.%.%.%.%.%.%.%.%.%.%.%.",
"%.%.%.%.%.%.%.%.%.%.%.%.%.%.%.%.%.%.%.%.%.%.%.%.%.%.%.%.%.%.%.%.%.%.%.%.%.%.%.%.%.%.%.%.%.%.%.%.%.%.%.%.%.%.%.%.%.%.%.%.%.%.%.%.%.%.%.%.%.%.%.%.%.%.%.%.%.%.%.%."
};
