/* XPM */
static xpm_row_t const bomb_xpm_1[] = {
/* columns rows colors chars-per-pixel */
"80 60 163 2 ",
"   c #030203",
".  c #0B0906",
"X  c #0E0B09",
"o  c #120C06",
"O  c #130D0B",
"+  c #180F0D",
"@  c #17100E",
"#  c #1A110F",
"$  c #151211",
"%  c #1D1411",
"&  c #1F1E1C",
"*  c #211613",
"=  c #241915",
"-  c #261C19",
";  c #291E1B",
":  c #25211E",
">  c #2B211E",
",  c #1C1E23",
"<  c #222221",
"1  c #2E2422",
"2  c #2A2826",
"3  c #2A2729",
"4  c #2D2A2B",
"5  c #312724",
"6  c #322926",
"7  c #352D2B",
"8  c #382F2D",
"9  c #36312E",
"0  c #39302E",
"q  c #2E2E30",
"w  c #343232",
"e  c #3C3533",
"r  c #3E3936",
"t  c #3D3B39",
"y  c #403936",
"u  c #433D3B",
"i  c #45403F",
"p  c #393E47",
"a  c #454241",
"s  c #4A4544",
"d  c #4D4847",
"f  c #494548",
"g  c #4D4B4B",
"h  c #524E4D",
"j  c #54504E",
"k  c #464856",
"l  c #484850",
"z  c #514F52",
"x  c #555353",
"c  c #595656",
"v  c #5A5856",
"b  c #55545D",
"n  c #595758",
"m  c #5C5B5A",
"M  c #615E5D",
"N  c #61605F",
"B  c #5A5962",
"V  c #5A6071",
"C  c #646363",
"Z  c #696666",
"A  c #696967",
"S  c #6D6C6C",
"D  c #706E6E",
"F  c #71706F",
"G  c #757474",
"H  c #797777",
"J  c #7A7977",
"K  c #7B7B7A",
"L  c #BA904F",
"P  c #AC8A51",
"I  c #BB9455",
"U  c #B7955B",
"Y  c #80807F",
"T  c #BBA17F",
"R  c #C29E62",
"E  c #CEA264",
"W  c #C7A56A",
"Q  c #D3AE74",
"!  c #D2AF78",
"~  c #DEB273",
"^  c #D8B97D",
"/  c #E6B87A",
"(  c #E7D873",
")  c #EEE573",
"_  c #FDFD7B",
"`  c #767C94",
"'  c #797F96",
"]  c #7A8197",
"[  c #7D849C",
"{  c #828282",
"}  c #8C8787",
"|  c #8E8C8C",
" . c #97928A",
".. c #80879F",
"X. c #95949D",
"o. c #989F9F",
"O. c #A69787",
"+. c #A99A8C",
"@. c #9AA19F",
"#. c #A1A09E",
"$. c #A5AB9C",
"%. c #BAAA9D",
"&. c #B9BE94",
"*. c #B2B798",
"=. c #848DA6",
"-. c #00b140",
";. c #8B92A6",
":. c #8A93A8",
">. c #949DA2",
",. c #9C9AA4",
"<. c #A39FA6",
"1. c #9CA3A9",
"2. c #A8A7A7",
"3. c #A7AAAA",
"4. c #BAADA4",
"5. c #BBB7A6",
"6. c #B1B1B1",
"7. c #DBB782",
"8. c #C9B198",
"9. c #D0B69A",
"0. c #E2BC8D",
"q. c #E3BD91",
"w. c #C6B3A4",
"e. c #BFC18F",
"r. c #BFC4AA",
"t. c #CCCF8C",
"y. c #CED18B",
"u. c #D1D38B",
"i. c #FBCB8E",
"p. c #E7C192",
"a. c #EAC595",
"s. c #E4C89C",
"d. c #F4CA96",
"f. c #FBCD93",
"g. c #F3CD9D",
"h. c #F9CF99",
"j. c #F5D09F",
"k. c #FBD19B",
"l. c #DEE097",
"z. c #E6E784",
"x. c #EDEF87",
"c. c #F3E381",
"v. c #F7F880",
"b. c #FBFC84",
"n. c #EBE992",
"m. c #EAED9E",
"M. c #F7ED90",
"N. c #F1E49E",
"B. c #FBFA96",
"V. c #C2C7AA",
"C. c #CACFA9",
"Z. c #CCD1A9",
"A. c #D8DAA8",
"S. c #EFCBA1",
"D. c #F6CFA1",
"F. c #F6D1A2",
"G. c #FAD4A3",
"H. c #EAEDA0",
"J. c #FCFDAF",
"K. c #FBFEBC",
"L. c #E3E3E3",
"P. c #FAFEF2",
"I. c #F9FFFD",
/* pixels */
"-.-.-.-.-.-.-.-.-.-.-.-.-.-.-.-.-.-.-.-.-.-.-.-.-.-.-.-.-.-.-.-.-.-.-.-.-.-.-.-.-.-.-.-.-.-.-.-.-.-.-.-.-.-.-.-.-.-.-.-.-.-.-.-.-.-.-.-.-.-.-.-.-.-.-.-.-.-.-.-.",
"-.-.-.-.-.-.-.-.-.-.-.-.-.-.-.-.-.-.-.-.-.-.-.-.-.-.-.-.-.-.-.-.-.-.-.-.-.-.-.-.-.-.-.-.-.-.-.-.-.-.-.-.-.-.-.-.-.-.-.-.-.-.-.-.-.-.-.-.-.-.-.-.-.-.-.-.-.-.-.-.",
"-.-.-.-.-.-.-.-.-.-.-.-.-.-.-.-.-.-.-.-.-.-.-.-.-.-.-.-.-.-.-.-.-.-.-.-.-.-.-.-.-.-.-.-.-.-.-.-.-.-.-.-.-.-.-.-.-.-.-.-.-.-.-.-.-.-.-.-.-.-.-.-.-.-.-.-.-.-.-.-.",
"-.-.-.-.-.-.-.-.-.-.-.-.-.-.-.-.-.-.-.-.-.-.-.-.-.-.-.-.-.-.-.-.-.-.-.-.-.-.-.-.-.-.=.-.-.-.-.-.-.-.-.-.-.-.-.-.-.-.-.-.-.-.-.-.-.-.-.-.-.-.-.-.-.-.-.-.-.-.-.-.",
"-.-.-.-.-.-.-.-.-.-.-.-.-.-.-.-.-.-.-.-.-.-.-.-.-.-.-.-.-.-.-.-.-.=.:.%.f.T d.h.h.h.k.O.4.=.-.-.-.-.-.-.-.-.-.-.-.-.-.-.-.-.-.-.-.-.-.-.-.-.-.-.-.-.-.-.-.-.-.-.",
"-.-.-.-.-.-.-.-.-.-.-.-.-.-.-.-.-.-.-.-.-.-.-.-.-.-.-.-.-.-.-.-.-.,.f.f.f./ ~ f.k.h.~ h.k.j.s.-.-.-.-.-.-.-.-.-.-.-.-.-.-.-.-.-.-.-.-.-.-.-.-.-.-.-.-.-.-.-.-.-.",
"-.-.-.-.-.-.-.-.-.-.-.-.-.-.-.-.-.-.-.-.-.-.-.-.-.-.-.-.-.-.-.-.=.f.f.f.f.f.E k.h.h.R k.G.G.F.F.-.-.-.-.-.-.-.-.-.-.-.-.-.-.-.-.-.-.-.-.-.-.-.-.-.-.-.-.-.-.-.-.",
"-.-.-.-.-.-.-.-.-.-.-.-.-.-.-.-.-.-.-.-.-.-.-.-.-.-.-.-.-.-.-.i.~ L f.f.d.-.-.:.-.-.=.w.G.k.d.E <.-.-.-.-.-.-.-.-.-.-.-.-.-.-.-.-.-.-.-.-.-.-.-.-.-.-.-.-.-.-.-.",
"-.-.-.-.-.-.-.-.-.-.-.-.-.-.-.-.-.-.-.-.-.-.-.-.-.-.-.-.-.-.p.i.i.f. .=.-.-.-.-.-.-.-.-.-.F.U j.G.V.-.-.-.-.-.-.-.-.-.-.-.-.-.-.-.-.-.-.-.-.-.-.-.-.-.-.-.-.-.-.",
"-.-.-.-.-.-.-.-.-.-.-.-.-.-.-.-.-.-.-.-.-.-.-.-.-.-.-.-.-.-.i.i.f.f.=.=.-.-.-.-.-.-.-.-.-.-.^ G.G.G.-.-.-.-.-.-.-.-.=.$.>.-.=.8.$.-.-.-.-.-.-.-.-.-.-.-.-.-.-.-.",
"-.-.-.-.-.-.-.-.-.-.-.-.-.-.-.-.-.-.-.-.-.-.-.-.-.-.-.-.-.+.i.f.f.-.:.-.-.-.-.-.-.-.-.-.-.-.-.G.G.G.G.-.-.-.-.-.-.-.-.*.>.Z.=.y.y.1.A.=.-.e.:.-.-.-.-.-.-.-.-.-.",
"-.-.-.-.-.-.-.-.-.-.-.-.-.-.-.-.-.-.-.-.-.-.-.-.-.-.-.-.-.7.E I =.-.-.-.-.-.-.-.-.-.-.-.-.-.-.w.G.7.W -.-.-.-.r.-.-.1.-.y.A.[ y.m.=.-.:.y.-.-.-.-.-.-.-.-.-.-.-.",
"-.-.-.-.-.-.-.-.-.-.-.-.-.-.-.-.-.-.-.-.-.-.-.-.-.-.w < $.k.j.N.-.-.-.-.-.-.-.-.-.-.-.-.-.-.-.-.8.Q D.F.-.-.-.3.:.[ z.C.e.b.l._ H.1.y.y.1.-.-.-.-.-.-.-.-.-.-.-.",
"-.-.-.-.-.-.-.-.-.-.-.-.-.-.-.-.-.-.-.-.-.-.-.-.-.-.4 z ] < : < S V -.-.-.-.-.-.-.-.-.-.-.-.-.-.o.G.G.D.-.-.-.-.-.y.y.x.b.b._ _ n.v._ =.=.V.:.-.-.-.-.-.-.-.-.-.",
"-.-.-.-.-.-.-.-.-.-.-.-.-.-.-.-.-.-.-.-.-.-.-.-.-.k 2 C C < < g g < -.-.-.-.-.-.-.-.-.-.-.-.-.-.-.F.F.F.S.-.-.-.-.:.[ l._ P.I.K.b.H.H.-.=.-.-.-.-.-.-.-.-.-.-.-.",
"-.-.-.-.-.-.-.-.-.-.-.-.-.-.-.-.-.-.-.-.-.-.-.-.-.q 3 { d < < l g < -.-.-.-.-.-.-.-.-.-.-.-.-.-.-.4.G.D.! -.-.Z.Z.Z._ _ P.I.I.I._ z.y.y.y.-.-.-.-.-.-.-.-.-.-.-.",
"-.-.-.-.-.-.-.-.-.-.-.-.-.-.-.-.-.-.=.l           4 < J < < < x q , -.-.-.-.-.-.-.-.-.-.-.-.-.-.-.-.7.R 0.D.-.-.$.>.u.n._ J._ _ b.B.b.y.y.y.y.-.-.-.-.-.-.-.-.-.",
"-.-.-.-.-.-.-.-.-.-.-.-.-.-.-.`         X K ] { Y ] Y | q 2 < l < ] -.-.-.-.-.-.-.-.-.-.-.-.-.-.-.-.-.F.S.g.4.=.@.u.y.M._ B.B._ u.H.Z.u.&.-.-.-.-.-.-.-.-.-.-.-.",
"-.-.-.-.-.-.-.-.-.-.-.-.-.,   . S { ] Y Y Y K K K K K K J G G J t   , -.-.-.-.-.-.-.-.-.-.-.-.-.-.-.-.g.g.g.g.P -.-.=.N._ c.n._ t.y.-.Z.-.-.-.-.-.-.-.-.-.-.-.-.",
"-.-.-.-.-.-.-.-.-.-.-.k . a K K K J G J G J G G F G F F F F F S S F w   p -.-.-.-.-.-.-.-.-.-.-.-.-.-.-.g.g.! P -.-.g.^ ) ( y.=.-.y.:.-.5.-.-.-.-.-.-.-.-.-.-.-.",
"-.-.-.-.-.-.-.-.-.=.. - H G  .6.6. .F F D F F D S A A C A A C C C C N N X   [ -.-.-.-.-.-.-.-.-.-.-.-.-.-.s.U g.j.P s.0.0.c.$.-.,.-.y.-.V.-.-.-.-.-.-.-.-.-.-.-.",
"-.-.-.-.-.-.-.-.=.o D D D 3.L.L.2.Y A N N N N N N N N N m N m m m n n b n t   -.-.-.-.-.-.-.-.-.-.-.-.-.-.-.,.a.a.P a.q.0.q.;.-.-.-.-.-.-.-.-.-.-.-.-.-.-.-.-.-.",
"-.-.-.-.-.-.-.[ # A Z Z #.L.L.L.#.N N M M M N v v v v v x x j x z j z z z z a   ` -.-.-.-.-.-.-.-.-.-.-.-.-.-.9.a.X.8.%.;.-.-.-.-.<.-.-.-.-.-.-.-.-.-.-.-.-.-.-.",
"-.-.-.-.-.-.[ O M M M | L.L.L.$.c M v x x x x j j h h h g g g g d d d a a a a p   [ -.-.-.-.-.-.-.-.-.-.-.-.-.-.=.=.-.-.-.-.-.-.-.-.-.-.-.-.-.-.-.-.-.-.-.-.-.-.",
"-.-.-.-.-.-.O c v c c #.L.L.#.v j j j j h d d g d s s a a a a i i u i t t t t t w . [ -.-.-.-.-.-.-.-.-.-.-.-.-.=.-.-.-.-.-.-.-.-.-.-.-.-.-.-.-.-.-.-.-.-.-.-.-.",
"-.-.-.-.-.O j j h h h J } D i d i i i i i i i i i i i u u t t t t w r w e w w w 9 < X -.-.-.-.-.-.-.-.-.-.-.-.-.-.-.-.-.-.-.-.-.-.-.-.-.-.-.-.-.-.-.-.-.-.-.-.-.",
"-.-.-.-.# 9 d d i i i i i i i i u u i u i r r r r w w e w 0 9 9 w 9 q 4 q 4 2 2 3 2 . $ -.-.-.-.-.-.-.-.-.-.-.-.-.-.-.-.-.-.-.-.-.-.-.-.-.-.-.-.-.-.-.-.-.-.-.-.",
"-.-.-.-.# i i i i u u i y y y e y y 0 y 0 9 9 0 9 9 # $ O X X X X X @ @ : : : : < - , X -.-.-.-.-.-.-.-.-.-.-.-.-.-.-.-.-.-.-.-.-.-.-.-.-.-.-.-.-.-.-.-.-.-.-.-.",
"-.-.=.% y r y e y y e 0 0 0 0 9 7 7 4 6 6 : O O o o o X @ X X @ O o X X o X X o @ % $ @ X -.-.-.-.-.-.-.-.-.-.-.-.-.-.-.-.-.-.-.-.-.-.-.-.-.-.-.-.-.-.-.-.-.-.-.",
"-.-.-.# 0 8 8 9 8 8 7 6 7 6 5 5 5 > - @ @ @ + O @ @ @ o @ o o o X O O X O o X X X X O X X -.-.-.-.-.-.-.-.-.-.-.-.-.-.-.-.-.-.-.-.-.-.-.-.-.-.-.-.-.-.-.-.-.-.-.",
"-.-.q ; 6 5 5 1 > > > > > : : : # # # @ @ @ @ @ @ @ o @ @ o @ @ O O o @ o X @ X X O X X O & -.-.-.-.-.-.-.-.-.-.-.-.-.-.-.-.-.-.-.-.-.-.-.-.-.-.-.-.-.-.-.-.-.-.",
"-.-.* 1 1 > > ; > > - - = & # # # # # # @ @ @ @ @ @ # @ @ @ @ o O O o @ @ @ o @ O O O O O X -.-.-.-.-.-.-.-.-.-.-.-.-.-.-.-.-.-.-.-.-.-.-.-.-.-.-.-.-.-.-.-.-.-.",
"-.-.* = = = = = % = % % % # % # # # % # # # # # # # # + + + + + # O + + O O @ @ @ o @ o O o -.-.-.-.-.-.-.-.-.-.-.-.-.-.-.-.-.-.-.-.-.-.-.-.-.-.-.-.-.-.-.-.-.-.",
"-.-.= * * * * % * % * % = * % # * % % # # % % # % # % # + % + % # # + + @ + @ O O O @ O @ @ -.-.-.-.-.-.-.-.-.-.-.-.-.-.-.-.-.-.-.-.-.-.-.-.-.-.-.-.-.-.-.-.-.-.",
"-.1 = = = = * * * * % * * * % * * * % % * % # % # # # % % % % + # % + + # @ O @ @ + O + @ O 2 =.-.-.-.-.-.-.-.-.-.-.-.-.-.-.-.-.-.-.-.-.-.-.-.-.-.-.-.-.-.-.-.-.",
"-.- = = = = = = * = = * = * * * * * * * % * * * % % # % % # + % % + # % # # # # # @ + + @ @ 2 =.-.-.-.-.-.-.-.-.-.-.-.-.-.-.-.-.-.-.-.-.-.-.-.-.-.-.-.-.-.-.-.-.",
"-.- - - = = = = = = = = = = = * * * * * * * * % % * % % + * # + # # % # # # % # + % + + + + 3 -.-.-.-.-.-.-.-.-.-.-.-.-.-.-.-.-.-.-.-.-.-.-.-.-.-.-.-.-.-.-.-.-.",
"-.- ; ; ; ; ; ; - = = = = = = = % = = = * * * * * * * * * * * * * % * # % % % # % % # % % % 4 -.-.-.-.-.-.-.-.-.-.-.-.-.-.-.-.-.-.-.-.-.-.-.-.-.-.-.-.-.-.-.-.-.",
"-.> > > ; ; ; ; ; ; ; = = - = = = = = = = = * = * * * * * * * * * * * % % % % % % % % % % + 4 -.-.-.-.-.-.-.-.-.-.-.-.-.-.-.-.-.-.-.-.-.-.-.-.-.-.-.-.-.-.-.-.-.",
"-.> > > > > > > ; ; ; ; ; ; ; ; ; = = = = = = = = * = = * * * * * * * * * * % * % % % % % % 7 -.-.-.-.-.-.-.-.-.-.-.-.-.-.-.-.-.-.-.-.-.-.-.-.-.-.-.-.-.-.-.-.-.",
"-.-.1 1 > > > > > > > > > ; ; ; ; ; ; = ; = ; = = = = = = = = = * * = * * * * * * * * * % % =.-.-.-.-.-.-.-.-.-.-.-.-.-.-.-.-.-.-.-.-.-.-.-.-.-.-.-.-.-.-.-.-.-.",
"-.-.5 5 5 5 1 5 1 1 > 1 > > > > ; ; > ; ; ; ; ; - ; ; - = = = = = = = * * = * * * * * * * * -.-.-.-.-.-.-.-.-.-.-.-.-.-.-.-.-.-.-.-.-.-.-.-.-.-.-.-.-.-.-.-.-.-.",
"-.-.5 7 7 5 6 5 1 1 1 1 1 1 > 1 > > > > ; > ; ; ; ; ; ; - - = - = = = = = = = * * = * * * * -.-.-.-.-.-.-.-.-.-.-.-.-.-.-.-.-.-.-.-.-.-.-.-.-.-.-.-.-.-.-.-.-.-.",
"-.-.7 7 8 8 7 7 7 5 5 5 1 1 1 1 5 > 1 > > > > > > ; ; > ; ; ; - ; ; - - = - = = = = = * * = -.-.-.-.-.-.-.-.-.-.-.-.-.-.-.-.-.-.-.-.-.-.-.-.-.-.-.-.-.-.-.-.-.-.",
"-.-.-.7 e 8 8 8 8 8 8 6 5 5 5 5 5 5 5 > 5 1 1 > > > > > > ; > ; ; ; ; ; ; ; ; - = = - u = =.-.-.-.-.-.-.-.-.-.-.-.-.-.-.-.-.-.-.-.-.-.-.-.-.-.-.-.-.-.-.-.-.-.-.",
"-.-.-.8 y y 0 y y 0 0 0 0 8 8 5 5 6 5 5 5 5 5 1 5 5 > > > > 5 > 1 > > > > ; > > ; : 0 ; - -.-.-.-.-.-.-.-.-.-.-.-.-.-.-.-.-.-.-.-.-.-.-.-.-.-.-.-.-.-.-.-.-.-.-.",
"-.-.-.=.8 y y y y e y y y 0 8 8 y 8 8 6 8 6 8 8 6 6 6 5 6 6 5 5 5 5 5 1 > > > > > 6 u ; [ -.-.-.-.-.-.-.-.-.-.-.-.-.-.-.-.-.-.-.-.-.-.-.-.-.-.-.-.-.-.-.-.-.-.-.",
"-.-.-.-.e u u u y y y y y y y y 8 y 8 y y 8 y 8 8 6 y 8 8 8 7 6 6 6 6 5 5 5 5 > 7 i 1 > =.-.-.-.-.-.-.-.-.-.-.-.-.-.-.-.-.-.-.-.-.-.-.-.-.-.-.-.-.-.-.-.-.-.-.-.",
"-.-.-.-.-.e a u z u u u u u u y u y y y y y y y y 8 8 8 8 8 8 6 8 8 7 7 7 6 6 u f 6 3 -.-.-.-.-.-.-.-.-.-.-.-.-.-.-.-.-.-.-.-.-.-.-.-.-.-.-.-.-.-.-.-.-.-.-.-.-.",
"-.-.-.-.-.' e f a z i i i u u u u u y u y y y y y y y y y y 8 y 8 0 8 8 8 8 g g 0 5 ' -.-.-.-.-.-.-.-.-.-.-.-.-.-.-.-.-.-.-.-.-.-.-.-.-.-.-.-.-.-.-.-.-.-.-.-.-.",
"-.-.-.-.-.-.B e s f x h i s s i i i i i u u u u u y y y y y y y y e e e u g g e 8 B -.-.-.-.-.-.-.-.-.-.-.-.-.-.-.-.-.-.-.-.-.-.-.-.-.-.-.-.-.-.-.-.-.-.-.-.-.-.",
"-.-.-.-.-.-.-.r i d d g c f s s s i s i u u u u u y u u y y y u y y t g g g a e e -.-.-.-.-.-.-.-.-.-.-.-.-.-.-.-.-.-.-.-.-.-.-.-.-.-.-.-.-.-.-.-.-.-.-.-.-.-.-.",
"-.-.-.-.-.-.-.-.b u h g d c x h d d d s s s s a s u i u i i u u s z h z g t r z -.-.-.-.-.-.-.-.-.-.-.-.-.-.-.-.-.-.-.-.-.-.-.-.-.-.-.-.-.-.-.-.-.-.-.-.-.-.-.-.",
"-.-.-.-.-.-.-.-.-.=.u h h h h c n c z d s d s s s s s s s d x x z j h d u 8 [ -.-.-.-.-.-.-.-.-.-.-.-.-.-.-.-.-.-.-.-.-.-.-.-.-.-.-.-.-.-.-.-.-.-.-.-.-.-.-.-.-.",
"-.-.-.-.-.-.-.-.-.-.-.u a x h h h c c c n n v c M x x c x x x x x g i s e =.-.-.-.-.-.-.-.-.-.-.-.-.-.-.-.-.-.-.-.-.-.-.-.-.-.-.-.-.-.-.-.-.-.-.-.-.-.-.-.-.-.-.",
"-.-.-.-.-.-.-.-.-.-.-.-...u d x x j x z x c v v c c c c c x h f d i e ..-.-.-.-.-.-.-.-.-.-.-.-.-.-.-.-.-.-.-.-.-.-.-.-.-.-.-.-.-.-.-.-.-.-.-.-.-.-.-.-.-.-.-.-.",
"-.-.-.-.-.-.-.-.-.-.-.-.-.-.-.f i d z x x j x z z z h z h g g y u -.-.-.-.-.-.-.-.-.-.-.-.-.-.-.-.-.-.-.-.-.-.-.-.-.-.-.-.-.-.-.-.-.-.-.-.-.-.-.-.-.-.-.-.-.-.-.",
"-.-.-.-.-.-.-.-.-.-.-.-.-.-.-.-.-.' l s a u a u u u u u u f ' -.-.-.-.-.-.-.-.-.-.-.-.-.-.-.-.-.-.-.-.-.-.-.-.-.-.-.-.-.-.-.-.-.-.-.-.-.-.-.-.-.-.-.-.-.-.-.-.-.",
"-.-.-.-.-.-.-.-.-.-.-.-.-.-.-.-.-.-.-.-.-.-.-.-.-.-.-.-.-.-.-.-.-.-.-.-.-.-.-.-.-.-.-.-.-.-.-.-.-.-.-.-.-.-.-.-.-.-.-.-.-.-.-.-.-.-.-.-.-.-.-.-.-.-.-.-.-.-.-.-.",
"-.-.-.-.-.-.-.-.-.-.-.-.-.-.-.-.-.-.-.-.-.-.-.-.-.-.-.-.-.-.-.-.-.-.-.-.-.-.-.-.-.-.-.-.-.-.-.-.-.-.-.-.-.-.-.-.-.-.-.-.-.-.-.-.-.-.-.-.-.-.-.-.-.-.-.-.-.-.-.-."
};
