/* XPM */
static xpm_row_t const bomb_xpm_5[] = {
/* columns rows colors chars-per-pixel */
"80 60 143 2 ",
"   c #030203",
".  c #0B0906",
"X  c #0E0B09",
"o  c #120C06",
"O  c #130D0B",
"+  c #180F0D",
"@  c #17100E",
"#  c #1A110F",
"$  c #151211",
"%  c #1D1411",
"&  c #1F1E1C",
"*  c #211613",
"=  c #241915",
"-  c #261C19",
";  c #291E1B",
":  c #25211E",
">  c #2B211E",
",  c #1C1E23",
"<  c #222221",
"1  c #2E2422",
"2  c #2A2826",
"3  c #2A2729",
"4  c #2D2A2B",
"5  c #312724",
"6  c #322926",
"7  c #352D2B",
"8  c #382F2D",
"9  c #36312E",
"0  c #39302E",
"q  c #2E2E30",
"w  c #343232",
"e  c #3C3533",
"r  c #3E3936",
"t  c #3D3B39",
"y  c #403936",
"u  c #433D3B",
"i  c #45403F",
"p  c #393E47",
"a  c #454241",
"s  c #4A4544",
"d  c #4D4847",
"f  c #494548",
"g  c #4D4B4B",
"h  c #524E4D",
"j  c #54504E",
"k  c #404350",
"l  c #484850",
"z  c #4B4D5C",
"x  c #514F52",
"c  c #555353",
"v  c #595656",
"b  c #5A5856",
"n  c #55545D",
"m  c #595758",
"M  c #5C5B5A",
"N  c #615E5D",
"B  c #61605F",
"V  c #5A5962",
"C  c #5A6071",
"Z  c #646363",
"A  c #696666",
"S  c #696967",
"D  c #6D6C6C",
"F  c #706E6E",
"G  c #71706F",
"H  c #757474",
"J  c #797777",
"K  c #7A7977",
"L  c #7B7B7A",
"P  c #BA904F",
"I  c #BE9453",
"U  c #80807F",
"Y  c #BBA17F",
"T  c #CEA264",
"R  c #DEB273",
"E  c #E6B87A",
"W  c #E7D873",
"Q  c #EEE573",
"!  c #F4F57E",
"~  c #FDFD7B",
"^  c #767C94",
"/  c #797F96",
"(  c #7A8197",
")  c #7D849C",
"_  c #828282",
"`  c #8C8787",
"'  c #8E8C8C",
"]  c #9C9285",
"[  c #92918F",
"{  c #80879F",
"}  c #A69787",
"|  c #A59E96",
" . c #9AA19F",
".. c #A1A09E",
"X. c #A5AB9C",
"o. c #BDAB9E",
"O. c #B9BE94",
"+. c #B2B798",
"@. c #848DA6",
"#. c #00b140",
"$. c #8F97A4",
"%. c #999CA3",
"&. c #9CA3A9",
"*. c #A4A3A2",
"=. c #A8A7A7",
"-. c #ADACAB",
";. c #BFAFA3",
":. c #B9BDA9",
">. c #B1B1B1",
",. c #DDBA83",
"<. c #C4B2A3",
"1. c #BFC18F",
"2. c #BFC4AA",
"3. c #CCCF8C",
"4. c #CED18B",
"5. c #D1D38B",
"6. c #D9DC93",
"7. c #D6DA9F",
"8. c #FBCB8E",
"9. c #F4CA96",
"0. c #FBCD93",
"q. c #F9CF99",
"w. c #FBD19B",
"e. c #E6E784",
"r. c #EEEF8E",
"t. c #F3E381",
"y. c #F7F880",
"u. c #FBFC84",
"i. c #EBE992",
"p. c #EAED9E",
"a. c #F7ED90",
"s. c #F1E49E",
"d. c #FBFA96",
"f. c #C2C7AA",
"g. c #CCD1A9",
"h. c #D8DAA8",
"j. c #FAD4A4",
"k. c #EAEDA0",
"l. c #FCFDAF",
"z. c #FBFEBC",
"x. c #E3E3E3",
"c. c #FAFEF2",
"v. c #F9FFFD",
/* pixels */
"#.#.#.#.#.#.#.#.#.#.#.#.#.#.#.#.#.#.#.#.#.#.#.#.#.#.#.#.#.#.#.#.#.#.#.#.#.#.#.#.#.#.#.#.#.#.#.#.#.#.#.#.#.#.#.#.#.#.#.#.#.#.#.#.#.#.#.#.#.#.#.#.#.#.#.#.#.#.#.#.",
"#.#.#.#.#.#.#.#.#.#.#.#.#.#.#.#.#.#.#.#.#.#.#.#.#.#.#.#.#.#.#.#.#.#.#.#.#.#.#.#.#.#.#.#.#.#.#.#.#.#.#.#.#.#.#.#.#.#.#.#.#.#.#.#.#.#.#.#.#.#.#.#.#.#.#.#.#.#.#.#.",
"#.#.#.#.#.#.#.#.#.#.#.#.#.#.#.#.#.#.#.#.#.#.#.#.#.#.#.#.#.#.#.#.#.#.#.#.#.#.#.#.#.#.#.#.#.#.#.#.#.#.#.#.#.#.#.#.#.#.#.#.#.#.#.#.#.#.#.#.#.#.#.#.#.#.#.#.#.#.#.#.",
"#.#.#.#.#.#.#.#.#.#.#.#.#.#.#.#.#.#.#.#.#.#.#.#.#.#.#.#.#.#.#.#.#.#.#.#.#.#.) #.#.#.#.@.#.#.#.#.#.#.#.#.#.#.#.#.#.#.#.#.#.#.#.#.#.#.#.#.#.#.#.#.#.#.#.#.#.#.#.#.",
"#.#.#.#.#.#.#.#.#.#.#.#.#.#.#.#.#.#.#.#.#.#.#.#.#.#.#.#.#.#.#.#.#.#.#.o.w.Y 0.w.q.w.w.} ;.#.X.#.#.#.1.X.#.#.#.#.#.#.#.#.#.#.#.#.#.#.#.#.#.#.#.#.#.#.#.#.#.#.#.#.",
"#.#.#.#.#.#.#.#.#.#.#.#.#.#.#.#.#.#.#.#.#.#.#.#.#.#.#.#.#.#.#.#.#.%.0.8.w.E R 0.q.q.R q.w.j.+.$.#.#.3.5.&.h.#.#.O.#.#.#.#.#.#.#.#.#.#.#.#.#.#.#.#.#.#.#.#.#.#.#.",
"#.#.#.#.#.#.#.#.#.#.#.#.#.#.#.#.#.#.#.#.#.#.#.#.#.#.#.#.#.#.#.#.#.8.0.0.0.0.T w.w.w.f.j.j.&.j.4.7.#.4.p.#.#.#.4.#.#.#.#.#.#.#.#.#.#.#.#.#.#.#.#.#.#.#.#.#.#.#.#.",
"#.#.#.#.#.#.#.#.#.#.#.#.#.#.#.#.#.#.#.#.#.#.#.#.#.#.#.#.#.#.#.0.E P 0.0.9.#.#.#.@.@.X.<.w.e.g.1.u.6.~ p.#.4.4.%.#.#.#.#.#.#.#.#.#.#.#.#.#.#.#.#.#.#.#.#.#.#.#.#.",
"#.#.#.#.#.#.#.#.#.#.#.#.#.#.#.#.#.#.#.#.#.#.#.#.#.#.#.#.#.#.9.8.8.8.] #.#.#.#.#.#.#.#.#.3.4.! y.~ ~ ~ r.! ~ #.#.2.#.#.#.#.#.#.#.#.#.#.#.#.#.#.#.#.#.#.#.#.#.#.#.",
"#.#.#.#.#.#.#.#.#.#.#.#.#.#.#.#.#.#.#.#.#.#.#.#.#.#.#.#.#.) 8.8.8.0.#.#.#.#.#.#.#.#.#.#.#.#.6.~ c.v.z.u.p.k.#.#.#.#.@.#.#.#.#.#.#.#.#.#.#.#.#.#.#.#.#.#.#.#.#.#.",
"#.#.#.#.#.#.#.#.#.#.#.#.#.#.#.#.#.#.#.#.#.#.#.#.#.#.#.#.#.| 8.8.8.#.#.#.#.#.#.#.#.#.g.g.g.~ ~ v.v.v.v.~ e.5.4.4.#.#.#.#.#.#.#.#.#.#.#.#.#.#.#.#.#.#.#.#.#.#.#.#.",
"#.#.#.#.#.#.#.#.#.#.#.#.#.#.#.#.#.#.#.#.#.#.#.#.#.#.#.#.#.,.T I #.#.#.#.#.#.#.#.#.#.#.X.#.4.i.~ l.~ ~ u.d.~ 4.4.3.4.#.#.#.#.#.#.#.#.#.#.#.#.#.#.#.#.#.#.#.#.#.#.",
"#.#.#.#.#.#.#.#.#.#.#.#.#.#.#.#.#.#.#.#.#.#.#.#.#.#.q < | s.w.j.#.#.#.#.#.#.#.#.#.#.#.&.5.5.a.~ d.d.~ 5.k.g.4.O.#.#.#.#.#.#.#.#.#.#.#.#.#.#.#.#.#.#.#.#.#.#.#.#.",
"#.#.#.#.#.#.#.#.#.#.#.#.#.#.#.#.#.#.#.#.#.#.#.#.#.#.4 x ( < < < D C #.#.#.#.#.#.#.#.#.#.#.#.k.~ t.i.~ 4.4.#.g.#.#.#.#.#.#.#.#.#.#.#.#.#.#.#.#.#.#.#.#.#.#.#.#.#.",
"#.#.#.#.#.#.#.#.#.#.#.#.#.#.#.#.#.#.#.#.#.#.#.#.#.l 4 B Z < < g g < ) #.#.#.#.#.#.#.#.#.#.#.#.Q W 5.#.#.4.#.#.:.#.#.#.#.#.#.#.#.#.#.#.#.#.#.#.#.#.#.#.#.#.#.#.#.",
"#.#.#.#.#.#.#.#.#.#.#.#.#.#.#.#.#.#.#.#.#.#.#.#.#.q 2 _ l < < g g < #.#.#.#.#.#.#.#.#.#.#.#.#.#.t.*.#.%.#.4.#.f.#.#.#.#.#.#.#.#.#.#.#.#.#.#.#.#.#.#.#.#.#.#.#.#.",
"#.#.#.#.#.#.#.#.#.#.#.#.#.#.#.#.#.#.#.k           4 < H < < < c q , #.#.#.#.#.#.#.#.#.#.#.#.#.#.#.#.#.#.#.#.#.#.#.#.#.#.#.#.#.#.#.#.#.#.#.#.#.#.#.#.#.#.#.#.#.#.",
"#.#.#.#.#.#.#.#.#.#.#.#.#.#.#.^         @ K ( _ U U _ ' q 4 < l < ( #.#.#.#.#.#.#.#.#.#.#.#.#.#.#.#.#.#. .#.#.#.#.#.#.#.#.#.#.#.#.#.#.#.#.#.#.#.#.#.#.#.#.#.#.#.",
"#.#.#.#.#.#.#.#.#.#.#.@.#.,   . D _ _ ^ U U U K ( K L K K H H K t   , #.#.#.#.#.#.#.#.#.#.#.#.#.#.#.#.#.#.#.#.#.#.#.#.#.#.#.#.#.#.#.#.#.#.#.#.#.#.#.#.#.#.#.#.#.",
"#.#.#.#.#.#.#.#.#.#.#.z . a L L K K J J K H H G G G G G G G G S S G w   p #.#.#.#.#.#.#.#.#.#.#.#.#.#.#.#.#.#.#.#.#.#.#.#.#.#.#.#.#.#.#.#.#.#.#.#.#.#.#.#.#.#.#.",
"#.#.#.#.#.#.#.#.#.#.. - H H [ >.>.[ G G F G G F D S S S S Z Z Z Z Z B B X   #.#.#.#.#.#.#.#.#.#.#.#.#.#.#.#.#.#.#.#.#.#.#.#.#.#.#.#.#.#.#.#.#.#.#.#.#.#.#.#.#.#.",
"#.#.#.#.#.#.#.#.@.o F F G =.x.x.-.L A B B B B B B B B B B B M M M M M n b p   ) #.#.#.#.#.#.#.#.#.#.#.#.#.#.#.#.#.#.#.#.#.#.#.#.#.#.#.#.#.#.#.#.#.#.#.#.#.#.#.#.",
"#.#.#.#.#.#.#.) # A A A ..x.x.x.X.N B N N N B b b b b b c c x j c x x g g g a   ^ #.#.#.#.#.#.#.#.#.#.#.#.#.#.#.#.#.#.#.#.#.#.#.#.#.#.#.#.#.#.#.#.#.#.#.#.#.#.#.",
"#.#.#.#.#.#.) O B N N ' x.x.x.X.N v v b j b j j j h h h g g g g d d f a a a a k   ) #.#.#.#.#.#.#.#.#.#.#.#.#.#.#.#.#.#.#.#.#.#.#.#.#.#.#.#.#.#.#.#.#.#.#.#.#.#.",
"#.#.#.#.#.#.O b b v v ..x.x...b h j h h h g h d s s s s s a a i i i i t t t t t e . #.#.#.#.#.#.#.#.#.#.#.#.#.#.#.#.#.#.#.#.#.#.#.#.#.#.#.#.#.#.#.#.#.#.#.#.#.#.",
"#.#.#.#.@.@ j j h h d K ` F i d i s s i a a i i i u i t u y r t t w e w e w w w w < . ) #.#.#.#.#.#.#.#.#.#.#.#.#.#.#.#.#.#.#.#.#.#.#.#.#.#.#.#.#.#.#.#.#.#.#.#.",
"#.#.#.#.@ 0 d d i i i i i i i i u i u u y r r r r w e w w w 9 9 9 q 9 4 q q 2 2 3 3 . $ #.#.#.#.#.#.#.#.#.#.#.#.#.#.#.#.#.#.#.#.#.#.#.#.#.#.#.#.#.#.#.#.#.#.#.#.",
"#.#.#.#.# i i i i i i i y r r r y y 0 0 9 9 9 9 9 9 % $ O o X X . O @ @ : : : : & & & . #.#.#.#.#.#.#.#.#.#.#.#.#.#.#.#.#.#.#.#.#.#.#.#.#.#.#.#.#.#.#.#.#.#.#.#.",
"#.#.#.% y r r e y y e 0 0 0 0 9 9 7 4 7 4 ; o @ O X o @ o O X O O o o X o O X X $ % $ $ . #.#.#.#.#.#.#.#.#.#.#.#.#.#.#.#.#.#.#.#.#.#.#.#.#.#.#.#.#.#.#.#.#.#.#.",
"#.#.#.$ 0 8 8 8 7 7 7 6 7 6 6 > 1 > = @ @ O @ @ @ @ o O @ o o o X o O X O . X X O X O O X #.#.#.#.#.#.#.#.#.#.#.#.#.#.#.#.#.#.#.#.#.#.#.#.#.#.#.#.#.#.#.#.#.#.#.",
"#.#.7 ; 6 6 6 1 5 > 1 > > > : : # # # @ @ @ O O O O O @ @ @ o @ O O o @ o X O O X X o X O & #.#.#.#.#.#.#.#.#.#.#.#.#.#.#.#.#.#.#.#.#.#.#.#.#.#.#.#.#.#.#.#.#.#.",
"#.#.% 1 > > > ; > = > = = & # # % # # # # # # # @ @ # @ O @ @ @ O O o @ @ @ O o O O O O X O #.#.#.#.#.#.#.#.#.#.#.#.#.#.#.#.#.#.#.#.#.#.#.#.#.#.#.#.#.#.#.#.#.#.",
"#.#.* = = = = = * * * % % % % % % # % # + # # % % + + + + + + + $ + O O O O # O O O O O O O #.#.#.#.#.#.#.#.#.#.#.#.#.#.#.#.#.#.#.#.#.#.#.#.#.#.#.#.#.#.#.#.#.#.",
"#.#.= * * = % * % * % % * % % % % % % % % % % # + % # + # % + # + + # # # O + O O O + O @ O #.#.#.#.#.#.#.#.#.#.#.#.#.#.#.#.#.#.#.#.#.#.#.#.#.#.#.#.#.#.#.#.#.#.",
"#.1 = = = * * * = * % * * * * % % % % % % % % % % % % % % + # # % # # # # + # $ # O + + O O 3 #.#.#.#.#.#.#.#.#.#.#.#.#.#.#.#.#.#.#.#.#.#.#.#.#.#.#.#.#.#.#.#.#.",
"#.= = = = = = = = * = * * = % * * * * * % % * % % % % % % % % # % # + # # # # # # + + + # @ 3 #.#.#.#.#.#.#.#.#.#.#.#.#.#.#.#.#.#.#.#.#.#.#.#.#.#.#.#.#.#.#.#.#.",
"#.; - - = = - = = = = = = = = * * * * * * * * % * % % * # % % # % % % # % # # # # # # # # # 4 #.#.#.#.#.#.#.#.#.#.#.#.#.#.#.#.#.#.#.#.#.#.#.#.#.#.#.#.#.#.#.#.#.",
"#.; ; ; ; ; ; - = = = = = = = = = * = = * * * * * * % * * * * % % # * # % % # # % # # # # # 4 #.#.#.#.#.#.#.#.#.#.#.#.#.#.#.#.#.#.#.#.#.#.#.#.#.#.#.#.#.#.#.#.#.",
"#.> > ; ; ; ; ; ; ; ; - - - = = = = = = * = = = * * * * * * * * * * * % * # * % # # % # # % 4 #.#.#.#.#.#.#.#.#.#.#.#.#.#.#.#.#.#.#.#.#.#.#.#.#.#.#.#.#.#.#.#.#.",
"#.> > > > > > ; ; ; ; ; - ; ; - ; ; = = = = = = = * = * = * * * * * * * * * % * * % * % % % 4 #.#.#.#.#.#.#.#.#.#.#.#.#.#.#.#.#.#.#.#.#.#.#.#.#.#.#.#.#.#.#.#.#.",
"#.#.1 1 1 1 > > ; ; 1 > ; ; ; ; ; ; ; - = ; = = = = = = = = * * * * = * * * * * * # * * * % @.#.#.#.#.#.#.#.#.#.#.#.#.#.#.#.#.#.#.#.#.#.#.#.#.#.#.#.#.#.#.#.#.#.",
"#.#.5 5 5 1 5 1 1 1 > > > 1 1 ; ; ; > > ; ; ; ; ; ; ; = = = = = = = * = = = * = * * * * % * #.#.#.#.#.#.#.#.#.#.#.#.#.#.#.#.#.#.#.#.#.#.#.#.#.#.#.#.#.#.#.#.#.#.",
"#.#.5 6 7 6 5 5 1 5 1 5 1 1 > 1 > > > > > > ; ; ; ; ; ; ; = ; = - = = = = = = = * = * = * * #.#.#.#.#.#.#.#.#.#.#.#.#.#.#.#.#.#.#.#.#.#.#.#.#.#.#.#.#.#.#.#.#.#.",
"#.#.7 8 8 8 7 7 7 5 5 5 5 1 1 1 5 > > > > > > > > ; ; ; ; ; ; ; - - - - - = = = = = = * * * #.#.#.#.#.#.#.#.#.#.#.#.#.#.#.#.#.#.#.#.#.#.#.#.#.#.#.#.#.#.#.#.#.#.",
"#.#.#.7 0 8 e 8 0 0 8 6 5 5 5 5 5 5 5 1 5 > > > 1 > > > > > > ; ; ; ; ; ; - ; - - = = t = #.#.#.#.#.#.#.#.#.#.#.#.#.#.#.#.#.#.#.#.#.#.#.#.#.#.#.#.#.#.#.#.#.#.#.",
"#.#.#.8 y y y e 0 0 e 0 0 8 8 5 5 5 5 > 5 5 5 5 1 1 1 > > > 1 1 > 5 > ; ; ; ; ; - - e ; ; #.#.#.#.#.#.#.#.#.#.#.#.#.#.#.#.#.#.#.#.#.#.#.#.#.#.#.#.#.#.#.#.#.#.#.",
"#.#.#.#.8 y y y y e y y y 0 8 0 y 8 6 8 8 8 y 5 7 5 7 5 5 5 5 5 5 5 5 5 5 > > > ; 5 y ; ) #.#.#.#.#.#.#.#.#.#.#.#.#.#.#.#.#.#.#.#.#.#.#.#.#.#.#.#.#.#.#.#.#.#.#.",
"#.#.#.#.0 u y u y y y y y y y y 8 y y y 8 8 8 y 8 8 8 8 8 8 6 5 6 6 5 5 5 5 5 5 8 s 1 > #.#.#.#.#.#.#.#.#.#.#.#.#.#.#.#.#.#.#.#.#.#.#.#.#.#.#.#.#.#.#.#.#.#.#.#.",
"#.#.#.#.#.e i i h u u u u u u u y y y y y 0 y y 8 8 0 8 7 8 8 7 8 8 7 7 6 6 6 u s 6 1 #.#.#.#.#.#.#.#.#.#.#.#.#.#.#.#.#.#.#.#.#.#.#.#.#.#.#.#.#.#.#.#.#.#.#.#.#.",
"#.#.#.#.#./ e f i x i u u u u u u u u u u y y y y y y y y y 0 y 0 0 8 8 w 8 g d w 5 ^ #.#.#.#.#.#.#.#.#.#.#.#.#.#.#.#.#.#.#.#.#.#.#.#.#.#.#.#.#.#.#.#.#.#.#.#.#.",
"#.#.#.#.#.#.V e s f x x u s s u u i u u u u u u u y y y y y y y y e e e u h d t 8 V #.#.#.#.#.#.#.#.#.#.#.#.#.#.#.#.#.#.#.#.#.#.#.#.#.#.#.#.#.#.#.#.#.#.#.#.#.#.",
"#.#.#.#.#.#.#.r i d d h v d d s s s s i u s u u u u u u y u y y y y y g g g a e e #.#.#.#.#.#.#.#.#.#.#.#.#.#.#.#.#.#.#.#.#.#.#.#.#.#.#.#.#.#.#.#.#.#.#.#.#.#.#.",
"#.#.#.#.#.#.#.#.n i h d d v v h f d d d s s a s s u i i i u u u s h x h h y y c #.#.#.#.#.#.#.#.#.#.#.#.#.#.#.#.#.#.#.#.#.#.#.#.#.#.#.#.#.#.#.#.#.#.#.#.#.#.#.#.",
"#.#.#.#.#.#.#.#.#.@.u h h h h m v v h d d d d s d s i d i h c c x x x d u 8 ) @.#.#.#.#.#.#.#.#.#.#.#.#.#.#.#.#.#.#.#.#.#.#.#.#.#.#.#.#.#.#.#.#.#.#.#.#.#.#.#.#.",
"#.#.#.#.#.#.#.#.#.#.#.u s c h h h v m m v v v m N v c c v c c c c h u s w #.#.#.#.#.#.#.#.#.#.#.#.#.#.#.#.#.#.#.#.#.#.#.#.#.#.#.#.#.#.#.#.#.#.#.#.#.#.#.#.#.#.#.",
"#.#.#.#.#.#.#.#.#.#.#.#.{ u d x c c x h v v v v c v v v c c j d d i e { #.#.#.#.#.#.#.#.#.#.#.#.#.#.#.#.#.#.#.#.#.#.#.#.#.#.#.#.#.#.#.#.#.#.#.#.#.#.#.#.#.#.#.#.",
"#.#.#.#.#.#.#.#.#.#.#.#.#.#.#.s i f x c c c c x h x x h h h h y u #.#.#.#.#.#.#.#.#.#.#.#.#.#.#.#.#.#.#.#.#.#.#.#.#.#.#.#.#.#.#.#.#.#.#.#.#.#.#.#.#.#.#.#.#.#.#.",
"#.#.#.#.#.#.#.#.#.#.#.#.#.#.#.#.#./ l s a u a u u u u u u f ^ #.#.#.#.#.#.#.#.#.#.#.#.#.#.#.#.#.#.#.#.#.#.#.#.#.#.#.#.#.#.#.#.#.#.#.#.#.#.#.#.#.#.#.#.#.#.#.#.#.",
"#.#.#.#.#.#.#.#.#.#.#.#.#.#.#.#.#.#.#.#.#.@.#.#.#.#.#.#.#.#.#.#.#.#.#.#.#.#.#.#.#.#.#.#.#.#.#.#.#.#.#.#.#.#.#.#.#.#.#.#.#.#.#.#.#.#.#.#.#.#.#.#.#.#.#.#.#.#.#.#.",
"#.#.#.#.#.#.#.#.#.#.#.#.#.#.#.#.#.#.#.#.#.#.#.#.#.#.#.#.#.#.#.#.#.#.#.#.#.#.#.#.#.#.#.#.#.#.#.#.#.#.#.#.#.#.#.#.#.#.#.#.#.#.#.#.#.#.#.#.#.#.#.#.#.#.#.#.#.#.#.#."
};
