/* XPM */
static xpm_row_t const bomb_xpm_7[] = {
/* columns rows colors chars-per-pixel */
"80 60 138 2 ",
"   c #030203",
".  c #0B0906",
"X  c #0E0B09",
"o  c #120C06",
"O  c #130D0B",
"+  c #180F0D",
"@  c #17100E",
"#  c #1A110F",
"$  c #151211",
"%  c #1D1411",
"&  c #1F1E1C",
"*  c #211613",
"=  c #241915",
"-  c #261C19",
";  c #291E1B",
":  c #25211E",
">  c #2B211E",
",  c #1C1E23",
"<  c #222221",
"1  c #2E2422",
"2  c #2A2826",
"3  c #2A2729",
"4  c #2D2A2B",
"5  c #312724",
"6  c #322926",
"7  c #352D2B",
"8  c #382F2D",
"9  c #36312E",
"0  c #39302E",
"q  c #2E2E30",
"w  c #343232",
"e  c #3C3533",
"r  c #3E3936",
"t  c #3D3B39",
"y  c #403936",
"u  c #433D3B",
"i  c #45403F",
"p  c #393E47",
"a  c #454241",
"s  c #4A4544",
"d  c #4D4847",
"f  c #494548",
"g  c #4D4B4B",
"h  c #524E4D",
"j  c #54504E",
"k  c #404350",
"l  c #484850",
"z  c #4B4D5C",
"x  c #514F52",
"c  c #555353",
"v  c #595656",
"b  c #5A5856",
"n  c #55545D",
"m  c #595758",
"M  c #5C5B5A",
"N  c #615E5D",
"B  c #61605F",
"V  c #5A5962",
"C  c #646363",
"Z  c #696666",
"A  c #696967",
"S  c #6D6C6C",
"D  c #706E6E",
"F  c #71706F",
"G  c #757474",
"H  c #797777",
"J  c #7A7977",
"K  c #7B7B7A",
"L  c #BA904F",
"P  c #80807F",
"I  c #CFA162",
"U  c #DEB171",
"Y  c #E7D873",
"T  c #EEE573",
"R  c #F4F57E",
"E  c #FDFD7B",
"W  c #70778E",
"Q  c #767C94",
"!  c #797F96",
"~  c #7A8197",
"^  c #7D849C",
"/  c #828282",
"(  c #8C8787",
")  c #8E8C8C",
"_  c #9C9285",
"`  c #92918F",
"'  c #80879F",
"]  c #989F9F",
"[  c #A99A8C",
"{  c #9AA19F",
"}  c #A1A09E",
"|  c #A5AB9C",
" . c #BDAB9E",
".. c #B9BE94",
"X. c #B2B798",
"o. c #848DA6",
"O. c #00b140",
"+. c #959EA1",
"@. c #9D99A4",
"#. c #9CA3A9",
"$. c #A4A3A2",
"%. c #A8A7A7",
"&. c #ADACAB",
"*. c #B9BDA9",
"=. c #B1B1B1",
"-. c #DDBA83",
";. c #BFC4AA",
":. c #CCCF8C",
">. c #CED18B",
",. c #D1D38B",
"<. c #C3C791",
"1. c #D9DC93",
"2. c #D6DA9F",
"3. c #FBCB8E",
"4. c #FBCC92",
"5. c #E6E784",
"6. c #ECEE80",
"7. c #EEEF8E",
"8. c #F3E381",
"9. c #F7F880",
"0. c #FBFC84",
"q. c #EBE992",
"w. c #EAED9E",
"e. c #F7ED90",
"r. c #F1E49E",
"t. c #F9F691",
"y. c #FCFC99",
"u. c #C3C8A9",
"i. c #CACFA8",
"p. c #CCD1A9",
"a. c #D8DAA8",
"s. c #F9D6A6",
"d. c #EAEDA0",
"f. c #FCFDAF",
"g. c #FBFEBC",
"h. c #E3E3E3",
"j. c #FAFEF2",
"k. c #F9FFFD",
/* pixels */
"O.O.O.O.O.O.O.O.O.O.O.O.O.O.O.O.O.O.O.O.O.O.O.O.O.O.O.O.O.O.O.O.O.O.O.O.O.O.X.+.O.O.>.,.#.a.O.O...O.O.O.O.O.O.O.O.O.O.O.O.O.O.O.O.O.O.O.O.O.O.O.O.O.O.O.O.O.O.O.",
"O.O.O.O.O.O.O.O.O.O.O.O.O.O.O.O.O.O.O.O.O.O.O.O.O.O.O.O.O.O.O.O.O.O.u.O.O.#.O.>.2.O.>.d.O.O.O.:.O.O.O.O.O.O.O.O.O.O.O.O.O.O.O.O.O.O.O.O.O.O.O.O.O.O.O.O.O.O.O.O.",
"O.O.O.O.O.O.O.O.O.O.O.O.O.O.O.O.O.O.O.O.O.O.O.O.O.O.O.O.O.O.O.O.O.O.$.O.O.5.i.<.0.1.E w.O.,.>.+.O.O.O.O.O.O.O.O.O.O.O.O.O.O.O.O.O.O.O.O.O.O.O.O.O.O.O.O.O.O.O.O.",
"O.O.O.O.O.O.O.O.O.O.O.O.O.O.O.O.O.O.O.O.O.O.O.O.O.O.O.O.O.O.O.O.O.O.O.O.:.>.6.9.E E E 7.R E O.O.;.O.O.O.O.O.O.O.O.O.O.O.O.O.O.O.O.O.O.O.O.O.O.O.O.O.O.O.O.O.O.O.",
"O.O.O.O.O.O.O.O.O.O.O.O.O.O.O.O.O.O.O.O.O.O.O.O.O.O.O.O.O.O.O.O.O.O.O. .4.[ q.E j.k.g.0.w.d.O.O.O.O.O.O.O.O.O.O.O.O.O.O.O.O.O.O.O.O.O.O.O.O.O.O.O.O.O.O.O.O.O.O.",
"O.O.O.O.O.O.O.O.O.O.O.O.O.O.O.O.O.O.O.O.O.O.O.O.O.O.O.O.O.O.O.O.O.@.p.p.p.E E k.k.k.k.E 5.>.>.>.O.O.O.O.O.O.O.O.O.O.O.O.O.O.O.O.O.O.O.O.O.O.O.O.O.O.O.O.O.O.O.O.",
"O.O.O.O.O.O.O.O.O.O.O.O.O.O.O.O.O.O.O.O.O.O.O.O.O.O.O.O.O.O.O.O.O.4.4.| 4.,.q.E f.E E 0.y.E >.>.>.>.O.O.O.O.O.O.O.O.O.O.O.O.O.O.O.O.O.O.O.O.O.O.O.O.O.O.O.O.O.O.",
"O.O.O.O.O.O.O.O.O.O.O.O.O.O.O.O.O.O.O.O.O.O.O.O.O.O.O.O.O.O.O.4.U L 4.] >.>.e.E y.t.E >.w.p.>...O.O.O.O.O.O.O.O.O.O.O.O.O.O.O.O.O.O.O.O.O.O.O.O.O.O.O.O.O.O.O.O.",
"O.O.O.O.O.O.O.O.O.O.O.O.O.O.O.O.O.O.O.O.O.O.O.O.O.O.O.O.O.O.,.3.3.4._ O.O.O.r.E 8.q.E >.>.O.p.O.O.O.O.O.O.O.O.O.O.O.O.O.O.O.O.O.O.O.O.O.O.O.O.O.O.O.O.O.O.O.O.O.",
"O.O.O.O.O.O.O.O.O.O.O.O.O.O.O.O.O.O.O.O.O.O.O.O.O.O.O.O.O.O.3.3.4.4.O.O.O.O.O.T Y >.O.O.>.O.O.*.O.O.O.O.O.O.O.O.O.O.o.O.O.O.O.O.O.O.O.O.O.O.O.O.O.O.O.O.O.O.O.O.",
"O.O.O.O.O.O.O.O.O.O.O.O.O.O.O.O.O.O.O.O.O.O.O.O.O.O.O.O.O.[ 3.3.4.O.O.O.O.O.O.O.8.| O.#.O.>.O.;.O.O.O.O.O.O.O.O.O.O.O.O.O.O.O.O.O.O.O.O.O.O.O.O.O.O.O.O.O.O.O.O.",
"O.O.O.O.O.O.O.O.O.O.O.O.O.O.O.O.O.O.O.O.O.O.O.O.O.O.O.O.O.-.I L O.O.O.O.O.O.O.O.O.O.O.O.O.O.O.O.O.O.O.O.O.O.O.O.O.O.O.O.O.O.O.O.O.O.O.O.O.O.O.O.O.O.O.O.O.O.O.O.",
"O.O.O.O.O.O.O.O.O.O.O.O.O.O.O.O.O.O.O.O.O.O.O.O.O.O.q > | r.s.s.O.O.O.O.O.O.O.O.O.O.O.O.{ O.O.O.O.O.O.O.O.O.O.O.O.O.O.O.O.O.O.O.O.O.O.O.O.O.O.O.O.O.O.O.O.O.O.O.",
"O.O.O.O.O.O.O.O.O.O.O.O.O.O.O.O.O.O.O.O.O.O.O.O.O.O.3 x ~ < : : F V O.O.O.O.O.O.O.O.O.O.O.O.O.O.O.O.O.O.O.O.O.O.O.O.O.O.O.O.O.O.O.O.O.O.O.O.O.O.O.O.O.O.O.O.O.O.",
"O.O.O.O.O.O.O.O.O.O.O.O.O.O.O.O.O.O.O.O.O.O.O.O.O.l 3 C C & < h l < O.O.O.O.O.O.O.O.O.O.O.O.O.O.O.O.O.O.O.O.O.O.O.O.O.O.O.O.O.O.O.O.O.O.O.O.O.O.O.O.O.O.O.O.O.O.",
"O.O.O.O.O.O.O.O.O.O.O.O.O.O.O.O.O.O.O.O.O.O.O.O.O.q < ( l < < l x < O.O.O.O.O.O.O.O.O.O.O.O.O.O.O.O.O.O.O.O.O.O.O.O.O.O.O.O.O.O.O.O.O.O.O.O.O.O.O.O.O.O.O.O.O.O.",
"O.O.O.O.O.O.O.O.O.O.O.O.O.O.O.O.O.O.O.k           2 < G & < < c q < O.O.O.O.O.O.O.O.O.O.O.O.O.O.O.O.O.O.O.O.O.O.O.O.O.O.O.O.O.O.O.O.O.O.O.O.O.O.O.O.O.O.O.O.O.O.",
"O.O.O.O.O.O.O.O.O.O.O.O.O.O.O.Q         $ J P ~ P ~ ~ _ q 2 < g < ~ O.O.O.O.O.O.O.O.O.O.O.O.O.O.O.O.O.O.O.O.O.O.O.O.O.O.O.O.O.O.O.O.O.O.O.O.O.O.O.O.O.O.O.O.O.O.",
"O.O.O.O.O.O.O.O.O.O.O.O.O.,   . S / / P P K K K K J K J J G G J t   , O.O.O.O.O.O.O.O.O.O.O.O.O.O.O.O.O.O.O.O.O.O.O.O.O.O.O.O.O.O.O.O.O.O.O.O.O.O.O.O.O.O.O.O.O.",
"O.O.O.O.O.O.O.O.O.O.O.z   a K K K J H H J H H G G G F F F F F A S S w   p O.O.O.O.O.O.O.O.O.O.O.O.O.O.O.O.O.O.O.O.O.O.O.O.O.O.O.O.O.O.O.O.O.O.O.O.O.O.O.O.O.O.O.",
"O.O.O.O.O.O.O.O.o.o.o - H G ` =.=.` F F D D S S A A A A A A C C C C B B .   O.O.O.O.O.O.O.O.O.O.O.O.O.O.O.O.O.O.O.O.O.O.O.O.O.O.O.O.O.O.O.O.O.O.O.O.O.O.O.O.O.O.",
"O.O.O.O.O.O.O.O.o.o D D S %.h.h.&.K A B B Z Z B C B B B M M M M M m m n b p   ^ O.O.O.O.O.O.O.O.O.O.O.O.O.O.O.O.O.O.O.O.O.O.O.O.O.O.O.O.O.O.O.O.O.O.O.O.O.O.O.O.",
"O.O.O.O.O.O.O.^ * Z B Z } h.h.h.} B B B B N M M b v v v m c c j c j c g l g a   W O.O.O.O.O.O.O.O.O.O.O.O.O.O.O.O.O.O.O.O.O.O.O.O.O.O.O.O.O.O.O.O.O.O.O.O.O.O.O.",
"O.O.O.O.O.O.^ O N B B ) h.h.h.| N b v v j j j j j h j j g g g f d d f f f a a a   ^ O.O.O.O.O.O.O.O.O.O.O.O.O.O.O.O.O.O.O.O.O.O.O.O.O.O.O.O.O.O.O.O.O.O.O.O.O.O.",
"O.O.O.O.O.O.O b v v v } h.h.{ v h j j j g g g d d s s s s s i i t t u u u t t t r   O.O.O.O.O.O.O.O.O.O.O.O.O.O.O.O.O.O.O.O.O.O.O.O.O.O.O.O.O.O.O.O.O.O.O.O.O.O.",
"O.O.O.O.O.O j j h h h J ( D i h i i i i s i i i i i i t u t t t t t e e w w w w 9 < . O.O.O.O.O.O.O.O.O.O.O.O.O.O.O.O.O.O.O.O.O.O.O.O.O.O.O.O.O.O.O.O.O.O.O.O.O.",
"O.O.O.O.# 0 d d i i i i i i i i i i i i y t r r r w e w w 0 9 9 9 q q 4 4 q 2 2 3 2 . $ O.O.O.O.O.O.O.O.O.O.O.O.O.O.O.O.O.O.O.O.O.O.O.O.O.O.O.O.O.O.O.O.O.O.O.O.",
"O.O.O.O.# i i u i u u i y r r r y 0 y 0 0 9 9 9 9 9 # $ O . O X X O @ @ : : : : , - , X O.O.O.O.O.O.O.O.O.O.O.O.O.O.O.O.O.O.O.O.O.O.O.O.O.O.O.O.O.O.O.O.O.O.O.O.",
"O.O.O.% r r y r y y e 0 0 0 9 9 7 7 4 4 7 - o @ o o o O o O O X O o . O o O X X # % % $ . O.O.O.O.O.O.O.O.O.O.O.O.O.O.O.O.O.O.O.O.O.O.O.O.O.O.O.O.O.O.O.O.O.O.O.",
"O.O.O.% 0 8 8 8 8 8 7 6 6 6 6 > 1 > - @ O @ @ o @ @ O @ O o o o o o O X O X X X X X X O X O.O.O.O.O.O.O.O.O.O.O.O.O.O.O.O.O.O.O.O.O.O.O.O.O.O.O.O.O.O.O.O.O.O.O.",
"O.O.7 - 6 5 5 5 > > > > > : : > # # # # @ @ @ @ @ @ o @ @ @ @ @ O O O O O o @ X O X X X o & O.O.O.O.O.O.O.O.O.O.O.O.O.O.O.O.O.O.O.O.O.O.O.O.O.O.O.O.O.O.O.O.O.O.",
"O.O.% 1 1 : : ; > > - - : * # % # # # # # # @ # @ @ @ @ @ O O O @ @ O O O O O O O X O X O O O.O.O.O.O.O.O.O.O.O.O.O.O.O.O.O.O.O.O.O.O.O.O.O.O.O.O.O.O.O.O.O.O.O.",
"O.O.* = = * = * * % * % % # # % # # * # # # # # # # # # + + # + @ O + O O @ O @ O O O o o @ O.O.O.O.O.O.O.O.O.O.O.O.O.O.O.O.O.O.O.O.O.O.O.O.O.O.O.O.O.O.O.O.O.O.",
"O.O.= * * * * * * * * % * * * # * # # # # + * # % # # # # # # + # # + + @ @ @ O @ O @ O O @ O.O.O.O.O.O.O.O.O.O.O.O.O.O.O.O.O.O.O.O.O.O.O.O.O.O.O.O.O.O.O.O.O.O.",
"O.5 * = = = * * * * * * * * * * * * * # * * + # # # # # % + + + # # # + # @ @ @ + + O + @ O 2 O.O.O.O.O.O.O.O.O.O.O.O.O.O.O.O.O.O.O.O.O.O.O.O.O.O.O.O.O.O.O.O.O.",
"O.= = - = = = = * * = * * * * * * * * # * * * * * * * # * # * + # # # % # # # # # # + + @ @ 2 O.O.O.O.O.O.O.O.O.O.O.O.O.O.O.O.O.O.O.O.O.O.O.O.O.O.O.O.O.O.O.O.O.",
"O.; - = - = - = * = * = = = = * * * * * * * * # * # * % % % % + # # % # # % # # # # # # + + 3 O.O.O.O.O.O.O.O.O.O.O.O.O.O.O.O.O.O.O.O.O.O.O.O.O.O.O.O.O.O.O.O.O.",
"O.; ; ; ; ; - - - - = = = = = * * = * = = * * * * * * * % * * * * * % # % # # % % % # # % % 4 O.O.O.O.O.O.O.O.O.O.O.O.O.O.O.O.O.O.O.O.O.O.O.O.O.O.O.O.O.O.O.O.O.",
"O.> > > ; ; ; ; ; - ; - = = = = = = = = = * = = * * * * * * * * * % % * * % % % # % % # % + 4 O.O.O.O.O.O.O.O.O.O.O.O.O.O.O.O.O.O.O.O.O.O.O.O.O.O.O.O.O.O.O.O.O.",
"O.> > > ; 1 > ; ; ; ; ; ; ; ; ; ; = ; = = = = = = = = * * * * * * * * * * % * * % * % % % % 7 O.O.O.O.O.O.O.O.O.O.O.O.O.O.O.O.O.O.O.O.O.O.O.O.O.O.O.O.O.O.O.O.O.",
"O.O.1 1 1 > > > > > > > > ; > ; ; ; ; ; ; = ; = = = = = = = = = = * * * * * * * * * % % % % o.O.O.O.O.O.O.O.O.O.O.O.O.O.O.O.O.O.O.O.O.O.O.O.O.O.O.O.O.O.O.O.O.O.",
"O.O.5 5 5 5 1 1 1 1 > > > > > > ; ; ; ; ; ; ; ; ; ; = ; = = = * = = = = = = = * * * * * * * O.O.O.O.O.O.O.O.O.O.O.O.O.O.O.O.O.O.O.O.O.O.O.O.O.O.O.O.O.O.O.O.O.O.",
"O.O.6 6 6 7 6 5 5 1 1 1 1 1 1 > > > > > ; > ; ; ; ; ; ; ; = ; = = = = = = = = = * = * = * * O.O.O.O.O.O.O.O.O.O.O.O.O.O.O.O.O.O.O.O.O.O.O.O.O.O.O.O.O.O.O.O.O.O.",
"O.O.7 8 8 7 7 7 7 5 5 5 1 1 1 1 5 > 1 > > > > ; > ; ; ; ; ; ; ; - ; ; = = = = = = = = = = = O.O.O.O.O.O.O.O.O.O.O.O.O.O.O.O.O.O.O.O.O.O.O.O.O.O.O.O.O.O.O.O.O.O.",
"O.O.O.7 y 8 8 8 8 8 8 6 6 5 5 5 5 5 1 1 5 1 1 > > > > > 1 > ; ; ; : ; ; ; - ; - = = = y = O.O.O.O.O.O.O.O.O.O.O.O.O.O.O.O.O.O.O.O.O.O.O.O.O.O.O.O.O.O.O.O.O.O.O.",
"O.O.O.8 y y 8 y e 0 e 8 8 8 8 6 5 5 5 1 5 5 1 5 1 > 1 1 > ; 5 1 > 1 > > ; ; ; ; ; - y = = O.O.O.O.O.O.O.O.O.O.O.O.O.O.O.O.O.O.O.O.O.O.O.O.O.O.O.O.O.O.O.O.O.O.O.",
"O.O.O.o.0 y y y y e y y y 0 8 8 y 8 7 7 8 7 8 7 6 7 7 5 5 5 5 5 5 5 1 1 1 > 1 > > 6 u > ^ O.O.O.O.O.O.O.O.O.O.O.O.O.O.O.O.O.O.O.O.O.O.O.O.O.O.O.O.O.O.O.O.O.O.O.",
"O.O.O.O.e y u u y y y y y y y y 8 y y y 8 y 8 8 8 6 y 8 8 8 6 5 6 7 6 5 5 5 5 1 7 i 1 > O.O.O.O.O.O.O.O.O.O.O.O.O.O.O.O.O.O.O.O.O.O.O.O.O.O.O.O.O.O.O.O.O.O.O.O.",
"O.O.O.O.O.e a u x u u u u u u y y y y y y y y y y 8 8 8 7 8 8 7 8 8 7 7 7 6 5 u d 2 1 O.O.O.O.O.O.O.O.O.O.O.O.O.O.O.O.O.O.O.O.O.O.O.O.O.O.O.O.O.O.O.O.O.O.O.O.O.",
"O.O.O.O.O.! e f a x a u u u u u u u u y y y y y y y y y y y y 8 0 8 8 8 0 9 g d 0 1 Q O.O.O.O.O.O.O.O.O.O.O.O.O.O.O.O.O.O.O.O.O.O.O.O.O.O.O.O.O.O.O.O.O.O.O.O.O.",
"O.O.O.O.O.O.V e s f c h u s s a u a i u u u u u y y y y y y y y e e e e y h h y 8 V O.O.O.O.O.O.O.O.O.O.O.O.O.O.O.O.O.O.O.O.O.O.O.O.O.O.O.O.O.O.O.O.O.O.O.O.O.O.",
"O.O.O.O.O.O.O.y u d g h v d s s a s s i u a u u u u u y u y y u y y u g g g i 0 e O.O.O.O.O.O.O.O.O.O.O.O.O.O.O.O.O.O.O.O.O.O.O.O.O.O.O.O.O.O.O.O.O.O.O.O.O.O.O.",
"O.O.O.O.O.O.O.O.n i h d d v v h d s d d s s i i s u u a u u u u d x h h h y r z O.O.O.O.O.O.O.O.O.O.O.O.O.O.O.O.O.O.O.O.O.O.O.O.O.O.O.O.O.O.O.O.O.O.O.O.O.O.O.O.",
"O.O.O.O.O.O.O.O.O.o.u h h h h v m m h d d d d s d d s d s h c x x h x d u 8 ^ O.O.O.O.O.O.O.O.O.O.O.O.O.O.O.O.O.O.O.O.O.O.O.O.O.O.O.O.O.O.O.O.O.O.O.O.O.O.O.O.O.",
"O.O.O.O.O.O.O.O.O.O.O.u a j h h h b b m m m m m N c c c c c c c x h s i w O.O.O.O.O.O.O.O.O.O.O.O.O.O.O.O.O.O.O.O.O.O.O.O.O.O.O.O.O.O.O.O.O.O.O.O.O.O.O.O.O.O.O.",
"O.O.O.O.O.O.O.O.O.O.O.o.o.i f c c j c h c m m m c v v v v j j d d u r ' O.O.O.O.O.O.O.O.O.O.O.O.O.O.O.O.O.O.O.O.O.O.O.O.O.O.O.O.O.O.O.O.O.O.O.O.O.O.O.O.O.O.O.O.",
"O.O.O.O.O.O.O.O.O.O.O.O.O.O.O.a i d x c c c c x x x h h h h g y u O.O.O.O.O.O.O.O.O.O.O.O.O.O.O.O.O.O.O.O.O.O.O.O.O.O.O.O.O.O.O.O.O.O.O.O.O.O.O.O.O.O.O.O.O.O.O.",
"O.O.O.O.O.O.O.O.O.O.O.O.O.O.O.O.O.~ g a a u a u u u u u u f ! O.O.O.O.O.O.O.O.O.O.O.O.O.O.O.O.O.O.O.O.O.O.O.O.O.O.O.O.O.O.O.O.O.O.O.O.O.O.O.O.O.O.O.O.O.O.O.O.O.",
"O.O.O.O.O.O.O.O.O.O.O.O.O.O.O.O.O.O.O.O.O.O.O.O.O.O.O.O.O.O.O.O.O.O.O.O.O.O.O.O.O.O.O.O.O.O.O.O.O.O.O.O.O.O.O.O.O.O.O.O.O.O.O.O.O.O.O.O.O.O.O.O.O.O.O.O.O.O.O.O.",
"O.O.O.O.O.O.O.O.O.O.O.O.O.O.O.O.O.O.O.O.O.O.O.O.O.O.O.O.O.O.O.O.O.O.O.O.O.O.O.O.O.O.O.O.O.O.O.O.O.O.O.O.O.O.O.O.O.O.O.O.O.O.O.O.O.O.O.O.O.O.O.O.O.O.O.O.O.O.O.O."
};
