/* XPM */
static xpm_row_t const bomb_xpm_4[] = {
/* columns rows colors chars-per-pixel */
"80 60 151 2 ",
"   c #030203",
".  c #0B0906",
"X  c #0E0B09",
"o  c #120C06",
"O  c #130D0B",
"+  c #180F0D",
"@  c #17100E",
"#  c #1A110F",
"$  c #151211",
"%  c #1D1411",
"&  c #211613",
"*  c #241915",
"=  c #261C19",
"-  c #291E1B",
";  c #25211E",
":  c #2B211E",
">  c #1C1E23",
",  c #222221",
"<  c #2E2422",
"1  c #2A2826",
"2  c #2A2729",
"3  c #2D2A2B",
"4  c #312724",
"5  c #322926",
"6  c #352D2B",
"7  c #382F2D",
"8  c #36312E",
"9  c #39302E",
"0  c #2E2E30",
"q  c #343232",
"w  c #3C3533",
"e  c #3E3936",
"r  c #3D3B39",
"t  c #403936",
"y  c #433D3B",
"u  c #45403F",
"i  c #393E47",
"p  c #454241",
"a  c #4A4544",
"s  c #4D4847",
"d  c #494548",
"f  c #4D4B4B",
"g  c #524E4D",
"h  c #54504E",
"j  c #404350",
"k  c #484850",
"l  c #4B4D5C",
"z  c #514F52",
"x  c #555353",
"c  c #595656",
"v  c #5A5856",
"b  c #55545D",
"n  c #595758",
"m  c #5C5B5A",
"M  c #615E5D",
"N  c #61605F",
"B  c #5A5962",
"V  c #5A6071",
"C  c #646363",
"Z  c #696666",
"A  c #696967",
"S  c #6D6C6C",
"D  c #706E6E",
"F  c #71706F",
"G  c #757474",
"H  c #797777",
"J  c #7A7977",
"K  c #7B7B7A",
"L  c #BA904F",
"P  c #BB9455",
"I  c #80807F",
"U  c #BBA17F",
"Y  c #CEA264",
"T  c #DEB273",
"R  c #DBB67D",
"E  c #E6B87A",
"W  c #E7D873",
"Q  c #EEE573",
"!  c #F4F57E",
"~  c #FDFD7B",
"^  c #70778E",
"/  c #767C94",
"(  c #797F96",
")  c #7A8197",
"_  c #7D849C",
"`  c #828282",
"'  c #8C8787",
"]  c #8E8C8C",
"[  c #97928A",
"{  c #80879F",
"}  c #99969D",
"|  c #A69787",
" . c #A99A8C",
".. c #9AA19F",
"X. c #A1A09E",
"o. c #A5AB9C",
"O. c #BDAB9E",
"+. c #B9BE94",
"@. c #B2B798",
"#. c #848DA6",
"$. c #00b140",
"%. c #8F97A4",
"&. c #999CA3",
"*. c #9CA3A9",
"=. c #A4A3A2",
"-. c #A8A7A7",
";. c #A1A7A8",
":. c #ADACAB",
">. c #BFAFA3",
",. c #B9BDA9",
"<. c #B1B1B1",
"1. c #DDBA83",
"2. c #C6B3A4",
"3. c #CDBBA8",
"4. c #BFC18F",
"5. c #BFC4AA",
"6. c #CCCF8C",
"7. c #CED18B",
"8. c #D1D38B",
"9. c #C3C791",
"0. c #D8DB99",
"q. c #FBCB8E",
"w. c #E1C19F",
"e. c #F4CA96",
"r. c #FBCD93",
"t. c #F9CF99",
"y. c #F5D19F",
"u. c #FBD19B",
"i. c #DEE097",
"p. c #E6E784",
"a. c #ECEE80",
"s. c #EEEF8E",
"d. c #F3E381",
"f. c #F7F880",
"g. c #FBFC84",
"h. c #EBE992",
"j. c #EAED9E",
"k. c #F7ED90",
"l. c #F1E49E",
"z. c #FBFA96",
"x. c #C2C7AA",
"c. c #CACFA8",
"v. c #CCD1A9",
"b. c #D8DAA8",
"n. c #F5D1A3",
"m. c #FAD4A3",
"M. c #FCFDAF",
"N. c #FBFEBC",
"B. c #E3E3E3",
"V. c #FAFEF2",
"C. c #F9FFFD",
/* pixels */
"$.$.$.$.$.$.$.$.$.$.$.$.$.$.$.$.$.$.$.$.$.$.$.$.$.$.$.$.$.$.$.$.$.$.$.$.$.$.$.$.$.$.$.$.$.$.$.$.$.$.$.$.$.$.$.$.$.$.$.$.$.$.$.$.$.$.$.$.$.$.$.$.$.$.$.$.$.$.$.$.",
"$.$.$.$.$.$.$.$.$.$.$.$.$.$.$.$.$.$.$.$.$.$.$.$.$.$.$.$.$.$.$.$.$.$.$.$.$.$.$.$.$.$.$.$.$.$.$.$.$.$.$.$.$.$.$.$.$.$.$.$.$.$.$.$.$.$.$.$.$.$.$.$.$.$.$.$.$.$.$.$.",
"$.$.$.$.$.$.$.$.$.$.$.$.$.$.$.$.$.$.$.$.$.$.$.$.$.$.$.$.$.$.$.$.$.$.$.$.$.$.$.$.$.$.$.$.$.$.$.$.$.$.$.$.$.$.$.$.$.$.$.$.$.$.$.$.$.$.$.$.$.$.$.$.$.$.$.$.$.$.$.$.",
"$.$.$.$.$.$.$.$.$.$.$.$.$.$.$.$.$.$.$.$.$.$.$.$.$.$.$.$.$.$.$.$.$.$.$.$.$.$.$.$.$.$.$.#.$.$.$.$.$.$.$.$.$.$.$.$.$.$.$.$.$.$.$.$.$.$.$.$.$.$.$.$.$.$.$.$.$.$.$.$.",
"$.$.$.$.$.$.$.$.$.$.$.$.$.$.$.$.$.$.$.$.$.$.$.$.$.$.$.$.$.$.$.$.$.$.$.O.r.U e.r.t.u.t.| >.#.$.$.$.$.$.$.$.$.$.$.$.$.$.$.$.$.$.$.$.$.$.$.$.$.$.$.$.$.$.$.$.$.$.$.",
"$.$.$.$.$.$.$.$.$.$.$.$.$.$.$.$.$.$.$.$.$.$.$.$.$.$.$.$.$.$.$.$.$.&.r.r.r.E T t.t.u.T t.y.m.w.$.$.$.$.$.$.$.$.$.$.$.$.$.$.$.$.$.$.$.$.$.$.$.$.$.$.$.$.$.$.$.$.$.",
"$.$.$.$.$.$.$.$.$.$.$.$.$.$.$.$.$.$.$.$.$.$.$.$.$.$.$.$.$.$.$.$.$.r.r.r.r.r.Y u.e.u.Y u.y.m.m.n.$.$.$.$.$.$.$.$.$.$.$.$.$.$.$.$.$.$.$.$.$.$.$.$.$.$.$.$.$.$.$.$.",
"$.$.$.$.$.$.$.$.$.$.$.$.$.$.$.$.$.$.$.$.$.$.$.$.$.$.$.$.$.$.$.q.T L r.r.e.#.$.$.$.$.#.2.m.u.y.P =.$.$.$.$.$.$.$.$.$.$.$.$.$.$.$.$.$.$.$.$.$.$.$.$.$.$.$.$.$.$.$.",
"$.$.$.$.$.$.$.$.$.$.$.$.$.$.$.$.$.$.$.$.$.$.$.$.$.$.$.$.$.$.8.q.q.r.[ $.$.$.$.$.$.$.$.$.$.m.P y.m.3.o.$.$.$.4.o.$.$.$.$.$.$.$.$.$.$.$.$.$.$.$.$.$.$.$.$.$.$.$.$.",
"$.$.$.$.$.$.$.$.$.$.$.$.$.$.$.$.$.$.$.$.$.$.$.$.$.$.$.$.$.$.q.q.q.r.$.$.$.$.$.$.$.$.$.$.$.$.R m.m.m.@.%.$.$.6.8.*.b.$.$.+.$.$.$.$.$.$.$.$.$.$.$.$.$.$.$.$.$.$.$.",
"$.$.$.$.$.$.$.$.$.$.$.$.$.$.$.$.$.$.$.$.$.$.$.$.$.$.$.$.$. .q.q.q.$.$.$.$.$.$.$.$.$.$.$.$.$.x.m.m.;.n.7.0.$.7.j.$.$.$.7.$.$.$.$.$.$.$.$.$.$.$.$.$.$.$.$.$.$.$.$.",
"$.$.$.$.$.$.$.$.$.$.$.$.$.$.$.$.$.$.$.$.$.$.$.$.$.$.$.$.$.1.Y P #.$.$.$.$.$.$.$.$.$.$.$.$.$.o.2.m.p.v.9.g.0.~ j.$.6.6.&.$.$.$.$.$.$.$.$.$.$.$.$.$.$.$.$.$.$.$.$.",
"$.$.$.$.$.$.$.$.$.$.$.$.$.$.$.$.$.$.$.$.$.$.$.$.$.$.q , o.u.y.m.$.$.$.$.$.$.$.$.$.$.$.$.$.$.$.$.7.7.a.f.g.~ ~ s.! ~ $.$.5.$.$.$.$.$.$.$.$.$.$.$.$.$.$.$.$.$.$.$.",
"$.$.$.$.$.$.$.$.$.$.$.$.$.$.$.$.$.$.$.$.$.$.$.$.$.$.3 k ) , ; 1 D V $.$.$.$.$.$.$.$.$.$.$.$.$.$.} m.i.~ V.C.N.g.j.j.$.$.$.$.$.$.$.$.$.$.$.$.$.$.$.$.$.$.$.$.$.$.",
"$.$.$.$.$.$.$.$.$.$.$.$.$.$.$.$.$.$.$.$.$.$.$.$.$.k 2 C C , , z g , #.$.$.$.$.$.$.$.$.$.$.$.v.v.v.~ ~ C.C.C.C.~ p.7.7.7.$.$.$.$.$.$.$.$.$.$.$.$.$.$.$.$.$.$.$.$.",
"$.$.$.$.$.$.$.$.$.$.$.$.$.$.$.$.$.$.$.$.$.$.$.$.$.0 1 ' d , > f f ; $.$.$.$.$.$.$.$.$.$.$.$.$.o.$.7.h.~ M.~ ~ g.z.~ 7.7.7.7.$.$.$.$.$.$.$.$.$.$.$.$.$.$.$.$.$.$.",
"$.$.$.$.$.$.$.$.$.$.$.$.$.$.$.$.$._ $.j           1 , J , , , x 0 , $.$.$.$.$.$.$.$.$.$.$.$.$.&.7.7.k.~ z.z.~ 8.j.c.8.+.$.$.$.$.$.$.$.$.$.$.$.$.$.$.$.$.$.$.$.$.",
"$.$.$.$.$.$.$.$.$.$.$.$.$.$.$./ .       O K I ) I ) ` ] 0 1 , k , _ $.$.$.$.$.$.$.$.$.$.$.$.$.$.$.$.l.~ d.h.~ 6.7.$.v.$.$.$.$.$.$.$.$.$.$.$.$.$.$.$.$.$.$.$.$.$.",
"$.$.$.$.$.$.$.$.$.$.$.#.$.>   . S ) I I I I I J K K K J J J G J i   > _ $.$.$.$.$.$.$.$.$.$.$.$.$.$.$.Q W 7.$.$.6.$.$.,.$.$.$.$.$.$.$.$.$.$.$.$.$.$.$.$.$.$.$.$.",
"$.$.$.$.$.$.$.$.$.$.$.l . p K K K K H H G H H F G F F F F S S S S S q   j $.$.$.$.$.$.$.$.$.$.$.$.$.$.$.d.o.$.*.$.7.$.x.$.$.$.$.$.$.$.$.$.$.$.$.$.$.$.$.$.$.$.$.",
"$.$.$.$.$.$.$.$.$.$.. = H G [ <.<.[ F F D F F D S A A A A A C C C N N C X   _ $.$.$.$.$.$.$.$.$.$.$.$.$.$.$.$.$.$.$.$.$.$.$.$.$.$.$.$.$.$.$.$.$.$.$.$.$.$.$.$.$.",
"$.$.$.$.$.$.$.$.#.X S D D -.B.B.:.K A N N N N N N N N N m m m m m m m b n r . _ $.$.$.$.$.$.$.$.$.$.$.$.$.$.$.$...$.$.$.$.$.$.$.$.$.$.$.$.$.$.$.$.$.$.$.$.$.$.$.",
"$.$.$.$.$.$.$._ # Z Z Z =.B.B.B.X.N N M N m N m v v v v n x x x x h z z z k p   ^ $.$.$.$.$.$.$.$.$.$.$.$.$.$.$.$.$.$.$.$.$.$.$.$.$.$.$.$.$.$.$.$.$.$.$.$.$.$.$.",
"$.$.$.$.$.$._ O M M M ] B.B.B.o.M v v x x c h h h g g g f f s d a a a p p p p p   _ $.$.$.$.$.$.$.$.$.$.$.$.$.$.$.$.$.$.$.$.$.$.$.$.$.$.$.$.$.$.$.$.$.$.$.$.$.$.",
"$.$.$.$.$.$.O v v c c X.B.B.X.v g h h h h s s f s a a a a a u u p u u r y y r r r   $.$.$.$.$.$.$.$.$.$.$.$.$.$.$.$.$.$.$.$.$.$.$.$.$.$.$.$.$.$.$.$.$.$.$.$.$.$.",
"$.$.$.$.$.O h h g g g J ' F u s u u u u u u u u u u u r y r r r r q w q q q q q 6 , . $.$.$.$.$.$.$.$.$.$.$.$.$.$.$.$.$.$.$.$.$.$.$.$.$.$.$.$.$.$.$.$.$.$.$.$.$.",
"$.$.$.$.# 7 s s u u u u u u u u y u u u u e e t e q q w q 8 8 8 0 0 6 3 0 3 1 1 2 1 . $ $.$.$.$.$.$.$.$.$.$.$.$.$.$.$.$.$.$.$.$.$.$.$.$.$.$.$.$.$.$.$.$.$.$.$.$.",
"$.$.$.$.# u u y u u t u r e w e t e w 9 9 8 8 8 8 8 @ $ O o O X X @ @ @ ; ; ; ; , = > . $.$.$.$.$.$.$.$.$.$.$.$.$.$.$.$.$.$.$.$.$.$.$.$.$.$.$.$.$.$.$.$.$.$.$.$.",
"$.$.$.% t e t e t t w 9 9 9 8 8 6 5 3 5 5 ; O O o o o @ X O X X O X X o o X X X + % $ $ . $.$.$.$.$.$.$.$.$.$.$.$.$.$.$.$.$.$.$.$.$.$.$.$.$.$.$.$.$.$.$.$.$.$.$.",
"$.$.$.$ 9 7 7 8 7 7 6 6 5 5 4 4 < < = @ @ @ O O @ @ o @ @ o @ o o o @ X O X o X X X O O o $.$.$.$.$.$.$.$.$.$.$.$.$.$.$.$.$.$.$.$.$.$.$.$.$.$.$.$.$.$.$.$.$.$.$.",
"$.$.6 - 5 5 4 < : : : : : : ; ; # # # # @ @ @ @ @ @ o @ @ @ o o @ o o O X @ @ X X O X X o > $.$.$.$.$.$.$.$.$.$.$.$.$.$.$.$.$.$.$.$.$.$.$.$.$.$.$.$.$.$.$.$.$.$.",
"$.$.% < : : : - : : = * ; % % # # # # # @ # @ @ @ @ @ @ @ O @ @ @ @ @ O O o @ o O O X O O O $.$.$.$.$.$.$.$.$.$.$.$.$.$.$.$.$.$.$.$.$.$.$.$.$.$.$.$.$.$.$.$.$.$.",
"$.$.& = * * * * & & % % % % % % # % % # + # # # # # # # + + + + @ O + + O O @ O O o @ X o o $.$.$.$.$.$.$.$.$.$.$.$.$.$.$.$.$.$.$.$.$.$.$.$.$.$.$.$.$.$.$.$.$.$.",
"$.$.& & & & & % % & % & % & % % % # % % % % % # # # # # # # # # # @ @ + @ @ @ @ @ O @ O @ @ $.$.$.$.$.$.$.$.$.$.$.$.$.$.$.$.$.$.$.$.$.$.$.$.$.$.$.$.$.$.$.$.$.$.",
"$.4 & * * * & & & & & & & & % % % & % % % % % % # & # % # # # + # # # # # @ O # + + + + @ @ 1 $.$.$.$.$.$.$.$.$.$.$.$.$.$.$.$.$.$.$.$.$.$.$.$.$.$.$.$.$.$.$.$.$.",
"$.= = * * & * & * * * & & & & & & & & & % & % % # & % % # & % # % # # + # # # # # # + + @ @ 1 #.$.$.$.$.$.$.$.$.$.$.$.$.$.$.$.$.$.$.$.$.$.$.$.$.$.$.$.$.$.$.$.$.",
"$.= = = * * * * & * * * * & & * & & % * & & & & & & # & # % % # # # % # # % # # + % + + $ + 3 $.$.$.$.$.$.$.$.$.$.$.$.$.$.$.$.$.$.$.$.$.$.$.$.$.$.$.$.$.$.$.$.$.",
"$.- - - - - - - = * * * * * * * * * * * & & & & & & & & & & & & & & % # % # # % % % # # % + 3 $.$.$.$.$.$.$.$.$.$.$.$.$.$.$.$.$.$.$.$.$.$.$.$.$.$.$.$.$.$.$.$.$.",
"$.: - - - : - - - - - = * = * * * * * * * * * & & & & & & & & & & % % & & % % % # # & + % % 5 $.$.$.$.$.$.$.$.$.$.$.$.$.$.$.$.$.$.$.$.$.$.$.$.$.$.$.$.$.$.$.$.$.",
"$.: : < : : - : - - - - - - - - - * * * * * * * * & & & & & & & & & & & & % & & & & # % % % 3 $.$.$.$.$.$.$.$.$.$.$.$.$.$.$.$.$.$.$.$.$.$.$.$.$.$.$.$.$.$.$.$.$.",
"$.$.< < < < - < : : : : : - : - - - - * - * - * * * * * * * * * * & & & & & & & & & & & % % $.$.$.$.$.$.$.$.$.$.$.$.$.$.$.$.$.$.$.$.$.$.$.$.$.$.$.$.$.$.$.$.$.$.",
"$.$.4 4 4 4 < < : : < : : : : : - - - - - - - - * - - * * * * * * * * * * & & & & & & & % * $.$.$.$.$.$.$.$.$.$.$.$.$.$.$.$.$.$.$.$.$.$.$.$.$.$.$.$.$.$.$.$.$.$.",
"$.$.4 5 6 4 4 4 4 < 4 4 < : : : : : : : : : - - - - - - - - * * * * * * * * * * * * & & * % $.$.$.$.$.$.$.$.$.$.$.$.$.$.$.$.$.$.$.$.$.$.$.$.$.$.$.$.$.$.$.$.$.$.",
"$.$.6 7 7 7 6 6 6 4 4 4 4 4 < < 4 : 4 : : : : : : - - : - - - - = = = = - * * * * * & & * & $.$.$.$.$.$.$.$.$.$.$.$.$.$.$.$.$.$.$.$.$.$.$.$.$.$.$.$.$.$.$.$.$.$.",
"$.$.$.6 w 7 7 7 7 7 7 5 4 4 4 < 4 4 4 : 4 < 4 : : : : : : : : - : - - - - = - * * * = u * #.$.$.$.$.$.$.$.$.$.$.$.$.$.$.$.$.$.$.$.$.$.$.$.$.$.$.$.$.$.$.$.$.$.$.",
"$.$.$.7 t t w t 7 7 w 7 7 7 7 < 4 4 4 < < < 4 4 < : < : : - 4 : < : : : : - - : - - 9 = = $.$.$.$.$.$.$.$.$.$.$.$.$.$.$.$.$.$.$.$.$.$.$.$.$.$.$.$.$.$.$.$.$.$.$.",
"$.$.$.#.7 t t t t t t 7 t t 7 t t 7 6 6 7 4 7 5 5 6 6 4 5 5 5 4 4 4 4 < : < < : : 4 t : ) $.$.$.$.$.$.$.$.$.$.$.$.$.$.$.$.$.$.$.$.$.$.$.$.$.$.$.$.$.$.$.$.$.$.$.",
"$.$.$.$.7 y y y t t t t t t 7 t t t t 7 t t 7 t 6 6 t 6 7 7 5 5 5 5 5 4 4 4 < < 6 u 4 : $.$.$.$.$.$.$.$.$.$.$.$.$.$.$.$.$.$.$.$.$.$.$.$.$.$.$.$.$.$.$.$.$.$.$.$.",
"$.$.$.$.$.w p y g y y y y y y y t t t t t t t t t 6 7 7 6 7 7 6 7 7 6 6 6 5 5 y d 5 < $.$.$.$.$.$.$.$.$.$.$.$.$.$.$.$.$.$.$.$.$.$.$.$.$.$.$.$.$.$.$.$.$.$.$.$.$.",
"$.$.$.$.$.( w d p z u u y y y y y y y t t t t t t t t t t t t 7 9 7 7 7 9 7 f s q < / $.$.$.$.$.$.$.$.$.$.$.$.$.$.$.$.$.$.$.$.$.$.$.$.$.$.$.$.$.$.$.$.$.$.$.$.$.",
"$.$.$.$.$.$.B w d d x g u a a y y u p y y y y y y t t t t t t t w t w w y s s e 7 B $.$.$.$.$.$.$.$.$.$.$.$.$.$.$.$.$.$.$.$.$.$.$.$.$.$.$.$.$.$.$.$.$.$.$.$.$.$.",
"$.$.$.$.$.$.$.t u s d g c s a a a p a y y a y y y y y t y t t t t t y g k f p w w $.$.$.$.$.$.$.$.$.$.$.$.$.$.$.$.$.$.$.$.$.$.$.$.$.$.$.$.$.$.$.$.$.$.$.$.$.$.$.",
"$.$.$.$.$.$.$.$.b u g s s c x z s s a s u a a u u y y u y y y y p z g g g t t z $.$.$.$.$.$.$.$.$.$.$.$.$.$.$.$.$.$.$.$.$.$.$.$.$.$.$.$.$.$.$.$.$.$.$.$.$.$.$.$.",
"$.$.$.$.$.$.$.$.#.#.y g g g g c c c z s s s d d s s a a a g x x z h z s y 7 _ $.$.$.$.$.$.$.$.$.$.$.$.$.$.$.$.$.$.$.$.$.$.$.$.$.$.$.$.$.$.$.$.$.$.$.$.$.$.$.$.$.",
"$.$.$.$.$.$.$.$.$.$.$.u u h g g g c n n v n c n M x x c x x x x x g p p q $.$.$.$.$.$.$.$.$.$.$.$.$.$.$.$.$.$.$.$.$.$.$.$.$.$.$.$.$.$.$.$.$.$.$.$.$.$.$.$.$.$.$.",
"$.$.$.$.$.$.$.$.$.$.$.#.#.y s x x x x h x v c c c c c c c x g s s y t { $.$.$.$.$.$.$.$.$.$.$.$.$.$.$.$.$.$.$.$.$.$.$.$.$.$.$.$.$.$.$.$.$.$.$.$.$.$.$.$.$.$.$.$.",
"$.$.$.$.$.$.$.$.$.$.$.$.$.$.$.d y s x x x x x x z z g z g g s t y $.$.$.$.$.$.$.$.$.$.$.$.$.$.$.$.$.$.$.$.$.$.$.$.$.$.$.$.$.$.$.$.$.$.$.$.$.$.$.$.$.$.$.$.$.$.$.",
"$.$.$.$.$.$.$.$.$.$.$.$.$.$.$.#.$.) k p p u y y y y y y y d ( $.$.$.$.$.$.$.$.$.$.$.$.$.$.$.$.$.$.$.$.$.$.$.$.$.$.$.$.$.$.$.$.$.$.$.$.$.$.$.$.$.$.$.$.$.$.$.$.$.",
"$.$.$.$.$.$.$.$.$.$.$.$.$.$.$.$.$.$.$.$.$.$.$.$.$.$.$.$.$.$.$.$.$.$.$.$.$.$.$.$.$.$.$.$.$.$.$.$.$.$.$.$.$.$.$.$.$.$.$.$.$.$.$.$.$.$.$.$.$.$.$.$.$.$.$.$.$.$.$.$.",
"$.$.$.$.$.$.$.$.$.$.$.$.$.$.$.$.$.$.$.$.$.$.$.$.$.$.$.$.$.$.$.$.$.$.$.$.$.$.$.$.$.$.$.$.$.$.$.$.$.$.$.$.$.$.$.$.$.$.$.$.$.$.$.$.$.$.$.$.$.$.$.$.$.$.$.$.$.$.$.$."
};
