/* XPM */
static xpm_row_t const bomb_xpm_10[] = {
/* columns rows colors chars-per-pixel */
"80 60 122 2 ",
"   c #030203",
".  c #0B0906",
"X  c #0E0B09",
"o  c #120C06",
"O  c #130D0B",
"+  c #180F0D",
"@  c #17100E",
"#  c #1A110F",
"$  c #151211",
"%  c #1D1411",
"&  c #1F1E1C",
"*  c #211613",
"=  c #241915",
"-  c #261C19",
";  c #291E1B",
":  c #25211E",
">  c #2B211E",
",  c #1C1E23",
"<  c #232222",
"1  c #2E2422",
"2  c #2A2826",
"3  c #2A2729",
"4  c #2D2A2B",
"5  c #312724",
"6  c #322926",
"7  c #352D2B",
"8  c #382F2D",
"9  c #36312E",
"0  c #39302E",
"q  c #2E2E30",
"w  c #353332",
"e  c #3C3533",
"r  c #3E3936",
"t  c #3D3B39",
"y  c #403936",
"u  c #433D3B",
"i  c #45403F",
"p  c #393E47",
"a  c #454241",
"s  c #4A4544",
"d  c #4D4847",
"f  c #494548",
"g  c #4D4B4B",
"h  c #524E4D",
"j  c #54504E",
"k  c #404350",
"l  c #484850",
"z  c #4B4D5C",
"x  c #514F52",
"c  c #555353",
"v  c #595656",
"b  c #5A5856",
"n  c #55545D",
"m  c #595758",
"M  c #5C5B5A",
"N  c #615E5D",
"B  c #61605F",
"V  c #5A5962",
"C  c #646363",
"Z  c #696666",
"A  c #696967",
"S  c #6D6C6B",
"D  c #706E6E",
"F  c #71706F",
"G  c #757474",
"H  c #797777",
"J  c #7A7977",
"K  c #7B7B7A",
"L  c #80807F",
"P  c #E7D873",
"I  c #EEE573",
"U  c #F4F57E",
"Y  c #FDFD7B",
"T  c #70778E",
"R  c #757C93",
"E  c #797F96",
"W  c #7A8197",
"Q  c #7D849C",
"!  c #828282",
"~  c #8C8787",
"^  c #8E8C8C",
"/  c #92918F",
"(  c #80879F",
")  c #9AA19F",
"_  c #A1A09E",
"`  c #A5AB9C",
"'  c #B9BE94",
"]  c #B2B798",
"[  c #838CA5",
"{  c #00b140",
"}  c #8F97A4",
"|  c #9CA3A9",
" . c #A8A7A7",
".. c #ADACAB",
"X. c #B1B1B1",
"o. c #BFC4AA",
"O. c #CCCF8C",
"+. c #CED18B",
"@. c #D1D38B",
"#. c #C3C791",
"$. c #DEE097",
"%. c #E6E784",
"&. c #ECEE80",
"*. c #EEEF8E",
"=. c #F3E381",
"-. c #F7F880",
";. c #FBFC84",
":. c #EBE992",
">. c #EAED9E",
",. c #F7ED90",
"<. c #F1E49E",
"1. c #F9F691",
"2. c #FCFA96",
"3. c #FBFE9B",
"4. c #CCD1A9",
"5. c #D8DAA8",
"6. c #EAEDA0",
"7. c #FCFDAF",
"8. c #FBFEBC",
"9. c #E3E3E3",
"0. c #FAFEF2",
"q. c #F9FFFD",
/* pixels */
"{ { { { { { { { { { { { { { { { { { { { { { { { { { { { { { { { { { { { { { { { { { { { { { { { { { { { { { { { { { { { { { { { { { { { { { { { { { { { { { { { ",
"{ { { { { { { { { { { { { { { { { { { { { { { { { { { { { { { { { { { { { { { { { { { { { { { { { { { { { { { { { { { { { { { { { { { { { { { { { { { { { { { { ",
"{ { { { { { { { { { { { { { { { { { { { { { { { { { { { { { { { { { { { { { { { { { { { { { { { { { { { { { { { { { { { { { { { { { { { { { { { { { { { { { { { ",
"{ { { { { { { { { { { { { { { { { { { { { { { { { { { { { { { { { { { { { { { { { { { { { { { { { { { { { { { { { { { { { { { { { { { { { { { { { { { { { { { { ",
"{ { { { { { { { { { { { { { { { { { { { { { { { { { { { { { { { { { { { { { { { { { { { { { { { { { { { { { { { { { { { { { { { { { { { { { { { { { { { { { { { ",
"{ { { { { { { { { { { { { { { { { { { { { { { { { { { ] } { Q O.@.| 5.{ { ' { { { { { { { { { { { { { { { { { { { { { { { { { { { { { { { { { { { { { { { { { { ",
"{ { { { { { { { { { { { { { { { { { { { { { { o.{ { | { +.5.{ O.6.{ { { +.{ { { { { { { { { { { { { { { { { { { { { { { { { { { { { { { { { { { { { { { { { { { ",
"{ { { { { { { { { { { { { { { { { { { { { { { ` { { &.4.#.;.$.Y >.{ O.O.| { { { { { { { { { { { { { { { { { { { { { { { { { { { { { { { { { { { { { { { { { { { ",
"{ { { { { { { { { { { { { { { { { { { { { { { { { O.+.&.-.Y Y Y *.U Y { { o.{ { { { { { { { { { { { { { { { { { { { { { { { { { { { { { { { { { { { { { { { { { ",
"{ { { { { { { { { { { { { { { { { { { { { { { { { { { $.Y 0.q.8.;.>.>.{ { { { { { { { { { { { { { { { { { { { { { { { { { { { { { { { { { { { { { { { { { { { { ",
"{ { { { { { { { { { { { { { { { { { { { { { { 4.4.4.Y Y q.q.q.q.Y %.+.+.+.{ { { { { { { { { { { { { { { { { { { { { { { { { { { { { { { { { { { { { { { { { { { ",
"{ { { { { { { { { { { { { { { { { { { { { { { { ` { +.:.Y 7.Y Y Y 3.Y +.+.+.+.{ { { { { { { { { { { { { { { { { { { { { { { { { { { { { { { { { { { { { { { { { ",
"{ { { { { { { { { { { { { { { { { { { { { { { { ) +.+.,.Y 2.1.Y +.6.4.+.' { { { { { { { { { { { { { { { { { { { { { { { { { { { { { { { { { { { { { { { { { { { ",
"{ { { { { { { { { { { { { { { { { { { { { { { { { { 3 <.Y =.:.Y +.+.{ 4.{ { { { { { { { { { { { { { { { { { { { { { { { { { { { { { { { { { { { { { { { { { { { ",
"{ { { { { { { { { { { { { { { { { { { { { { { { { l 3 C I P +.g g +.{ { o.{ { { { { { { { { { { { { { { { { { { { { { { { { { { { { { { { { { { { { { { { { { { ",
"{ { { { { { { { { { { { { { { { { { { { { { { { { q 3 ! f &.` x | , +.{ o.{ { { { { { { { { { { { { { { { { { { { { { { { { { { { { { { { { { { { { { { { { { { ",
"{ { { { { { { { { { { { { { { { { { { k           2 < J < < , c q < { { { { { { { { { { { { { { { { { { { { { { { { { { { { { { { { { { { { { { { { { { { { { { ",
"{ { { { { { { { { { { { { { { R         X K W ! L W ! ^ q 2 < l < | { { { { { { { { { { { { { { { { { { { { { { { { { { { { { { { { { { { { { { { { { { { { { { ",
"{ { { { { { { { { { { { { ,   . S ! ! ! L K L J K J K J J G G J p   , Q { { { { { { { { { { { { { { { { { { { { { { { { { { { { { { { { { { { { { { { { { { { { ",
"{ { { { { { { { { { { z   a L K J J H H J J J F G G F F F F F A S S w   k { { { { { { { { { { { { { { { { { { { { { { { { { { { { { { { { { { { { { { { { { { { ",
"{ { { { { { { { { { o = H G / X.X.^ F F S D S S A A A A C C C C C C B B .   Q { { { { { { { { { { { { { { { { { { { { { { { { { { { { { { { { { { { { { { { { { ",
"{ { { { { { { { [ o D D S  .9.9...L A B B A A B C B B B B B B M M M m m m t . Q { { { { { { { { { { { { { { { { { { { { { { { { { { { { { { { { { { { { { { { { ",
"{ { { { { { { Q * Z B Z _ 9.9.9.` N B N B M M M M b b b c c c j c c x x l x a   T { { { { { { { { { { { { { { { { { { { { { { { { { { { { { { { { { { { { { { { ",
"{ { { { { { Q O N B B ^ 9.9.9.` v N b c c c j j h h h h g g g f s d s a f a a a   Q { { { { { { { { { { { { { { { { { { { { { { { { { { { { { { { { { { { { { { ",
"{ { { { { { O b v v v _ 9.9.) v h j j j h g g d d s s s s a a a i t i t t u t t e   { { { { { { { { { { { { { { { { { { { { { { { { { { { { { { { { { { { { { { ",
"{ { { { { O j j h h h J ~ D i h i i s i a i i i i u i t u y t r t t r w w w w w q : X { { { { { { { { { { { { { { { { { { { { { { { { { { { { { { { { { { { { { ",
"{ { { { # 0 d d i i i i i i i i u y u u u r r r r e e w w w 9 9 q q 7 4 4 q 2 2 3 3 . $ { { { { { { { { { { { { { { { { { { { { { { { { { { { { { { { { { { { { ",
"{ { { { # i i u i u u i y r r r y y 0 y 0 9 9 9 7 9 $ $ O o X X . @ @ O : : : : < - , X { { { { { { { { { { { { { { { { { { { { { { { { { { { { { { { { { { { { ",
"{ { { % r r y r y y e 0 0 0 9 9 7 7 4 6 6 - O O O O o @ X O X O o o X X O X O . # % % $ . { { { { { { { { { { { { { { { { { { { { { { { { { { { { { { { { { { { ",
"{ { { % 0 8 8 8 8 8 7 6 6 6 6 > 5 1 - O @ @ @ @ @ @ o @ O o o o o X @ @ O . X X X X O X X { { { { { { { { { { { { { { { { { { { { { { { { { { { { { { { { { { { ",
"{ { 7 - 6 5 5 5 > > > > > : : > # # # # @ @ O O o @ @ O @ @ o @ O O X o @ o @ X X X X X X & { { { { { { { { { { { { { { { { { { { { { { { { { { { { { { { { { { ",
"{ { % 1 1 : : ; > > - - : * # % # # # # # $ # # @ @ @ @ @ O @ @ O @ @ o @ o @ o O O O X O O { { { { { { { { { { { { { { { { { { { { { { { { { { { { { { { { { { ",
"{ { * = = = = * * * # * * # * # # % % # # # # # % + % + + + + + @ @ O O @ O @ @ @ o O o O o { { { { { { { { { { { { { { { { { { { { { { { { { { { { { { { { { { ",
"{ { = = * * * * % * * % * * # + % # % % # % % # + % + + + + + + + # # + # O @ O O @ @ @ @ @ { { { { { { { { { { { { { { { { { { { { { { { { { { { { { { { { { { ",
"{ 5 = = = * * * * * * * * * * * * * % # * # # % * + % + % % + % # # # O # # + @ + O O + @ O 2 { { { { { { { { { { { { { { { { { { { { { { { { { { { { { { { { { ",
"{ = = = = = = = * * = * * * * * * * * * * * * # % * * + % % % % % # # % % # # # # # + + @ @ 3 { { { { { { { { { { { { { { { { { { { { { { { { { { { { { { { { { ",
"{ - - = = = - = * = = = = * = * * * * * = = * * * * % * % % % % # # % # # % + # + % + + # + 4 { { { { { { { { { { { { { { { { { { { { { { { { { { { { { { { { { ",
"{ > - > ; ; ; - ; = = = = = = = * * * * = * * * * * % * % * * % * * % % % # % % % % + % # # 4 { { { { { { { { { { { { { { { { { { { { { { { { { { { { { { { { { ",
"{ > > > ; ; ; ; ; ; - = - - = = = = = = = * = * * * * * * * * * * % % % * % % % + % % % % # 4 { { { { { { { { { { { { { { { { { { { { { { { { { { { { { { { { { ",
"{ > > > > > > ; ; > ; ; - ; ; - ; - = - = = = = * * * * * * * * * * * * * * % % % * % % % % 4 { { { { { { { { { { { { { { { { { { { { { { { { { { { { { { { { { ",
"{ { 1 1 1 > > > > > > > > ; ; ; ; ; - - = - = = = = = = = = = = = * * * * * * * * % * * % % [ { { { { { { { { { { { { { { { { { { { { { { { { { { { { { { { { { ",
"{ { 5 5 5 5 > 5 1 > > > > > 1 > > ; ; ; > ; ; ; = ; ; = = = = = = = = = * = * * * * * * = % { { { { { { { { { { { { { { { { { { { { { { { { { { { { { { { { { { ",
"{ { 5 7 7 6 5 5 5 5 1 5 1 1 > > > > > > > > ; ; ; ; ; ; ; ; = = = = = = = = = = = * * * % = { { { { { { { { { { { { { { { { { { { { { { { { { { { { { { { { { { ",
"{ { 7 7 8 7 8 7 7 5 5 5 1 5 1 1 5 > 5 > > > > > ; > ; > ; ; ; ; ; - - - ; = = = = = = = = = { { { { { { { { { { { { { { { { { { { { { { { { { { { { { { { { { { ",
"{ { { 7 e 8 e 8 0 0 8 6 5 5 5 5 5 5 5 > 5 5 > > > > > > > > > ; ; ; ; ; ; - ; = = = - i = [ { { { { { { { { { { { { { { { { { { { { { { { { { { { { { { { { { { ",
"{ { { 7 y e y e 0 0 e 0 0 8 8 5 5 5 5 5 5 5 5 5 > > 1 1 > > 1 > 1 1 > > > ; ; > ; ; 0 - - { { { { { { { { { { { { { { { { { { { { { { { { { { { { { { { { { { { ",
"{ { { [ 8 y y y y e y y y 0 8 8 y 8 6 8 8 8 8 6 5 8 8 5 5 5 5 5 5 5 5 1 > 1 > > > 7 y > Q { { { { { { { { { { { { { { { { { { { { { { { { { { { { { { { { { { { ",
"{ { { { e u y u y y y y y y y y 8 y y 8 y 8 8 y 8 8 8 8 5 y 5 7 6 6 5 5 5 5 5 1 7 i > > [ { { { { { { { { { { { { { { { { { { { { { { { { { { { { { { { { { { { ",
"{ { { { { e a u x u u u u u u u y y y y y y y y y 8 8 8 8 7 8 7 8 8 7 7 7 7 6 t d 5 1 { { { { { { { { { { { { { { { { { { { { { { { { { { { { { { { { { { { { { ",
"{ { { { { E e f a x u a u u u u u u u y y y y y y y y y y y y 8 8 0 8 8 8 7 g g w 1 R { { { { { { { { { { { { { { { { { { { { { { { { { { { { { { { { { { { { { ",
"{ { { { { { V e s s j h u s s u u u a u u u u u y y y y y y y y y e e e y g g r 7 V { { { { { { { { { { { { { { { { { { { { { { { { { { { { { { { { { { { { { { ",
"{ { { { { { { y u g d x v d d s s s s a s u u u s u y y u y y y y y u g g g a e r { { { { { { { { { { { { { { { { { { { { { { { { { { { { { { { { { { { { { { { ",
"{ { { { { { { { n i h d d v v h g s s s s s a a u s u i u i u u s h x h g y r c { { { { { { { { { { { { { { { { { { { { { { { { { { { { { { { { { { { { { { { { ",
"{ { { { { { { { { [ u h h h d m m v h d d d d s d s s s s h c c x x h d u 8 Q { { { { { { { { { { { { { { { { { { { { { { { { { { { { { { { { { { { { { { { { { ",
"{ { { { { { { { { { { u a j j x h v m m m v m v N c c v c c c c c g a a 0 { { { { { { { { { { { { { { { { { { { { { { { { { { { { { { { { { { { { { { { { { { { ",
"{ { { { { { { { { { { { [ u g j v j x h v v v m j v m m v x h d d a e ( { { { { { { { { { { { { { { { { { { { { { { { { { { { { { { { { { { { { { { { { { { { { ",
"{ { { { { { { { { { { { { { { s a f j v c c c c j x x g h h g y u { { { { { { { { { { { { { { { { { { { { { { { { { { { { { { { { { { { { { { { { { { { { { { { ",
"{ { { { { { { { { { { { { { { { { E l a a u u u u u u u u f E { { { { { { { { { { { { { { { { { { { { { { { { { { { { { { { { { { { { { { { { { { { { { { { { { ",
"{ { { { { { { { { { { { { { { { { { { { { { { { { { { { { { { { { { { { { { { { { { { { { { { { { { { { { { { { { { { { { { { { { { { { { { { { { { { { { { { { ",
"{ { { { { { { { { { { { { { { { { { { { { { { { { { { { { { { { { { { { { { { { { { { { { { { { { { { { { { { { { { { { { { { { { { { { { { { { { { { { { { { { "
};
