/* XPM */
static xpm_row_t const bomb_xpm_4[] = {
/* columns rows colors chars-per-pixel */
"60 60 141 2 ",
"   c #040201",
".  c #0C0503",
"X  c #0F0805",
"o  c #0D0B0B",
"O  c #110706",
"+  c #140906",
"@  c #160B08",
"#  c #190D0B",
"$  c #16110F",
"%  c #1D110D",
"&  c #1E1413",
"*  c #1B1B1B",
"=  c #20110E",
"-  c #211512",
";  c #251916",
":  c #261B19",
">  c #291E1C",
",  c #24211F",
"<  c #2A201E",
"1  c #232222",
"2  c #2C2322",
"3  c #2D2926",
"4  c #2A242A",
"5  c #2C2B2A",
"6  c #312725",
"7  c #322926",
"8  c #342C2A",
"9  c #382F2D",
"0  c #36302E",
"q  c #39312E",
"w  c #2E2F30",
"e  c #363331",
"r  c #3B3533",
"t  c #3D3836",
"y  c #3B353B",
"u  c #3F3B3A",
"i  c #403736",
"p  c #403937",
"a  c #433E3C",
"s  c #45413F",
"d  c #363A45",
"f  c #454242",
"g  c #494544",
"h  c #4D4947",
"j  c #4D4B4A",
"k  c #514E4D",
"l  c #53504F",
"z  c #4F4C56",
"x  c #4C4B59",
"c  c #555353",
"v  c #585554",
"b  c #5A5957",
"n  c #575558",
"m  c #585658",
"M  c #5D5C5B",
"N  c #605C5A",
"B  c #62615F",
"V  c #515361",
"C  c #5B5C6B",
"Z  c #5B6172",
"A  c #656463",
"S  c #696664",
"D  c #6D6967",
"F  c #696769",
"G  c #6C6C6B",
"H  c #716D6C",
"J  c #72706E",
"K  c #747473",
"L  c #797574",
"P  c #797876",
"I  c #7C7C7C",
"U  c #817F7F",
"Y  c #C39656",
"T  c #C29E67",
"R  c #D4CD7A",
"E  c #EFDB78",
"W  c #FDF56C",
"Q  c #FFF86C",
"!  c #EBE977",
"~  c #F6ED70",
"^  c #F0E17C",
"/  c #FEF576",
"(  c #FEFA7A",
")  c #6E7285",
"_  c #71788D",
"`  c #7C849C",
"'  c #7E88A0",
"]  c #838282",
"[  c #929291",
"{  c #9F9D9C",
"}  c #A09D9C",
"|  c #A1A79E",
" . c #ADB298",
".. c #B2B795",
"X. c #B7B994",
"o. c #838CA5",
"O. c #858EA9",
"+. c #8F97A7",
"@. c #8791AB",
"#. c #00b140",
"$. c #939BA6",
"%. c #929AAB",
"&. c #9AA1A1",
"*. c #9BA3AA",
"=. c #A6A4A2",
"-. c #A8A7A6",
";. c #AEAEAD",
":. c #AAB0A9",
">. c #B3B7A4",
",. c #B2B1AF",
"<. c #B5B9A9",
"1. c #B5B9A9",
"2. c #CECE87",
"3. c #C2C38F",
"4. c #CBCB8A",
"5. c #D3D286",
"6. c #DBDB81",
"7. c #D6D688",
"8. c #DFDE8E",
"9. c #E7D78F",
"0. c #E5E58D",
"q. c #EEEB88",
"w. c #F5EE85",
"e. c #FEFA85",
"r. c #E7E797",
"t. c #EFEC93",
"y. c #ECEC9A",
"u. c #F4EC93",
"i. c #FEF997",
"p. c #C0C4A7",
"a. c #CACEA7",
"s. c #CFD2A7",
"d. c #D8DAA7",
"f. c #D1D2A8",
"g. c #C0C0BF",
"h. c #F5D0A3",
"j. c #FEFDA6",
"k. c #FEFCC4",
"l. c #E4E4E4",
"z. c #FCFEEA",
"x. c #FAFEFC",
/* pixels */
"#.#.#.#.#.#.#.#.#.#.#.#.#.#.#.#.#.#.#.#.#.#.#.#.#.#.#.#.#.#.#.#.#.#.#.#.#.#.#.#.#.#.#.#.#.#.#.#.#.#.#.#.#.#.#.#.#.#.#.#.",
"#.#.#.#.#.#.#.#.#.#.#.#.#.#.#.#.#.#.#.#.#.#.#.#.#.#.#.#.#.#.#.#.#.#.#.#.#.#.#.#.#.#.#.#.#.#.#.#.#.#.#.#.#.#.#.#.#.#.#.#.",
"#.#.#.#.#.#.#.#.#.#.#.#.#.#.#.#.#.#.#.#.#.#.#.#.#.#.#.#.#.#.#.#.#.#.#.#.#.#.#.#.#.#.#.#.#.#.#.#.#.#.#.#.#.#.#.#.#.#.#.#.",
"#.#.#.#.#.#.#.#.#.#.#.#.#.#.#.#.#.#.#.#.#.#.#.#.#.#.#.#.#.#.#.#.#.#.#.#.#.#.O.#.#.#.#.#.#.#.#.#.#.#.#.#.#.#.#.#.#.#.#.#.",
"#.#.#.#.#.#.#.#.#.#.#.#.#.#.#.#.#.#.#.#.#.#.#.#.#.#.#.#.#.#.#.#.#.#.#.#.#.#.#.@.#.#.#.#.#.#.#.#.#.#.#.#.#.#.#.#.#.#.#.#.",
"#.#.#.#.#.#.#.#.#.#.#.#.#.#.#.#.#.#.#.#.#.#.#.#.#.#.#.#.#.#.#.#.#.#.#.#.#.#.#.#.#.#.#.#.#.#.#.#.#.#.#.#.#.#.#.#.#.#.#.#.",
"#.#.#.#.#.#.#.#.#.#.#.#.#.#.#.#.#.#.#.#.#.#.#.#.#.#.#.#.#.#.#.#.#.#.#.#.#.#.#.#.#.#.#.#.#.#.#.#.#.#.#.#.#.#.#.#.#.#.#.#.",
"#.#.#.#.#.#.#.#.#.#.#.#.#.#.#.#.O.#.#.#.#.#.#.#.#.#.#.#.#.#.#.#.#. .#.+.+.#.#.+.#.#.#.#.#.#.#.#.#.#.#.#.#.#.#.#.#.#.#.#.",
"#.#.#.#.#.#.#.#.#.#.#.#.#.#.#.#.#.#.#.#.#.#.#.#.#.#.#.#.#.#.#.#.#.#.$.#.#.#.#.4.#.#.#.:.#.#.#.#.$.#.#.#.#.#.#.#.#.#.#.#.",
"#.#.#.#.#.#.#.#.#.#.#.#.#.#.#.#.#.#.#.#.#.#.#.#.#.#.#.#.#.#.#.#.#.#.+.+.@.#.#.5.| <.d.#.#.#. .#.#.#.#.#.#.#.#.#.#.#.#.#.",
"#.#.#.#.#.#.#.#.#.#.#.#.#.#.#.#.#.#.#.#.#.#.#.#.#.#.#.#.#.#.#.#.#.+.#.2.! <.#.5.>.#.@.#.=.4.#.#.#.#.#.#.#.#.#.#.#.#.#.#.",
"#.#.#.#.#.#.#.#.#.#.#.#.#.#.#.#.#.#.#.#.#.#.#.#.#.#.#.#.#.+.#.#.#.6.s.#.7.q.4.Q y.@.X.2.+. .#.#.#.#.#.#.#.#.#.#.#.#.#.#.",
"#.#.#.#.#.#.#.#.#.O.#.#.#.#.#.#.#.#.#.#.#.#.#.#.#.#.#.#.#.#.#.#.5.5.$.W r.j.Q Q 7.7.W &.#.#.+.#.#.#.#.#.#.#.#.#.#.#.#.#.",
"#.#.#.#.#.#.#.#.#.#.#.#.#.#.#.#.#.#.#.#.#.#.#.#.#.#.#.#.#.#.#.#.#.#.3.8.( e.x.( e.t.y.%.#.#.O.#.#.#.#.#.#.#.#.#.#.#.#.#.",
"#.#.#.#.#.#.#.#.#.#.#.#.#.#.#.#.#.#.#.#.#.#.#.#.#.#.#.#.#.*.p.f.s.0.Q e.x.x.x.z.Q R 5.5.5.@.#.#.#.#.#.#.#.#.#.#.#.#.#.#.",
"#.#.#.#.#.#.#.#.#.#.#.#.#.#.#.#.#.#.#.#.#.#.#.#.#.#.#.#.#.#.! #.#.$.5.u.Q k.i.Q w./ W 5.5.5.5.5.#.#.#.#.#.#.#.#.#.#.#.#.",
"#.#.#.#.#.#.#.#.#.#.#.#.#.#.#.#.#.#.#.#.#.#.#.#.#.#.#.#.#.#.#.#.5.5.5.u.Q ^ u.~ 5.y.f.$.~ #.#.@.#.#.#.#.#.#.#.#.#.#.#.#.",
"#.#.#.#.#.#.#.#.#.#.#.#.#.#.#.#.#.#.#.#.#.#.#.#.#.#.#.#.#.#.7.X.#.#.O.9.~ E y.Q 2.5.#.a.#.#.+.@.#.#.#.#.#.#.#.#.#.#.#.#.",
"#.#.#.#.#.#.#.#.#.#.#.#.#.#.#.#.#.#.#.#.#.#.#.#.#.#.#.#.=.#.#.#.O.#.Y 9.T R +.#.#...#.#.#.#.#.#.#.#.#.#.#.#.#.#.#.#.#.#.",
"#.#.#.#.#.#.#.#.#.#.#.#.#.#.#.#.#.#.#.#.#.#.#.#.#.#.#.#.@.#.#.w ; U X.h.h.#.#.#.#.#.#.#.#.#.#.#.#.#.#.#.#.#.#.#.#.#.#.#.",
"#.#.#.#.#.#.#.#.#.#.#.#.#.#.#.#.#.#.#.#.#.#.#.#.#.#.#.#.@.#.#.5 * [ * * * n e #.#.#.#.#.#.#.#.#.#.#.#.#.#.#.#.#.#.#.#.#.",
"#.#.#.#.#.#.O.#.#.#.#.#.#.#.#.#.#.#.#.#.#.#.#.#.#.#.#.#.@.@._ 1 M G * * 1 G * ' #.#.#.#.#.#.#.#.#.#.#.#.#.#.#.#.#.#.#.#.",
"#.#.#.#.#.#.#.#.#.#.#.#.#.#.#.#.#.#.#.#.#.#.#.#.#.#.#.@.@.' 5 1 K M * * j j * ' #.#.#.#.#.#.#.#.#.#.#.#.#.#.#.#.#.#.#.#.",
"#.#.#.#.#.#.#.#.#.#.#.#.#.#.#.#.#.#.#.#.#.'                 5 * j * * * j d * @.#.#.#.#.#.#.#.#.#.#.#.#.#.#.#.#.#.#.#.#.",
"#.#.#.#.#.#.#.#.#.#.#.#.#.#.#.#.#.#.O.      f ] ` I ] ] ] ] ` P I I I ` M * o ` #.#.#.#.#.#.#.#.#.#.#.#.#.#.#.#.#.#.#.#.",
"#.#.#.#.#.#.#.#.#.#.#.#.#.#.#.#.Z     U I I I I P P P P K K L J K K K G J J G w   d #.#.#.#.#.#.#.#.#.#.#.#.#.#.#.#.#.#.",
"#.#.#.#.#.#.#.#.#.#.#.#.#.#.O.  w K P [ :.-.U J J J G G G D D D F F A A B A A A B *   ' #.#.#.#.#.#.#.#.#.#.#.#.#.#.#.#.",
"#.#.#.#.#.#.#.#.#.#.#.#.#.# . G H P 1.l.l.;.J S S S S A B B B B B M B b M b b b m n c     #.#.#.#.#.#.#.#.#.#.#.#.#.#.#.",
"#.#.#.#.#.#.#.#.#.#.#.#.. N S B I g.l.l.l.] B N M M b b b v v v c c c c l k k j j j j j *   @.@.#.#.#.#.#.#.#.#.#.#.#.#.",
"#.#.#.#.#.#.#.#.#.#.#.. N N N N =.l.l.l.] v v l l l l l l k j j j j h f f g f f f f f d u t   @.#.#.#.#.#.#.#.#.#.#.#.#.",
"#.#.#.#.#.#.#.#.#.#.O v v l v L } ,.{ A h h h g g g f g f s s s f u u u u u t t t t e e w e 5   #.#.#.#.#.#.#.#.#.#.#.#.",
"#.#.#.#.#.#.#.#.O.O h h h h g g D v s s s s s s a a s t t t t t t e e e e w 0 5 5 8 5 5 5 3 4 *   #.#.#.#.#.#.#.#.#.#.#.",
"#.#.#.#.#.#.#.#.4 6 a s a s a a p t t t t r q t 0 0 0 0 8 8 8 5 5 2 1 1 2 , < , 1 , < , * : * *     #.#.#.#.#.#.#.#.#.#.",
"#.#.#.#.#.#.#.#.O i i i r q q q 0 0 0 0 8 8 8 5 5 3 3 @ . . . . . . . .       .   .     . $ $ $ @   ' #.#.#.#.#.#.#.#.#.",
"#.#.#.#.#.#.#.+ 7 9 8 8 7 8 7 6 3 2 2 < < < < & . . . . . . . . . . . . . .   . .       .     . .     #.#.#.#.#.#.#.#.#.",
"#.#.#.#.#.#.#.@ 2 2 < > < < : : : : : ; & X X X O X X X X X . . . . . . . . . . . . .   .   .     .   O.#.#.#.#.#.#.#.#.",
"O.#.#.#.#.#.y # ; ; - ; - - & % = # @ + + O @ O + O O O O O O O X . X X . . X . . . . . . . .     .   . #.#.#.#.#.#.#.#.",
"#.#.#.#.#.#.# & # % % # # # @ @ @ @ @ @ @ @ O @ + @ O @ + O O O X X O O X X O . . . . . . . . . . . . . #.#.#.#.#.#.#.#.",
"#.#.#.#.#.#.& # $ # # # # # # # # # @ # @ @ @ @ @ @ @ + O @ + O O O + O O O O O O . . O O . . . . . X . #.#.#.#.#.#.#.#.",
"#.#.#.#.#.#.# % % % # % % # # # # # # # # @ # # @ @ @ @ @ @ @ + @ + @ O + O + O O + O + O O . O X X . X ` #.#.#.#.#.#.#.",
"#.#.#.#.#.#.- = % % % % # % # % # = # # # % # # # # # # # # @ @ @ @ @ @ + + + @ @ + + O + O + O X X O O V #.#.#.#.#.#.#.",
"#.#.#.#.#.#.- - - - - & - = % = # = = % % # # % # # # # # # @ @ # @ @ @ @ @ @ @ @ @ @ @ O @ + + + + O O x #.#.#.#.#.#.#.",
"#.#.#.#.#.#.; ; ; ; - ; - - - - - = = = % % % % % % % % # % # % # # @ % @ @ @ # @ @ # @ @ @ @ + + + @ + C #.#.#.#.#.#.#.",
"#.#.#.#.#.#.: : : : ; ; ; ; ; - - - - - - = - = % % = # % % % % # = # % # % # @ @ @ # @ # @ # @ @ @ @ + o.#.#.#.#.#.#.#.",
"#.#.#.#.#.#.> < > : : : : : ; : : ; ; ; - ; ; - - - - - = = = = = % % % % % % % # # % # # # # # # # @ @ #.#.#.#.#.#.#.#.",
"#.#.#.#.#.#.> 2 6 < > > > > > : : : ; : : ; ; ; ; - - - - = - - = = = = % % % % % % % % # # # # # # # # #.#.#.#.#.#.#.#.",
"#.#.#.#.#.#.) 6 6 6 6 6 < < > < : > > : : : : : : ; ; ; ; ; : - ; - - - - - = % % % % % % % = # % # # 2 #.#.#.#.#.#.#.#.",
"#.#.#.#.#.#.#.2 8 8 8 7 8 6 6 2 6 < > 6 > < > > > < : : : : : : ; ; ; - - ; - - - = = = = = = = % 7 # #.#.#.#.#.#.#.#.#.",
"#.#.#.#.#.#.#.f 7 q 9 q 0 8 0 8 8 7 < 2 < < < < < < < < : < > : < ; : : : ; ; ; ; ; ; - ; = - = r = - #.#.#.#.#.#.#.#.#.",
"#.#.#.#.#.#.#.#.8 r r r r q q q q 9 q q 0 8 8 8 6 6 < < < 6 < 2 < < 2 < < < < < : : : ; : : ; i ; - #.#.#.#.#.#.#.#.#.#.",
"#.#.#.#.#.#.#.#.o.8 y p t t t t r r r q q q q 9 q 8 9 9 8 8 7 7 7 6 6 6 6 6 2 2 2 < < : : < s s ; z #.#.#.#.#.#.#.#.#.#.",
"#.#.#.#.#.#.#.#.#.r r a a p p p p p i t t r i r r q q q 9 q q 0 0 0 8 7 7 7 6 6 6 6 6 6 6 s g 2 : #.#.#.#.#.#.#.#.#.#.#.",
"#.#.#.#.#.#.#.#.#.#.q a f s c a a a a a p p p p i i i r r r r r q q 9 9 i 7 7 9 8 8 8 f g g 6 < #.#.#.#.#.#.#.#.#.#.#.#.",
"#.#.#.#.#.#.#.#.#.#.#.y f g f c c f a a s s a a a a p a p i i i p i r r i 9 9 i 9 a j j j 8 2 #.#.#.#.#.#.#.#.#.#.#.#.#.",
"#.#.#.#.#.#.#.#.#.#.#.#.a p h g g c c g f f g f s a a a a a a a p s p p p p i s j z j p e 6 #.#.#.#.#.#.#.#.#.#.#.#.#.#.",
"#.#.#.#.#.#.#.#.#.#.#.#.#.` y j k k k v v v g g g g g g g s f s s s s s h k l v l l i 8 ) #.#.#.#.#.#.#.#.#.#.#.#.#.#.#.",
"#.#.#.#.#.#.#.#.#.#.#.#.#.#.#.f a k k k j n n n n m l j h g h j l l v l c l c k a p 9 #.#.#.#.#.#.#.#.#.#.#.#.#.#.#.#.#.",
"#.#.#.#.#.#.#.#.#.#.#.#.#.#.#.#.#.a a l l l l k c v b c c n n c v v v l j g f a r #.#.#.#.O.#.#.#.#.#.#.#.#.#.#.#.#.#.#.",
"#.#.#.#.#.#.#.#.#.#.#.#.#.#.#.#.#.#.O.) f u j c l c k c k k k k k k k j a r C @.#.#.#.#.#.#.#.#.#.#.#.#.#.#.#.#.#.#.#.#.",
"#.#.#.#.#.#.#.#.#.#.#.#.#.#.#.#.#.#.O.O.#.#.O.j f a a a a a u u t u s O.#.#.@.#.#.#.#.#.#.#.#.#.#.#.#.#.#.#.#.#.#.#.#.#."
};
