/* XPM */
static xpm_row_t const bomb_xpm_3[] = {
/* columns rows colors chars-per-pixel */
"60 60 146 2 ",
"   c #040201",
".  c #0C0503",
"X  c #0F0805",
"o  c #110706",
"O  c #140906",
"+  c #160B08",
"@  c #190D0B",
"#  c #16110F",
"$  c #1D110D",
"%  c #131011",
"&  c #1E1413",
"*  c #1B1B1B",
"=  c #20110E",
"-  c #211512",
";  c #251916",
":  c #261B19",
">  c #291E1C",
",  c #24211F",
"<  c #2A201E",
"1  c #232222",
"2  c #2C2322",
"3  c #2D2926",
"4  c #2A242A",
"5  c #2C2B2A",
"6  c #312725",
"7  c #322926",
"8  c #342C2A",
"9  c #382F2D",
"0  c #36302E",
"q  c #39312E",
"w  c #2E2F30",
"e  c #363331",
"r  c #3B3533",
"t  c #3D3836",
"y  c #3B353B",
"u  c #3F3B3A",
"i  c #403736",
"p  c #403937",
"a  c #433E3C",
"s  c #45413F",
"d  c #363A45",
"f  c #454242",
"g  c #494544",
"h  c #4D4947",
"j  c #4D4B4A",
"k  c #514E4D",
"l  c #53504F",
"z  c #4F4C56",
"x  c #4C4B59",
"c  c #555353",
"v  c #585554",
"b  c #5A5957",
"n  c #575558",
"m  c #585658",
"M  c #5D5C5B",
"N  c #605C5A",
"B  c #62615F",
"V  c #515361",
"C  c #5B5C6B",
"Z  c #5B6172",
"A  c #656463",
"S  c #696664",
"D  c #6D6967",
"F  c #696769",
"G  c #6C6C6B",
"H  c #716D6C",
"J  c #72706E",
"K  c #6A6D7E",
"L  c #716F71",
"P  c #747473",
"I  c #797574",
"U  c #797876",
"Y  c #7C7C7C",
"T  c #817F7F",
"R  c #BA894A",
"E  c #C49755",
"W  c #C29E67",
"Q  c #D6AB6A",
"!  c #D4CD7A",
"~  c #EFDB78",
"^  c #FDF56C",
"/  c #FFF86C",
"(  c #EBE977",
")  c #F6ED70",
"_  c #FEF576",
"`  c #FFF875",
"'  c #FEFA7A",
"]  c #6E7285",
"[  c #71788D",
"{  c #7C849C",
"}  c #7F87A0",
"|  c #7E88A0",
" . c #838282",
".. c #929291",
"X. c #9F9D9C",
"o. c #A1A79E",
"O. c #ADB298",
"+. c #B2B795",
"@. c #B7B994",
"#. c #838CA5",
"$. c #858EA9",
"%. c #8F97A7",
"&. c #8791AB",
"*. c #00b140",
"=. c #939BA6",
"-. c #97A0A3",
";. c #9AA1A1",
":. c #9BA3AA",
">. c #A6A4A2",
",. c #AAB0A9",
"<. c #B3B7A4",
"1. c #B2B1AF",
"2. c #B5B9A9",
"3. c #B5B9A9",
"4. c #C2A889",
"5. c #EEBE83",
"6. c #CECE87",
"7. c #C2C38F",
"8. c #CBCB8A",
"9. c #D0CE87",
"0. c #D3D286",
"q. c #DBDB81",
"w. c #D6D688",
"e. c #DFDE8E",
"r. c #E7D78F",
"t. c #E5E58D",
"y. c #EEEB88",
"u. c #F5EE85",
"i. c #FEFA85",
"p. c #E7E797",
"a. c #EFEC93",
"s. c #ECEC9A",
"d. c #F4EC93",
"f. c #FEF997",
"g. c #C0C4A7",
"h. c #CACEA7",
"j. c #CFD2A7",
"k. c #D8DAA7",
"l. c #D1D2A8",
"z. c #C0C0BF",
"x. c #F6CEA3",
"c. c #FEFDA6",
"v. c #FEFCC4",
"b. c #E4E4E4",
"n. c #FCFEEA",
"m. c #FAFEFC",
/* pixels */
"*.*.*.*.*.*.*.*.*.*.*.*.*.*.*.*.*.*.*.*.*.*.*.*.*.*.*.*.*.*.*.*.*.*.*.*.*.*.*.*.*.*.*.*.*.*.*.*.*.*.*.*.*.*.*.*.*.*.*.*.",
"*.*.*.*.*.*.*.*.*.*.*.*.*.*.*.*.*.*.*.*.*.*.*.*.*.*.*.*.*.*.*.*.*.*.*.*.*.*.*.*.*.*.*.*.*.*.*.*.*.*.*.*.*.*.*.*.*.*.*.*.",
"*.*.*.*.*.*.*.*.*.*.*.*.*.*.*.*.*.*.*.*.*.*.*.*.*.*.*.*.*.*.*.*.*.*.*.*.*.*.*.*.*.*.*.*.*.*.*.*.*.*.*.*.*.*.*.*.*.*.*.*.",
"*.*.*.*.*.*.*.*.*.*.*.*.*.*.*.*.*.*.*.*.*.*.*.*.*.*.*.*.*.*.*.*.*.*.*.*.*.*.*.*.*.*.*.*.*.*.*.*.*.*.*.*.*.*.*.*.*.*.*.*.",
"*.*.*.*.*.*.*.*.*.*.*.*.*.*.*.*.*.*.*.*.*.*.*.*.*.*.*.*.*.*.*.*.*.*.*.*.*.*.*.*.*.*.*.*.*.*.*.*.*.*.*.*.*.*.*.*.*.*.*.*.",
"*.*.*.*.*.*.*.*.*.*.*.*.*.*.*.*.*.*.*.*.*.*.*.*.*.*.*.*.*.*.*.*.*.*.*.*.*.*.*.*.*.*.*.*.*.*.*.*.*.*.*.*.*.*.*.*.*.*.*.*.",
"*.*.*.*.*.*.*.*.*.*.*.*.*.*.*.*.*.*.*.*.*.*.*.*.*.*.*.*.*.*.*.*.*.*.O.*.%.*.*.*.%.*.*.*.*.*.*.*.*.*.*.*.*.*.*.*.*.*.*.*.",
"*.*.*.*.*.*.*.*.*.*.*.*.*.*.*.*.$.*.*.*.*.*.*.*.*.*.*.*.*.*.*.*.*.*.*.;.*.*.*.*.8.*.*.*.,.*.*.*.*.-.*.*.*.*.*.*.*.*.*.*.",
"*.*.*.*.*.*.*.*.*.*.*.*.*.*.*.*.*.*.*.*.*.*.*.*.*.*.*.*.*.*.*.*.*.*.*.*.=.*.*.*.0.o.2.k.*.*.*.O.&.*.*.*.*.*.*.*.*.*.*.*.",
"*.*.*.*.*.*.*.*.*.*.*.*.*.*.*.*.*.*.*.*.*.*.*.*.*.*.*.*.*.*.*.*.*.*.%.*.6.( 2.*.w.<.*.*.*.o.8.*.*.*.*.*.*.*.*.*.*.*.*.*.",
"*.*.*.*.*.*.*.*.*.*.*.*.*.*.*.*.*.*.*.*.*.*.*.*.*.*.*.*.*.*.%.*.*.*.! j.*.0.y.8./ s.*.@.0.%.O.*.*.*.*.*.*.*.*.*.*.*.*.*.",
"*.*.*.*.*.*.*.*.*.*.*.*.*.*.*.*.*.*.*.*.*.*.*.*.*.*.*.*.*.*.*.*.*.0.w.=./ p.c./ / w.0.^ ;.*.*.%.*.*.*.*.*.*.*.*.*.*.*.*.",
"*.*.*.*.*.*.*.*.*.$.*.*.*.*.*.*.*.*.*.*.*.*.*.*.*.*.*.*.*.*.*.*.*.*.*.7.e.' i.m.` i.a.s.=.*.*.*.*.*.*.*.*.*.*.*.*.*.*.*.",
"*.*.*.*.*.*.*.*.*.*.*.*.*.*.*.*.*.*.*.*.*.*.*.*.*.*.*.*.*.*.:.g.l.l.t./ i.m.m.m.n./ q.0.0.0.*.*.*.*.*.*.*.*.*.*.*.*.*.*.",
"*.*.*.*.*.*.*.*.*.*.*.*.*.*.*.*.*.*.*.*.*.*.*.*.*.*.*.*.*.*.*.( *.*.=.0.d./ v.f.^ u._ ^ 0.0.0.w.9.&.&.*.*.*.*.*.*.*.*.*.",
"*.*.*.*.*.*.*.*.*.*.*.*.*.*.*.*.*.*.*.*.*.*.*.*.*.*.*.*.*.*.*.*.*.0.0.0.d./ ~ a.^ 0.s.l.=.) *.*.*.*.&.*.*.*.*.*.*.*.*.*.",
"*.*.*.*.*.*.*.*.*.*.*.*.*.*.*.*.*.*.*.*.*.*.*.*.*.*.*.*.*.&.&.6.4.*.*.*.p._ ~ s./ 6.0.*.h.*.*.*.*.*.*.*.*.*.*.*.*.*.*.*.",
"*.*.*.*.*.*.*.*.*.*.*.*.*.*.*.*.*.*.*.*.*.*.*.*.*.*.*.*.*.>.*.*.*.*.*.E 5.W ! *.*.*.+.*.*.*.*.*.*.*.*.*.*.*.*.*.*.*.*.*.",
"*.*.*.*.*.*.*.*.*.*.*.*.*.*.*.*.*.*.*.*.*.*.*.*.*.*.*.*.*.*.*.*.*.*.r.R R Q *.*.*.*.*.*.*.*.*.*.*.*.*.*.*.*.*.*.*.*.*.*.",
"*.*.*.*.*.*.*.*.*.*.*.*.*.*.*.*.*.*.*.*.*.*.*.*.*.*.*.*.*.*.*.w 1  .@.r.x.$.*.*.*.*.*.*.*.*.*.*.*.*.*.*.*.*.*.*.*.*.*.*.",
"*.*.*.*.*.*.*.*.*.*.*.*.*.*.*.*.*.*.*.*.*.*.*.*.*.*.*.*.*.*.*.5 * %.* * * n e &.*.*.*.*.*.*.*.*.*.*.*.*.*.*.*.*.*.*.*.*.",
"*.*.*.*.*.*.*.*.*.*.*.*.*.*.*.*.*.*.*.*.*.*.*.*.*.*.*.*.*.*.[ 1 M G * * * G * | *.*.*.*.*.*.*.*.*.*.*.*.*.*.*.*.*.*.*.*.",
"*.*.*.*.*.*.*.*.*.*.*.*.*.*.*.*.*.*.*.*.*.*.*.*.*.*.*.&.&.| 5 1 P M * * j j * &.*.*.*.*.*.*.*.*.*.*.*.&.&.*.*.*.*.*.*.*.",
"*.*.*.*.*.*.*.*.*.*.*.*.*.*.*.*.*.*.*.*.*.|                 5 * j * * * j f * | *.*.*.*.*.*.*.*.*.*.*.*.*.*.*.*.*.*.*.*.",
"*.*.*.*.*.*.*.*.*.*.*.*.*.*.*.*.&.&.$.      s  .{ W { R [ Y Y { Y Y Y { M * % { *.*.*.*.*.*.&.&.*.*.*.*.*.*.*.*.*.*.*.*.",
"*.*.*.*.*.*.*.*.*.*.*.*.*.*.*.*.Z     T T Y Y U ] Z U U ] K J J P P P L J G G w   d *.*.*.*.*.&.*.*.*.*.*.*.*.*.*.*.*.*.",
"*.*.*.*.*.*.*.*.*.*.*.$.*.*.*.  0 P U ..,.,.{ G K G L G G G D G F F F A A A A B B *   | *.*.&.&.*.*.*.*.*.*.*.*.*.*.*.*.",
"*.*.*.*.*.*.*.*.*.*.*.$.*.# . H L U 3.b.b.,.L A A A A A B B B B B M M M b b b b m n n     *.&.&.*.*.*.*.*.*.*.*.*.*.&.*.",
"*.*.*.*.*.*.*.*.*.*.*.$.  N S S U z.b.b.b.[ V M N M b b b b b l c l l l l k j j j j j j *   &.&.*.*.*.*.*.*.*.*.*.*.*.*.",
"*.*.*.*.*.*.*.*.*.*.*.. N N N N >.b.b.b.W v l l l l l l k k h h j j j f f g g f f f f u u r   &.*.*.*.*.*.*.*.*.*.*.*.*.",
"*.*.*.*.*.*.*.*.*.*.o v v l l I o.1.X.A j h h h h s h s s s s s f a a u u u t t y r e e w e 5   *.*.*.*.*.&.*.*.*.*.*.*.",
"*.*.*.*.*.*.*.*.*.o h h h h g g D v s s s a s a a s u u u t t t r e e 0 e w 0 w 5 5 5 w 5 5 4 *   *.*.*.*.*.*.*.*.*.*.*.",
"*.*.*.*.*.*.*.*.4 2 a a a a a a a t t r r r r r 0 q 0 0 8 8 8 3 3 3 1 1 2 , , < 2 1 > , * : * *   . *.*.*.*.*.*.*.*.*.*.",
"*.*.*.*.*.*.*.*.o i i i i q q q 0 0 0 0 8 8 3 3 5 3 3 # . . . . . . . . .         .   . . # % # +   | *.*.*.*.*.*.*.*.*.",
"*.*.*.*.*.*.*.+ 7 9 8 8 7 8 7 7 3 2 2 < , < < & . . . . . . . . . . . . .     .             .     .   *.*.*.*.*.*.*.*.*.",
"*.*.*.*.*.*.*.@ 2 2 2 > < : < : : : : ; & O X O o X X . O . . . . . . . . . . . . . .   .   .       . *.*.*.*.*.*.*.*.*.",
"*.*.*.*.*.*.y @ ; ; ; - - & & $ = $ + O O o + o + o o o o o o o . . . . . . . . . . . . . . .   .   . X *.*.*.*.*.*.*.*.",
"*.*.*.*.*.*.@ @ # $ @ @ @ @ + + + + + + + + o + + O O O O o o o X X X o . O o . . . . . o . . . . . .   *.*.*.*.*.*.*.*.",
"*.*.*.*.*.*.@ & @ # @ @ @ @ @ @ @ + @ + + + + + O + + O O + + o O O O o + o o o o o o . o . o . . . . . *.*.*.*.*.*.*.*.",
"*.*.*.*.*.$.= @ @ $ $ $ @ $ @ @ @ @ @ @ @ + @ @ + + + + + O O O O O O O o O + o O o . O o o . O . o o . { *.*.*.*.*.*.*.",
"*.*.*.*.*.*.= = = = = $ $ $ $ $ @ $ @ $ @ $ @ @ @ @ @ @ @ @ + + + + + + + O + + + o O O o o o O . o o . V *.*.*.*.*.*.*.",
"*.*.*.*.*.*.; - - - - - = = $ $ = @ = @ $ @ $ $ @ @ @ @ @ @ @ + @ @ + @ + + + + + + O + + O + o O O O o x *.*.*.*.*.*.*.",
"*.*.*.*.*.*.: ; ; - - - - - - - - = = = $ $ $ $ $ $ $ @ @ @ @ $ @ @ @ @ @ @ + + + + + + + + + + O O + o C *.*.*.*.*.*.*.",
"*.*.*.*.*.*.: : : : : ; ; ; ; - ; - - - = - = = $ = $ $ $ $ $ $ @ $ @ $ @ @ $ + @ + + @ + @ + + + + + + #.*.*.*.*.*.*.*.",
"*.*.*.*.*.*.> > > : : : : : : ; ; ; ; ; - - ; - - - - $ = = = = $ $ $ $ $ $ $ @ $ + + $ @ @ @ @ @ @ @ @ *.*.*.*.*.*.*.*.",
"*.*.*.*.*.*.> 2 2 2 > > > > > : : : ; ; : ; : ; ; ; - ; - = - - = = = $ $ $ $ $ $ $ $ $ @ $ @ @ @ @ @ + *.*.*.*.*.*.*.*.",
"*.*.*.*.*.*.] 2 6 7 6 6 < > < > > > > : > : : : : : : ; ; ; : - ; = = - - - = $ $ = $ $ = @ $ $ $ @ @ < *.*.*.*.*.*.*.*.",
"*.*.*.*.*.*.*.6 8 8 8 7 8 7 6 2 6 < > 6 > > > > > : : : : : : : ; ; ; ; - ; - - - = = = = = = $ $ 7 @ *.*.*.*.*.*.*.*.*.",
"*.*.*.*.*.*.*.f 7 e 9 9 8 8 0 8 7 8 < < < < < < < < < < > : : : < , < ; ; ; ; ; ; - - - - - - - r = = *.*.*.*.*.*.*.*.*.",
"*.*.*.*.*.*.*.*.7 t t r r r q q q 9 q 9 0 8 8 8 6 6 < < 2 6 < 6 < < < < < < < < > : > : : : : i ; - *.*.*.*.*.*.*.*.*.*.",
"*.*.*.*.*.*.*.*.} 8 i p t r r q r r q q q q q q q 8 9 0 8 8 7 6 6 6 6 6 6 6 6 < > 2 > > > > a a : z *.*.*.*.*.*.*.*.*.*.",
"*.*.*.*.*.*.*.*.*.r t a a a a a p i p a t r i r r q q q 9 q q 0 8 8 8 8 7 7 7 7 6 7 7 2 2 g g 2 : *.*.*.*.*.*.*.*.*.*.*.",
"*.*.*.*.*.*.*.*.*.*.y s s s c a a a a a a p p p i p i i r r r r q q q 8 i 9 7 9 8 8 7 g h g 6 > *.*.*.*.*.*.*.*.*.*.*.*.",
"*.*.*.*.*.*.*.*.*.*.*.y f g f c c g a a a s a a a a p p p p i r i i r i 9 q i q q a k j g 8 2 *.*.*.*.*.*.*.*.*.*.*.*.*.",
"*.*.*.*.*.*.*.*.*.*.*.*.a a h g g v c f f f g s a a a a a a a a s p p p p p i s k j j i e 7 *.*.*.*.*.*.*.*.*.*.*.*.*.*.",
"*.*.*.*.*.*.*.*.*.*.*.*.*.[ y k j j k v v c h g h f h g g s s f s s s s h l l l c k i 8 ] *.*.*.*.*.*.*.*.*.*.*.*.*.*.*.",
"*.*.*.*.*.*.*.*.*.*.*.*.*.*.*.a a k k k j n n n n n c h g h g j l l v l c k c k a a 8 *.*.*.*.*.*.*.*.*.*.*.*.*.*.*.*.*.",
"*.*.*.*.*.*.*.*.*.*.*.*.*.*.*.*.*.a a c c c k k c v v n v n m v v v v l j g f s e *.*.*.*.*.*.*.*.*.*.*.*.*.*.*.*.*.*.*.",
"*.*.*.*.*.*.*.*.*.*.*.*.*.*.*.*.*.*.*.K a a h c c c l k c j k k j k k h a r C *.*.*.*.*.*.*.*.*.*.*.*.*.*.*.*.*.*.*.*.*.",
"*.*.*.*.*.*.*.*.*.*.*.*.*.*.*.*.*.*.*.*.*.*.$.j a a a a a a u u u u s &.*.*.*.*.*.*.*.*.*.*.*.*.*.*.*.*.*.*.*.*.*.*.*.*."
};
