/* XPM */
static xpm_row_t const bomb_xpm_9[] = {
/* columns rows colors chars-per-pixel */
"80 60 129 2 ",
"   c #030203",
".  c #0B0906",
"X  c #0E0B09",
"o  c #120C06",
"O  c #130D0B",
"+  c #180F0D",
"@  c #17100E",
"#  c #1A110F",
"$  c #151211",
"%  c #1D1411",
"&  c #1F1E1C",
"*  c #211613",
"=  c #241915",
"-  c #261C19",
";  c #291E1B",
":  c #25211E",
">  c #2B211E",
",  c #1C1E23",
"<  c #222221",
"1  c #2E2422",
"2  c #2A2826",
"3  c #2D2A2B",
"4  c #312724",
"5  c #322926",
"6  c #352D2B",
"7  c #382F2D",
"8  c #36312E",
"9  c #39302E",
"0  c #2E2E30",
"q  c #343232",
"w  c #3C3533",
"e  c #3E3936",
"r  c #3D3B39",
"t  c #403936",
"y  c #433D3B",
"u  c #45403F",
"i  c #393E47",
"p  c #454241",
"a  c #4A4544",
"s  c #4D4847",
"d  c #494548",
"f  c #4D4B4B",
"g  c #524E4D",
"h  c #54504E",
"j  c #404350",
"k  c #484850",
"l  c #4B4D5C",
"z  c #514F52",
"x  c #555353",
"c  c #595656",
"v  c #5A5856",
"b  c #55545D",
"n  c #595758",
"m  c #5C5B5A",
"M  c #615E5D",
"N  c #61605F",
"B  c #5A5962",
"V  c #5A6071",
"C  c #646363",
"Z  c #696666",
"A  c #696967",
"S  c #6D6C6C",
"D  c #706E6E",
"F  c #71706F",
"G  c #757474",
"H  c #797777",
"J  c #7A7977",
"K  c #7B7B7A",
"L  c #80807F",
"P  c #CFA162",
"I  c #E7D873",
"U  c #EEE573",
"Y  c #F4F57E",
"T  c #FDFD7B",
"R  c #70778E",
"E  c #767C94",
"W  c #797F96",
"Q  c #7A8197",
"!  c #7D849C",
"~  c #828282",
"^  c #8C8787",
"/  c #8E8C8C",
"(  c #92918F",
")  c #80879F",
"_  c #A99A8C",
"`  c #9AA19F",
"'  c #A1A09E",
"]  c #A5AB9C",
"[  c #B9BE94",
"{  c #B2B798",
"}  c #838CA5",
"|  c #00b140",
" . c #8F97A4",
".. c #9CA3A9",
"X. c #A8A7A7",
"o. c #ADACAB",
"O. c #B9BDA9",
"+. c #B1B1B1",
"@. c #DDBA83",
"#. c #BFC4AA",
"$. c #CCCF8C",
"%. c #CED18B",
"&. c #D1D38B",
"*. c #C3C791",
"=. c #D9DC93",
"-. c #DEE097",
";. c #E6E784",
":. c #ECEE80",
">. c #EEEF8E",
",. c #F3E381",
"<. c #F7F880",
"1. c #FBFC84",
"2. c #EBE992",
"3. c #EAED9E",
"4. c #F7ED90",
"5. c #F1E49E",
"6. c #F9F691",
"7. c #FCFA96",
"8. c #FBFE9B",
"9. c #CACFA8",
"0. c #CCD1A9",
"q. c #D8DAA8",
"w. c #F9D6A6",
"e. c #EAEDA0",
"r. c #FCFDAF",
"t. c #FBFEBC",
"y. c #E3E3E3",
"u. c #FAFEF2",
"i. c #F9FFFD",
/* pixels */
"| | | | | | | | | | | | | | | | | | | | | | | | | | | | | | | | | | | | | | | | | | | | | | | | | | | | | | | | | | | | | | | | | | | | | | | | | | | | | | | | ",
"| | | | | | | | | | | | | | | | | | | | | | | | | | | | | | | | | | | | | | | | | | | | | | | | | | | | | | | | | | | | | | | | | | | | | | | | | | | | | | | | ",
"| | | | | | | | | | | | | | | | | | | | | | | | | | | | | | {  .| | %.&...q.| | [ | | | | | | | | | | | | | | | | | | | | | | | | | | | | | | | | | | | | | | | ",
"| | | | | | | | | | | | | | | | | | | | | | | | | | #.| | ..| %.q.| %.3.| | | %.| | | | | | | | | | | | | | | | | | | | | | | | | | | | | | | | | | | | | | | | ",
"| | | | | | | | | | | | | | | | | | | | | | | | | | ] | | ;.9.*.1.=.T e.| %.%.` | | | | | | | | | | | | | | | | | | | | | | | | | | | | | | | | | | | | | | | | ",
"| | | | | | | | | | | | | | | | | | | | | | | | | | | | %.%.:.<.T T T >.Y T | } #.| | | | | | | | | | | | | | | | | | | | | | | | | | | | | | | | | | | | | | | ",
"| | | | | | | | | | | | | | | | | | | | | | | | | | | | | | -.T u.i.t.1.3.3.| | | | | | | | | | | | | | | | | | | | | | | | | | | | | | | | | | | | | | | | | | ",
"| | | | | | | | | | | | | | | | | | | | | | | | | | 0.0.0.T T i.i.i.i.T ;.%.%.%.| | | | | | | | | | | | | | | | | | | | | | | | | | | | | | | | | | | | | | | | ",
"| | | | | | | | | | | | | | | | | | | | | | | | | | | ] | &.2.T r.T T 1.8.T %.%.%.%.| | | | | | | | | | | | | | | | | | | | | | | | | | | | | | | | | | | | | | ",
"| | | | | | | | | | | | | | | | | | | | | | | | | | | ` %.%.4.T 7.6.T %.3.0.&.[ | | | | | | | | | | | | | | | | | | | | | | | | | | | | | | | | | | | | | | | | ",
"| | | | | | | | | | | | | | | | | | | | | | | | | | | | | _ 3.T ,.2.T $.%.| 0.| | | | | | | | | | | | | | | | | | | | | | | | | | | | | | | | | | | | | | | | | ",
"| | | | | | | | | | | | | | | | | | | | | | | | | | | | | @.P U I %.| | %.| | O.| | | | | | | | | | | | | | | | | | | | | | | | | | | | | | | | | | | | | | | | ",
"| | | | | | | | | | | | | | | | | | | | | | | | | | q < _ 5.w.w.,.] | ..| %.| #.| | | | | | | | | | | | | | | | | | | | | | | | | | | | | | | | | | | | | | | | ",
"| | | | | | | | | | | | | | | | | | | | | | | | | } 3 k Q < : < S V | | | | | | | | | | | | | | | | | | } | | | | | | | | | | | | | | | | | | | | | | | | | | | ",
"| | | | | | | | | | | | | | | | | | | | | | | | | k 3 C C < < f f < | | ..| | | | | | | | | | | | | | | | | | | | | | | | | | | | | | | | | | | | | | | | | | | ",
"| | | | | | | | | | | | | | | | | | | | | | | | | 0 < ^ k < < f f < | | } | | | | | | | | | | | | | | | | | | | | | | | | | | | | | | | | | | | | | | | | | | | ",
"| | | | | | | | | | | | | | | | | | | j           3 < G < < < x 0 , | | | | | | | | | | | | | | | | | | | | | | | | | | | | | | | | | | | | | | | | | | | | | | ",
"| | | | | | | | | | | | | | | E         X K Q ~ L L L ( 0 3 < k < Q | | | | | | | | | | | | | | | | | | | | | | | | | | | | | | | | | | | | | | | | | | | | | | ",
"| | | | | | | | | | | | | ,   . S ~ ~ ~ L L K K Q J K J G G G J r   , | | | | | | | | | | | | | | | | | | | | | | | | | | | | | | | | | | | | | | | | | | | | | ",
"| | | | | | | | | | | l   p K K K J H H G J G G F F F F F F F S S S q   j | | | | | | | | | | | | | | | | | | | | | | | | | | | | | | | | | | | | | | | | | | | ",
"| | | | | | | | | | o = H G ( +.+.( F F D F F S S A A A A C C C N C N C X   | | | | | | | | | | | | | | | | | | | | | | | | | | | | | | | | | | | | | | | | | | ",
"| | | | | | | | } o D D S X.y.y.o.K A N N N Z N N N N N N N m m m n n n n r   ! | | | | | | | | | | | | | | | | | | | | | | | | | | | | | | | | | | | | | | | | ",
"| | | | | | | ! * Z N Z ' y.y.y.] M N M N m M v v v v c x x x x z h z z g f i   R | | | | | | | | | | | | | | | | | | | | | | | | | | | | | | | | | | | | | | | ",
"| | | | | | ! O M N N / y.y.y.] M c h c c c h h h g g g f f f d s s d p d p p p   ! | | | | | | | | | | | | | | | | | | | | | | | | | | | | | | | | | | | | | | ",
"| | | | | | O v c c c ' y.y.` c g h h h g f f s s a a a a p p p u u u r r r r r r   | | | | | | | | | | | | | | | | | | | | | | | | | | | | | | | | | | | | | | ",
"| | | | | O h h g g g J ^ D u g u u a u p u u u y u u r y t r e r q w w w q q q 6 < . | | | | | | | | | | | | | | | | | | | | | | | | | | | | | | | | | | | | | ",
"| | | | # 9 s s u u u u u u u u y y y y y e e e e q w q q q 8 8 0 0 3 3 3 0 2 2 2 2 . $ | | | | | | | | | | | | | | | | | | | | | | | | | | | | | | | | | | | | ",
"| | | | # u u y u y y u t e e e t w t 9 8 8 8 8 6 8 % $ O o o X o @ @ @ : : : : < - , X | | | | | | | | | | | | | | | | | | | | | | | | | | | | | | | | | | | | ",
"| | | % e e t e t t w 9 9 9 8 8 6 6 6 3 4 - @ o @ X @ o o O X X O X X X o X X o + % $ $ . | | | | | | | | | | | | | | | | | | | | | | | | | | | | | | | | | | | ",
"| | | % 9 7 7 7 7 7 6 5 5 5 5 > 1 1 - O @ @ O @ @ @ o O O O @ o o O O X O X X X X X O X X | | | | | | | | | | | | | | | | | | | | | | | | | | | | | | | | | | | ",
"| | 6 - 5 4 4 4 > > > > > : : > # # # @ @ @ @ @ o @ O @ @ o @ @ O O o o o o @ X X O X X O & | | | | | | | | | | | | | | | | | | | | | | | | | | | | | | | | | | ",
"| | % 1 1 : : ; > > - - : * # % % # # # @ # @ # @ @ @ @ @ @ @ o @ O @ @ @ @ o @ O O O O O X | | | | | | | | | | | | | | | | | | | | | | | | | | | | | | | | | | ",
"| | * = = = * * * % * # * # * # # # + * + # # # # + # + + + + + @ O O O O O @ O O @ O o O O | | | | | | | | | | | | | | | | | | | | | | | | | | | | | | | | | | ",
"| | = * * * * * * * * * * * # % * # * # * + * # * # # + * + + + # # % O % O O @ # O O @ @ O | | | | | | | | | | | | | | | | | | | | | | | | | | | | | | | | | | ",
"| 4 = = * = * = * * * * * * * % * # # # * # + # # # # * + + % + # + % + % O # @ O O + O O @ 2 | | | | | | | | | | | | | | | | | | | | | | | | | | | | | | | | | ",
"| - = = = = = * * * * * * * * * * * * * * * * * * * # * # * # % % # + % # % # # % + + + @ @ 2 | | | | | | | | | | | | | | | | | | | | | | | | | | | | | | | | | ",
"| ; = ; - = = = * = = = = = * * * * * * * * * * * + * * % % % % % + % # % # # + # % # + # # 3 | | | | | | | | | | | | | | | | | | | | | | | | | | | | | | | | | ",
"| ; ; ; ; - ; - - = = = = = = = = = = = = * * * * * % * % * * % % * % % % # % % # % # # # # 3 | | | | | | | | | | | | | | | | | | | | | | | | | | | | | | | | | ",
"| ; > ; ; ; ; ; ; - ; - - = = = = = = * = * = = * * * * * * * * * * % % * % % % % # % # # % 3 | | | | | | | | | | | | | | | | | | | | | | | | | | | | | | | | | ",
"| 1 > 1 1 ; 1 > ; ; ; ; ; ; - ; - - - = = = = = = * * * * * * * * * * * * * % * % * % % % % 5 | | | | | | | | | | | | | | | | | | | | | | | | | | | | | | | | | ",
"| | 1 1 1 1 > ; > > > ; > ; ; ; ; ; ; - - - = = = = = = = = = = * * * * * * * * * * * * % % } | | | | | | | | | | | | | | | | | | | | | | | | | | | | | | | | | ",
"| | 4 4 4 1 4 4 1 > > 1 > > > > > ; > ; ; ; ; ; ; ; = - = = = = = = = = = = * * * * * * * * | | | | | | | | | | | | | | | | | | | | | | | | | | | | | | | | | | ",
"| | 4 5 5 5 4 4 1 4 1 1 1 1 > 1 > > > > > > ; ; ; ; ; ; ; = = - = = = = = = = = * = * * * * | | | | | | | | | | | | | | | | | | | | | | | | | | | | | | | | | | ",
"| | 6 7 9 7 7 5 6 5 4 4 4 1 1 1 1 > 1 > > > > > > ; ; ; ; ; ; ; - - - - - = = = = = * * = * | | | | | | | | | | | | | | | | | | | | | | | | | | | | | | | | | | ",
"| | | 6 w 9 9 9 7 7 7 5 4 4 4 4 4 4 4 > 4 > > 4 ; 1 > > ; 1 ; ; > ; ; ; ; - ; = = - - y = | | | | | | | | | | | | | | | | | | | | | | | | | | | | | | | | | | | ",
"| | } 7 t w t w w 9 w 9 9 7 7 4 4 4 4 1 4 4 4 4 1 4 1 > 4 ; 4 1 1 1 > > > ; ; > ; ; 9 - - | | | | | | | | | | | | | | | | | | | | | | | | | | | | | | | | | | | ",
"| | | } 7 t t t t t t w t 9 7 7 7 7 6 7 7 6 6 6 7 4 5 4 4 4 5 4 4 4 4 1 > 1 > > > 5 y > ! | | | | | | | | | | | | | | | | | | | | | | | | | | | | | | | | | | | ",
"| | | | 9 y y y t t t t t t t t t t t t 7 7 t 7 7 7 7 7 7 7 5 5 5 5 4 4 4 4 4 1 5 u 1 > | | | | | | | | | | | | | | | | | | | | | | | | | | | | | | | | | | | | ",
"| | | | | w u y z y y y y y y y t t t t t t t t t 7 7 7 7 7 7 6 7 7 6 6 6 6 5 y a 4 1 | | | | | | | | | | | | | | | | | | | | | | | | | | | | | | | | | | | | | ",
"| | | | | W w d u z y a y y y y y y y y t t t t t t t t t t t 7 7 7 7 7 7 6 f s q 1 E | | | | | | | | | | | | | | | | | | | | | | | | | | | | | | | | | | | | | ",
"| | | | | | B e d a x g u a a y y u y y y y y y t t t t t t t t t w e w t f s r 7 B | | | | | | | | | | | | | | | | | | | | | | | | | | | | | | | | | | | | | | ",
"| | | | | | | r y f a g c a s a a a a u y y y u y y y t t t t t t t t g k f u e w | | | | | | | | | | | | | | | | | | | | | | | | | | | | | | | | | | | | | | | ",
"| | | | | | | | b u g s s c c g s d a a a a p a a y y u y u y y a g g z g t t z | | | | | | | | | | | | | | | | | | | | | | | | | | | | | | | | | | | | | | | | ",
"| | | | | | | | } } y g g g g c c c g g s a a a s s d a a g x x z z g s y 7 ! | | | | | | | | | | | | | | | | | | | | | | | | | | | | | | | | | | | | | | | | | ",
"| | | | | | | | | | | u u z g g g v n n n n c n M x x x x x x x x f a u q | | | | | | | | | | | | | | | | | | | | | | | | | | | | | | | | | | | | | | | | | | | ",
"| | | | | | | | | | } } } u s z x x z g c v c n x c c c c x g s s u w ) | | | | | | | | | | | | | | | | | | | | | | | | | | | | | | | | | | | | | | | | | | | | ",
"| | | | | | | | | | | | | | | d u s z x x x x x z z g z g f s t u | | | | | | | | | | | | | | | | | | | | | | | | | | | | | | | | | | | | | | | | | | | | | | | ",
"| | | | | | | | | | | | | | | } | W k a p y y y y y y y y d W | | | | | | | | | | | | | | | | | | | | | | | | | | | | | | | | | | | | | | | | | | | | | | | | | ",
"| | | | | | | | | | | | | | | | | | | | | | | | | | | | | | | | | | | | | | | | | | | | | | | | | | | | | | | | | | | | | | | | | | | | | | | | | | | | | | | | ",
"| | | | | | | | | | | | | | | | | | | | | | | | | | | | | | | | | | | | | | | | | | | | | | | | | | | | | | | | | | | | | | | | | | | | | | | | | | | | | | | | "
};
