/* XPM */
static xpm_row_t const bomb_xpm_6[] = {
/* columns rows colors chars-per-pixel */
"80 60 141 2 ",
"   c #030203",
".  c #0B0906",
"X  c #0E0B09",
"o  c #120C06",
"O  c #130D0B",
"+  c #180F0D",
"@  c #17100E",
"#  c #1A110F",
"$  c #151211",
"%  c #1D1411",
"&  c #1F1E1C",
"*  c #211613",
"=  c #241915",
"-  c #261C19",
";  c #291E1B",
":  c #25211E",
">  c #2B211E",
",  c #1C1E23",
"<  c #222221",
"1  c #2E2422",
"2  c #2A2826",
"3  c #2A2729",
"4  c #2D2A2B",
"5  c #312724",
"6  c #322926",
"7  c #352D2B",
"8  c #382F2D",
"9  c #36312E",
"0  c #39302E",
"q  c #2E2E30",
"w  c #343232",
"e  c #3C3533",
"r  c #3E3936",
"t  c #3D3B39",
"y  c #403936",
"u  c #433D3B",
"i  c #45403F",
"p  c #454241",
"a  c #4A4544",
"s  c #4D4847",
"d  c #494548",
"f  c #4D4B4B",
"g  c #524E4D",
"h  c #54504E",
"j  c #404350",
"k  c #484850",
"l  c #4B4D5C",
"z  c #514F52",
"x  c #555353",
"c  c #595656",
"v  c #5A5856",
"b  c #55545D",
"n  c #595758",
"m  c #5C5B5A",
"M  c #615E5D",
"N  c #61605F",
"B  c #5A5962",
"V  c #646363",
"C  c #696666",
"Z  c #696967",
"A  c #6D6C6C",
"S  c #706E6E",
"D  c #71706F",
"F  c #757474",
"G  c #797777",
"H  c #7A7977",
"J  c #7B7B7A",
"K  c #BA904F",
"L  c #BE9453",
"P  c #80807F",
"I  c #BBA17F",
"U  c #C39E61",
"Y  c #CEA264",
"T  c #DEB273",
"R  c #E6B87A",
"E  c #E7D873",
"W  c #EEE573",
"Q  c #F4F57E",
"!  c #FDFD7B",
"~  c #70778E",
"^  c #767C94",
"/  c #797F96",
"(  c #7A8197",
")  c #7D849C",
"_  c #828282",
"`  c #8C8787",
"'  c #8E8C8C",
"]  c #9C9285",
"[  c #92918F",
"{  c #80879F",
"}  c #A99A8C",
"|  c #9AA19F",
" . c #A1A09E",
".. c #A5AB9C",
"X. c #BDAB9E",
"o. c #B2B798",
"O. c #848DA6",
"+. c #00b140",
"@. c #8F97A4",
"#. c #999CA3",
"$. c #9CA3A9",
"%. c #A8A7A7",
"&. c #ADACAB",
"*. c #B1B1B1",
"=. c #DDBA83",
"-. c #BFC18F",
";. c #BFC4AA",
":. c #CCCF8C",
">. c #CED18B",
",. c #D1D38B",
"<. c #C3C791",
"1. c #D9DC93",
"2. c #D6DA9F",
"3. c #FBCB8E",
"4. c #F4CA96",
"5. c #FBCD92",
"6. c #FACF98",
"7. c #FBD099",
"8. c #DEE097",
"9. c #E6E784",
"0. c #ECEE80",
"q. c #EEEF8E",
"w. c #F3E381",
"e. c #F7F880",
"r. c #FBFC84",
"t. c #EBE992",
"y. c #EAED9E",
"u. c #F7ED90",
"i. c #F1E49E",
"p. c #F9F691",
"a. c #FCFC99",
"s. c #C2C7AA",
"d. c #CCD1A9",
"f. c #D8DAA8",
"g. c #F9D6A6",
"h. c #EAEDA0",
"j. c #FCFDAF",
"k. c #FBFEBC",
"l. c #E3E3E3",
"z. c #FAFEF2",
"x. c #F9FFFD",
/* pixels */
"+.+.+.+.+.+.+.+.+.+.+.+.+.+.+.+.+.+.+.+.+.+.+.+.+.+.+.+.+.+.+.+.+.+.+.+.+.+.+.+.+.+.+.+.+.+.+.+.+.+.+.+.+.+.+.+.+.+.+.+.+.+.+.+.+.+.+.+.+.+.+.+.+.+.+.+.+.+.+.+.",
"+.+.+.+.+.+.+.+.+.+.+.+.+.+.+.+.+.+.+.+.+.+.+.+.+.+.+.+.+.+.+.+.+.+.+.+.+.+.+.+.+.+.+...+.+.+.-...+.+.+.+.) +.+.+.+.+.+.+.+.+.+.+.+.+.+.+.+.+.+.+.+.+.+.+.+.+.+.",
"+.+.+.+.+.+.+.+.+.+.+.+.+.+.+.+.+.+.+.+.+.+.+.+.+.+.+.+.+.+.+.+.+.+.+.+.+.+.+.+.+.+.+.o.@.+.+.>.,.$.f.+.+.-.+.+.+.+.+.+.+.+.+.+.+.+.+.+.+.+.+.+.+.+.+.+.+.+.+.+.",
"+.+.+.+.+.+.+.+.+.+.+.+.+.+.+.+.+.+.+.+.+.+.+.+.+.+.+.+.+.+.+.+.+.+.+.+.+.+.+.s.+.+.$.+.>.2.+.>.y.+.+.+.>.+.+.+.+.+.+.+.+.+.+.+.+.+.+.+.+.+.+.+.+.+.+.+.+.+.+.+.",
"+.+.+.+.+.+.+.+.+.+.+.+.+.+.+.+.+.+.+.+.+.+.+.+.+.+.+.+.+.+.+.+.+.+.+.X.5.I 4...6.7.9.d.<.r.1.! y.+.>.>.#.+.+.+.+.+.+.+.+.+.+.+.+.+.+.+.+.+.+.+.+.+.+.+.+.+.+.+.",
"+.+.+.+.+.+.+.+.+.+.+.+.+.+.+.+.+.+.+.+.+.+.+.+.+.+.+.+.+.+.+.+.+.#.5.5.5.R T 5.7.:.>.0.e.! ! ! q.Q ! +.+.;.+.+.+.+.+.+.+.+.+.+.+.+.+.+.+.+.+.+.+.+.+.+.+.+.+.+.",
"+.+.+.+.+.+.+.+.+.+.+.+.+.+.+.+.+.+.+.+.+.+.+.+.+.+.+.+.+.+.+.+.+.5.5.5.5.5.Y 7.7.7.U 8.! z.x.k.r.y.y.+.+.+.+.+.+.+.+.+.+.+.+.+.+.+.+.+.+.+.+.+.+.+.+.+.+.+.+.+.",
"+.+.+.+.+.+.+.+.+.+.+.+.+.+.+.+.+.+.+.+.+.+.+.+.+.+.+.+.+.+.+.3.T K 5.5.4.+.+.d.d.d.! ! x.x.x.x.! 9.,.>.>.+.+.+.+.+.+.+.+.+.+.+.+.+.+.+.+.+.+.+.+.+.+.+.+.+.+.+.",
"+.+.+.+.+.+.+.+.+.+.+.+.+.+.+.+.+.+.+.+.+.+.+.+.+.+.+.+.+.+.,.3.3.5.] +.+.+.+.+...O.>.q.! j.! ! e.a.r.:.>.>.>.+.+.+.+.+.+.+.+.+.+.+.+.+.+.+.+.+.+.+.+.+.+.+.+.+.",
"+.+.+.+.+.+.+.+.+.+.+.+.+.+.+.+.+.+.+.+.+.+.+.+.+.+.+.+.+.+.3.3.5.5.+.+.+.+.+.+.$.>.>.u.! a.p.! >.h.d.2.-.+.+.+.+.+.+.+.+.+.+.+.+.+.+.+.+.+.+.+.+.+.+.+.+.+.+.+.",
"+.+.+.+.+.+.+.+.+.+.+.+.+.+.+.+.+.+.+.+.+.+.+.+.+.+.+.+.+.} 3.3.5.O.+.+.+.+.+.+.+.+.+.i.! w.t.! >.>.+.d.+.+.+.+.+.+.+.+.+.+.+.+.+.+.+.+.+.+.+.+.+.+.+.+.+.+.+.+.",
"+.+.+.+.+.+.+.+.+.+.+.+.+.+.+.+.+.+.+.+.+.+.+.+.+.+.+.+.+.=.Y L +.+.+.+.+.+.+.+.+.+.+.+.W E :.+.+.>.+.) ;.+.+.+.+.+.+.+.+.+.+.+.+.+.+.+.+.+.+.+.+.+.+.+.+.+.+.+.",
"+.+.+.+.+.+.+.+.+.+.+.+.+.+.+.+.+.+.+.+.+.+.+.+.+.+.q < ..g.g.g.+.+.+.+.+.+.+.+.+.+.+.+.+.w...+.$.+.>.+.;.+.+.+.+.+.+.+.+.+.+.+.+.+.+.+.+.+.+.+.+.+.+.+.+.+.+.+.",
"+.+.+.+.+.+.+.+.+.+.+.+.+.+.+.+.+.+.+.+.+.+.+.+.+.+.3 z _ , < < D B +.+.+.+.+.+.+.+.+.+.+.+.+.+.+.+.+.+.+.+.+.+.+.+.+.+.+.+.+.+.+.+.+.+.+.+.+.+.+.+.+.+.+.+.+.+.",
"+.+.+.+.+.+.+.+.+.+.+.+.+.+.+.+.+.+.+.+.+.+.+.+.+.k 3 V V < < f k < +.+.+.+.+.+.+.+.+.+.+.+.+.+.O.$.+.+.+.+.+.+.+.+.+.+.+.+.+.+.+.+.+.+.+.+.+.+.+.+.+.+.+.+.+.+.",
"+.+.+.+.+.+.+.+.+.+.+.+.+.+.+.+.+.+.+.+.+.+.+.+.+.q 3 ` s < < k g < +.+.+.+.+.+.+.+.+.+.+.+.+.+.+.+.+.+.+.+.+.+.+.+.+.+.+.+.+.+.+.+.+.+.+.+.+.+.+.+.+.+.+.+.+.+.",
"+.+.+.+.+.+.+.+.+.+.+.+.+.+.+.+.+.+.+.j           4 < F < < < x q , +.+.+.+.+.+.+.+.+.+.+.+.+.+.+.+.+.+.+.+.O.+.+.+.+.+.+.+.+.+.+.+.+.+.+.+.+.+.+.+.+.+.+.+.+.+.",
"+.+.+.+.+.+.+.+.+.+.+.+.+.+.+.^         $ J P ^ P ( P [ q 2 < k < ( +.+.+.+.+.+.+.+.+.+.+.+.+.+.+.+.+.+.+.+.+.+.+.+.+.+.+.+.+.+.+.+.+.+.+.+.+.+.+.+.+.+.+.+.+.+.",
"+.+.+.+.+.+.+.+.+.+.+.+.+.,   . A P P P P P P P J J J J H F F H t   , +.+.+.+.+.+.+.+.+.+.+.+.+.+.+.+.+.+.+.+.+.+.+.+.+.+.+.+.+.+.+.+.+.+.+.+.+.+.+.+.+.+.+.+.+.",
"+.+.+.+.+.+.+.+.+.+.+.l   p J J J J H H F F F D D F D D D D D A A A w   j +.+.+.+.+.+.+.+.+.+.+.+.+.+.+.+.+.+.+.+.+.+.+.+.+.+.+.+.+.+.+.+.+.+.+.+.+.+.+.+.+.+.+.",
"+.+.+.+.+.+.+.+.O.O.o - F G [ *.*.' D D S S S A A Z Z V Z V V V N V N V X   +.+.+.+.+.+.+.+.+.+.+.+.+.+.+.+.+.+.+.+.+.+.+.+.+.+.+.+.+.+.+.+.+.+.+.+.+.+.+.+.+.+.",
"+.+.+.+.+.+.+.+.O.o S S S %.l.l.&.P C N N C C N N N N N N N m m m n n b n t   ) +.+.+.+.+.+.+.+.+.+.+.+.+.+.+.+.+.+.+.+.+.+.+.+.+.+.+.+.+.+.+.+.+.+.+.+.+.+.+.+.",
"+.+.+.+.+.+.+.) % C C C  .l.l.l...M N M N m m v v v v v x x x x z h z g f f p   ~ +.+.+.+.+.+.+.+.+.+.+.+.+.+.+.+.+.+.+.+.+.+.+.+.+.+.+.+.+.+.+.+.+.+.+.+.+.+.+.",
"+.+.+.+.+.+.) O M M M ' l.l.l...c M v x x c h h h g g g f f d f s s d a j p p p   ) +.+.+.+.+.+.+.+.+.+.+.+.+.+.+.+.+.+.+.+.+.+.+.+.+.+.+.+.+.+.+.+.+.+.+.+.+.+.",
"+.+.+.+.+.+.O v v c c  .l.l.| v g h h h f f f s s a a a a p i p i i i t t t t t w . +.+.+.+.+.+.+.+.+.+.+.+.+.+.+.+.+.+.+.+.+.+.+.+.+.+.+.+.+.+.+.+.+.+.+.+.+.+.",
"+.+.+.+.+.O h h g g g H ` D i s i i s i a i i i i u i u u t t r t w e w w w w w 7 < . +.+.+.+.+.+.+.+.+.+.+.+.+.+.+.+.+.+.+.+.+.+.+.+.+.+.+.+.+.+.+.+.+.+.+.+.+.",
"+.+.+.+.# 8 s s i i i i i i i i u u u u y y r r r w w e w 0 9 9 q q 9 4 4 6 4 4 2 2 . $ +.+.+.+.+.+.+.+.+.+.+.+.+.+.+.+.+.+.+.+.+.+.+.+.+.+.+.+.+.+.+.+.+.+.+.+.",
"+.+.+.+.# i i u i i y i r r r r y 0 0 y 9 9 9 9 9 9 # $ O o X X o O @ @ : : : : < < & X +.+.+.+.+.+.+.+.+.+.+.+.+.+.+.+.+.+.+.+.+.+.+.+.+.+.+.+.+.+.+.+.+.+.+.+.",
"+.+.+.% y r y r y y e 0 0 0 9 9 8 7 4 4 6 - O @ X o o o @ X X O X O O X O X X o $ % % $ . +.+.+.+.+.+.+.+.+.+.+.+.+.+.+.+.+.+.+.+.+.+.+.+.+.+.+.+.+.+.+.+.+.+.+.",
"+.+.+.$ 0 8 8 9 8 8 7 7 6 6 6 1 1 1 - + @ @ O @ @ @ @ o @ o @ o o X X O X o O O X X X X X +.+.+.+.+.+.+.+.+.+.+.+.+.+.+.+.+.+.+.+.+.+.+.+.+.+.+.+.+.+.+.+.+.+.+.",
"+.+.7 ; 6 6 5 1 > > > > > > : : # # # # @ @ @ O @ O O @ @ @ o o @ O @ o O o O . X O X X O & +.+.+.+.+.+.+.+.+.+.+.+.+.+.+.+.+.+.+.+.+.+.+.+.+.+.+.+.+.+.+.+.+.+.",
"+.+.% 1 > > > ; > > - = : % % # # # # # # # @ # @ @ # @ @ O @ @ @ @ X O O @ O O O O O O O X +.+.+.+.+.+.+.+.+.+.+.+.+.+.+.+.+.+.+.+.+.+.+.+.+.+.+.+.+.+.+.+.+.+.",
"+.+.* = = = * * * * * # * # % % % # # # # # # # % + # # + + + + @ O O + O O @ @ O o @ X o o +.+.+.+.+.+.+.+.+.+.+.+.+.+.+.+.+.+.+.+.+.+.+.+.+.+.+.+.+.+.+.+.+.+.",
"+.+.* * * * * * * * % * % * % # % % % % % % % # % % % # + + + % # @ # + @ @ @ O @ O @ @ @ @ +.+.+.+.+.+.+.+.+.+.+.+.+.+.+.+.+.+.+.+.+.+.+.+.+.+.+.+.+.+.+.+.+.+.",
"+.5 = = = * = = * % * * * * * % * % % % % % % % % + % # % % % + # # # # # # + @ + O + + @ o 4 +.+.+.+.+.+.+.+.+.+.+.+.+.+.+.+.+.+.+.+.+.+.+.+.+.+.+.+.+.+.+.+.+.",
"+.= = - = = = = * * = * * * * * * * * * % * % % % # # # # % + % # # # # # # # # # # + + @ @ 2 +.+.+.+.+.+.+.+.+.+.+.+.+.+.+.+.+.+.+.+.+.+.+.+.+.+.+.+.+.+.+.+.+.",
"+.; = ; = - = = = = * = = = * = * * * * % * * * * % % * % % # % # # % # # # % # + # + # # + 4 +.+.+.+.+.+.+.+.+.+.+.+.+.+.+.+.+.+.+.+.+.+.+.+.+.+.+.+.+.+.+.+.+.",
"+.; ; ; ; ; - - - - - = = = = = * = = * = * % * * * * * * * * * * * % # # # % # % * % + # # 4 +.+.+.+.+.+.+.+.+.+.+.+.+.+.+.+.+.+.+.+.+.+.+.+.+.+.+.+.+.+.+.+.+.",
"+.> > ; ; ; ; ; - ; - - = = = = = = = = = = * * = * * * * * * * * * % * % * % % + # * # % $ 4 +.+.+.+.+.+.+.+.+.+.+.+.+.+.+.+.+.+.+.+.+.+.+.+.+.+.+.+.+.+.+.+.+.",
"+.> > > 1 > ; > ; ; ; - ; ; ; ; ; ; = = = = = = = * = = * * * * % * * * * % * * * * # % % % 7 +.+.+.+.+.+.+.+.+.+.+.+.+.+.+.+.+.+.+.+.+.+.+.+.+.+.+.+.+.+.+.+.+.",
"+.+.1 5 > > > > > > > > ; ; > ; ; ; ; ; = ; = = = = = = = = = = = * * * * * * * * # * * % % O.+.+.+.+.+.+.+.+.+.+.+.+.+.+.+.+.+.+.+.+.+.+.+.+.+.+.+.+.+.+.+.+.+.",
"+.+.5 5 5 5 1 5 1 1 > > > > > > ; ; ; ; ; ; ; ; ; ; = ; = = = = = = = = = = * = * * * * * * +.+.+.+.+.+.+.+.+.+.+.+.+.+.+.+.+.+.+.+.+.+.+.+.+.+.+.+.+.+.+.+.+.+.",
"+.+.6 6 7 5 5 5 5 1 1 1 1 1 > > > > > > > > ; ; ; ; ; ; - = - = = = = = = = = = = = * * * * +.+.+.+.+.+.+.+.+.+.+.+.+.+.+.+.+.+.+.+.+.+.+.+.+.+.+.+.+.+.+.+.+.+.",
"+.+.7 8 8 8 7 7 7 5 5 5 5 5 1 1 5 > > 1 > > > > ; > ; ; ; ; ; ; - - - - ; = = = = = = = * * +.+.+.+.+.+.+.+.+.+.+.+.+.+.+.+.+.+.+.+.+.+.+.+.+.+.+.+.+.+.+.+.+.+.",
"+.+.+.7 e 8 8 8 8 8 8 6 5 5 5 1 5 5 1 1 5 > > 1 > > > > ; 1 ; ; > ; ; ; ; ; = = = = = u * +.+.+.+.+.+.+.+.+.+.+.+.+.+.+.+.+.+.+.+.+.+.+.+.+.+.+.+.+.+.+.+.+.+.+.",
"+.+.+.8 y y e y e 8 e 8 8 8 8 5 6 5 5 > 5 5 5 5 1 > 1 > 1 ; 5 1 1 > > ; ; ; > > ; ; r - - +.+.+.+.+.+.+.+.+.+.+.+.+.+.+.+.+.+.+.+.+.+.+.+.+.+.+.+.+.+.+.+.+.+.+.",
"+.+.+.O.0 y y y y y y 8 y y 8 8 y 6 8 8 8 6 8 8 5 5 7 6 6 6 6 5 5 5 5 5 5 > > > > 6 r > ) +.+.+.+.+.+.+.+.+.+.+.+.+.+.+.+.+.+.+.+.+.+.+.+.+.+.+.+.+.+.+.+.+.+.+.",
"+.+.+.+.e y u u y y y y y y y y y y 8 y y 8 y 8 y 5 y 7 8 8 6 6 6 7 5 5 5 5 5 > 7 i > > +.+.+.+.+.+.+.+.+.+.+.+.+.+.+.+.+.+.+.+.+.+.+.+.+.+.+.+.+.+.+.+.+.+.+.+.",
"+.+.+.+.+.e i i f u u u u u y u u y y y y y y y y 8 8 8 8 8 8 6 8 8 7 7 7 7 7 u a 6 1 +.+.+.+.+.+.+.+.+.+.+.+.+.+.+.+.+.+.+.+.+.+.+.+.+.+.+.+.+.+.+.+.+.+.+.+.+.",
"+.+.+.+.+.^ e d p z i i u u u u u u y u y y y y y y y y y y 8 y 0 8 8 0 8 8 d s w 1 ^ +.+.+.+.+.+.+.+.+.+.+.+.+.+.+.+.+.+.+.+.+.+.+.+.+.+.+.+.+.+.+.+.+.+.+.+.+.",
"+.+.+.+.+.+.B r s s z g a a a i u i i u u u u u u y y y y y y y y y e e y f s r 8 B +.+.+.+.+.+.+.+.+.+.+.+.+.+.+.+.+.+.+.+.+.+.+.+.+.+.+.+.+.+.+.+.+.+.+.+.+.+.",
"+.+.+.+.+.+.+.r i d s g x a a a s i a i u u u u u y u u u y y y y y u k f f p e e +.+.+.+.+.+.+.+.+.+.+.+.+.+.+.+.+.+.+.+.+.+.+.+.+.+.+.+.+.+.+.+.+.+.+.+.+.+.+.",
"+.+.+.+.+.+.+.+.b i g s s c x z s s s s a p p p a u u i u i i u u z g g g y y z +.+.+.+.+.+.+.+.+.+.+.+.+.+.+.+.+.+.+.+.+.+.+.+.+.+.+.+.+.+.+.+.+.+.+.+.+.+.+.+.",
"+.+.+.+.+.+.+.+.+.O.u g g g g c v v g s s s s a a s a a a g h z x h z s u 8 ) +.+.+.+.+.+.+.+.+.+.+.+.+.+.+.+.+.+.+.+.+.+.+.+.+.+.+.+.+.+.+.+.+.+.+.+.+.+.+.+.+.",
"+.+.+.+.+.+.+.+.+.+.+.u i z h g g n n n n n n n M c z c z c h x x g p p w +.+.+.+.+.+.+.+.+.+.+.+.+.+.+.+.+.+.+.+.+.+.+.+.+.+.+.+.+.+.+.+.+.+.+.+.+.+.+.+.+.+.+.",
"+.+.+.+.+.+.+.+.+.+.+.O.O.u s x x h z h x v n n x c c c c z h s s u e { +.+.+.+.+.+.+.+.+.+.+.+.+.+.+.+.+.+.+.+.+.+.+.+.+.+.+.+.+.+.+.+.+.+.+.+.+.+.+.+.+.+.+.+.",
"+.+.+.+.+.+.+.+.+.+.+.+.+.+.+.p i s z x x x x x z z g z g g s y i +.+.+.+.+.+.+.+.+.+.+.+.+.+.+.+.+.+.+.+.+.+.+.+.+.+.+.+.+.+.+.+.+.+.+.+.+.+.+.+.+.+.+.+.+.+.+.",
"+.+.+.+.+.+.+.+.+.+.+.+.+.+.+.+.+./ f p p u u u u u u u u d / +.+.+.+.+.+.+.+.+.+.+.+.+.+.+.+.+.+.+.+.+.+.+.+.+.+.+.+.+.+.+.+.+.+.+.+.+.+.+.+.+.+.+.+.+.+.+.+.+.",
"+.+.+.+.+.+.+.+.+.+.+.+.+.+.+.+.+.+.+.+.+.+.+.+.+.+.+.+.+.+.+.+.+.+.+.+.+.+.+.+.+.+.+.+.+.+.+.+.+.+.+.+.+.+.+.+.+.+.+.+.+.+.+.+.+.+.+.+.+.+.+.+.+.+.+.+.+.+.+.+.",
"+.+.+.+.+.+.+.+.+.+.+.+.+.+.+.+.+.+.+.+.+.+.+.+.+.+.+.+.+.+.+.+.+.+.+.+.+.+.+.+.+.+.+.+.+.+.+.+.+.+.+.+.+.+.+.+.+.+.+.+.+.+.+.+.+.+.+.+.+.+.+.+.+.+.+.+.+.+.+.+."
};
