/* XPM */
static xpm_row_t const bomb_xpm_5[] = {
/* columns rows colors chars-per-pixel */
"60 60 138 2 ",
"   c #040201",
".  c #0C0503",
"X  c #0F0805",
"o  c #0D0B0B",
"O  c #110706",
"+  c #140906",
"@  c #160B08",
"#  c #190D0B",
"$  c #16110F",
"%  c #1D110D",
"&  c #131011",
"*  c #1E1413",
"=  c #1B1B1B",
"-  c #20110E",
";  c #211512",
":  c #251916",
">  c #261B19",
",  c #291E1C",
"<  c #24211F",
"1  c #2A201E",
"2  c #242222",
"3  c #2C2322",
"4  c #2D2926",
"5  c #2A242A",
"6  c #2C2B2A",
"7  c #312725",
"8  c #322926",
"9  c #342C2A",
"0  c #382F2D",
"q  c #36302E",
"w  c #39312E",
"e  c #363331",
"r  c #3B3533",
"t  c #3D3836",
"y  c #3B353B",
"u  c #3F3B3A",
"i  c #403736",
"p  c #403937",
"a  c #433E3C",
"s  c #45413F",
"d  c #363A45",
"f  c #454242",
"g  c #494544",
"h  c #4D4947",
"j  c #4D4B4A",
"k  c #514E4D",
"l  c #53504F",
"z  c #4F4C56",
"x  c #4C4B59",
"c  c #555353",
"v  c #585554",
"b  c #5A5957",
"n  c #575558",
"m  c #585658",
"M  c #5D5C5B",
"N  c #605C5A",
"B  c #62615F",
"V  c #515361",
"C  c #5B5C6B",
"Z  c #5B6172",
"A  c #656463",
"S  c #696664",
"D  c #6D6967",
"F  c #696769",
"G  c #6C6C6B",
"H  c #72706E",
"J  c #6A6D7E",
"K  c #747473",
"L  c #797574",
"P  c #797876",
"I  c #7C7C7C",
"U  c #817F7F",
"Y  c #C39656",
"T  c #C29E67",
"R  c #D4CD7A",
"E  c #EFDB78",
"W  c #FDF56C",
"Q  c #FFF86C",
"!  c #EBE977",
"~  c #F6ED70",
"^  c #F0E17C",
"/  c #FFF875",
"(  c #FEFA7A",
")  c #6E7285",
"_  c #71788D",
"`  c #7C849C",
"'  c #7E88A0",
"]  c #828282",
"[  c #929291",
"{  c #A09D9C",
"}  c #A1A79E",
"|  c #ADB298",
" . c #B2B795",
".. c #B7B994",
"X. c #838CA5",
"o. c #858EA9",
"O. c #8F97A7",
"+. c #8791AB",
"@. c #00b140",
"#. c #939BA6",
"$. c #929AAB",
"%. c #9AA1A1",
"&. c #9BA3AA",
"*. c #A6A4A2",
"=. c #A8A7A6",
"-. c #AEAEAD",
";. c #AAB0A9",
":. c #B3B7A4",
">. c #B2B1AF",
",. c #B5B9A9",
"<. c #B5B9A9",
"1. c #CECE87",
"2. c #C2C38F",
"3. c #CBCB8A",
"4. c #D3D286",
"5. c #DBDB81",
"6. c #D6D688",
"7. c #DFDE8E",
"8. c #E7D78F",
"9. c #E5E58D",
"0. c #EEEB88",
"q. c #F5EE85",
"w. c #FEFA85",
"e. c #E7E797",
"r. c #EFEC93",
"t. c #ECEC9A",
"y. c #F4EC93",
"u. c #FEF997",
"i. c #C0C4A7",
"p. c #CACEA7",
"a. c #CFD2A7",
"s. c #D8DAA7",
"d. c #D1D2A8",
"f. c #FEFDA6",
"g. c #FEFCC4",
"h. c #E4E4E4",
"j. c #FCFEEA",
"k. c #FAFEFC",
/* pixels */
"@.@.@.@.@.@.@.@.@.@.@.@.@.@.@.@.@.@.@.@.@.@.@.@.@.@.@.@.@.@.@.@.@.@.@.@.@.@.@.@.@.@.@.@.@.@.@.@.@.@.@.@.@.@.@.@.@.@.@.@.",
"@.@.@.@.@.@.@.@.@.@.@.@.@.@.@.@.@.@.@.@.@.@.@.@.@.@.@.@.@.@.@.@.@.@.@.@.@.@.@.@.@.@.@.@.@.@.@.@.@.@.@.@.@.@.@.@.@.@.@.@.",
"@.@.@.@.@.@.@.@.@.@.@.@.@.@.@.@.@.@.@.@.@.@.@.@.@.@.@.@.@.@.@.@.@.@.@.@.@.@.@.@.@.@.@.@.@.@.@.@.@.@.@.@.@.@.@.@.@.@.@.@.",
"@.@.@.@.@.@.@.@.@.@.@.@.@.@.@.@.@.@.@.@.@.@.@.@.@.@.@.@.@.@.@.@.@.@.@.@.@.@.@.@.@.@.@.@.@.@.@.@.@.@.@.@.@.@.@.@.@.@.@.@.",
"@.@.@.@.@.@.@.@.@.@.@.@.@.@.@.@.@.@.@.@.@.@.@.@.@.@.@.@.@.@.@.@.@.@.@.@.@.@.@.@.@.@.@.@.@.@.@.@.@.@.@.@.@.@.@.@.@.@.@.@.",
"@.@.@.@.@.@.@.@.@.@.@.@.@.@.@.@.@.@.@.@.@.@.@.@.@.@.@.@.@.@.@.@.@.@.@.@.@.@.@.@.@.@.@.@.@.@.@.@.@.@.@.@.@.@.@.@.@.@.@.@.",
"@.@.@.@.@.@.@.@.@.@.@.@.@.@.@.@.@.@.@.@.@.@.@.@.@.@.@.@.@.@.@.@.@.@.@.@.@.@.@.@.@.@.@.@.@.@.@.@.@.@.@.@.@.@.@.@.@.@.@.@.",
"@.@.@.@.@.@.@.@.@.@.@.@.@.@.@.@.o.@.@.@.@.@.@.@.@.@.@.@.@.@.@.@.@.@.@.@.@.@.@.@.@.@.@.@.@.@.@.@.@.@.@.@.@.@.@.@.@.@.@.@.",
"@.@.@.@.@.@.@.@.@.@.@.@.@.@.@.@.@.@.@.@.@.@.@.@.@.@.@.@.@.@.@.@.| @.O.O.@.@.O.@.@.@.@.@.@.@.@.+.@.@.@.@.@.@.@.@.@.@.@.@.",
"@.@.@.@.@.@.@.@.@.@.@.@.@.@.@.@.@.@.@.@.@.@.@.@.@.@.@.@.@.@.@.@.@.%.@.@.@.@.3.@.@.@.;.@.@.@.@.#.@.@.@.@.@.@.@.@.@.@.@.@.",
"@.@.@.@.@.@.@.@.@.@.@.@.@.@.@.@.@.@.@.@.@.@.@.@.@.@.@.@.@.@.@.@.@.@.O.+.@.@.4.} ,.s.@.@.@. .o.@.@.@.@.@.@.@.@.@.@.@.@.@.",
"@.@.@.@.@.@.@.@.@.@.@.@.@.@.@.@.@.@.@.@.@.@.@.@.@.@.@.@.@.@.@.@.O.@.1.! ,.@.4.:.@.@.@.*.3.@.@.@.@.@.@.@.@.@.@.@.@.@.@.@.",
"@.@.@.@.@.@.@.@.@.o.@.@.@.@.@.@.@.@.@.@.@.@.@.@.@.@.@.@.O.@.@.@.5.a.@.4.0.3.Q t.@...4.O.| @.@.@.@.@.@.@.@.@.@.@.@.@.@.@.",
"@.@.@.@.@.@.@.@.@.@.@.@.@.@.@.@.@.@.@.@.@.@.@.@.@.@.@.@.@.@.@.3.4.#.W e.f.Q Q 6.4.W %.+.+.$.@.@.@.@.@.@.@.@.@.@.@.@.@.@.",
"@.@.@.@.@.@.@.@.@.@.@.@.@.@.@.@.@.@.@.@.@.@.@.@.@.@.@.@.@.@.@.@.+.2.7.( w.k./ w.r.t.$.+.@.@.@.@.@.@.@.@.@.@.@.@.@.@.@.@.",
"@.@.@.@.@.@.@.@.@.@.@.@.@.@.@.@.@.@.@.@.@.@.@.@.@.@.@.@.&.i.d.d.9.Q w.k.k.k.j.Q 5.4.4.4.@.@.@.@.@.@.@.@.@.@.@.@.@.@.@.@.",
"@.@.@.@.@.@.@.@.@.@.@.@.@.@.@.@.@.@.@.@.@.@.@.@.@.@.@.@.@.! +.@.#.4.y.Q g.u.Q q./ W 4.4.4.6.4.+.@.@.@.@.@.@.@.@.@.@.@.@.",
"@.@.@.@.@.@.@.@.@.@.@.@.@.@.@.@.@.@.@.@.@.@.@.@.@.@.@.@.@.@.+.4.4.4.y.Q ^ y.~ 4.t.a.#.~ @.@.+.+.@.@.@.@.@.@.@.@.@.@.@.@.",
"@.@.@.@.@.@.@.@.@.@.@.@.@.@.@.@.@.@.@.@.@.@.@.@.@.@.@.@.+.4.2.+.+.+.7.~ E t.W 1.4.+.p.+.@.+.@.@.@.@.@.@.@.@.@.@.@.@.@.@.",
"@.@.@.@.@.@.@.@.@.@.@.@.@.@.@.@.@.@.@.@.@.@.@.@.@.@.@.*.@.@.@.@.X.Y 8.T R O.+.+. .O.+.+.@.@.@.@.@.@.@.@.@.@.@.@.@.@.@.@.",
"@.@.@.@.@.@.@.@.@.@.@.@.@.@.@.@.@.@.@.@.@.@.@.@.@.@.@.@.@.@.@.5 = [ = = = c e $.@.@.@.@.@.@.@.@.@.@.@.@.@.@.@.@.@.@.@.@.",
"@.@.@.@.@.o.@.@.@.@.@.@.@.@.@.@.@.@.@.@.@.@.@.@.@.@.@.@.@.@._ 2 M G = = = J = ' @.@.@.@.@.@.@.@.@.@.@.@.@.@.@.@.@.@.@.@.",
"@.@.@.@.@.@.@.@.@.@.@.@.@.@.@.@.@.@.@.@.@.@.@.@.@.@.@.+.+.' 6 2 K M = = j j = ' @.@.@.@.@.@.@.@.@.@.@.@.@.@.@.@.@.@.@.@.",
"@.@.@.@.@.@.@.@.@.@.@.@.@.@.@.@.@.@.@.@.@.'                 6 = l = = = j d 2 ' @.@.@.@.@.@.@.@.@.@.@.@.@.@.@.@.@.@.@.@.",
"@.@.@.@.@.@.@.@.@.@.@.@.@.@.@.@.@.+.o.      f ] ` U ] ] ] ` P I I I I ` M = o ` @.@.@.@.@.@.@.@.@.@.@.@.@.@.@.@.@.@.@.@.",
"@.@.@.@.@.@.@.@.@.@.@.@.@.@.@.@.Z     ] I I I I P P P P P K L L K K K G H G H 6   d @.@.@.@.@.@.@.@.@.@.@.@.@.@.@.@.@.@.",
"@.@.@.@.@.@.@.@.@.@.@.@.@.@.o.  q K P [ ;.=.U H H H G G G G D D G F A F A A A B B 2   ' @.@.@.@.@.@.@.@.@.@.@.@.@.@.@.@.",
"@.@.@.@.@.@.@.@.@.@.@.@.@.# . G G P <.h.h.-.H S S A S A B B B M M B M M M b b b n n c     @.@.@.@.+.@.@.@.@.@.@.@.@.@.@.",
"@.@.@.@.@.@.@.@.@.@.@.@.  N S S P >.h.h.h.] B N M M b b b v v v c l l l l l k j j j j g =   @.+.@.+.@.@.@.@.@.@.@.@.@.@.",
"@.@.@.@.@.@.@.@.@.@.@.. N N N N =.h.h.h.] v v l l l l l l k j j j g j f f f f f f f f d u e   +.@.@.@.@.@.@.@.@.@.@.@.@.",
"@.@.@.@.@.@.@.@.@.@.O v v l l L { >.*.F h h h g h g f g f s s s f f u u u u t t t t e e e e 6   @.@.@.@.@.@.@.@.@.@.@.@.",
"@.@.@.@.@.@.@.@.o.O h h h h h g D v g s s s s a a a s t t t t t e e e e e e q q 6 6 6 6 6 5 5 =   @.@.@.@.@.@.@.@.@.@.@.",
"@.@.@.@.@.@.@.@.5 7 a a a s a a s t t t t w r r w w w q 9 9 9 9 4 4 < 3 < < 1 < 2 2 1 < > > = >   . @.+.@.@.@.@.@.@.@.@.",
"@.@.@.@.@.@.@.@.O i i i i w w w q w 9 q 9 q 6 4 4 4 4 @ . . .   . .     .     .   .       $ & & @   ' @.@.@.@.@.@.@.@.@.",
"@.@.@.@.@.@.@.+ 8 0 9 9 8 9 8 7 4 < 3 1 < 1 < % . . . . . . .   . . . . . .           . .         X   @.@.@.@.@.@.@.@.@.",
"@.o.@.@.@.@.@.@ 3 3 1 , 1 > 1 > > > > : * + + + X X X X O . O O . . X . . . . . . . .   . .   .   .   o.@.@.@.@.@.@.@.@.",
"@.@.@.@.@.@.y # : : : * ; * % % % % @ + O O + O + O X X X O O . X . O . . . . . . .   . . .   . .   . X @.@.@.@.@.@.@.o.",
"@.@.@.@.@.@.# * # % $ # # # # # @ + + @ @ @ + @ + + + O O O O O X + . . X + + . . O . . . . . .   . . . @.@.@.@.@.@.@.@.",
"@.@.@.@.@.@.* # # % # # # # # # # # # @ # @ @ @ + + @ + @ + + O + + + + O O O O O O X X O . . .   O X X @.@.@.@.@.@.@.@.",
"@.@.@.@.@.@.# % % % % % # % # # # # # # # # @ # # # # @ @ @ @ @ + + + + @ O + O O O O + O O . X X . . O ` @.@.@.@.@.@.@.",
"@.@.@.@.+.+.- - % % % % % % % % # % # # % # % # # # # # # @ # @ @ @ @ @ @ + + + @ O + + + O + O X X O . V @.@.@.@.@.@.@.",
"@.@.@.@.@.+.: ; * * ; - ; - % % - # - % # % % % # # # # # # # # # # @ # @ @ @ @ @ @ + + + + + + + + O O x @.@.@.@.@.@.@.",
"@.@.@.@.@.@.: : : ; ; : ; ; ; ; ; - - - % % % % % % # % % # # # # # # @ # @ @ # @ @ @ @ @ @ @ + + + @ + C @.@.@.@.@.@.@.",
"@.@.@.@.@.@.> > > > > : : : : ; : ; ; ; - ; - - % % % % % % % % % # % % # # # # # # # # # @ @ @ # + @ + X.@.@.@.@.@.@.@.",
"@.@.@.@.@.@., , , > > > > > > > : : : : : ; : : ; ; ; - - - - - % % % % % % % % % # # % # # # # # # # # @.@.@.@.@.@.@.@.",
"@.@.@.@.@.@.1 7 7 3 , , , > , > > : > > : : : : : ; : ; : - ; ; - - - % % % % % % % % % # # # # # # # + @.@.@.@.@.@.@.@.",
"@.@.@.@.+.@.) 7 7 7 7 7 3 , , 1 > , , , > > > > > > : : : : : : ; ; ; ; ; - - % % % % % % % - # % # # 3 @.@.@.@.@.@.@.@.",
"@.@.@.@.+.+.+.3 9 9 9 8 8 7 7 3 7 1 1 1 1 1 > 1 > > 1 > > : : : 1 : : ; ; : ; ; ; - - - - % - - % 8 # @.@.@.@.@.@.@.@.@.",
"@.@.@.@.@.@.@.f 8 r 0 0 9 9 9 9 8 9 1 1 7 1 1 1 , 1 1 , , , , > 1 ; : > : > > : : ; : - : - ; ; r - % @.@.@.@.@.@.@.@.@.",
"@.@.@.@.@.@.@.@.8 r r r r r w q q 0 q 0 9 9 9 8 7 7 3 1 3 3 3 3 1 1 1 1 1 1 , , , , > > > > : t : ; @.@.@.@.@.@.@.@.@.@.",
"@.@.@.@.@.@.@.@.X.0 y p r t r t i w i w w w w w q 0 0 9 9 9 9 7 8 7 7 7 7 7 7 7 1 1 , > 1 , s s > z @.@.@.@.@.@.@.@.@.@.",
"@.@.@.@.@.@.@.@.@.r r a a a a t p p t p t r i r r w w w 0 q 0 0 q q 9 9 7 7 7 7 7 7 7 7 3 g g 1 > @.@.@.@.@.@.@.@.@.@.@.",
"@.@.@.@.@.@.@.@.@.@.y a f s c a a a a a a p p p i i r p r r r w w w w w i 0 9 8 9 9 9 s h g 8 , @.@.@.@.@.@.@.@.@.@.@.@.",
"@.@.@.@.@.@.@.@.@.@.@.y f g f c c f s s s a s a a a a p p p p i i i r r w w w i r a j k g 9 3 @.@.@.@.@.@.@.@.@.@.@.@.@.",
"@.@.@.@.@.@.@.@.@.@.@.@.a p h g g c c g g f f s s a a s a a a a s p i p i i i s k j j p r 7 @.@.@.@.@.@.@.@.@.@.@.@.@.@.",
"@.@.@.@.@.@.@.@.@.@.@.@.$._ y j j j h v v c g h g g h g s s s s s s s s h l l v k z i 0 J @.@.@.@.@.@.@.@.@.@.@.@.@.@.@.",
"@.@.@.@.@.@.@.@.@.@.@.@.@.@.@.f a k k k k v n m v v c j g g h j l l l v z l l k a a 9 +.@.@.@.@.@.@.@.@.@.@.@.@.@.@.@.@.",
"@.@.@.@.@.@.@.@.@.@.@.@.@.@.@.@.@.s p c l z k k c v v v n n v n v v v l k g g a r +.+.+.@.@.@.@.@.@.@.@.@.@.@.@.@.@.@.@.",
"@.@.@.@.@.@.@.@.@.@.@.@.@.@.@.@.@.@.@.) a a h z c c c l c k c j j k j k s r C +.@.+.@.@.@.@.@.@.@.@.@.@.@.@.@.@.@.@.@.@.",
"@.@.@.@.@.@.@.@.@.@.@.@.@.@.@.@.@.@.@.o.@.@.@.j u a a a u a u u u u s o.+.+.+.+.@.@.@.@.@.@.@.@.@.@.@.@.@.@.@.@.@.@.@.@."
};
