/* XPM */
static xpm_row_t const p2_front_4[] = {
/* columns rows colors chars-per-pixel */
"60 90 214 2 ",
"   c #FFFFFF",
".  c #F0F0F0",
"X  c #E0E0E0",
"o  c #D0D0D0",
"O  c #C0C0C0",
"+  c #B0B0B0",
"@  c #A0A0A0",
"#  c #909090",
"$  c #808080",
"%  c #707070",
"&  c #605050",
"*  c #504040",
"=  c #403030",
"-  c #302020",
";  c #201010",
":  c #101010",
">  c #202020",
",  c #303030",
"<  c #404040",
"1  c #505050",
"2  c #606060",
"3  c #505050",
"4  c #606060",
"5  c #707070",
"6  c #505050",
"7  c #606060",
"8  c #707070",
"9  c #808080",
"0  c #909090",
"q  c #A0A0A0",
"w  c #808080",
"e  c #909090",
"r  c #A0A0A0",
"t  c #B0B0B0",
"y  c #C0C0C0",
"u  c #B0B0B0",
"i  c #C0C0C0",
"p  c #594515",
"a  c #684617",
"s  c #754716",
"d  c #675318",
"f  c #755813",
"g  c #756416",
"h  c #424236",
"j  c #4A4136",
"k  c #464639",
"l  c #4C443B",
"z  c #4C4C3E",
"x  c #554A3E",
"c  c #54473A",
"v  c #5A4F27",
"b  c #78512D",
"n  c #2A2C43",
"m  c #2C314C",
"M  c #2F3558",
"N  c #343B5B",
"B  c #333B63",
"V  c #3D425E",
"C  c #3F4563",
"Z  c #444444",
"A  c #4C4C4C",
"S  c #534B43",
"D  c #594F46",
"F  c #5D5244",
"G  c #5F574E",
"H  c #535353",
"J  c #5A5A5A",
"K  c #695B4B",
"L  c #635647",
"P  c #655D56",
"I  c #6F614F",
"U  c #71604F",
"Y  c #756452",
"T  c #7B6956",
"R  c #7E6D5A",
"E  c #756757",
"W  c #6C6153",
"Q  c #4D526D",
"!  c #5E6279",
"~  c #686867",
"^  c #686B7E",
"/  c #787777",
"(  c #7C7166",
")  c #874C17",
"_  c #8D521A",
"`  c #895718",
"'  c #935519",
"]  c #9C5C19",
"[  c #955A18",
"{  c #996416",
"}  c #906C16",
"|  c #A26319",
" . c #AA6B19",
".. c #A46A17",
"X. c #AA7515",
"o. c #B5731A",
"O. c #B9761A",
"+. c #BB7C19",
"@. c #B07A17",
"#. c #A97415",
"$. c #945B29",
"%. c #8C5321",
"&. c #9F6734",
"*. c #916F2A",
"=. c #A26C3C",
"-. c #C07F19",
";. c #84725D",
":. c #88745D",
">. c #8D6E52",
",. c #AB7747",
"<. c #A67D55",
"1. c #B07B4B",
"2. c #8A7661",
"3. c #8E7963",
"4. c #867667",
"5. c #937D65",
"6. c #997E64",
"7. c #8C7F72",
"8. c #9E801A",
"9. c #BC8518",
"0. c #B49215",
"q. c #B1942E",
"w. c #C58C15",
"e. c #C38718",
"r. c #CB9415",
"t. c #C89816",
"y. c #D39F17",
"u. c #CAA316",
"i. c #D7A717",
"p. c #D3B11D",
"a. c #E4B719",
"s. c #E0AE19",
"d. c #CA9824",
"f. c #D29E28",
"g. c #D6A825",
"h. c #CBAC3A",
"j. c #D5A537",
"k. c #D7B12D",
"l. c #E5BC36",
"z. c #E2B527",
"x. c #ECC31A",
"c. c #F1C815",
"v. c #ECC523",
"b. c #F2CD27",
"n. c #E8C336",
"m. c #F8D337",
"M. c #B88759",
"N. c #AE8156",
"B. c #9B846B",
"V. c #988169",
"C. c #988776",
"Z. c #A58668",
"A. c #BC8D60",
"S. c #A58C72",
"D. c #A98E73",
"F. c #AB9276",
"G. c #AE9579",
"H. c #B2967A",
"J. c #B59A7D",
"K. c #B79A7C",
"L. c #D4B747",
"P. c #C49568",
"I. c #CB9D71",
"U. c #CCA178",
"Y. c #D4A97E",
"T. c #DFC342",
"R. c #FAD747",
"E. c #FAD954",
"W. c #F0CA49",
"Q. c #717482",
"!. c #8C8C8C",
"~. c #838487",
"^. c #979797",
"/. c #878996",
"(. c #A79888",
"). c #BB9E81",
"_. c #B09780",
"`. c #BEA183",
"'. c #999BA5",
"]. c #A7A7AA",
"[. c #B5B6B8",
"{. c #AAABB4",
"}. c #C3A585",
"|. c #CBAC8B",
" X c #C4A889",
".X c #D4AD88",
"XX c #D5B391",
"oX c #DCB996",
"OX c #DBB996",
"+X c #D3B290",
"@X c #E2BB93",
"#X c #E2BE9A",
"$X c #D7BDA7",
"%X c #DFC09B",
"&X c #E6C19C",
"*X c #E9C39E",
"=X c #ECC7A1",
"-X c #EFC9A3",
";X c #EACAAE",
":X c #F1CBA5",
">X c #F2CEAA",
",X c #F3D0A8",
"<X c #F1CFB1",
"1X c #F1D2B8",
"2X c #E3CAB8",
"3X c #C2C2C4",
"4X c #CBCBCC",
"5X c #D3D3D4",
"6X c #DADADB",
"7X c #D7D8DA",
"8X c #CDCED2",
"9X c #DFDFE0",
"0X c #EEE0D7",
"qX c #00B140",
/* pixels */
"qXqXqXqXqXqXqXqXqXqXqXqXqXqXqXqXqXqXqXqXqXqXqXqXqXqXqXqXqXqXqXqXqXqXqXqXqXqXqXqXqXqXqXqXqXqXqXqXqXqXqXqXqXqXqXqXqXqXqXqX",
"qXqXqXqXqXqXqXqXqXqXqXqXqXqXqXqXqXqXqXqXqXqXqXqXqXqXqXqXqXqXqXqXqXqXqXqXqXqXqXqXqXqXqXqXqXqXqXqXqXqXqXqXqXqXqXqXqXqXqXqX",
"qXqXqXqXqXqXqXqXqXqXqXqXqXqXqXqXqXqXqXqXqXqXqXqXqXqXqXqXqXqXqXqXqXqXqXqXqXqXqXqXqXqXqXqXqXqXqXqXqXqXqXqXqXqXqXqXqXqXqXqX",
"qXqXqXqXqXqXqXqXqXqXqXqXqXqXqXqXqXqXqXqXqXqXqXqXqXqXqXqXqXqXqXqXqXqXqXqXqXqXqXqXqXqXqXqXqXqXqXqXqXqXqXqXqXqXqXqXqXqXqXqX",
"qXqXqXqXqXqXqXqXqXqXqXqXqXqXqXqXqXqXqXqXqXqXqXqXqXqXqXqXqXqXX qXqXqXqXqXqXqXqXqXqXqXqXqXqXqXqXqXqXqXqXqXqXqXqXqXqXqXqXqX",
"qXqXqXqXqXqXqXqXqXqXqXqXqXqXqXqXqXqXqXqXqXqXqXqXqXqXqXqXqXX o X qXqXqXqXqXqXqXqXqXqXqXqXqXqXqXqXqXqXqXqXqXqXqXqXqXqXqXqX",
"qXqXqXqXqXqXqXqXqXqXqXqXqXqXqXqXqXqXqXqXqXqXqXqXqXqXqXX o 4 Z , X qXqXqXqXqXqXqXqXqXqXqXqXqXqXqXqXqXqXqXqXqXqXqXqXqXqXqX",
"qXqXqXqXqXqXqXqXqXqXqXqXqXqXqXqXqXqXqXqXqXqXqXqXqXqXX % w H J H 9 o X qXqXqXqXqXqXqXqXqXqXqXqXqXqXqXqXqXqXqXqXqXqXqXqXqX",
"qXqXqXqXqXqXqXqXqXqXqXqXqXqXqXqXqXqXqXqXqXqXqXqXX o , Z J J J J H w o X qXqXqXqXqXqXqXqXqXqXqXqXqXqXqXqXqXqXqXqXqXqXqXqX",
"qXqXqXqXqXqXqXqXqXqXqXqXqXqXqXqXqXqXqXqXqXqXqXX o < A H A J J J H H Z , o X qXqXqXqXqXqXqXqXqXqXqXqXqXqXqXqXqXqXqXqXqXqX",
"qXqXqXqXqXqXqXqXqXqXqXqXqXqXqXqXqXqXqXqXqXX o , 0 Z A H H J J J A A A A q : o o qXqXqXqXqXqXqXqXqXqXqXqXqXqXqXqXqXqXqXqX",
"qXqXqXqXqXqXqXqXqXqXqXqXqXqXqXqXqXqXqXO o : < w A H A H H J J J H A A A A A 9 % X X qXqXqXqXqXqXqXqXqXqXqXqXqXqXqXqXqXqX",
"qXqXqXqXqXqXqXqXqXqXqXqXqXqXqXqXqXo o @ , w V A A A H A J J J J H A A A Z A A Z 4 o X X qXqXqXqXqXqXqXqXqXqXqXqXqXqXqXqX",
"qXqXqXqXqXqXqXqXqXqXqXqXqXqXqXX O @ , 0 w h k H A A A H J J J J A A A A A Z l m A Z 3 @ X qXqXqXqXqXqXqXqXqXqXqXqXqXqXqX",
"qXqXqXqXqXqXqXqXqXqXqXqXqXqXX o > 9 w w V k A A A H J J J J J J J J A A A A A Z w h k w , o o qXqXqXqXqXqXqXqXqXqXqXqXqX",
"qXqXqXqXqXqXqXqXqXqXqXqXqXX % 9 w w w w A S A A H J J J J J J J J H A A A A A Z A m w w w < : X qXqXqXqXqXqXqXqXqXqXqXqX",
"qXqXqXqXqXqXqXqXqXqXqXo o : 0 w 9 w w A A A H H J J J J J J J J J J H H H H A A Z A Z w w w 0 : X qXqXqXqXqXqXqXqXqXqXqX",
"qXqXqXqXqXqXqXqXqXqXo o < 0 0 w 6 V A Z A A A J J J J J J J J J J J J H H A A A A k Z q m w w w , X X qXqXqXqXqXqXqXqXqX",
"qXqXqXqXqXqXqXqXqXo O , 0 w 9 w w k k Z A A A J H J J J J J J J J J J H H H H A A A Z V h h w w w > o X qXqXqXqXqXqXqXqX",
"qXqXqXqXqXqXqXqXO o < w w w w w h V A A A H H H J J J J J J J J J J J J J J H H A A H A u w w w w w > o X qXqXqXqXqXqXqX",
"qXqXqXqXqXqXqXX o < w 0 w 9 w w V A A A A S H H J J J J J J J J H J H H H H H H A A A A A Z w w m h w : X qXqXqXqXqXqXqX",
"qXqXqXqXqXqXqXo 1 9 w w w w w Z k Z A Z V z H H H J H J J J J H A H H A A A A Z A Z Z A Z A w w w u w 4 % X qXqXqXqXqXqX",
"qXqXqXqXqXqXX % 9 w 0 w w w Z k k Z h k w A A A A H A A H H J A H A A A A A Z Z Z Z m h Z w h 6 w w w 6 < o X qXqXqXqXqX",
"qXqXqXqXqXX o < 0 0 w q q V h h Z w k V w Z Z A A A A A A A Z A A A A Z Z Z A A A A Z k w w w V w w w V w , o o qXqXqXqX",
"qXqXqXqXqXo : 9 w 0 w w w 0 Z V Z A Z w k A A A Z Z Z w V q h w w Z z Z A A A Z Z Z A Z w w 0 w w w 0 w m 9 - o qXqXqXqX",
"qXqXqXqXo @ 9 9 w w w w q h Z Z Z w w A k V w w w w w w 9 w w w w 0 m u k Z Z A S m k Z m w w w w w w w k w < o o qXqXqX",
"qXqXqXqXX > 9 9 w w w w w V Z A q V A Z w w h m w w w w w w w w w w w q 9 w w w Z k w w k w w w w w w w h w 9 : X qXqXqX",
"qXqXqXX ; < 9 w w 9 w w w Z Z w h A w 0 w u w w w 0 w w w 9 w 9 w w m h w w w w q k m w w w k w w w w w w w w < o o qXqX",
"qXqXqXX : 9 < w w 9 w w 9 V w w k w w w w w w w w 9 9 9 9 9 9 9 9 9 0 w w w w w w w w w q 6 q m w w w w w 9 w 9 : o qXqX",
"qXqXqXX < 9 9 9 w w w w 4 6 w w w w w w 9 w w 9 9 9 9 < < , , , < < < 9 9 9 9 9 9 w w w w V u w w w w w w 9 9 9 , o qXqX",
"qXqXX : < 9 9 w w w w 9 0 0 w w w w 9 w w 9 9 < > : o @ o X o + o o o - > , < < 9 0 w w w w w k w w w w w w 0 9 < - X qX",
"qXqXo : 9 9 9 w 9 w w 9 w w w w w w w 9 9 < : o X & r p d f g f a p p * @ o - > < 4 9 9 w w q k m w w w 9 w w 9 9 : o qX",
"qXqXX < < 9 9 w w w 9 w 9 w w 9 0 w 9 < : + # r p s } #.X.#.#.| { { { ` s t * + o : 3 9 9 w w w w w w w w 9 9 9 9 1 o qX",
"qXqXo < 9 9 w 9 w 9 w w w w w w 0 9 > o @ . $ y ) [ ]  .+.-.e.-.+.+.O.| ` s s e X o - , 9 9 9 9 w w w w w 9 w 9 9 < o qX",
"qXX o < < 9 w w w 9 9 9 w 9 w 9 < : o u K c . # s [ | ] | X.o.o.o. .| ' [ ) t . & x , X : 9 9 w 9 w m h w w 9 9 < < @ o ",
"qXX - 9 9 9 9 w 9 w 9 9 w 0 0 < o % K D.D.S.;.> $ s | ] [ ' ] ' ' ' ' s e # # = U 5.T u X : 9 9 9 0 w u w 9 w < 9 < - o ",
"qXX : 9 9 9 9 9 9 9 9 w w 9 < o : T H.).OX#X X3.* # y ` [ _ _ ] ] ' t # > x T S.|.|.H.3.j o : 9 9 9 9 w w 9 w 9 9 9 % X ",
"qXo : < 9 9 w 9 9 9 9 w 9 9 - : R H.`.#X:X:X*X.X6.u @ $ e t y y t * @ u 6.H.`.XX=X-XXXK.S.l X < 9 9 w 9 w 9 9 9 < < : X ",
"qXX : 9 < 9 9 9 9 9 w 9 < > @ K K.).&X&X*X=X:X=X.XF.T u , ; @ @ @ 5 K D.|.OX&X:X=X:X=XXXJ.S.u o < 9 9 w 9 w 9 9 9 < : X ",
"qXX : < 9 9 w 9 9 9 w 9 < o c G.K.oX#X-X=X:X=X-X=XXXK.H.S.6.3.4.6.D.K.XX=X-X-X@X=X-X:X=X|.J.6.2 : 9 9 9 9 9 9 9 9 9 : o ",
"qXX : < 9 9 w < 9 9 9 9 - > B.J.+X=X*X:X:X:X=X=X-X-X@X.X.X}.}.I.`.|.#X:X-X-X-X#X-X:X:X:X=X`.).K o , 9 9 9 9 9 < < 9 : X ",
"qXo : < < 9 w 9 0 9 < < X L <.<.,.U.Y.@X:X=X*X=X-X-X#X-X=X=X=X@X#X:X-X-X-X-X-X-X:X#XY.Y.1.<.<.6.< @ 9 9 9 9 < 9 9 < % o ",
"qXX : 9 < 9 9 9 w < 9 : & b _ _ ) _ _ $.Y.:X:X:X-X-X-X-X-X-X-X#X=X:X-X-X-X-X:X:X@X=.' _ ) ) ) $.x o 9 9 9 9 9 < 9 9 - X ",
"qXX o < 9 9 9 9 9 9 < o e %.=.M.A.1.=.$.$.P.@X-X-X-X-X-X-X-X-X-X-X-X-X-X-X:X*XI.=._ =.1.A.A.1.$.b & 1 9 9 < 9 < < < @ o ",
"qXqXo < < 9 9 9 9 < , o b Z.S.C.3.:.6.Z.N.=.=.Y.:X:X:X-X*X:X:X:X-X#X=X:X:X@X,.$.1.Z.6.3.2.5.F.Z.>.* @ 0 9 9 9 9 9 < o X ",
"qXqXo 1 9 < 9 9 9 9 > : 3.L : < w ; - ; u :.M.,.A..X@X:X:X:X*X:X:X=X#X.XP.,.M.6.x 2 o ; 9 9 > u Z.j o 9 9 < 9 < 9 < o qX",
"qXqXX : 9 < 9 9 9 < : , 3.< ~ 4X^.N m 8 - @ c H.U.P..X:X=X:X-X*X=X:X@XI.I.I.K : ; 1 n M Q.4X!.: :.F o 9 0 9 9 9 < : X qX",
"qXqXX - < 9 < 9 9 < : 4 :.> ^.9XQ.M 8 # 8 m > 2 K.:X:X=X:X=X-X#X*X:X:X:X.Xu 1 n 8 @ ; N Q 8X3X9 I P o < 9 9 < < 9 : o qX",
"qXqXqXo > < 9 9 < 9 : 5 R > ].5XQ B -   1 B Q.P 3 }.=X=X-X:X-X*X#X-X:XoXc w ~.V n . - M C 3X3Xw K K o < 9 9 9 9 < o o qX",
"qXqXqXo : 9 9 9 9 < : 4 :.: ^.5X/.M M n M B {.8Xw F *X=X-X-X-X-X-X-X:X3.1 {.8XQ M n n B ! 5X[.4 Y F o 9 9 < < 9 1 O qXqX",
"qXqXqXX o < < 9 9 < 1 > 3.4 ~ 5X8XQ.V B N Q.5X5XZ K =X-X:X-X-X-X-X-X:XB., [.9X/.B B B Q [.7X!.: :.k @ 9 < 9 9 < : o qXqX",
"qXqXqXqXO : 9 9 < 9 , o :.L 4 ].7X5X{.'.[.6X7X/ ; ).:X-X-X-X-X*X#X:X:XoXu H 4X9X3X'.].4X6X3XA q B.< > 9 9 9 < , o qXqXqX",
"qXqXqXqXo o , < 9 4 < o L D.6 Z ].8X6X6X7X4X~.> ;.*X-X-X-X-X-X*X&X:X*X*XS.: ~ 3X6X6X6X7X[.J 7 3.;.@ < 9 9 < 9 - X qXqXqX",
"qXqXqXqXqXX : 9 < 9 < - 4 F.J.u 7 ~ !.!./ A : E &X:X,X:X:X:X-X-X:X:X,X:X-XB., q / ~.!.( q , B.`.l o 9 9 9 9 > o qXqXqXqX",
"qXqXqXqXqXqXo : 9 < 9 : o U +XXXR 6 , , 4 F F.=X:X-X).;.;.F.XX|.:.R H.*X:X:X XU 0 , , 0 I `.&X:.% , 9 < < < o X qXqXqXqX",
"qXqXqXqXqXqXX o 1 9 4 < % 7 B.%X-X%X+X|.XX-X>X>XoXT : $ $ % F 6 & $ % Y oX:X>X:XoX|.|.OX:X,XG.6 o < 9 9 < @ X qXqXqXqXqX",
"qXqXqXqXqXqXqXX o < < 9 1 o u B.|.oX:X,X,X,X-X`.A - g p.u.d X 7 q.p.g & D  X&X-X,X,X,X:X|.V.6 o 1 < 9 < : X qXqXqXqXqXqX",
"qXqXqXqXqXqXqXqXo o , 9 4 : X % u F :.H.J.F.E 7 % 8.b.b.x.T.q.h.R.m.b.g & 7 W V.F.B.R F 4 O O : 4 9 < % X qXqXqXqXqXqXqX",
"qXqXqXqXqXqXqXqXqXo o : < < @ X * = % - % - @ v q.E.W.t.u.T.T.g.h.T.m.z.0.p & % o % & i = X % < 9 , o o qXqXqXqXqXqXqXqX",
"qXqXqXqXqXqXqXqXqXqXX o - < , X p h.L.q.8.q.q.b.R.n.z.w.*.g *.*.q.T.E.E.R.b.h.q.8.q.d.d.d + , , : X X qXqXqXqXqXqXqXqXqX",
"qXqXqXqXqXqXqXqXqXqXqXX X o o o t 9.W.W.s.y.s.p.v.a.x.b.l.k.l.z.m.b.R.E.R.c.l.h.9.u.w.{ e X o o O qXqXqXqXqXqXqXqXqXqXqX",
"qXqXqXqXqXqXqXqXqXqXqXqXX . X o * * s | O.e.e.e.n.s.x.R.R.R.l.i.c.c.a.g.p.u.X.w.O.f r *   O X   qXqXqXqXqXqXqXqXqXqXqXqX",
"qXqXqXqXqXqXqXqXqXqXqXqXqXqX        * s  .{ { w.f.r.i.d.d.g.t.y.a.w.9.e.e.+. .` ` r O O   qXqXqXqXqXqXqXqXqXqXqXqXqXqXqX",
"qXqXqXqXqXqXqXqXqXqXqXqXqXqXqXqXX o ; & r & * ..@.r.d.j...#.@.l.v.u.9.w. .{ t X o X , > X qXqXqXqXqXqXqXqXqXqXqXqXqXqXqX",
"qXqXqXqXqXqXqXqXqXqXqXqXqXqXqXX o Z A : X : o * s t.l.E.d...d.E.g.t.w.e.` * o : X > Z Z @ X qXqXqXqXqXqXqXqXqXqXqXqXqXqX",
"qXqXqXqXqXqXqXqXqXqXqXqXqXqXX o 9 H A @ o k 9 O t O.f.j.z.r.9.d.9. .o.O.a O < Z : : A A 9 o qXqXqXqXqXqXqXqXqXqXqXqXqXqX",
"qXqXqXqXqXqXqXqXqXqXqXqXqXqXo : Z A 0 O < H A : & ) 9.+.e.e.r.9.+. .| s o o A H 9 o w Z w @ X qXqXqXqXqXqXqXqXqXqXqXqXqX",
"qXqXqXqXqXqXqXqXqXqXqXqXqXo % 0 Z A : o w H H w o r ` a | O.e.r.w.+._ # ; w A A Z @ : Z w < o X qXqXqXqXqXqXqXqXqXqXqXqX",
"qXqXqXqXqXqXqXqXqXqXqXqXX o 4 m Z w o 1 H H Z w > o + o s ] ]  .#.a * o 7 q Z H H < o w 0 < o X qXqXqXqXqXqXqXqXqXqXqXqX",
"qXqXqXqXqXqXqXqXqXqXqXo o o & < 0 9 X 9 H H Z w < o > : & t $ * r o O X , 6 V A J w o : o O , 2 X qXqXqXqXqXqXqXqXqXqXqX",
"qXqXqXqXqXqXqXqXqXqXqX: C.7.u o - & o Z H A Z w < o h 4 # @ S 3 O > 4 @ , w Z A H A @ % Z 2.).H.4 X qXqXqXqXqXqXqXqXqXqX",
"qXqXqXqXqXqXqXqXqXqX. U 1X0X$X4.0 o : A A Z w w < o 4 j @ L XXF @ z k @ : 0 w Z A A : S 2X1X=XXXU X qXqXqXqXqXqXqXqXqXqX",
"qXqXqXqXqXqXqXqXqXqXX V.1X1X1X1X+X5 : A A k w 9 > o 4 z 7 q J., 7 z q % % 6 w h A A < u ;X1X-XOX;.. qXqXqXqXqXqXqXqXqXqX",
"qXqXqXqXqXqXqXqXqXqXX 2.:X>X;X<X$X5 < H A k m 0 : @ 6 z q % u @ h h 6 % - 6 w w A H 0 2 |.<X=X+XF . qXqXqXqXqXqXqXqXqXqX",
"qXqXqXqXqXqXqXqXqXqXO j OX=X:X=X}.> 0 H A m w 0 : @ 6 k z % X % h q q : @ 9 w q A H w : ).=X@XZ., o qXqXqXqXqXqXqXqXqXqX",
"qXqXqXqXqXqXqXqXqXqXqXo T OX#X#XH.& h H Z k w 9 : o 7 6 h , X , 6 4 q : @ 9 9 V Z A A ; 6.|.V.5 . qXqXqXqXqXqXqXqXqXqXqX",
"qXqXqXqXqXqXqXqXqXqXqXX o x 6.S.U @ Z H m h w 9 : X O O o X X X o o X O @ 9 0 h w A A ; u j % X qXqXqXqXqXqXqXqXqXqXqXqX",
"qXqXqXqXqXqXqXqXqXqXqXqXqXX o @ o o w Z w w w 4 : o S S h l S S q , D , - < w 6 w Z Z @ X . qXqXqXqXqXqXqXqXqXqXqXqXqXqX",
"qXqXqXqXqXqXqXqXqXqXqXqXqXqXqXqXqXo 0 Z w w w 9 : > (.7.P C.(.(.G P ( 9 @ 9 w V w w w % qXqXqXqXqXqXqXqXqXqXqXqXqXqXqXqX",
"qXqXqXqXqXqXqXqXqXqXqXqXqXqXqXqXqXX 9 w w 9 w 9 , o k S 4.4.G P E C.S @ : 9 9 0 w w w @ qXqXqXqXqXqXqXqXqXqXqXqXqXqXqXqX",
"qXqXqXqXqXqXqXqXqXqXqXqXqXqXqXqXqXX < w 0 9 9 9 1 @ : h u 0 > : x D k o : 9 9 9 0 9 9 - qXqXqXqXqXqXqXqXqXqXqXqXqXqXqXqX",
"qXqXqXqXqXqXqXqXqXqXqXqXqXqXqXqXqXX > < 9 < 9 9 < o X X X X X X X X o o , 9 9 < 9 < < @ qXqXqXqXqXqXqXqXqXqXqXqXqXqXqXqX",
"qXqXqXqXqXqXqXqXqXqXqXqXqXqXqXqXqXX o : < 9 < 9 < o o o o X qXo X % @ o < 9 < 9 < , : O qXqXqXqXqXqXqXqXqXqXqXqXqXqXqXqX",
"qXqXqXqXqXqXqXqXqXqXqXqXqXqXqXqXqXqXX o o @ % o @ % 6 % X qXqXqXo % o o o @ @ @ o o o qXqXqXqXqXqXqXqXqXqXqXqXqXqXqXqXqX",
"qXqXqXqXqXqXqXqXqXqXqXqXqXqXqXqXqXqXqXo o < 2 7 4 6 h 6 o o qXqXo o 7 k k q q , O o qXqXqXqXqXqXqXqXqXqXqXqXqXqXqXqXqXqX",
"qXqXqXqXqXqXqXqXqXqXqXqXqXqXqXqXqXqXqXX % , 7 7 7 , , , % X qXqXX 7 h k h h k q % o qXqXqXqXqXqXqXqXqXqXqXqXqXqXqXqXqXqX",
"qXqXqXqXqXqXqXqXqXqXqXqXqXqXqXqXqXqXqXo o o o o o o o o X o qXX @ 7 7 4 7 7 7 7 % o qXqXqXqXqXqXqXqXqXqXqXqXqXqXqXqXqXqX",
"qXqXqXqXqXqXqXqXqXqXqXqXqXqXqXqXqXqXqXqXqXqXqXqXqXqXqXqXqXqXqXX o o @ o + @ o o o o qXqXqXqXqXqXqXqXqXqXqXqXqXqXqXqXqXqX",
"qXqXqXqXqXqXqXqXqXqXqXqXqXqXqXqXqXqXqXqXqXqXqXqXqXqXqXqXqXqXqXqXo o o X o X qXqXqXqXqXqXqXqXqXqXqXqXqXqXqXqXqXqXqXqXqXqX",
"qXqXqXqXqXqXqXqXqXqXqXqXqXqXqXqXqXqXqXqXqXqXqXqXqXqXqXqXqXqXqXqXqXqXqXqXqXqXqXqXqXqXqXqXqXqXqXqXqXqXqXqXqXqXqXqXqXqXqXqX"
};
