/* XPM */
static xpm_row_t const p2_front_3[] = {
/* columns rows colors chars-per-pixel */
"60 90 222 2 ",
"   c #FFFFFF",
".  c #F0F0F0",
"X  c #E0E0E0",
"o  c #D0D0D0",
"O  c #C0C0C0",
"+  c #B0B0B0",
"@  c #A0A0A0",
"#  c #909090",
"$  c #808080",
"%  c #707070",
"&  c #605050",
"*  c #504040",
"=  c #403030",
"-  c #302020",
";  c #201010",
":  c #101010",
">  c #202020",
",  c #303030",
"<  c #404040",
"1  c #505050",
"2  c #606060",
"3  c #505050",
"4  c #606060",
"5  c #707070",
"6  c #505050",
"7  c #606060",
"8  c #707070",
"9  c #808080",
"0  c #909090",
"q  c #A0A0A0",
"w  c #808080",
"e  c #909090",
"r  c #A0A0A0",
"t  c #B0B0B0",
"y  c #C0C0C0",
"u  c #B0B0B0",
"i  c #C0C0C0",
"p  c #423F3C",
"a  c #40382F",
"s  c #643C13",
"d  c #5B4814",
"f  c #694617",
"g  c #764917",
"h  c #6B5719",
"j  c #7A5914",
"k  c #7A6413",
"l  c #424236",
"z  c #4A4136",
"x  c #464639",
"c  c #4D443A",
"v  c #4B4B3D",
"b  c #554A3E",
"n  c #594D3F",
"m  c #4A4221",
"M  c #6B5131",
"N  c #2A2C43",
"B  c #2F3456",
"V  c #33395B",
"C  c #2C3049",
"Z  c #323A63",
"A  c #3F4463",
"S  c #444444",
"D  c #4C4C4C",
"F  c #4B4844",
"G  c #574C41",
"H  c #5C5144",
"J  c #5D554D",
"K  c #535353",
"L  c #5A5A5A",
"P  c #635546",
"I  c #65594C",
"U  c #6B5C4C",
"Y  c #665748",
"T  c #625951",
"R  c #735F4E",
"E  c #71614F",
"W  c #6D6359",
"Q  c #696056",
"!  c #736352",
"~  c #7E6C59",
"^  c #77695A",
"/  c #6E604F",
"(  c #464C69",
")  c #5A5E75",
"_  c #5B6078",
"`  c #6A6A6A",
"'  c #797979",
"]  c #716C6E",
"[  c #884B16",
"{  c #8D511B",
"}  c #895717",
"|  c #935519",
" . c #955919",
".. c #9C5D19",
"X. c #935B16",
"o. c #9A6417",
"O. c #896C15",
"+. c #A26219",
"@. c #AB6B19",
"#. c #A46A17",
"$. c #A87613",
"%. c #B5721A",
"&. c #BC7B19",
"*. c #B67819",
"=. c #B26F1A",
"-. c #965C29",
";. c #89572A",
":. c #9D6533",
">. c #946132",
",. c #8D6F28",
"<. c #A26B3A",
"1. c #C17E1A",
"2. c #816F5A",
"3. c #85725D",
"4. c #88755F",
"5. c #937251",
"6. c #AB7747",
"7. c #A67F58",
"8. c #8D7A63",
"9. c #837567",
"0. c #937C65",
"q. c #967F68",
"w. c #BC8418",
"e. c #AB8B18",
"r. c #9C852D",
"t. c #AF922D",
"y. c #BCA23E",
"u. c #C58C16",
"i. c #C28218",
"p. c #C48919",
"a. c #CA9315",
"s. c #C89915",
"d. c #D19C16",
"f. c #D7A617",
"g. c #D9B219",
"h. c #CAA518",
"j. c #E5B91A",
"k. c #CA9724",
"l. c #D29D22",
"z. c #D8AA23",
"x. c #D3A735",
"c. c #DAB639",
"v. c #CCAA2F",
"b. c #E5BC35",
"n. c #E4BA2A",
"m. c #EBC219",
"M. c #F1C815",
"N. c #EDC624",
"B. c #F2CD27",
"V. c #E9C338",
"C. c #F3CD36",
"Z. c #F7D32F",
"A. c #B48253",
"S. c #B6875A",
"D. c #A6825F",
"F. c #9B846B",
"G. c #998369",
"H. c #9A8877",
"J. c #A58668",
"K. c #A48D72",
"L. c #AA8E73",
"P. c #AB9176",
"I. c #AC9377",
"U. c #B2967A",
"Y. c #B59A7D",
"T. c #BA9B7D",
"R. c #B08862",
"E. c #D7BA47",
"W. c #C6966A",
"Q. c #CA9D71",
"!. c #CFA57D",
"~. c #E8BD49",
"^. c #F3CF49",
"/. c #FBD947",
"(. c #FAD855",
"). c #EAC744",
"_. c #727481",
"`. c #7D8090",
"'. c #888888",
"]. c #989899",
"[. c #8E8C93",
"{. c #A49484",
"}. c #B79E81",
"|. c #BDA183",
" X c #989BA6",
".X c #A9ABB3",
"XX c #B6B6B8",
"oX c #A6A6A6",
"OX c #C1A485",
"+X c #CBAC8C",
"@X c #C4A788",
"#X c #D5AF8A",
"$X c #D3B18F",
"%X c #DBB187",
"&X c #D5B492",
"*X c #DDB996",
"=X c #DFBD99",
"-X c #D8B794",
";X c #CEB195",
":X c #E3BC95",
">X c #E3BE9A",
",X c #E6C29C",
"<X c #E9C39E",
"1X c #EBC6A0",
"2X c #EFC9A3",
"3X c #E6C6A9",
"4X c #F1CBA5",
"5X c #F1CEAB",
"6X c #F4D1A8",
"7X c #F3D4BB",
"8X c #F0CFB3",
"9X c #DDC5B3",
"0X c #BFBFC0",
"qX c #C3C3C5",
"wX c #C8C8CB",
"eX c #CECED1",
"rX c #D3D3D4",
"tX c #DBDBDC",
"yX c #D7D7D8",
"uX c #F6DAC6",
"iX c #E2E2E3",
"pX c #00B140",
/* pixels */
"pXpXpXpXpXpXpXpXpXpXpXpXpXpXpXpXpXpXpXpXpXpXpXpXpXpXpXpXpXpXpXpXpXpXpXpXpXpXpXpXpXpXpXpXpXpXpXpXpXpXpXpXpXpXpXpXpXpXpXpX",
"pXpXpXpXpXpXpXpXpXpXpXpXpXpXpXpXpXpXpXpXpXpXpXpXpXpXpXpXpXpXpXpXpXpXpXpXpXpXpXpXpXpXpXpXpXpXpXpXpXpXpXpXpXpXpXpXpXpXpXpX",
"pXpXpXpXpXpXpXpXpXpXpXpXpXpXpXpXpXpXpXpXpXpXpXpXpXpXpXpXpXpXpXpXpXpXpXpXpXpXpXpXpXpXpXpXpXpXpXpXpXpXpXpXpXpXpXpXpXpXpXpX",
"pXpXpXpXpXpXpXpXpXpXpXpXpXpXpXpXpXpXpXpXpXpXpXpXpXpXpXpXpXpXpXpXpXpXpXpXpXpXpXpXpXpXpXpXpXpXpXpXpXpXpXpXpXpXpXpXpXpXpXpX",
"pXpXpXpXpXpXpXpXpXpXpXpXpXpXpXpXpXpXpXpXpXpXpXpXpXpXpXpXpXpXpXpXpXpXpXpXpXpXpXpXpXpXpXpXpXpXpXpXpXpXpXpXpXpXpXpXpXpXpXpX",
"pXpXpXpXpXpXpXpXpXpXpXpXpXpXpXpXpXpXpXpXpXpXpXpXpXpXpXpXpXpXX pXpXpXpXpXpXpXpXpXpXpXpXpXpXpXpXpXpXpXpXpXpXpXpXpXpXpXpXpX",
"pXpXpXpXpXpXpXpXpXpXpXpXpXpXpXpXpXpXpXpXpXpXpXpXpXpXpXpXpX. X . pXpXpXpXpXpXpXpXpXpXpXpXpXpXpXpXpXpXpXpXpXpXpXpXpXpXpXpX",
"pXpXpXpXpXpXpXpXpXpXpXpXpXpXpXpXpXpXpXpXpXpXpXpXpXpXpX. X 0 S 2 X . pXpXpXpXpXpXpXpXpXpXpXpXpXpXpXpXpXpXpXpXpXpXpXpXpXpX",
"pXpXpXpXpXpXpXpXpXpXpXpXpXpXpXpXpXpXpXpXpXpXpXpXpXpXo $ w L L K 0 ; . pXpXpXpXpXpXpXpXpXpXpXpXpXpXpXpXpXpXpXpXpXpXpXpXpX",
"pXpXpXpXpXpXpXpXpXpXpXpXpXpXpXpXpXpXpXpXpXpXpXpXX X 1 S K L L L K l , . pXpXpXpXpXpXpXpXpXpXpXpXpXpXpXpXpXpXpXpXpXpXpXpX",
"pXpXpXpXpXpXpXpXpXpXpXpXpXpXpXpXpXpXpXpXpXpXpX. + 0 D K K L L L K K S 1 X X pXpXpXpXpXpXpXpXpXpXpXpXpXpXpXpXpXpXpXpXpXpX",
"pXpXpXpXpXpXpXpXpXpXpXpXpXpXpXpXpXpXpXpXpX. X < w S K D K L L L D D D D w , X X pXpXpXpXpXpXpXpXpXpXpXpXpXpXpXpXpXpXpXpX",
"pXpXpXpXpXpXpXpXpXpXpXpXpXpXpXpXpXpXpX. o + 2 S S K D K L L L L K D S S D D q $ . . pXpXpXpXpXpXpXpXpXpXpXpXpXpXpXpXpXpX",
"pXpXpXpXpXpXpXpXpXpXpXpXpXpXpXpXpXX X $ 2 w S D K D K D L L L L K D D S S S D F 0 $ X . pXpXpXpXpXpXpXpXpXpXpXpXpXpXpXpX",
"pXpXpXpXpXpXpXpXpXpXpXpXpXpXpX. o X 1 w w S S K D K D K L L L L K D D K D D S C S S 0 + . . pXpXpXpXpXpXpXpXpXpXpXpXpXpX",
"pXpXpXpXpXpXpXpXpXpXpXpXpXpXX X 1 0 w w S S D D D K K L L L L L L L D D D D D S w w S w 2 X . pXpXpXpXpXpXpXpXpXpXpXpXpX",
"pXpXpXpXpXpXpXpXpXpXpXpXX . $ 0 w w w S D D D K K L L L L K L L L K D D D D S D S S w w w 0 , . pXpXpXpXpXpXpXpXpXpXpXpX",
"pXpXpXpXpXpXpXpXpXpXpX. . 1 0 w w 0 w D D D K K L L L L L L L L L L K L L K D D S D S w w w 0 1 . X pXpXpXpXpXpXpXpXpXpX",
"pXpXpXpXpXpXpXpXpXpX. o 2 0 w w w p D S D D K K L L L L L L L L L L L K K D S D D S S w w w w w 1 . . pXpXpXpXpXpXpXpXpX",
"pXpXpXpXpXpXpXpXpXX X 2 w w w w C G S S D D K K L L L L L L L L L L L K L K K K K D D S w w w w w 2 X X pXpXpXpXpXpXpXpX",
"pXpXpXpXpXpXpXpX. X 2 w w w w w S S D D D K K K L L L L L L L L L L L L L K L D D D D D w w w w w 0 < . . pXpXpXpXpXpXpX",
"pXpXpXpXpXpXpX. X 2 w w w w 0 w S D D D D D K K K L L L L L L K K L K K K L K D D D D D D S w w S w w < X pXpXpXpXpXpXpX",
"pXpXpXpXpXpXpXX , 0 w w 0 w w S S S S S S D K K K K L K L L L K D K D D D D D S S S S S F F w w w w S 0 , X pXpXpXpXpXpX",
"pXpXpXpXpXpX. $ 0 w w 0 w S S S S S w S S D D S D K D K K K K K K D D D S D D S S S S S x C S w w 0 w w 2 X X pXpXpXpXpX",
"pXpXpXpXpX. X 2 0 w w w w S w S S S S S w S D D D D D D D S D D D D S D S S S D D S S S w w w S w w w w w 2 X o pXpXpXpX",
"pXpXpXpXpX. 1 0 w w w w w w S S w S S w S D D S S S S w S w w w x C S F D D D S S S D S w w w w w w w w C 0 , X pXpXpXpX",
"pXpXpXpXX ; 0 0 0 w w w w S S S S w S S D w w w w w w w w 0 w w w w w w w S S D S S w S C w w w w w w w x w 2 X X pXpXpX",
"pXpXpXpXo 1 0 w w w w w w S S S S S S S w w w w w w w w w w w w p w w w w w w w S p w S x l w w w w w w w w 0 1 . pXpXpX",
"pXpXpX. + 0 0 w w w 0 w w S S p w D w w w w w w w w w w 0 w 0 w w w x C w w w 0 w w w w w w l w w w w w w w 0 2 X X pXpX",
"pXpXpX. , 0 0 0 0 w w w l C w w S w w w w w w w 0 0 0 0 0 0 0 0 6 0 w w w w w w w w w w C w w w w w w w w 0 w 0 < . pXpX",
"pXpXpX. 2 0 0 0 w 0 w w e w w w w w w w w w w 0 0 0 2 2 2 1 1 1 2 2 2 0 0 0 0 0 0 w w w l p C l w w w w w 0 0 0 2 . pXpX",
"pXpX. , 2 0 0 w w w w 0 w w 0 w w w w 0 w 0 0 2 2 , ; X X X X + X . X X , 2 2 0 0 w 0 w w w l w w w w w w w w 0 0 X X pX",
"pXpX. < 0 0 0 w w w w 0 w q w w w w 0 w 0 2 , X   * d d h j k j f f d = # . X , 2 6 0 w 0 w w w C w C l w 0 w 0 0 , X pX",
"pXpX. 2 2 0 0 w w w 0 w w C w w 0 w 0 2 , . O u f g O.$.$.$.$.@.o.o.o.X.g s = # + , 2 0 0 w w w x l w w w w 0 0 0 1 X pX",
"pXpXX 2 0 0 w 0 w 0 w 0 w w w 0 0 0 < X $ . @ s } X...@.&.i.1.1.&.*.*.#.[ g f r . X X 2 0 0 w 0 w l l w 0 w 0 0 0 2 X pX",
"pXX X 0 2 0 0 w w 0 w 0 0 w w 0 2 $ + i E b + O s X.....+.@.%.%.%.@.+. .X.g u @ $ n 4 @ < 2 0 0 0 i C w w w 0 0 2 2 X X ",
"pX. , 2 0 0 0 w 0 w 6 0 w 0 0 2 + , R L.L.L.2.1 * g +...| | | | | | | f * # + 7 ~ 0.~ a . , 0 0 0 0 w C i q 0 0 0 2 ; . ",
"pX. , 0 0 0 w 0 w 0 0 0 0 0 2 $ < ~ U.|.:X<X+X8.= O u } | [ | ....{ u @ = n 3.L.$X+XI.0.c . , 0 0 0 0 w w w w 2 0 0 $ . ",
"pX. , 2 0 0 0 0 0 0 w w 0 5 + < 2.U.OX>X4X4X1X+XF.i @ # r u y y u * X z F.Y.T.-X2X2X-XY.K.b X < 0 0 w 0 w w w 0 2 0 , . ",
"pX. , 0 0 0 0 0 0 0 w 0 0 , + ! U.|.,X,X>X2X2X2X#XP.2.c 5 < $ + % 7 R P.+X*X<X4X2X4X2X&XY.K.z X 2 0 0 w 0 0 0 0 2 0 < . ",
"pX. , 0 2 0 0 0 0 0 w 0 2 . b U.T.*X>X2X2X2X2X4X2X%X|.U.L.q.0.0.q.L.}.-X2X2X2X:X<X2X2X2X+X}.F.4 $ 0 0 0 0 0 0 0 0 2 , . ",
"pX. , 2 0 0 0 0 0 0 0 0 $ 1 F.Y.$X4X2X4X2X2X<X2X2X2X>X&X+XOX|.|.OX$X>X2X2X2X2X>X2X2X4X4X2X@XY.! X 3 0 0 0 0 2 0 2 0 , X ",
"pX. , 0 0 0 0 0 0 0 2 2 X T J.7.A.!.%X>X4X2X<X4X2X2X:X2X2X1X1X:X>X2X2X2X2X2X2X1X4X<X%X%XA.S.D.G.6 X 0 0 0 0 0 2 0 0 , . ",
"pXX $ 2 0 0 0 0 0 0 0 , < ;.[ [ [ { { :.%X4X4X2X2X2X2X2X2X2X2X1X4X4X2X2X2X2X2X2X>X6.{ { [ [ [ -.H X 2 0 0 2 0 2 0 2 X . ",
"pX. X 0 0 0 0 0 0 2 0 X r { :.A.S.6.:.{ :.W.>X4X2X2X2X2X2X2X2X2X2X4X4X2X2X4X1X#X6.{ -.6.A.A.6.;.M @ < w 0 0 0 0 0 2 X X ",
"pXpX. 3 2 0 0 0 0 0 2 X M J.I.U.J.q.K.R.6.:.<.%X2X2X2X2X<X2X2X2X4X>X>X2X4X:X6.:.6.R.J.q.F.J.}.J.5.* + 0 0 2 0 2 0 0 X . ",
"pXpXX 1 2 0 0 0 0 2 1 $ q.I 4 1 0 ; $ 1 b 0.S.6.W.%X>X2X2X2X2X2X2X1X>X:XQ.6.6.7.Y 5 : + 5 2 1 z K.z X 0 w 0 2 0 2 2 X pX",
"pXpX. , 0 2 0 0 0 5 : 1 0.4 L 0X].B C 3 X + n T.Q.W.%X2X2X2X2X2X2X4X:XW.W.!.^ < ; : N B _.qX'., 8.P . 0 0 2 0 2 0 < . pX",
"pXpXX X 2 2 0 0 0 0 $ 6 3., ].iX_.Z 9 ; 9 N : 7 |.4X2X2X4X2X2X>X>X2X4X4X$Xn ; C N + > B ( eX0X0 ! U . 0 0 0 0 0 2 , X pX",
"pXpXpXX 1 0 2 0 0 2 $ 7 ~ 2 oXyX_ Z >   3 Z ] K 7 @X1X1X2X2X2X<X:X2X4X>XG w _.Z N . ; B A qXqXw Y Y X 2 0 0 2 0 2 X X pX",
"pXpXpXX , 0 2 0 0 2 , 6 3.< ].yX_.Z C 9 B V .XwXw P <X2X2X2X2X2X4X4X4X0.< oXwXA B 9 N Z _ eXXX6 E H X 0 0 2 0 0 3 o pXpX",
"pXpXpXX + 3 0 0 2 0 , 1 8.4 ] rXwX_ Z Z V _ yXrXS Y 1X2X2X4X2X4X2X2X4XG.2 XXiX'.V Z A ( .XyX]., 9.c X 0 0 0 2 2 $ X pXpX",
"pXpXpXpX. < 2 0 0 2 1 + 3.H 8 XXyXeX X]..XyXtX'.< U.4X2X4X2X2X>X:X2X4X&Xe L rXtX0X]. X0XtXqXK 8 G.4 , 0 0 0 0 1 + pXpXpX",
"pXpXpXpX. X 2 0 2 0 2 o P F.4 D XXrXtXtXtXeX[.1 R 1X2X4X2X2X2X1X,X2X2X1XF., ] wXyXtXtXyX0X` & 4.3.X 2 0 0 2 2 + . pXpXpX",
"pXpXpXpXpX. , 2 0 0 2 $ 4 K.P.8 6 ] ].].'.K & U >X4X4X4X4X4X2X4X5X2X4X2X1X0.1 S 9.]. X_.S 1 4.Y.z X 0 0 2 0 , X pXpXpXpX",
"pXpXpXpXpXpX. < 0 2 0 1 X U $X+XE 7 1 1 1 v H.=X4X2XY.^ ! K.&XOX~ ! K.1X4X4X}.P 0 < 1 4 H Y.=X3.+ < 0 0 0 1 X o pXpXpXpX",
"pXpXpXpXpXpXX X 1 0 2 2 + 2 G.=X<X-X|.|.+X3X5X5X=X/ + & & $ G 6 # & & / &X6X6X1X-X|.|.&X1X6XI.8 X 2 0 0 2 + X pXpXpXpXpX",
"pXpXpXpXpXpXpX. o 1 0 0 1 X 8 G.+X-X2X6X6X6X3X}.v X k g.h.h X - t.g.k O v |.,X3X6X6X6X1X|.G.8 X 1 0 2 2 $ X pXpXpXpXpXpX",
"pXpXpXpXpXpXpXpXX X 3 0 6 $ . $ q b ~ K.U.F.E 2 & r.Z.B.M.V.y.v././.B.O.& 1 I G.F.G.^ b 1 X X $ 0 2 2 $ X pXpXpXpXpXpXpX",
"pXpXpXpXpXpXpXpXpXX X , 2 2 $ . - - $ $ + $ & h y.(./.w.h.).V.c.E.E.Z.m.e.d & X $ $ & m - X + 2 2 1 X X pXpXpXpXpXpXpXpX",
"pXpXpXpXpXpXpXpXpXpX. X $ 2 1 o d E.E.t.r.t.h.C.Z.V.z.w.,.,.,.,.t.E.(.(./.B.c.y.e.t.t.s.f X < 2 ; X . pXpXpXpXpXpXpXpXpX",
"pXpXpXpXpXpXpXpXpXpXpX. . . X X d *.~.~.f.d.z.f.B.g.m.C.).z.b.c.C.B./.(./.M.c.v.w.s.a.o.- X X X X pXpXpXpXpXpXpXpXpXpXpX",
"pXpXpXpXpXpXpXpXpXpXpXpXo o o . * * g ..&.p.p.p.b.g.N./.^.^.N.f.N.m.j.z.f.d.$.a.&.g r #     o pXpXpXpXpXpXpXpXpXpXpXpXpX",
"pXpXpXpXpXpXpXpXpXpXpXpXpXpX  o     * g #.O. .a.l.s.f.s.k.z.s.d.j.a.w.u.p.&.@.j } - . o   pXpXpXpXpXpXpXpXpXpXpXpXpXpXpX",
"pXpXpXpXpXpXpXpXpXpXpXpXpXpXpXpX. , , O r $ = o.=.s.l.x.@.#.*.c.n.d.w.u.#.X.u o X . 1 , o pXpXpXpXpXpXpXpXpXpXpXpXpXpXpX",
"pXpXpXpXpXpXpXpXpXpXpXpXpXpXpX. X w S $ . , X = g a.b.^.k.#.k./.z.a.u.w.} # X < . 1 S S , . pXpXpXpXpXpXpXpXpXpXpXpXpXpX",
"pXpXpXpXpXpXpXpXpXpXpXpXpXpXpXX 2 S S + $ S 0 o u *.k.x.n.s.p.k.w.=.=.%.f o 1 D 1 , D K w X . pXpXpXpXpXpXpXpXpXpXpXpXpX",
"pXpXpXpXpXpXpXpXpXpXpXpXpXpX. X 0 S 0 . 6 K D < $ g 1.&.&.u.a.i.&.@.#.f X , S K 0 X 0 K S 0 X . pXpXpXpXpXpXpXpXpXpXpXpX",
"pXpXpXpXpXpXpXpXpXpXpXpXpXpX. 1 w S < X S K K 0 X r } f o.%.i.a.u.*.} % X w D K S , 1 S S 0 < . pXpXpXpXpXpXpXpXpXpXpXpX",
"pXpXpXpXpXpXpXpXpXpXpXpXpX. o + 2 5 X 2 D K F x 1 X X + f ....@.#.d % . 2 w S K L 2 X w C w 2 X . pXpXpXpXpXpXpXpXpXpXpX",
"pXpXpXpXpXpXpXpXpXpXpXpX. 1 T e X X . w L K S C 2 X 1 $ @ u O = t X X X 1 w S D L S . 0 q 1 X X < X pXpXpXpXpXpXpXpXpXpX",
"pXpXpXpXpXpXpXpXpXpXpXpX. 9.uX9X{.i X S K S S 0 2 X q 7 X , G 7 o 1 8 ; , w S S D D , X $ + z G.U.z . pXpXpXpXpXpXpXpXpX",
"pXpXpXpXpXpXpXpXpXpXpXpX$ |.uX7X8XQ $ D D S S 0 2 X 8 x $ n $Xb $ v l $ , 8 w S D D 1 . p H.9X2X:XJ., pXpXpXpXpXpXpXpXpX",
"pXpXpXpXpXpXpXpXpXpXpXpX+ U.5X8X9Xx , D D p w w < X 6 v 6 8 H.1 6 v 8 $ , 0 w p D D 0 5 ;XuX7X5X,XY.4 pXpXpXpXpXpXpXpXpX",
"pXpXpXpXpXpXpXpXpXpXpXpXo ! 1X4X-X8 2 K D w w 0 , + 8 v l + 5 + l l 8 $ ; 0 w w D K w < ;X5X8X5X>XL.< pXpXpXpXpXpXpXpXpX",
"pXpXpXpXpXpXpXpXpXpXpXpX. , F.,X@X& w K D w w 0 , X 8 x v < . % x 8 l < $ 0 w p S K S + }.4X4X<X%XR X pXpXpXpXpXpXpXpXpX",
"pXpXpXpXpXpXpXpXpXpXpXpXpX. , R 3.$ p K S p w 0 $ X 1 6 q 1 . < 6 4 6 $ X 0 w w S K F + F.,X:X$X0.< X pXpXpXpXpXpXpXpXpX",
"pXpXpXpXpXpXpXpXpXpXpXpXpXpX. . X X S K w w w 0 < . . . . . . . . X . . + 0 w w w D D + b 0.0.Y < . pXpXpXpXpXpXpXpXpXpX",
"pXpXpXpXpXpXpXpXpXpXpXpXpXpXpXpXpXX w S w w w 0 , $ Q W F J W Q F 2 W 2 + 0 w w w F S + . + + . o pXpXpXpXpXpXpXpXpXpXpX",
"pXpXpXpXpXpXpXpXpXpXpXpXpXpXpXpXpX. w w w w w 0 < < H.] W H.{.{.J ^ W 6 + 0 w w w c C X . pXpXpXpXpXpXpXpXpXpXpXpXpXpXpX",
"pXpXpXpXpXpXpXpXpXpXpXpXpXpXpXpXpXX 0 w w 0 0 0 1 X e F 9.~ G G ^ H.G X , 0 0 w w w w X pXpXpXpXpXpXpXpXpXpXpXpXpXpXpXpX",
"pXpXpXpXpXpXpXpXpXpXpXpXpXpXpXpXpX. 2 0 0 0 0 0 1 X $ 8 8 1 + , l x w + , 0 0 0 0 0 0 X pXpXpXpXpXpXpXpXpXpXpXpXpXpXpXpX",
"pXpXpXpXpXpXpXpXpXpXpXpXpXpXpXpXpXX < 2 0 0 0 0 0 X X . . . o X o o . X 2 0 0 0 0 0 2 X pXpXpXpXpXpXpXpXpXpXpXpXpXpXpXpX",
"pXpXpXpXpXpXpXpXpXpXpXpXpXpXpXpXpX. . , < 0 2 2 1 o , , X pXpXpXX X & X 1 0 1 2 1 , ; X pXpXpXpXpXpXpXpXpXpXpXpXpXpXpXpX",
"pXpXpXpXpXpXpXpXpXpXpXpXpXpXpXpXpXpX. X . X . + $ X X $ X pXpXpXX 1 l 1 X X X + X X X pXpXpXpXpXpXpXpXpXpXpXpXpXpXpXpXpX",
"pXpXpXpXpXpXpXpXpXpXpXpXpXpXpXpXpXpXpX. X , l v v x 4 X . pXpXX X 6 6 6 4 1 1 < $ X pXpXpXpXpXpXpXpXpXpXpXpXpXpXpXpXpXpX",
"pXpXpXpXpXpXpXpXpXpXpXpXpXpXpXpXpXpXpXX X e x x l x x 1 X pXpX. X X O X X $ + + X X pXpXpXpXpXpXpXpXpXpXpXpXpXpXpXpXpXpX",
"pXpXpXpXpXpXpXpXpXpXpXpXpXpXpXpXpXpXpX. $ 8 6 6 6 8 6 8 $ . pXpXX X X X X . . X X pXpXpXpXpXpXpXpXpXpXpXpXpXpXpXpXpXpXpX",
"pXpXpXpXpXpXpXpXpXpXpXpXpXpXpXpXpXpXpXX X + + + X + $ + . X pXpXpXpXpXpXpXpXpXpXpXpXpXpXpXpXpXpXpXpXpXpXpXpXpXpXpXpXpXpX",
"pXpXpXpXpXpXpXpXpXpXpXpXpXpXpXpXpXpXpX. X . . X . . . . . pXpXpXpXpXpXpXpXpXpXpXpXpXpXpXpXpXpXpXpXpXpXpXpXpXpXpXpXpXpXpX"
};
