/* XPM */
static xpm_row_t const p1_left_3[] = {
/* columns rows colors chars-per-pixel */
"60 90 191 2 ",
"   c #0F0F0E",
".  c #161513",
"X  c #181716",
"o  c #1A1917",
"O  c #1C1B19",
"+  c #211E1C",
"@  c #211C17",
"#  c #22211D",
"$  c #2A241A",
"%  c #272017",
"&  c #322416",
"*  c #342718",
"=  c #342B1C",
"-  c #3D2A18",
";  c #3F2B15",
":  c #38331D",
">  c #1D1E24",
",  c #211C24",
"<  c #242423",
"1  c #292624",
"2  c #2B2A26",
"3  c #2B2B2B",
"4  c #212129",
"5  c #322E2A",
"6  c #322D27",
"7  c #32312C",
"8  c #3B342D",
"9  c #313027",
"0  c #2F3030",
"q  c #333333",
"w  c #383635",
"e  c #3A3835",
"r  c #3B3B3B",
"t  c #262433",
"y  c #432C18",
"u  c #402A15",
"i  c #563C18",
"p  c #5E3C18",
"a  c #523318",
"s  c #4C3A17",
"d  c #623D18",
"f  c #453D34",
"g  c #483F35",
"h  c #403F3F",
"j  c #694818",
"k  c #734516",
"l  c #7C4718",
"z  c #774818",
"x  c #7A6518",
"c  c #5F562C",
"v  c #4B4136",
"b  c #454239",
"n  c #55493D",
"m  c #584C3F",
"M  c #52473B",
"N  c #6C4725",
"B  c #74662C",
"V  c #292B44",
"C  c #2D324E",
"Z  c #343B5D",
"A  c #2B3156",
"S  c #403F40",
"D  c #434343",
"F  c #484748",
"G  c #4C4B4B",
"H  c #484847",
"J  c #5A4E41",
"K  c #564B40",
"L  c #5E5043",
"P  c #50504F",
"I  c #504F50",
"U  c #535353",
"Y  c #585756",
"T  c #585758",
"R  c #5A5A5A",
"E  c #6B5B4B",
"W  c #645648",
"Q  c #756452",
"!  c #51556C",
"~  c #636262",
"^  c #7C7B7A",
"/  c #8B4F18",
"(  c #874D17",
")  c #8E5118",
"_  c #845019",
"`  c #935518",
"'  c #945B19",
"]  c #9A5B19",
"[  c #956E1E",
"{  c #836919",
"}  c #A36319",
"|  c #AB6C1B",
" . c #A66B18",
".. c #BC7B19",
"X. c #945A27",
"o. c #845E3B",
"O. c #916236",
"+. c #87762D",
"@. c #BF7D20",
"#. c #826C59",
"$. c #866D54",
"%. c #85705C",
"&. c #A97343",
"*. c #B27D4D",
"=. c #8D7962",
"-. c #8F7761",
";. c #947B64",
":. c #807E7E",
">. c #A18816",
",. c #BFA21F",
"<. c #9B852C",
"1. c #A28E37",
"2. c #B99927",
"3. c #BCA228",
"4. c #BCA334",
"5. c #C2841D",
"6. c #C48816",
"7. c #CA9718",
"8. c #D19D15",
"9. c #DCAF19",
"0. c #E4BA17",
"q. c #E5BC1C",
"w. c #E4B71B",
"e. c #C89026",
"r. c #D5A923",
"t. c #D7AD38",
"y. c #C8A929",
"u. c #E2B934",
"i. c #E1B826",
"p. c #EBC01E",
"a. c #F4CB18",
"s. c #ECC529",
"d. c #F1CE30",
"f. c #F8D53A",
"g. c #F3CE32",
"h. c #B88658",
"j. c #978169",
"k. c #9A836B",
"l. c #9E886E",
"z. c #98897F",
"x. c #BD9065",
"c. c #A48C71",
"v. c #AE9478",
"b. c #AD9277",
"n. c #B4977B",
"m. c #AD8B68",
"M. c #C6AC41",
"N. c #E6BA41",
"B. c #C59669",
"V. c #CA9E73",
"C. c #CCA37A",
"Z. c #EBC144",
"A. c #686C82",
"S. c #7F8190",
"D. c #929294",
"F. c #8A8A90",
"G. c #B89C80",
"H. c #A19F9F",
"J. c #BFA485",
"K. c #A1A09F",
"L. c #A4A3A3",
"P. c #A1A3AC",
"I. c #B0B0AF",
"U. c #A7A8B1",
"Y. c #B8B7B6",
"T. c #CBAB8B",
"R. c #C6A684",
"E. c #CBB097",
"W. c #D5B391",
"Q. c #DEB996",
"!. c #DBB894",
"~. c #DBB188",
"^. c #E1BC97",
"/. c #E2BE99",
"(. c #E6C29D",
"). c #E9C49E",
"_. c #EAC6A1",
"`. c #EECAA3",
"'. c #EFCDAE",
"]. c #F3CDA6",
"[. c #F1CCA8",
"{. c #EBCDB5",
"}. c #F0CFB2",
"|. c #EFD0B6",
" X c #C4C3C3",
".X c #C4C4C8",
"XX c #D2D2D2",
"oX c #DCDCDC",
"OX c #F6DBC5",
"+X c #E3E2E2",
"@X c #00B140",
/* pixels */
"@X@X@X@X@X@X@X@X@X@X@X@X@X@X@X@X@X@X@X@X@X@X@X@X@X@X@X@X@X@X@X@X@X@X@X@X@X@X@X@X@X@X@X@X@X@X@X@X@X@X@X@X@X@X@X@X@X@X@X@X",
"@X@X@X@X@X@X@X@X@X@X@X@X@X@X@X@X@X@X@X@X@X@X@X@X@X@X@X@X@X@X@X@X@X@X@X@X@X@X@X@X@X@X@X@X@X@X@X@X@X@X@X@X@X@X@X@X@X@X@X@X",
"@X@X@X@X@X@X@X@X@X@X@X@X@X@X@X@X@X@X@X@X@X@X@X@X@X@X@X@X@X@X@X@X@X@X@X@X@X@X@X@X@X@X@X@X@X@X@X@X@X@X@X@X@X@X@X@X@X@X@X@X",
"@X@X@X@X@X@X@X@X@X@X@X@X@X@X@X@X@X@X@X@X@X@X@X@X@X@X@X@X@X@X@X@X@X@X@X@X@X@X@X@X@X@X@X@X@X@X@X@X@X@X@X@X@X@X@X@X@X@X@X@X",
"@X@X@X@X@X@X@X@X@X@X@X@X@X@X@X@X@X@X@X@X@X@X@X@X@X@X@X@X@X@X@X@X@X@X@X@X@X@X@X@X@X@X@X@X@X@X@X@X@X@X@X@X@X@X@X@X@X@X@X@X",
"@X@X@X@X@X@X@X@X@X@X@X@X@X@X@X@X@X@X@X@X@X@X@X@X@X@X@X@X@X@X@X@X@X@X@X@X@X@X@X@X@X@X@X@X@X@X@X@X@X@X@X@X@X@X@X@X@X@X@X@X",
"@X@X@X@X@X@X@X@X@X@X@X@X@X@X@X@X@X@X@X@X@X@X@X@X@X@X@X@X@X@X@X@Xo o O O @X@X@X@X@X@X@X@X@X@X@X@X@X@X@X@X@X@X@X@X@X@X@X@X",
"@X@X@X@X@X@X@X@X@X@X@X@X@X@X@X@X@X@X@X@X@X@X@X@X@X@X@X@X@XO O O < 7 r < O @X@X@X@X@X@X@X@X@X@X@X@X@X@X@X@X@X@X@X@X@X@X@X",
"@X@X@X@X@X@X@X@X@X@X@X@X@X@X@X@X@X@X@X@X@X@X@Xo o o O O > < 0 S P T R r # o @X@X@X@X@X@X@X@X@X@X@X@X@X@X@X@X@X@X@X@X@X@X",
"@X@X@X@X@X@X@X@X@X@X@X@X@X@X@X@X@X@X@X@XO + # < 0 r D P P Y R R R R R P S 3 O O @X@X@X@X@X@X@X@X@X@X@X@X@X@X@X@X@X@X@X@X",
"@X@X@X@X@X@X@X@X@X@X@X@X@X@X@X@X@XO O O 2 r H U R R R R R R R R U U T T R U r # o @X@X@X@X@X@X@X@X@X@X@X@X@X@X@X@X@X@X@X",
"@X@X@X@X@X@X@X@X@X@X@X@X@X@X@X@Xo # 0 H Y R R R R R R R R R R U T U Y T R R R H 3 O o @X@X@X@X@X@X@X@X@X@X@X@X@X@X@X@X@X",
"@X@X@X@X@X@X@X@X@X@X@X@X@X@Xo O 0 G R R R R R R R R R R R R R R R R R R R R R R Y h # X @X@X@X@X@X@X@X@X@X@X@X@X@X@X@X@X",
"@X@X@X@X@X@X@X@X@X@X@X@X@Xo < D R R R R R R R R R R R R R R R R R T Y R U U T U Y T P 0 O o @X@X@X@X@X@X@X@X@X@X@X@X@X@X",
"@X@X@X@X@X@X@X@X@X@X@Xo O 7 U R ~ R R R R R R R R R R ~ R R R R R T U U T U R T T Y Y T w O o @X@X@X@X@X@X@X@X@X@X@X@X@X",
"@X@X@X@X@X@X@X@X@X@Xo O e T R R R R R R R R R R R R Y R R R R R R T R T R R T R T R T R T r O O @X@X@X@X@X@X@X@X@X@X@X@X",
"@X@X@X@X@X@X@X@X@XO # r U R R R R ~ R R R R R T T R R R R U U U U U U U U U U U U U I Y R T D O o @X@X@X@X@X@X@X@X@X@X@X",
"@X@X@X@X@X@X@X@XX # D T R R R R R R R R R T T R R Y U U U U U U U I U U U U P P I I U I U T T D # o @X@X@X@X@X@X@X@X@X@X",
"@X@X@X@X@X@X@Xo # H R R R R R R R R R R T T U T R U U U U U T U U U I I I U I U I U U P G G U U q O o @X@X@X@X@X@X@X@X@X",
"@X@X@X@X@X@Xo # H R R R R R ~ R R T R U U U U U P U U Y Y U U U U I U I I P P P G P I G D G F F r 3 O o @X@X@X@X@X@X@X@X",
"@X@X@X@X@Xo O D R R R R R T R U U P U U U U U U U ! U U U U I U I U I U U I P G P I H F F G G G r w < o @X@X@X@X@X@X@X@X",
"@X@X@X@X@XO r T R R R T U U U P U T T T Y Y U U U U P P P P U P U P I P I G G P G G G P G G G D D w 0 < o @X@X@X@X@X@X@X",
"@X@X@X@Xo 3 U T R R U U U T U T T U U U U U U U I I U I I U U I I U U P I I G F G G G F F F H G D w q 0 O o @X@X@X@X@X@X",
"@X@X@Xo < U R T T T T T T U U U P U P P G P P P U I I I P P I U U I U G G G G I G G G F G D D F S r q r 3 o @X@X@X@X@X@X",
"@X@X@Xo h R R T U U U U U P I U U U P P I U U I U U I G G I U I P G G P G I G G F F F H S S H D r r q r q O O @X@X@X@X@X",
"@X@Xo 2 T R U G G U I I I U U I P U G U U I I U I I I I I I G G G G G I G G G F H H D D C F D r r r r q w < o @X@X@X@X@X",
"@X@XO D R T I U P I I I I U U I U U U U U U U U I G G H F F G G G G G F F G F F H D D r b H r r r r q q w 3 O O @X@X@X@X",
"@Xo < U U I I G P U U I I I I I G P G G G G G I I G G F G I G G G F F G F F F D D D S D H h r r r r r r r q < o @X@X@X@X",
"@Xo q U G D F D D F P P P I G G G G G F F F F F G G G G G G F F F G F F F D D D S h D H h r r h r r r r r q 3 O o @X@X@X",
"@Xo D G r D D r D D D D F F D F H H G F F F F F H G F H F F F H F F D D S S S S D D D r h r h h r r r r r q 0 > o @X@X@X",
"@XO r D r b b r D F F D S r D D F H H F F F D F H H H F F D D S D D D D S S D D D h r r r h h r r b r q w q q 3 o @X@X@X",
"@Xo 1 q r C b D H D D H F F F D F H F F F F D D S D S S S S r S D D D D D F D S r r r r r h b r r C r q r w q 3 O O @X@X",
"@Xo < q r S D r C w r S D D H H H D D D D S D D D h b b r h S D D D D D D S r r r r S r D r D r r r r r r r 0 0 # X @X@X",
"@Xo O 3 q r r r r r r r r r h b D D S S D D D D h h r C D D S S D D D D S r r r r S S S D r r r r r q q q r 0 3 < o @X@X",
"@X@XO O 3 w r r r e r r r r C b r S S D S S D D D D S D D F F D S S S r r S S S r S r S r r r r r r r r q r 0 0 < O @X@X",
"@X@X@XO O 3 0 r e e r w r w w r r r S S S S S S h r r r r S r r r r r r r r S r S r S r r r r r r r q q r r 0 0 < O @X@X",
"@X@X@X@XO O $ 3 q q q w r r r q r r r r r r r S r r r r r r r q r r r r S S r S S S r r r r r S r q r r q r 0 0 2 O # @X",
"@X@X@X@X. X O # 2 3 0 0 q w w r r r r r r w r w r r r r r r r r r r r S r r r S r r r r S r r r r q q r r 0 0 0 3 # o @X",
"@X@X@X@XO O ; % O # 3 3 3 0 q q q q q r r S S r h r r h r S S r r r r r r S S r r r q S r r r q q q r r q q 0 0 3 # o @X",
"@X@X@X@X@XO k z : o o > < 3 3 0 q r q q r r r r r w r r r r r r r r S S r r r r r q S r r r r q r r r q q 0 0 0 3 # # @X",
"@X@X@X@X@Xo y p $ O 9 8 # o < 1 0 r r q w r r r r q q e r r r r S r r r S r q q q r r r r q q q r w r q q 0 0 3 3 # O @X",
"@X@X@X@X@X. o o 2 E c.v.=.m $ O > 3 0 q q w q r r q C b h r r r r r r q q q r q r r r q r q r r r r q w q 0 0 3 0 # O @X",
"@X@X@X@X@X@X  . E R.(.`.(.T.j.v O # 2 0 q q q r r r r r r r r r r q r r r r q q q r q r q r r r q q q q 0 0 3 3 0 4 X @X",
"@X@X@X@X@X@X@X. =.`.`.`.(.~.x.O.N $ O 3 0 0 q r q r r r r w w r r r r q q q q r r r q q r q r r r q w q q 3 3 3 3 # O @X",
"@X@X@X@X@X@X@XO j.Q._.).h.X.) ( ) z $ O 0 0 0 w q q q r r r w w q q q q q q r q q q r q r r r q q q q q 0 3 3 < 3 < O @X",
"@X@X@X@X@X@X@XO k.(.`.C.X.X.*.B.B.&.N # > 3 0 q q r r q 0 q w w r q q r q r q q r r r r q q q q r q 0 0 3 3 3 3 3 # o @X",
"@X@X@X@X@X@X@XO k.`.B.X.h.R.R.n.n.R.C.E O < 0 q 0 q q r q q q q q q q q r r r r q q q q q r r q q 0 0 0 3 3 3 < 3 O O @X",
"@X@X@X@X@X@X@XO j.V.&.x.#.g 2 2 2 9 m v.b o 3 q q 0 0 q q r w e r q r q q q q q q r r q r q q 0 0 0 0 3 3 3 3 3 3 O O @X",
"@X@X@X@X@X@X@X% o.h.m.f > T H.I.K.^ 7 =.l.# < 0 0 0 0 q q q q q e e w q q q q q q w q q q 0 0 0 0 0 3 3 0 3 3 3 < o @X@X",
"@X@X@X@X@X@X@X+ $.c.5 , C ! XX+XXX XT Q Q.g O 0 0 0 0 0 q q q 0 q 0 q q q 0 q 0 0 0 0 7 0 0 0 0 3 3 3 0 3 2 1 3 < o @X@X",
"@X@X@X@X@X@X@Xo M 8 4 , V Z U.+XXX X~ E ].%.o 3 3 3 7 0 0 0 0 0 0 0 q 0 0 0 q 0 q 0 0 0 7 0 3 3 0 3 0 0 3 4 4 3 O o @X@X",
"@X@X@X@X@X@X@Xo O G ! @ t Z P.+XXX XU Q ].n.# < 3 3 q 0 0 0 0 q 0 0 0 0 0 0 0 0 0 0 q 3 3 3 0 0 3 3 0 3 2 2 3 < o @X@X@X",
"@X@X@X@X@X@X@Xo o T F.V A ! .XoXXXY.b j.].T.1 > 3 3 3 q 7 q q 3 0 5 0 0 0 0 0 0 3 3 3 3 0 0 0 3 q 0 3 4 2 3 3 < O @X@X@X",
"@X@X@X@X@X@X@Xo + 3 D.S.A.U.+XoXXXF.9 T.].T.6 # 3 3 3 3 3 3 0 0 0 0 0 0 5 3 3 3 0 0 0 q 0 0 0 0 3 3 3 < < 3 3 O o @X@X@X",
"@X@X@X@X@X@X@XX v m D Y.XXoXoXXXL.e Q ].W.m o # < 3 3 0 3 3 3 3 3 3 , 0 0 0 0 0 0 0 0 0 0 0 0 3 3 3 1 3 3 3 < o @X@X@X@X",
"@X@X@X@X@X@X@Xo n n.v b A.H.H.^ q n Q.^.m O O < 3 4 3 0 q q 3 3 0 3 3 0 0 0 0 0 0 0 5 0 3 3 3 3 3 < 4 3 3 < O @X@X@X@X@X",
"@X@X@X@X@X@X@Xo 1 W Q M 9 3 2 9 Q W.W.W # B $ < 3 4 3 3 0 q 0 0 3 3 3 3 3 3 3 , 3 3 3 4 3 3 3 2 3 3 3 3 < O o @X@X@X@X@X",
"@X@X@X@X@X@X@XO @ : $ 2 K Q j.R.T.;.w = 1.4.# < 2 3 3 3 3 3 0 0 0 0 0 3 3 3 3 3 4 3 1 3 3 3 4 1 4 3 < # o o @X@X@X@X@X@X",
"@X@X@X@X@X@X@X@X$ 2.3.B = < 7 f 2 $ c M.f.>.O < 3 < 3 3 3 3 3 0 0 3 3 0 3 0 3 3 3 < 3 3 1 4 3 3 3 2 > O X @X@X@X@X@X@X@X",
"@X@X@X@X@X@X@X@X%  .a.d.,.1.+.x +.2.f.g.a.x o < 3 3 < 3 3 q 3 3 3 3 3 5 3 3 3 3 3 3 < 1 3 1 3 2 < O o . @X@X@X@X@X@X@X@X",
"@X@X@X@X@X@X@X@XO s [ [ y.f.s.0.0.9.i.d.7.j O 1 < 2 3 3 4 3 3 3 3 3 3 3 3 3 3 3 < 3 4 3 4 3 < O o . @X@X@X@X@X@X@X@X@X@X",
"@X@X@X@X@X@X@X@XO O j t.d.a.r.s.s.r.7.u.2.j O 4 3 4 3 1 2 3 2 1 3 4 1 3 3 1 1 4 3 3 2 < # O o X . @X@X@X@X@X@X@X@X@X@X@X",
"@X@X@X@X@X@X@X@X@XO d e.u.9.q.0.q.s.u.N.| i O < 1 3 < 3 4 3 3 < 4 2 3 < 3 1 4 1 # O O o O X @X@X@X@X@X@X@X@X@X@X@X@X@X@X",
"@X@X@X@X@X@X@X@X@XO y } @.2.8.8.6.e.t.[ i + X # 3 4 3 < < < < < < + + O o O O o o o . . @X@X@X@X@X@X@X@X@X@X@X@X@X@X@X@X",
"@X@X@X@X@X@X@X@X@Xo % _ } | } | .. .p # o O X O # # + O O o o o O > < 2 3 3 < .   @X@X@X@X@X@X@X@X@X@X@X@X@X@X@X@X@X@X@X",
"@X@X@X@X@X@X@X@X@X@X% z ` ) ' ) ] ) % o O > + O # > O O # q < # r S D H H r q < X @X@X@X@X@X@X@X@X@X@X@X@X@X@X@X@X@X@X@X",
"@X@X@X@X@X@X@X@X@X@Xo * ' ` ` ) ` j O o # w S w r q # # H R w # H U R U U H r q + O @X@X@X@X@X@X@X@X@X@X@X@X@X@X@X@X@X@X",
"@X@X@X@X@X@X@X@X@X@Xo O k ) ` ) _ * o o 3 r S S r # > G R U 0 > U R R U P G r r < # @X@X@X@X@X@X@X@X@X@X@X@X@X@X@X@X@X@X",
"@X@X@X@X@X@X@X@X@X@X@XO y / ] / - o O O 5 r S r # > w U P D # 3 U R U U P P D S 9 o @X@X@X@X@X@X@X@X@X@X@X@X@X@X@X@X@X@X",
"@X@X@X@X@X@X@X@X@X@X@XO + l ] l + o O + w r S < O 0 F G H q O w T U U U G H r r q O O @X@X@X@X@X@X@X@X@X@X@X@X@X@X@X@X@X",
"@X@X@X@X@X@X@X@X@X@X@X@X@ a k * @ o o 3 r r 4 O 0 h H D h 3 O D U U U P G H r r r < o @X@X@X@X@X@X@X@X@X@X@X@X@X@X@X@X@X",
"@X@X@X@X@X@X@X@X@X@X@X@XO @ + O O O O 3 w 3 o O 0 r D r w # < G U G G P H S D r r 3 o @X@X@X@X@X@X@X@X@X@X@X@X@X@X@X@X@X",
"@X@X@X@X@X@X@X@X@X@X@X@X@Xo O o @XO + 0 1 + e $ O 3 w e 0 O q H H H H G D S r r h 0 O O @X@X@X@X@X@X@X@X@X@X@X@X@X@X@X@X",
"@X@X@X@X@X@X@X@X@X@X@X@X@X@X@X@X@Xo , < $ -.T.b.n O > 0 # # D H H H H S D S D r r 0 O O @X@X@X@X@X@X@X@X@X@X@X@X@X@X@X@X",
"@X@X@X@X@X@X@X@X@X@X@X@X@X@X@X@X@Xo + O E !.).[.{.z.q o o 2 D D D S D D S S D r w 0 # O @X@X@X@X@X@X@X@X@X@X@X@X@X@X@X@X",
"@X@X@X@X@X@X@X@X@X@X@X@X@X@X@X@X@XO , @ -./.`.'.OXOXE.J O w D D S D D D S D r r w 0 # O @X@X@X@X@X@X@X@X@X@X@X@X@X@X@X@X",
"@X@X@X@X@X@X@X@X@X@X@X@X@X@X@X@X@Xo < O %.^.`.}.|.}.`.c.> e D D D D r r S h r r w 0 4 o @X@X@X@X@X@X@X@X@X@X@X@X@X@X@X@X",
"@X@X@X@X@X@X@X@X@X@X@X@X@X@X@X@X@Xo < O M T.(.[.[.)./.Q O r D r r S D S S h r r w 0 < O @X@X@X@X@X@X@X@X@X@X@X@X@X@X@X@X",
"@X@X@X@X@X@X@X@X@X@X@X@X@X@X@X@X@XO < 1 # Q C.Q.(.W.v.8 < r r h D h S S h r w r q 0 < o @X@X@X@X@X@X@X@X@X@X@X@X@X@X@X@X",
"@X@X@X@X@X@X@X@X@X@X@X@X@X@X@X@X@Xo < 0 < + v $.j.#.8 > r D r h r S r r r w r w 0 0 > O @X@X@X@X@X@X@X@X@X@X@X@X@X@X@X@X",
"@X@X@X@X@X@X@X@X@X@X@X@X@X@X@X@X@Xo < 0 0 1 O O O O > 7 r r r w w r w w w w w 0 0 3 # X @X@X@X@X@X@X@X@X@X@X@X@X@X@X@X@X",
"@X@X@X@X@X@X@X@X@X@X@X@X@X@X@X@Xo O < 3 0 0 0 0 3 3 0 q q q q q q q q q q q 0 0 0 3 4 O @X@X@X@X@X@X@X@X@X@X@X@X@X@X@X@X",
"@X@X@X@X@X@X@X@X@X@X@X@X@X@X@Xo O O O < < 3 3 3 3 3 3 3 3 3 0 3 3 3 3 2 3 3 < # # > O o @X@X@X@X@X@X@X@X@X@X@X@X@X@X@X@X",
"@X@X@X@X@X@X@X@X@X@X@X@X@X@X@XO < # o O O O o O O O O # # O O O O O O O o O O O # # O o @X@X@X@X@X@X@X@X@X@X@X@X@X@X@X@X",
"@X@X@X@X@X@X@X@X@X@X@X@X@X@X@Xo o O o O + # # # # O o O X O o O O O O # 9 9 9 7 9 9 # + @X@X@X@X@X@X@X@X@X@X@X@X@X@X@X@X",
"@X@X@X@X@X@X@X@X@X@X@X@X@X@X@X@X@Xo O o O + # $ # # O @X@X@X@X@X@XO O # $ 9 7 7 9 2 # O O @X@X@X@X@X@X@X@X@X@X@X@X@X@X@X",
"@X@X@X@X@X@X@X@X@X@X@X@X@X@X@X@X@X@X@Xo o O O + # O o @X@X@X@X@X@XO 2 # O # 2 $ # # + O O @X@X@X@X@X@X@X@X@X@X@X@X@X@X@X",
"@X@X@X@X@X@X@X@X@X@X@X@X@X@X@X@X@X@X@X@X@X@XO o O O @X@X@X@X@X@Xo # b 9 # O O O o O o @X@X@X@X@X@X@X@X@X@X@X@X@X@X@X@X@X",
"@X@X@X@X@X@X@X@X@X@X@X@X@X@X@X@X@X@X@X@X@X@X@X@Xo O @X@X@X@X@X@Xo O < + o O o O @X@X@X@X@X@X@X@X@X@X@X@X@X@X@X@X@X@X@X@X",
"@X@X@X@X@X@X@X@X@X@X@X@X@X@X@X@X@X@X@X@X@X@X@X@X@X@X@X@X@X@X@X@X@XO o O @X@X@X@X@X@X@X@X@X@X@X@X@X@X@X@X@X@X@X@X@X@X@X@X"
};
