/* XPM */
static xpm_row_t const p1_left_6[] = {
/* columns rows colors chars-per-pixel */
"60 80 173 2 ",
"   c #141413",
".  c #181715",
"X  c #1A1917",
"o  c #1C1C1A",
"O  c #211F1B",
"+  c #201D17",
"@  c #2B2117",
"#  c #23211E",
"$  c #2B2319",
"%  c #2C281C",
"&  c #352617",
"*  c #3B351F",
"=  c #211C28",
"-  c #252423",
";  c #282725",
":  c #2B2925",
">  c #2B2B2B",
",  c #20222F",
"<  c #322D27",
"1  c #322F2A",
"2  c #32312C",
"3  c #3C342C",
"4  c #383323",
"5  c #2A2A33",
"6  c #2F3030",
"7  c #333333",
"8  c #3D3731",
"9  c #3B3935",
"0  c #3B3B3B",
"q  c #452F18",
"w  c #4B3218",
"e  c #5B3B16",
"r  c #533719",
"t  c #533918",
"y  c #633C18",
"u  c #683F18",
"i  c #433D23",
"p  c #41382F",
"a  c #433B33",
"s  c #493E35",
"d  c #413F3D",
"f  c #6A4C17",
"g  c #7C4B19",
"h  c #774819",
"j  c #61541C",
"k  c #765617",
"l  c #4C4321",
"z  c #47433D",
"x  c #4C4339",
"c  c #494036",
"v  c #52463B",
"b  c #544A3E",
"n  c #5B4A39",
"m  c #6A4523",
"M  c #6A5E27",
"N  c #614931",
"B  c #75573B",
"V  c #766829",
"C  c #2B2F4D",
"Z  c #2B3050",
"A  c #353B57",
"S  c #403F40",
"D  c #434343",
"F  c #484748",
"G  c #4B4B4B",
"H  c #494641",
"J  c #5A4E42",
"K  c #5C5043",
"L  c #504F50",
"P  c #535353",
"I  c #585758",
"U  c #5A5A5A",
"Y  c #615345",
"T  c #6B5B4B",
"R  c #665748",
"E  c #756452",
"W  c #77695B",
"Q  c #494E69",
"!  c #565B78",
"~  c #696868",
"^  c #626371",
"/  c #7B7B7A",
"(  c #8B4F1B",
")  c #875119",
"_  c #925418",
"`  c #9C5D19",
"'  c #84631D",
"]  c #AD6B1B",
"[  c #B7761A",
"{  c #925722",
"}  c #9B7726",
"|  c #9B6738",
" . c #B97E22",
".. c #A46D3B",
"X. c #806E5A",
"o. c #9F7F5E",
"O. c #AB7645",
"+. c #8A7660",
"@. c #947D64",
"#. c #9D8217",
"$. c #B68B1C",
"%. c #9B8836",
"&. c #AB8D20",
"*. c #AB9329",
"=. c #BBA12B",
"-. c #C58D16",
";. c #C18418",
":. c #CA9B1E",
">. c #CEAB19",
",. c #D4AE1F",
"<. c #DEB31D",
"1. c #E4B91B",
"2. c #CA9629",
"3. c #DAAF2A",
"4. c #DCA737",
"5. c #CEB33E",
"6. c #DEB936",
"7. c #E6BD23",
"8. c #E2B628",
"9. c #E0BE35",
"0. c #EAC426",
"q. c #F5CF21",
"w. c #F8D22D",
"e. c #E3C33A",
"r. c #F5D036",
"t. c #AE8157",
"y. c #B58557",
"u. c #9B836B",
"i. c #97806A",
"p. c #A2886F",
"a. c #BE8E63",
"s. c #A48C72",
"d. c #AA8E73",
"f. c #B2997B",
"g. c #E8BE40",
"h. c #C49569",
"j. c #C89B70",
"k. c #737689",
"l. c #7E8192",
"z. c #838382",
"x. c #8A8989",
"c. c #8B8C93",
"v. c #969594",
"b. c #A39182",
"n. c #B99D81",
"m. c #BFA182",
"M. c #ADACAC",
"N. c #A4A3A8",
"B. c #B5B3B3",
"V. c #CAAA8A",
"C. c #C7A686",
"Z. c #D5AD86",
"A. c #DDB68D",
"S. c #D6B18F",
"D. c #D5B391",
"F. c #DBB794",
"G. c #DBB895",
"H. c #DEBE9A",
"J. c #E6C29D",
"K. c #E9C49F",
"L. c #EBC7A1",
"P. c #EECAA5",
"I. c #EECAA8",
"U. c #F0CAA4",
"Y. c #EFCFB2",
"T. c #F0CFB4",
"R. c #BEBEC2",
"E. c #CECED0",
"W. c #D2D2D2",
"Q. c #DCDCDB",
"!. c #F6D9C3",
"~. c #E3E2E2",
"^. c #00b140",
/* pixels */
"^.^.^.^.^.^.^.^.^.^.^.^.^.^.^.^.^.^.^.^.^.^.^.^.^.^.^.^.^.^.^.^.^.^.^.^.^.^.^.^.^.^.^.^.^.^.^.^.^.^.^.^.^.^.^.^.^.^.^.^.",
"^.^.^.^.^.^.^.^.^.^.^.^.^.^.^.^.^.^.^.^.^.^.^.^.^.^.^.^.^.^.^.^.^.^.^.^.^.^.^.^.^.^.^.^.^.^.^.^.^.^.^.^.^.^.^.^.^.^.^.^.",
"^.^.^.^.^.^.^.^.^.^.^.^.^.^.^.^.^.^.^.^.^.^.^.^.^.^.^.^.^.^.^.^.^.^.^.^.^.^.^.^.^.^.^.^.^.^.^.^.^.^.^.^.^.^.^.^.^.^.^.^.",
"^.^.^.^.^.^.^.^.^.^.^.^.^.^.^.^.^.^.^.^.^.^.^.^.^.^.^.^.^.^.^.^.^.^.^.^.^.^.^.^.^.^.^.^.^.^.^.^.^.^.^.^.^.^.^.^.^.^.^.^.",
"^.^.^.^.^.^.^.^.^.^.^.^.^.^.^.^.^.^.^.^.^.^.^.^.^.^.^.^.^.^.^.^.^.^.^.^.^.^.^.^.^.^.^.^.^.^.^.^.^.^.^.^.^.^.^.^.^.^.^.^.",
"^.^.^.^.^.^.^.^.^.^.^.^.^.^.^.^.^.^.^.^.^.^.^.^.^.^.^.^.^.^.^.^.^.X o ^.^.^.^.^.^.^.^.^.^.^.^.^.^.^.^.^.^.^.^.^.^.^.^.^.",
"^.^.^.^.^.^.^.^.^.^.^.^.^.^.^.^.^.^.^.^.^.^.^.^.^.^.^.^.^.X X o - 7 9 o X ^.^.^.^.^.^.^.^.^.^.^.^.^.^.^.^.^.^.^.^.^.^.^.",
"^.^.^.^.^.^.^.^.^.^.^.^.^.^.^.^.^.^.^.^.^.^.^.X O O - ; > 2 0 F I U I 7 o X ^.^.^.^.^.^.^.^.^.^.^.^.^.^.^.^.^.^.^.^.^.^.",
"^.^.^.^.^.^.^.^.^.^.^.^.^.^.^.^.^.^.^.^.o o # 6 D G P U U U U U U U I L D : X ^.^.^.^.^.^.^.^.^.^.^.^.^.^.^.^.^.^.^.^.^.",
"^.^.^.^.^.^.^.^.^.^.^.^.^.^.^.^.^.^.# + : d L I U U U U U U U P P P I U U P 2 o o ^.^.^.^.^.^.^.^.^.^.^.^.^.^.^.^.^.^.^.",
"^.^.^.^.^.^.^.^.^.^.^.^.^.^.^.^.^.o > D P U U U U U U U U U U U U I I U U U I H ; X ^.^.^.^.^.^.^.^.^.^.^.^.^.^.^.^.^.^.",
"^.^.^.^.^.^.^.^.^.^.^.^.^.^.^.X # 0 P U U U U U U U U U U U U U U I I I I P I I L 7 O ^.^.^.^.^.^.^.^.^.^.^.^.^.^.^.^.^.",
"^.^.^.^.^.^.^.^.^.^.^.^.^.^.X - G U U U U U U U U U U U U U U U U P P I I I U I I P 0 o ^.^.^.^.^.^.^.^.^.^.^.^.^.^.^.^.",
"^.^.^.^.^.^.^.^.^.^.^.^.^.X > G U U U U U U U U U U U U P U U P I I I I U P P I U U U 0 O o ^.^.^.^.^.^.^.^.^.^.^.^.^.^.",
"^.^.^.^.^.^.^.^.^.^.^.^.X 2 P U U U U U U U U P U U P P P U P P P L P L P L P L P P P U D O ^.^.^.^.^.^.^.^.^.^.^.^.^.^.",
"^.^.^.^.^.^.^.^.^.^.^.X 7 I U U U ~ U U U U U P P P U P P P P P P L L P P L L P P L L P I 0 o ^.^.^.^.^.^.^.^.^.^.^.^.^.",
"^.^.^.^.^.^.^.^.^.^.o 6 P U U U U U I P I P P P P P P P U P P P L P L L P L L G L G F G G D > X ^.^.^.^.^.^.^.^.^.^.^.^.",
"^.^.^.^.^.^.^.^.^.X 2 P U U I I I P P P P P P I P P P P P P L P L L P P L L G L G F F G F D 7 ; o ^.^.^.^.^.^.^.^.^.^.^.",
"^.^.^.^.^.^.^.^.X - L U U U P P P P I I I P P P P G L P P P L L P L L L L G L G G L G F F F 7 7 # X ^.^.^.^.^.^.^.^.^.^.",
"^.^.^.^.^.^.^.^.O F U U U I I I I P P P P L L P P L P P P L P L P L P L G G G G G F F F F F S 7 6 o ^.^.^.^.^.^.^.^.^.^.",
"^.^.^.^.^.^.^.X 7 U U P P L P L P P P L L L L P L P L P L G L P L L L G G G G G F F D D F D 0 7 9 - X ^.^.^.^.^.^.^.^.^.",
"^.^.^.^.^.^.^.- P U L G L P L L P P G P L P P L P P L G G L G G G G L G G G G F F D S F S 0 S 7 7 > o ^.^.^.^.^.^.^.^.^.",
"^.^.^.^.^.^.X 7 U P L L L P L L G P P P L L L L P L G G G G G G G G G F F F F D D S S D 0 0 0 7 7 7 - . ^.^.^.^.^.^.^.^.",
"^.^.^.^.^.^.O G L F F F F L L L P G G G G F G G G G G G G G G G G F G F F F D D S D D S 0 S 0 0 0 7 > o ^.^.^.^.^.^.^.^.",
"^.^.^.^.^.^.- P D S S A D D F F H D F F F G D G F G G G G F F F F G D D D D D 0 D F S 0 S S 0 7 0 7 > # X ^.^.^.^.^.^.^.",
"^.^.^.^.^.^.- 0 9 0 0 c F F F S D D D G F G G D F F G D G F D D D D D D S S D D S 0 0 0 S 0 0 0 0 0 7 - X ^.^.^.^.^.^.^.",
"^.^.^.^.^.^.# > 0 S z D S D D F F F F F G F F D D S S S D S 0 0 D D D D D D S 0 0 0 0 S S 0 0 0 7 0 7 > o ^.^.^.^.^.^.^.",
"^.^.^.^.^.^.o > 7 d 0 0 0 0 0 0 D D D D D D S S S S S S 0 0 D D D D D D D 0 0 0 0 d S S 0 0 0 0 7 0 7 6 o ^.^.^.^.^.^.^.",
"^.^.^.^.^.^.X o > 9 0 0 0 7 9 0 0 0 D S D d S D D D S 0 D D S S D D D 0 0 0 S 0 D 0 S 0 0 0 0 0 0 0 7 > # . ^.^.^.^.^.^.",
"^.^.^.^.^.^.^.X # > 7 0 0 0 0 0 0 0 0 0 d S S S D S S S 0 D D 0 S 0 0 0 0 0 S S 0 0 0 0 0 0 0 7 7 0 7 > - o ^.^.^.^.^.^.",
"^.^.^.^.^.^.^.^.. o ; 6 6 7 0 0 0 7 0 0 0 0 0 S 0 S 0 0 0 0 0 0 0 0 0 0 S d d 0 0 0 0 0 0 0 0 7 0 0 7 6 - o ^.^.^.^.^.^.",
"^.^.^.^.^.^.^.^.^.X o # ; > 5 7 7 0 7 0 0 0 0 7 0 0 0 0 0 0 0 0 0 0 S 0 0 0 S d 0 0 0 0 0 0 7 0 7 7 7 6 ; o ^.^.^.^.^.^.",
"^.^.^.^.^.^.^.^.^.& e & + - : > 6 7 7 7 9 9 A 0 0 0 0 0 A 0 0 0 0 0 0 S S 0 0 0 0 0 0 0 7 7 0 0 7 7 6 6 ; o ^.^.^.^.^.^.",
"^.^.^.^.^.^.^.^.^.+ u e X o # o - > 7 7 7 9 8 0 0 0 0 9 8 0 0 0 0 0 S S 0 0 0 7 0 0 0 0 7 0 7 0 7 7 7 > > o ^.^.^.^.^.^.",
"^.^.^.^.^.^.^.^.^.. o + s X.+.K : o - 6 7 7 7 0 0 7 9 0 9 0 0 0 S 0 0 7 0 7 7 0 0 0 0 7 0 0 0 0 7 7 6 > > o ^.^.^.^.^.^.",
"^.^.^.^.^.^.^.^.^.^.  4 f.H.K.S.s.b - - > 7 7 9 0 0 0 0 d 0 0 0 0 0 7 0 7 0 7 7 0 7 0 7 0 7 7 7 7 7 6 > 5 O ^.^.^.^.^.^.",
"^.^.^.^.^.^.^.^.^.^.  v H.P.K.A.j.| m & # > 7 7 0 0 0 0 0 7 0 0 0 0 0 0 7 7 0 7 0 7 0 0 0 0 7 0 7 > > > > o ^.^.^.^.^.^.",
"^.^.^.^.^.^.^.^.^.^.. J G.K.A.| ( { { h $ # 5 6 7 7 7 7 0 0 7 0 7 7 6 7 0 7 0 7 7 0 0 7 7 7 7 7 7 > > ; > o ^.^.^.^.^.^.",
"^.^.^.^.^.^.^.^.^.^.. K K.A.O...a.Z.Z.a.B # - 6 7 7 7 7 7 7 0 7 7 7 0 7 7 7 7 0 0 7 7 7 7 0 7 > > > > ; > o ^.^.^.^.^.^.",
"^.^.^.^.^.^.^.^.^.^.. Y Z.O.t.@.T J J E d.K o > 7 6 7 0 7 7 7 7 0 7 7 7 0 0 0 7 7 0 7 0 7 7 7 7 > > > > ; X ^.^.^.^.^.^.",
"^.^.^.^.^.^.^.^.^.^.o N y.t.c 5 ~ c./ L z d.1 - 6 7 6 6 7 7 7 9 0 0 6 7 7 7 7 7 9 9 7 7 6 7 > > > > , > - X ^.^.^.^.^.^.",
"^.^.^.^.^.^.^.^.^.^.. n u.> , A N.~.E.B.z C.T o 6 6 6 7 7 7 7 7 6 7 7 7 7 7 7 7 6 6 6 6 6 7 > > > > : > - X ^.^.^.^.^.^.",
"^.^.^.^.^.^.^.^.^.^.. < 9 5 O C k.~.W.B.H V.d.# > > 6 6 > 6 7 6 6 6 6 6 7 6 6 6 6 6 6 6 > > > > > > ; ; o ^.^.^.^.^.^.^.",
"^.^.^.^.^.^.^.^.^.^.^.. P ^ , Z l.~.W.M.z D.V.; ; > 6 6 6 2 6 6 6 7 6 6 6 6 6 6 6 6 > 6 6 > 6 6 ; > > - X ^.^.^.^.^.^.^.",
"^.^.^.^.^.^.^.^.^.^.^.o 9 c.Q ! R.~.W.l.J K.G.2 = ; > 6 6 6 6 7 6 7 6 6 6 6 6 > 6 6 6 > 6 6 > > ; > > O X ^.^.^.^.^.^.^.",
"^.^.^.^.^.^.^.^.^.^.^.2 x ~ R.E.Q.Q.M.d s.P.u.% - ; > > > > > > > > > > > > 6 6 6 6 6 7 2 > ; ; ; > > o ^.^.^.^.^.^.^.^.",
"^.^.^.^.^.^.^.^.^.^.^.p p.c U v.N.i.d E L.u.; X - ; > 2 7 6 > > > 6 6 6 6 6 6 6 6 6 > > > > ; , > > o . ^.^.^.^.^.^.^.^.",
"^.^.^.^.^.^.^.^.^.^.^.# c b c 8 0 z @.D.i.< M % - ; > > > 6 6 6 > > > > > 6 > > > : > > ; ; > > ; # o ^.^.^.^.^.^.^.^.^.",
"^.^.^.^.^.^.^.^.^.^.^.$ M l < v W s.i.b 4 %.=.# ; > > > > 6 6 6 6 5 > > ; > ; ; ; ; > ; ; > > ; o o ^.^.^.^.^.^.^.^.^.^.",
"^.^.^.^.^.^.^.^.^.^.^.$ $.0.*.j l * 4 V 5.w.#.o ; ; , > > > > > > > > > 5 > > ; ; , > > > > ; o X ^.^.^.^.^.^.^.^.^.^.^.",
"^.^.^.^.^.^.^.^.^.^.^.o f &.=.e.9.>.,.1.r.1.k o ; ; ; ; > > > > > > > > > > > > > ; ; ; - O X . ^.^.^.^.^.^.^.^.^.^.^.^.",
"^.^.^.^.^.^.^.^.^.^.^.X o ' 6.q.<.0.7.:.8.2.f o > ; ; > , > ; > > > > > ; ; ; ; > ; - = o .   ^.^.^.^.^.^.^.^.^.^.^.^.^.",
"^.^.^.^.^.^.^.^.^.^.^.^.o ) 4.8.1.1.7.8.g.$.t o ; > ; ; ; > ; ; ; > ; > ; ; , - # o o     ^.^.^.^.^.^.^.^.^.^.^.^.^.^.^.",
"^.^.^.^.^.^.^.^.^.^.^.^.. t ] [ -.-.;.2.} t # o - , ; ; - - - - # o o o o o o X     ^.^.^.^.^.^.^.^.^.^.^.^.^.^.^.^.^.^.",
"^.^.^.^.^.^.^.^.^.^.^.^.X w _ ` ` ` [ h + X o . o o o X o o . o # > > > - .   ^.^.^.^.^.^.^.^.^.^.^.^.^.^.^.^.^.^.^.^.^.",
"^.^.^.^.^.^.^.^.^.^.^.^.X $ g _ _ ( ( q X o > > > > 7 7 - # 6 o 7 F G F 0 ; o ^.^.^.^.^.^.^.^.^.^.^.^.^.^.^.^.^.^.^.^.^.",
"^.^.^.^.^.^.^.^.^.^.^.^.^.. t _ _ _ h @ . # 0 S S F L P > 7 U 6 - L P L D 7 # ^.^.^.^.^.^.^.^.^.^.^.^.^.^.^.^.^.^.^.^.^.",
"^.^.^.^.^.^.^.^.^.^.^.^.^.o $ g ` ) @ . X > 0 S D L P I > 7 U D # 7 P L D 0 ; o ^.^.^.^.^.^.^.^.^.^.^.^.^.^.^.^.^.^.^.^.",
"^.^.^.^.^.^.^.^.^.^.^.^.^.^.o y _ e o X o 6 0 S D D G P ; 9 P D > # D G S S 6 o ^.^.^.^.^.^.^.^.^.^.^.^.^.^.^.^.^.^.^.^.",
"^.^.^.^.^.^.^.^.^.^.^.^.^.^.X & w # o X # 9 0 S S F D F ; > L D 7 # 6 G S S 7 # X ^.^.^.^.^.^.^.^.^.^.^.^.^.^.^.^.^.^.^.",
"^.^.^.^.^.^.^.^.^.^.^.^.^.^.^.X o X ^.X - 0 0 S S D G D ; ; D D 0 ; # S S 0 0 - X ^.^.^.^.^.^.^.^.^.^.^.^.^.^.^.^.^.^.^.",
"^.^.^.^.^.^.^.^.^.^.^.^.^.^.^.^.# ^.^.O > 0 0 S d S D F > - 0 S 0 6 X 6 D 0 0 ; o ^.^.^.^.^.^.^.^.^.^.^.^.^.^.^.^.^.^.^.",
"^.^.^.^.^.^.^.^.^.^.^.^.^.^.^.^.^.^.^.o 6 0 7 S S d D D 2 # > ; O o - # 0 0 7 > o ^.^.^.^.^.^.^.^.^.^.^.^.^.^.^.^.^.^.^.",
"^.^.^.^.^.^.^.^.^.^.^.^.^.^.^.^.^.^.^.o 6 7 0 S d d d S 6 o # d W b.m.K - 0 7 6 O ^.^.^.^.^.^.^.^.^.^.^.^.^.^.^.^.^.^.^.",
"^.^.^.^.^.^.^.^.^.^.^.^.^.^.^.^.^.^.X o 6 7 0 0 0 D S D 6 < s.H.!.!.P.n.< 7 0 > o ^.^.^.^.^.^.^.^.^.^.^.^.^.^.^.^.^.^.^.",
"^.^.^.^.^.^.^.^.^.^.^.^.^.^.^.^.^.^.X # > 7 0 0 a A d D > v G.P.Y.T.L.V.p > 9 > O X ^.^.^.^.^.^.^.^.^.^.^.^.^.^.^.^.^.^.",
"^.^.^.^.^.^.^.^.^.^.^.^.^.^.^.^.^.^.X # > 7 0 0 0 d z d > p V.L.P.P.J.d.: 1 7 > = X ^.^.^.^.^.^.^.^.^.^.^.^.^.^.^.^.^.^.",
"^.^.^.^.^.^.^.^.^.^.^.^.^.^.^.^.^.^.X o > 6 6 7 0 0 0 0 9 O T C.F.S.d.c - 7 6 > # X ^.^.^.^.^.^.^.^.^.^.^.^.^.^.^.^.^.^.",
"^.^.^.^.^.^.^.^.^.^.^.^.^.^.^.^.^.^.X o > 6 6 7 7 7 7 7 7 > = p K b : # 6 6 > > o X ^.^.^.^.^.^.^.^.^.^.^.^.^.^.^.^.^.^.",
"^.^.^.^.^.^.^.^.^.^.^.^.^.^.^.^.^.^.o o - ; > > > > > 6 > 6 > # o # - > ; ; - # o ^.^.^.^.^.^.^.^.^.^.^.^.^.^.^.^.^.^.^.",
"^.^.^.^.^.^.^.^.^.^.^.^.^.^.^.^.^.^.^.o o o o o o o o o o # o o o o o X o X o X ^.^.^.^.^.^.^.^.^.^.^.^.^.^.^.^.^.^.^.^.",
"^.^.^.^.^.^.^.^.^.^.^.^.^.^.^.^.^.^.^.^.^.^.^.^.o o X X # o # : > : 4 ; o ^.^.^.^.^.^.^.^.^.^.^.^.^.^.^.^.^.^.^.^.^.^.^.",
"^.^.^.^.^.^.^.^.^.^.^.^.^.^.^.^.^.^.^.^.^.^.^.^.o # # : 9 # # 4 2 2 2 % X ^.^.^.^.^.^.^.^.^.^.^.^.^.^.^.^.^.^.^.^.^.^.^.",
"^.^.^.^.^.^.^.^.^.^.^.^.^.^.^.^.^.^.^.^.^.^.^.^.o # + o # o o # % < : # X ^.^.^.^.^.^.^.^.^.^.^.^.^.^.^.^.^.^.^.^.^.^.^.",
"^.^.^.^.^.^.^.^.^.^.^.^.^.^.^.^.^.^.^.^.^.^.^.^.o X o X X o o X o o o o o ^.^.^.^.^.^.^.^.^.^.^.^.^.^.^.^.^.^.^.^.^.^.^.",
"^.^.^.^.^.^.^.^.^.^.^.^.^.^.^.^.^.^.^.^.^.^.^.^.^.^.^.^.^.^.^.^.^.^.o o ^.^.^.^.^.^.^.^.^.^.^.^.^.^.^.^.^.^.^.^.^.^.^.^.",
"^.^.^.^.^.^.^.^.^.^.^.^.^.^.^.^.^.^.^.^.^.^.^.^.^.^.^.^.^.^.^.^.^.^.^.^.^.^.^.^.^.^.^.^.^.^.^.^.^.^.^.^.^.^.^.^.^.^.^.^.",
"^.^.^.^.^.^.^.^.^.^.^.^.^.^.^.^.^.^.^.^.^.^.^.^.^.^.^.^.^.^.^.^.^.^.^.^.^.^.^.^.^.^.^.^.^.^.^.^.^.^.^.^.^.^.^.^.^.^.^.^.",
"^.^.^.^.^.^.^.^.^.^.^.^.^.^.^.^.^.^.^.^.^.^.^.^.^.^.^.^.^.^.^.^.^.^.^.^.^.^.^.^.^.^.^.^.^.^.^.^.^.^.^.^.^.^.^.^.^.^.^.^.",
"^.^.^.^.^.^.^.^.^.^.^.^.^.^.^.^.^.^.^.^.^.^.^.^.^.^.^.^.^.^.^.^.^.^.^.^.^.^.^.^.^.^.^.^.^.^.^.^.^.^.^.^.^.^.^.^.^.^.^.^."
};
