/* XPM */
static xpm_row_t const p1_left_1[] = {
/* columns rows colors chars-per-pixel */
"60 80 172 2 ",
"   c #161513",
".  c #1A1917",
"X  c #171818",
"o  c #1C1B1A",
"O  c #181715",
"+  c #211F1C",
"@  c #241D16",
"#  c #22211E",
"$  c #2B2218",
"%  c #2D2013",
"&  c #382918",
"*  c #3B351E",
"=  c #1D1E27",
"-  c #211B22",
";  c #252423",
":  c #292623",
">  c #2A2926",
",  c #2B2B2B",
"<  c #262528",
"1  c #322E26",
"2  c #322E2A",
"3  c #343126",
"4  c #32312C",
"5  c #3A332C",
"6  c #3A392F",
"7  c #28293F",
"8  c #262436",
"9  c #333333",
"0  c #3C3934",
"q  c #373838",
"w  c #3B3B3B",
"e  c #36363E",
"r  c #422E18",
"t  c #482F18",
"y  c #432C17",
"u  c #4D3318",
"i  c #433C1F",
"p  c #4A3717",
"a  c #573817",
"s  c #663D18",
"d  c #433222",
"f  c #423B32",
"g  c #473F36",
"h  c #684518",
"j  c #7A4919",
"k  c #715219",
"l  c #7B6A1D",
"z  c #524A27",
"x  c #5F5528",
"c  c #42413F",
"v  c #4D4439",
"b  c #52463B",
"n  c #544A3E",
"m  c #6A5D23",
"M  c #7E5129",
"N  c #716325",
"B  c #282C49",
"V  c #2D324E",
"C  c #403F40",
"Z  c #434343",
"A  c #484748",
"S  c #4C4B4C",
"D  c #5B4F42",
"F  c #504F4F",
"G  c #514A45",
"H  c #5D5144",
"J  c #504F50",
"K  c #535353",
"L  c #575858",
"P  c #5A5A5A",
"I  c #595756",
"U  c #635445",
"Y  c #6A5A4B",
"T  c #7E6A56",
"R  c #7D6C5A",
"E  c #766351",
"W  c #4E546F",
"Q  c #5F5F61",
"!  c #545976",
"~  c #5D627B",
"^  c #696868",
"/  c #63677C",
"(  c #7D7D7C",
")  c #874D18",
"_  c #8D5219",
"`  c #825718",
"'  c #935518",
"]  c #9C5C19",
"[  c #975919",
"{  c #926B19",
"}  c #95791C",
"|  c #AF6F19",
" . c #A26219",
".. c #B7741B",
"X. c #945A26",
"o. c #857533",
"O. c #A17C28",
"+. c #A26B38",
"@. c #99704A",
"#. c #86725D",
"$. c #A97749",
"%. c #B17E4E",
"&. c #AC7D52",
"*. c #997F63",
"=. c #BD8117",
"-. c #BD9D19",
";. c #B39828",
":. c #C38816",
">. c #CEA11F",
",. c #D7B11C",
"<. c #E3B716",
"1. c #E2B81C",
"2. c #C18A27",
"3. c #D0962E",
"4. c #C8AD2D",
"5. c #D8A82A",
"6. c #C5AC3E",
"7. c #CEB233",
"8. c #DCB437",
"9. c #E5BC29",
"0. c #E6BB21",
"q. c #ECC520",
"w. c #F3CC23",
"e. c #E6C339",
"r. c #F3CE35",
"t. c #F6D231",
"y. c #B58353",
"u. c #998167",
"i. c #96816A",
"p. c #9D856C",
"a. c #A58768",
"s. c #BF9164",
"d. c #A68D73",
"f. c #AD9277",
"g. c #B6987B",
"h. c #CB9E74",
"j. c #7A7C8A",
"k. c #858586",
"l. c #8C8C8B",
"z. c #989797",
"x. c #949393",
"c. c #BA9D80",
"v. c #A09F9F",
"b. c #ACADB6",
"n. c #BEBDBD",
"m. c #B1B0B1",
"M. c #C3A585",
"N. c #CDAD8C",
"B. c #D2AC88",
"V. c #D7B18B",
"C. c #CCB097",
"Z. c #D3B290",
"A. c #DDBA96",
"S. c #DEB996",
"D. c #E3BC94",
"F. c #E3BF9A",
"G. c #E8C49E",
"H. c #E7C39D",
"J. c #ECC7A1",
"K. c #EEC9A4",
"L. c #EFCCAC",
"P. c #F0CAA4",
"I. c #EFD0B5",
"U. c #F3D4BA",
"Y. c #C5C4C4",
"T. c #CFCFD0",
"R. c #D6D6D6",
"E. c #D8D7D7",
"W. c #DBDBDB",
"Q. c #EDD4C2",
"!. c #E3E3E2",
"~. c #00b140",
/* pixels */
"~.~.~.~.~.~.~.~.~.~.~.~.~.~.~.~.~.~.~.~.~.~.~.~.~.~.~.~.~.~.~.~.~.~.~.~.~.~.~.~.~.~.~.~.~.~.~.~.~.~.~.~.~.~.~.~.~.~.~.~.",
"~.~.~.~.~.~.~.~.~.~.~.~.~.~.~.~.~.~.~.~.~.~.~.~.~.~.~.~.~.~.~.~.~.~.~.~.~.~.~.~.~.~.~.~.~.~.~.~.~.~.~.~.~.~.~.~.~.~.~.~.",
"~.~.~.~.~.~.~.~.~.~.~.~.~.~.~.~.~.~.~.~.~.~.~.~.~.~.~.~.~.~.~.~.~.~.~.~.~.~.~.~.~.~.~.~.~.~.~.~.~.~.~.~.~.~.~.~.~.~.~.~.",
"~.~.~.~.~.~.~.~.~.~.~.~.~.~.~.~.~.~.~.~.~.~.~.~.~.~.~.~.~.~.~.~.~.~.~.~.~.~.~.~.~.~.~.~.~.~.~.~.~.~.~.~.~.~.~.~.~.~.~.~.",
"~.~.~.~.~.~.~.~.~.~.~.~.~.~.~.~.~.~.~.~.~.~.~.~.~.~.~.~.~.~.~.~.~.~.~.~.~.~.~.~.~.~.~.~.~.~.~.~.~.~.~.~.~.~.~.~.~.~.~.~.",
"~.~.~.~.~.~.~.~.~.~.~.~.~.~.~.~.~.~.~.~.~.~.~.~.~.~.~.~.~.~.~.~.~.~.. . ~.~.~.~.~.~.~.~.~.~.~.~.~.~.~.~.~.~.~.~.~.~.~.~.",
"~.~.~.~.~.~.~.~.~.~.~.~.~.~.~.~.~.~.~.~.~.~.~.~.~.~.~.~.~.~.. . o : 9 , . ~.~.~.~.~.~.~.~.~.~.~.~.~.~.~.~.~.~.~.~.~.~.~.",
"~.~.~.~.~.~.~.~.~.~.~.~.~.~.~.~.~.~.~.~.~.~.~.~.. o + ; ; > 4 w S K P S ; . ~.~.~.~.~.~.~.~.~.~.~.~.~.~.~.~.~.~.~.~.~.~.",
"~.~.~.~.~.~.~.~.~.~.~.~.~.~.~.~.~.~.~.~.~.. o > 6 Z S K L L P Q P P P K A 9 @ ~.~.~.~.~.~.~.~.~.~.~.~.~.~.~.~.~.~.~.~.~.",
"~.~.~.~.~.~.~.~.~.~.~.~.~.~.~.~.~.~.~.. # 9 S K L P P P P P P L K K K P P I w ; . ~.~.~.~.~.~.~.~.~.~.~.~.~.~.~.~.~.~.~.",
"~.~.~.~.~.~.~.~.~.~.~.~.~.~.~.~.~.. # 9 S P P K L P Q P P P P P P P P P P P P F 4 o ~.~.~.~.~.~.~.~.~.~.~.~.~.~.~.~.~.~.",
"~.~.~.~.~.~.~.~.~.~.~.~.~.~.~.~.o > A P P P P Q P P P P P P P P P P L L L L L I L w # . ~.~.~.~.~.~.~.~.~.~.~.~.~.~.~.~.",
"~.~.~.~.~.~.~.~.~.~.~.~.~.~.~.o 6 K P P P P P P P P P P P P P L P L K L L L L L K P S ; . ~.~.~.~.~.~.~.~.~.~.~.~.~.~.~.",
"~.~.~.~.~.~.~.~.~.~.~.~.~.. # w P P P P P Q P P P P L P L L L L L L L K L L L L P P P S ; . ~.~.~.~.~.~.~.~.~.~.~.~.~.~.",
"~.~.~.~.~.~.~.~.~.~.~.~.O ; Z P Q P P P P P P L L L L L L L K K K K K K K K K F J K K L S > . ~.~.~.~.~.~.~.~.~.~.~.~.~.",
"~.~.~.~.~.~.~.~.~.~.~.. ; S P P P P P P Q P L L K L L K K K K K K K F K F F F K K J K K P S ; . ~.~.~.~.~.~.~.~.~.~.~.~.",
"~.~.~.~.~.~.~.~.~.~.. # S P P P P P P P K K K K K K K K K K K K K J K J K J J J F J S S S S q o . ~.~.~.~.~.~.~.~.~.~.~.",
"~.~.~.~.~.~.~.~.~.. # A P P P K K L K K K K K P K K K K K K K J F K J K J J S S J S A Z S A w , o ~.~.~.~.~.~.~.~.~.~.~.",
"~.~.~.~.~.~.~.~.~.o c P P P K K K K K P P K K K K K K F K K K F J K K J J F F S S S S S S A C 9 ; . ~.~.~.~.~.~.~.~.~.~.",
"~.~.~.~.~.~.~.~.. 9 L P L K L P P K K K K K J K F K F K K K F K J J J F F S S S S S S A A A Z 9 9 # . ~.~.~.~.~.~.~.~.~.",
"~.~.~.~.~.~.~.~.; F P K J K K J K J J K F J J K K J K K J S J J K F F S S S F S A A A Z A A C w 9 , . ~.~.~.~.~.~.~.~.~.",
"~.~.~.~.~.~.~.. w P K F S J J K K K J J F J J J J K J J J F J S S S S F S S A A A A Z C Z C w w w 9 ; . ~.~.~.~.~.~.~.~.",
"~.~.~.~.~.~.~.; K L J F J K K F F J J J F F J J J J J S A S A S S S S S A S A A Z Z C Z c w w q 9 9 < o ~.~.~.~.~.~.~.~.",
"~.~.~.~.~.~.. 9 K A A A Z S S K J F S S S S S S S S S S S S S S S A A S A A Z Z Z C Z Z w w w w w w 4 o ~.~.~.~.~.~.~.~.",
"~.~.~.~.~.~.. c Z C w w Z Z Z Z A Z A A A A A A A A S S S S A A A S S Z Z C Z C c Z Z w w Z C q w w 9 ; o ~.~.~.~.~.~.~.",
"~.~.~.~.~.~.o 9 w w w Z v G S Z Z Z Z A A A A A A A A A A Z A Z Z Z Z C C C C Z Z Z w w C w w w w w 9 , o ~.~.~.~.~.~.~.",
"~.~.~.~.~.~.o ; 9 Z Z Z C V Z A Z A A A A A A Z Z Z Z Z Z Z C w C Z Z Z Z Z Z C w w w w C C w w q q 9 9 # . ~.~.~.~.~.~.",
"~.~.~.~.~.~.. # 4 w w w w w w w Z Z Z Z Z Z Z w Z Z Z w w C w C C Z Z A Z C w w w w c c w w w w 9 q 9 9 ; . ~.~.~.~.~.~.",
"~.~.~.~.~.~.~.o ; 9 q w w q q w w w w Z Z w Z Z Z Z Z w Z Z Z C C Z Z C w q w C V v c w C w w 0 q q q 2 ; o ~.~.~.~.~.~.",
"~.~.~.~.~.~.~.~.X ; 9 9 9 w q w w w w w w Z Z C Z w w Z w Z Z Z C C w C C C C w w g c w w w w q q w 9 9 , o ~.~.~.~.~.~.",
"~.~.~.~.~.~.~.~.~.. + , 9 9 9 q w w q w w w w w w w w w w w w q w w w w C w w C V v w w w w q q q q 9 9 , o ~.~.~.~.~.~.",
"~.~.~.~.~.~.~.~.~.. @ o ; , , 9 9 q q q w w w w w w w w w w w w w w w w w C w C w w w w w w q q q q 9 9 , o . ~.~.~.~.~.",
"~.~.~.~.~.~.~.~.~.. a a $ o ; , , 9 9 9 q w V w w w w w w C w c w C w w C C C w q w c w w q 0 q w 9 9 2 , + . ~.~.~.~.~.",
"~.~.~.~.~.~.~.~.~.. t s % o : o o ; 9 q 9 0 f w w w w w w w w w w w c w w w w q q w w w q 9 q q q 9 9 9 , = . ~.~.~.~.~.",
"~.~.~.~.~.~.~.~.~.~.. o 0 T a.R f # ; > 9 q 9 e w w q q w w w w w w w w q q q q w w w q q q w w 9 9 , , , ; . ~.~.~.~.~.",
"~.~.~.~.~.~.~.~.~.~.~.o i.A.G.H.M.T > o , 4 9 9 q q w w w w w w w w q q q q q q w q 9 q q q w 9 9 9 9 4 4 ; . ~.~.~.~.~.",
"~.~.~.~.~.~.~.~.~.~.~.: M.K.G.D.h.$.M t + , 4 9 q w q w q w q q q w q w q 9 9 q q 9 q w q q q q 9 4 4 , , ; o ~.~.~.~.~.",
"~.~.~.~.~.~.~.~.~.~.~.1 M.G.G.$.) X.X._ r o , 4 9 q 9 q w q q q q q 9 9 4 q q q q q q q q q 9 q 9 9 , > , # . ~.~.~.~.~.",
"~.~.~.~.~.~.~.~.~.~.~.5 N.D.%.+.s.B.Z.h.@.1 # , 9 9 q q 9 9 q q q 9 9 9 q q 9 q q q q q 9 q q , , , , < , # X ~.~.~.~.~.",
"~.~.~.~.~.~.~.~.~.~.~.5 M.y.&.*.Y v v U i.#.# ; 4 9 9 9 9 q 9 9 9 9 q 9 q q q q q 9 q q q q 9 9 4 8 , < , o . ~.~.~.~.~.",
"~.~.~.~.~.~.~.~.~.~.~.d &.a.n < Q x.l.^ 9 d.b o , 9 9 9 9 9 9 q w q q 9 9 9 q q q q q q 9 9 , , , , , ; , o ~.~.~.~.~.~.",
"~.~.~.~.~.~.~.~.~.~.~.1 u.f = V j.!.R.Y.L p.p.+ , 9 9 , , 9 , 9 9 q 9 9 9 9 9 9 9 , , 9 , 9 9 , , , , , ; . ~.~.~.~.~.~.",
"~.~.~.~.~.~.~.~.~.~.~.$ 5 w - 7 W R.R.Y.P p.Z.4 > , 9 , 9 9 9 9 , 9 4 4 9 9 , 9 9 9 9 9 9 , , , 9 , , < ; . ~.~.~.~.~.~.",
"~.~.~.~.~.~.~.~.~.~.~.. 0 j.8 B ~ R.R.n.S f.G.v = , , 9 9 , , 9 9 , 9 4 , 9 9 9 , , , , , , 9 , , , , ; o ~.~.~.~.~.~.~.",
"~.~.~.~.~.~.~.~.~.~.~.o > k./ ! b.!.E.v.c Z.P.n o , , , , 9 9 9 9 , 9 , 9 , , , , , , 9 , 9 , , ; , , ; o ~.~.~.~.~.~.~.",
"~.~.~.~.~.~.~.~.~.~.~.: U Z m.T.W.E.n.J #.G.g.5 # > , , , , , , , , , , , , 9 , 9 9 , 9 9 , , > , < , o . ~.~.~.~.~.~.~.",
"~.~.~.~.~.~.~.~.~.~.~.: p.U Z ( z.k.A H A.c.5 @ # < , , 9 , , , , , , 9 9 9 , 9 , 9 9 , , < < , , , ; . ~.~.~.~.~.~.~.~.",
"~.~.~.~.~.~.~.~.~.~.~.o 1 v b f f b #.Z.d.5 m * = , , , , 9 9 , , 9 , , , 9 , , , , , , , < , < < , o ~.~.~.~.~.~.~.~.~.",
"~.~.~.~.~.~.~.~.~.~.~.o N m 3 f Y i.i.D 3 o.7.* # < , , , , 9 9 9 9 , , < , ; , , < , , ; , , , ; o X ~.~.~.~.~.~.~.~.~.",
"~.~.~.~.~.~.~.~.~.~.~.o { w.4.l z i z m 6.t.-.$ ; , < , , , , , , , , , > , , , ; , ; , , , < ; .   ~.~.~.~.~.~.~.~.~.~.",
"~.~.~.~.~.~.~.~.~.~.~.. p } ;.9.e.,.,.,.r.1.{ o ; , , ; > , , , , , , , , , , < , < , ; < ; o .   ~.~.~.~.~.~.~.~.~.~.~.",
"~.~.~.~.~.~.~.~.~.~.~.. o k 8.w.<.9.q.5.5.5.k $ < ; , , > < , > , , < , , , , , ; , , ; o .   ~.~.~.~.~.~.~.~.~.~.~.~.~.",
"~.~.~.~.~.~.~.~.~.~.~.~.o h 3.5.<.<.0.9.8.;.h o ; , , < < , > > ; < , < , ; < ; ; + o . . ~.~.~.~.~.~.~.~.~.~.~.~.~.~.~.",
"~.~.~.~.~.~.~.~.~.~.~.~.X r  ...=.:.:.2.O.a $ . # < ; , ; ; ; ; # # + = # o o . X X   ~.~.~.~.~.~.~.~.~.~.~.~.~.~.~.~.~.",
"~.~.~.~.~.~.~.~.~.~.~.~.X * _ [ ] [ | ) $ + X X X o o o o o X o # ; ; > ; .   ~.~.~.~.~.~.~.~.~.~.~.~.~.~.~.~.~.~.~.~.~.",
"~.~.~.~.~.~.~.~.~.~.~.~.~.+ h [ ' _ ' u X @ , 4 > 9 9 ; o , ; < Z A A Z 9 , . ~.~.~.~.~.~.~.~.~.~.~.~.~.~.~.~.~.~.~.~.~.",
"~.~.~.~.~.~.~.~.~.~.~.~.~.. r _ ' _ j $ X o q C c A S > , K w ; J L L F Z q # X ~.~.~.~.~.~.~.~.~.~.~.~.~.~.~.~.~.~.~.~.",
"~.~.~.~.~.~.~.~.~.~.~.~.~.~.@ j ] ) & O . > w C c S C # S L w # F L J F Z w , . ~.~.~.~.~.~.~.~.~.~.~.~.~.~.~.~.~.~.~.~.",
"~.~.~.~.~.~.~.~.~.~.~.~.~.~.. a _ s + . o 4 w c Z Z ; , J F 9 # S L F S Z w 9 . ~.~.~.~.~.~.~.~.~.~.~.~.~.~.~.~.~.~.~.~.",
"~.~.~.~.~.~.~.~.~.~.~.~.~.~.X $ t # . . # q q C C w X q S Z 4 # S J F S Z w w # . ~.~.~.~.~.~.~.~.~.~.~.~.~.~.~.~.~.~.~.",
"~.~.~.~.~.~.~.~.~.~.~.~.~.~.~.. o o ~.. ; q w C w > ; w Z c , # A F S A c w w > . ~.~.~.~.~.~.~.~.~.~.~.~.~.~.~.~.~.~.~.",
"~.~.~.~.~.~.~.~.~.~.~.~.~.~.~.~.o ~.~.o , w w C w o , w C w , # Z A A Z Z w w > o ~.~.~.~.~.~.~.~.~.~.~.~.~.~.~.~.~.~.~.",
"~.~.~.~.~.~.~.~.~.~.~.~.~.~.~.~.~.~.~.X 4 q q w , # o o # , ; ; Z Z Z C Z w q , o ~.~.~.~.~.~.~.~.~.~.~.~.~.~.~.~.~.~.~.",
"~.~.~.~.~.~.~.~.~.~.~.~.~.~.~.~.~.~.~.X 9 q w 4 > R d.R S 4 o ; C C C C Z w q 4 o ~.~.~.~.~.~.~.~.~.~.~.~.~.~.~.~.~.~.~.",
"~.~.~.~.~.~.~.~.~.~.~.~.~.~.~.~.~.~.~.o , q e ; U A.K.U.Q.C.E ; w c C c w w q , # X ~.~.~.~.~.~.~.~.~.~.~.~.~.~.~.~.~.~.",
"~.~.~.~.~.~.~.~.~.~.~.~.~.~.~.~.~.~.. + , 9 q ; E F.P.I.U.K.f.# w w C c w w q , # X ~.~.~.~.~.~.~.~.~.~.~.~.~.~.~.~.~.~.",
"~.~.~.~.~.~.~.~.~.~.~.~.~.~.~.~.~.~.. = 9 4 9 < b B.G.L.P.F.p.; w c c w w q 9 , # . ~.~.~.~.~.~.~.~.~.~.~.~.~.~.~.~.~.~.",
"~.~.~.~.~.~.~.~.~.~.~.~.~.~.~.~.~.~.. @ > 4 9 , # #.N.S.D.g.v ; w w w w w q 9 > # o ~.~.~.~.~.~.~.~.~.~.~.~.~.~.~.~.~.~.",
"~.~.~.~.~.~.~.~.~.~.~.~.~.~.~.~.~.~.. # , 4 9 9 , # g Y U 5 ; 9 9 9 q q 9 9 4 > + X ~.~.~.~.~.~.~.~.~.~.~.~.~.~.~.~.~.~.",
"~.~.~.~.~.~.~.~.~.~.~.~.~.~.~.~.~.~.~.o ; < > , , ; ; o + - , , , 4 , , < > ; + o ~.~.~.~.~.~.~.~.~.~.~.~.~.~.~.~.~.~.~.",
"~.~.~.~.~.~.~.~.~.~.~.~.~.~.~.~.~.~.~.. o o o o . o @ o o = @ o o # o o X + + . o ~.~.~.~.~.~.~.~.~.~.~.~.~.~.~.~.~.~.~.",
"~.~.~.~.~.~.~.~.~.~.~.~.~.~.~.~.~.~.~.o ; > o o # # # # o . . . o > > 4 3 4 > . ~.~.~.~.~.~.~.~.~.~.~.~.~.~.~.~.~.~.~.~.",
"~.~.~.~.~.~.~.~.~.~.~.~.~.~.~.~.~.~.~.o # # o o # # $ # o o . # + # 4 3 3 4 # + ~.~.~.~.~.~.~.~.~.~.~.~.~.~.~.~.~.~.~.~.",
"~.~.~.~.~.~.~.~.~.~.~.~.~.~.~.~.~.~.~.~.. . . o o o o o o o o 6 3 o # # # # # . ~.~.~.~.~.~.~.~.~.~.~.~.~.~.~.~.~.~.~.~.",
"~.~.~.~.~.~.~.~.~.~.~.~.~.~.~.~.~.~.~.~.~.~.~.~.~.o . o . o o # o o . o . o . o ~.~.~.~.~.~.~.~.~.~.~.~.~.~.~.~.~.~.~.~.",
"~.~.~.~.~.~.~.~.~.~.~.~.~.~.~.~.~.~.~.~.~.~.~.~.~.~.~.~.~.~.. . ~.~.~.~.~.~.~.~.~.~.~.~.~.~.~.~.~.~.~.~.~.~.~.~.~.~.~.~.",
"~.~.~.~.~.~.~.~.~.~.~.~.~.~.~.~.~.~.~.~.~.~.~.~.~.~.~.~.~.~.~.~.~.~.~.~.~.~.~.~.~.~.~.~.~.~.~.~.~.~.~.~.~.~.~.~.~.~.~.~.",
"~.~.~.~.~.~.~.~.~.~.~.~.~.~.~.~.~.~.~.~.~.~.~.~.~.~.~.~.~.~.~.~.~.~.~.~.~.~.~.~.~.~.~.~.~.~.~.~.~.~.~.~.~.~.~.~.~.~.~.~.",
"~.~.~.~.~.~.~.~.~.~.~.~.~.~.~.~.~.~.~.~.~.~.~.~.~.~.~.~.~.~.~.~.~.~.~.~.~.~.~.~.~.~.~.~.~.~.~.~.~.~.~.~.~.~.~.~.~.~.~.~.",
"~.~.~.~.~.~.~.~.~.~.~.~.~.~.~.~.~.~.~.~.~.~.~.~.~.~.~.~.~.~.~.~.~.~.~.~.~.~.~.~.~.~.~.~.~.~.~.~.~.~.~.~.~.~.~.~.~.~.~.~."
};
