/* XPM */
static xpm_row_t const p1_left_4[] = {
/* columns rows colors chars-per-pixel */
"60 80 169 2 ",
"   c #161513",
".  c #181716",
"X  c #1A1917",
"o  c #171818",
"O  c #1C1B1A",
"+  c #211F1C",
"@  c #221C16",
"#  c #22211E",
"$  c #2B2218",
"%  c #2D2013",
"&  c #3B2A18",
"*  c #3B351E",
"=  c #1D1E27",
"-  c #211B22",
";  c #242423",
":  c #292725",
">  c #2B2925",
",  c #2B2B2B",
"<  c #272728",
"1  c #312D26",
"2  c #332F2C",
"3  c #333026",
"4  c #323129",
"5  c #3A342D",
"6  c #39352B",
"7  c #242233",
"8  c #333333",
"9  c #383634",
"0  c #3C3935",
"q  c #3B3B3B",
"w  c #33333A",
"e  c #442E18",
"r  c #4B3018",
"t  c #48381B",
"y  c #563917",
"u  c #683E17",
"i  c #443423",
"p  c #423A32",
"a  c #433F3B",
"s  c #6A4519",
"d  c #6A4917",
"f  c #7B4A19",
"g  c #71531A",
"h  c #74641C",
"j  c #4D4526",
"k  c #5C5227",
"l  c #4B4137",
"z  c #4C4339",
"x  c #53483E",
"c  c #6C5F25",
"v  c #625623",
"b  c #7B5029",
"n  c #282A45",
"m  c #2D324E",
"M  c #3F3F40",
"N  c #403F40",
"B  c #434343",
"V  c #484748",
"C  c #4C4B4B",
"Z  c #4C4844",
"A  c #5A4E41",
"S  c #504F4E",
"D  c #5E5144",
"F  c #504F50",
"G  c #535353",
"H  c #5A5A5A",
"J  c #575758",
"K  c #625345",
"L  c #6B5B4B",
"P  c #6F6050",
"I  c #756452",
"U  c #7B6B5B",
"Y  c #796855",
"T  c #515672",
"R  c #5E6279",
"E  c #626261",
"W  c #864D1A",
"Q  c #8A4E19",
"!  c #8E5318",
"~  c #825718",
"^  c #915418",
"/  c #975819",
"(  c #9C5C19",
")  c #946D19",
"_  c #9C7E1C",
"`  c #A4641A",
"'  c #B5731A",
"]  c #935823",
"[  c #807132",
"{  c #A16937",
"}  c #936B46",
"|  c #816E5A",
" . c #8B735E",
".. c #AC7A4C",
"X. c #A8774A",
"o. c #AB7D52",
"O. c #937B65",
"+. c #BF8417",
"@. c #BC9C1A",
"#. c #A6812A",
"$. c #B59A28",
"%. c #C48A16",
"&. c #CEA01F",
"*. c #D4AF1C",
"=. c #E2B81B",
"-. c #E3B715",
";. c #C38C28",
":. c #D29A30",
">. c #C2A72D",
",. c #D6A628",
"<. c #C0A83D",
"1. c #CBB034",
"2. c #DDB936",
"3. c #E4BB28",
"4. c #E5B825",
"5. c #E7BF3E",
"6. c #ECC41F",
"7. c #F2CC23",
"8. c #E8C639",
"9. c #F4CF36",
"0. c #F5D132",
"q. c #B48252",
"w. c #978269",
"e. c #9D856C",
"r. c #9D8165",
"t. c #A38769",
"y. c #BE8F61",
"u. c #A38A71",
"i. c #AE9378",
"p. c #B39377",
"a. c #C89B71",
"s. c #CDA176",
"d. c #7B7D8B",
"f. c #858584",
"g. c #8C8C8B",
"h. c #86878A",
"j. c #9E9D9C",
"k. c #BC9F81",
"l. c #A09F9F",
"z. c #BDA183",
"x. c #AAABB5",
"c. c #BFBDBD",
"v. c #B3B3B4",
"b. c #C6A787",
"n. c #C9AA8B",
"m. c #D2AB87",
"M. c #D1B08F",
"N. c #D8B089",
"B. c #DAB592",
"V. c #DCBA96",
"C. c #DAB895",
"Z. c #E3BD95",
"A. c #E2BD99",
"S. c #E7C39D",
"D. c #E8C29D",
"F. c #EBC7A2",
"G. c #EDC9A3",
"H. c #EFCDAC",
"J. c #F0CBA5",
"K. c #F0CBA8",
"L. c #EDD1BB",
"P. c #F3D4BB",
"I. c #C4C2C2",
"U. c #CDCDCE",
"Y. c #D6D6D6",
"T. c #D8D7D7",
"R. c #DCDBDB",
"E. c #E4E3E3",
"W. c #00b140",
/* pixels */
"W.W.W.W.W.W.W.W.W.W.W.W.W.W.W.W.W.W.W.W.W.W.W.W.W.W.W.W.W.W.W.W.W.W.W.W.W.W.W.W.W.W.W.W.W.W.W.W.W.W.W.W.W.W.W.W.W.W.W.W.",
"W.W.W.W.W.W.W.W.W.W.W.W.W.W.W.W.W.W.W.W.W.W.W.W.W.W.W.W.W.W.W.W.W.W.W.W.W.W.W.W.W.W.W.W.W.W.W.W.W.W.W.W.W.W.W.W.W.W.W.W.",
"W.W.W.W.W.W.W.W.W.W.W.W.W.W.W.W.W.W.W.W.W.W.W.W.W.W.W.W.W.W.W.W.W.W.W.W.W.W.W.W.W.W.W.W.W.W.W.W.W.W.W.W.W.W.W.W.W.W.W.W.",
"W.W.W.W.W.W.W.W.W.W.W.W.W.W.W.W.W.W.W.W.W.W.W.W.W.W.W.W.W.W.W.W.W.W.W.W.W.W.W.W.W.W.W.W.W.W.W.W.W.W.W.W.W.W.W.W.W.W.W.W.",
"W.W.W.W.W.W.W.W.W.W.W.W.W.W.W.W.W.W.W.W.W.W.W.W.W.W.W.W.W.W.W.W.W.W.W.W.W.W.W.W.W.W.W.W.W.W.W.W.W.W.W.W.W.W.W.W.W.W.W.W.",
"W.W.W.W.W.W.W.W.W.W.W.W.W.W.W.W.W.W.W.W.W.W.W.W.W.W.W.W.W.W.W.W.W.W.X X W.W.W.W.W.W.W.W.W.W.W.W.W.W.W.W.W.W.W.W.W.W.W.W.",
"W.W.W.W.W.W.W.W.W.W.W.W.W.W.W.W.W.W.W.W.W.W.W.W.W.W.W.W.W.W.X o O : 8 > X W.W.W.W.W.W.W.W.W.W.W.W.W.W.W.W.W.W.W.W.W.W.W.",
"W.W.W.W.W.W.W.W.W.W.W.W.W.W.W.W.W.W.W.W.W.W.W.W.X O + # : > 2 q C G H V ; X W.W.W.W.W.W.W.W.W.W.W.W.W.W.W.W.W.W.W.W.W.W.",
"W.W.W.W.W.W.W.W.W.W.W.W.W.W.W.W.W.W.W.W.W.O + ; 8 B C G G H H H H H H G Z 4 O W.W.W.W.W.W.W.W.W.W.W.W.W.W.W.W.W.W.W.W.W.",
"W.W.W.W.W.W.W.W.W.W.W.W.W.W.W.W.W.W.W.O + 8 B J H J H H H H H H G G G J H H q + X W.W.W.W.W.W.W.W.W.W.W.W.W.W.W.W.W.W.W.",
"W.W.W.W.W.W.W.W.W.W.W.W.W.W.W.W.W.O # 8 C H H H H H H H H H H H H H H H H H H C , O W.W.W.W.W.W.W.W.W.W.W.W.W.W.W.W.W.W.",
"W.W.W.W.W.W.W.W.W.W.W.W.W.W.W.W.O > V H H H H H H H E H H H H H H H J J J J J H J q # X W.W.W.W.W.W.W.W.W.W.W.W.W.W.W.W.",
"W.W.W.W.W.W.W.W.W.W.W.W.W.W.W.O 8 G H H H H H H H H H H H H H H H J G J J J J J J J Z # X W.W.W.W.W.W.W.W.W.W.W.W.W.W.W.",
"W.W.W.W.W.W.W.W.W.W.W.W.W.X # q H E H H H H H H H H H H J J J H J J J J J J J J H J H V : X W.W.W.W.W.W.W.W.W.W.W.W.W.W.",
"W.W.W.W.W.W.W.W.W.W.W.W.. ; B H H H H H H H H J H H J G J J G G G G G G G G G S G G J J C : X W.W.W.W.W.W.W.W.W.W.W.W.W.",
"W.W.W.W.W.W.W.W.W.W.W.X ; C H H H H H H E H H J G G H G G G G G G G G S G S S G F G S G J C # X W.W.W.W.W.W.W.W.W.W.W.W.",
"W.W.W.W.W.W.W.W.W.W.X ; V H H H H H H J J J G G G G G G G G G G F G G S G G G S C G C V C C 8 + W.W.W.W.W.W.W.W.W.W.W.W.",
"W.W.W.W.W.W.W.W.W.X # V H H H H J J G G G G J G G G G G G G G G G F F G G C C C G C V V C V q , O W.W.W.W.W.W.W.W.W.W.W.",
"W.W.W.W.W.W.W.W.W.+ M H H H J G G G G J J J G G G G C G G G F G F F G S C C G C V C C C C V M 8 : O W.W.W.W.W.W.W.W.W.W.",
"W.W.W.W.W.W.W.W.O 8 J H H G G J J G G G F S S S G G G G G G G C F G G C G C C C C C C V V V M 8 8 # X W.W.W.W.W.W.W.W.W.",
"W.W.W.W.W.W.W.W.; F H G G F G G G G S G F F F G G G S G G C S G F G S C C C S C V V V V V V M q 8 , O W.W.W.W.W.W.W.W.W.",
"W.W.W.W.W.W.W.X M H G S C G F F G S G S F F G S F G G C C S C C C C S C C C V V V V M M V M q 9 8 8 + o W.W.W.W.W.W.W.W.",
"W.W.W.W.W.W.W.; G J G S F G F F S S F F F S F S G S S C V C C C C C C C C V C V B M M B M q q q 9 w > O W.W.W.W.W.W.W.W.",
"W.W.W.W.W.W.X 9 G V B V B C F F F S S C C C C C C C C C C C C C C V V V V V B B B M V M q q q 9 q 9 , + W.W.W.W.W.W.W.W.",
"W.W.W.W.W.W.O B V q B q B V B V V V V V V V V V V V C C C C V C C V V V B B B M M V M q q M M 9 q q 8 ; X W.W.W.W.W.W.W.",
"W.W.W.W.W.W.O 8 q q q q B V V B M B B V V V V V V V V V V V B B V B B M M M M M z M q q M M q q q q 8 , O W.W.W.W.W.W.W.",
"W.W.W.W.W.W.O ; 8 B B V B q M B V V V V V V V V B B V M B M M M M B B M M V V q q M q M M q q q 8 q 8 2 # W.W.W.W.W.W.W.",
"W.W.W.W.W.W.X ; 4 q q q q q q q M M V M B B M M B M M M q M q M M B V V B M q q q q q M M q q q 8 w w 2 : X W.W.W.W.W.W.",
"W.W.W.W.W.W.W.X ; 8 9 q q q q q q q q M M M B B B B M M M B B M M B B M q q q M M M M M q q q q 9 w 8 8 ; O W.W.W.W.W.W.",
"W.W.W.W.W.W.W.W.O ; 8 w 9 w q q q q q q M B M M M B M M M B V M M M q M q M M M q M M q q q q q q q 8 8 > O W.W.W.W.W.W.",
"W.W.W.W.W.W.W.W.W.X ; , 8 8 9 q q q 8 q q q q q M M q q q q q q q q q q q M q M M M q q q q q 8 q 8 8 8 , O W.W.W.W.W.W.",
"W.W.W.W.W.W.W.W.W.X @ O ; , , 8 8 9 q q q 9 q q 9 q q q q q 9 q q q q q M M q M q q q q q q w 8 q q 8 2 , + O W.W.W.W.W.",
"W.W.W.W.W.W.W.W.W.O y r # + ; > , 8 8 8 8 q q q q q q q M q M q q q q q M M M q q q q q q q 8 q q 8 8 8 , # o W.W.W.W.W.",
"W.W.W.W.W.W.W.W.W.O r s % X : + # < 8 9 w 8 q q q q q q q q q q q M M M q q q 9 8 q q q q 8 q q 8 8 8 , , # o W.W.W.W.W.",
"W.W.W.W.W.W.W.W.W.W.X @ 6 Y w.Y 9 O # , 9 8 8 q q q q 9 q q q q q q q q q 8 8 9 q q q q 8 q q q 8 8 8 , , ; O W.W.W.W.W.",
"W.W.W.W.W.W.W.W.W.W.W.O w.C.S.Z.z.I , O , 8 8 8 9 w q q q q q q q q 9 9 8 q 8 q q q 8 8 q 8 8 8 8 8 8 , 4 # O W.W.W.W.W.",
"W.W.W.W.W.W.W.W.W.W.W.> b.D.J.Z.s.X.b e + , 4 8 q q 8 q q q q q q q 8 q q 8 8 q q 8 q q q q q 8 8 8 8 < , ; O W.W.W.W.W.",
"W.W.W.W.W.W.W.W.W.W.W.6 b.D.D...~ ] ] W & + , 8 8 q 8 8 w q 8 9 8 q 8 8 8 8 q 8 8 8 q 8 q 8 8 8 8 , , < , # O W.W.W.W.W.",
"W.W.W.W.W.W.W.W.W.W.W.5 M.D.o.{ q.m.N.a.} 3 ; , 8 8 q 8 8 8 9 w 8 8 8 q 8 8 8 q q q 8 q 8 8 8 8 8 , , < , # o W.W.W.W.W.",
"W.W.W.W.W.W.W.W.W.W.W.5 b.q...r.I x x L e.U O < 8 8 8 8 9 9 8 8 8 8 8 8 q q q 8 q 8 8 8 q 8 8 8 , < , < < # W.W.W.W.W.W.",
"W.W.W.W.W.W.W.W.W.W.W.i o.q.A < E g.f.E 8 u.z + 4 8 8 , 8 8 8 w q q 8 8 w 8 8 8 q 8 q 8 8 , 8 , , 2 , > > O W.W.W.W.W.W.",
"W.W.W.W.W.W.W.W.W.W.W.6 e.a = m d.E.T.I.G u.w.O , 8 , 8 8 8 8 8 8 8 8 8 , 8 w 8 8 8 8 4 8 8 , , , , < < ; O W.W.W.W.W.W.",
"W.W.W.W.W.W.W.W.W.W.W.# 5 w - n T T.T.I.H e.M., < , 8 , , , 8 8 4 8 8 8 8 8 8 , , 8 8 , , , , , 2 , < , ; X W.W.W.W.W.W.",
"W.W.W.W.W.W.W.W.W.W.W.X 9 d.7 n R R.T.c.C i.S.l = , , 8 8 8 8 , 8 , 8 4 8 , 8 8 8 , 8 , 8 , , 8 , < < < O W.W.W.W.W.W.W.",
"W.W.W.W.W.W.W.W.W.W.W.O : h.R T x.E.T.l.l B.G.x # , , , 8 8 , 8 , 8 8 8 , 8 8 , , , , 8 , , 8 < , < , ; O W.W.W.W.W.W.W.",
"W.W.W.W.W.W.W.W.W.W.W.: D Z v.U.R.R.c.C Y G.z.6 O < , , , , , 8 , , , < , < , , , 8 8 , 8 8 , < < < , # O W.W.W.W.W.W.W.",
"W.W.W.W.W.W.W.W.W.W.W.> e.x Z f.l.g.Z D V.z.6 X # , , , , 8 , , , , 8 8 8 8 8 8 8 8 , 8 < < < < , , ; o W.W.W.W.W.W.W.W.",
"W.W.W.W.W.W.W.W.W.W.W.+ 5 x z p 0 l | M.i.5 k * = < < , 8 , 2 , , , , , , , , , , , , , < < < < < < O W.W.W.W.W.W.W.W.W.",
"W.W.W.W.W.W.W.W.W.W.W.+ c v 1 p P e.e.D 4 h 1.* ; < < , , , 8 8 2 , , , , < < , < , , < < < < < ; O o W.W.W.W.W.W.W.W.W.",
"W.W.W.W.W.W.W.W.W.W.W.O ) 7.>.h j * t c <.9.@.# ; ; < , 2 , , , , 2 , , , , , < < < < < < , < ; O o W.W.W.W.W.W.W.W.W.W.",
"W.W.W.W.W.W.W.W.W.W.W.X y _ $.8.8.*.*.4.9.4.) + > > < , < , , , , , , , , , , < , < < < , : O X   W.W.W.W.W.W.W.W.W.W.W.",
"W.W.W.W.W.W.W.W.W.W.W.X . g 2.7.=.3.6.&.2.,.~ O ; , < < , < < < , , , , , < < < < < > ; + X . W.W.W.W.W.W.W.W.W.W.W.W.W.",
"W.W.W.W.W.W.W.W.W.W.W.W.. s :.4.-.-.4.4.8.;.d O < < < < < < < < < < , > > ; > ; : + O X . W.W.W.W.W.W.W.W.W.W.W.W.W.W.W.",
"W.W.W.W.W.W.W.W.W.W.W.W.o e ` ' %.%.%.;.#.y $ O ; < < < > > ; ; ; = # + = O O O X o   W.W.W.W.W.W.W.W.W.W.W.W.W.W.W.W.W.",
"W.W.W.W.W.W.W.W.W.W.W.W.X & ! / ) / ' f # X o X X # O O X O X O # ; ; < ; o   W.W.W.W.W.W.W.W.W.W.W.W.W.W.W.W.W.W.W.W.W.",
"W.W.W.W.W.W.W.W.W.W.W.W.W.+ s / ^ ! ^ y X X , , < , 2 < O , ; > B B V B 9 > X W.W.W.W.W.W.W.W.W.W.W.W.W.W.W.W.W.W.W.W.W.",
"W.W.W.W.W.W.W.W.W.W.W.W.W.o e ! ! ! f $ X + q M M V C < , G q ; G J G F B w # O W.W.W.W.W.W.W.W.W.W.W.W.W.W.W.W.W.W.W.W.",
"W.W.W.W.W.W.W.W.W.W.W.W.W.O + f ( W & o o > q M B C q # C J q ; G G G S B q < O W.W.W.W.W.W.W.W.W.W.W.W.W.W.W.W.W.W.W.W.",
"W.W.W.W.W.W.W.W.W.W.W.W.W.W.X y ! u # X O 2 q M B B ; > G C 8 # F G F C B M 8 O W.W.W.W.W.W.W.W.W.W.W.W.W.W.W.W.W.W.W.W.",
"W.W.W.W.W.W.W.W.W.W.W.W.W.W.X $ r $ X X + 8 q M B 8 # 8 C B , # C G F C M q 9 # X W.W.W.W.W.W.W.W.W.W.W.W.W.W.W.W.W.W.W.",
"W.W.W.W.W.W.W.W.W.W.W.W.W.W.W.O O O W.X < 9 q M M > ; M B M > ; V S C V M q q < X W.W.W.W.W.W.W.W.W.W.W.W.W.W.W.W.W.W.W.",
"W.W.W.W.W.W.W.W.W.W.W.W.W.W.W.W.O W.W.X , q q M 8 O < q M q > ; B V V M B q q , O W.W.W.W.W.W.W.W.W.W.W.W.W.W.W.W.W.W.W.",
"W.W.W.W.W.W.W.W.W.W.W.W.W.W.W.W.W.W.W.O , q q q > o # O < , ; < B B B M M q q , O W.W.W.W.W.W.W.W.W.W.W.W.W.W.W.W.W.W.W.",
"W.W.W.W.W.W.W.W.W.W.W.W.W.W.W.W.W.W.W.O 8 9 q , > w.u.U z > O > B B B M B M 9 , O W.W.W.W.W.W.W.W.W.W.W.W.W.W.W.W.W.W.W.",
"W.W.W.W.W.W.W.W.W.W.W.W.W.W.W.W.W.W.W.O 2 w q # I A.J.P.L.n.D < M B M M B q q , # O W.W.W.W.W.W.W.W.W.W.W.W.W.W.W.W.W.W.",
"W.W.W.W.W.W.W.W.W.W.W.W.W.W.W.W.W.W.X + , 8 9 #  .F.J.L.P.G.e.; q M M M q 9 9 , O o W.W.W.W.W.W.W.W.W.W.W.W.W.W.W.W.W.W.",
"W.W.W.W.W.W.W.W.W.W.W.W.W.W.W.W.W.W.X - , 8 w ; D B.G.H.G.Z. .; q M M M q q 8 , # O W.W.W.W.W.W.W.W.W.W.W.W.W.W.W.W.W.W.",
"W.W.W.W.W.W.W.W.W.W.W.W.W.W.W.W.W.W.X + , , 8 , :  .n.V.B.p.0 < q q q q q 8 8 , # O W.W.W.W.W.W.W.W.W.W.W.W.W.W.W.W.W.W.",
"W.W.W.W.W.W.W.W.W.W.W.W.W.W.W.W.W.W.X O , 2 2 2 < $ a L K 4 ; 8 8 8 w 8 8 8 8 < O X W.W.W.W.W.W.W.W.W.W.W.W.W.W.W.W.W.W.",
"W.W.W.W.W.W.W.W.W.W.W.W.W.W.W.W.W.W.O O ; < , , , : + O O ; , , 4 , 4 , , < # # O W.W.W.W.W.W.W.W.W.W.W.W.W.W.W.W.W.W.W.",
"W.W.W.W.W.W.W.W.W.W.W.W.W.W.W.W.W.W.W.X O O O O O + O + O = + + + + O O O O O X O W.W.W.W.W.W.W.W.W.W.W.W.W.W.W.W.W.W.W.",
"W.W.W.W.W.W.W.W.W.W.W.W.W.W.W.W.W.W.W.O > > O O # # # # O X X X + # > 4 4 4 > X W.W.W.W.W.W.W.W.W.W.W.W.W.W.W.W.W.W.W.W.",
"W.W.W.W.W.W.W.W.W.W.W.W.W.W.W.W.W.W.W.O # # X O # # # # # W.O + O # 3 6 4 4 # + W.W.W.W.W.W.W.W.W.W.W.W.W.W.W.W.W.W.W.W.",
"W.W.W.W.W.W.W.W.W.W.W.W.W.W.W.W.W.W.W.W.X O X O O O + O X O O 6 4 O # # # # # X W.W.W.W.W.W.W.W.W.W.W.W.W.W.W.W.W.W.W.W.",
"W.W.W.W.W.W.W.W.W.W.W.W.W.W.W.W.W.W.W.W.W.W.W.W.W.O X X O W.O # # X O X X O X O W.W.W.W.W.W.W.W.W.W.W.W.W.W.W.W.W.W.W.W.",
"W.W.W.W.W.W.W.W.W.W.W.W.W.W.W.W.W.W.W.W.W.W.W.W.W.W.W.W.W.W.X X X W.W.W.W.W.W.W.W.W.W.W.W.W.W.W.W.W.W.W.W.W.W.W.W.W.W.W.",
"W.W.W.W.W.W.W.W.W.W.W.W.W.W.W.W.W.W.W.W.W.W.W.W.W.W.W.W.W.W.W.W.W.W.W.W.W.W.W.W.W.W.W.W.W.W.W.W.W.W.W.W.W.W.W.W.W.W.W.W.",
"W.W.W.W.W.W.W.W.W.W.W.W.W.W.W.W.W.W.W.W.W.W.W.W.W.W.W.W.W.W.W.W.W.W.W.W.W.W.W.W.W.W.W.W.W.W.W.W.W.W.W.W.W.W.W.W.W.W.W.W.",
"W.W.W.W.W.W.W.W.W.W.W.W.W.W.W.W.W.W.W.W.W.W.W.W.W.W.W.W.W.W.W.W.W.W.W.W.W.W.W.W.W.W.W.W.W.W.W.W.W.W.W.W.W.W.W.W.W.W.W.W.",
"W.W.W.W.W.W.W.W.W.W.W.W.W.W.W.W.W.W.W.W.W.W.W.W.W.W.W.W.W.W.W.W.W.W.W.W.W.W.W.W.W.W.W.W.W.W.W.W.W.W.W.W.W.W.W.W.W.W.W.W."
};
