/* XPM */
static xpm_row_t const p1_left_5[] = {
/* columns rows colors chars-per-pixel */
"60 80 164 2 ",
"   c #141412",
".  c #181715",
"X  c #1A1917",
"o  c #1C1C1A",
"O  c #171718",
"+  c #211F1C",
"@  c #22211E",
"#  c #2F2617",
"$  c #322518",
"%  c #372818",
"&  c #3C2C18",
"*  c #342717",
"=  c #3D371D",
"-  c #1F1F21",
";  c #252423",
":  c #282727",
">  c #2B2A25",
",  c #2B2B2B",
"<  c #232029",
"1  c #332D26",
"2  c #352E29",
"3  c #3B3623",
"4  c #33322B",
"5  c #3B342C",
"6  c #252232",
"7  c #232638",
"8  c #333333",
"9  c #3C3933",
"0  c #3B3B3B",
"q  c #483218",
"w  c #443718",
"e  c #5D3918",
"r  c #583716",
"t  c #473422",
"y  c #443D34",
"u  c #403E3C",
"i  c #4C431F",
"p  c #554018",
"a  c #6A4419",
"s  c #6B4017",
"d  c #774518",
"f  c #6C571B",
"g  c #5C5223",
"h  c #494037",
"j  c #41403D",
"k  c #51453A",
"l  c #564A3E",
"z  c #655927",
"x  c #776930",
"c  c #383646",
"v  c #363C5D",
"b  c #383E60",
"n  c #403F40",
"m  c #434343",
"M  c #484748",
"N  c #4C4B4B",
"B  c #5B4E42",
"V  c #5E5044",
"C  c #50504F",
"Z  c #504F50",
"A  c #535353",
"S  c #585758",
"D  c #5A5A5A",
"F  c #585756",
"G  c #6C5D4D",
"H  c #655749",
"J  c #766553",
"K  c #7F6C59",
"L  c #776757",
"P  c #4F5369",
"I  c #6B6A6A",
"U  c #7F736A",
"Y  c #6A6D7E",
"T  c #76767A",
"R  c #8A4F19",
"E  c #8D521A",
"W  c #935519",
"Q  c #9A5A19",
"!  c #976619",
"~  c #A26219",
"^  c #BA781C",
"/  c #9D6738",
"(  c #A36D3A",
")  c #896441",
"_  c #826E5A",
"`  c #876D54",
"'  c #85715D",
"]  c #88745F",
"[  c #93775B",
"{  c #A77140",
"}  c #8F7963",
"|  c #857567",
" . c #947E67",
".. c #807F7F",
"X. c #A38017",
"o. c #BA971B",
"O. c #BB9E22",
"+. c #A59137",
"@. c #BDA229",
"#. c #C78D17",
"$. c #D09E14",
"%. c #D5A81D",
"&. c #E4BA1A",
"*. c #CE952D",
"=. c #C39E31",
"-. c #C8AA28",
";. c #D3A525",
":. c #CFB02C",
">. c #D5A735",
",. c #D7B437",
"<. c #E3B826",
"1. c #E9BE36",
"2. c #EDC31D",
"3. c #EAC626",
"4. c #F5CE28",
"5. c #F4D038",
"6. c #B4865B",
"7. c #9A846B",
"8. c #9E8367",
"9. c #A0886F",
"0. c #A0866A",
"q. c #BF8E60",
"w. c #A68B71",
"e. c #B9987B",
"r. c #B8977A",
"t. c #DBBD41",
"y. c #C7986C",
"u. c #C9A077",
"i. c #D1A67B",
"p. c #6C7087",
"a. c #828181",
"s. c #908F8E",
"d. c #939292",
"f. c #B89E80",
"g. c #BDA082",
"h. c #A0A0A1",
"j. c #ACADB5",
"k. c #B4B3B3",
"l. c #B2B2BA",
"z. c #C8A989",
"x. c #D6AD84",
"c. c #D4B08E",
"v. c #DFBC99",
"b. c #D8B492",
"n. c #E1BE99",
"m. c #E2BB93",
"M. c #E7C39E",
"N. c #E8C39E",
"B. c #ECC7A1",
"V. c #EEC9A3",
"C. c #EFCCAC",
"Z. c #F6CFA8",
"A. c #EFCEB1",
"S. c #F3D3B8",
"D. c #BABBC0",
"F. c #C8C7C7",
"G. c #CCCCCD",
"H. c #C6C5C5",
"J. c #D4D4D5",
"K. c #D8D7D8",
"L. c #DEDDDD",
"P. c #F8DDC8",
"I. c #E1E0E0",
"U. c #00b140",
/* pixels */
"U.U.U.U.U.U.U.U.U.U.U.U.U.U.U.U.U.U.U.U.U.U.U.U.U.U.U.U.U.U.U.U.U.U.U.U.U.U.U.U.U.U.U.U.U.U.U.U.U.U.U.U.U.U.U.U.U.U.U.U.",
"U.U.U.U.U.U.U.U.U.U.U.U.U.U.U.U.U.U.U.U.U.U.U.U.U.U.U.U.U.U.U.U.U.U.U.U.U.U.U.U.U.U.U.U.U.U.U.U.U.U.U.U.U.U.U.U.U.U.U.U.",
"U.U.U.U.U.U.U.U.U.U.U.U.U.U.U.U.U.U.U.U.U.U.U.U.U.U.U.U.U.U.U.U.U.U.U.U.U.U.U.U.U.U.U.U.U.U.U.U.U.U.U.U.U.U.U.U.U.U.U.U.",
"U.U.U.U.U.U.U.U.U.U.U.U.U.U.U.U.U.U.U.U.U.U.U.U.U.U.U.U.U.U.U.U.U.U.U.U.U.U.U.U.U.U.U.U.U.U.U.U.U.U.U.U.U.U.U.U.U.U.U.U.",
"U.U.U.U.U.U.U.U.U.U.U.U.U.U.U.U.U.U.U.U.U.U.U.U.U.U.U.U.U.U.U.U.U.U.U.U.U.U.U.U.U.U.U.U.U.U.U.U.U.U.U.U.U.U.U.U.U.U.U.U.",
"U.U.U.U.U.U.U.U.U.U.U.U.U.U.U.U.U.U.U.U.U.U.U.U.U.U.U.U.U.U.U.U.U.U.X o o U.U.U.U.U.U.U.U.U.U.U.U.U.U.U.U.U.U.U.U.U.U.U.",
"U.U.U.U.U.U.U.U.U.U.U.U.U.U.U.U.U.U.U.U.U.U.U.U.U.U.X X X X o o @ , 0 N 0 o X U.U.U.U.U.U.U.U.U.U.U.U.U.U.U.U.U.U.U.U.U.",
"U.U.U.U.U.U.U.U.U.U.U.U.U.U.U.U.U.U.U.U.U.U.U.X o @ , 8 0 j m M A F D D C 8 o X U.U.U.U.U.U.U.U.U.U.U.U.U.U.U.U.U.U.U.U.",
"U.U.U.U.U.U.U.U.U.U.U.U.U.U.U.U.U.U.U.U.X o @ 8 M A D D D D D D D S A S S A m ; X U.U.U.U.U.U.U.U.U.U.U.U.U.U.U.U.U.U.U.",
"U.U.U.U.U.U.U.U.U.U.U.U.U.U.U.U.U.U.U.+ > 0 A D D D D D D D D D F F A A S D D C , X U.U.U.U.U.U.U.U.U.U.U.U.U.U.U.U.U.U.",
"U.U.U.U.U.U.U.U.U.U.U.U.U.U.U.U.U.o ; j A D D D D D D D D D D D D D D D D S D D S 0 @ X U.U.U.U.U.U.U.U.U.U.U.U.U.U.U.U.",
"U.U.U.U.U.U.U.U.U.U.U.U.U.U.U.U.X , N D D D D D D D D D D D D D D D D S S S S A S S M > X U.U.U.U.U.U.U.U.U.U.U.U.U.U.U.",
"U.U.U.U.U.U.U.U.U.U.U.U.U.U.X o 8 A D D D D D D D D D D D S D S D D D A F S D D D F S C , X U.U.U.U.U.U.U.U.U.U.U.U.U.U.",
"U.U.U.U.U.U.U.U.U.U.U.U.U.X @ 0 D D D D D D D D D S S D S D S S S A A A D A A A A F S D C , X U.U.U.U.U.U.U.U.U.U.U.U.U.",
"U.U.U.U.U.U.U.U.U.U.U.U.X @ m D D D D D D D D D D S D A A S A A A A A A A A C C A C A A S A , X U.U.U.U.U.U.U.U.U.U.U.U.",
"U.U.U.U.U.U.U.U.U.U.U.X ; M D D D D D D D D S A A A A A A A A A A A A A Z A C A A A C C A A C ; X U.U.U.U.U.U.U.U.U.U.U.",
"U.U.U.U.U.U.U.U.U.U.X @ m D D D D S S A A A A A A A A A A A A A A Z Z A Z A Z C C C A M M M N 8 o U.U.U.U.U.U.U.U.U.U.U.",
"U.U.U.U.U.U.U.U.U.U.o m D D D A A A A A A D D A P A A A A A C A A C A Z A A N N C C M M M N M 0 , o U.U.U.U.U.U.U.U.U.U.",
"U.U.U.U.U.U.U.U.U.o 8 D D F F F S S A A A A A Z Z C C A A A C A C Z Z A C N N N N M C N C M M n 8 ; o U.U.U.U.U.U.U.U.U.",
"U.U.U.U.U.U.U.U.X : F D F A Z A A Z A A A Z C C A C A C A C C C Z A A Z Z N N N N N M M M M M 0 8 8 @ U.U.U.U.U.U.U.U.U.",
"U.U.U.U.U.U.U.U.o m D A N N Z A Z C A C A C C C C A C A C C N N C N N N N N C N N M M M m M M 0 0 8 : X U.U.U.U.U.U.U.U.",
"U.U.U.U.U.U.U.X , F F Z Z C A Z Z A C A Z A C A C C A C C N N N N N N C N N N N M M m n m m 0 0 0 8 8 o U.U.U.U.U.U.U.U.",
"U.U.U.U.U.U.U.o m Z M M M M A Z Z A C N N C N N N C C N M M N N N N N N M M N N m m n n M 0 0 0 0 8 8 ; o U.U.U.U.U.U.U.",
"U.U.U.U.U.U.U.+ N m n n n m m m M N M M N N M M M M N N N N N N M N M N N M m m m n m m m 0 0 0 8 0 0 , o U.U.U.U.U.U.U.",
"U.U.U.U.U.U.U.+ 0 0 0 0 0 m N M m n n M M M M M M M M N N N N N M M N M n n n n 0 M M 0 0 0 0 0 0 0 0 , ; X U.U.U.U.U.U.",
"U.U.U.U.U.U.U.o , 0 j c m n m m M M m M M N M M M m M m m m m n n n n n n n m m m m 0 0 0 m 0 0 0 8 0 8 ; o U.U.U.U.U.U.",
"U.U.U.U.U.U.U.X : 8 j 0 0 0 0 0 n n m M m m m m m m n n n n 0 0 n n M M m m m n 0 0 0 0 0 m 0 0 0 8 0 8 , o U.U.U.U.U.U.",
"U.U.U.U.U.U.U.U.o , 8 0 0 0 0 0 0 0 n n m n n m m m m 0 0 n n m n m M n m n 0 0 0 0 m 0 n 0 0 0 0 0 0 8 , @ U.U.U.U.U.U.",
"U.U.U.U.U.U.U.U.X + > 8 0 0 0 0 0 0 n n n n n n n m m m n m m m m m n n 0 0 0 0 0 n n j 0 n 0 0 8 8 0 8 4 - O U.U.U.U.U.",
"U.U.U.U.U.U.U.U.U.X o ; , 8 8 8 0 0 8 8 0 0 n 0 n n 0 0 0 0 n n 0 0 0 0 n n n n n n n 0 0 0 0 0 8 0 0 8 , ; o U.U.U.U.U.",
"U.U.U.U.U.U.U.U.U.U.X + @ , , 8 8 8 0 0 0 0 0 0 0 0 0 0 0 0 0 0 0 0 0 0 0 n 0 n n 0 0 0 0 0 c 8 0 8 0 8 4 ; o U.U.U.U.U.",
"U.U.U.U.U.U.U.U.U.U.# e * o ; , , 8 8 8 8 0 0 0 0 0 0 0 0 0 0 0 0 0 0 n 0 0 n 0 0 0 0 n 0 0 0 8 8 0 0 4 , : o U.U.U.U.U.",
"U.U.U.U.U.U.U.U.U.U.@ s r X o @ - : 4 8 8 8 0 0 0 n 0 0 0 0 n 0 0 0 0 0 n n 0 0 0 0 0 0 0 0 8 0 0 0 8 8 8 ; O U.U.U.U.U.",
"U.U.U.U.U.U.U.U.U.U.  + @ h L L y - o , 8 0 8 0 0 8 0 8 8 0 0 0 0 n 0 0 0 0 0 0 8 0 0 0 0 8 0 8 8 8 8 , 4 : o U.U.U.U.U.",
"U.U.U.U.U.U.U.U.U.U.U.  y e.v.n.g.' 5 - : 8 8 8 8 0 0 0 n 0 0 0 0 0 0 0 0 8 8 8 0 0 0 0 8 8 0 0 8 8 8 8 , , @ U.U.U.U.U.",
"U.U.U.U.U.U.U.U.U.U.U.  G M.V.V.m.u.) t + ; , 8 8 0 0 0 0 0 0 0 0 0 8 0 0 0 8 8 0 8 0 8 0 0 8 0 8 8 8 , , , + U.U.U.U.U.",
"U.U.U.U.U.U.U.U.U.U.U.X K v.B.x./ W E R r + , 8 8 8 8 0 0 0 8 0 0 0 0 0 8 8 8 0 8 0 8 8 8 0 0 8 0 8 8 , , , o U.U.U.U.U.",
"U.U.U.U.U.U.U.U.U.U.U.X ' B.x.( / q.i.y.( = o , 8 8 0 8 8 8 0 8 8 8 8 8 8 8 0 8 0 8 0 0 0 0 8 8 8 , , , , ; ; U.U.U.U.U.",
"U.U.U.U.U.U.U.U.U.U.U.o } x.{ 6.8.K J ' w.7., - , 8 8 8 0 8 8 8 8 8 8 8 0 8 8 0 0 0 0 8 8 8 8 8 , , , , , ; O U.U.U.U.U.",
"U.U.U.U.U.U.U.U.U.U.U.+ ) 6.[ y 8 D I C 8 K J o , 8 8 8 8 8 8 8 0 8 8 0 8 8 0 8 8 8 8 0 8 0 8 8 8 , , , ; ; O U.U.U.U.U.",
"U.U.U.U.U.U.U.U.U.U.U.+ ` _ ; 7 P G.L.H...V g.> ; 4 8 8 , 8 8 8 8 8 0 8 8 8 8 8 8 8 0 8 8 , 8 8 , , , : , @ o U.U.U.U.U.",
"U.U.U.U.U.U.U.U.U.U.U.o 9 4 : 6 b j.I.G.s.B n.l ; , , 8 8 8 8 8 8 8 8 8 8 8 8 8 8 8 , 8 8 8 , , , , , , , o U.U.U.U.U.U.",
"U.U.U.U.U.U.U.U.U.U.U.X o T c 6 v l.I.G.a.H V.K - , , 8 , 8 , , 8 8 , 8 , 8 8 8 , 8 8 , , , , 7 8 , : : ; o U.U.U.U.U.U.",
"U.U.U.U.U.U.U.U.U.U.U.o o I Y b p.K.L.F.S ] Z.7.o : , 7 8 , 8 8 , , 8 , 8 8 , 8 8 , 8 , , 4 , 8 , : : , @ X U.U.U.U.U.U.",
"U.U.U.U.U.U.U.U.U.U.U.X k u h.D.J.I.J.d.y c.V.K o : , , , 8 , 8 8 , 8 8 , , , , 7 , , 8 , , , , , , : : o U.U.U.U.U.U.U.",
"U.U.U.U.U.U.U.U.U.U.U.o _ J j s.l.j.7.0 7.M.] @ o : : , , , , , , , , , , 8 , , 8 4 8 , 8 8 , , : : , ; o U.U.U.U.U.U.U.",
"U.U.U.U.U.U.U.U.U.U.U.X 1 V l 5 0 9 j 7.v.' 1 = o , , , 8 8 , , , , , , 8 , 8 8 4 , 8 , , ; , ; : , : o U.U.U.U.U.U.U.U.",
"U.U.U.U.U.U.U.U.U.U.U.X i g 1 u G 7.g.9.k = +.z o : , , , , 8 , 8 , , , , , , , , , , , , , ; , : : - O U.U.U.U.U.U.U.U.",
"U.U.U.U.U.U.U.U.U.U.U.O f &.@.z t 3 4 = x ,.2.w @ : > , , , 8 8 , 8 , , , , , : : , , : : : , , ; o O U.U.U.U.U.U.U.U.U.",
"U.U.U.U.U.U.U.U.U.U.U.o q ^ @.:.t.o.o.:.5.4.o.# ; : : : , , , , , , , , , , : , : : : : : , : ; o O U.U.U.U.U.U.U.U.U.U.",
"U.U.U.U.U.U.U.U.U.U.U.U.X p @.3.2.<.&.%.;.<.! @ : : : , ; , , , , , , , , , , : : : : , : ; o X . U.U.U.U.U.U.U.U.U.U.U.",
"U.U.U.U.U.U.U.U.U.U.U.U.O q *.5.&.&.3.<.,.>.! @ ; : : : , : : : : , , : : : : , , : : - @ O . U.U.U.U.U.U.U.U.U.U.U.U.U.",
"U.U.U.U.U.U.U.U.U.U.U.U.X % ~ ^ #.$.#.;.,.! q X ; : : : : : : , : : : : : ; ; @ - o o X . U.U.U.U.U.U.U.U.U.U.U.U.U.U.U.",
"U.U.U.U.U.U.U.U.U.U.U.U.U.$ E Q ~ ! ^ ~ q o X O o - ; @ - - o + o o - o o X O O O   U.U.U.U.U.U.U.U.U.U.U.U.U.U.U.U.U.U.",
"U.U.U.U.U.U.U.U.U.U.U.U.U.@ a Q W E W a O O @ ; - - @ - o O o + , 8 8 8 , @ . U.U.U.U.U.U.U.U.U.U.U.U.U.U.U.U.U.U.U.U.U.",
"U.U.U.U.U.U.U.U.U.U.U.U.U.O & W W W E & X o , n 0 n m m ; 4 0 - n C C N n 8 o U.U.U.U.U.U.U.U.U.U.U.U.U.U.U.U.U.U.U.U.U.",
"U.U.U.U.U.U.U.U.U.U.U.U.U.U.@ d Q R q o X @ 8 m m C S m @ M A : 8 D A C m 0 : X U.U.U.U.U.U.U.U.U.U.U.U.U.U.U.U.U.U.U.U.",
"U.U.U.U.U.U.U.U.U.U.U.U.U.U.o e W d @ X o : 0 n j m A 8 , A A , , A C C M 0 8 O U.U.U.U.U.U.U.U.U.U.U.U.U.U.U.U.U.U.U.U.",
"U.U.U.U.U.U.U.U.U.U.U.U.U.U.X # e * o U.o 4 0 n n m m ; 4 A m 4 - N C C M 0 8 @ X U.U.U.U.U.U.U.U.U.U.U.U.U.U.U.U.U.U.U.",
"U.U.U.U.U.U.U.U.U.U.U.U.U.U.U.X o o U.X @ 8 0 n 0 N n o 8 N m 8 o M C M j 0 0 ; X U.U.U.U.U.U.U.U.U.U.U.U.U.U.U.U.U.U.U.",
"U.U.U.U.U.U.U.U.U.U.U.U.U.U.U.U.o U.U.o : 8 0 n n m 0 o 8 m j 8 o 0 N m n 0 n : o U.U.U.U.U.U.U.U.U.U.U.U.U.U.U.U.U.U.U.",
"U.U.U.U.U.U.U.U.U.U.U.U.U.U.U.U.U.U.U.o , 0 0 0 n n 4 - 8 0 0 8 o 8 m m n 0 0 , o U.U.U.U.U.U.U.U.U.U.U.U.U.U.U.U.U.U.U.",
"U.U.U.U.U.U.U.U.U.U.U.U.U.U.U.U.U.U.U.o 4 0 0 0 j j : O + - o - o , m n n 0 0 , o U.U.U.U.U.U.U.U.U.U.U.U.U.U.U.U.U.U.U.",
"U.U.U.U.U.U.U.U.U.U.U.U.U.U.U.U.U.U.U.o , 8 0 0 0 0 ; B ] U U L h ; 0 n n 0 0 4 @ X U.U.U.U.U.U.U.U.U.U.U.U.U.U.U.U.U.U.",
"U.U.U.U.U.U.U.U.U.U.U.U.U.U.U.U.U.U.U.+ , 8 0 0 0 4 5 z.V.S.P.A.g.> 8 m n 0 0 , ; X U.U.U.U.U.U.U.U.U.U.U.U.U.U.U.U.U.U.",
"U.U.U.U.U.U.U.U.U.U.U.U.U.U.U.U.U.U.U.o , 8 0 0 0 , k b.V.A.S.V.c.y , m 0 0 8 , @ X U.U.U.U.U.U.U.U.U.U.U.U.U.U.U.U.U.U.",
"U.U.U.U.U.U.U.U.U.U.U.U.U.U.U.U.U.U.o o , , 8 0 c , 4 e.B.V.V.N.e.1 4 0 8 8 8 , @ o U.U.U.U.U.U.U.U.U.U.U.U.U.U.U.U.U.U.",
"U.U.U.U.U.U.U.U.U.U.U.U.U.U.U.U.U.U.o o , 8 , 8 9 8 @ l r.c.c.r.V - 8 0 0 8 8 , @ X U.U.U.U.U.U.U.U.U.U.U.U.U.U.U.U.U.U.",
"U.U.U.U.U.U.U.U.U.U.U.U.U.U.U.U.U.U.X o , , , 8 8 8 , - 2 k k 2 @ , 8 8 8 4 , > o X U.U.U.U.U.U.U.U.U.U.U.U.U.U.U.U.U.U.",
"U.U.U.U.U.U.U.U.U.U.U.U.U.U.U.U.U.U.U.o o @ @ ; ; ; ; ; + X X + > @ ; ; ; - @ o o U.U.U.U.U.U.U.U.U.U.U.U.U.U.U.U.U.U.U.",
"U.U.U.U.U.U.U.U.U.U.U.U.U.U.U.U.U.U.U.U.X X X X . o o o o o o o @ + @ @ @ @ X U.U.U.U.U.U.U.U.U.U.U.U.U.U.U.U.U.U.U.U.U.",
"U.U.U.U.U.U.U.U.U.U.U.U.U.U.U.U.U.U.U.U.U.o > ; X + # ; @ o o o @ 4 4 4 4 ; o U.U.U.U.U.U.U.U.U.U.U.U.U.U.U.U.U.U.U.U.U.",
"U.U.U.U.U.U.U.U.U.U.U.U.U.U.U.U.U.U.U.U.U.X @ @ X o @ @ o @ 5 > o > 1 1 > @ o U.U.U.U.U.U.U.U.U.U.U.U.U.U.U.U.U.U.U.U.U.",
"U.U.U.U.U.U.U.U.U.U.U.U.U.U.U.U.U.U.U.U.U.+ o o X o X o X + @ @ o o o @ @ + o U.U.U.U.U.U.U.U.U.U.U.U.U.U.U.U.U.U.U.U.U.",
"U.U.U.U.U.U.U.U.U.U.U.U.U.U.U.U.U.U.U.U.U.U.U.U.U.U.U.U.U.o X o o X X o X o U.U.U.U.U.U.U.U.U.U.U.U.U.U.U.U.U.U.U.U.U.U.",
"U.U.U.U.U.U.U.U.U.U.U.U.U.U.U.U.U.U.U.U.U.U.U.U.U.U.U.U.U.U.U.U.U.U.U.U.U.U.U.U.U.U.U.U.U.U.U.U.U.U.U.U.U.U.U.U.U.U.U.U.",
"U.U.U.U.U.U.U.U.U.U.U.U.U.U.U.U.U.U.U.U.U.U.U.U.U.U.U.U.U.U.U.U.U.U.U.U.U.U.U.U.U.U.U.U.U.U.U.U.U.U.U.U.U.U.U.U.U.U.U.U.",
"U.U.U.U.U.U.U.U.U.U.U.U.U.U.U.U.U.U.U.U.U.U.U.U.U.U.U.U.U.U.U.U.U.U.U.U.U.U.U.U.U.U.U.U.U.U.U.U.U.U.U.U.U.U.U.U.U.U.U.U.",
"U.U.U.U.U.U.U.U.U.U.U.U.U.U.U.U.U.U.U.U.U.U.U.U.U.U.U.U.U.U.U.U.U.U.U.U.U.U.U.U.U.U.U.U.U.U.U.U.U.U.U.U.U.U.U.U.U.U.U.U.",
"U.U.U.U.U.U.U.U.U.U.U.U.U.U.U.U.U.U.U.U.U.U.U.U.U.U.U.U.U.U.U.U.U.U.U.U.U.U.U.U.U.U.U.U.U.U.U.U.U.U.U.U.U.U.U.U.U.U.U.U."
};
