/* XPM */
static xpm_row_t const p1_left_7[] = {
/* columns rows colors chars-per-pixel */
"60 80 178 2 ",
"   c #666666",
".  c #151513",
"X  c #1A1917",
"o  c #1C1C1A",
"O  c #171717",
"+  c #211F1C",
"@  c #201A14",
"#  c #2D2217",
"$  c #22211E",
"%  c #2C2318",
"&  c #262317",
"*  c #3A2E17",
"=  c #332618",
"-  c #382718",
";  c #3C2C18",
":  c #362918",
">  c #1E1F23",
",  c #221C24",
"<  c #242423",
"1  c #292723",
"2  c #2A2926",
"3  c #2B2B2B",
"4  c #282728",
"5  c #312D26",
"6  c #332F2B",
"7  c #3B3224",
"8  c #32312C",
"9  c #3C352D",
"0  c #38382E",
"q  c #2A2937",
"w  c #343333",
"e  c #3D3833",
"r  c #3C3B3C",
"t  c #393734",
"y  c #442D18",
"u  c #4E3316",
"i  c #433C1D",
"p  c #473C16",
"a  c #573819",
"s  c #603B15",
"d  c #453A25",
"f  c #443C33",
"g  c #423F3B",
"h  c #5B451A",
"j  c #654119",
"k  c #67451A",
"l  c #744518",
"z  c #62551C",
"x  c #574D23",
"c  c #5F5524",
"v  c #42413F",
"b  c #4E4439",
"n  c #484137",
"m  c #54493D",
"M  c #784B23",
"N  c #655A2A",
"B  c #6A5D23",
"V  c #7C6E33",
"C  c #272942",
"Z  c #2C314C",
"A  c #403F40",
"S  c #434343",
"D  c #484748",
"F  c #4C4B4B",
"G  c #504F4F",
"H  c #5E5144",
"J  c #504F50",
"K  c #535353",
"L  c #585758",
"P  c #5A5A5A",
"I  c #625446",
"U  c #6B5B4B",
"Y  c #675847",
"T  c #705E4E",
"R  c #7A6755",
"E  c #736352",
"W  c #484E6C",
"Q  c #5F5F60",
"!  c #505671",
"~  c #5F6378",
"^  c #626160",
"/  c #7A7979",
"(  c #894E19",
")  c #854E19",
"_  c #8D5218",
"`  c #8D5B19",
"'  c #925418",
"]  c #9C5C19",
"[  c #88751F",
"{  c #967215",
"}  c #AB6D18",
"|  c #BB7C1A",
" . c #B5771C",
".. c #895120",
"X. c #935925",
"o. c #9A602C",
"O. c #9D6A3C",
"+. c #AD7320",
"@. c #A36C3A",
"#. c #816B57",
"$. c #88745F",
"%. c #9E7854",
"&. c #AB7A4D",
"*. c #AC7F53",
"=. c #8B7661",
"-. c #8C7862",
";. c #927B65",
":. c #9B7F67",
">. c #BF8A19",
",. c #AE802A",
"<. c #B08A29",
"1. c #B59A28",
"2. c #BEA538",
"3. c #C38917",
"4. c #C7981D",
"5. c #DCB41B",
"6. c #DDB117",
"7. c #E3B91F",
"8. c #E2B619",
"9. c #C9AB28",
"0. c #DAAF24",
"q. c #D7B62A",
"w. c #D9A936",
"e. c #DEB333",
"r. c #E4BB25",
"t. c #E5B938",
"y. c #F1CA1A",
"u. c #EDC62F",
"i. c #F0C924",
"p. c #E7C533",
"a. c #F4D135",
"s. c #AE865E",
"d. c #B48252",
"f. c #9A8269",
"g. c #918276",
"h. c #A5896D",
"j. c #A58D72",
"k. c #A88B71",
"l. c #AE9378",
"z. c #B1977B",
"x. c #B99C7F",
"c. c #C5976B",
"v. c #C89E76",
"b. c #EECD40",
"n. c #787A88",
"m. c #878787",
"M. c #969595",
"N. c #9B9A9A",
"B. c #989AA7",
"V. c #A9A9AA",
"C. c #CAAA8A",
"Z. c #C2A385",
"A. c #D2AE89",
"S. c #D5B18D",
"D. c #CAB29E",
"F. c #D6B593",
"G. c #D9B593",
"H. c #DDBA96",
"J. c #D6B698",
"K. c #E3BD94",
"L. c #E3BE9A",
"P. c #E8C39E",
"I. c #E7C49E",
"U. c #EDC7A2",
"Y. c #EECAA5",
"T. c #EFCCAA",
"R. c #F2CCA5",
"E. c #F1CEAE",
"W. c #F0CFB1",
"Q. c #F0D1B7",
"!. c #C5C4C4",
"~. c #C7C7CA",
"^. c #CFCFD1",
"/. c #DAD9D9",
"(. c #D6D5D6",
"). c #F7DCC8",
"_. c #E3E2E2",
"`. c #00b140",
/* pixels */
"`.`.`.`.`.`.`.`.`.`.`.`.`.`.`.`.`.`.`.`.`.`.`.`.`.`.`.`.`.`.`.`.`.`.`.`.`.`.`.`.`.`.`.`.`.`.`.`.`.`.`.`.`.`.`.`.`.`.`.`.",
"`.`.`.`.`.`.`.`.`.`.`.`.`.`.`.`.`.`.`.`.`.`.`.`.`.`.`.`.`.`.`.`.`.`.`.`.`.`.`.`.`.`.`.`.`.`.`.`.`.`.`.`.`.`.`.`.`.`.`.`.",
"`.`.`.`.`.`.`.`.`.`.`.`.`.`.`.`.`.`.`.`.`.`.`.`.`.`.`.`.`.`.`.`.`.`.`.`.`.`.`.`.`.`.`.`.`.`.`.`.`.`.`.`.`.`.`.`.`.`.`.`.",
"`.`.`.`.`.`.`.`.`.`.`.`.`.`.`.`.`.`.`.`.`.`.`.`.`.`.`.`.`.`.`.`.`.`.`.`.`.`.`.`.`.`.`.`.`.`.`.`.`.`.`.`.`.`.`.`.`.`.`.`.",
"`.`.`.`.`.`.`.`.`.`.`.`.`.`.`.`.`.`.`.`.`.`.`.`.`.`.`.`.`.`.`.`.`.`.`.`.`.`.`.`.`.`.`.`.`.`.`.`.`.`.`.`.`.`.`.`.`.`.`.`.",
"`.`.`.`.`.`.`.`.`.`.`.`.`.`.`.`.`.`.`.`.`.`.`.`.`.`.`.`.`.`.`.`.X `.`.`.`.`.`.`.`.`.`.`.`.`.`.`.`.`.`.`.`.`.`.`.`.`.`.`.",
"`.`.`.`.`.`.`.`.`.`.`.`.`.`.`.`.`.`.`.`.`.`.`.`.`.`.`.`.`.X X < 3 X `.`.`.`.`.`.`.`.`.`.`.`.`.`.`.`.`.`.`.`.`.`.`.`.`.`.",
"`.`.`.`.`.`.`.`.`.`.`.`.`.`.`.`.`.`.`.`.`.`.`.`.o o o + < 8 A K K 8 o X `.`.`.`.`.`.`.`.`.`.`.`.`.`.`.`.`.`.`.`.`.`.`.`.",
"`.`.`.`.`.`.`.`.`.`.`.`.`.`.`.`.`.`.`.`.o o + 2 w r v F K P P P P F t < X `.`.`.`.`.`.`.`.`.`.`.`.`.`.`.`.`.`.`.`.`.`.`.",
"`.`.`.`.`.`.`.`.`.`.`.`.`.`.`.`.`.`.& + 2 r F K P P P Q P P K K K P P F 3 o X `.`.`.`.`.`.`.`.`.`.`.`.`.`.`.`.`.`.`.`.`.",
"`.`.`.`.`.`.`.`.`.`.`.`.`.`.`.`.O o 8 S K L L P P P P P P P P L L P P P K S 2 X `.`.`.`.`.`.`.`.`.`.`.`.`.`.`.`.`.`.`.`.",
"`.`.`.`.`.`.`.`.`.`.`.`.`.`.`.X < v P P P P P P P P P P P P P P L L P P L L K w + X `.`.`.`.`.`.`.`.`.`.`.`.`.`.`.`.`.`.",
"`.`.`.`.`.`.`.`.`.`.`.`.`.`.o w K P P Q P Q P P P P P P P P P L K L K P K P K P S $ o `.`.`.`.`.`.`.`.`.`.`.`.`.`.`.`.`.",
"`.`.`.`.`.`.`.`.`.`.`.`.X o r P Q P P P P P P P P P P P L L P L L L P K L P K P P D < X `.`.`.`.`.`.`.`.`.`.`.`.`.`.`.`.",
"`.`.`.`.`.`.`.`.`.`.`.X < S P P P P P P P P P K P P P P L K K K K K K K K J K K K P G 2 X `.`.`.`.`.`.`.`.`.`.`.`.`.`.`.",
"`.`.`.`.`.`.`.`.`.`.X $ D P P P Q P P P P P P P K K K K K K K K K G K K G K G K G K L F < X `.`.`.`.`.`.`.`.`.`.`.`.`.`.",
"`.`.`.`.`.`.`.`.`.o $ F P P P P P P P P K K K P K K K K P K K J J K K J K J J J D D F D w + o `.`.`.`.`.`.`.`.`.`.`.`.`.",
"`.`.`.`.`.`.`.`.X > S P P P P P P K P K K K K K K K K K K K J K K K J J F F J F D D F D r w + `.`.`.`.`.`.`.`.`.`.`.`.`.",
"`.`.`.`.`.`.`.`.o A P P P P K P K K K K P K K K K K K K K K J J F K J F F G F F F F D D A w 3 o `.`.`.`.`.`.`.`.`.`.`.`.",
"`.`.`.`.`.`.`.o w P P P P K K K K P P K K K K K K K F K K J K J K J G F F F F F D D D D A r w < X `.`.`.`.`.`.`.`.`.`.`.",
"`.`.`.`.`.`.X 2 K P P K K L L K K K K J F G G K K F K K F K K K F F F F F F F D D S D D r r w w + `.`.`.`.`.`.`.`.`.`.`.",
"`.`.`.`.`.`.o S P P K K K K J J G K G J G K K J K K F F K J F F F J K F F D D S S A D r r r w w < o `.`.`.`.`.`.`.`.`.`.",
"`.`.`.`.`.X 3 P P F F J K J J K G G K J J J J J J F F F F F F F F F D D D D S S r S A r r r w w 8 + `.`.`.`.`.`.`.`.`.`.",
"`.`.`.`.`.o S P K J J K J J J J K G J J J J J J F F F F F F F F D D D D D S S A S S r r r r r r w < o `.`.`.`.`.`.`.`.`.",
"`.`.`.`.`.< K F F F S F J J K J F F F F D F D F F F F F F D F D F D D S A S A S S r r r r r r r t 4 o `.`.`.`.`.`.`.`.`.",
"`.`.`.`.X w K v S A S S S D D D S F F D F D D D F D D F F S S D D S S r r S S A r r A A r r r w t w < X `.`.`.`.`.`.`.`.",
"`.`.`.`.X 3 S r r r S D F S S A S D D D F S S S D S S S S A A S S S A S S A r r r A S r r r r r t w 4 o `.`.`.`.`.`.`.`.",
"`.`.`.`.X $ w r A S S A A S D D S D D D D S S S S A A A r r S S S D D A r r r r A A r r r r t w t w 3 o `.`.`.`.`.`.`.`.",
"`.`.`.`.`.o 3 r A r Z r r v A A S S S A S S S S A r r r S S r S S S A r r r r S A A r r r r w w r w 3 + X `.`.`.`.`.`.`.",
"`.`.`.`.`.o < w r r t r r r r r A A A S S A S S S S S S S S S S A r r r r S r r r r r r A w r r r q 3 $ o `.`.`.`.`.`.`.",
"`.`.`.`.`.`.o < 8 t r t e t r r r r r r A r A S r r r r A r r r r r r A A A A A r r r r r w w r w w w < o `.`.`.`.`.`.`.",
"`.`.`.`.`.`.`.X > 4 w w t t r t w r r r r r r r r r r r r r r w r r A r r A r r r r r r r w r r w w 3 4 o `.`.`.`.`.`.`.",
"`.`.`.`.`.`.`.O X o < 4 8 q w t w r r r r r r r r r r r A r A r r r r r A r r r r r r r w r r w w 3 w 3 o `.`.`.`.`.`.`.",
"`.`.`.`.`.`.`.`.# u % o < 4 3 8 w w w w r r r r r r r r r r r r r A r r r r w r r r r w w r r w w w 3 3 + `.`.`.`.`.`.`.",
"`.`.`.`.`.`.`.`.+ l s @ o $ o < 4 w w r w r r r r w r r r r r r r r r r w w r r r r w w r r w w w w 3 3 $ `.`.`.`.`.`.`.",
"`.`.`.`.`.`.`.`.@ + & 8 R =.I 5 o > 3 w w w w r r r r r A r r r r r w r r w r w r w r r w r w w w 3 3 3 $ o `.`.`.`.`.`.",
"`.`.`.`.`.`.`.`.`.. 1 k.H.I.F.z.Y 1 o 4 w w w r r r r r r r r r r r r w w w r w w r w w r w w w 3 3 3 3 > O `.`.`.`.`.`.",
"`.`.`.`.`.`.`.`.`.  9 F.R.U.K.c.O.B y $ 4 w w w w w w r r w w w w w w w w r r w r r r r w w w w 3 3 < 3 $ `.`.`.`.`.`.`.",
"`.`.`.`.`.`.`.`.`.`.n S.P.K.&.( X.o...; o 3 w w w r w w r w w r w w w r r w w r r w w r w w w 3 3 3 3 3 + `.`.`.`.`.`.`.",
"`.`.`.`.`.`.`.`.`.`.f H.L.&.o.c.A.S.v.%.8 > 3 w w w w r w w w w w r w w r w r w w r w w w w w 3 3 3 4 4 o `.`.`.`.`.`.`.",
"`.`.`.`.`.`.`.`.`.`.f A.d.&.:.T b f m $.$.$ < 8 w 3 w w w r r w r w r w w w w w r r w w w 3 w 3 3 4 4 4 + `.`.`.`.`.`.`.",
"`.`.`.`.`.`.`.`.`.`.d *.h.I 4 Q M.M./ e k.H o 8 w w 3 w w w w w w w w w w w w w w 3 w 3 w 3 3 3 3 4 4 $ o `.`.`.`.`.`.`.",
"`.`.`.`.`.`.`.`.`.`.d k.m > Z n._.(.!.Q f.z.< 4 3 w w 3 w w 3 w w 3 8 w w w 3 w 3 w 3 3 3 3 3 3 3 4 2 + X `.`.`.`.`.`.`.",
"`.`.`.`.`.`.`.`.`.`.+ f 6 , q W ^./.!.^ ;.H.f < 3 3 w w 3 w w 3 w w w 3 3 w w w w 3 w 3 3 3 w 4 4 4 2 + `.`.`.`.`.`.`.`.",
"`.`.`.`.`.`.`.`.`.`.X 3 n.> C ! (./.!.G f.R.Y o 3 3 3 w 3 w 3 w 3 w w w 3 3 3 3 3 3 w 3 3 w 3 4 3 3 < o `.`.`.`.`.`.`.`.",
"`.`.`.`.`.`.`.`.`.`.o $ n.n.W B._./.V.g C.E.E o 4 3 3 3 3 3 w w 3 3 3 3 3 w 3 w w w 3 w 3 4 4 4 4 3 + `.`.`.`.`.`.`.`.`.",
"`.`.`.`.`.`.`.`.`.`.& b Z V.^././.!.P U U.z.8 o 4 4 3 w w 3 3 3 3 w 3 w w w 3 3 3 3 w 3 4 4 4 4 3 < o `.`.`.`.`.`.`.`.`.",
"`.`.`.`.`.`.`.`.`.`.o $.T v -.N.m.G m F.Z.9 & > 4 3 3 3 w 3 3 3 3 3 3 3 3 3 w 3 3 3 3 4 3 4 3 4 < o `.`.`.`.`.`.`.`.`.`.",
"`.`.`.`.`.`.`.`.`.`.o 9 H m f 9 n R C.l.f N N o 4 4 3 3 w 8 3 3 3 3 3 3 3 4 4 4 4 3 3 4 4 3 2 < o `.`.`.`.`.`.`.`.`.`.`.",
"`.`.`.`.`.`.`.`.`.`.O i c 5 9 I =.f.H 5 V p.z > 4 4 3 8 3 3 3 w 3 3 3 3 3 3 3 4 4 4 4 3 3 4 + o . `.`.`.`.`.`.`.`.`.`.`.",
"`.`.`.`.`.`.`.`.`.`.O h r.q.[ x i i N 9.a.7.p o 4 4 3 3 3 3 3 3 3 3 3 3 3 3 3 4 4 2 4 4 < o X `.`.`.`.`.`.`.`.`.`.`.`.`.",
"`.`.`.`.`.`.`.`.`.`.o = { 1.9.b.q.5.r.r.p.>.* < 4 4 4 4 3 4 3 3 3 3 3 3 4 4 4 4 4 4 < o o . `.`.`.`.`.`.`.`.`.`.`.`.`.`.",
"`.`.`.`.`.`.`.`.`.`.`.X : <.u.y.0.i.0.4.e. .* < 4 4 4 4 4 4 2 4 3 4 3 4 4 4 4 < > o X . `.`.`.`.`.`.`.`.`.`.`.`.`.`.`.`.",
"`.`.`.`.`.`.`.`.`.`.`.o % +.t.8.8.6.r.p.w.` % > 4 4 4 2 4 2 2 < 4 < $ > + o X X O . `.`.`.`.`.`.`.`.`.`.`.`.`.`.`.`.`.`.",
"`.`.`.`.`.`.`.`.`.`.`.`.+ ) +. .>.3.>.,.h % O o < < < > > $ o o > $ $ < + O . `.`.`.`.`.`.`.`.`.`.`.`.`.`.`.`.`.`.`.`.`.",
"`.`.`.`.`.`.`.`.`.`.`.`.X s ' ] ] ] } u o X o o o + + > o o > o 2 r D r 8 + . `.`.`.`.`.`.`.`.`.`.`.`.`.`.`.`.`.`.`.`.`.",
"`.`.`.`.`.`.`.`.`.`.`.`.o = _ ' ' _ ) # X < t t w r A D 3 4 J t o w K F r 3 o `.`.`.`.`.`.`.`.`.`.`.`.`.`.`.`.`.`.`.`.`.",
"`.`.`.`.`.`.`.`.`.`.`.`.`.o j ' _ _ a + o 4 r A D F P P r 2 K G 8 $ w D A r $ o `.`.`.`.`.`.`.`.`.`.`.`.`.`.`.`.`.`.`.`.",
"`.`.`.`.`.`.`.`.`.`.`.`.`.o : ) ] l & o o w r S S F K P F $ F K A 3 o w A r 2 X `.`.`.`.`.`.`.`.`.`.`.`.`.`.`.`.`.`.`.`.",
"`.`.`.`.`.`.`.`.`.`.`.`.`.`.X l _ u O X < t r r S S D K G < w G D r 3 o 8 r 8 o `.`.`.`.`.`.`.`.`.`.`.`.`.`.`.`.`.`.`.`.",
"`.`.`.`.`.`.`.`.`.`.`.`.`.`.o = p X X X 2 r r v S D S D F w > r D r w $ o 8 w + X `.`.`.`.`.`.`.`.`.`.`.`.`.`.`.`.`.`.`.",
"`.`.`.`.`.`.`.`.`.`.`.`.`.`.`.X o o `.o 3 r r A A S D D D A $ 8 A r 3 + t 8 $ > o `.`.`.`.`.`.`.`.`.`.`.`.`.`.`.`.`.`.`.",
"`.`.`.`.`.`.`.`.`.`.`.`.`.`.`.`.o `.`.o w r r A r A S S D D 4 < 3 + 8 g.J.x.f o X `.`.`.`.`.`.`.`.`.`.`.`.`.`.`.`.`.`.`.",
"`.`.`.`.`.`.`.`.`.`.`.`.`.`.`.`.`.`.o o w r r r A A A A S S w o + H D.).W.H.f.o o `.`.`.`.`.`.`.`.`.`.`.`.`.`.`.`.`.`.`.",
"`.`.`.`.`.`.`.`.`.`.`.`.`.`.`.`.`.`.X + w w r v v g A A A S A $ H H.E.Q.E.P.k.$ o `.`.`.`.`.`.`.`.`.`.`.`.`.`.`.`.`.`.`.",
"`.`.`.`.`.`.`.`.`.`.`.`.`.`.`.`.`.`.o $ 8 t r Z r v A S A S A < I K.U.T.Y.H.R o o `.`.`.`.`.`.`.`.`.`.`.`.`.`.`.`.`.`.`.",
"`.`.`.`.`.`.`.`.`.`.`.`.`.`.`.`.`.`.X + q w w r r v v A S r A 8 5 k.H.I.G.:.5 $ + `.`.`.`.`.`.`.`.`.`.`.`.`.`.`.`.`.`.`.",
"`.`.`.`.`.`.`.`.`.`.`.`.`.`.`.`.`.`.X > 3 w w r A r A A r S r r 1 3 U R I 1 , 2 o `.`.`.`.`.`.`.`.`.`.`.`.`.`.`.`.`.`.`.",
"`.`.`.`.`.`.`.`.`.`.`.`.`.`.`.`.`.`.X + 3 w w w r w r r r r w r w 3 > $ $ 3 3 2 + `.`.`.`.`.`.`.`.`.`.`.`.`.`.`.`.`.`.`.",
"`.`.`.`.`.`.`.`.`.`.`.`.`.`.`.`.`.`.o o 4 3 8 8 w 8 3 0 w w w w 8 w 8 3 3 3 4 < o `.`.`.`.`.`.`.`.`.`.`.`.`.`.`.`.`.`.`.",
"`.`.`.`.`.`.`.`.`.`.`.`.`.`.`.`.`.`.o o + < < < > < < < < < > > < $ > + + + + X o `.`.`.`.`.`.`.`.`.`.`.`.`.`.`.`.`.`.`.",
"`.`.`.`.`.`.`.`.`.`.`.`.`.`.`.`.`.`.`.o o X X X X $ $ o o + + + $ $ X o o `.`.`.`.`.`.`.`.`.`.`.`.`.`.`.`.`.`.`.`.`.`.`.",
"`.`.`.`.`.`.`.`.`.`.`.`.`.`.`.`.`.`.`.`.`.`.`.`.o 2 8 o & 8 8 8 0 & o o `.`.`.`.`.`.`.`.`.`.`.`.`.`.`.`.`.`.`.`.`.`.`.`.",
"`.`.`.`.`.`.`.`.`.`.`.`.`.`.`.`.`.`.`.`.`.`.`.`.o o + o $ 5 5 8 5 + o `.`.`.`.`.`.`.`.`.`.`.`.`.`.`.`.`.`.`.`.`.`.`.`.`.",
"`.`.`.`.`.`.`.`.`.`.`.`.`.`.`.`.`.`.`.`.`.`.`.`.`.`.$ o X o & 1 $ o `.`.`.`.`.`.`.`.`.`.`.`.`.`.`.`.`.`.`.`.`.`.`.`.`.`.",
"`.`.`.`.`.`.`.`.`.`.`.`.`.`.`.`.`.`.`.`.`.`.`.`.`.`.`.`.X o X o + o `.`.`.`.`.`.`.`.`.`.`.`.`.`.`.`.`.`.`.`.`.`.`.`.`.`.",
"`.`.`.`.`.`.`.`.`.`.`.`.`.`.`.`.`.`.`.`.`.`.`.`.`.`.`.`.`.`.`.`.$ `.`.`.`.`.`.`.`.`.`.`.`.`.`.`.`.`.`.`.`.`.`.`.`.`.`.`.",
"`.`.`.`.`.`.`.`.`.`.`.`.`.`.`.`.`.`.`.`.`.`.`.`.`.`.`.`.`.`.`.`.`.`.`.`.`.`.`.`.`.`.`.`.`.`.`.`.`.`.`.`.`.`.`.`.`.`.`.`.",
"`.`.`.`.`.`.`.`.`.`.`.`.`.`.`.`.`.`.`.`.`.`.`.`.`.`.`.`.`.`.`.`.`.`.`.`.`.`.`.`.`.`.`.`.`.`.`.`.`.`.`.`.`.`.`.`.`.`.`.`.",
"`.`.`.`.`.`.`.`.`.`.`.`.`.`.`.`.`.`.`.`.`.`.`.`.`.`.`.`.`.`.`.`.`.`.`.`.`.`.`.`.`.`.`.`.`.`.`.`.`.`.`.`.`.`.`.`.`.`.`.`."
};
