/* XPM */
static xpm_row_t const p1_left_9[] = {
/* columns rows colors chars-per-pixel */
"60 80 166 2 ",
"   c #151513",
".  c #181715",
"X  c #1A1917",
"o  c #1C1C1A",
"O  c #211F1C",
"+  c #22211E",
"@  c #2A2219",
"#  c #262117",
"$  c #322618",
"%  c #382717",
"&  c #221D29",
"*  c #252424",
"=  c #292724",
"-  c #2A2925",
";  c #22222D",
":  c #2B2B2B",
">  c #322D27",
",  c #302F2E",
"<  c #393424",
"1  c #34322C",
"2  c #3B342D",
"3  c #353024",
"4  c #333333",
"5  c #3A3734",
"6  c #3C3934",
"7  c #3B3B3B",
"8  c #4A3217",
"9  c #573A17",
"0  c #643D18",
"q  c #663C17",
"w  c #583B21",
"e  c #413A32",
"r  c #413F3D",
"t  c #4B421B",
"y  c #5E4018",
"u  c #674318",
"i  c #7C4D19",
"p  c #784717",
"a  c #6F5317",
"s  c #584829",
"d  c #5C5226",
"f  c #4B433B",
"g  c #53473C",
"h  c #564A3E",
"j  c #655A28",
"k  c #6E563E",
"l  c #2D3353",
"z  c #383D5C",
"x  c #403F40",
"c  c #3D425A",
"v  c #434343",
"b  c #484847",
"n  c #484748",
"m  c #4B4B4B",
"M  c #504F4F",
"N  c #5A4E42",
"B  c #50504F",
"V  c #5F5345",
"C  c #504F50",
"Z  c #535353",
"A  c #50505F",
"S  c #5A5A5A",
"D  c #615446",
"F  c #6C5B4B",
"G  c #675D54",
"H  c #70614F",
"J  c #726251",
"K  c #7B6A58",
"L  c #4E5372",
"P  c #646363",
"I  c #757473",
"U  c #7D7D7D",
"Y  c #824A18",
"T  c #8D511C",
"R  c #865918",
"E  c #935518",
"W  c #9C5D19",
"Q  c #957C17",
"!  c #A36219",
"~  c #B6751B",
"^  c #BF7E1D",
"/  c #866720",
"(  c #8C7926",
")  c #9E6734",
"_  c #91663F",
"`  c #BA7F22",
"'  c #826E5A",
"]  c #88735E",
"[  c #AB7645",
"{  c #AF7F54",
"}  c #B07E51",
"|  c #887560",
" . c #907963",
".. c #987F67",
"X. c #BE9F19",
"o. c #918034",
"O. c #A98329",
"+. c #AF9831",
"@. c #C48A18",
"#. c #CC9615",
"$. c #C79A1E",
"%. c #E1B41E",
"&. c #E4BA1B",
"*. c #CE9622",
"=. c #C2A424",
"-. c #CAA721",
";. c #D6B728",
":. c #DDB329",
">. c #C2A93D",
",. c #D0A130",
"<. c #D4B334",
"1. c #DBBD3B",
"2. c #E7BE25",
"3. c #E5B83E",
"4. c #EBC325",
"5. c #F7D129",
"6. c #F8D337",
"7. c #A3815E",
"8. c #BB8A5B",
"9. c #9C856C",
"0. c #A3876C",
"q. c #A6896B",
"w. c #A48B72",
"e. c #AC8F73",
"r. c #AE9679",
"t. c #AA9077",
"y. c #BD9B7E",
"u. c #C9A077",
"i. c #D2A67C",
"p. c #81838E",
"a. c #878A99",
"s. c #949393",
"d. c #A39286",
"f. c #BA9E80",
"g. c #A2A1A1",
"h. c #AEACAC",
"j. c #B3B2B2",
"k. c #B7B7BC",
"l. c #CDAC8C",
"z. c #C2A586",
"x. c #DBB38C",
"c. c #D9B48E",
"v. c #CAAD93",
"b. c #D6B391",
"n. c #DCBB97",
"m. c #DCB996",
"M. c #E1BC96",
"N. c #E1BC98",
"B. c #E5C29C",
"V. c #E8C49F",
"C. c #EBC6A1",
"Z. c #EEC9A3",
"A. c #EFCBA9",
"S. c #F1CCA8",
"D. c #F0CFB1",
"F. c #EFD0B6",
"G. c #F0D0B6",
"H. c #BFBFC4",
"J. c #CACACC",
"K. c #D0CFCF",
"L. c #D4D3D3",
"P. c #DAD9D9",
"I. c #F8DCC7",
"U. c #E0DFDF",
"Y. c #E3E2E1",
"T. c #00b140",
/* pixels */
"T.T.T.T.T.T.T.T.T.T.T.T.T.T.T.T.T.T.T.T.T.T.T.T.T.T.T.T.T.T.T.T.T.T.T.T.T.T.T.T.T.T.T.T.T.T.T.T.T.T.T.T.T.T.T.T.T.T.T.T.",
"T.T.T.T.T.T.T.T.T.T.T.T.T.T.T.T.T.T.T.T.T.T.T.T.T.T.T.T.T.T.T.T.T.T.T.T.T.T.T.T.T.T.T.T.T.T.T.T.T.T.T.T.T.T.T.T.T.T.T.T.",
"T.T.T.T.T.T.T.T.T.T.T.T.T.T.T.T.T.T.T.T.T.T.T.T.T.T.T.T.T.T.T.T.T.T.T.T.T.T.T.T.T.T.T.T.T.T.T.T.T.T.T.T.T.T.T.T.T.T.T.T.",
"T.T.T.T.T.T.T.T.T.T.T.T.T.T.T.T.T.T.T.T.T.T.T.T.T.T.T.T.T.T.T.T.T.T.T.T.T.T.T.T.T.T.T.T.T.T.T.T.T.T.T.T.T.T.T.T.T.T.T.T.",
"T.T.T.T.T.T.T.T.T.T.T.T.T.T.T.T.T.T.T.T.T.T.T.T.T.T.T.T.T.T.T.T.T.T.T.T.T.T.T.T.T.T.T.T.T.T.T.T.T.T.T.T.T.T.T.T.T.T.T.T.",
"T.T.T.T.T.T.T.T.T.T.T.T.T.T.T.T.T.T.T.T.T.T.T.T.T.T.T.T.T.T.T.T.T.X o T.T.T.T.T.T.T.T.T.T.T.T.T.T.T.T.T.T.T.T.T.T.T.T.T.",
"T.T.T.T.T.T.T.T.T.T.T.T.T.T.T.T.T.T.T.T.T.T.T.T.T.T.T.T.T.X X o = 6 , o T.T.T.T.T.T.T.T.T.T.T.T.T.T.T.T.T.T.T.T.T.T.T.T.",
"T.T.T.T.T.T.T.T.T.T.T.T.T.T.T.T.T.T.T.T.T.T.T.X o O + * - 1 7 b Z S m - o T.T.T.T.T.T.T.T.T.T.T.T.T.T.T.T.T.T.T.T.T.T.T.",
"T.T.T.T.T.T.T.T.T.T.T.T.T.T.T.T.T.T.T.T.X o + : 7 b B S S S S S S S S m 7 + . T.T.T.T.T.T.T.T.T.T.T.T.T.T.T.T.T.T.T.T.T.",
"T.T.T.T.T.T.T.T.T.T.T.T.T.T.T.T.T.T.+ + - r B S S S S S S S S Z Z Z S S S b * o T.T.T.T.T.T.T.T.T.T.T.T.T.T.T.T.T.T.T.T.",
"T.T.T.T.T.T.T.T.T.T.T.T.T.T.T.T.T.O - b Z S S S S S S S S S S S S S S S S S Z 7 + o T.T.T.T.T.T.T.T.T.T.T.T.T.T.T.T.T.T.",
"T.T.T.T.T.T.T.T.T.T.T.T.T.T.T.X + 7 Z S S S S S S S S S S S S S S Z S Z S S Z S m - X T.T.T.T.T.T.T.T.T.T.T.T.T.T.T.T.T.",
"T.T.T.T.T.T.T.T.T.T.T.T.T.T.X = B S S S S S S S S S S S S S S S S Z Z S Z S S Z S Z 1 X T.T.T.T.T.T.T.T.T.T.T.T.T.T.T.T.",
"T.T.T.T.T.T.T.T.T.T.T.T.T.X : C S S S S S S S S S S S S S S Z S S Z S Z S Z S Z S S Z 4 o T.T.T.T.T.T.T.T.T.T.T.T.T.T.T.",
"T.T.T.T.T.T.T.T.T.T.T.T.X 4 Z S S S S S S S S S S S Z Z S Z Z B Z C Z Z Z C Z B B Z S S 7 o T.T.T.T.T.T.T.T.T.T.T.T.T.T.",
"T.T.T.T.T.T.T.T.T.T.T.o 4 S S S S P S S S S S Z Z S Z Z Z Z Z S Z C C Z C Z C Z B B m Z Z 4 X T.T.T.T.T.T.T.T.T.T.T.T.T.",
"T.T.T.T.T.T.T.T.T.T.o 4 S S S S S S S Z S Z Z Z Z Z Z Z S Z Z B B Z B B B B B B B B b b m 7 * o T.T.T.T.T.T.T.T.T.T.T.T.",
"T.T.T.T.T.T.T.T.T.o 1 S S S S S S Z Z Z Z Z Z Z B S Z Z Z B Z B B B B B B B h B m b b m b v 4 + X T.T.T.T.T.T.T.T.T.T.T.",
"T.T.T.T.T.T.T.T.X - B S S S Z Z B Z S Z S Z S Z Z Z Z B B Z B B Z B B B B b B c b B m m b c 4 1 o T.T.T.T.T.T.T.T.T.T.T.",
"T.T.T.T.T.T.T.T.+ m S S S Z Z S Z Z Z Z Z B m Z B Z B B Z B B Z B Z B B B c h B m b b b b f 7 4 : X T.T.T.T.T.T.T.T.T.T.",
"T.T.T.T.T.T.T.o 6 S S Z B Z Z Z C Z Z C B B Z B B Z B B b B B B B B m B B m m c b f v v b c 6 4 4 + X T.T.T.T.T.T.T.T.T.",
"T.T.T.T.T.T.X = Z S B B B Z B B Z C B Z m Z B Z B B B B B B B B B B B m m h c h b c 7 f 7 7 6 4 4 : X T.T.T.T.T.T.T.T.T.",
"T.T.T.T.T.T.X 7 S Z B B Z B B B B B B C B B B Z B B B B c h B b m B b b m c b v v e c r 7 7 7 7 4 4 o X T.T.T.T.T.T.T.T.",
"T.T.T.T.T.T.+ Z B c m b m B B B B C B m m m m m b B c b b B h c b b b b b f v v r c f 7 7 7 7 4 7 4 - X T.T.T.T.T.T.T.T.",
"T.T.T.T.T.X : B v v 7 v v b b f n v b b m b b m b m m m c h b b b m b v r v r v f v 7 7 r 7 7 7 7 4 : X T.T.T.T.T.T.T.T.",
"T.T.T.T.T.X : v 7 7 7 f b b c f c r b b b b b b b m f c h c b v v v v r r r v v c 7 7 7 7 r 7 7 7 7 , * o T.T.T.T.T.T.T.",
"T.T.T.T.T.X * 4 6 6 c f v v c f v b b b f b f f v v v v v 7 r r v v v v c v 7 7 7 7 r r 7 7 7 7 4 7 4 : o T.T.T.T.T.T.T.",
"T.T.T.T.T.T.o : 7 c 7 6 7 6 e c v v b v v r c r v x r 7 7 r r r v v c f r 7 7 7 7 7 r r x 7 7 7 4 7 4 : o T.T.T.T.T.T.T.",
"T.T.T.T.T.T.X * 1 6 7 7 7 7 7 7 7 c c f 7 r v c c r r 7 c f r r r c v r 6 7 7 r r r r 7 7 7 7 4 7 7 , : O X T.T.T.T.T.T.",
"T.T.T.T.T.T.T.X + 4 4 7 7 4 7 7 6 6 7 7 c r r v r r r r r v c 7 r 7 7 7 r r v 7 6 c 7 7 7 7 7 7 4 7 4 : + X T.T.T.T.T.T.",
"T.T.T.T.T.T.T.T.X + : 4 4 7 4 7 6 4 7 6 6 7 7 7 r 7 7 7 7 7 7 7 7 7 7 7 x 7 7 r 7 7 6 6 7 7 7 4 7 7 , : * X T.T.T.T.T.T.",
"T.T.T.T.T.T.T.T.. X o * : : 4 4 6 7 7 7 6 6 7 7 6 7 7 7 7 7 6 7 7 7 x 7 7 r 7 r 7 7 7 f l 4 4 4 7 4 4 , = o T.T.T.T.T.T.",
"T.T.T.T.T.T.T.T.  $ 8 # + = : , 4 4 7 4 7 7 7 7 7 7 7 7 r 7 r 7 7 7 7 r 7 7 x 7 4 7 7 7 7 4 7 4 7 4 4 : * o T.T.T.T.T.T.",
"T.T.T.T.T.T.T.T.T.$ p 9 . o O + * : 4 4 4 7 7 7 7 7 7 7 7 7 7 4 r r x 7 7 7 4 7 7 7 7 7 4 7 7 7 4 4 4 : - O T.T.T.T.T.T.",
"T.T.T.T.T.T.T.T.T.o @ # 2 H H e o o : 4 4 4 4 7 7 7 7 4 7 7 c 4 7 7 7 7 4 7 4 7 7 7 7 4 7 7 7 4 4 4 : : - O T.T.T.T.T.T.",
"T.T.T.T.T.T.T.T.T.T.  6 r.n.n.z.| 6 o * , 4 7 4 4 7 7 7 7 7 7 7 7 7 4 4 7 4 4 7 7 7 4 7 4 7 4 4 4 4 4 : : - T.T.T.T.T.T.",
"T.T.T.T.T.T.T.T.T.T.  D B.Z.Z.N.u.[ 8 + * , 4 4 7 7 7 7 7 4 7 7 4 7 4 7 4 4 4 7 4 4 7 4 7 7 4 4 : 4 : : : o T.T.T.T.T.T.",
"T.T.T.T.T.T.T.T.T.T.  H N.C.x.) R T T 0 o - , 4 4 4 7 4 7 7 4 7 7 7 4 4 4 7 7 4 4 7 7 7 4 4 4 4 : : : * : o T.T.T.T.T.T.",
"T.T.T.T.T.T.T.T.T.T.  J C.c.[ ) 8.i.i.{ s o - 4 4 4 4 4 4 4 4 4 4 4 4 7 7 4 4 7 7 7 7 4 7 4 4 4 4 : ; : * o T.T.T.T.T.T.",
"T.T.T.T.T.T.T.T.T.T.X K x.[ { q.K F H  .e.r o : 4 4 4 7 4 7 4 4 4 4 4 4 7 4 7 4 4 4 4 7 4 4 : 4 : : : * * o T.T.T.T.T.T.",
"T.T.T.T.T.T.T.T.T.T.o k 8.{ h 1 P I P 7 V 9.o - 4 4 4 4 4 4 4 7 7 4 4 7 4 4 4 4 4 4 4 4 : 4 4 : : : - : + o T.T.T.T.T.T.",
"T.T.T.T.T.T.T.T.T.T.X k 9.1 ; c k.U.K.g.f l.b + : 4 : 4 4 4 : 4 4 4 4 4 4 4 4 4 4 4 4 4 4 4 : : : : - : + O T.T.T.T.T.T.",
"T.T.T.T.T.T.T.T.T.T.X 2 6 ; & l a.Y.K.h.f b. .o : : 4 : : 4 4 4 : 4 , 4 4 4 : 4 4 4 : 4 : : : : : : - * o T.T.T.T.T.T.T.",
"T.T.T.T.T.T.T.T.T.T.o X S A & l a.Y.K.g.f N.f.+ : : : 4 4 : : 4 4 , , , : 4 4 4 : : : : : : 4 : : ; - * o T.T.T.T.T.T.T.",
"T.T.T.T.T.T.T.T.T.T.T.X m p.z L H.U.L.U V Z.l.- * : : , 4 , 4 4 , , , , , , : : : 4 4 : : 4 : : - : : o + T.T.T.T.T.T.T.",
"T.T.T.T.T.T.T.T.T.T.T.1 e U k.J.U.P.j.f w.S.9.= * : : : : : : : : : : : : : , : 4 : : 4 : : : * - : ; o T.T.T.T.T.T.T.T.",
"T.T.T.T.T.T.T.T.T.T.  g ..5 I h.j.s.b F V.w.= o * - : : : 4 : : : : 4 4 4 4 , 4 4 4 : : : * : : : : O X T.T.T.T.T.T.T.T.",
"T.T.T.T.T.T.T.T.T.T.X @ D D e 5 7 6 ' b.w.3 d # * ; : : 4 : 4 : : : : : : : : : : ; : : : : : * - + X T.T.T.T.T.T.T.T.T.",
"T.T.T.T.T.T.T.T.T.T.T.# s < 1 N K r.r.V 3 o.+.# @ * : : : 4 , , , , : : ; - - - ; : - ; - : : = o o T.T.T.T.T.T.T.T.T.T.",
"T.T.T.T.T.T.T.T.T.T.T.$ $.;.( t < 3 < j >.6.o.o - - - : : : : , : : : : : : : : = : - : : - * o X T.T.T.T.T.T.T.T.T.T.T.",
"T.T.T.T.T.T.T.T.T.T.T.O R =.=.1.<.X.-.4.6.%.a o : - - : : : : : : : : : : : : ; - - - - ; + o . T.T.T.T.T.T.T.T.T.T.T.T.",
"T.T.T.T.T.T.T.T.T.T.T.X # / ;.5.%.4.&.#.;.*.u o - - ; - : - - - ; : - - : : - - ; - * + o   T.T.T.T.T.T.T.T.T.T.T.T.T.T.",
"T.T.T.T.T.T.T.T.T.T.T.T.o R 3.2.&.&.4.:.3.O.t o ; - - : ; - - ; : : - ; ; = * * + o X X T.T.T.T.T.T.T.T.T.T.T.T.T.T.T.T.",
"T.T.T.T.T.T.T.T.T.T.T.T.X u ~ ^ #.#.@.,.O.u # o ; - * - - * * * + + + o o o o X X   T.T.T.T.T.T.T.T.T.T.T.T.T.T.T.T.T.T.",
"T.T.T.T.T.T.T.T.T.T.T.T.X 9 E ! ! ! ~ i $ . . . o o o o o o o o * * : : + X   T.T.T.T.T.T.T.T.T.T.T.T.T.T.T.T.T.T.T.T.T.",
"T.T.T.T.T.T.T.T.T.T.T.T.X @ Y E E T E 8 . X - @ - : , , * o : o 4 b b v 7 = X T.T.T.T.T.T.T.T.T.T.T.T.T.T.T.T.T.T.T.T.T.",
"T.T.T.T.T.T.T.T.T.T.T.T.T.X 9 E E E i O X + 6 c v f B B : , S 1 * m Z B c 4 + T.T.T.T.T.T.T.T.T.T.T.T.T.T.T.T.T.T.T.T.T.",
"T.T.T.T.T.T.T.T.T.T.T.T.T.X $ Y W i $ X o - 7 f v m S S : 4 S b + , B B r 6 - o T.T.T.T.T.T.T.T.T.T.T.T.T.T.T.T.T.T.T.T.",
"T.T.T.T.T.T.T.T.T.T.T.T.T.T.O u E u o X O 4 7 f v b b Z : 1 Z b 4 o 7 m c 7 1 X T.T.T.T.T.T.T.T.T.T.T.T.T.T.T.T.T.T.T.T.",
"T.T.T.T.T.T.T.T.T.T.T.T.T.T.. 8 9 # X X O 5 7 l x b c m , - m b 7 + - b r r 4 o X T.T.T.T.T.T.T.T.T.T.T.T.T.T.T.T.T.T.T.",
"T.T.T.T.T.T.T.T.T.T.T.T.T.T.T.o + X T.o * 7 7 x 7 c f f , + c v 7 1 O 4 r 7 7 + X T.T.T.T.T.T.T.T.T.T.T.T.T.T.T.T.T.T.T.",
"T.T.T.T.T.T.T.T.T.T.T.T.T.T.T.T.+ T.T.O : 7 7 r x v c m 4 + 5 r 7 4 o * r 7 7 - o T.T.T.T.T.T.T.T.T.T.T.T.T.T.T.T.T.T.T.",
"T.T.T.T.T.T.T.T.T.T.T.T.T.T.T.T.T.T.T.o 4 7 7 r r r r r 6 o : : + o > - - 7 7 - o T.T.T.T.T.T.T.T.T.T.T.T.T.T.T.T.T.T.T.",
"T.T.T.T.T.T.T.T.T.T.T.T.T.T.T.T.T.T.T.o 4 4 7 7 r r r r 7 + o 1 G d.v.w.: , 6 : o T.T.T.T.T.T.T.T.T.T.T.T.T.T.T.T.T.T.T.",
"T.T.T.T.T.T.T.T.T.T.T.T.T.T.T.T.T.T.X O , 4 7 f 7 r v v r + H l.G.I.G.N.F = 4 : O T.T.T.T.T.T.T.T.T.T.T.T.T.T.T.T.T.T.T.",
"T.T.T.T.T.T.T.T.T.T.T.T.T.T.T.T.T.T.o O , 4 7 l 7 r r r 7 + r.V.A.F.A.N.K + 7 : O X T.T.T.T.T.T.T.T.T.T.T.T.T.T.T.T.T.T.",
"T.T.T.T.T.T.T.T.T.T.T.T.T.T.T.T.T.T.X O , , 7 7 7 r c r 7 + ] B.C.Z.V.l.h = 4 : O X T.T.T.T.T.T.T.T.T.T.T.T.T.T.T.T.T.T.",
"T.T.T.T.T.T.T.T.T.T.T.T.T.T.T.T.T.T.X O : , , 4 7 7 6 r 7 : < q.b.x.y.F + : 4 - O o T.T.T.T.T.T.T.T.T.T.T.T.T.T.T.T.T.T.",
"T.T.T.T.T.T.T.T.T.T.T.T.T.T.T.T.T.T.X O : : 4 4 4 4 4 7 6 4 * - f g 1 O : 4 : - o o T.T.T.T.T.T.T.T.T.T.T.T.T.T.T.T.T.T.",
"T.T.T.T.T.T.T.T.T.T.T.T.T.T.T.T.T.T.o O ; : : : : : : : : , : * + + + : : - * + o T.T.T.T.T.T.T.T.T.T.T.T.T.T.T.T.T.T.T.",
"T.T.T.T.T.T.T.T.T.T.T.T.T.T.T.T.T.T.T.o X o o o + o + o o O + o O o o o X X o o o T.T.T.T.T.T.T.T.T.T.T.T.T.T.T.T.T.T.T.",
"T.T.T.T.T.T.T.T.T.T.T.T.T.T.T.T.T.T.T.T.T.T.T.T.T.o o o O o * - - - > + o T.T.T.T.T.T.T.T.T.T.T.T.T.T.T.T.T.T.T.T.T.T.T.",
"T.T.T.T.T.T.T.T.T.T.T.T.T.T.T.T.T.T.T.T.T.T.T.T.T.o o 1 1 o @ 1 1 1 1 # T.T.T.T.T.T.T.T.T.T.T.T.T.T.T.T.T.T.T.T.T.T.T.T.",
"T.T.T.T.T.T.T.T.T.T.T.T.T.T.T.T.T.T.T.T.T.T.T.T.T.X X + + O + - - > - o T.T.T.T.T.T.T.T.T.T.T.T.T.T.T.T.T.T.T.T.T.T.T.T.",
"T.T.T.T.T.T.T.T.T.T.T.T.T.T.T.T.T.T.T.T.T.T.T.T.T.o X o o o o o O O + o T.T.T.T.T.T.T.T.T.T.T.T.T.T.T.T.T.T.T.T.T.T.T.T.",
"T.T.T.T.T.T.T.T.T.T.T.T.T.T.T.T.T.T.T.T.T.T.T.T.T.T.T.T.T.T.T.T.T.X X o T.T.T.T.T.T.T.T.T.T.T.T.T.T.T.T.T.T.T.T.T.T.T.T.",
"T.T.T.T.T.T.T.T.T.T.T.T.T.T.T.T.T.T.T.T.T.T.T.T.T.T.T.T.T.T.T.T.T.T.T.T.T.T.T.T.T.T.T.T.T.T.T.T.T.T.T.T.T.T.T.T.T.T.T.T.",
"T.T.T.T.T.T.T.T.T.T.T.T.T.T.T.T.T.T.T.T.T.T.T.T.T.T.T.T.T.T.T.T.T.T.T.T.T.T.T.T.T.T.T.T.T.T.T.T.T.T.T.T.T.T.T.T.T.T.T.T.",
"T.T.T.T.T.T.T.T.T.T.T.T.T.T.T.T.T.T.T.T.T.T.T.T.T.T.T.T.T.T.T.T.T.T.T.T.T.T.T.T.T.T.T.T.T.T.T.T.T.T.T.T.T.T.T.T.T.T.T.T.",
"T.T.T.T.T.T.T.T.T.T.T.T.T.T.T.T.T.T.T.T.T.T.T.T.T.T.T.T.T.T.T.T.T.T.T.T.T.T.T.T.T.T.T.T.T.T.T.T.T.T.T.T.T.T.T.T.T.T.T.T."
};
