/* XPM */
static xpm_row_t const p1_left_3[] = {
/* columns rows colors chars-per-pixel */
"60 80 169 2 ",
"   c #161514",
".  c #181715",
"X  c #1A1917",
"o  c #1C1B1A",
"O  c #221D17",
"+  c #201F1C",
"@  c #22211E",
"#  c #2A2218",
"$  c #2C281A",
"%  c #3C2917",
"&  c #3B2A18",
"*  c #352817",
"=  c #1F1E20",
"-  c #211A21",
";  c #252423",
":  c #292623",
">  c #2B2A25",
",  c #2B2B2B",
"<  c #312D2A",
"1  c #34322A",
"2  c #3C3627",
"3  c #232439",
"4  c #312F3A",
"5  c #343433",
"6  c #393735",
"7  c #3C3834",
"8  c #373738",
"9  c #3B3B3B",
"0  c #442C15",
"q  c #453118",
"w  c #543518",
"e  c #663E17",
"r  c #433C33",
"t  c #483D34",
"y  c #574718",
"u  c #6B4919",
"i  c #664517",
"p  c #784618",
"a  c #7C4B19",
"s  c #74451B",
"d  c #6C521E",
"f  c #5C522B",
"g  c #4C433B",
"h  c #4A4136",
"j  c #52483D",
"k  c #554A3E",
"l  c #7C4C20",
"z  c #685C25",
"x  c #60503E",
"c  c #755537",
"v  c #383941",
"b  c #2C3150",
"n  c #353B5C",
"m  c #403F40",
"M  c #434343",
"N  c #484748",
"B  c #4C4B4C",
"V  c #594E40",
"C  c #5F5245",
"Z  c #504F50",
"A  c #535353",
"S  c #5A5A5A",
"D  c #625446",
"F  c #645649",
"G  c #67594B",
"H  c #6B5C4C",
"J  c #685746",
"K  c #715F4E",
"L  c #665D56",
"P  c #73604F",
"I  c #766553",
"U  c #7D6A56",
"Y  c #7B6956",
"T  c #5E6070",
"R  c #666666",
"E  c #61657D",
"W  c #797878",
"Q  c #864D18",
"!  c #8E5219",
"~  c #935418",
"^  c #975819",
"/  c #9D5C19",
"(  c #856C16",
")  c #90681D",
"_  c #A6681A",
"`  c #B87819",
"'  c #8F5827",
"]  c #925823",
"[  c #897626",
"{  c #947A21",
"}  c #8C7B33",
"|  c #AC7824",
" . c #A16936",
".. c #A26A38",
"X. c #82674D",
"o. c #816E5A",
"O. c #81705E",
"+. c #AB7848",
"@. c #B17E4F",
"#. c #B78718",
"$. c #BD8117",
"%. c #AE9528",
"&. c #B89C27",
"*. c #CA9C1E",
"=. c #DBAB1B",
"-. c #DDB21E",
";. c #E1B718",
":. c #C99125",
">. c #D29830",
",. c #C2A629",
"<. c #D8A425",
"1. c #D6B335",
"2. c #E5BC37",
"3. c #F4CE1F",
"4. c #EBC42A",
"5. c #ECC424",
"6. c #F3CC24",
"7. c #EFCE3B",
"8. c #EBC537",
"9. c #B88A5D",
"0. c #98826A",
"q. c #A0886F",
"w. c #A38468",
"e. c #A48B70",
"r. c #AB8F74",
"t. c #B1977A",
"y. c #BC9A7D",
"u. c #C5976A",
"i. c #C99D71",
"p. c #C29871",
"a. c #CAA47E",
"s. c #7C7F92",
"d. c #878786",
"f. c #858797",
"g. c #8F9096",
"h. c #9C9C9C",
"j. c #949292",
"k. c #B09780",
"l. c #BB9E81",
"z. c #BFA284",
"x. c #BCA591",
"c. c #9C9EA9",
"v. c #A9A7A7",
"b. c #AAABB4",
"n. c #B2B2B1",
"m. c #CBAA89",
"M. c #C7A686",
"N. c #CEB18F",
"B. c #D5B491",
"V. c #DEBC98",
"C. c #DBB895",
"Z. c #E2BE9A",
"A. c #E5C19C",
"S. c #E9C49E",
"D. c #EBC6A1",
"F. c #ECC9A3",
"G. c #EFCDAD",
"H. c #F0CDAC",
"J. c #F3CDA6",
"K. c #EFD0B5",
"L. c #CECDCD",
"P. c #C0C0C0",
"I. c #D0CFCF",
"U. c #D4D4D4",
"Y. c #DCDBDB",
"T. c #F3D7C1",
"R. c #E0DFDF",
"E. c #E3E3E2",
"W. c #00b140",
/* pixels */
"W.W.W.W.W.W.W.W.W.W.W.W.W.W.W.W.W.W.W.W.W.W.W.W.W.W.W.W.W.W.W.W.W.W.W.W.W.W.W.W.W.W.W.W.W.W.W.W.W.W.W.W.W.W.W.W.W.W.W.W.",
"W.W.W.W.W.W.W.W.W.W.W.W.W.W.W.W.W.W.W.W.W.W.W.W.W.W.W.W.W.W.W.W.W.W.W.W.W.W.W.W.W.W.W.W.W.W.W.W.W.W.W.W.W.W.W.W.W.W.W.W.",
"W.W.W.W.W.W.W.W.W.W.W.W.W.W.W.W.W.W.W.W.W.W.W.W.W.W.W.W.W.W.W.W.W.W.W.W.W.W.W.W.W.W.W.W.W.W.W.W.W.W.W.W.W.W.W.W.W.W.W.W.",
"W.W.W.W.W.W.W.W.W.W.W.W.W.W.W.W.W.W.W.W.W.W.W.W.W.W.W.W.W.W.W.W.W.W.W.W.W.W.W.W.W.W.W.W.W.W.W.W.W.W.W.W.W.W.W.W.W.W.W.W.",
"W.W.W.W.W.W.W.W.W.W.W.W.W.W.W.W.W.W.W.W.W.W.W.W.W.W.W.W.W.W.W.W.W.W.W.W.W.W.W.W.W.W.W.W.W.W.W.W.W.W.W.W.W.W.W.W.W.W.W.W.",
"W.W.W.W.W.W.W.W.W.W.W.W.W.W.W.W.W.W.W.W.W.W.W.W.W.W.W.W.W.W.W.W.W.W.W.W.W.W.W.W.W.W.W.W.W.W.W.W.W.W.W.W.W.W.W.W.W.W.W.W.",
"W.W.W.W.W.W.W.W.W.W.W.W.W.W.W.W.W.W.W.W.W.W.W.W.W.W.W.W.W.W.W.X o ; o W.W.W.W.W.W.W.W.W.W.W.W.W.W.W.W.W.W.W.W.W.W.W.W.W.",
"W.W.W.W.W.W.W.W.W.W.W.W.W.W.W.W.W.W.W.W.W.W.W.W.W.o o o o o ; 5 M A 5 o X W.W.W.W.W.W.W.W.W.W.W.W.W.W.W.W.W.W.W.W.W.W.W.",
"W.W.W.W.W.W.W.W.W.W.W.W.W.W.W.W.W.W.W.W.W.W.X o @ 1 6 m M B A S S S B 6 @ o W.W.W.W.W.W.W.W.W.W.W.W.W.W.W.W.W.W.W.W.W.W.",
"W.W.W.W.W.W.W.W.W.W.W.W.W.W.W.W.W.W.W.+ + > 9 M A S S S S S S S A S S S B > X W.W.W.W.W.W.W.W.W.W.W.W.W.W.W.W.W.W.W.W.W.",
"W.W.W.W.W.W.W.W.W.W.W.W.W.W.W.W.W.o o 1 M A S S S S S S S S S A S A S S S A 8 + X W.W.W.W.W.W.W.W.W.W.W.W.W.W.W.W.W.W.W.",
"W.W.W.W.W.W.W.W.W.W.W.W.W.W.W.W.. ; M S S S S S S S S S S S S S S S S A S S S B , o W.W.W.W.W.W.W.W.W.W.W.W.W.W.W.W.W.W.",
"W.W.W.W.W.W.W.W.W.W.W.W.W.W.W.o 5 A S S S S S S S S S S S S S S S A A S A A A S A 9 o X W.W.W.W.W.W.W.W.W.W.W.W.W.W.W.W.",
"W.W.W.W.W.W.W.W.W.W.W.W.W.X @ 9 S S S S S S S S S S S S S S S S S A S S S S S S S S h o X W.W.W.W.W.W.W.W.W.W.W.W.W.W.W.",
"W.W.W.W.W.W.W.W.W.W.W.W.X ; M S R S S S S S S S S S S S S A S A A A A A A A A A A S S M ; X W.W.W.W.W.W.W.W.W.W.W.W.W.W.",
"W.W.W.W.W.W.W.W.W.W.W.X ; B S S S S S S S S S A S S A A A A A A A Z A A Z A Z A A Z A S M ; X W.W.W.W.W.W.W.W.W.W.W.W.W.",
"W.W.W.W.W.W.W.W.W.W.o : B S S S S S S S S S A A S A A A A A A A A Z Z A A Z Z Z A B N Z Z 5 o W.W.W.W.W.W.W.W.W.W.W.W.W.",
"W.W.W.W.W.W.W.W.W.o @ B S S S S S S A S A A A A A A S A A A A Z Z A Z Z Z Z B Z B N N B N 9 , o W.W.W.W.W.W.W.W.W.W.W.W.",
"W.W.W.W.W.W.W.W.W.@ N S S S S S A A A A A S S A A A A A A A Z A A Z A Z B B Z B B B B B N m 5 > X W.W.W.W.W.W.W.W.W.W.W.",
"W.W.W.W.W.W.W.W.o 9 S S S S A A A A S A A A A Z Z Z Z Z A Z A Z Z A Z Z Z B B B B N N N N M 5 5 @ X W.W.W.W.W.W.W.W.W.W.",
"W.W.W.W.W.W.W.X 1 S S A A A A A A A Z A B B Z A A Z A A A Z Z Z A A B B B B B B B N N N B m 9 5 , o W.W.W.W.W.W.W.W.W.W.",
"W.W.W.W.W.W.W.@ B S A A A A A A Z Z A Z A A A Z Z A B Z B Z Z Z B B B Z B B B N N M m N M 9 8 6 5 ; X W.W.W.W.W.W.W.W.W.",
"W.W.W.W.W.W.X 5 S A B B Z A A Z A Z A Z Z A Z Z A Z Z B B B B B B B B B B N N N M m m M 9 9 9 6 5 , X W.W.W.W.W.W.W.W.W.",
"W.W.W.W.W.W.@ B S A Z Z A Z Z Z A Z Z A B B A B Z B B N B B B B B B N B N N M M m m M 9 9 9 8 8 9 5 o X W.W.W.W.W.W.W.W.",
"W.W.W.W.W.X , A B N N M N B Z B B B B B B N N B N B B B B B B N N B B N M M M 9 M N 9 9 9 m 8 9 9 5 , X W.W.W.W.W.W.W.W.",
"W.W.W.W.W.X 5 B r M 9 m M N N N M N N N N B M B N B B B N B N N N M M m 9 M 9 N M m 9 9 m 9 9 9 9 5 , X W.W.W.W.W.W.W.W.",
"W.W.W.W.W.X , 9 9 9 m M N N N m M M N N N N N M N M M M M M m m M M M m M M M 9 9 9 9 m 9 9 9 9 8 8 5 ; X W.W.W.W.W.W.W.",
"W.W.W.W.W.X ; 5 m m M M m 9 M N N N N N B M M M M M M m m 9 9 M M M M N M M 9 9 9 m m m m 9 9 8 8 8 5 , o W.W.W.W.W.W.W.",
"W.W.W.W.W.W.o , 8 9 9 9 9 9 9 9 m M M M m M M M M 9 9 9 m m m m M M M m 9 9 9 m 9 m m 9 9 9 9 5 8 8 1 , o W.W.W.W.W.W.W.",
"W.W.W.W.W.W.X @ , 8 9 9 8 9 9 9 9 9 m M M m m M M M M M M N M M M M 9 9 9 9 M 9 m m 9 9 9 9 9 8 9 8 5 , o X W.W.W.W.W.W.",
"W.W.W.W.W.W.W.X = , 8 9 8 8 9 9 9 8 9 9 9 m m m M 9 9 9 9 m m 9 9 9 9 m 9 M 9 9 m 9 9 9 9 9 8 8 8 8 5 , @ X W.W.W.W.W.W.",
"W.W.W.W.W.W.W.W.X + ; , 5 5 8 8 9 8 9 8 9 9 9 9 9 9 9 9 9 8 8 9 9 9 9 m 9 9 9 M 9 9 9 9 9 9 8 8 9 5 5 , ; o W.W.W.W.W.W.",
"W.W.W.W.W.W.W.W.. O O + , , , 5 5 8 5 9 9 9 9 9 9 9 9 9 9 m 9 9 9 9 9 m 9 m 9 9 9 9 9 9 9 5 8 8 8 5 5 , ; o W.W.W.W.W.W.",
"W.W.W.W.W.W.W.W.X % e * o = : , 5 5 5 5 8 9 9 9 9 m 9 9 9 9 9 9 9 9 m 9 m 9 9 8 9 9 9 9 8 8 9 9 8 1 , 5 > o W.W.W.W.W.W.",
"W.W.W.W.W.W.W.W.. # i 0 X > $ o = , 5 9 5 8 9 9 9 8 8 8 9 9 9 9 m 9 9 9 9 8 8 8 9 9 9 5 5 9 8 8 5 5 5 , > o W.W.W.W.W.W.",
"W.W.W.W.W.W.W.W.W.. X > K q.q.K 1 o ; , 5 5 5 9 8 9 9 9 9 m 9 9 9 9 9 8 5 8 5 9 8 9 8 5 9 8 8 5 5 5 , , , @ W.W.W.W.W.W.",
"W.W.W.W.W.W.W.W.W.W.  k N.F.D.C.t.k @ @ , 1 5 5 8 9 9 9 9 9 9 9 9 8 9 8 8 5 6 9 9 5 8 9 8 9 5 8 5 , , , , o W.W.W.W.W.W.",
"W.W.W.W.W.W.W.W.W.W.  I S.F.A.a.9.! s * = , 5 5 8 8 8 8 8 8 8 8 8 8 8 5 5 5 8 5 5 8 9 8 8 5 8 8 5 , , > ; o W.W.W.W.W.W.",
"W.W.W.W.W.W.W.W.W.W.X U Z.D.i.~ ^ .. .l $ + , 5 8 8 8 5 5 8 8 8 6 5 5 6 8 6 8 8 9 8 9 8 5 8 8 , , , , > , o W.W.W.W.W.W.",
"W.W.W.W.W.W.W.W.W.W.X o.D.u. .9.a.m.m.p.U @ > , 5 1 8 8 5 5 5 5 5 5 8 6 5 8 9 8 9 5 5 5 9 5 5 , , , > , ; X W.W.W.W.W.W.",
"W.W.W.W.W.W.W.W.W.W.X U i.+.w.H h 6 7 k 0.C o , 5 5 , 5 5 5 8 8 8 5 8 8 8 8 5 5 8 8 8 8 5 5 , 5 , , ; , ; o W.W.W.W.W.W.",
"W.W.W.W.W.W.W.W.W.W.O c 9.U , v h.n.h.R j t.< ; 5 5 5 5 5 5 5 8 9 5 5 5 5 5 5 8 5 5 5 , , 5 , , , , , , @ o W.W.W.W.W.W.",
"W.W.W.W.W.W.W.W.W.W.X J Y o 3 n b.E.I.v.g B.G = , , 5 , , 5 , 5 5 5 1 5 5 5 , 5 , 5 5 5 5 , , , , , , ; o W.W.W.W.W.W.W.",
"W.W.W.W.W.W.W.W.W.W.X > 9 4 - b f.R.I.v.g V.0.+ , , 5 5 5 5 5 , , , 5 5 , 5 5 5 5 5 , , , , 5 , , , > ; o W.W.W.W.W.W.W.",
"W.W.W.W.W.W.W.W.W.W.o   R T 3 n c.E.L.j.V A.z.@ ; , , 5 , 5 , 5 5 , 5 5 , 5 5 , , , 5 , , 5 , , ; ; , = o W.W.W.W.W.W.W.",
"W.W.W.W.W.W.W.W.W.W.W.+ m g.T s.U.R.L.R Y G.m.> = , , , 5 , 5 5 , 5 , , , , , , , 5 5 , , , , ; , , , o W.W.W.W.W.W.W.W.",
"W.W.W.W.W.W.W.W.W.W.  7 V S P.U.Y.L.d.7 m.V.F o ; , , 5 , , , , > , , 5 5 , 5 , 5 5 , , , , ; , , , = X W.W.W.W.W.W.W.W.",
"W.W.W.W.W.W.W.W.W.W.X h e.g g W W S 7 e.Z.G $ + ; ; , , , 5 , , , , , , , 5 , 5 , , , , , , , ; , ; o W.W.W.W.W.W.W.W.W.",
"W.W.W.W.W.W.W.W.W.W.X + 1 g j t j I z.z.C 2 } @ ; > , , 5 , 5 , 4 , , , , ; , , , , , , , ; , : @ o W.W.W.W.W.W.W.W.W.W.",
"W.W.W.W.W.W.W.W.W.W.W.$ [ z 2 r H O.F 1 f 1.%.+ ; , , , , , , 5 , , , , , , , ; ; ; , ; ; , , ; X   W.W.W.W.W.W.W.W.W.W.",
"W.W.W.W.W.W.W.W.W.W.W.# #.3.,.[ z y z %.7.6.( X ; ; ; , , , , , , , , , , , ; , , ; ; , , ; o X W.W.W.W.W.W.W.W.W.W.W.W.",
"W.W.W.W.W.W.W.W.W.W.W.o y { &.8.4.;.;.-.8.=.i + , , , ; , , , , , , , ; , , , , , , , ; = o . W.W.W.W.W.W.W.W.W.W.W.W.W.",
"W.W.W.W.W.W.W.W.W.W.W.X X ) 8.3.-.5.5.*.1.:.i o , ; , ; , ; , ; , , , , ; , ; , ; = = o X W.W.W.W.W.W.W.W.W.W.W.W.W.W.W.",
"W.W.W.W.W.W.W.W.W.W.W.W.X a >.<.;.=.-.2.2._ q o ; , , ; , , , ; ; ; ; = ; ; = o X X   W.W.W.W.W.W.W.W.W.W.W.W.W.W.W.W.W.",
"W.W.W.W.W.W.W.W.W.W.W.W.X w _ ` ` $.` | z * o o = ; ; ; = = = + o o + + = X . . W.W.W.W.W.W.W.W.W.W.W.W.W.W.W.W.W.W.W.W.",
"W.W.W.W.W.W.W.W.W.W.W.W.X 0 ! ! / ^ _ i X X o o o = + X X = o ; 5 8 9 9 , o   W.W.W.W.W.W.W.W.W.W.W.W.W.W.W.W.W.W.W.W.W.",
"W.W.W.W.W.W.W.W.W.W.W.W.W.+ u ^ ~ ~ ! % . + 5 8 1 9 , @ 9 B ; 8 A A A B m 5 X W.W.W.W.W.W.W.W.W.W.W.W.W.W.W.W.W.W.W.W.W.",
"W.W.W.W.W.W.W.W.W.W.W.W.W.X q ! ~ Q e O . ; v h M 8 @ 8 S Z ; 9 S S A Z m 9 ; X W.W.W.W.W.W.W.W.W.W.W.W.W.W.W.W.W.W.W.W.",
"W.W.W.W.W.W.W.W.W.W.W.W.W.o O p ) Q # X o < 9 M 9 @ , B Z 9 @ M A A Z B M 9 , o W.W.W.W.W.W.W.W.W.W.W.W.W.W.W.W.W.W.W.W.",
"W.W.W.W.W.W.W.W.W.W.W.W.W.W.o w Q w o X + 5 9 v ; @ 9 B M 1 @ B S A B B m 9 8 o W.W.W.W.W.W.W.W.W.W.W.W.W.W.W.W.W.W.W.W.",
"W.W.W.W.W.W.W.W.W.W.W.W.W.W.X # & o o o ; 8 9 1 = 5 M M 9 > ; B Z Z B N m 9 9 = o W.W.W.W.W.W.W.W.W.W.W.W.W.W.W.W.W.W.W.",
"W.W.W.W.W.W.W.W.W.W.W.W.W.W.W.X o o W.o , 9 1 + o , 9 9 8 + 5 B N B N M m 9 9 > o W.W.W.W.W.W.W.W.W.W.W.W.W.W.W.W.W.W.W.",
"W.W.W.W.W.W.W.W.W.W.W.W.W.W.W.W.W.W.W.o , , ; C C ; = , , + 9 N N N M M m 9 9 , o W.W.W.W.W.W.W.W.W.W.W.W.W.W.W.W.W.W.W.",
"W.W.W.W.W.W.W.W.W.W.W.W.W.W.W.W.W.W.W.@ , ; K C.A.x.L ; o ; m M M m M m m 9 8 , o W.W.W.W.W.W.W.W.W.W.W.W.W.W.W.W.W.W.W.",
"W.W.W.W.W.W.W.W.W.W.W.W.W.W.W.W.W.W.W.o > ; r.S.J.T.T.k.1 , m m M M 9 m m 9 8 , + W.W.W.W.W.W.W.W.W.W.W.W.W.W.W.W.W.W.W.",
"W.W.W.W.W.W.W.W.W.W.W.W.W.W.W.W.W.W.X + , ; e.S.H.K.K.A.G : M m M 9 M m 9 9 5 1 @ . W.W.W.W.W.W.W.W.W.W.W.W.W.W.W.W.W.W.",
"W.W.W.W.W.W.W.W.W.W.W.W.W.W.W.W.W.W.X ; , - H B.F.F.S.N.t , m m m m m m 9 8 5 , @ o W.W.W.W.W.W.W.W.W.W.W.W.W.W.W.W.W.W.",
"W.W.W.W.W.W.W.W.W.W.W.W.W.W.W.W.W.W.X o , > @ K y.m.p.P ; 9 v m m 9 9 8 9 8 5 , o o W.W.W.W.W.W.W.W.W.W.W.W.W.W.W.W.W.W.",
"W.W.W.W.W.W.W.W.W.W.W.W.W.W.W.W.W.W.o o , 5 ; @ , r 1 ; < 9 8 8 5 8 8 8 8 5 5 , @ X W.W.W.W.W.W.W.W.W.W.W.W.W.W.W.W.W.W.",
"W.W.W.W.W.W.W.W.W.W.W.W.W.W.W.W.W.W.o o , , 5 , : : ; , 5 5 5 5 5 5 5 5 5 , ; ; o W.W.W.W.W.W.W.W.W.W.W.W.W.W.W.W.W.W.W.",
"W.W.W.W.W.W.W.W.W.W.W.W.W.W.W.W.W.W.o o o ; + ; ; ; : ; : ; ; ; ; @ ; @ o o o o o W.W.W.W.W.W.W.W.W.W.W.W.W.W.W.W.W.W.W.",
"W.W.W.W.W.W.W.W.W.W.W.W.W.W.W.W.W.X o @ o X o o o o X X X X o X o o @ @ > > > > o W.W.W.W.W.W.W.W.W.W.W.W.W.W.W.W.W.W.W.",
"W.W.W.W.W.W.W.W.W.W.W.W.W.W.W.W.W.W.o o X o @ @ : $ @ X W.W.W.W.o o $ 1 1 1 1 $ o W.W.W.W.W.W.W.W.W.W.W.W.W.W.W.W.W.W.W.",
"W.W.W.W.W.W.W.W.W.W.W.W.W.W.W.W.W.W.W.W.o X X o @ o o W.W.W.W.X @ > o : > $ @ @ o o W.W.W.W.W.W.W.W.W.W.W.W.W.W.W.W.W.W.",
"W.W.W.W.W.W.W.W.W.W.W.W.W.W.W.W.W.W.W.W.W.W.W.X X o X W.W.W.W.X 1 1 o o o o o o W.W.W.W.W.W.W.W.W.W.W.W.W.W.W.W.W.W.W.W.",
"W.W.W.W.W.W.W.W.W.W.W.W.W.W.W.W.W.W.W.W.W.W.W.W.W.W.X W.W.W.W.o o o X o o W.W.W.W.W.W.W.W.W.W.W.W.W.W.W.W.W.W.W.W.W.W.W.",
"W.W.W.W.W.W.W.W.W.W.W.W.W.W.W.W.W.W.W.W.W.W.W.W.W.W.W.W.W.W.W.W.W.W.W.W.W.W.W.W.W.W.W.W.W.W.W.W.W.W.W.W.W.W.W.W.W.W.W.W.",
"W.W.W.W.W.W.W.W.W.W.W.W.W.W.W.W.W.W.W.W.W.W.W.W.W.W.W.W.W.W.W.W.W.W.W.W.W.W.W.W.W.W.W.W.W.W.W.W.W.W.W.W.W.W.W.W.W.W.W.W.",
"W.W.W.W.W.W.W.W.W.W.W.W.W.W.W.W.W.W.W.W.W.W.W.W.W.W.W.W.W.W.W.W.W.W.W.W.W.W.W.W.W.W.W.W.W.W.W.W.W.W.W.W.W.W.W.W.W.W.W.W.",
"W.W.W.W.W.W.W.W.W.W.W.W.W.W.W.W.W.W.W.W.W.W.W.W.W.W.W.W.W.W.W.W.W.W.W.W.W.W.W.W.W.W.W.W.W.W.W.W.W.W.W.W.W.W.W.W.W.W.W.W."
};
