/* XPM */
static xpm_row_t const p1_left_0[] = {
/* columns rows colors chars-per-pixel */
"60 80 171 2 ",
"   c #141413",
".  c #181715",
"X  c #1A1917",
"o  c #1C1B1A",
"O  c #171718",
"+  c #211F1B",
"@  c #201C17",
"#  c #22211E",
"$  c #2E2417",
"%  c #332618",
"&  c #3C2C18",
"*  c #372917",
"=  c #1F1F21",
"-  c #252423",
";  c #282725",
":  c #2B2A26",
">  c #2B2B2B",
",  c #24212A",
"<  c #332D24",
"1  c #332F2B",
"2  c #3B3526",
"3  c #32322C",
"4  c #3C352E",
"5  c #3A3523",
"6  c #242435",
"7  c #333333",
"8  c #383737",
"9  c #3C3A34",
"0  c #3B3B3B",
"q  c #462F18",
"w  c #463219",
"e  c #443C1B",
"r  c #593716",
"t  c #5A3718",
"y  c #533B18",
"u  c #643D17",
"i  c #413727",
"p  c #503822",
"a  c #433C34",
"s  c #483E35",
"d  c #403F3E",
"f  c #694419",
"g  c #764518",
"h  c #6D501A",
"j  c #70611D",
"k  c #4E4520",
"l  c #4C4237",
"z  c #40403F",
"x  c #4C4239",
"c  c #51453A",
"v  c #554A3E",
"b  c #655A26",
"n  c #7B6D31",
"m  c #363C5D",
"M  c #383747",
"N  c #403F40",
"B  c #3A4062",
"V  c #434343",
"C  c #484748",
"Z  c #4B4B4B",
"A  c #594E42",
"S  c #5D5144",
"D  c #504F50",
"F  c #535353",
"G  c #5A5A5A",
"H  c #585857",
"J  c #685A4B",
"K  c #655648",
"L  c #60605F",
"P  c #796654",
"I  c #7D6C5A",
"U  c #766654",
"Y  c #4F536A",
"T  c #6B6B6A",
"R  c #77787C",
"E  c #8A4F19",
"W  c #8D521A",
"Q  c #925519",
"!  c #9A5A19",
"~  c #965819",
"^  c #8D631D",
"/  c #9E6219",
"(  c #986718",
")  c #9F7C18",
"_  c #A4631A",
"`  c #B9771C",
"'  c #9A622F",
"]  c #82603F",
"[  c #A36D3B",
"{  c #916842",
"}  c #816D5A",
"|  c #836B53",
" . c #85715D",
".. c #91765B",
"X. c #A06D40",
"o. c #A77240",
"O. c #8D7963",
"+. c #86776B",
"@. c #8B7761",
"#. c #807F7F",
"$. c #BD991B",
"%. c #A99438",
"&. c #BBA02A",
"*. c #C68B17",
"=. c #CF9C14",
"-. c #D5A81E",
";. c #E6BB1B",
":. c #CE982A",
">. c #C49F31",
",. c #C4A829",
"<. c #D3AB22",
"1. c #D1B22C",
"2. c #D4A635",
"3. c #D9B538",
"4. c #E1B728",
"5. c #E8BC36",
"6. c #EDC41D",
"7. c #EAC423",
"8. c #EEC92A",
"9. c #F5CE28",
"0. c #F4D037",
"q. c #B4875C",
"w. c #9C846C",
"e. c #96816A",
"r. c #A3876B",
"t. c #AA8C71",
"y. c #A48A71",
"u. c #AF9075",
"i. c #BC9C7E",
"p. c #B69C7F",
"a. c #C08F61",
"s. c #C99A6F",
"d. c #CAA178",
"f. c #D1A67B",
"g. c #E0C241",
"h. c #6C6F80",
"j. c #6E7288",
"k. c #818080",
"l. c #8D8C8B",
"z. c #929191",
"x. c #BAA081",
"c. c #9F9FA0",
"v. c #ACADB5",
"b. c #B3B2B1",
"n. c #B2B3BA",
"m. c #C2A384",
"M. c #CEAD8C",
"N. c #C7AA89",
"B. c #D6AD83",
"V. c #D3AF8E",
"C. c #D5B08E",
"Z. c #DFBD99",
"A. c #DAB694",
"S. c #E2BC95",
"D. c #E5C29D",
"F. c #E9C39E",
"G. c #ECC6A1",
"H. c #EDC9A3",
"J. c #EFCBAA",
"K. c #F3CDA6",
"L. c #EFD0B6",
"P. c #F3D2B5",
"I. c #BDBDC2",
"U. c #CAC9C9",
"Y. c #CECDD0",
"T. c #D5D5D6",
"R. c #DEDDDD",
"E. c #D8D7D9",
"W. c #F8DDC9",
"Q. c #E1E0E0",
"!. c #00b140",
/* pixels */
"!.!.!.!.!.!.!.!.!.!.!.!.!.!.!.!.!.!.!.!.!.!.!.!.!.!.!.!.!.!.!.!.!.!.!.!.!.!.!.!.!.!.!.!.!.!.!.!.!.!.!.!.!.!.!.!.!.!.!.!.",
"!.!.!.!.!.!.!.!.!.!.!.!.!.!.!.!.!.!.!.!.!.!.!.!.!.!.!.!.!.!.!.!.!.!.!.!.!.!.!.!.!.!.!.!.!.!.!.!.!.!.!.!.!.!.!.!.!.!.!.!.",
"!.!.!.!.!.!.!.!.!.!.!.!.!.!.!.!.!.!.!.!.!.!.!.!.!.!.!.!.!.!.!.!.!.!.!.!.!.!.!.!.!.!.!.!.!.!.!.!.!.!.!.!.!.!.!.!.!.!.!.!.",
"!.!.!.!.!.!.!.!.!.!.!.!.!.!.!.!.!.!.!.!.!.!.!.!.!.!.!.!.!.!.!.!.!.!.!.!.!.!.!.!.!.!.!.!.!.!.!.!.!.!.!.!.!.!.!.!.!.!.!.!.",
"!.!.!.!.!.!.!.!.!.!.!.!.!.!.!.!.!.!.!.!.!.!.!.!.!.!.!.!.!.!.!.!.!.!.!.!.!.!.!.!.!.!.!.!.!.!.!.!.!.!.!.!.!.!.!.!.!.!.!.!.",
"!.!.!.!.!.!.!.!.!.!.!.!.!.!.!.!.!.!.!.!.!.!.!.!.!.!.!.!.!.!.!.!.!.!.o o o o !.!.!.!.!.!.!.!.!.!.!.!.!.!.!.!.!.!.!.!.!.!.",
"!.!.!.!.!.!.!.!.!.!.!.!.!.!.!.!.!.!.!.!.!.!.!.!.!.!.X   X X o o # > 8 Z z o X !.!.!.!.!.!.!.!.!.!.!.!.!.!.!.!.!.!.!.!.!.",
"!.!.!.!.!.!.!.!.!.!.!.!.!.!.!.!.!.!.!.!.!.!.!.X o - > 8 0 z V Z F H G G F 7 o X !.!.!.!.!.!.!.!.!.!.!.!.!.!.!.!.!.!.!.!.",
"!.!.!.!.!.!.!.!.!.!.!.!.!.!.!.!.!.!.!.!.o o # 7 V F H G G G G L G H F H H F C , O !.!.!.!.!.!.!.!.!.!.!.!.!.!.!.!.!.!.!.",
"!.!.!.!.!.!.!.!.!.!.!.!.!.!.!.!.!.!.!.o - 0 F G G H G G G L G G H H F H H G G D > o !.!.!.!.!.!.!.!.!.!.!.!.!.!.!.!.!.!.",
"!.!.!.!.!.!.!.!.!.!.!.!.!.!.!.!.!.o # 0 F L G G G G G G G G G G G G G G H H G G H z - X !.!.!.!.!.!.!.!.!.!.!.!.!.!.!.!.",
"!.!.!.!.!.!.!.!.!.!.!.!.!.!.!.!.o > Z G G G G G G G G G G L G G G G G H H H G F H H Z : X !.!.!.!.!.!.!.!.!.!.!.!.!.!.!.",
"!.!.!.!.!.!.!.!.!.!.!.!.!.!.X o 7 F G G L G G Y G G G G G H G G H G H H H H H H H H H F > O !.!.!.!.!.!.!.!.!.!.!.!.!.!.",
"!.!.!.!.!.!.!.!.!.!.!.!.!.X # 0 G L G G G G G G G H H G H H H H F H H F H F H H H H H G F > o !.!.!.!.!.!.!.!.!.!.!.!.!.",
"!.!.!.!.!.!.!.!.!.!.!.!.X # V G G G G G G G G G H H H H F H F F F F F D D F D D D D D F G F > o !.!.!.!.!.!.!.!.!.!.!.!.",
"!.!.!.!.!.!.!.!.!.!.!.X - C G G G G G G G G H F F F F F F F F F H F D F F D F D D F F D D H F - X !.!.!.!.!.!.!.!.!.!.!.",
"!.!.!.!.!.!.!.!.!.!.o + V G G G G H H H F F F F H F F F H F F F F F D F D F D D Z D D Z C Z Z 7 o X !.!.!.!.!.!.!.!.!.!.",
"!.!.!.!.!.!.!.!.!.!.o z G G G F F F F F H H H H F F F F F F F D D D F D D D D Z D D C Z C Z C 0 3 X !.!.!.!.!.!.!.!.!.!.",
"!.!.!.!.!.!.!.!.!.o 7 H G H H H H H F F F F D D Z F Z F F F F F F D D F D D D D Z Z Z Z Z Z C z 7 - X !.!.!.!.!.!.!.!.!.",
"!.!.!.!.!.!.!.!.X ; H G H F D F F F F D D F D D F F F F F D Z F D F D D D Z Z Z Z Z C C C C Z z 8 7 - !.!.!.!.!.!.!.!.!.",
"!.!.!.!.!.!.!.!.o V G F Z D F F D F F D F D D D D F F F F F Z D D D Z Z D D Z Z Z C C C V C C 0 8 8 > O !.!.!.!.!.!.!.!.",
"!.!.!.!.!.!.!.X : H H F D D D D D D F F D F F D F F D Z Z Z Z Z C Z D Z Z Z C C C C V z V C 0 0 0 7 7 = !.!.!.!.!.!.!.!.",
"!.!.!.!.!.!.!.X d F C C C C D D D F D Z Z D Z Z Z D D D Z C Z Z Z Z Z Z C Z C C V V N N C 0 0 0 8 7 7 - X !.!.!.!.!.!.!.",
"!.!.!.!.!.!.!.+ Z V z z d z V V C C C C Z Z C C V C Z Z Z Z Z Z Z C C C C C C V V z V C z 0 0 0 0 8 0 > o !.!.!.!.!.!.!.",
"!.!.!.!.!.!.!.o 8 0 0 M M C C C V z V V C C Z C C Z C Z Z Z C Z C C C V V V V z z V C z 0 0 z 0 0 M 8 7 - X !.!.!.!.!.!.",
"!.!.!.!.!.!.!.o > 8 V z V V z C C C C C C Z C C V V V V V V V z z V V V z z V V V 0 0 0 0 z 0 0 0 8 8 7 , o !.!.!.!.!.!.",
"!.!.!.!.!.!.!.X - 8 d 0 0 0 0 N z V V C V V V V V V V N z z 0 0 z V V V C C V 0 M 0 0 0 z z 0 0 0 8 8 7 > o !.!.!.!.!.!.",
"!.!.!.!.!.!.!.!.X : 8 0 0 0 8 0 0 0 z z V V z V V V V 0 0 z V 0 z V V C V 0 0 0 z 0 z z z z 0 0 0 8 8 7 7 # !.!.!.!.!.!.",
"!.!.!.!.!.!.!.!.X o > 7 8 8 8 8 0 0 M 0 z z V z V V V V 0 C C C V V V V 0 0 0 z z z z z 0 0 0 0 8 8 8 7 3 = o !.!.!.!.!.",
"!.!.!.!.!.!.!.!.!.X o - > 7 8 8 8 0 8 8 0 0 0 0 z 0 0 0 0 0 z 0 0 0 0 0 0 0 0 z z z 0 0 0 0 0 0 8 8 0 7 3 - X !.!.!.!.!.",
"!.!.!.!.!.!.!.!.!.!.X @ - > > > 7 8 8 0 0 0 0 0 0 0 0 0 0 0 0 0 0 0 0 0 z 0 V 0 0 z 0 0 0 0 0 7 8 8 0 7 > - o !.!.!.!.!.",
"!.!.!.!.!.!.!.!.!.!.$ u % o - > > 7 7 8 7 0 0 0 M 0 0 0 0 0 0 0 0 0 z 0 0 0 0 V z 0 0 z 0 0 0 7 0 0 7 7 7 - o !.!.!.!.!.",
"!.!.!.!.!.!.!.!.!.!.# u r X o o = ; > 7 7 7 0 0 0 z 0 0 0 0 0 0 0 0 0 z z z 0 0 0 0 0 0 0 0 7 0 0 0 7 7 3 ; o !.!.!.!.!.",
"!.!.!.!.!.!.!.!.!.!.X @ # l I I x + + > 7 0 7 0 8 8 0 8 8 0 0 0 0 0 0 0 0 0 0 0 7 0 0 0 0 7 7 0 8 7 7 > 3 : o !.!.!.!.!.",
"!.!.!.!.!.!.!.!.!.!.!.  i x.D.D.N.@.9 o ; 7 7 7 8 0 8 0 0 z z z 0 0 0 0 8 7 7 7 0 0 0 0 7 7 0 0 7 7 7 7 > > # !.!.!.!.!.",
"!.!.!.!.!.!.!.!.!.!.!.  J F.H.H.Z.d.{ p + - > 7 7 M 0 8 0 0 0 0 0 0 8 8 8 M 8 7 7 0 7 7 0 0 0 7 7 7 7 > > > + !.!.!.!.!.",
"!.!.!.!.!.!.!.!.!.!.!.X I S.H.B.' Q W W y # : 3 7 7 7 8 0 7 0 7 8 0 8 0 8 7 8 8 0 7 7 0 7 0 0 7 0 7 > > > > # !.!.!.!.!.",
"!.!.!.!.!.!.!.!.!.!.!.X  .H.B.[ [ q.f.s.[ 5 = > 7 7 8 8 7 0 7 0 8 7 7 7 7 8 0 7 7 0 0 0 0 0 7 7 7 > > > > > # !.!.!.!.!.",
"!.!.!.!.!.!.!.!.!.!.!.X ..f.[ r.w.I U  .t.r.> - > 7 7 8 7 7 7 7 7 7 8 8 8 8 7 0 0 7 0 7 7 7 7 7 7 > > > > 6 O !.!.!.!.!.",
"!.!.!.!.!.!.!.!.!.!.!.+ ] q...a 8 G T D 8 I U O > 7 7 7 7 7 7 0 0 7 7 8 8 7 0 7 0 7 7 0 7 0 7 7 7 > > > - - o !.!.!.!.!.",
"!.!.!.!.!.!.!.!.!.!.!.@ | } = 6 Y Y.R.U.e.S x.> ; 7 > 7 7 7 7 7 7 8 7 7 7 7 7 7 7 7 0 7 7 > 7 7 > > > ; > # o !.!.!.!.!.",
"!.!.!.!.!.!.!.!.!.!.!.X 4 7 , 6 m v.Q.U.z.Z D.S = > 7 > 7 > > 7 7 7 7 7 > 7 7 7 7 7 7 7 7 > > > > > > > > + o !.!.!.!.!.",
"!.!.!.!.!.!.!.!.!.!.!.o o R M 6 m n.R.U.e.J J. .o > > 7 > > 7 7 7 > 7 6 7 7 > 7 7 7 > 7 > 7 > > 7 > ; ; - o !.!.!.!.!.!.",
"!.!.!.!.!.!.!.!.!.!.!.X o T R B j.E.R.U.Y O.K.e.o > > > 7 7 > 7 > 7 7 7 > 7 7 7 > > > > > 7 > 3 > > ; > # O !.!.!.!.!.!.",
"!.!.!.!.!.!.!.!.!.!.!.o c 9 c.I.T.Q.T.z.9 M.J.I o > > > > 7 > 7 7 > 7 > 7 > > > > > 7 > 7 > > > > ; > ; # !.!.!.!.!.!.!.",
"!.!.!.!.!.!.!.!.!.!.!.X } U d l.n.v.e.9 w.G. .# o ; , > > > > > > > > > > > 7 > 7 7 > 7 7 > > > > , > - o !.!.!.!.!.!.!.",
"!.!.!.!.!.!.!.!.!.!.!.o < v v 4 7 0 x y.S. .5 5 O > > > 7 7 > > > > > 7 7 7 > 7 > 7 > > > 6 - > ; > > O !.!.!.!.!.!.!.!.",
"!.!.!.!.!.!.!.!.!.!.!.X k b < 9 J e.p.w.l 5 %.b = ; > > > > 7 7 7 > > > > > > > > > > > > > > - ; > = O !.!.!.!.!.!.!.!.",
"!.!.!.!.!.!.!.!.!.!.!.O h ;.,.j 5 5 5 5 n 3.6.e + > - > > > > 7 > 7 > > > > ; ; > ; > > > - > > - = X !.!.!.!.!.!.!.!.!.",
"!.!.!.!.!.!.!.!.!.!.!.o q ) &.1.g.&.$.<.0.9.$.% - ; - > > > > > > > > > > > > > ; > ; ; - > > - O O !.!.!.!.!.!.!.!.!.!.",
"!.!.!.!.!.!.!.!.!.!.!.!.o y >.8.6.;.6.-.<.4.( # - > > > , > > > > > 6 > > > > ; ; ; > , > - o X . !.!.!.!.!.!.!.!.!.!.!.",
"!.!.!.!.!.!.!.!.!.!.!.!.O y :.5.;.;.6.4.3.2.( # - - > - > ; ; ; > > ; > > ; > ; ; > - - o X . !.!.!.!.!.!.!.!.!.!.!.!.!.",
"!.!.!.!.!.!.!.!.!.!.!.!.o % / ` *.=.*.:.2.^ w o = > ; > ; ; ; > ; > - ; ; - - - = o O O   !.!.!.!.!.!.!.!.!.!.!.!.!.!.!.",
"!.!.!.!.!.!.!.!.!.!.!.!.!.% W ! _ / ` ( w o o O o # - # = = = + o o o o o o O O O   !.!.!.!.!.!.!.!.!.!.!.!.!.!.!.!.!.!.",
"!.!.!.!.!.!.!.!.!.!.!.!.!.o f ~ W W ~ f O o o = = # # # o O o o > 7 7 0 > - O !.!.!.!.!.!.!.!.!.!.!.!.!.!.!.!.!.!.!.!.!.",
"!.!.!.!.!.!.!.!.!.!.!.!.!.O & Q ~ Q W * X o 7 z 0 M C V - 3 z + z D F Z N 7 + !.!.!.!.!.!.!.!.!.!.!.!.!.!.!.!.!.!.!.!.!.",
"!.!.!.!.!.!.!.!.!.!.!.!.!.!.# g ! E w X o # 8 V z Z H Z # C H : 7 H H D V 0 : o !.!.!.!.!.!.!.!.!.!.!.!.!.!.!.!.!.!.!.!.",
"!.!.!.!.!.!.!.!.!.!.!.!.!.!.o t ~ g # X X ; 8 z z V F 8 ; F D > - F F D C 0 7 o !.!.!.!.!.!.!.!.!.!.!.!.!.!.!.!.!.!.!.!.",
"!.!.!.!.!.!.!.!.!.!.!.!.!.!.X % r $ o !.o 3 8 N z C V - > F C 3 = Z F Z V 0 8 # X !.!.!.!.!.!.!.!.!.!.!.!.!.!.!.!.!.!.!.",
"!.!.!.!.!.!.!.!.!.!.!.!.!.!.!.X o o !.o # 8 0 N z V z o 7 Z V 7 = 0 D Z V z 0 - o !.!.!.!.!.!.!.!.!.!.!.!.!.!.!.!.!.!.!.",
"!.!.!.!.!.!.!.!.!.!.!.!.!.!.!.!.+ !.!.o - 8 0 z z V 0 = 7 V V 7 = 7 Z V z 0 z > o !.!.!.!.!.!.!.!.!.!.!.!.!.!.!.!.!.!.!.",
"!.!.!.!.!.!.!.!.!.!.!.!.!.!.!.!.!.!.!.o > 8 0 z z z 3 = 7 8 8 8 = 7 C z V 0 z > o !.!.!.!.!.!.!.!.!.!.!.!.!.!.!.!.!.!.!.",
"!.!.!.!.!.!.!.!.!.!.!.!.!.!.!.!.!.!.!.o > 0 8 0 z z > O # = = = O : z z z z 8 > o !.!.!.!.!.!.!.!.!.!.!.!.!.!.!.!.!.!.!.",
"!.!.!.!.!.!.!.!.!.!.!.!.!.!.!.!.!.!.!.o > 8 8 0 z z = v I +.+.I v # 0 V z 0 8 7 + o !.!.!.!.!.!.!.!.!.!.!.!.!.!.!.!.!.!.",
"!.!.!.!.!.!.!.!.!.!.!.!.!.!.!.!.!.!.!.o > 7 8 0 M 4 < i.H.P.W.P.M.4 3 V z 0 0 > = X !.!.!.!.!.!.!.!.!.!.!.!.!.!.!.!.!.!.",
"!.!.!.!.!.!.!.!.!.!.!.!.!.!.!.!.!.!.!.o > 7 8 0 z > 4 M.H.J.L.J.A.v > z 0 8 7 > - o !.!.!.!.!.!.!.!.!.!.!.!.!.!.!.!.!.!.",
"!.!.!.!.!.!.!.!.!.!.!.!.!.!.!.!.!.!.!.= > 7 7 8 0 7 ; y.D.H.H.F.x.9 > 0 0 8 7 > + o !.!.!.!.!.!.!.!.!.!.!.!.!.!.!.!.!.!.",
"!.!.!.!.!.!.!.!.!.!.!.!.!.!.!.!.!.!.!.o > > 7 7 0 7 # l u.C.C.i.K # 8 8 8 7 7 > + o !.!.!.!.!.!.!.!.!.!.!.!.!.!.!.!.!.!.",
"!.!.!.!.!.!.!.!.!.!.!.!.!.!.!.!.!.!.!.+ > > > 7 3 7 > # : x c 1 # > 7 7 7 7 > ; + o !.!.!.!.!.!.!.!.!.!.!.!.!.!.!.!.!.!.",
"!.!.!.!.!.!.!.!.!.!.!.!.!.!.!.!.!.!.!.o o o # - - - - - + o o + - - - - + - + o o !.!.!.!.!.!.!.!.!.!.!.!.!.!.!.!.!.!.!.",
"!.!.!.!.!.!.!.!.!.!.!.!.!.!.!.!.!.!.!.!.!.o X X X o o o o o o o o # # # # + o !.!.!.!.!.!.!.!.!.!.!.!.!.!.!.!.!.!.!.!.!.",
"!.!.!.!.!.!.!.!.!.!.!.!.!.!.!.!.!.!.!.!.!.o - : X # : # # o @ o $ 3 3 3 3 ; X !.!.!.!.!.!.!.!.!.!.!.!.!.!.!.!.!.!.!.!.!.",
"!.!.!.!.!.!.!.!.!.!.!.!.!.!.!.!.!.!.!.!.!.X : # o o # # o # 9 $ o : : : < # o !.!.!.!.!.!.!.!.!.!.!.!.!.!.!.!.!.!.!.!.!.",
"!.!.!.!.!.!.!.!.!.!.!.!.!.!.!.!.!.!.!.!.!.o o o o X X o X o ; # o o # # + @ o !.!.!.!.!.!.!.!.!.!.!.!.!.!.!.!.!.!.!.!.!.",
"!.!.!.!.!.!.!.!.!.!.!.!.!.!.!.!.!.!.!.!.!.!.!.!.!.!.!.!.!.o X o X o o X o o !.!.!.!.!.!.!.!.!.!.!.!.!.!.!.!.!.!.!.!.!.!.",
"!.!.!.!.!.!.!.!.!.!.!.!.!.!.!.!.!.!.!.!.!.!.!.!.!.!.!.!.!.!.!.!.!.!.!.!.!.!.!.!.!.!.!.!.!.!.!.!.!.!.!.!.!.!.!.!.!.!.!.!.",
"!.!.!.!.!.!.!.!.!.!.!.!.!.!.!.!.!.!.!.!.!.!.!.!.!.!.!.!.!.!.!.!.!.!.!.!.!.!.!.!.!.!.!.!.!.!.!.!.!.!.!.!.!.!.!.!.!.!.!.!.",
"!.!.!.!.!.!.!.!.!.!.!.!.!.!.!.!.!.!.!.!.!.!.!.!.!.!.!.!.!.!.!.!.!.!.!.!.!.!.!.!.!.!.!.!.!.!.!.!.!.!.!.!.!.!.!.!.!.!.!.!.",
"!.!.!.!.!.!.!.!.!.!.!.!.!.!.!.!.!.!.!.!.!.!.!.!.!.!.!.!.!.!.!.!.!.!.!.!.!.!.!.!.!.!.!.!.!.!.!.!.!.!.!.!.!.!.!.!.!.!.!.!.",
"!.!.!.!.!.!.!.!.!.!.!.!.!.!.!.!.!.!.!.!.!.!.!.!.!.!.!.!.!.!.!.!.!.!.!.!.!.!.!.!.!.!.!.!.!.!.!.!.!.!.!.!.!.!.!.!.!.!.!.!."
};
