/* XPM */
static xpm_row_t const p1_left_5[] = {
/* columns rows colors chars-per-pixel */
"60 90 187 2 ",
"   c #161513",
".  c #181716",
"X  c #1A1917",
"o  c #1C1B19",
"O  c #211E1C",
"+  c #2C2317",
"@  c #22211E",
"#  c #2A2218",
"$  c #342717",
"%  c #362718",
"&  c #3B2918",
"*  c #382614",
"=  c #38331B",
"-  c #201F29",
";  c #252423",
":  c #292623",
">  c #2A2926",
",  c #2B2B2B",
"<  c #24202C",
"1  c #322C26",
"2  c #332E2A",
"3  c #33322B",
"4  c #3C352E",
"5  c #39392E",
"6  c #252536",
"7  c #333333",
"8  c #393735",
"9  c #3B3B3B",
"0  c #383837",
"q  c #442F19",
"w  c #4C3218",
"e  c #41351C",
"r  c #51361A",
"t  c #583817",
"y  c #413B22",
"u  c #453D34",
"i  c #4A3F35",
"p  c #5E5119",
"a  c #5C431B",
"s  c #794716",
"d  c #724318",
"f  c #7B4718",
"g  c #734A19",
"h  c #7C5E1B",
"j  c #4C4424",
"k  c #5E5324",
"l  c #4C4236",
"z  c #41403F",
"x  c #554A3E",
"c  c #594C3F",
"v  c #725A2F",
"b  c #6C6027",
"n  c #706331",
"m  c #2C304C",
"M  c #353B5E",
"N  c #303659",
"B  c #383843",
"V  c #343B60",
"C  c #403F40",
"Z  c #434343",
"A  c #494947",
"S  c #484748",
"D  c #4B4B4B",
"F  c #5A4E41",
"G  c #504F4F",
"H  c #5A534B",
"J  c #504F50",
"K  c #535353",
"L  c #5A5A5A",
"P  c #585858",
"I  c #6A5B4B",
"U  c #675647",
"Y  c #7C5E41",
"T  c #6F6257",
"R  c #7A6956",
"E  c #4E5269",
"W  c #5E6276",
"Q  c #6C6C6B",
"!  c #616160",
"~  c #706F6E",
"^  c #737272",
"/  c #834B18",
"(  c #8B4F19",
")  c #864914",
"_  c #8C5218",
"`  c #875319",
"'  c #925518",
"]  c #9A5C19",
"[  c #975919",
"{  c #99661B",
"}  c #A36219",
"|  c #A36F17",
" . c #B37119",
".. c #BC7C19",
"X. c #B47B1B",
"o. c #A57218",
"O. c #935926",
"+. c #985E2B",
"@. c #9D6634",
"#. c #876E24",
"$. c #A36D3B",
"%. c #85725E",
"&. c #8A725B",
"*. c #856D59",
"=. c #A97443",
"-. c #AE7A4A",
";. c #8B7661",
":. c #8E7963",
">. c #937D66",
",. c #957F68",
"<. c #BF9014",
"1. c #9F8928",
"2. c #B79F34",
"3. c #C79B19",
"4. c #D5A51A",
"5. c #DEB41D",
"6. c #D7B21A",
"7. c #E5BB18",
"8. c #CC8F2A",
"9. c #CE9630",
"0. c #D0972A",
"q. c #C6A727",
"w. c #D8A927",
"e. c #DAB526",
"r. c #C5AC3E",
"t. c #DDB93B",
"y. c #E2BB21",
"u. c #E5BC35",
"i. c #EDC41D",
"p. c #ECC420",
"a. c #F2CD2A",
"s. c #F7D024",
"d. c #F4D03B",
"f. c #B68657",
"g. c #BE8E5F",
"h. c #9A836B",
"j. c #A0876E",
"k. c #B38961",
"l. c #A48B71",
"z. c #A89074",
"x. c #B89877",
"c. c #E6BF41",
"v. c #C0966B",
"b. c #D3A97F",
"n. c #DFC041",
"m. c #F4D341",
"M. c #ECC845",
"N. c #81838F",
"B. c #91929A",
"V. c #BDA183",
"C. c #999BA6",
"Z. c #AFB0B6",
"A. c #B5B4B5",
"S. c #BBB9B9",
"D. c #A8A9B1",
"F. c #C3A284",
"G. c #CCA683",
"H. c #CBAB8A",
"J. c #D2AD8C",
"K. c #D6B491",
"L. c #D9B491",
"P. c #DCB995",
"I. c #DDBE99",
"U. c #DAB189",
"Y. c #E2BC95",
"T. c #E4BF9B",
"R. c #C0BEBE",
"E. c #D4BAA5",
"W. c #E4C19C",
"Q. c #E9C49F",
"!. c #ECC6A2",
"~. c #EDC9A3",
"^. c #EFCDAF",
"/. c #F1CBA5",
"(. c #F0CDAC",
"). c #EFCEB1",
"_. c #E5CDBB",
"`. c #F2D3B9",
"'. c #C7C5C5",
"]. c #CCCBCC",
"[. c #CDCDD0",
"{. c #D4D3D4",
"}. c #D7D6D7",
"|. c #E0DFDF",
" X c #F8DCC8",
".X c #E4E3E2",
"XX c #00B140",
/* pixels */
"XXXXXXXXXXXXXXXXXXXXXXXXXXXXXXXXXXXXXXXXXXXXXXXXXXXXXXXXXXXXXXXXXXXXXXXXXXXXXXXXXXXXXXXXXXXXXXXXXXXXXXXXXXXXXXXXXXXXXXXX",
"XXXXXXXXXXXXXXXXXXXXXXXXXXXXXXXXXXXXXXXXXXXXXXXXXXXXXXXXXXXXXXXXXXXXXXXXXXXXXXXXXXXXXXXXXXXXXXXXXXXXXXXXXXXXXXXXXXXXXXXX",
"XXXXXXXXXXXXXXXXXXXXXXXXXXXXXXXXXXXXXXXXXXXXXXXXXXXXXXXXXXXXXXXXXXXXXXXXXXXXXXXXXXXXXXXXXXXXXXXXXXXXXXXXXXXXXXXXXXXXXXXX",
"XXXXXXXXXXXXXXXXXXXXXXXXXXXXXXXXXXXXXXXXXXXXXXXXXXXXXXXXXXXXXXXXXXXXXXXXXXXXXXXXXXXXXXXXXXXXXXXXXXXXXXXXXXXXXXXXXXXXXXXX",
"XXXXXXXXXXXXXXXXXXXXXXXXXXXXXXXXXXXXXXXXXXXXXXXXXXXXXXXXXXXXXXXXXXXXXXXXXXXXXXXXXXXXXXXXXXXXXXXXXXXXXXXXXXXXXXXXXXXXXXXX",
"XXXXXXXXXXXXXXXXXXXXXXXXXXXXXXXXXXXXXXXXXXXXXXXXXXXXXXXXXXXXXXXXXXXXXXXXXXXXXXXXXXXXXXXXXXXXXXXXXXXXXXXXXXXXXXXXXXXXXXXX",
"XXXXXXXXXXXXXXXXXXXXXXXXXXXXXXXXXXXXXXXXXXXXXXXXXXXXXXXXXXXXXXXXX o o o XXXXXXXXXXXXXXXXXXXXXXXXXXXXXXXXXXXXXXXXXXXXXXXX",
"XXXXXXXXXXXXXXXXXXXXXXXXXXXXXXXXXXXXXXXXXXXXXXXXXXXXXXXXXXo o o > z Z @ o XXXXXXXXXXXXXXXXXXXXXXXXXXXXXXXXXXXXXXXXXXXXXX",
"XXXXXXXXXXXXXXXXXXXXXXXXXXXXXXXXXXXXXXXXXXXXXXo o . o o @ , 0 D K ! P 0 ; X X XXXXXXXXXXXXXXXXXXXXXXXXXXXXXXXXXXXXXXXXXX",
"XXXXXXXXXXXXXXXXXXXXXXXXXXXXXXXXXXXXXXXXo o o @ , 0 C A K P L L L L P J A 7 o X XXXXXXXXXXXXXXXXXXXXXXXXXXXXXXXXXXXXXXXX",
"XXXXXXXXXXXXXXXXXXXXXXXXXXXXXXXXXXXXo o @ 3 S K P L L ! L L L P K K K L L L Z ; X X XXXXXXXXXXXXXXXXXXXXXXXXXXXXXXXXXXXX",
"XXXXXXXXXXXXXXXXXXXXXXXXXXXXXXXX. o ; 9 K L P P L L L L L L K P K P P L L L L K 9 ; X XXXXXXXXXXXXXXXXXXXXXXXXXXXXXXXXXX",
"XXXXXXXXXXXXXXXXXXXXXXXXXXXXXXX ; 9 K L P P L L L L L L L L L L L L P P P L P L L D 7 o X XXXXXXXXXXXXXXXXXXXXXXXXXXXXXX",
"XXXXXXXXXXXXXXXXXXXXXXXXXXX o 3 J L L L L L L ! L L ! L L L ! L L L P L P P P K P K K Z @ X XXXXXXXXXXXXXXXXXXXXXXXXXXXX",
"XXXXXXXXXXXXXXXXXXXXXXXXo @ B L ! L ! L L L L L L L L L L L L L L K K K K P P L L L P L D : X XXXXXXXXXXXXXXXXXXXXXXXXXX",
"XXXXXXXXXXXXXXXXXXXXXXX ; A L L L L L L L L L L L L P L P P P L L P L P L P P P K L P L L G 3 X X XXXXXXXXXXXXXXXXXXXXXX",
"XXXXXXXXXXXXXXXXXXXXo > D L L L L L L L L L L L P P L P P P P K K K K K K K J K K J J K P L K 7 o o XXXXXXXXXXXXXXXXXXXX",
"XXXXXXXXXXXXXXXXXXX > D L L ! L L L L L L L L L P K P K K K K K K K D K K J K J J K K J J K P K , o XXXXXXXXXXXXXXXXXXXX",
"XXXXXXXXXXXXXXXX. , G L L L L L ! L L L L L K K P P K K K P K K K K K J J K J J G G J G S S D D 9 ; X XXXXXXXXXXXXXXXXXX",
"XXXXXXXXXXXXXXX > K L L L L L L L L L L K K K K K K K K P K K K K K K K K D J J D J J S S S D S 9 0 ; o XXXXXXXXXXXXXXXX",
"XXXXXXXXXXXXX ; D L L L L L L L P K K K K K K K K P K K K J J K D K K D J J D D G G A D D D D S Z 0 7 - . XXXXXXXXXXXXXX",
"XXXXXXXXXXX O Z L L ! L L P K K K K K P K L K K K K K K J K J K K K K K J D J J D D D D D D S S S 0 0 , o X XXXXXXXXXXXX",
"XXXXXXXXXXo 9 L L L L K K K K K P P K P K K K K J K J K K J K K K K K D J J D S D J D A D Z Z S Z 9 0 0 , o XXXXXXXXXXXX",
"XXXXXXXXo , K L L L K K P P P K K K J G G G K K K J K K J J D K G K K D D D D J D S D S Z Z S S C 9 0 7 7 O X XXXXXXXXXX",
"XXXXXXX O D L L L K K K K K J J K J J J J K J K J G J G D D K K G G D G G D D D D S S Z C C S C 9 9 0 7 7 , o XXXXXXXXXX",
"XXXXXXX 0 L L K J J K K K J K K J K J J K J K J K K D G K D D D S D D G A A A A S S Z Z C Z Z 9 9 9 9 7 0 3 - o XXXXXXXX",
"XXXXX @ G L K D D G K J J K K J J K K J J K K J K K G A A A S G G G S G D A D S Z Z Z 9 Z Z 9 9 9 9 0 0 9 7 , o XXXXXXXX",
"XXXXX 7 L P K K K K J G G J J J G J G G J D J J D D A A D A G G S S S S S S S Z Z Z C Z S C 9 9 B 9 0 9 9 0 , @ X XXXXXX",
"XXXXo S P J D D D D K K J J J G D D J S S D S S A D D D D D S S A A S S S Z Z Z C C Z S C 9 9 9 9 9 9 9 0 0 , , X XXXXXX",
"XXX ; K D C Z Z Z Z Z D D D D S D D S S S S S S A D A S A D S S A A Z Z B C 9 C Z Z C 9 9 9 z z 9 9 9 9 0 0 7 , O o XXXX",
"XXX , K C C B 9 9 Z D Z Z Z Z Z Z A A S S S S S D D A S S S Z C Z Z Z Z C Z Z S Z 9 9 9 9 z 9 C 9 9 9 9 0 0 0 , ; X XXXX",
"XXX ; u 9 9 z z Z Z S S Z Z Z Z S A A S S S S Z Z B Z C B C 9 C B Z Z Z S S Z 9 9 9 9 9 9 C Z 9 9 9 9 0 0 9 7 7 > X XXXX",
"XXo @ , 7 C z Z Z C C C Z Z S S S Z Z S Z C Z Z Z C C C C 9 C Z Z Z S Z Z C 9 9 9 C C C C 9 9 9 9 C 9 0 0 0 7 7 - o o XX",
"XXXXo > 7 z C 9 9 9 0 B C C C Z Z Z Z C Z Z Z Z Z C 9 0 C Z Z C C Z Z C C 9 9 9 9 9 C 9 Z C 9 9 9 9 0 0 9 0 0 7 , @ @ XX",
"XXXXX @ 3 7 9 9 9 9 9 0 9 9 9 C C C C Z C C Z Z Z Z Z Z Z Z A Z Z C 9 9 9 9 C 9 C C C 9 9 9 9 9 9 0 0 0 9 0 7 7 , ; o XX",
"XXXXXXo ; , 7 0 0 0 9 0 0 9 9 C C 9 C C C Z C Z C 9 C 0 0 C C 9 9 9 9 9 9 9 Z 9 9 9 C C 9 9 9 9 9 9 7 0 0 0 7 7 , ; o XX",
"XXXXXXXXX O , 7 0 0 0 9 0 9 9 7 7 0 9 9 9 C 9 9 9 C 9 9 9 0 0 0 0 0 9 9 C C 9 9 C C 9 9 9 9 9 9 9 7 0 0 9 0 7 , 3 ; O XX",
"XXXXXXXXXXo o ; , , 7 7 7 0 9 0 9 9 0 9 0 0 9 0 0 9 0 9 9 9 B 9 9 9 C 9 9 9 9 Z 9 C 9 0 9 9 C 0 0 0 0 0 0 7 7 7 , > O o ",
"XXXXXXXXXX. o o o ; , , , 7 7 0 7 0 7 C 9 C 9 9 9 9 9 C 9 C C 9 9 9 9 9 C C 9 C 9 0 0 9 9 C B 0 7 0 0 9 0 7 7 , , , o o ",
"XXXXXXXXXXo + r $ o o ; > , , 3 7 7 7 7 0 9 C C 9 9 9 9 9 0 9 9 9 9 C C 9 9 9 9 0 0 0 9 9 9 0 7 0 0 B 0 7 7 , 7 , , @ o ",
"XXXXXXXXXXX # f s *   o o o @ > 7 7 0 0 7 0 0 0 0 B 7 7 0 9 9 9 C 9 9 9 9 0 0 7 0 0 B 9 B 0 0 0 0 0 9 7 7 7 7 , , 7 @ X ",
"XXXXXXXXXXXXX % = o 1 U U l @ o @ , 3 0 0 7 0 9 0 9 9 9 C C C C 9 0 9 9 0 0 0 0 7 7 0 0 0 7 0 0 0 9 0 7 7 7 , , , , @ X ",
"XXXXXXXXXXXX  . X x l.K.K.V.h.x ; @ ; , 7 0 7 0 0 0 0 9 9 C 9 9 9 9 0 0 B 0 0 7 7 0 9 0 0 0 0 0 B 0 7 0 7 7 , , , , @ X ",
"XXXXXXXXXXXXXXXXX &.I././.~.I.x.I = O @ , , 7 0 9 0 9 9 0 7 7 0 0 9 0 0 0 7 7 7 0 0 7 0 0 0 0 B 7 7 0 7 7 , , , , , @ . ",
"XXXXXXXXXXXXXXXXo l.Q.Q.Q.G.-.@.( ` t o ; , 7 7 0 7 7 0 0 B 0 0 0 0 0 7 7 0 0 0 7 0 0 0 0 0 0 7 7 0 7 7 7 , , , , , @ o ",
"XXXXXXXXXXXXXXXX@ j.Y.Q.Y.@.) ' $.$.+.r o ; , , 7 7 9 7 7 7 7 7 7 7 7 7 0 0 0 7 0 0 B 0 7 0 0 0 9 7 7 , 7 , , , ; , o o ",
"XXXXXXXXXXXXXXXXO j.~.Y.-.+.g.U.Y.P.G.k.l . , 7 7 7 7 9 0 0 7 7 7 7 7 0 0 0 0 B 0 7 7 0 0 0 0 7 7 , 7 , , , , , , , o o ",
"XXXXXXXXXXXXXXXXo j.W.-.$.x.h.H u i F :.z.3 o , 7 7 7 , 7 7 7 7 0 0 0 0 7 7 7 7 7 0 0 0 0 7 7 7 7 7 7 , , , , ; , ; o XX",
"XXXXXXXXXXXXXXXXo &.f.-.>.y 2 K ~ Q D : h.:.o ; 3 , 7 7 7 7 7 7 7 7 0 7 7 7 7 7 7 7 7 , 7 , , 7 , 7 , , , , , ; , - o XX",
"XXXXXXXXXXXXXXXX$ v x.R - 6 W {.|.].R.L I K.l o , 7 7 , , 7 7 7 7 7 7 7 7 7 , 7 7 , 7 7 7 7 7 7 , , , , , , , , , @ o XX",
"XXXXXXXXXXXXXXXXX I %.O - m V D..X{.'.^ c ~.%.o , , , 7 , 7 7 7 7 , , 7 7 , 7 7 7 , , 7 , , , , , 7 7 7 , , ; , ; o X XX",
"XXXXXXXXXXXXXXXXX 2 2 B - - N B..X{.'.^ c ~.F.: ; , , 7 7 7 , , , 7 7 7 , 7 , 7 7 7 7 , 7 , , 7 , , , , , ; , , ; X XXXX",
"XXXXXXXXXXXXXXXX.   A N.- 6 V C..X{.'.L I /.L.5 o , , , 7 , 7 7 7 , 7 7 7 7 , 7 , , , , , 7 7 , 7 7 , - , , , , @ o XXXX",
"XXXXXXXXXXXXXXXXO O 1 C.E V W [..X}.A.5 h./.W.l o , , , , , , , , 7 , , , , , , , 7 7 7 7 , , 7 , , , ; ; , , , o XXXXXX",
"XXXXXXXXXXXXXXXX  O 2 L Z.Z.[..X}.].~ 4 K.Q.h.@ o ; , , 7 , , , , , , 6 7 , 7 , 7 , , 7 , 7 , , , ; , , , , , o o XXXXXX",
"XXXXXXXXXXXXXXXXO 1 >.1 ! A.].].S.^ > h./.z.@   @ , , ; , 7 7 7 , , , , , , , 7 , 7 , , , , , , , , ; , , ; o . XXXXXXXX",
"XXXXXXXXXXXXXXXX. : j.:.4 2 D J 8 1 :.Q.x.3 j j o , ; , , , 7 , 7 , 7 , , , , , ; , , , - , , , > > , , > o o XXXXXXXXXX",
"XXXXXXXXXXXXXXXXXXO O u c c x F R F.K.%., j r.j o ; , , 7 , , 7 7 7 , 7 , , , , , , ; , , ; ; , > , , ; o X XXXXXXXXXXXX",
"XXXXXXXXXXXXXXXXXXO k b = : u U %.T u - n n.y.= - ; ; , , , , , , , , , , , , , , , , , , , ; ; , < ; X X XXXXXXXXXXXXXX",
"XXXXXXXXXXXXXXXXXXX h 7.t.1.p y = e k 2.m.s.3.+ - , , ; , , , , , , , , , , , , , , ; , ; , , , ; o o . XXXXXXXXXXXXXXXX",
"XXXXXXXXXXXXXXXXXXX w 3.e.q.t.n.6.6.7.y.d.e.o.# @ , ; , , , - , - , , , , , , , > < > > > , ; o o .   XXXXXXXXXXXXXXXXXX",
"XXXXXXXXXXXXXXXXXXX X = #.q.s.i.e.i.5.3.e.w.o.# @ ; ; , ; , , , ; , ; , , , , ; , > < ; @ o X .   XXXXXXXXXXXXXXXXXXXXXX",
"XXXXXXXXXXXXXXXXXXXXo $ X.M.a.7.e.i.a.3.d.8.{ # @ , , , , ; ; , , , , ; ; - ; @ @ o o X . .   XXXXXXXXXXXXXXXXXXXXXXXXXX",
"XXXXXXXXXXXXXXXXXXXXX @ ` 8.0.4.7.3.4.t.t.{ = o o - , ; , ; ; @ @ @ @ @ o o o o X . . XXXXXXXXXXXXXXXXXXXXXXXXXXXXXXXXXX",
"XXXXXXXXXXXXXXXXXXXXXXX t }  . .X.....{ a o X X X o @ o o o o o X X X ; , 0 0 , O   XXXXXXXXXXXXXXXXXXXXXXXXXXXXXXXXXXXX",
"XXXXXXXXXXXXXXXXXXXXXXX r ' ' } [ [  .g o   X o X @ O ; ; > ; o , 3 o O 7 Z D 9 7 O o XXXXXXXXXXXXXXXXXXXXXXXXXXXXXXXXXX",
"XXXXXXXXXXXXXXXXXXXXXXX $ g ] _ ' ( _ w o o : 9 0 0 9 C Z S 9 o Z L Z ; o , D Z 9 , o XXXXXXXXXXXXXXXXXXXXXXXXXXXXXXXXXX",
"XXXXXXXXXXXXXXXXXXXXXXo o & ] ' ' ' ` # o o 3 C C Z S J P L J O 0 L K 9 , o ; 0 9 7 o o XXXXXXXXXXXXXXXXXXXXXXXXXXXXXXXX",
"XXXXXXXXXXXXXXXXXXXXXXXXO O d ' ' / & . o O 8 C C Z S J L L L , ; K K Z 9 , O O 3 9 ; o XXXXXXXXXXXXXXXXXXXXXXXXXXXXXXXX",
"XXXXXXXXXXXXXXXXXXXXXXXXXXX w ' ] d O . X : 8 B C C S Z J K L S o 0 G D Z B , O o , , o XXXXXXXXXXXXXXXXXXXXXXXXXXXXXXXX",
"XXXXXXXXXXXXXXXXXXXXXXXXXXo O ) f q o o o , 9 9 C C S Z Z D K G , o 0 D Z C 9 > o o o o o XXXXXXXXXXXXXXXXXXXXXXXXXXXXXX",
"XXXXXXXXXXXXXXXXXXXXXXXXXXXXo & % X o X o 7 9 9 z C Z D S Z S D Z o ; 9 Z 9 > o l h.U @ X XXXXXXXXXXXXXXXXXXXXXXXXXXXXXX",
"XXXXXXXXXXXXXXXXXXXXXXXXXXXXo o O o XXo @ 0 9 9 z C Z Z D S D D A , o 3 0 ; o H E.!.P.%.@ XXXXXXXXXXXXXXXXXXXXXXXXXXXXXX",
"XXXXXXXXXXXXXXXXXXXXXXXXXXXXXXo o XXXXo ; 0 0 9 C C 9 C Z Z Z D D Z @ O ; o T _. X(.Q.G.u . XXXXXXXXXXXXXXXXXXXXXXXXXXXX",
"XXXXXXXXXXXXXXXXXXXXXXXXXXXXXXXXXXXXXXo ; 0 9 0 9 C 9 z C Z Z Z Z Z 7 o o R W.`.`.(.Q.J.x . XXXXXXXXXXXXXXXXXXXXXXXXXXXX",
"XXXXXXXXXXXXXXXXXXXXXXXXXXXXXXXXXXXXXXX , 0 0 0 9 z z z C 9 9 Z Z Z C ; 3 F.!.~.).(.Q.F.4 X XXXXXXXXXXXXXXXXXXXXXXXXXXXX",
"XXXXXXXXXXXXXXXXXXXXXXXXXXXXXXXXXXXXXXO ; 7 0 9 9 9 Z 9 Z Z C Z C Z Z 7 O l.T.!.!.!.J.*.o o XXXXXXXXXXXXXXXXXXXXXXXXXXXX",
"XXXXXXXXXXXXXXXXXXXXXXXXXXXXXXXXXXXXXXo ; 7 0 B Z 9 9 Z C C z C z z z 0 - i x.K.K.H.&.: X o XXXXXXXXXXXXXXXXXXXXXXXXXXXX",
"XXXXXXXXXXXXXXXXXXXXXXXXXXXXXXXXXXXXXXO , 7 7 0 9 9 C C Z 9 C C z z 9 Z 3 O 1 F U i O - O X XXXXXXXXXXXXXXXXXXXXXXXXXXXX",
"XXXXXXXXXXXXXXXXXXXXXXXXXXXXXXXXXXXXXXo ; 7 , 0 9 9 9 9 z z z 9 z z B B u 7 : ; o O : > ; o XXXXXXXXXXXXXXXXXXXXXXXXXXXX",
"XXXXXXXXXXXXXXXXXXXXXXXXXXXXXXXXXXXXXXo > , 7 7 7 0 0 0 9 0 9 9 9 0 9 0 0 0 0 7 7 7 , , @ o XXXXXXXXXXXXXXXXXXXXXXXXXXXX",
"XXXXXXXXXXXXXXXXXXXXXXXXXXXXXXXXXXXXXXo ; , , 7 , 7 7 7 7 7 7 7 7 7 7 3 7 7 7 7 7 , , ; ; o XXXXXXXXXXXXXXXXXXXXXXXXXXXX",
"XXXXXXXXXXXXXXXXXXXXXXXXXXXXXXXXXXXXXXo @ > , , , , , , , , , , , , , , , , ; ; @ @ o o o o XXXXXXXXXXXXXXXXXXXXXXXXXXXX",
"XXXXXXXXXXXXXXXXXXXXXXXXXXXXXXXXXXXXXXo o o o o o o ; o @ @ o o O o o @ . o o o o . o o XXXXXXXXXXXXXXXXXXXXXXXXXXXXXXXX",
"XXXXXXXXXXXXXXXXXXXXXXXXXXXXXXXXXXXXXXXXXXXXo o o O @ @ o o @ ; @ # 3 @ X X o o . XXXXXXXXXXXXXXXXXXXXXXXXXXXXXXXXXXXXXX",
"XXXXXXXXXXXXXXXXXXXXXXXXXXXXXXXXXXXXXXXXXXXXXXXXo O @ @ o ; 3 3 3 5 5 @ o o o XXXXXXXXXXXXXXXXXXXXXXXXXXXXXXXXXXXXXXXXXX",
"XXXXXXXXXXXXXXXXXXXXXXXXXXXXXXXXXXXXXXXXXXXXXXXXXXo o o X @ @ 3 3 3 > o X o XXXXXXXXXXXXXXXXXXXXXXXXXXXXXXXXXXXXXXXXXXXX",
"XXXXXXXXXXXXXXXXXXXXXXXXXXXXXXXXXXXXXXXXXXXXXXXXXXXXXXXXX X o @ # > @ X XXXXXXXXXXXXXXXXXXXXXXXXXXXXXXXXXXXXXXXXXXXXXXXX",
"XXXXXXXXXXXXXXXXXXXXXXXXXXXXXXXXXXXXXXXXXXXXXXXXXXXXXXXXXXXXo o o @ o o XXXXXXXXXXXXXXXXXXXXXXXXXXXXXXXXXXXXXXXXXXXXXXXX",
"XXXXXXXXXXXXXXXXXXXXXXXXXXXXXXXXXXXXXXXXXXXXXXXXXXXXXXXXXXXXXXXXo o o XXXXXXXXXXXXXXXXXXXXXXXXXXXXXXXXXXXXXXXXXXXXXXXXXX"
};
