/* XPM */
static xpm_row_t const p1_left_2[] = {
/* columns rows colors chars-per-pixel */
"60 80 169 2 ",
"   c #10100F",
".  c #161514",
"X  c #181716",
"o  c #1A1917",
"O  c #1C1C1A",
"+  c #221C17",
"@  c #211F1C",
"#  c #22211E",
"$  c #2B2319",
"%  c #2C281A",
"&  c #3C2917",
"*  c #382718",
"=  c #3A2A18",
"-  c #1E1E20",
";  c #211920",
":  c #242423",
">  c #292622",
",  c #2A2924",
"<  c #2B2B2B",
"1  c #322D26",
"2  c #312F2C",
"3  c #333229",
"4  c #3C352D",
"5  c #3B3523",
"6  c #232539",
"7  c #343434",
"8  c #3C3732",
"9  c #393836",
"0  c #3B3B3B",
"q  c #33323D",
"w  c #432E17",
"e  c #443218",
"r  c #4F3418",
"t  c #533418",
"y  c #513E16",
"u  c #623D19",
"i  c #413B24",
"p  c #443C33",
"a  c #5D511A",
"s  c #694718",
"d  c #77461A",
"f  c #7A4A19",
"g  c #4C433A",
"h  c #43413F",
"j  c #554A3E",
"k  c #54493D",
"l  c #61562C",
"z  c #725336",
"x  c #6E6128",
"c  c #716323",
"v  c #2C314F",
"b  c #373942",
"n  c #343A5B",
"m  c #403F40",
"M  c #434343",
"N  c #484748",
"B  c #4C4B4C",
"V  c #484847",
"C  c #5C4F42",
"Z  c #5E5144",
"A  c #504F50",
"S  c #535353",
"D  c #5A5A5A",
"F  c #585856",
"G  c #625344",
"H  c #645649",
"J  c #6A5A4A",
"K  c #66594A",
"L  c #70614F",
"P  c #6C625A",
"I  c #746452",
"U  c #796753",
"Y  c #7A6956",
"T  c #7C6B59",
"R  c #6D6D6C",
"E  c #636362",
"W  c #626474",
"Q  c #787777",
"!  c #844C18",
"~  c #8D5219",
"^  c #925418",
"/  c #9C5C19",
"(  c #975919",
")  c #866C16",
"_  c #90671D",
"`  c #A86818",
"'  c #A2661B",
"]  c #B26F1A",
"[  c #BA7C18",
"{  c #814F22",
"}  c #8F5826",
"|  c #945A26",
" . c #8E7823",
".. c #937E27",
"X. c #8F7E34",
"o. c #A97523",
"O. c #A56D3B",
"+. c #A16A37",
"@. c #856D55",
"#. c #AD7A4B",
"$. c #967E67",
"%. c #A07F60",
"&. c #B38318",
"*. c #AE9522",
"=. c #B69B2B",
"-. c #CB9D1F",
";. c #DAAA1B",
":. c #DDB11D",
">. c #E2B718",
",. c #CA9025",
"<. c #D0952E",
"1. c #C6A929",
"2. c #D6A125",
"3. c #D7B436",
"4. c #E4BB36",
"5. c #F4CE1F",
"6. c #ECC526",
"7. c #EBC42B",
"8. c #F3CC24",
"9. c #ECC737",
"0. c #F0CF3D",
"q. c #B98A5C",
"w. c #9C8169",
"e. c #A1866D",
"r. c #B88C61",
"t. c #A68E73",
"y. c #AA9075",
"u. c #B6997B",
"i. c #C6996C",
"p. c #C69B72",
"a. c #C8A37E",
"s. c #676B81",
"d. c #858484",
"f. c #818495",
"g. c #939395",
"h. c #9D9C9D",
"j. c #BEA182",
"k. c #B9A088",
"l. c #BEA690",
"z. c #9C9DA9",
"x. c #ABAAAA",
"c. c #A4A4A4",
"v. c #A5A6B0",
"b. c #BBBABA",
"n. c #C5A585",
"m. c #CCAA8A",
"M. c #C9A886",
"N. c #D2AF8E",
"B. c #D0B28F",
"V. c #D5B391",
"C. c #DCBA97",
"Z. c #E2BE99",
"A. c #E6C19C",
"S. c #E9C59F",
"D. c #E9C4A0",
"F. c #EDC9A4",
"G. c #EFCCAB",
"H. c #F3CCA6",
"J. c #F0CFB1",
"K. c #EFD0B5",
"L. c #F5D7BF",
"P. c #CDCDCD",
"I. c #D0CFD0",
"U. c #D5D4D5",
"Y. c #DADAD9",
"T. c #F2D8C4",
"R. c #E0DFDF",
"E. c #E3E2E2",
"W. c #00b140",
/* pixels */
"W.W.W.W.W.W.W.W.W.W.W.W.W.W.W.W.W.W.W.W.W.W.W.W.W.W.W.W.W.W.W.W.W.W.W.W.W.W.W.W.W.W.W.W.W.W.W.W.W.W.W.W.W.W.W.W.W.W.W.W.",
"W.W.W.W.W.W.W.W.W.W.W.W.W.W.W.W.W.W.W.W.W.W.W.W.W.W.W.W.W.W.W.W.W.W.W.W.W.W.W.W.W.W.W.W.W.W.W.W.W.W.W.W.W.W.W.W.W.W.W.W.",
"W.W.W.W.W.W.W.W.W.W.W.W.W.W.W.W.W.W.W.W.W.W.W.W.W.W.W.W.W.W.W.W.W.W.W.W.W.W.W.W.W.W.W.W.W.W.W.W.W.W.W.W.W.W.W.W.W.W.W.W.",
"W.W.W.W.W.W.W.W.W.W.W.W.W.W.W.W.W.W.W.W.W.W.W.W.W.W.W.W.W.W.W.W.W.W.W.W.W.W.W.W.W.W.W.W.W.W.W.W.W.W.W.W.W.W.W.W.W.W.W.W.",
"W.W.W.W.W.W.W.W.W.W.W.W.W.W.W.W.W.W.W.W.W.W.W.W.W.W.W.W.W.W.W.W.W.W.W.W.W.W.W.W.W.W.W.W.W.W.W.W.W.W.W.W.W.W.W.W.W.W.W.W.",
"W.W.W.W.W.W.W.W.W.W.W.W.W.W.W.W.W.W.W.W.W.W.W.W.W.W.W.W.W.W.W.W.W.W.W.W.W.W.W.W.W.W.W.W.W.W.W.W.W.W.W.W.W.W.W.W.W.W.W.W.",
"W.W.W.W.W.W.W.W.W.W.W.W.W.W.W.W.W.W.W.W.W.W.W.W.W.W.W.W.W.W.W.o O : O W.W.W.W.W.W.W.W.W.W.W.W.W.W.W.W.W.W.W.W.W.W.W.W.W.",
"W.W.W.W.W.W.W.W.W.W.W.W.W.W.W.W.W.W.W.W.W.W.W.W.W.o o o o # : 7 M S 0 O o W.W.W.W.W.W.W.W.W.W.W.W.W.W.W.W.W.W.W.W.W.W.W.",
"W.W.W.W.W.W.W.W.W.W.W.W.W.W.W.W.W.W.W.W.W.W.X O : < 0 b M B S D D D A 7 : X W.W.W.W.W.W.W.W.W.W.W.W.W.W.W.W.W.W.W.W.W.W.",
"W.W.W.W.W.W.W.W.W.W.W.W.W.W.W.W.W.W.W.O O , 9 B S F D D D D D F S F F D A < o W.W.W.W.W.W.W.W.W.W.W.W.W.W.W.W.W.W.W.W.W.",
"W.W.W.W.W.W.W.W.W.W.W.W.W.W.W.W.W.O - < M F F F D D D D D D D F F F D D D S 0 : o W.W.W.W.W.W.W.W.W.W.W.W.W.W.W.W.W.W.W.",
"W.W.W.W.W.W.W.W.W.W.W.W.W.W.W.W.o , M D D D D D D D E D D D D D D F F D D D D A 2 O W.W.W.W.W.W.W.W.W.W.W.W.W.W.W.W.W.W.",
"W.W.W.W.W.W.W.W.W.W.W.W.W.W.W.O q S D D D D D D D D D D D D D D F F S D S D S S F 0 O o W.W.W.W.W.W.W.W.W.W.W.W.W.W.W.W.",
"W.W.W.W.W.W.W.W.W.W.W.W.W.o # 0 D D D D D D D D D D D D D F D D D S F D S D D D F D M - o W.W.W.W.W.W.W.W.W.W.W.W.W.W.W.",
"W.W.W.W.W.W.W.W.W.W.W.W.o : M D D D D D D D D D D F D D F F F S S S F S S S S S S F D N : X W.W.W.W.W.W.W.W.W.W.W.W.W.W.",
"W.W.W.W.W.W.W.W.W.W.W.o : B D D D D E D D D D F F F S F S S S S A A A S S A S S S S S F V : o W.W.W.W.W.W.W.W.W.W.W.W.W.",
"W.W.W.W.W.W.W.W.W.W.o : B D D D D D D D D F S S S S S S S F F S A S A S A A A A S B B B S 7 O W.W.W.W.W.W.W.W.W.W.W.W.W.",
"W.W.W.W.W.W.W.W.W.o : V D D D D D D F S S S S S S S F S S S A S S A S S A B B A B N V B V m < O W.W.W.W.W.W.W.W.W.W.W.W.",
"W.W.W.W.W.W.W.W.W.- N D D D F F S S S S D S F S S S S S S S A A A S A A A B A B B B B B V M q , o W.W.W.W.W.W.W.W.W.W.W.",
"W.W.W.W.W.W.W.W.O 0 D F D D S S F S F F S S S S A A A A S A A S S A A A A B B B B V V V V M 7 7 : o W.W.W.W.W.W.W.W.W.W.",
"W.W.W.W.W.W.W.o < F D F S S F S S S S A A A A A A S A S A A A A A S A V B B B B V B V M V M 0 7 < O W.W.W.W.W.W.W.W.W.W.",
"W.W.W.W.W.W.W.@ B D F A S S A S S A A A A S A S S S A A B A A A A V B A B B B N N M m V M 0 0 7 7 : o W.W.W.W.W.W.W.W.W.",
"W.W.W.W.W.W.o 7 D F B A A S S A A A A A A A S A A A A B B B B B B A B V N B N N M m m M 0 0 0 7 7 < o W.W.W.W.W.W.W.W.W.",
"W.W.W.W.W.W.@ B F A A A A A A A S A A A A B A A A B B V B B B B B V B V N N M M m M M 0 0 0 0 7 0 7 # o W.W.W.W.W.W.W.W.",
"W.W.W.W.W.o < S V M N M N B A A A B B B B N N V B B B B B B B N V V B V M M M m M M m 0 0 m 0 0 0 q < O W.W.W.W.W.W.W.W.",
"W.W.W.W.W.o 7 B h m 0 M N M M N M M V V N B N N N B B N V N N N V V M m b m m M M m 0 0 m 0 9 0 9 9 < O W.W.W.W.W.W.W.W.",
"W.W.W.W.W.o , 0 0 h m M N N V M M M V B B V V M N M M N V M m m M M m m M M M 0 0 0 0 m 0 0 0 0 9 7 2 : o W.W.W.W.W.W.W.",
"W.W.W.W.W.o ; 7 0 b M M 0 0 M V V M V V V M M M M M m m m 0 0 m M M V M M m 0 0 0 m m m 0 0 m 0 9 9 7 < O W.W.W.W.W.W.W.",
"W.W.W.W.W.W.O < 9 0 0 0 0 0 0 b b M M M m M M M M m 0 0 m m M m M V M m 0 0 0 M m m 0 m 0 0 m 7 9 0 7 < O W.W.W.W.W.W.W.",
"W.W.W.W.W.W.o # < 9 0 0 0 9 0 0 0 m m 0 m m m M V b m V M V M M m m 0 0 0 0 m 0 0 m 0 0 0 0 0 7 0 7 2 < O o W.W.W.W.W.W.",
"W.W.W.W.W.W.W.o # < 7 9 q 0 9 0 0 0 0 0 m m 0 m m 0 0 0 0 M 0 0 0 0 0 m 0 m 0 m 0 m 0 0 0 0 7 0 0 0 7 < : o W.W.W.W.W.W.",
"W.W.W.W.W.W.W.W.o o : 2 2 7 7 0 0 7 0 0 0 0 0 0 0 0 0 0 0 7 0 0 0 0 0 0 m m 0 m 0 0 0 0 0 0 7 0 7 q 7 < : o W.W.W.W.W.W.",
"W.W.W.W.W.W.W.W.. + + O : < < 7 7 7 0 0 0 0 0 0 0 0 0 0 0 0 0 0 0 0 0 0 m m m 0 0 0 0 0 0 7 7 0 0 7 7 < : o W.W.W.W.W.W.",
"W.W.W.W.W.W.W.W.X & s & O # : < < 7 7 7 7 0 0 0 0 m 0 0 m 0 0 0 0 m m 0 0 0 0 0 0 0 0 0 0 7 0 0 7 7 < 7 , O W.W.W.W.W.W.",
"W.W.W.W.W.W.W.W.W.+ u w O 1 , O - < 7 7 7 0 0 0 0 0 0 7 0 0 0 0 m 0 0 0 0 0 7 0 0 0 0 7 7 7 0 7 7 7 7 < , O W.W.W.W.W.W.",
"W.W.W.W.W.W.W.W.W.o O > L y.y.I 4 - : < 7 7 7 0 0 9 0 0 0 0 0 0 0 0 9 7 7 7 7 0 0 0 7 7 0 0 0 7 7 7 < < < # W.W.W.W.W.W.",
"W.W.W.W.W.W.W.W.W.W.  j N.F.D.Z.u.j % # < 7 7 7 7 0 0 0 0 0 0 0 0 0 7 0 7 7 7 0 0 7 7 0 0 b 7 7 7 < < < < o W.W.W.W.W.W.",
"W.W.W.W.W.W.W.W.W.W.. I S.F.A.i.q.~ d = # < 2 7 0 7 7 0 0 7 7 0 7 7 0 7 7 0 0 7 7 0 0 0 7 7 7 7 7 < < : < o W.W.W.W.W.W.",
"W.W.W.W.W.W.W.W.W.W.X Y Z.F.p.~ | O.O.{ % - < 7 7 0 7 7 7 0 0 7 0 7 7 0 7 7 7 0 0 7 0 0 7 0 7 7 < < < < < o W.W.W.W.W.W.",
"W.W.W.W.W.W.W.W.W.W.X T S.i.+.q.n.M.M.p.@.: : < 7 7 7 0 7 7 7 7 7 7 7 0 7 0 0 7 0 7 7 7 7 7 7 < < < < < : o W.W.W.W.W.W.",
"W.W.W.W.W.W.W.W.W.W.X U p.#.%.K p 8 8 g w.K o < 7 7 < 7 7 7 q 0 7 0 7 7 7 7 7 7 7 b 0 7 7 < 7 7 < < : < : O W.W.W.W.W.W.",
"W.W.W.W.W.W.W.W.W.W.+ z q.U < b h.b.c.R g u.1 : 7 7 7 7 7 7 7 7 0 7 7 7 7 7 0 7 7 7 7 7 7 < < < < < < < # O W.W.W.W.W.W.",
"W.W.W.W.W.W.W.W.W.W.X H U - 6 n v.E.I.x.g V.J - < 2 < 7 7 7 < 7 7 < 7 7 7 7 < 7 7 < < 7 < 7 < < < < , , O W.W.W.W.W.W.W.",
"W.W.W.W.W.W.W.W.W.W.o % 0 q @ v f.R.I.x.g V.t.- < < 7 < < 7 7 < 7 7 7 < < 7 7 7 7 7 < < < 7 < < < < < : o W.W.W.W.W.W.W.",
"W.W.W.W.W.W.W.W.W.W.W.. E W 6 n z.E.U.g.V S.n.% : < < 7 < 7 < 7 < 7 7 7 < 7 7 < < < 7 < < < < < < : < - O W.W.W.W.W.W.W.",
"W.W.W.W.W.W.W.W.W.W.W.@ 0 g.s.f.U.R.P.D T H.m., - < < < < < 7 7 7 < < < < < < < 7 < < 7 < 7 < < : < < O W.W.W.W.W.W.W.W.",
"W.W.W.W.W.W.W.W.W.W.. p C F b.Y.Y.P.d.p m.C.Z o - < < 7 < < < < < < < 7 7 < 7 < < < 7 < < < : < < < - O W.W.W.W.W.W.W.W.",
"W.W.W.W.W.W.W.W.W.W.. p e.g M R Q S 8 y.C.K % # : < < < 2 q < < < < < < < 7 < 7 7 < < < < < < : < : o W.W.W.W.W.W.W.W.W.",
"W.W.W.W.W.W.W.W.W.W.o O 2 p g g k Y j.j.C i X.: : < < < 2 7 7 < < < < < < : < < < < < < : < < , : o W.W.W.W.W.W.W.W.W.W.",
"W.W.W.W.W.W.W.W.W.W.W.% ..c 5 p H T Z 3 l 3.*.O : < < < < < < 7 7 < < < < < < : : < : : < < < # X . W.W.W.W.W.W.W.W.W.W.",
"W.W.W.W.W.W.W.W.W.W.W.$ &.5.1. .x l c =.0.8.) O : : : < < < < < < < < < < < : < < : < < : : - o W.W.W.W.W.W.W.W.W.W.W.W.",
"W.W.W.W.W.W.W.W.W.W.W.+ y  .=.0.7.>.>.>.9.;.s O < < < : < < < < < < < : < < < < : < < : - o . W.W.W.W.W.W.W.W.W.W.W.W.W.",
"W.W.W.W.W.W.W.W.W.W.W.o + _ 9.5.:.>.8.,.4.,.s O < : < : < : < : < < < < < : < < : : - o o W.W.W.W.W.W.W.W.W.W.W.W.W.W.W.",
"W.W.W.W.W.W.W.W.W.W.W.W.O f <.<.>.:.:.4.4._ e O : < < : < < : < : : : : : : O O O O . W.W.W.W.W.W.W.W.W.W.W.W.W.W.W.W.W.",
"W.W.W.W.W.W.W.W.W.W.W.W.X r ` ] ] &.[ o.s % O o : : : : - O - o O - O - ; o . . W.W.W.W.W.W.W.W.W.W.W.W.W.W.W.W.W.W.W.W.",
"W.W.W.W.W.W.W.W.W.W.W.W.X e ~ ^ / ^ ` s X O O o O O - o o : o < 7 7 0 0 < O . W.W.W.W.W.W.W.W.W.W.W.W.W.W.W.W.W.W.W.W.W.",
"W.W.W.W.W.W.W.W.W.W.W.W.W.O s / ^ ^ ~ & X @ 7 0 7 0 < O 9 B : 0 S S S B 0 7 O W.W.W.W.W.W.W.W.W.W.W.W.W.W.W.W.W.W.W.W.W.",
"W.W.W.W.W.W.W.W.W.W.W.W.W.o w ~ ^ ~ u + o : 0 M M 0 # 9 F S : 0 D F S A M 7 : o W.W.W.W.W.W.W.W.W.W.W.W.W.W.W.W.W.W.W.W.",
"W.W.W.W.W.W.W.W.W.W.W.W.W.o @ d _ ! $ o O < b b 0 : : B S 0 # M F S S A M 0 < O W.W.W.W.W.W.W.W.W.W.W.W.W.W.W.W.W.W.W.W.",
"W.W.W.W.W.W.W.W.W.W.W.W.W.W.O t ! t o o @ 7 p M , # 0 B V 7 - V S S A B m m 7 - W.W.W.W.W.W.W.W.W.W.W.W.W.W.W.W.W.W.W.W.",
"W.W.W.W.W.W.W.W.W.W.W.W.W.W.o + = O o o : 9 0 7 O 7 m M 0 , : B A A A V m 0 0 : o W.W.W.W.W.W.W.W.W.W.W.W.W.W.W.W.W.W.W.",
"W.W.W.W.W.W.W.W.W.W.W.W.W.W.W.O o W.W.o < 0 7 O O < 0 0 9 # < B V V V M m 0 0 : o W.W.W.W.W.W.W.W.W.W.W.W.W.W.W.W.W.W.W.",
"W.W.W.W.W.W.W.W.W.W.W.W.W.W.W.W.W.W.W.o < 7 # k C , O < 7 O 0 V V V M M m 0 0 < O W.W.W.W.W.W.W.W.W.W.W.W.W.W.W.W.W.W.W.",
"W.W.W.W.W.W.W.W.W.W.W.W.W.W.W.W.W.W.W.- < # Z B.A.l.P , O - 0 M M m M 0 M 0 9 < O W.W.W.W.W.W.W.W.W.W.W.W.W.W.W.W.W.W.W.",
"W.W.W.W.W.W.W.W.W.W.W.W.W.W.W.W.W.W.W.@ < # w.S.F.T.T.k.p : m m M M 0 m M 0 0 < O W.W.W.W.W.W.W.W.W.W.W.W.W.W.W.W.W.W.W.",
"W.W.W.W.W.W.W.W.W.W.W.W.W.W.W.W.W.W.o @ < @ $.S.G.J.J.D.Y : m m M 0 M m 0 0 7 < - o W.W.W.W.W.W.W.W.W.W.W.W.W.W.W.W.W.W.",
"W.W.W.W.W.W.W.W.W.W.W.W.W.W.W.W.W.W.o @ < : C N.D.H.D.N.C , m m m M m 0 0 0 7 < # O W.W.W.W.W.W.W.W.W.W.W.W.W.W.W.W.W.W.",
"W.W.W.W.W.W.W.W.W.W.W.W.W.W.W.W.W.W.o O < < # J u.m.n.@.; 9 m m 0 0 0 0 0 7 7 < O O W.W.W.W.W.W.W.W.W.W.W.W.W.W.W.W.W.W.",
"W.W.W.W.W.W.W.W.W.W.W.W.W.W.W.W.W.W.o @ < 7 , O 1 p 4 : < 0 0 7 7 9 0 0 9 7 7 < # o W.W.W.W.W.W.W.W.W.W.W.W.W.W.W.W.W.W.",
"W.W.W.W.W.W.W.W.W.W.W.W.W.W.W.W.W.W.O O : < 7 < < : : < 7 7 7 7 7 7 7 < 7 < : : O W.W.W.W.W.W.W.W.W.W.W.W.W.W.W.W.W.W.W.",
"W.W.W.W.W.W.W.W.W.W.W.W.W.W.W.W.W.W.o O O : : : : : : : : : : : : # : - - O O O O W.W.W.W.W.W.W.W.W.W.W.W.W.W.W.W.W.W.W.",
"W.W.W.W.W.W.W.W.W.W.W.W.W.W.W.W.W.O O : O O o O O O O o O o o o O O # : % , , : o W.W.W.W.W.W.W.W.W.W.W.W.W.W.W.W.W.W.W.",
"W.W.W.W.W.W.W.W.W.W.W.W.W.W.W.W.W.W.o O O O # # # % # o W.W.W.W.o # , 3 3 3 1 , O W.W.W.W.W.W.W.W.W.W.W.W.W.W.W.W.W.W.W.",
"W.W.W.W.W.W.W.W.W.W.W.W.W.W.W.W.W.W.W.W.o O o O O # O o W.W.W.o # , O # , % % # O W.W.W.W.W.W.W.W.W.W.W.W.W.W.W.W.W.W.W.",
"W.W.W.W.W.W.W.W.W.W.W.W.W.W.W.W.W.W.W.W.W.W.W.o O O o W.W.W.W.o 3 3 O O @ O o o W.W.W.W.W.W.W.W.W.W.W.W.W.W.W.W.W.W.W.W.",
"W.W.W.W.W.W.W.W.W.W.W.W.W.W.W.W.W.W.W.W.W.W.W.W.W.W.O W.W.W.W.O O O O o W.W.W.W.W.W.W.W.W.W.W.W.W.W.W.W.W.W.W.W.W.W.W.W.",
"W.W.W.W.W.W.W.W.W.W.W.W.W.W.W.W.W.W.W.W.W.W.W.W.W.W.W.W.W.W.W.W.W.W.W.W.W.W.W.W.W.W.W.W.W.W.W.W.W.W.W.W.W.W.W.W.W.W.W.W.",
"W.W.W.W.W.W.W.W.W.W.W.W.W.W.W.W.W.W.W.W.W.W.W.W.W.W.W.W.W.W.W.W.W.W.W.W.W.W.W.W.W.W.W.W.W.W.W.W.W.W.W.W.W.W.W.W.W.W.W.W.",
"W.W.W.W.W.W.W.W.W.W.W.W.W.W.W.W.W.W.W.W.W.W.W.W.W.W.W.W.W.W.W.W.W.W.W.W.W.W.W.W.W.W.W.W.W.W.W.W.W.W.W.W.W.W.W.W.W.W.W.W.",
"W.W.W.W.W.W.W.W.W.W.W.W.W.W.W.W.W.W.W.W.W.W.W.W.W.W.W.W.W.W.W.W.W.W.W.W.W.W.W.W.W.W.W.W.W.W.W.W.W.W.W.W.W.W.W.W.W.W.W.W."
};
