/* XPM */
static xpm_row_t const p1_left_8[] = {
/* columns rows colors chars-per-pixel */
"60 80 169 2 ",
"   c #0F0F0E",
".  c #151413",
"X  c #181715",
"o  c #1A1917",
"O  c #1C1B1A",
"+  c #171718",
"@  c #211F1B",
"#  c #211F16",
"$  c #2E2317",
"%  c #21211E",
"&  c #2C2318",
"*  c #3B2A17",
"=  c #342618",
"-  c #352B18",
";  c #352617",
":  c #3A351E",
">  c #1E1F26",
",  c #221E28",
"<  c #242423",
"1  c #282726",
"2  c #2A2926",
"3  c #2B2B2B",
"4  c #25252A",
"5  c #322D26",
"6  c #312F2D",
"7  c #33322A",
"8  c #3C352D",
"9  c #3B3523",
"0  c #343433",
"q  c #3A3835",
"w  c #3B3B3B",
"e  c #412D18",
"r  c #423617",
"t  c #4F3318",
"y  c #433118",
"u  c #553617",
"i  c #453E22",
"p  c #46392C",
"a  c #453C34",
"s  c #443E39",
"d  c #584D1D",
"f  c #674219",
"g  c #744418",
"h  c #774818",
"j  c #6C521C",
"k  c #6B5D1D",
"l  c #584F24",
"z  c #5E5429",
"x  c #4D4339",
"c  c #504030",
"v  c #52463B",
"b  c #564B3F",
"n  c #694422",
"m  c #716430",
"M  c #292B45",
"N  c #2E334C",
"B  c #403F40",
"V  c #3C4265",
"C  c #434343",
"Z  c #484847",
"A  c #484748",
"S  c #4B4B4B",
"D  c #574D40",
"F  c #594D41",
"G  c #5E5043",
"H  c #504F50",
"J  c #535353",
"K  c #5A5A5A",
"L  c #585758",
"P  c #645546",
"I  c #6B5C4B",
"U  c #645648",
"Y  c #705F50",
"T  c #70614F",
"R  c #736352",
"E  c #7D6C58",
"W  c #494D66",
"Q  c #575C76",
"!  c #6A6B76",
"~  c #7D7D7C",
"^  c #8B4F18",
"/  c #875119",
"(  c #8E531B",
")  c #925418",
"_  c #9B5B19",
"`  c #915E19",
"'  c #A36219",
"]  c #AE7018",
"[  c #B77A1C",
"{  c #935722",
"}  c #9B632F",
"|  c #986A3F",
" . c #A46F3E",
".. c #856344",
"X. c #89745F",
"o. c #AB7849",
"O. c #937A63",
"+. c #B98719",
"@. c #AC8A2B",
"#. c #BA882A",
"$. c #B69D2C",
"%. c #AF9938",
"&. c #C38618",
"*. c #CA9819",
"=. c #CEAA1A",
"-. c #DDB61E",
";. c #E3B91A",
":. c #E4B719",
">. c #CAAB28",
",. c #DDB322",
"<. c #DBAB38",
"1. c #DDB833",
"2. c #E8BF28",
"3. c #E6BC39",
"4. c #F2CB1D",
"5. c #ECC62A",
"6. c #F1CE36",
"7. c #AF855B",
"8. c #B58354",
"9. c #B9895C",
"0. c #968169",
"q. c #9F846B",
"w. c #80807F",
"e. c #93857A",
"r. c #A7896D",
"t. c #B28F6C",
"y. c #A38B71",
"u. c #AE9478",
"i. c #AA9277",
"p. c #B89A7E",
"a. c #C29369",
"s. c #CCA178",
"d. c #E2C441",
"f. c #8A8A8F",
"g. c #8F919D",
"h. c #9D9C9B",
"j. c #B99C80",
"k. c #BFA288",
"l. c #9597A5",
"z. c #ABAAAA",
"x. c #AEAEB1",
"c. c #BFBEBE",
"v. c #C5A486",
"b. c #CAA889",
"n. c #C8A888",
"m. c #D5AC83",
"M. c #D0AF8E",
"N. c #D6B18F",
"B. c #D3B391",
"V. c #DCB995",
"C. c #DEBC98",
"Z. c #DCB794",
"A. c #E3BC95",
"S. c #E2BE9A",
"D. c #E8C39C",
"F. c #EAC5A1",
"G. c #EEC9A4",
"H. c #E2C4A8",
"J. c #F0CAA5",
"K. c #EFCFB3",
"L. c #F0CFB1",
"P. c #F3D4BA",
"I. c #BCBCC1",
"U. c #C5C4C4",
"Y. c #D5D5D5",
"T. c #DADADA",
"R. c #F6DBC6",
"E. c #E4E3E3",
"W. c #00b140",
/* pixels */
"W.W.W.W.W.W.W.W.W.W.W.W.W.W.W.W.W.W.W.W.W.W.W.W.W.W.W.W.W.W.W.W.W.W.W.W.W.W.W.W.W.W.W.W.W.W.W.W.W.W.W.W.W.W.W.W.W.W.W.W.",
"W.W.W.W.W.W.W.W.W.W.W.W.W.W.W.W.W.W.W.W.W.W.W.W.W.W.W.W.W.W.W.W.W.W.W.W.W.W.W.W.W.W.W.W.W.W.W.W.W.W.W.W.W.W.W.W.W.W.W.W.",
"W.W.W.W.W.W.W.W.W.W.W.W.W.W.W.W.W.W.W.W.W.W.W.W.W.W.W.W.W.W.W.W.W.W.W.W.W.W.W.W.W.W.W.W.W.W.W.W.W.W.W.W.W.W.W.W.W.W.W.W.",
"W.W.W.W.W.W.W.W.W.W.W.W.W.W.W.W.W.W.W.W.W.W.W.W.W.W.W.W.W.W.W.W.W.W.W.W.W.W.W.W.W.W.W.W.W.W.W.W.W.W.W.W.W.W.W.W.W.W.W.W.",
"W.W.W.W.W.W.W.W.W.W.W.W.W.W.W.W.W.W.W.W.W.W.W.W.W.W.W.W.W.W.W.W.W.W.W.W.W.W.W.W.W.W.W.W.W.W.W.W.W.W.W.W.W.W.W.W.W.W.W.W.",
"W.W.W.W.W.W.W.W.W.W.W.W.W.W.W.W.W.W.W.W.W.W.W.W.W.W.W.W.W.W.W.W.o W.W.W.W.W.W.W.W.W.W.W.W.W.W.W.W.W.W.W.W.W.W.W.W.W.W.W.",
"W.W.W.W.W.W.W.W.W.W.W.W.W.W.W.W.W.W.W.W.W.W.W.W.W.W.W.W.W.o O < < O W.W.W.W.W.W.W.W.W.W.W.W.W.W.W.W.W.W.W.W.W.W.W.W.W.W.",
"W.W.W.W.W.W.W.W.W.W.W.W.W.W.W.W.W.W.W.W.W.W.W.W.O O O O < 6 C J S < O W.W.W.W.W.W.W.W.W.W.W.W.W.W.W.W.W.W.W.W.W.W.W.W.W.",
"W.W.W.W.W.W.W.W.W.W.W.W.W.W.W.W.W.W.W.W.o # O 2 3 w B S J K K K J C 6 O o W.W.W.W.W.W.W.W.W.W.W.W.W.W.W.W.W.W.W.W.W.W.W.",
"W.W.W.W.W.W.W.W.W.W.W.W.W.W.W.W.W.W.# O 2 w S J K K K K K L L J L K K C % o W.W.W.W.W.W.W.W.W.W.W.W.W.W.W.W.W.W.W.W.W.W.",
"W.W.W.W.W.W.W.W.W.W.W.W.W.W.W.W.+ O 7 Z J L L K K K K K L L L L L K K K J 0 % o W.W.W.W.W.W.W.W.W.W.W.W.W.W.W.W.W.W.W.W.",
"W.W.W.W.W.W.W.W.W.W.W.W.W.W.W.o 2 C K K L K K K K K K K K K K L L L L K L K S 5 O W.W.W.W.W.W.W.W.W.W.W.W.W.W.W.W.W.W.W.",
"W.W.W.W.W.W.W.W.W.W.W.W.W.o O q K K K K K K K K K K K K K K K L J L J K J K L J w O o W.W.W.W.W.W.W.W.W.W.W.W.W.W.W.W.W.",
"W.W.W.W.W.W.W.W.W.W.W.W.o % C K K K K K K K K K K K K K L K K L L L K J L K L K K w % + W.W.W.W.W.W.W.W.W.W.W.W.W.W.W.W.",
"W.W.W.W.W.W.W.W.W.W.W.o < C K K K K K K K K K L K K K K L J J J J J J J J J J J K K x % O W.W.W.W.W.W.W.W.W.W.W.W.W.W.W.",
"W.W.W.W.W.W.W.W.W.W.o < Z K K K K K K K K K K K J J L J J J J J J J J H J H H H H J L C % o W.W.W.W.W.W.W.W.W.W.W.W.W.W.",
"W.W.W.W.W.W.W.W.W.o < S K K K K K K K K L J J L J J J J L J J H H H H H H S J H S Z S A 6 @ W.W.W.W.W.W.W.W.W.W.W.W.W.W.",
"W.W.W.W.W.W.W.W.o % Z K K K K K K K L J J J J J J L L J J H J H J J H H S H H A A Z S Z w 3 O W.W.W.W.W.W.W.W.W.W.W.W.W.",
"W.W.W.W.W.W.W.W.O C K K K K K J J J J J L J J J J J J H H J H H H H H S H S S S S S Z Z w 0 2 + W.W.W.W.W.W.W.W.W.W.W.W.",
"W.W.W.W.W.W.W.o w K K K K J J J J K L L J J J J H J H J J H H J J H H S S S S S Z A Z Z B 0 0 < O W.W.W.W.W.W.W.W.W.W.W.",
"W.W.W.W.W.W.o 3 L L K L L J L J J J J H S H H J H J H H H J H J H S S S S S Z Z A C A C w w 0 3 O W.W.W.W.W.W.W.W.W.W.W.",
"W.W.W.W.W.W.@ S K L J J J J J H H H H H J J H H H H H S H H S S S H H S Z A Z A B C A w w w 0 0 % O W.W.W.W.W.W.W.W.W.W.",
"W.W.W.W.W.o 0 K L S S H H J J J J H H H H J J H J H S S S S S S S S Z S A Z C B N C w w w w 0 w 3 O W.W.W.W.W.W.W.W.W.W.",
"W.W.W.W.W.O S K J H J H H H H H H H H H H H H H S S S S S S S S S S Z Z Z Z B x Z C w w w 0 w 0 0 % o W.W.W.W.W.W.W.W.W.",
"W.W.W.W.X 2 L J S S S S H H J H S S S S S S Z S S S S S S Z S Z A A Z B B B B Z C w w B w w w w q 4 O W.W.W.W.W.W.W.W.W.",
"W.W.W.W.o w S C C C C C A A A A Z Z S Z Z Z A A S A S S Z Z Z Z Z B B w B C B B w w B w w w w w 0 6 % W.W.W.W.W.W.W.W.W.",
"W.W.W.W.O w C w w w C A Z C B B Z Z Z Z Z Z Z Z Z Z C Z C B B C B B B Z C B w w w w B w w w w 0 w 6 1 o W.W.W.W.W.W.W.W.",
"W.W.W.W.o 4 q w w C C C C A Z Z Z Z Z Z C C C C B B B N w w C C Z C Z B w w w B B B B B w w 0 w w 6 2 O W.W.W.W.W.W.W.W.",
"W.W.W.W.o < 0 w C N w 0 w B B C C C C C C w C C B w w B B B B C C C w w w B w B B w w w w w 0 w 0 3 3 O W.W.W.W.W.W.W.W.",
"W.W.W.W.W.o 2 0 q x w w w w w w w C C B C C C Z x B C C Z C B B B w B w B w w B B w w w w w 0 w w 0 3 > o W.W.W.W.W.W.W.",
"W.W.W.W.W.o O 2 0 q w w w w w w w w w C B B C w w w w w B w w w w w B B w B B w w w w w w 0 w 0 0 6 6 > O W.W.W.W.W.W.W.",
"W.W.W.W.W.W.o O < 6 0 0 0 w 0 w 0 w w w w w w w B w w w w w w w w w w w B w B w w w w w w 0 w w 0 0 6 < o W.W.W.W.W.W.W.",
"W.W.W.W.W.W.W.X o @ < 3 3 0 q 0 w w w w w w w w w w w w w B w w w w w B B B w w w w w w 0 w 0 w 0 0 3 4 o W.W.W.W.W.W.W.",
"W.W.W.W.W.W.W.o $ * % % 4 3 3 6 0 0 0 0 w w w w w w w w w w w w B B B w w 0 0 w w w w 0 w w w w 0 3 3 4 % W.W.W.W.W.W.W.",
"W.W.W.W.W.W.W.o - h u o O % O < 3 0 w 0 0 w w w w 0 w w w w w w w w w w 0 0 w w w 0 0 0 0 w 0 0 0 3 3 3 O W.W.W.W.W.W.W.",
"W.W.W.W.W.W.W.W.o ; & 5 I T x % O 4 0 0 0 0 0 w w w w w B w w w w w 0 0 w 0 w 0 w 0 w w w 0 0 0 0 7 3 3 % W.W.W.W.W.W.W.",
"W.W.W.W.W.W.W.W.W.. 7 y.V.C.n.0.x % % 3 0 0 0 w w w w w w w w w 0 w w w 0 0 w 0 0 w w w w 0 0 0 3 3 3 3 O W.W.W.W.W.W.W.",
"W.W.W.W.W.W.W.W.W.  x C.J.D.D.s.| n - % 3 0 0 w 0 w w 0 0 w 0 w w 0 0 0 0 w 0 w 0 w w 0 0 0 0 0 3 3 2 2 % W.W.W.W.W.W.W.",
"W.W.W.W.W.W.W.W.W.. b C.D.A. .^ { { j $ % 3 0 0 w 0 0 0 0 0 w 0 0 0 w 0 0 0 w 0 w w w 0 0 0 0 3 3 3 4 2 # W.W.W.W.W.W.W.",
"W.W.W.W.W.W.W.W.W.. b A.D.8.} 9.m.m.a...< < 3 0 0 0 w 0 0 0 0 0 0 0 0 0 w w w 0 0 0 0 0 0 0 0 3 3 4 3 4 O W.W.W.W.W.W.W.",
"W.W.W.W.W.W.W.W.W.. b Z.8.o.r.X.G b I r.R o 1 6 0 0 0 0 0 w 0 w w w 0 0 0 0 w 0 w w 0 3 0 0 4 4 3 2 2 < O W.W.W.W.W.W.W.",
"W.W.W.W.W.W.W.W.W.W.c 9.7.I 3 L w.~ K q u.x > 6 3 0 3 0 0 0 0 w 0 0 0 0 0 0 0 0 0 3 0 0 3 0 3 0 3 2 2 > o W.W.W.W.W.W.W.",
"W.W.W.W.W.W.W.W.W.W.p t.b > N g.E.Y.c.S i.0.O 3 3 0 0 0 0 0 0 3 0 3 0 0 0 3 3 0 3 0 3 3 3 3 7 3 3 4 1 O o W.W.W.W.W.W.W.",
"W.W.W.W.W.W.W.W.W.W.5 b 4 , M Q T.Y.U.J y.B.5 1 3 0 3 3 3 0 3 0 0 0 3 0 0 3 0 0 3 0 3 3 3 3 7 3 4 2 1 @ W.W.W.W.W.W.W.W.",
"W.W.W.W.W.W.W.W.W.W.o 0 ! 4 M Q T.Y.I.Z u.D.b % 3 3 6 0 0 3 0 3 3 0 0 0 3 3 3 3 3 0 3 3 0 3 3 4 2 2 < + W.W.W.W.W.W.W.W.",
"W.W.W.W.W.W.W.W.W.W.o 2 f.W V l.E.Y.z.x M.G.U O 4 3 3 6 3 0 3 0 3 3 3 3 3 3 3 0 3 0 0 0 3 3 2 2 3 3 % W.W.W.W.W.W.W.W.W.",
"W.W.W.W.W.W.W.W.W.W.% p H x.I.T.T.U.K T G.p.7 % 4 3 3 3 3 3 3 3 3 0 3 0 0 0 3 0 0 0 3 3 4 4 4 4 3 < + W.W.W.W.W.W.W.W.W.",
"W.W.W.W.W.W.W.W.W.W.% O.b H h.x.h.K x M.v.8 @ O 3 4 3 0 3 0 3 3 3 3 3 3 3 0 3 3 3 4 3 4 3 3 2 2 < O W.W.W.W.W.W.W.W.W.W.",
"W.W.W.W.W.W.W.W.W.W.O x R x 8 q q I b.p.a z l % 4 2 3 3 0 3 0 3 3 3 3 3 2 4 4 3 4 2 3 3 1 3 4 < O W.W.W.W.W.W.W.W.W.W.W.",
"W.W.W.W.W.W.W.W.W.W.o : i 7 s I 0.i.R 5 m 1.d % 4 2 3 3 2 0 3 0 0 3 3 3 3 3 2 2 2 1 1 4 2 2 % o W.W.W.W.W.W.W.W.W.W.W.W.",
"W.W.W.W.W.W.W.W.W.W.+ j ,.$.k i 9 : l %.6.-.r % 2 4 2 3 6 3 3 3 3 3 3 3 3 3 2 2 2 3 3 4 < O o W.W.W.W.W.W.W.W.W.W.W.W.W.",
"W.W.W.W.W.W.W.W.W.W.o e +.>.>.d.>.=.,.5.6.+.- % 4 4 3 3 4 3 3 2 3 3 3 3 2 4 4 1 4 4 < O o . W.W.W.W.W.W.W.W.W.W.W.W.W.W.",
"W.W.W.W.W.W.W.W.W.W.W.o : @.2.4.,.4.,.*.1.+.- % 2 2 4 2 4 2 4 2 4 4 2 2 4 1 1 1 % O O . W.W.W.W.W.W.W.W.W.W.W.W.W.W.W.W.",
"W.W.W.W.W.W.W.W.W.W.W.o * #.3.:.;.;.2.3.<.` & > 4 2 2 2 4 2 2 2 1 < < < % O O + X . W.W.W.W.W.W.W.W.W.W.W.W.W.W.W.W.W.W.",
"W.W.W.W.W.W.W.W.W.W.W.o @ / [ &.*.&.+.#.j $ + O 1 1 > % > % O O O % > % O X . W.W.W.W.W.W.W.W.W.W.W.W.W.W.W.W.W.W.W.W.W.",
"W.W.W.W.W.W.W.W.W.W.W.W.o g _ _ ' ' ] t + o o o + % O % O O % o 2 w C w 6 O . W.W.W.W.W.W.W.W.W.W.W.W.W.W.W.W.W.W.W.W.W.",
"W.W.W.W.W.W.W.W.W.W.W.W.o y ( ) ) ^ / & X < 0 0 0 w B C 6 2 H 0 % 3 S S w 2 + W.W.W.W.W.W.W.W.W.W.W.W.W.W.W.W.W.W.W.W.W.",
"W.W.W.W.W.W.W.W.W.W.W.W.o O h ) ) ) f X o 3 B B C H J K w < L J 0 % 3 Z B w % W.W.W.W.W.W.W.W.W.W.W.W.W.W.W.W.W.W.W.W.W.",
"W.W.W.W.W.W.W.W.W.W.W.W.W.o * ( _ g % o O 6 w B Z Z J K S % Z J B 0 % 2 w w 2 O W.W.W.W.W.W.W.W.W.W.W.W.W.W.W.W.W.W.W.W.",
"W.W.W.W.W.W.W.W.W.W.W.W.W.o % g ) u O o < q B B Z C Z J J 2 6 S Z w 3 % 1 w 6 O W.W.W.W.W.W.W.W.W.W.W.W.W.W.W.W.W.W.W.W.",
"W.W.W.W.W.W.W.W.W.W.W.W.W.W.o e t % o O 4 w w B B Z C Z S q % w Z w w 1 + < 3 % o W.W.W.W.W.W.W.W.W.W.W.W.W.W.W.W.W.W.W.",
"W.W.W.W.W.W.W.W.W.W.W.W.W.W.W.o O o W.# 3 w w B w Z Z Z S C % 2 w w 1 @ D G < + o W.W.W.W.W.W.W.W.W.W.W.W.W.W.W.W.W.W.W.",
"W.W.W.W.W.W.W.W.W.W.W.W.W.W.W.W.O W.W.O 0 w w B B B C Z Z S 0 % 3 > 6 e.H.C.X.@ o W.W.W.W.W.W.W.W.W.W.W.W.W.W.W.W.W.W.W.",
"W.W.W.W.W.W.W.W.W.W.W.W.W.W.W.W.W.W.O O 0 w w B w B B B C C w % o x k.R.P.G.b.8 o W.W.W.W.W.W.W.W.W.W.W.W.W.W.W.W.W.W.W.",
"W.W.W.W.W.W.W.W.W.W.W.W.W.W.W.W.W.W.o % 0 w w w B B B B C C C 3 5 p.J.P.L.G.n.a X W.W.W.W.W.W.W.W.W.W.W.W.W.W.W.W.W.W.W.",
"W.W.W.W.W.W.W.W.W.W.W.W.W.W.W.W.W.W.X < 6 0 w w w B B C B C C 0 5 p.D.J.G.D.r.< X W.W.W.W.W.W.W.W.W.W.W.W.W.W.W.W.W.W.W.",
"W.W.W.W.W.W.W.W.W.W.W.W.W.W.W.W.W.W.o % 6 0 q N w B B B w C w w % P k.V.N.r.8 O O W.W.W.W.W.W.W.W.W.W.W.W.W.W.W.W.W.W.W.",
"W.W.W.W.W.W.W.W.W.W.W.W.W.W.W.W.W.W.o < 6 7 q w B w B B C w C w 0 % 8 G v 2 % 1 @ W.W.W.W.W.W.W.W.W.W.W.W.W.W.W.W.W.W.W.",
"W.W.W.W.W.W.W.W.W.W.W.W.W.W.W.W.W.W.o < 2 0 0 0 0 w w w w 0 w w q 0 3 < 1 2 3 2 O W.W.W.W.W.W.W.W.W.W.W.W.W.W.W.W.W.W.W.",
"W.W.W.W.W.W.W.W.W.W.W.W.W.W.W.W.W.W.o @ 2 3 6 6 0 3 7 0 0 0 3 0 6 0 6 0 3 3 2 < O W.W.W.W.W.W.W.W.W.W.W.W.W.W.W.W.W.W.W.",
"W.W.W.W.W.W.W.W.W.W.W.W.W.W.W.W.W.W.o O < < < 4 4 < 4 < < < 4 < % < > % % % @ O O W.W.W.W.W.W.W.W.W.W.W.W.W.W.W.W.W.W.W.",
"W.W.W.W.W.W.W.W.W.W.W.W.W.W.W.W.W.W.W.O o o o o O % O O # % O % % o O O + + W.W.W.W.W.W.W.W.W.W.W.W.W.W.W.W.W.W.W.W.W.W.",
"W.W.W.W.W.W.W.W.W.W.W.W.W.W.W.W.W.W.W.W.W.W.W.O O 7 & O 2 7 7 7 7 % o o W.W.W.W.W.W.W.W.W.W.W.W.W.W.W.W.W.W.W.W.W.W.W.W.",
"W.W.W.W.W.W.W.W.W.W.W.W.W.W.W.W.W.W.W.W.W.W.W.W.o o % O 2 2 7 7 2 o W.W.W.W.W.W.W.W.W.W.W.W.W.W.W.W.W.W.W.W.W.W.W.W.W.W.",
"W.W.W.W.W.W.W.W.W.W.W.W.W.W.W.W.W.W.W.W.W.W.W.W.W.W.O O O O % 2 % O W.W.W.W.W.W.W.W.W.W.W.W.W.W.W.W.W.W.W.W.W.W.W.W.W.W.",
"W.W.W.W.W.W.W.W.W.W.W.W.W.W.W.W.W.W.W.W.W.W.W.W.W.W.W.W.# o # # @ W.W.W.W.W.W.W.W.W.W.W.W.W.W.W.W.W.W.W.W.W.W.W.W.W.W.W.",
"W.W.W.W.W.W.W.W.W.W.W.W.W.W.W.W.W.W.W.W.W.W.W.W.W.W.W.W.W.W.W.W.O W.W.W.W.W.W.W.W.W.W.W.W.W.W.W.W.W.W.W.W.W.W.W.W.W.W.W.",
"W.W.W.W.W.W.W.W.W.W.W.W.W.W.W.W.W.W.W.W.W.W.W.W.W.W.W.W.W.W.W.W.W.W.W.W.W.W.W.W.W.W.W.W.W.W.W.W.W.W.W.W.W.W.W.W.W.W.W.W.",
"W.W.W.W.W.W.W.W.W.W.W.W.W.W.W.W.W.W.W.W.W.W.W.W.W.W.W.W.W.W.W.W.W.W.W.W.W.W.W.W.W.W.W.W.W.W.W.W.W.W.W.W.W.W.W.W.W.W.W.W.",
"W.W.W.W.W.W.W.W.W.W.W.W.W.W.W.W.W.W.W.W.W.W.W.W.W.W.W.W.W.W.W.W.W.W.W.W.W.W.W.W.W.W.W.W.W.W.W.W.W.W.W.W.W.W.W.W.W.W.W.W."
};
