/* XPM */
static xpm_row_t const p1_left_1[] = {
/* columns rows colors chars-per-pixel */
"60 90 186 2 ",
"   c #100F0F",
".  c #161614",
"X  c #181716",
"o  c #1A1917",
"O  c #1C1B19",
"+  c #171818",
"@  c #241D16",
"#  c #201E1C",
"$  c #23221E",
"%  c #2B2318",
"&  c #2E2A1C",
"*  c #332416",
"=  c #342B17",
"-  c #332718",
";  c #3D2B18",
":  c #352A18",
">  c #36321F",
",  c #1E1F28",
"<  c #211D2A",
"1  c #252423",
"2  c #292623",
"3  c #2A2925",
"4  c #2B2B2B",
"5  c #332C26",
"6  c #312F2A",
"7  c #313027",
"8  c #33322B",
"9  c #3B332C",
"0  c #3F3923",
"q  c #272637",
"w  c #333333",
"e  c #3B3A34",
"r  c #3B3B3B",
"t  c #442F17",
"y  c #433119",
"u  c #4C3218",
"i  c #47391A",
"p  c #573719",
"a  c #673D18",
"s  c #443C33",
"d  c #4F4517",
"f  c #694117",
"g  c #734D19",
"h  c #764718",
"j  c #6E5E16",
"k  c #4B4137",
"l  c #47423D",
"z  c #50463B",
"x  c #554A3E",
"c  c #705134",
"v  c #695C28",
"b  c #7D6521",
"n  c #2D324E",
"m  c #2F375F",
"M  c #343A5B",
"N  c #363741",
"B  c #403F40",
"V  c #3E4463",
"C  c #434343",
"Z  c #484747",
"A  c #484748",
"S  c #4B4B4B",
"D  c #484847",
"F  c #5B4E41",
"G  c #5D5143",
"H  c #504F50",
"J  c #535353",
"K  c #5A5A5A",
"L  c #555658",
"P  c #615446",
"I  c #6B5C4C",
"U  c #675746",
"Y  c #726251",
"T  c #7B6956",
"R  c #595E79",
"E  c #6F6E6D",
"W  c #706F6F",
"Q  c #7D7C7B",
"!  c #884C17",
"~  c #824B18",
"^  c #8B4F19",
"/  c #8E5219",
"(  c #8E5819",
")  c #925519",
"_  c #9A5C19",
"`  c #925F18",
"'  c #A4631A",
"]  c #AD6A1A",
"[  c #B06F1A",
"{  c #AB7819",
"}  c #B87919",
"|  c #88582D",
" . c #985F2C",
".. c #9C6532",
"X. c #817336",
"o. c #85752C",
"O. c #8A745D",
"+. c #94795F",
"@. c #816B57",
"#. c #B17F4F",
"$. c #8C7663",
"%. c #937C66",
"&. c #807F7E",
"*. c #98821B",
"=. c #BE8219",
"-. c #958231",
";. c #A28C2F",
":. c #A9912C",
">. c #B9962C",
",. c #B69F3D",
"<. c #C8951A",
"1. c #C58A16",
"2. c #DBAD1A",
"3. c #DDB21A",
"4. c #E5BA17",
"5. c #CA902C",
"6. c #D39930",
"7. c #CDAF2D",
"8. c #D9A72F",
"9. c #D7AB29",
"0. c #D6B527",
"q. c #D3A435",
"w. c #E4BA29",
"e. c #EAC52A",
"r. c #F5CF28",
"t. c #F6D025",
"y. c #F8D329",
"u. c #E9C333",
"i. c #BB8A5C",
"p. c #B7885A",
"a. c #9B846D",
"s. c #96877B",
"d. c #BB8D61",
"f. c #A68C72",
"g. c #AA9276",
"h. c #B49A7D",
"j. c #B99A7E",
"k. c #B69679",
"l. c #A98969",
"z. c #CAB046",
"x. c #DABC42",
"c. c #C4976B",
"v. c #C79A70",
"b. c #C6A27F",
"n. c #D2A67A",
"m. c #F0C844",
"M. c #F4D044",
"N. c #727483",
"B. c #AFAFAD",
"V. c #91908F",
"C. c #969698",
"Z. c #BE9E80",
"A. c #BFA484",
"S. c #9799A4",
"D. c #B5B4B4",
"F. c #B9B9BF",
"G. c #A7A8B0",
"H. c #C3A384",
"J. c #C7A989",
"K. c #CBAC8C",
"L. c #D2AF8E",
"P. c #CFB18E",
"I. c #D1B08F",
"U. c #DAB592",
"Y. c #D9B794",
"T. c #E4BF9A",
"R. c #E4C29C",
"E. c #E9C49E",
"W. c #EBC6A0",
"Q. c #EEC9A4",
"!. c #EFCCAB",
"~. c #F3CDA6",
"^. c #F2CEAC",
"/. c #EFCEB1",
"(. c #EFD0B7",
"). c #F0D1B7",
"_. c #C6C5C4",
"`. c #CBCBCC",
"'. c #C8C6C6",
"]. c #D0CFD2",
"[. c #D2D2D2",
"{. c #D8D7D7",
"}. c #D9D8D8",
"|. c #FADDC8",
" X c #E4E3E3",
".X c #00B140",
/* pixels */
".X.X.X.X.X.X.X.X.X.X.X.X.X.X.X.X.X.X.X.X.X.X.X.X.X.X.X.X.X.X.X.X.X.X.X.X.X.X.X.X.X.X.X.X.X.X.X.X.X.X.X.X.X.X.X.X.X.X.X.X",
".X.X.X.X.X.X.X.X.X.X.X.X.X.X.X.X.X.X.X.X.X.X.X.X.X.X.X.X.X.X.X.X.X.X.X.X.X.X.X.X.X.X.X.X.X.X.X.X.X.X.X.X.X.X.X.X.X.X.X.X",
".X.X.X.X.X.X.X.X.X.X.X.X.X.X.X.X.X.X.X.X.X.X.X.X.X.X.X.X.X.X.X.X.X.X.X.X.X.X.X.X.X.X.X.X.X.X.X.X.X.X.X.X.X.X.X.X.X.X.X.X",
".X.X.X.X.X.X.X.X.X.X.X.X.X.X.X.X.X.X.X.X.X.X.X.X.X.X.X.X.X.X.X.X.X.X.X.X.X.X.X.X.X.X.X.X.X.X.X.X.X.X.X.X.X.X.X.X.X.X.X.X",
".X.X.X.X.X.X.X.X.X.X.X.X.X.X.X.X.X.X.X.X.X.X.X.X.X.X.X.X.X.X.X.X.X.X.X.X.X.X.X.X.X.X.X.X.X.X.X.X.X.X.X.X.X.X.X.X.X.X.X.X",
".X.X.X.X.X.X.X.X.X.X.X.X.X.X.X.X.X.X.X.X.X.X.X.X.X.X.X.X.X.X.X.X.X.Xo O O o .X.X.X.X.X.X.X.X.X.X.X.X.X.X.X.X.X.X.X.X.X.X",
".X.X.X.X.X.X.X.X.X.X.X.X.X.X.X.X.X.X.X.X.X.X.X.X.X.X.Xo o o o o O O 3 w D 4 O .X.X.X.X.X.X.X.X.X.X.X.X.X.X.X.X.X.X.X.X.X",
".X.X.X.X.X.X.X.X.X.X.X.X.X.X.X.X.X.X.X.X.X.XO O O O $ 3 4 4 8 r C H L K K Z 2 o O .X.X.X.X.X.X.X.X.X.X.X.X.X.X.X.X.X.X.X",
".X.X.X.X.X.X.X.X.X.X.X.X.X.X.X.X.X.X.Xo o O $ 8 l D K K K K K K K K K K K J z 7 O O .X.X.X.X.X.X.X.X.X.X.X.X.X.X.X.X.X.X",
".X.X.X.X.X.X.X.X.X.X.X.X.X.X.X.X.X+ O $ 6 B J L K K K K K K K K K L J J J L K L B O o .X.X.X.X.X.X.X.X.X.X.X.X.X.X.X.X.X",
".X.X.X.X.X.X.X.X.X.X.X.X.X.X.X.X+ $ 8 S K K K L L K K K K K K K L K K L K K K K K C 3 o O .X.X.X.X.X.X.X.X.X.X.X.X.X.X.X",
".X.X.X.X.X.X.X.X.X.X.X.X.X.Xo O 7 S K K K K K K K K K K K K K K K K K K K K K K K K J e O o .X.X.X.X.X.X.X.X.X.X.X.X.X.X",
".X.X.X.X.X.X.X.X.X.X.X.X.Xo O r K K K K K K K K K K K K K K K K K K K K L L K J L L K L l $ o .X.X.X.X.X.X.X.X.X.X.X.X.X",
".X.X.X.X.X.X.X.X.X.X.X.Xo 2 S K K K E K K K K K K K K K K K K K K K K L J J L L L K L L L S 1 o .X.X.X.X.X.X.X.X.X.X.X.X",
".X.X.X.X.X.X.X.X.X.XO O 6 J K K K K K K K K K K K L K K K K K K K K K L K K L K K L K K K K H & o .X.X.X.X.X.X.X.X.X.X.X",
".X.X.X.X.X.X.X.X.XO O w L K K K K K K K K K K J K K K K J K J J H J H J J J J J J J J J L K K S 4 o .X.X.X.X.X.X.X.X.X.X",
".X.X.X.X.X.X.X.Xo O r K K K K K K K K K K K K J L L L J L J J J J L J H H J H J H J H J H J L K S 3 o .X.X.X.X.X.X.X.X.X",
".X.X.X.X.X.X.XO O e K K K K K K K K K L K J J J J J J J J J J J L J J J J H J J J H J H H H H L K D $ o .X.X.X.X.X.X.X.X",
".X.X.X.X.X.XO O e K K K K K K K L J J J J J J J J J J L K J J J J J J H H J H H H H S J H S A A S D 6 O O .X.X.X.X.X.X.X",
".X.X.X.X.X.XO w K K K K L J J J J J J K J K K J L L J J J J J J J H H H J H H H S S H H D D D A D C r 4 O .X.X.X.X.X.X.X",
".X.X.X.X.Xo 4 L K K K K L L L L J K J J J J J J H J H H H J J H H J H J H H H H H S S S A S A H D D r w 1 o .X.X.X.X.X.X",
".X.X.X.Xo 1 S K K K J J J L J J J J J J J S S J J H H J J H J J J H J H H H H S S S S S H H A A A D r w w O O .X.X.X.X.X",
".X.X.X.Xo l K K J H H H J J J H J J J H J J J J J J J J S J H H J H H H H S S S S S H S A A A D A A N e w 4 O .X.X.X.X.X",
".X.X.X+ 3 K K J S S H J J J H J S J J J S S J J J S J J S S H H S H H S H S H H S S D D A D B C A C r r w w O O .X.X.X.X",
".X.X.XO C K L H H H H H H H H J J J J S J H H H H J H S S S S S D S S S H H S D D D D D C B B D C r r w w w 2 o .X.X.X.X",
".X.Xo 2 J H Z S S Z S J H J J H S J J S S H H H H H S S D S S S S H S S D D D D S S C C C r C B r r r r w r 4 O o .X.X.X",
".X.Xo w J C C Z B C C D D S H H D S S S S A A A A S S S S S S S D D S D D S D D C C C C B C C r r r r r r r w , O .X.X.X",
".X.XO w S r r r r C Z Z Z C C C l D D D A A A D A D S S S S D D D S D S D D C C C C r C D C B B B N r w r r w 4 O .X.X.X",
".X.Xo 4 w r r r B C D S Z C N C D D D D S A A A S D D A A A S D C D D C C B B B C r C C C r r r B B e r r r w 4 # o .X.X",
".X.Xo 2 w r C C C C N r C Z A Z C D D D A A A C C C C C C C B B B B C C C B B C C C C r r r r B B r r r r r w w 2 O .X.X",
".X.XO O 4 w N r r r r r r C C Z D C D C C C C C C C B B B B r r B C C C C D D C C r r r r B B B r r r r r w w 6 4 o .X.X",
".X.X.Xo 1 6 r r r r e r r r r r B C C B B C C C C B B r N B C C B B D C D C C N r r r r r C r B B r r r w r r w w O o .X",
".X.X.X.Xo 1 6 r r r r r r r r r r B B B C B B C C C C B C D C C B C C C B r r r r r C r C r C r r r r r w r r w 4 , O .X",
".X.X.X.XX o 1 4 w w w r w r r r r r r r B B B C C B r B B B C C C B r r r B r B C r r C C r r r r r r w w r w w 4 $ $ .X",
".X.X.X.X.XX o O 1 4 4 w w r r r r w r r r r r r B r B r r r r r r r r r r r B B C r r C r r r r r r r w w r r 4 4 1 + .X",
".X.X.X.X.Xo @ @ O 1 4 4 w w w w r r r r r r r r r r r r r w r r N e r r r r B r r r C r r r r r r r w r r r w w w 1 + .X",
".X.X.X.X.Xo - a y @ O 2 4 4 6 w w w r r r r B r r r r r r B B r B r B r B r r B C r r r r r r r r w w r w r w w 8 1 $ .X",
".X.X.X.X.Xo % h f * . O O $ 4 4 w w w w r r r r r r r B r r r r r r r r B B B r r r r r r r r r r w r r r w w 4 w 3 + .X",
".X.X.X.X.X.Xo % $ O s I x 2 o $ 1 w r w r w r r r r w r e r r r r r B r r r r r r w r r r r r r w w r w r w w w 4 4 O O ",
".X.X.X.X.X.X.X. $ T h.P.J.a.G 1 O 3 4 w w w w w r w r r r r B B B r r r r r N e w r r r r r r w r r r r w w w 4 4 4 $ O ",
".X.X.X.X.X.X.X  7 H.E.~.Q.R.K.O.8 $ 1 4 w w w r r r r r r r r N r r r w r w e r w N r r r e w w r r r w w w 4 w 4 4 O O ",
".X.X.X.X.X.X.X. z Y.E.Q.R.n.c...| i @ 1 4 w w r r N r r r r r r r r r r r N e w w w r e w r r r r r w w w w w 4 4 4 O o ",
".X.X.X.X.X.X.X. x Y.R.Q.v.( ! ! / ! u O 1 6 w w w w r r r w w w w r w r w w w w r w w w w N r w w w w w w 4 4 4 4 4 + O ",
".X.X.X.X.X.X.X+ P R.E.c. ...p.n.n.p.| 5 , 4 6 w w r w w w e r r e e w w w w r r w r w r w r r r w r r w 4 w 4 4 4 4 o .X",
".X.X.X.X.X.X.X. I R.i. .i.b.g.a.f.h.b.+.$ , 4 w w w w w w w w w w w w r w r e w r r r r r w w r w w w w w 4 4 , 4 3 O .X",
".X.X.X.X.X.X.Xo U p.p.l.G 6 4 w 4 3 k g.P o 3 8 w w w w w r w w w w w w e w N r r w w r w w w r r w 4 w 4 4 4 4 4 3 O .X",
".X.X.X.X.X.X.X@ c v.O.4 , L D.'.D.V.r Y h.1 1 6 w w 4 w w w w r N N r r w e w w w w w w r r w w w 4 w 4 4 4 4 1 4 # O .X",
".X.X.X.X.X.X.Xo G T O , n V F. X[._.E G R.F O 4 4 w w w w w 4 w e w w w w w w w w r w r w w w 4 w w w 4 4 4 4 4 4 # O .X",
".X.X.X.X.X.X.Xo 3 6 r O q m S. X[._.W G ~.$.o 4 4 w w 4 w w w w w w w 4 w w 4 w w w w 4 w 4 w w 4 4 4 4 4 4 4 4 1 O O .X",
".X.X.X.X.X.X.Xo X K N.q q m G. X[._.K I ~.j.# 2 4 4 w w w 4 4 w 4 4 w w 4 w w w 4 4 w w w w 4 4 4 4 4 w 4 4 4 , $ O .X.X",
".X.X.X.X.X.X.Xo o C C.M m R ]. X[.D.r a.~.J.2 1 4 4 4 w 4 w w 4 w w 4 w w 4 4 w w 4 w 4 4 4 4 w 4 4 w 4 4 1 4 1 # O .X.X",
".X.X.X.X.X.X.Xo 9 5 B.G.S.`. X{.`.Q 9 I.~.K.3 $ 1 4 4 4 w 4 w w w 4 w 4 w w w 4 w 4 4 4 4 w 4 4 w w 4 4 4 1 4 4 O .X.X.X",
".X.X.X.X.X.X.XX U T 8 C.].{.{.'.V.4 $.Q.I.G O , 4 4 4 4 4 4 4 w 4 4 4 w 4 4 4 4 4 4 4 w 4 w 4 w 4 4 4 1 4 1 4 $ O .X.X.X",
".X.X.X.X.X.X.Xo x f.G 4 L &.&.L 4 Y W.U.x o o 1 4 1 q 6 w w 4 4 4 4 4 4 4 w w w w w 4 w w w w 4 4 4 4 1 4 4 4 O .X.X.X.X",
".X.X.X.X.X.X.Xo O 3 z F s 8 9 z a.Y.A.z & v # 2 1 1 4 w 6 w 4 4 4 4 4 4 4 w 4 w 4 w w 4 4 4 4 1 4 4 , 4 4 4 O O .X.X.X.X",
".X.X.X.X.X.X.Xo i o.i $ s Y f.H.Z.Y 3 i ,.-.O 1 4 4 6 4 4 w w 4 q w 4 4 4 4 4 4 4 4 4 4 4 4 4 4 4 1 4 3 4 O O .X.X.X.X.X",
".X.X.X.X.X.X.X+ i 9.e.;.d & $ 3 $ 7 X.x.y.j o 1 3 4 4 4 4 4 4 w w 4 w 4 4 4 4 4 1 4 4 4 4 1 4 4 1 4 4 2 # O .X.X.X.X.X.X",
".X.X.X.X.X.X.Xo : { 0.0.7.z.:.*.:.0.y.y.0.i , 1 4 , 4 4 w 4 4 4 4 4 4 4 4 4 4 4 4 4 1 4 1 4 1 4 4 4 1 O o .X.X.X.X.X.X.X",
".X.X.X.X.X.X.XO o = b >.u.r.4.4.3.2.u.w.} : # 3 3 1 3 3 4 4 4 4 4 4 4 4 4 4 4 4 4 1 4 4 q 4 1 3 4 O o o .X.X.X.X.X.X.X.X",
".X.X.X.X.X.X.X.Xo * { m.y.4.0.r.e.<.9.8.{ = $ 3 1 4 4 4 , 4 4 4 4 4 4 4 4 4 1 4 4 4 1 1 4 2 1 , O o . .X.X.X.X.X.X.X.X.X",
".X.X.X.X.X.X.X.Xo @ ( 6.8.4.4.3.e.w.m.5.` % , 4 4 4 1 4 4 3 4 1 4 1 4 4 4 4 4 1 4 1 4 2 1 O O o . .X.X.X.X.X.X.X.X.X.X.X",
".X.X.X.X.X.X.X.Xo o f ] } } <.1.=.8.>.g > + O 1 1 4 4 1 , 4 1 4 1 4 1 1 1 1 1 , 1 O O O o o . .X.X.X.X.X.X.X.X.X.X.X.X.X",
".X.X.X.X.X.X.X.X.XO f ) _ ] _ [ } g = o o o O $ 1 1 , $ # # # # O O O O O O o + o o . . .X.X.X.X.X.X.X.X.X.X.X.X.X.X.X.X",
".X.X.X.X.X.X.X.X.Xo t / / ) / / _ y + O O O O O O O O + o O + O 4 4 4 w 8 3 O . .X.X.X.X.X.X.X.X.X.X.X.X.X.X.X.X.X.X.X.X",
".X.X.X.X.X.X.X.X.XO o g _ ) / _ h @ o O 4 r w w r r r 4 O 8 3 $ C D S S C e 4 + + .X.X.X.X.X.X.X.X.X.X.X.X.X.X.X.X.X.X.X",
".X.X.X.X.X.X.X.X.X.Xo u ^ ) ^ ~ t O O O w C B C S H S 1 4 L C O r K L J H B r 1 + .X.X.X.X.X.X.X.X.X.X.X.X.X.X.X.X.X.X.X",
".X.X.X.X.X.X.X.X.X.XO % h ' ) u o O O 1 r r B C S L D O B K S 1 7 L J H H C r 8 O .X.X.X.X.X.X.X.X.X.X.X.X.X.X.X.X.X.X.X",
".X.X.X.X.X.X.X.X.X.XO O a ) h * o .XO 4 e B B C C J w $ H J C 3 1 H J H H C r w $ O .X.X.X.X.X.X.X.X.X.X.X.X.X.X.X.X.X.X",
".X.X.X.X.X.X.X.X.X.X.Xo ; p * O .Xo O w r N B C D B 1 $ S J B 4 O D J H S C r r 1 O .X.X.X.X.X.X.X.X.X.X.X.X.X.X.X.X.X.X",
".X.X.X.X.X.X.X.X.X.X.Xo O O + O .XO 1 r r l B C D B # 4 C S r 8 O B J S S C r r 4 o .X.X.X.X.X.X.X.X.X.X.X.X.X.X.X.X.X.X",
".X.X.X.X.X.X.X.X.X.X.X.XO O .X.X.XO 4 w r r C B D r O 8 C C r w O w S S C B r C 8 # O .X.X.X.X.X.X.X.X.X.X.X.X.X.X.X.X.X",
".X.X.X.X.X.X.X.X.X.X.X.X.X.X.X.Xo O w r r r C r B w O w C C r w O 4 S C C r r r w # O .X.X.X.X.X.X.X.X.X.X.X.X.X.X.X.X.X",
".X.X.X.X.X.X.X.X.X.X.X.X.X.X.X.X+ O w r r r B B B 4 O 4 8 w w 4 O 2 C C B B r r w $ O .X.X.X.X.X.X.X.X.X.X.X.X.X.X.X.X.X",
".X.X.X.X.X.X.X.X.X.X.X.X.X.X.X.XO O w r r r B B B 1 o o O O o O o $ B B B C r r w 1 o .X.X.X.X.X.X.X.X.X.X.X.X.X.X.X.X.X",
".X.X.X.X.X.X.X.X.X.X.X.X.X.X.X.XO # w w r r r B w O G a.s.s.s.$.G , w C B C r w w 3 O .X.X.X.X.X.X.X.X.X.X.X.X.X.X.X.X.X",
".X.X.X.X.X.X.X.X.X.X.X.X.X.X.X.Xo , w w w r r l 4 8 j.E.!.|.|.!.P.s 4 B B B r r w 1 O .X.X.X.X.X.X.X.X.X.X.X.X.X.X.X.X.X",
".X.X.X.X.X.X.X.X.X.X.X.X.X.X.X.Xo 1 6 w w r N C $ s L.E.!.(.).!.Y.I $ s N r r w w 1 O .X.X.X.X.X.X.X.X.X.X.X.X.X.X.X.X.X",
".X.X.X.X.X.X.X.X.X.X.X.X.X.X.X.XO $ 4 w w r s N 2 s H.E.Q./.~.R.L.G $ r r r r w w 1 O .X.X.X.X.X.X.X.X.X.X.X.X.X.X.X.X.X",
".X.X.X.X.X.X.X.X.X.X.X.X.X.X.X.Xo $ 4 w w w r r 6 # @.U.R.E.E.Y.f.4 2 r r e w w w 1 O .X.X.X.X.X.X.X.X.X.X.X.X.X.X.X.X.X",
".X.X.X.X.X.X.X.X.X.X.X.X.X.X.X.Xo , 4 w w 6 w w w 1 $ T k.H.h.+.9 O w r r w w w 4 2 O .X.X.X.X.X.X.X.X.X.X.X.X.X.X.X.X.X",
".X.X.X.X.X.X.X.X.X.X.X.X.X.X.X.Xo 1 4 4 w 6 w 6 w 4 $ O 4 9 7 $ O 4 w w w w 8 4 3 1 + .X.X.X.X.X.X.X.X.X.X.X.X.X.X.X.X.X",
".X.X.X.X.X.X.X.X.X.X.X.X.X.X.X.Xo O # # $ $ 1 1 1 1 3 $ O O O $ 3 3 3 1 1 , $ $ O O O .X.X.X.X.X.X.X.X.X.X.X.X.X.X.X.X.X",
".X.X.X.X.X.X.X.X.X.X.X.X.X.X.X.X.XO o O O o O O O O O O O O o O O O O O + $ O O O O .X.X.X.X.X.X.X.X.X.X.X.X.X.X.X.X.X.X",
".X.X.X.X.X.X.X.X.X.X.X.X.X.X.X.X.X.X.Xo O $ O O 1 $ $ $ $ O o O 1 7 7 8 7 8 $ O .X.X.X.X.X.X.X.X.X.X.X.X.X.X.X.X.X.X.X.X",
".X.X.X.X.X.X.X.X.X.X.X.X.X.X.X.X.X.X.XO 4 8 $ o $ & $ & O 1 7 O $ 7 8 7 6 7 & o .X.X.X.X.X.X.X.X.X.X.X.X.X.X.X.X.X.X.X.X",
".X.X.X.X.X.X.X.X.X.X.X.X.X.X.X.X.X.X.Xo O $ O o O O O O O 8 s $ o & 3 & 3 3 # O .X.X.X.X.X.X.X.X.X.X.X.X.X.X.X.X.X.X.X.X",
".X.X.X.X.X.X.X.X.X.X.X.X.X.X.X.X.X.X.XO O O O O O O O o O O O O o O O O O O O o .X.X.X.X.X.X.X.X.X.X.X.X.X.X.X.X.X.X.X.X",
".X.X.X.X.X.X.X.X.X.X.X.X.X.X.X.X.X.X.X.X.X.X.X.X.X.X.X.Xo O o O O o O o O o O .X.X.X.X.X.X.X.X.X.X.X.X.X.X.X.X.X.X.X.X.X",
".X.X.X.X.X.X.X.X.X.X.X.X.X.X.X.X.X.X.X.X.X.X.X.X.X.X.X.X.X.X.X.X.X.X.X.X.X.X.X.X.X.X.X.X.X.X.X.X.X.X.X.X.X.X.X.X.X.X.X.X",
".X.X.X.X.X.X.X.X.X.X.X.X.X.X.X.X.X.X.X.X.X.X.X.X.X.X.X.X.X.X.X.X.X.X.X.X.X.X.X.X.X.X.X.X.X.X.X.X.X.X.X.X.X.X.X.X.X.X.X.X"
};
