/* XPM */
static xpm_row_t const p2_right_1[] = {
/* columns rows colors chars-per-pixel */
"60 90 185 2 ",
"   c #FFFFFF",
".  c #F0F0F0",
"X  c #E0E0E0",
"o  c #D0D0D0",
"O  c #C0C0C0",
"+  c #B0B0B0",
"@  c #A0A0A0",
"#  c #909090",
"$  c #808080",
"%  c #707070",
"&  c #605050",
"*  c #504040",
"=  c #403030",
"-  c #302020",
";  c #201010",
":  c #101010",
">  c #202020",
",  c #303030",
"<  c #404040",
"1  c #505050",
"2  c #606060",
"3  c #505050",
"4  c #606060",
"5  c #707070",
"6  c #505050",
"7  c #606060",
"8  c #707070",
"9  c #808080",
"0  c #909090",
"q  c #A0A0A0",
"w  c #808080",
"e  c #909090",
"r  c #A0A0A0",
"t  c #B0B0B0",
"y  c #C0C0C0",
"u  c #B0B0B0",
"i  c #C0C0C0",
"p  c #673D18",
"a  c #443C33",
"s  c #4F4517",
"d  c #694117",
"f  c #734D19",
"g  c #764718",
"h  c #6E5E16",
"j  c #4B4137",
"k  c #47423D",
"l  c #50463B",
"z  c #554A3E",
"x  c #705134",
"c  c #695C28",
"v  c #7D6521",
"b  c #2D324E",
"n  c #2F375F",
"m  c #343A5B",
"M  c #363741",
"N  c #403F40",
"B  c #3E4463",
"V  c #434343",
"C  c #484747",
"Z  c #484748",
"A  c #4B4B4B",
"S  c #484847",
"D  c #5B4E41",
"F  c #5D5143",
"G  c #504F50",
"H  c #535353",
"J  c #5A5A5A",
"K  c #555658",
"L  c #615446",
"P  c #6B5C4C",
"I  c #675746",
"U  c #726251",
"Y  c #7B6956",
"T  c #595E79",
"R  c #6F6E6D",
"E  c #706F6F",
"W  c #7D7C7B",
"Q  c #884C17",
"!  c #824B18",
"~  c #8B4F19",
"^  c #8E5219",
"/  c #8E5819",
"(  c #925519",
")  c #9A5C19",
"_  c #925F18",
"`  c #A4631A",
"'  c #AD6A1A",
"]  c #B06F1A",
"[  c #AB7819",
"{  c #B87919",
"}  c #88582D",
"|  c #985F2C",
" . c #9C6532",
".. c #817336",
"X. c #85752C",
"o. c #8A745D",
"O. c #94795F",
"+. c #816B57",
"@. c #B17F4F",
"#. c #8C7663",
"$. c #937C66",
"%. c #807F7E",
"&. c #98821B",
"*. c #BE8219",
"=. c #958231",
"-. c #A28C2F",
";. c #A9912C",
":. c #B9962C",
">. c #B69F3D",
",. c #C8951A",
"<. c #C58A16",
"1. c #DBAD1A",
"2. c #DDB21A",
"3. c #E5BA17",
"4. c #CA902C",
"5. c #D39930",
"6. c #CDAF2D",
"7. c #D9A72F",
"8. c #D7AB29",
"9. c #D6B527",
"0. c #D3A435",
"q. c #E4BA29",
"w. c #EAC52A",
"e. c #F5CF28",
"r. c #F6D025",
"t. c #F8D329",
"y. c #E9C333",
"u. c #BB8A5C",
"i. c #B7885A",
"p. c #9B846D",
"a. c #96877B",
"s. c #BB8D61",
"d. c #A68C72",
"f. c #AA9276",
"g. c #B49A7D",
"h. c #B99A7E",
"j. c #B69679",
"k. c #A98969",
"l. c #CAB046",
"z. c #DABC42",
"x. c #C4976B",
"c. c #C79A70",
"v. c #C6A27F",
"b. c #D2A67A",
"n. c #F0C844",
"m. c #F4D044",
"M. c #727483",
"N. c #A8A8A8",
"B. c #91908F",
"V. c #969698",
"C. c #BE9E80",
"Z. c #BFA484",
"A. c #9799A4",
"S. c #B5B4B4",
"D. c #B9B9BF",
"F. c #A7A8B0",
"G. c #C3A384",
"H. c #C7A989",
"J. c #CBAC8C",
"K. c #D2AF8E",
"L. c #CFB18E",
"P. c #D1B08F",
"I. c #DAB592",
"U. c #D9B794",
"Y. c #E4BF9A",
"T. c #E4C29C",
"R. c #E9C49E",
"E. c #EBC6A0",
"W. c #EEC9A4",
"Q. c #EFCCAB",
"!. c #F3CDA6",
"~. c #F2CEAC",
"^. c #EFCEB1",
"/. c #EFD0B7",
"(. c #F0D1B7",
"). c #C6C5C4",
"_. c #CBCBCC",
"`. c #C8C6C6",
"'. c #D0CFD2",
"]. c #D2D2D2",
"[. c #D8D7D7",
"{. c #D9D8D8",
"}. c #FADDC8",
"|. c #E4E3E3",
" X c #00B140",
/* pixels */
" X X X X X X X X X X X X X X X X X X X X X X X X X X X X X X X X X X X X X X X X X X X X X X X X X X X X X X X X X X X X",
" X X X X X X X X X X X X X X X X X X X X X X X X X X X X X X X X X X X X X X X X X X X X X X X X X X X X X X X X X X X X",
" X X X X X X X X X X X X X X X X X X X X X X X X X X X X X X X X X X X X X X X X X X X X X X X X X X X X X X X X X X X X",
" X X X X X X X X X X X X X X X X X X X X X X X X X X X X X X X X X X X X X X X X X X X X X X X X X X X X X X X X X X X X",
" X X X X X X X X X X X X X X X X X X X X X X X X X X X X X X X X X X X X X X X X X X X X X X X X X X X X X X X X X X X X",
" X X X X X X X X X X X X X X X X X X X X X XO O o O  X X X X X X X X X X X X X X X X X X X X X X X X X X X X X X X X X X",
" X X X X X X X X X X X X X X X X X X X X X+ 6 S w < # o O o o O O  X X X X X X X X X X X X X X X X X X X X X X X X X X X",
" X X X X X X X X X X X X X X X X X X XO O < S J J K A V w q 3 2 < < O O o O  X X X X X X X X X X X X X X X X X X X X X X",
" X X X X X X X X X X X X X X X X X X# O 6 V H J J J J J J J J J K G S e 7 < O O #  X X X X X X X X X X X X X X X X X X X",
" X X X X X X X X X X X X X X X X Xo O N J J K K H H J J J J J J J J J J J H V 3 O O +  X X X X X X X X X X X X X X X X X",
" X X X X X X X X X X X X X X XO o % k J J J J K J J J J J J J J J J J J J J J J A 7 + o  X X X X X X X X X X X X X X X X",
" X X X X X X X X X X X X X XO O w K J J J J J J J J J J J J J J J J J J J J J J J J S 3 O o  X X X X X X X X X X X X X X",
" X X X X X X X X X X X X Xo < V J J H H H J H J J J J J J J J J J J J J J J J J J J J K N + O  X X X X X X X X X X X X X",
" X X X X X X X X X X X XO 1 A K K H J J J J H H H J J J J J J J J J J J J J J J J J J J J S 1 o  X X X X X X X X X X X X",
" X X X X X X X X X X Xo 1 A J J J J J J J H K K J K J J J J J J J J K J J J J J J J J K J J G 5 O o  X X X X X X X X X X",
" X X X X X X X X X XO 2 A J J H H H H H H H H H H G H H H K K K J J J K J J J J J J J R J J J K w + O  X X X X X X X X X",
" X X X X X X X X Xo 2 A J K G G H G H G H G H G G H K H H H H H H J H J H J J J J J J J J J J J K e O O  X X X X X X X X",
" X X X X X X X Xo O Z J H G G G G H H G G H H H G H H K K K H G H H H H H H H J J J J J J J J J J J e O O  X X X X X X X",
" X X X X X X XO o q Z A A S A G G A G H A H A H H G H G H H K K J H H G H H H G H H H K J J J J J J K e O O  X X X X X X",
" X X X X X X XO 3 e V A A V Z A G G A A H G H H H H A H H G H H H H J H H J J J J H H G H H H K J J J K q +  X X X X X X",
" X X X X X XO < q e C S A A A A A A G H A A H H G H G H H H G H G G H H H H H H H H J H K K K K J J J J H 2 O  X X X X X",
" X X X X XO O 7 q e S S Z Z A A A A A A A H A G H H H G G G H H H G H G H A A G H H H H H H K K H K J J J G # o  X X X X",
" X X X X XO 3 q e e Z Z S Z S Z A A A A A A A H G G G G G G G G H G H G H G H H G G H H G H H G H G G H J J N O  X X X X",
" X X X XO # q q e M V Z V V Z S S A A A A H A A G A G G G G A G A H G H G H G A H H G H H G G H H G S G H J J 2 O  X X X",
" X X X XO < e q e e e M S N N V S S S Z Z A A G G A A Z Z A A G G H H H A H H G G G G H H G G G G G G G H H J V O  X X X",
" X X XO o 3 q q e e e e N S e V V V S Z Z Z S S A A A G G S S S k A H H A H A A G G G G H G G G H G S S S S H H < o  X X",
" X X XO < q e q w e a M e V S e N V V Z S Z S S Z Z Z A A G A G A A A S S S S S A A A Z A G A A S N V N C N V H w O  X X",
" X X XO < q e e e e N V e e S S V N V V V S Z S Z A Z Z S A S A A A S S S S A S Z Z Z V V V S V S S N e e N e S q O  X X",
" X XO O q q e e e e k N e e N V V V N N N N N V Z Z S V Z Z S S S S S S S S S S S Z Z V N N V C S V V V M a M q 2 O  X X",
" X XO 1 q e e e e e M e N e e e e N V V V N N V V N N N N V V V Z V V V S S S S S S S Z S C C V N N V V V V N q < O  X X",
" X XO 3 3 q e q e e e e N N e e e e e N V S Z V V N V N M e N N N N V V V V V V V C S V V V N N e e e M e e w 3 O O  X X",
" XO O 3 q e e q e e e e e N N N N e e e e N V S S Z N V V N e e e N N V V V V N N V N N N e e e e e e e e q q < O  X X X",
" XO O q q e e q e e e e e N N N N N N e e e e N V V V N V S S V N N S V V N V V V k M N e e e e q q e e e q < o  X X X X",
" XO > 3 q q e q q e e e N e e V N N N N N N e N e N N N V V N N N M e V N N V e M e N w e e e e e e q q 3 < o o  X X X X",
" X# # 3 q q e e q e e e e e e e N e N e e N e e e e e e e e e q e e N e N e e e e q e q e e e q q q 3 3 O o o  X X X X X",
" XO < q q q e q e q e e e e e e e N N e e N N e e e e e q e e e e e e e e q e e e e e e q q q 5 3 < > O @ @ o  X X X X X",
" XO 2 7 q q q e e q e e M e N e e e N e e N e e e N N e N e N e e e e e e e N e e q q q q q 3 2 < # @ r d & o  X X X X X",
" X# 3 3 3 q q e q e q q e e e e e w e e N N N e e e e e e e e N V e e e e e e e q q e q 3 < < O O . & d g $ o  X X X X X",
"O O 2 3 q q q e e e e q e e e e e q e e N e N e e N e e e e q e q e q e e e e q e e q 2 O o % z P a O $ @ o  X X X X X X",
"# O 3 3 q q q q q q e e q e e e e e e q q q e e e e e N e N N e e e e e q e q q q 3 < O < D p.H.L.g.Y # .  X X X X X X X",
"O O 3 3 3 q q q q e e q e q e e e e q q e q e q q e e q M e e e e e q e q q q q 3 < O 7 o.K.T.W.W.R.Z.5    X X X X X X X",
"O O 3 3 3 q q q q q e e e e q q q e e q q e e e e e e e e e e e e e e e e q q 3 < # y v  .x.b.Y.W.W.U.j X  X X X X X X X",
"O O 3 3 3 3 3 q e q e e q q e q q e e e q q q q q e e q q e q e e e q q w q q < @ y ~ ~ ~ Q } c.W.T.I.z X  X X X X X X X",
" XO 3 3 3 3 3 q q q q q e e e e e q q q e e q q q e q e e q e q q q e q q 3 3 O 4 } i.K.b.u.| | c.W.Y.L o  X X X X X X X",
" XO 2 3 3 3 3 3 q q q q q e e e q e e q q q q e q q q q q q q q q e q q q 3 # # O.c.C.d.$.f.C.s. .i.T.I X  X X X X X X X",
" XO < 2 3 3 3 3 3 q q q e q q q q e q e e e e q q q e q q q e q q q q q q < o P f.l 2 3 q 3 5 F k.i.i.x O  X X X X X X X",
" XO > 3 < 3 3 3 3 q q q q q e q e q q e e q q q q e e e e q q q 3 3 q q q > # g.U e B.S.).S.K > 2 o.j.x #  X X X X X X X",
" X+ O 3 3 3 3 q 3 q 3 3 q q q q q e q q q q q q q e q q q q q q q q q 3 3 O z T.D R `.].|.D.B b > # o.z .  X X X X X X X",
" X+ O 2 < 3 3 q 3 3 q 3 q 3 q q 3 q q q 3 q q 3 q q q q q q 3 3 q 3 q 3 2 o p.!.F E `.].|.V.n 0 + M 5 1 O  X X X X X X X",
" X XO < 3 < < 3 q 3 3 3 3 q q 3 q 3 3 q q q q q q 3 q 3 q 3 q q 3 q 3 3 2 o g.!.P J ).].|.F.m 0 , M.J X O  X X X X X X X",
" X Xo O 3 3 < 3 3 q 3 3 q 3 3 3 q q q 3 3 q q 3 3 q 3 q q q q q q 3 3 3 # # H.!.p.e S.].|.'.T n n V.V o O  X X X X X X X",
" X X XO < < 3 3 3 3 3 q 3 3 q 3 3 3 3 q q 3 3 q q q 3 q 3 q 3 3 3 3 3 2 # 6 J.!.K.7 W _.{.|._.A.F.a.4 8 o  X X X X X X X",
" X X X+ < 3 3 < 3 < 3 3 q 3 q q q 3 q 3 3 3 3 3 3 3 3 q 3 3 3 3 q 3 3 < # O z L.!.#.3 B._.[.[.].V.q Y I o  X X X X X X X",
" X X X X+ < 3 < 3 3 3 3 3 q q 3 3 q q 3 q 3 q q q 3 3 3 3 3 q 3 q 3 3 3 < o # z P.R.U 2 K %.W J 2 F d.z o  X X X X X X X",
" X X X XO # 3 3 < 3 < 3 3 3 3 3 3 q 3 q q 3 q 3 3 3 3 3 3 3 q q 3 3 < 3 < O c * l G.T.p.l 8 7 a z k < O O  X X X X X X X",
" X X X X Xo # 3 < 3 > 3 3 3 3 3 3 3 3 3 3 3 3 3 3 3 q 3 q q q 3 3 3 3 < < o =.i.u 1 U h.G.d.U a < s X.9 X  X X X X X X X",
" X X X X X Xo # > 3 3 3 < < 3 3 3 3 3 3 3 < 3 3 3 q 3 3 q q 3 3 q 3 < 3 < O h t.z.v w < 3 1 $ s -.w.1.u o  X X X X X X X",
" X X X X X X Xo O < 3 3 3 3 3 < < 3 < 3 3 3 3 3 3 3 3 3 3 3 3 3 3 < 3 > 3 O u 9.e.t.9.;.&.;.l.6.9.9.[ = O  X X X X X X X",
" X X X X X X X Xo O # < 3 3 < 3 3 < 3 3 3 3 3 3 3 3 3 3 3 3 3 3 3 < 3 3 3 # * *.q.y.1.1.3.q.e.w.:.v ; o O  X X X X X X X",
" X X X X X X X X X. O O > < < 3 3 < < 3 3 3 > 3 3 3 3 2 3 3 3 2 3 3 < 3 < O $ [ 7.8.,.w.t.9.3.r.n.[ % O  X X X X X X X X",
" X X X X X X X X X X X. o O + < < 3 < < 2 2 2 3 3 3 2 3 3 < 3 3 3 > < 3 3 > # _ 4.n.q.w.3.3.3.7.5./ # o  X X X X X X X X",
" X X X X X X X X X X X X X. o . O O # < > > < < > 3 < < < 3 3 > 2 2 3 2 < O O - f :.0.*.<.,.{ { ' d O O  X X X X X X X X",
" X X X X X X X X X X X X X X X X. o O O o o O O O O O O O # O # > # < < # o o o o = g { ] ) ` ) ( d O  X X X X X X X X X",
" X X X X X X X X X X X X X X X X X X X X. O 3 3 q 3 3 3 O o O o O o O O O o O O o o y ) ~ ^ ( ^ / t O  X X X X X X X X X",
" X X X X X X X X X X X X X X X X X X Xo o 3 q V A A S N # < q O 2 e e q q q e 3 o O + f ) ^ ( ) g . o  X X X X X X X X X",
" X X X X X X X X X X X X X X X X X X XO < e V G K K J e O V J 3 < H H S V V V q O O o t Q ~ ( ~ y o  X X X X X X X X X X",
" X X X X X X X X X X X X X X X X X X XO 3 N V A G H J 5 # G J N O S K G V N N q < O O O y ^ ` ! $ o  X X X X X X X X X X",
" X X X X X X X X X X X X X X X X X XO O w e V G A K A < < V H G # q G V S N e e 3 O  Xo & g ^ p O +  X X X X X X X X X X",
" X X X X X X X X X X X X X X X X X Xo < e e V A A H S O 3 N H A < < N S V N N e q # O  XO $ i - O  X X X X X X X X X X X",
" X X X X X X X X X X X X X X X X X Xo 3 M e N S G G N O 5 N A S 2 # e A N N e e w # O  X+ O O O o  X X X X X X X X X X X",
" X X X X X X X X X X X X X X X X XO O q k e V V S G q # 7 N V V 3 O e S N N e e e 3 o  X X XO O  X X X X X X X X X X X X",
" X X X X X X X X X X X X X X X X XO + q N e N N V S 3 O q e N N q O q V N N N e e 3 O O  X X X X X X X X X X X X X X X X",
" X X X X X X X X X X X X X X X X XO < q e N N N V V 2 O q q q 3 3 O 3 V M V e q e q O O  X X X X X X X X X X X X X X X X",
" X X X X X X X X X X X X X X X X XO < q e e N N V e < O . O O O O o < a N N e w q q # O  X X X X X X X X X X X X X X X X",
" X X X X X X X X X X X X X X X X XO < q w e N V V q # F #.a.a.p.$.D O w N e e e e q # o  X X X X X X X X X X X X X X X X",
" X X X X X X X X X X X X X X X X XO < q q e N N e < a L.^.}.}.^.E.C.4 3 N e N e q 3 < O  X X X X X X X X X X X X X X X X",
" X X X X X X X X X X X X X X X X XO 3 q e e e N a # P U.E././.W.R.K.j < e e e e q 3 < O  X X X X X X X X X X X X X X X X",
" X X X X X X X X X X X X X X X X XO < 3 q e q e M < z K.E.^./.W.R.v.8 1 e e e q q 3 < O  X X X X X X X X X X X X X X X X",
" X X X X X X X X X X X X X X X X XO < q q q w e N 3 4 d.U.R.R.T.I.+.O q e e q q 5 3 < O  X X X X X X X X X X X X X X X X",
" X X X X X X X X X X X X X X X X XO < 3 q q q q e q # 8 o.g.v.g.Y # > q q q 3 q q 3 < O  X X X X X X X X X X X X X X X X",
" X X X X X X X X X X X X X X X X XO < 3 3 7 q 3 q q 3 # O 5 8 2 O # 7 q q 5 3 3 3 3 < o  X X X X X X X X X X X X X X X X",
" X X X X X X X X X X X X X X X X Xo o O + # < < < < 2 < < o O + # 2 < < < < < < < O O o  X X X X X X X X X X X X X X X X",
" X X X X X X X X X X X X X X X X X Xo O O O # O O O O O O O O O O O o O o O o o O O O  X X X X X X X X X X X X X X X X X",
" X X X X X X X X X X X X X X X X X X X Xo $ 7 7 7 5 6 2 O o o + # # # # o o < O +  X X X X X X X X X X X X X X X X X X X",
" X X X X X X X X X X X X X X X X X X X XO < 6 7 7 7 6 # O 6 # + # # # # o # 7 2 O  X X X X X X X X X X X X X X X X X X X",
" X X X X X X X X X X X X X X X X X X X Xo # 1 2 % 2 # O # w 7 O O O # O o O # # O  X X X X X X X X X X X X X X X X X X X",
" X X X X X X X X X X X X X X X X X X X XO O O O O o O o O + + o O O O O O O O O O  X X X X X X X X X X X X X X X X X X X",
" X X X X X X X X X X X X X X X X X X X X XO + o o O O O o O o O  X X X X X X X X X X X X X X X X X X X X X X X X X X X X",
" X X X X X X X X X X X X X X X X X X X X X X X X X X X X X X X X X X X X X X X X X X X X X X X X X X X X X X X X X X X X",
" X X X X X X X X X X X X X X X X X X X X X X X X X X X X X X X X X X X X X X X X X X X X X X X X X X X X X X X X X X X X"
};
