/* XPM */
static xpm_row_t const p2_right_5[] = {
/* columns rows colors chars-per-pixel */
"60 90 130 2 ",
"   c #FFFFFF",
".  c #F0F0F0",
"X  c #E0E0E0",
"o  c #D0D0D0",
"O  c #C0C0C0",
"+  c #B0B0B0",
"@  c #A0A0A0",
"#  c #909090",
"$  c #808080",
"%  c #707070",
"&  c #605050",
"*  c #504040",
"=  c #403030",
"-  c #302020",
";  c #201010",
":  c #101010",
">  c #202020",
",  c #303030",
"<  c #404040",
"1  c #505050",
"2  c #606060",
"3  c #505050",
"4  c #606060",
"5  c #707070",
"6  c #505050",
"7  c #606060",
"8  c #707070",
"9  c #808080",
"0  c #909090",
"q  c #A0A0A0",
"w  c #808080",
"e  c #909090",
"r  c #A0A0A0",
"t  c #B0B0B0",
"y  c #C0C0C0",
"u  c #B0B0B0",
"i  c #C0C0C0",
"p  c #383838",
"a  c #393939",
"s  c #3A3A3A",
"d  c #3B3B3B",
"f  c #3C3C3C",
"g  c #3D3D3D",
"h  c #3E3E3E",
"j  c #3F3F3F",
"k  c #473117",
"l  c #543617",
"z  c #483E34",
"x  c #5E521E",
"c  c #774717",
"v  c #504421",
"b  c #584C3F",
"n  c #695D26",
"m  c #7A5E31",
"M  c #2C304C",
"N  c #303659",
"B  c #32395E",
"V  c #353C5F",
"C  c #3A3F5F",
"Z  c #414141",
"A  c #434343",
"S  c #444344",
"D  c #464546",
"F  c #474647",
"G  c #494849",
"H  c #4A494A",
"J  c #4B4B4B",
"K  c #4C4C4C",
"L  c #4E4E4E",
"P  c #505050",
"I  c #5E5449",
"U  c #505050",
"Y  c #515151",
"T  c #525252",
"R  c #535353",
"E  c #555555",
"W  c #565657",
"Q  c #585858",
"!  c #585858",
"~  c #5A5A5A",
"^  c #5B5B5B",
"/  c #5C5C5C",
"(  c #685949",
")  c #6B5C4C",
"_  c #766655",
"`  c #5D6175",
"'  c #706F6F",
"]  c #8B5017",
"[  c #93561A",
"{  c #9C611E",
"}  c #AD7118",
"|  c #B87B19",
" . c #876E24",
".. c #A26B3A",
"X. c #86715C",
"o. c #AB7746",
"O. c #8D7861",
"+. c #947E67",
"@. c #9F8928",
"#. c #B79F34",
"$. c #C6921F",
"%. c #CDA11D",
"&. c #D9B01F",
"*. c #CF972D",
"=. c #C7AA35",
"-. c #E1B721",
";. c #E2BF32",
":. c #ECC526",
">. c #F4CE33",
",. c #B7895B",
"<. c #9D856C",
"1. c #A58C72",
"2. c #BA9775",
"3. c #8F919A",
"4. c #B3B3B5",
"5. c #C2A284",
"6. c #CFAA86",
"7. c #D7B390",
"8. c #DEBB96",
"9. c #D4BAA5",
"0. c #E6C19C",
"q. c #ECC7A2",
"w. c #F1CBA6",
"e. c #EFCFB5",
"r. c #C5C4C4",
"t. c #CCCCCD",
"y. c #D5D5D5",
"u. c #F8DCC8",
"i. c #E4E3E2",
"p. c #00B140",
/* pixels */
"p.p.p.p.p.p.p.p.p.p.p.p.p.p.p.p.p.p.p.p.p.p.p.p.p.p.p.p.p.p.p.p.p.p.p.p.p.p.p.p.p.p.p.p.p.p.p.p.p.p.p.p.p.p.p.p.p.p.p.p.",
"p.p.p.p.p.p.p.p.p.p.p.p.p.p.p.p.p.p.p.p.p.p.p.p.p.p.p.p.p.p.p.p.p.p.p.p.p.p.p.p.p.p.p.p.p.p.p.p.p.p.p.p.p.p.p.p.p.p.p.p.",
"p.p.p.p.p.p.p.p.p.p.p.p.p.p.p.p.p.p.p.p.p.p.p.p.p.p.p.p.p.p.p.p.p.p.p.p.p.p.p.p.p.p.p.p.p.p.p.p.p.p.p.p.p.p.p.p.p.p.p.p.",
"p.p.p.p.p.p.p.p.p.p.p.p.p.p.p.p.p.p.p.p.p.p.p.p.p.p.p.p.p.p.p.p.p.p.p.p.p.p.p.p.p.p.p.p.p.p.p.p.p.p.p.p.p.p.p.p.p.p.p.p.",
"p.p.p.p.p.p.p.p.p.p.p.p.p.p.p.p.p.p.p.p.p.p.p.p.p.p.p.p.p.p.p.p.p.p.p.p.p.p.p.p.p.p.p.p.p.p.p.p.p.p.p.p.p.p.p.p.p.p.p.p.",
"p.p.p.p.p.p.p.p.p.p.p.p.p.p.p.p.p.p.p.p.p.p.p.p.p.p.p.p.p.p.p.p.p.p.p.p.p.p.p.p.p.p.p.p.p.p.p.p.p.p.p.p.p.p.p.p.p.p.p.p.",
"p.p.p.p.p.p.p.p.p.p.p.p.p.p.p.p.p.p.p.p.p.p.p.p.o & & O p.p.p.p.p.p.p.p.p.p.p.p.p.p.p.p.p.p.p.p.p.p.p.p.p.p.p.p.p.p.p.p.",
"p.p.p.p.p.p.p.p.p.p.p.p.p.p.p.p.p.p.p.p.p.p.p.o ; A j 4 * o + p.p.p.p.p.p.p.p.p.p.p.p.p.p.p.p.p.p.p.p.p.p.p.p.p.p.p.p.p.",
"p.p.p.p.p.p.p.p.p.p.p.p.p.p.p.p.p.p.p.p.p.o X < u Q / Q H p 5 ; & @ X O o p.p.p.p.p.p.p.p.p.p.p.p.p.p.p.p.p.p.p.p.p.p.p.",
"p.p.p.p.p.p.p.p.p.p.p.p.p.p.p.p.p.p.p.p.o * r F U ! ^ ^ / ^ ! U G C i 8 1 & X o p.p.p.p.p.p.p.p.p.p.p.p.p.p.p.p.p.p.p.p.",
"p.p.p.p.p.p.p.p.p.p.p.p.p.p.p.p.p.p.. X 1 S ~ ^ ! W T Y Q ! ^ / / / ^ ! Y S r < X + p.p.p.p.p.p.p.p.p.p.p.p.p.p.p.p.p.p.",
"p.p.p.p.p.p.p.p.p.p.p.p.p.p.p.p.p.% < s T ^ ^ ^ ~ ! W W W E ~ ^ ^ ^ ^ ! ! ! ! U f 2 & + p.p.p.p.p.p.p.p.p.p.p.p.p.p.p.p.",
"p.p.p.p.p.p.p.p.p.p.p.p.p.p.p.O & q P ~ ~ ! ! ! ! ! ! ^ ^ ^ ^ ^ ^ ^ ^ ^ ^ ! W ! ^ T f 1 @ p.p.p.p.p.p.p.p.p.p.p.p.p.p.p.",
"p.p.p.p.p.p.p.p.p.p.p.p.p.p.o 1 A W W E E W Q Q Q Q ! ^ ^ ^ ^ ^ ^ ^ ^ ^ ^ ^ ^ ! ~ / ^ P e & + p.p.p.p.p.p.p.p.p.p.p.p.p.",
"p.p.p.p.p.p.p.p.p.p.p.p.p.X 2 J ^ ! ! ~ ! ! Q W E R E ! ~ ~ ~ ~ ^ ^ ^ ^ ^ ^ ^ ^ ^ ^ ^ / ! j ; X p.p.p.p.p.p.p.p.p.p.p.p.",
"p.p.p.p.p.p.p.p.p.p.p.& & 0 L ~ ! Q W W W Q ! ! ! ! Q ! ! Q ! ! ! ! ! ~ ^ ^ ^ ^ ^ ^ ^ ^ ^ ^ G 1 o p.p.p.p.p.p.p.p.p.p.p.",
"p.p.p.p.p.p.p.p.p.p.& & t T ~ W T Y Y Y Y Y T T T T T T T R Q ! ! ! ! Q ! ~ ^ ^ ^ ^ ^ ^ ^ ^ ^ J 2 @ p.p.p.p.p.p.p.p.p.p.",
"p.p.p.p.p.p.p.p.p.p.# 9 E Q T L U Y Y Y Y Y Y Y Y Y T R R T T R E E E ! ! ! Q ! ^ ^ ^ ^ ^ ^ ^ ^ K 5 X p.p.p.p.p.p.p.p.p.",
"p.p.p.p.p.p.p.p.p.& 2 d J J H G L Y P P U U Y Y Y Y Y T E E R T T R E Q W R Q ! ~ ^ ^ ^ ^ ^ ^ ^ ~ L 6 X p.p.p.p.p.p.p.p.",
"p.p.p.p.p.p.p.p.@ 1 t j G H F D H L U J L U U Y Y Y Y Y Y T R E E T T T R T T T Q ~ ~ ~ ^ ^ ~ ~ ^ / P 4 @ p.p.p.p.p.p.p.",
"p.p.p.p.p.p.p.+ ; r u S F J J J J H L P J K P Y Y Y Y Y Y Y Y T R E W R Y T R T T T R E ! ~ ! ^ ^ ^ ^ J < X p.p.p.p.p.p.",
"p.p.p.p.p.p.$ & e t p D G G G H K K H J L L L P Y Y Y Y Y Y Y Y Y Y T R E E W W W E T Y T E W ! ~ ^ ^ ^ S = + p.p.p.p.p.",
"p.p.p.p.p.p.& 5 u u s S G D F G G J K K H J L P U Y Y Y Y Y Y Y Y Y Y Y Y T T R W Q ! Q R T T T T ! ^ ~ ~ s # p.p.p.p.p.",
"p.p.p.p.p.+ = t y i d C F F Z D G G H J L K J J L U Y Y Y U P Y Y Y Y Y Y Y L K P Y T T E W ! ! W W ~ ! ! W 8 o p.p.p.p.",
"p.p.p.p.p.& 4 y t p f d j F C C S F G G H J L P K K L U U Y L K P U Y Y Y Y Y U P Y Y Y Y Y T R R T T ! ! ^ J = o p.p.p.",
"p.p.p.p.+ ; q i y a s f s Z S g A S D G G G H J K K J H H J L L L U Y Y Y Y Y Y U P Y Y Y Y Y Y Y Y U U E ~ ~ u @ p.p.p.",
"p.p.p.p.& 5 t s i a d d f d S S g S S S F G G G G J K K K H G H J K L Y Y Y Y Y Y Y Y Y Y Y Y Y Y Y U J J R ^ L ; o p.p.",
"p.p.p.o = 0 u d d a f h g f j F S g Z S S F G G G G G H J K K J H G K L L L L L L P U U U Y U P P U Y U U Y ! ~ r X p.p.",
"p.p.p.& 4 q p p f a d h h d d j D S j h A C A F G G G G G G H J K K K H G G G G H K K K L U Y Y Y Y K H J K P ! F # p.p.",
"p.p.$ = 9 r a u d s d g h h f f f C S A j h j Z S S F F F G G G G H H G G F D G G G G G D H J H F D A A S D Z J T 1 o p.",
"p.p.X 1 q r a i a g d f h j h f f d g Z D S C C A A Z C h A D F F F G G F F F G G G F S A A A S D F F h s h Z h T 6 O p.",
"p.p.# 4 e t a i i g f d h h j h g f d s g S F F S S S C h g h j j C Z Z A D D F G G G F S A S D F F F Z j g d s C 1 O p.",
"p.o & 5 e y a p u d g d g g h j j h g f s f C S D D A Z Z h f g h j Z A S Z Z S F D D D F F D S C h C S Z h C u 0 = . p.",
"p.o = 7 e y a a u p g d g f h j j j h g g f d g Z S A C C A S C d f h A S A A A j Z S S A C h h f s s d h j j r 5 @ p.p.",
"p.% < 9 e y a a i i s f s f d h h h h h h h g g f g j A D F S S A A S S A Z C C Z Z j h h d d d s s s d d a y 9 = X p.p.",
"p.# 2 9 e t a a p y a d a f d d h h h g g h g d d f d d d j f s d f f C C C C Z C h g g f d s a a a a a a y 9 < X p.p.p.",
"p.@ 2 0 e r i a a i u a f d g s s h j h g g h g d s a a a a a a d g g g g g g f d s s u u s s p a p i u r 7 = X p.p.p.p.",
"o & 4 0 e q t a a a y i s g f f a s g h j h f f g h g f d f f f d s a a a a a a s s s a s s a u r e 9 6 1 & @ p.p.p.p.p.",
"+ * 5 9 e q r i a a p y p d g g s i a d g g j h f f d f g h h g g f f f f g g f d p u u y r q 9 8 6 2 * & . o p.p.p.p.p.",
"O = 8 7 0 e t t p a a i y p f f f a u i s f f g h h f d s s s d d d f g g g f a y t u t e 8 6 4 2 = & : l - O p.p.p.p.p.",
"+ = 9 7 0 e r y y a a a i y p s s s i u y u a s d f g h h f s i u u a a a a i y u p y 9 4 < * @ & . : c c - $ p.p.p.p.p.",
"+ ; 9 6 8 0 e y t i a a a i y i a a y u p p i i a s a s f h h g f a a a a i y u y 0 4 ; @ 1 z ) ( 0 & : : & p.p.p.p.p.p.",
"+ ; 7 4 7 9 e r i t i a a a p y u a i r r i a a a a s d d d d f d a a a u y y r 9 2 * 1 b +.5.7.6.1.b . o o p.p.p.p.p.p.",
"+ ; 7 4 6 7 0 e r i t u a a a a u y p p u r t i p p p p i i p a s s a a i r e 9 < * > m 2.0.q.w.w.8.O..   p.p.p.p.p.p.p.",
"o = 6 4 5 6 9 e e t p y y i a a a p u u p p y r y u i i p p p p u t u p r e 9 < * l ] ] { o.6.0.q.q.1.# p.p.p.p.p.p.p.p.",
"+ * 6 4 5 8 6 e e e t p i y y u p a a p u u i u y t y y y t r t u p u r q 9 1 @ l [ ....[ ] ..8.q.8.1.& p.p.p.p.p.p.p.p.",
"o & 5 5 4 9 8 9 e e e r u p p u y t y i p p i u y y t r r t u p u r r t e 2 @ z ,.6.8.8.7.,.{ o.8.q.<.& p.p.p.p.p.p.p.p.",
"p.@ 2 5 4 6 0 6 8 0 e e e r y i p i u y t t y y i p p p i y t r e q t r 6 & q 1.O.b z z I +.2.o.o.0.<.& p.p.p.p.p.p.p.p.",
"p.& < 4 4 4 9 9 7 8 9 e e e e q q r r r r r r t u p u t r r r q e r q e 2 & O.+.2 P ' ' R 9 w O.,.,.X.X p.p.p.p.p.p.p.p.",
"p.X = 4 4 4 7 0 9 9 8 8 0 e e e e e e q r q q q q q q r r r q e e e 0 9 * z 8.) ~ r.t.i.y.` 4 < _ 2.m % p.p.p.p.p.p.p.p.",
"p.$ & 4 4 4 4 9 e 9 9 9 8 9 9 e e e e q q q e e e e e e e e e e e 0 8 5 @ O.q.b ' r.y.i.4.V M < * X.) X p.p.p.p.p.p.p.p.",
"p.p.& 2 6 4 4 4 8 e 9 9 0 9 8 8 9 0 e e e e e e e e e e e e e e e 7 7 2 1 5.q.b ' r.y.i.3.N < @ s 0 8 o p.p.p.p.p.p.p.p.",
"p.p.o = 8 5 4 4 4 7 0 e 0 e e 0 9 8 8 9 9 0 e e e e e e e e e 0 8 6 6 * w 8.w.) ~ r.y.i.3.B 6 2 3.H . . p.p.p.p.p.p.p.p.",
"p.p.p.& 4 8 4 4 4 4 6 9 e e e e e e 0 9 8 8 8 8 9 9 9 9 9 9 8 8 8 5 4 & z 0.w.<.i 4.y.i.t.` V W 3.9 . & p.p.p.p.p.p.p.p.",
"p.p.p.+ * 7 5 4 4 4 4 5 7 9 0 e e e e e e e 0 9 7 6 8 7 8 9 9 0 7 4 4 * 1 +.q.7.w ' t.y.i.t.4.4.! q 1 & p.p.p.p.p.p.p.p.",
"p.p.p.p.o = 2 5 5 4 5 5 7 6 5 7 8 9 9 9 9 9 8 8 8 9 8 8 0 e e 9 5 4 4 * . 1 1.w.<.6 ' 4.t.t.4./ 0 +.q o p.p.p.p.p.p.p.p.",
"p.p.p.p.p.X * 2 7 7 4 4 5 7 6 4 5 4 5 5 5 6 6 7 8 9 9 e e e 9 7 7 4 4 & , v 8 2.q.O.3 i U J q w O.<.3 o p.p.p.p.p.p.p.p.",
"p.p.p.p.p.p.@ * 2 7 6 4 4 4 4 4 5 4 5 6 6 7 8 9 9 0 e e 0 9 7 9 5 4 4 * v =.v 3 O.7.5.X.b b b b w 1 @ p.p.p.p.p.p.p.p.p.",
"p.p.p.p.p.p.p.o @ < 4 5 4 4 4 4 5 5 5 6 8 9 9 8 7 8 9 8 7 8 9 6 4 4 4 = > ;.;.m 1 w _ X.( d 2 > n x & p.p.p.p.p.p.p.p.p.",
"p.p.p.p.p.p.p.p.o # * 1 4 5 4 4 4 5 6 7 7 7 7 7 7 7 7 8 9 9 6 4 4 4 4 ; - %.>.>.#.n , > , x @.;.:.m % p.p.p.p.p.p.p.p.p.",
"p.p.p.p.p.p.p.p.p.  X @ = 1 4 4 4 4 4 4 4 5 6 6 6 6 6 5 5 4 4 5 4 4 4 < - } -.>.;.-.&.&.:.;.%.&.$.l @ p.p.p.p.p.p.p.p.p.",
"p.p.p.p.p.p.p.p.p.p.p.o X # & ; 1 2 4 4 4 5 5 4 4 4 4 4 4 4 4 4 4 4 4 < - } %.&.$.&.:.&.:.>.=. .k & o p.p.p.p.p.p.p.p.p.",
"p.p.p.p.p.p.p.p.p.p.p.p.p.  O % # & * ; < 1 2 2 4 4 4 4 4 4 4 4 4 4 4 ; - { *.;.%.>.:.-.-.>.>.| : % p.p.p.p.p.p.p.p.p.p.",
"p.p.p.p.p.p.p.p.p.p.p.p.p.p.p.p.p.. X . & & @ @ * = ; < 1 2 2 4 4 4 2 & @ l { -.;.%.%.-.&.*.$.] * O p.p.p.p.p.p.p.p.p.p.",
"p.p.p.p.p.p.p.p.p.p.p.p.p.p.p.p.p.p.# = 9 u t 0 1 . . . @ @ @ * = ; * . . @ = v { | | | } } { l . p.p.p.p.p.p.p.p.p.p.p.",
"p.p.p.p.p.p.p.p.p.p.p.p.p.p.p.p.p.O = r f H G q = = 0 8 @ 2 2 1 < = * @ * @ . . c } [ [ { [ [ l % p.p.p.p.p.p.p.p.p.p.p.",
"p.p.p.p.p.p.p.p.p.p.p.p.p.p.p.p.p.& 6 d S G 9 @ 2 S ~ D & f H S Z f y i s 2 @ . k ] ] [ ] [ c - O p.p.p.p.p.p.p.p.p.p.p.",
"p.p.p.p.p.p.p.p.p.p.p.p.p.p.p.p.. * y f a 1 & 6 f U ~ y = P ~ Q Y H Z C C e & . - ] [ [ [ { > . & p.p.p.p.p.p.p.p.p.p.p.",
"p.p.p.p.p.p.p.p.p.p.p.p.p.p.p.p.@ 2 d e = * 9 d F T T 1 9 ! ^ ! Y F A j h y ; & & : c [ ] c ; o p.p.p.p.p.p.p.p.p.p.p.p.",
"p.p.p.p.p.p.p.p.p.p.p.p.p.p.p.p.@ 6 9 & ; e s C K P i & S ! E P S F Z C g i 4 X + & c { [ k . p.p.p.p.p.p.p.p.p.p.p.p.p.",
"p.p.p.p.p.p.p.p.p.p.p.p.p.p.p.O @ @ @ . 4 p h S H s = 5 L Y J S S F j C f a 9 # O & k c c - + p.p.p.p.p.p.p.p.p.p.p.p.p.",
"p.p.p.p.p.p.p.p.p.p.p.p.p.p.p.@ 1 ) +.z @ 5 s Z f 4 * j J H F F H S j C f d r * o + @ : : & p.p.p.p.p.p.p.p.p.p.p.p.p.p.",
"p.p.p.p.p.p.p.p.p.p.p.p.p.p.p.= X.8.q.9.I @ 2 i q & 9 G J H H H D C j C d s i < + p.$ @ @ O p.p.p.p.p.p.p.p.p.p.p.p.p.p.",
"p.p.p.p.p.p.p.p.p.p.p.p.p.p.. z 5.0.e.u.e._ & < = < A J H F S A C j j j s s p 2 @ p.p.o o p.p.p.p.p.p.p.p.p.p.p.p.p.p.p.",
"p.p.p.p.p.p.p.p.p.p.p.p.p.p.o b 6.q.e.e.e.0._ * @ r S A A A Z j j j j h a a i 4 & p.p.p.p.p.p.p.p.p.p.p.p.p.p.p.p.p.p.p.",
"p.p.p.p.p.p.p.p.p.p.p.p.p.p.+ w 5.0.w.e.w.q.5.9 2 Z A A A C h j j C j d s a u 4 & p.p.p.p.p.p.p.p.p.p.p.p.p.p.p.p.p.p.p.",
"p.p.p.p.p.p.p.p.p.p.p.p.p.p.X * X.7.0.q.q.0.1.1 q A A A A Z Z A C C g d d p r 4 @ p.p.p.p.p.p.p.p.p.p.p.p.p.p.p.p.p.p.p.",
"p.p.p.p.p.p.p.p.p.p.p.p.p.p.% @ 3 X.6.7.7.2.z = s j j C C C Z C C j f h s u q 4 @ p.p.p.p.p.p.p.p.p.p.p.p.p.p.p.p.p.p.p.",
"p.p.p.p.p.p.p.p.p.p.p.p.p.p.@ ; = ; z ( b 8 * t j j j j j j j j j h f f p r e 4 @ p.p.p.p.p.p.p.p.p.p.p.p.p.p.p.p.p.p.p.",
"p.p.p.p.p.p.p.p.p.p.p.p.p.p.@ < 6 4 = * = 2 t g g h h h j j j C j f g a t e 0 4 @ p.p.p.p.p.p.p.p.p.p.p.p.p.p.p.p.p.p.p.",
"p.p.p.p.p.p.p.p.p.p.p.p.p.p.@ < 5 0 e r u a a p i a a s s s s s p p i r e e 9 2 @ p.p.p.p.p.p.p.p.p.p.p.p.p.p.p.p.p.p.p.",
"p.p.p.p.p.p.p.p.p.p.p.p.p.p.o ; 2 6 0 e q r r q q r t t t r r r q r r e e 0 7 2 @ p.p.p.p.p.p.p.p.p.p.p.p.p.p.p.p.p.p.p.",
"p.p.p.p.p.p.p.p.p.p.p.p.p.p.+ @ & * = < 2 4 4 5 6 7 8 8 8 8 8 8 8 8 8 8 8 5 4 < # p.p.p.p.p.p.p.p.p.p.p.p.p.p.p.p.p.p.p.",
"p.p.p.p.p.p.p.p.p.p.p.p.p.p.p.p.& . + @ @ @ @ @ @ & & & & * * * * * * * & & & @ X p.p.p.p.p.p.p.p.p.p.p.p.p.p.p.p.p.p.p.",
"p.p.p.p.p.p.p.p.p.p.p.p.p.p.p.p.p.p.p.& @ @ @ @ 2 3 2 1 1 1 * @ ; 1 * @ + & p.p.p.p.p.p.p.p.p.p.p.p.p.p.p.p.p.p.p.p.p.p.",
"p.p.p.p.p.p.p.p.p.p.p.p.p.p.p.p.p.p.p.p.p.o @ @ 2 w w w q q 2 @ 1 1 & % p.p.p.p.p.p.p.p.p.p.p.p.p.p.p.p.p.p.p.p.p.p.p.p.",
"p.p.p.p.p.p.p.p.p.p.p.p.p.p.p.p.p.p.p.p.p.p.& @ @ 8 q q 8 3 ; @ @ % o p.p.p.p.p.p.p.p.p.p.p.p.p.p.p.p.p.p.p.p.p.p.p.p.p.",
"p.p.p.p.p.p.p.p.p.p.p.p.p.p.p.p.p.p.p.p.p.p.p.p.% ; 3 3 ; & # + p.p.p.p.p.p.p.p.p.p.p.p.p.p.p.p.p.p.p.p.p.p.p.p.p.p.p.p.",
"p.p.p.p.p.p.p.p.p.p.p.p.p.p.p.p.p.p.p.p.p.p.p.p.$ & ; & X + p.p.p.p.p.p.p.p.p.p.p.p.p.p.p.p.p.p.p.p.p.p.p.p.p.p.p.p.p.p.",
"p.p.p.p.p.p.p.p.p.p.p.p.p.p.p.p.p.p.p.p.p.p.p.p.p.& o o p.p.p.p.p.p.p.p.p.p.p.p.p.p.p.p.p.p.p.p.p.p.p.p.p.p.p.p.p.p.p.p."
};
