/* XPM */
static xpm_row_t const p2_right_2[] = {
/* columns rows colors chars-per-pixel */
"60 90 122 2 ",
"   c #FFFFFF",
".  c #F0F0F0",
"X  c #E0E0E0",
"o  c #D0D0D0",
"O  c #C0C0C0",
"+  c #B0B0B0",
"@  c #A0A0A0",
"#  c #909090",
"$  c #808080",
"%  c #707070",
"&  c #605050",
"*  c #504040",
"=  c #403030",
"-  c #302020",
";  c #201010",
":  c #101010",
">  c #202020",
",  c #303030",
"<  c #404040",
"1  c #505050",
"2  c #606060",
"3  c #505050",
"4  c #606060",
"5  c #707070",
"6  c #505050",
"7  c #606060",
"8  c #707070",
"9  c #808080",
"0  c #909090",
"q  c #A0A0A0",
"w  c #808080",
"e  c #909090",
"r  c #A0A0A0",
"t  c #B0B0B0",
"y  c #C0C0C0",
"u  c #B0B0B0",
"i  c #C0C0C0",
"p  c #3A3A3A",
"a  c #3B3B3B",
"s  c #3C3C3C",
"d  c #3D3D3D",
"f  c #3E3E3E",
"g  c #4D3219",
"h  c #463E34",
"j  c #704417",
"k  c #744D18",
"l  c #6F5716",
"z  c #74651F",
"x  c #484121",
"c  c #4F4722",
"v  c #4E4338",
"b  c #282A40",
"n  c #2D3252",
"m  c #343A5A",
"M  c #313960",
"N  c #3A4A6D",
"B  c #3B4B6E",
"V  c #434343",
"C  c #454445",
"Z  c #464646",
"A  c #484748",
"S  c #494849",
"D  c #4B4A4B",
"F  c #4C4B4C",
"G  c #4D4C4D",
"H  c #4E4E4E",
"J  c #5E5143",
"K  c #4F4F50",
"L  c #505050",
"P  c #515151",
"I  c #525252",
"U  c #535353",
"Y  c #555555",
"T  c #565656",
"R  c #585858",
"E  c #5A5A5A",
"W  c #5B5B5B",
"Q  c #5C5C5C",
"!  c #635542",
"~  c #67584A",
"^  c #6D5D4D",
"/  c #7C6A58",
"(  c #616472",
")  c #78777B",
"_  c #864B17",
"`  c #8F5218",
"'  c #905B1E",
"]  c #A26319",
"[  c #B9791D",
"{  c #917725",
"}  c #A26B39",
"|  c #AC7A4C",
" . c #8C7862",
".. c #B88E1F",
"X. c #968232",
"o. c #D7A619",
"O. c #E4BA1A",
"+. c #C89821",
"@. c #D9B324",
"#. c #E2BB39",
"$. c #F0CA32",
"%. c #F7D330",
"&. c #B58455",
"*. c #A2876D",
"=. c #AB9076",
"-. c #B6987B",
";. c #C2966B",
":. c #6E7285",
">. c #87878D",
",. c #98989B",
"<. c #A7A6A5",
"1. c #C2A283",
"2. c #CDAC8A",
"3. c #DAB792",
"4. c #E4BF99",
"5. c #E9C5A3",
"6. c #EFCAA5",
"7. c #F3D4BB",
"8. c #C7C6C6",
"9. c #DAD9D9",
"0. c #E5E4E4",
"q. c #00B140",
/* pixels */
"q.q.q.q.q.q.q.q.q.q.q.q.q.q.q.q.q.q.q.q.q.q.q.q.q.q.q.q.q.q.q.q.q.q.q.q.q.q.q.q.q.q.q.q.q.q.q.q.q.q.q.q.q.q.q.q.q.q.q.q.",
"q.q.q.q.q.q.q.q.q.q.q.q.q.q.q.q.q.q.q.q.q.q.q.q.q.q.q.q.q.q.q.q.q.q.q.q.q.q.q.q.q.q.q.q.q.q.q.q.q.q.q.q.q.q.q.q.q.q.q.q.",
"q.q.q.q.q.q.q.q.q.q.q.q.q.q.q.q.q.q.q.q.q.q.q.q.q.q.q.q.q.q.q.q.q.q.q.q.q.q.q.q.q.q.q.q.q.q.q.q.q.q.q.q.q.q.q.q.q.q.q.q.",
"q.q.q.q.q.q.q.q.q.q.q.q.q.q.q.q.q.q.q.q.q.q.q.q.q.q.q.q.q.q.q.q.q.q.q.q.q.q.q.q.q.q.q.q.q.q.q.q.q.q.q.q.q.q.q.q.q.q.q.q.",
"q.q.q.q.q.q.q.q.q.q.q.q.q.q.q.q.q.q.q.q.q.q.q.q.q.q.q.q.q.q.q.q.q.q.q.q.q.q.q.q.q.q.q.q.q.q.q.q.q.q.q.q.q.q.q.q.q.q.q.q.",
"q.q.q.q.q.q.q.q.q.q.q.q.q.q.q.q.q.q.q.q.q.q.q.q.    q.q.q.q.q.q.q.q.q.q.q.q.q.q.q.q.q.q.q.q.q.q.q.q.q.q.q.q.q.q.q.q.q.q.",
"q.q.q.q.q.q.q.q.q.q.q.q.q.q.q.q.q.q.q.q.q.q.q.+ = , & O . q.q.q.q.q.q.q.q.q.q.q.q.q.q.q.q.q.q.q.q.q.q.q.q.q.q.q.q.q.q.q.",
"q.q.q.q.q.q.q.q.q.q.q.q.q.q.q.q.q.q.q.q.q.q.o = V Y C e < * . + O X   $ q.q.q.q.q.q.q.q.q.q.q.q.q.q.q.q.q.q.q.q.q.q.q.q.",
"q.q.q.q.q.q.q.q.q.q.q.q.q.q.q.q.q.q.q.q.q.@ = e K Q Q W Y G V p r q 3 > * @ X + q.q.q.q.q.q.q.q.q.q.q.q.q.q.q.q.q.q.q.q.",
"q.q.q.q.q.q.q.q.q.q.q.q.q.q.q.q.q.q.q.. & 7 D U R E R R W Q Q Q W E T I S a 4 = @ + q.q.q.q.q.q.q.q.q.q.q.q.q.q.q.q.q.q.",
"q.q.q.q.q.q.q.q.q.q.q.q.q.q.q.q.q.q.O * t T Q R Y U L U Y R W W W W E R R R T G i , & O q.q.q.q.q.q.q.q.q.q.q.q.q.q.q.q.",
"q.q.q.q.q.q.q.q.q.q.q.q.q.q.q.q.O & 4 S E W W W E R E E R R W W W W W W E R Y R W U d , . . q.q.q.q.q.q.q.q.q.q.q.q.q.q.",
"q.q.q.q.q.q.q.q.q.q.q.q.q.q.q.+ = a Y W R R R T Y Y R W W W W W W W W W W W E E W Q W I y * O q.q.q.q.q.q.q.q.q.q.q.q.q.",
"q.q.q.q.q.q.q.q.q.q.q.q.q.q.+ < S T Y Y Y T T T T T R W W W W W W W W W W W W W W W W Q E S < @ q.q.q.q.q.q.q.q.q.q.q.q.",
"q.q.q.q.q.q.q.q.q.q.q.q.q.@ 2 K E R R E R T T Y Y Y Y R R R R R R R E W W W W W W W W W W Q P 7 + . q.q.q.q.q.q.q.q.q.q.",
"q.q.q.q.q.q.q.q.q.q.q.q.. 4 G W R T Y Y Y Y R T T T Y T T T R R R R R T R E W W W W W W W W W U r & O q.q.q.q.q.q.q.q.q.",
"q.q.q.q.q.q.q.q.q.q.q.@ 6 P E Y I P P P P P I P P P P P I I U Y Y Y Y R R T T R W W W W W W W W Y s = X q.q.q.q.q.q.q.q.",
"q.q.q.q.q.q.q.q.q.q.+ 3 U R U K P P P P P P P P P P I Y Y Y U U U Y Y T Y Y T R E W W W W W E W W E N = + q.q.q.q.q.q.q.",
"q.q.q.q.q.q.q.q.q.O = a L G F S H P K K L L P P P P L P U U Y Y U I I U U U I U Y R R R W W E E W W E N * X q.q.q.q.q.q.",
"q.q.q.q.q.q.q.q.+ * q f S S Z Z S H K F G L L P P P P P P P I U Y Y Y U P U U U I I I U Y R R E W W W E f *   q.q.q.q.q.",
"q.q.q.q.q.q.q.+ & 5 t B S F F S S S H K F G K P P P P P P P P P P P U U Y Y Y Y T T Y I P P U U Y E W W R u + q.q.q.q.q.",
"q.q.q.q.q.q.q.@ < e t C A S S D G F D D G H H H L P P P P P P P P P P P P I I U Y Y T T Y Y Y Y U Y E R R Y 8 @ q.q.q.q.",
"q.q.q.q.q.q.+ = e r i C S Z A S S D G F D D G H K P P P P L L P P P P P P P K G H L P P I U Y T Y Y Y R R W L , O q.q.q.",
"q.q.q.q.q.q.& 4 y r a N A Z B Z S S S D G G F F G H L P P P H G K P P P P P P L L L P P P P P P I P P I Y E W B + q.q.q.",
"q.q.q.q.q.O = w r t s s N A N N V A S S S D G K H G F G G H K H H K P P P P P P L K L P P P P P P P L G D I E T 4 + q.q.",
"q.q.q.q.q.& < r r u p s p B Z d N V C S S S S S F G G F D S S D F G H L P P P P P P P P P P P L L L P L L L Y Q C * q.q.",
"q.q.q.q.  * 7 u t u i a s a B C d B C V Z S S S S S S F G G F S S S F K K H H G G H K K K P P L L P P G F G H U Y 2 O q.",
"q.q.q.q.@ , w p p i a d s d d Z Z f N C V C Z S S S S S S S F G G G G D S S A S S D F F F G K K H F A V C Z B C Y p @ q.",
"q.q.q.q.& 4 e i s p i f f s a f V Z N d N B N V Z A S S S S S S S S D S S S Z A S S S A C V A Z C V Z B s d N f S Z % q.",
"q.q.q.X = 8 r u i a i d d f s s s f B C N f f f B B V C B C A S S S S S S A A A S S S Z C B f B Z S A V f f s p d r & q.",
"q.q.q.@ 2 w t i t s a s d f f d s a s f V Z C N N B B N f f f N N N B B B C Z Z A S S A Z Z A Z Z V B C C N f d w 3 % q.",
"q.q.q.# 5 w y i t a d a d f f f d s s p p f V Z Z C V V N f d d f f N B V V N B Z C C C Z C V B N a p p f N N s w , + q.",
"q.q.  * 6 w y i t u d a s f f f f f f d a p s N V C C N N B B f s a s f B V V B N f B B B N s a s a a a a a i e 3 & . q.",
"q.q.+ = 5 w y i y t a d a d s f f f f f d d s a d N B B B C C Z C N B C C B N N N B N f f d a a p i i i i i r 5 * O q.q.",
"q.q.@ > 6 w y i i r u s a s a s f f f f f f f d d d s d f B V d s d s d N N N N N f d s p i p i i i i u y e 4 * + q.q.q.",
"q.q.% , 7 q t i i y t p s i d p s f f f d d f d a p p p p i p i i a d f f d d s a p i i t u a p y t e q 5 , & + q.q.q.q.",
"q.q.# < 8 q r i i i r u a a a s i a f f f d d d d s a p i i p a s s a p i i i i p a p i i u y r w 7 4 2 = #   O q.q.q.q.",
"q.$ & 2 8 q w t i i u r i a s d s i p d f f f d s s f d d f f f d s a s s s d d s p t r r e q 6 4 2 > & ; g - O q.q.q.q.",
"q.. & 2 8 q w e u i i y t i s s d p y i a d d f f d s p p a s s d d s s d d d s i e r y w 6 3 < = #   - j _ -   q.q.q.q.",
"q.  * 3 6 q w e r i i i t t i s s s i t y i a s s d f f d a p i y t t u i i i y e y y w 3 > & * 9 h = # g : & q.q.q.q.q.",
"q.+ * 4 4 8 q e e y i i i t r i a p a y t t t y u p a p s f f d a p i i i i y r r e 6 < * = h / =.-. .h # .   q.q.q.q.q.",
"q.+ * 5 4 7 q w r e u i i i y r y i i t r u u u y u p p p a s s d s i i i y e r w 6 , & 7 / 1.3.5.6.3.*.=   q.q.q.q.q.q.",
"q.+ * 5 4 3 7 q e t e u i i i u r t i u e e r u i i i i i p i i p p p p i u e w 7 > = g ' | 2.4.5.6.6.2.1 . q.q.q.q.q.q.",
"q.O * 4 2 3 5 8 q r t e y i i i i y r y i y e w e t y y y t y u i u r r u e q 8 , # g _ _ _ ` } 3.6.4.2.9 . q.q.q.q.q.q.",
"q.. & 3 2 3 4 6 q q r y r t u i i i u t r y u y e e r y y u y t e e y u e w q < # : ' &.;.&.} ` &.4.6.2.0 O q.q.q.q.q.q.",
"q.q.# 2 3 2 3 3 8 q q r u y r r y u i i i y t t t t e e e w w e t u r w e w 4 & 7 *.1.1.1.1.2.;.} } 3.3.0 O q.q.q.q.q.q.",
"q.q.+ < 3 2 4 4 6 q q q e t u y t r e r t y u u y t t r r t y y r w q w e 8 > *  .*.h 1 1 1 9 J *.&.| 1.0 O q.q.q.q.q.q.",
"q.q.@ , 3 2 3 7 4 6 q q q q w t u u u y r e e e e r u i u t e w w q w w q 6 & h 1.0 L >.<.<.>.6 , ^ ;.| g . q.q.q.q.q.q.",
"q.q.+ = 3 2 2 6 7 3 5 8 q q q q w w w w w w w e e e r e w w e e w q q q 8 2 #  .2.9 ,.8.9.0.,.m b & J -.9 $ q.q.q.q.q.q.",
"q.q.. & < 2 2 3 8 6 5 5 6 8 q q q q q q q w w w q q q q w w w q q q q 7 6 , 1 2.2.r <.8.9.9.( n > > < v 1 + q.q.q.q.q.q.",
"q.q.q.% , 2 2 2 4 q 6 6 6 5 5 7 q q q q q w w q q q q q q q q q q q 8 4 5 * v 5.2.9 ,.8.9.9.( n & b ) < # q.q.q.q.q.q.q.",
"q.q.q.+ = 3 2 2 2 5 8 7 6 7 7 6 5 6 7 8 q q q q q q q q q q q q q q 5 3 3 # ! 6.4.h ) 8.9.0.>.M b K ,., + q.q.q.q.q.q.q.",
"q.q.q.q.# 2 3 2 2 2 4 8 q 7 8 q 8 7 6 5 5 6 7 8 8 q q q q q 8 8 6 5 5 3 2   ^ 6.6./ N 8.9.0.9.>.:.,.Q , % q.q.q.q.q.q.q.",
"q.q.q.q.O > 6 3 2 2 2 3 6 q q q q q q q 8 7 6 5 5 5 4 4 4 4 4 4 6 7 4 2 2 & 7 *.6.2.9 ( 8.9.9.9.9.>.5 / < q.q.q.q.q.q.q.",
"q.q.q.q.q.+ < 5 2 2 2 2 2 4 6 8 q q q q q q q q 8 6 4 5 6 4 7 q q 7 3 2 2 * # < =.6.=.5 I ,.<.,.Q 1 / =.< + q.q.q.q.q.q.",
"q.q.q.q.q.  & 2 3 2 2 3 3 3 3 3 3 5 6 7 7 7 6 5 4 4 5 5 5 7 q q 8 4 3 2 2 & x c 1 *.4.-.v 1 1 1 0 ~ ~ 0 & q.q.q.q.q.q.q.",
"q.q.q.q.q.q.+ & , 2 4 3 2 2 3 4 3 2 3 2 3 2 3 3 4 5 6 8 q q q 8 4 5 3 2 2 & x @.! , ! -.2.-. .^ h < 9 0 & q.q.q.q.q.q.q.",
"q.q.q.q.q.q.q.O # > 3 5 3 2 2 2 3 2 3 2 3 3 4 4 5 6 6 7 q 8 6 4 6 4 2 2 2 = : @.$.X.9 , 0 h 5 - x X.@.{ . q.q.q.q.q.q.q.",
"q.q.q.q.q.q.q.q.X # = < 3 3 2 2 2 2 3 3 3 3 4 6 6 5 4 4 5 4 5 7 5 2 2 2 2 > ; ..$.%.#.X.z z X...@.%.@.k & q.q.q.q.q.q.q.",
"q.q.q.q.q.q.q.q.q.. @ & > < 3 3 2 2 2 3 3 4 4 4 4 4 4 4 5 5 4 3 2 2 2 2 2 , * ' o.$.O.@.O.O.$.%.+.{ l - @ q.q.q.q.q.q.q.",
"q.q.q.q.q.q.q.q.q.q.q.X . & = < 2 2 2 2 2 2 2 3 3 3 3 2 2 2 2 2 2 3 2 2 2 , & ' +.@...@.$.#.@.%.$.+.g   $ q.q.q.q.q.q.q.",
"q.q.q.q.q.q.q.q.q.q.q.q.q.O @ # * > , < 2 2 2 2 3 2 2 2 2 2 2 2 2 2 2 2 2 , # k [ $.@.$.O.O.O.O.#.[ : @ q.q.q.q.q.q.q.q.",
"q.q.q.q.q.q.q.q.q.q.q.q.q.q.q.. + @ + & * = = > > , , < < < 2 2 2 2 2 2 2 =   - k ..#.+...o.+.[ [ ' ; O q.q.q.q.q.q.q.q.",
"q.q.q.q.q.q.q.q.q.q.q.q.q.q.q.q.q.q.+ O +   & * * & # # # & & * = = > > = #     # - k [ [ ] ] ] ] j * $ q.q.q.q.q.q.q.q.",
"q.q.q.q.q.q.q.q.q.q.q.q.q.q.q.q.q.q.q.q.+ & 4 y s i y e 2 # * #   & * * & # & * #   - ] ' ` ' ` ` j % q.q.q.q.q.q.q.q.q.",
"q.q.q.q.q.q.q.q.q.q.q.q.q.q.q.q.q.q.q.+ # 8 p Z H L G G e * B p # < s p t e p q & # & j ` ` ` ` ' ; @ q.q.q.q.q.q.q.q.q.",
"q.q.q.q.q.q.q.q.q.q.q.q.q.q.q.q.q.q.q.O > u f F U R E R e > U R e & f F C f N p > # + : ` ` ` ` j # + q.q.q.q.q.q.q.q.q.",
"q.q.q.q.q.q.q.q.q.q.q.q.q.q.q.q.q.q.q.+ 5 s N F K I Y R w > D T P , < S C N N a 3 % + & g ` ] _ : @ q.q.q.q.q.q.q.q.q.q.",
"q.q.q.q.q.q.q.q.q.q.q.q.q.q.q.q.q.q.  * e d N F G P Y Y w = a H U t # w Z f N p w * + X - _ ' j ; O q.q.q.q.q.q.q.q.q.q.",
"q.q.q.q.q.q.q.q.q.q.q.q.q.q.q.q.q.q.o > i s f S G K P U e * t C K N > > f f f p y , O . # : j g & q.q.q.q.q.q.q.q.q.q.q.",
"q.q.q.q.q.q.q.q.q.q.q.q.q.q.q.q.q.q.% 2 s s f C G K L I u & w f A C q # 6 N f a i 3 & q.O & ; & X q.q.q.q.q.q.q.q.q.q.q.",
"q.q.q.q.q.q.q.q.q.q.q.q.q.q.q.q.q.$ # 6 f a f N Z F S D p # 7 a N N i > = a f a p q # + q.+ # + q.q.q.q.q.q.q.q.q.q.q.q.",
"q.q.q.q.q.q.q.q.q.q.q.q.q.q.q.q.q.+ * q d a f N B C S S f & 3 i i r 4 =   7 f p p e * + q.q.q.q.q.q.q.q.q.q.q.q.q.q.q.q.",
"q.q.q.q.q.q.q.q.q.q.q.q.q.q.q.q.q.O = q i s N f N B B C f = > 4 > # * 9 9 * 8 i i e = + q.q.q.q.q.q.q.q.q.q.q.q.q.q.q.q.",
"q.q.q.q.q.q.q.q.q.q.q.q.q.q.q.q.q.+ > w i s N N N N B B N ,   * 0 / =.2.1.v * r i e > + q.q.q.q.q.q.q.q.q.q.q.q.q.q.q.q.",
"q.q.q.q.q.q.q.q.q.q.q.q.q.q.q.q.q.. , w u p f N N f N B N , 0 *.5.7.7.6.4.*.; 6 u w , @ q.q.q.q.q.q.q.q.q.q.q.q.q.q.q.q.",
"q.q.q.q.q.q.q.q.q.q.q.q.q.q.q.q.q.& , w u i d N N N f N s * / 4.7.7.7.6.5.-.1 3 r q , . q.q.q.q.q.q.q.q.q.q.q.q.q.q.q.q.",
"q.q.q.q.q.q.q.q.q.q.q.q.q.q.q.q.q.+ < q t i p f N N N N a * / 4.6.6.6.6.4.*.; 4 w q < & q.q.q.q.q.q.q.q.q.q.q.q.q.q.q.q.",
"q.q.q.q.q.q.q.q.q.q.q.q.q.q.q.q.q.+ , 8 e u i p s f f f f , v 1.4.5.5.4.2.J * 8 q 8 , & q.q.q.q.q.q.q.q.q.q.q.q.q.q.q.q.",
"q.q.q.q.q.q.q.q.q.q.q.q.q.q.q.q.q.% , 5 w e u i p a a a s 8 = ^ -.2.2.=.! = < q q 6 , & q.q.q.q.q.q.q.q.q.q.q.q.q.q.q.q.",
"q.q.q.q.q.q.q.q.q.q.q.q.q.q.q.q.q.& , 3 8 w e r t r e e t t < & 7 v h 1 & < q q 8 4 , & q.q.q.q.q.q.q.q.q.q.q.q.q.q.q.q.",
"q.q.q.q.q.q.q.q.q.q.q.q.q.q.q.q.q.@ = , < 4 6 7 8 8 8 8 q q q 3 > * * > 3 7 7 6 3 2 > . q.q.q.q.q.q.q.q.q.q.q.q.q.q.q.q.",
"q.q.q.q.q.q.q.q.q.q.q.q.q.q.q.q.q.O & # # # & * = = > > > > > > > > > > = = = * * & # o q.q.q.q.q.q.q.q.q.q.q.q.q.q.q.q.",
"q.q.q.q.q.q.q.q.q.q.q.q.q.q.q.q.q.q.+ & 1 1 < , ; = * # & + + & # # & & & & & # * 1 ; + q.q.q.q.q.q.q.q.q.q.q.q.q.q.q.q.",
"q.q.q.q.q.q.q.q.q.q.q.q.q.q.q.q.q.q.O = 7 9 9 9 9 9 < # o q.q.$ # ; < < , , ; # ; 1 , # q.q.q.q.q.q.q.q.q.q.q.q.q.q.q.q.",
"q.q.q.q.q.q.q.q.q.q.q.q.q.q.q.q.q.q.+ = 1 7 7 7 7 ; # , *   q.q.@ = , , ; = & # # # & O q.q.q.q.q.q.q.q.q.q.q.q.q.q.q.q.",
"q.q.q.q.q.q.q.q.q.q.q.q.q.q.q.q.q.q.& & = = ; , , # ; h 9 & q.q.o & * & # # . O   q.q.q.q.q.q.q.q.q.q.q.q.q.q.q.q.q.q.q.",
"q.q.q.q.q.q.q.q.q.q.q.q.q.q.q.q.q.q.q.. O o @ + # # * , , + q.q.X + + X . q.q.q.q.q.q.q.q.q.q.q.q.q.q.q.q.q.q.q.q.q.q.q.",
"q.q.q.q.q.q.q.q.q.q.q.q.q.q.q.q.q.q.q.q.q.q.q.q.q.O X o @ O q.q.q.q.q.q.q.q.q.q.q.q.q.q.q.q.q.q.q.q.q.q.q.q.q.q.q.q.q.q.",
"q.q.q.q.q.q.q.q.q.q.q.q.q.q.q.q.q.q.q.q.q.q.q.q.q.q.q.q.q.q.q.q.q.q.q.q.q.q.q.q.q.q.q.q.q.q.q.q.q.q.q.q.q.q.q.q.q.q.q.q."
};
