/* XPM */
static xpm_row_t const explosion_xpm_5[] = {
/* columns rows colors chars-per-pixel */
"80 80 193 2 ",
"   c #DE363D",
".  c #DD383F",
"X  c #EE2A2D",
"o  c #EF332E",
"O  c #ED392E",
"+  c #E62E34",
"@  c #EB2D31",
"#  c #E43137",
"$  c #ED3333",
"%  c #EF3937",
"&  c #E23339",
"*  c #E53A3D",
"=  c #EB3A3A",
"-  c #F03636",
";  c #F13B36",
":  c #F23638",
">  c #F23D3B",
",  c #F04432",
"<  c #F14D34",
"1  c #F4423E",
"2  c #F25535",
"3  c #F45C39",
"4  c #F8693E",
"5  c #F77A3A",
"6  c #D63D46",
"7  c #DB3B42",
"8  c #D53F49",
"9  c #E93E41",
"0  c #BD5563",
"q  c #BB5867",
"w  c #B65D6C",
"e  c #BA5C69",
"r  c #B35F70",
"t  c #BF666C",
"y  c #AD6576",
"u  c #A56C7F",
"i  c #AB6B7D",
"p  c #B26273",
"a  c #BB6573",
"s  c #B76877",
"d  c #B76C7B",
"f  c #BE7674",
"g  c #BC7A74",
"h  c #CF444F",
"j  c #DE4245",
"k  c #D3424B",
"l  c #DC464B",
"z  c #CA4955",
"x  c #C54E5A",
"c  c #D64A50",
"v  c #DB4B51",
"b  c #C3515E",
"n  c #CC525C",
"m  c #D3545C",
"M  c #EC4243",
"N  c #EB4649",
"B  c #F54442",
"V  c #F84645",
"C  c #F64943",
"Z  c #F94947",
"A  c #F34A4A",
"S  c #FA4C4A",
"D  c #FA5446",
"F  c #FA5E46",
"G  c #FC534D",
"H  c #FE5C4E",
"J  c #E44D52",
"K  c #E6575B",
"L  c #F55253",
"P  c #FE5351",
"I  c #F15B5E",
"U  c #FB5A5B",
"Y  c #DF765F",
"T  c #FB6145",
"R  c #FD6B47",
"E  c #FF654D",
"W  c #FF6C4B",
"Q  c #FC7645",
"!  c #FF7E47",
"~  c #FF7249",
"^  c #FF7948",
"/  c #E96F5D",
"(  c #C35460",
")  c #CC5B64",
"_  c #C95C66",
"`  c #D55B63",
"'  c #DB5D65",
"]  c #E35D64",
"[  c #EA5E61",
"{  c #F95E60",
"}  c #CD6965",
"|  c #C1606C",
" . c #CB636D",
".. c #D36269",
"X. c #C1776D",
"o. c #C46976",
"O. c #D86970",
"+. c #E96567",
"@. c #E26169",
"#. c #F86567",
"$. c #FB696D",
"%. c #F8853A",
"&. c #FA9739",
"*. c #FCA43B",
"=. c #FEAC3E",
"-. c #FEB43D",
";. c #FEBC3B",
":. c #FEC53B",
">. c #FEC83F",
",. c #BF8373",
"<. c #B1947D",
"1. c #FF8446",
"2. c #FF8B45",
"3. c #FE9343",
"4. c #FF9B41",
"5. c #FE9A49",
"6. c #FFA340",
"7. c #FDA942",
"8. c #FFBC44",
"9. c #C8836A",
"0. c #FEC443",
"q. c #FECA43",
"w. c #FECD4B",
"e. c #FED04F",
"r. c #FED254",
"t. c #FED45A",
"y. c #FDD963",
"u. c #FDDC6C",
"i. c #FEDF71",
"p. c #FDE074",
"a. c #FEE37B",
"s. c #9E7286",
"d. c #9C768B",
"f. c #97798F",
"g. c #9B798E",
"h. c #957C93",
"j. c #9A7C91",
"k. c #917F98",
"l. c #A36E82",
"z. c #AC6F80",
"x. c #A37185",
"c. c #AC7182",
"v. c #A6798B",
"b. c #A47B8C",
"n. c #B97581",
"m. c #A67E92",
"M. c #8D849C",
"N. c #948296",
"B. c #9A8897",
"V. c #928299",
"C. c #92889D",
"Z. c #8E919E",
"A. c #999294",
"S. c #A98483",
"D. c #A1998C",
"F. c #A58496",
"G. c #8A87A1",
"H. c #858CA6",
"J. c #898AA2",
"K. c #00b140",
"L. c #888EA8",
"P. c #938DA4",
"I. c #998DA2",
"U. c #8790AA",
"Y. c #8C93AC",
"T. c #9294AB",
"R. c #9399AF",
"E. c #9D98AC",
"W. c #8F98B0",
"Q. c #959CB3",
"!. c #9B9FB5",
"~. c #A48DA0",
"^. c #9AA1B6",
"/. c #9DA4B9",
"(. c #A1A6BA",
"). c #A3AABD",
"_. c #AAA8BA",
"`. c #FDE682",
"'. c #FDE886",
"]. c #FEEB8D",
"[. c #FEED92",
"{. c #A9AFC1",
"}. c #ACB2C3",
"|. c #B1B7C7",
" X c #B5BACA",
".X c #BBBECD",
"XX c #BCC1CF",
"oX c #BEC2D1",
"OX c #C2C6D3",
"+X c #C6CAD6",
"@X c #C8CBD7",
"#X c #CACED9",
"$X c #CDD0DB",
/* pixels */
"K.K.K.K.K.K.K.K.K.K.K.K.K.K.K.K.K.K.K.K.K.K.K.K.U.K.K.K.K.K.K.K.K.K.K.K.K.K.K.K.K.K.K.K.K.K.K.K.K.K.K.K.K.K.K.K.K.K.K.K.K.K.K.K.K.K.K.K.K.K.K.K.K.K.K.K.K.K.K.U.",
"K.K.K.K.K.K.K.K.K.K.K.K.K.K.K.K.K.K.K.K.K.K.K.K.K.K.K.K.K.K.K.K.K.K.K.K.K.K.K.K.K.K.K.K.K.K.K.K.K.K.K.K.K.K.K.K.K.K.K.K.K.K.K.K.K.K.K.K.K.K.K.K.K.K.K.K.K.K.K.K.",
"K.K.K.K.K.K.K.K.K.K.K.K.K.K.K.K.K.K.K.K.K.K.K.K.K.K.K.K.K.K.K.K.U.K.K.K.K.K.K.K.K.K.K.K.K.K.K.K.K.K.K.K.K.K.K.K.K.U.K.K.K.K.K.K.K.K.K.K.K.K.K.K.K.K.K.K.K.K.K.K.",
"K.K.K.K.K.K.K.K.K.K.K.K.K.K.K.K.K.K.K.K.K.K.K.K.K.K.K.K.K.K.K.K.K.K.K.K.K.K.K.K.K.K.K.K.K.K.K.K.K.K.K.K.K.K.K.K.K.K.K.K.K.K.K.K.K.K.K.K.K.K.K.K.K.K.K.K.K.K.K.K.",
"K.K.K.K.K.K.K.K.K.K.K.K.K.K.K.K.K.K.K.K.K.K.K.K.K.K.K.K.K.K.K.K.K.K.K.K.K.K.K.K.K.K.K.K.K.K.K.K.K.K.K.K.K.K.K.K.K.K.K.K.K.K.K.K.K.K.K.K.K.U.K.K.K.K.K.K.K.K.K.K.",
"K.K.K.K.K.K.K.K.K.K.K.K.U.K.K.K.K.K.K.K.K.K.K.K.K.K.K.K.K.K.K.K.K.K.K.K.K.K.K.K.K.K.K.K.K.K.K.K.K.K.K.K.K.K.K.K.K.K.K.K.K.K.K.K.K.K.K.K.K.K.K.K.K.K.K.K.K.K.K.K.",
"K.K.K.K.K.K.K.K.K.K.K.K.K.K.K.K.K.K.K.K.K.K.K.K.K.K.K.K.K.K.K.K.K.K.K.K.K.K.K.K.K.K.K.K.K.K.K.K.K.K.K.K.K.K.K.K.K.K.K.K.K.K.K.K.K.K.K.K.K.K.K.K.K.K.K.K.K.K.K.K.",
"K.K.K.K.K.K.K.K.K.K.K.K.K.K.K.K.K.K.K.K.K.K.K.K.K.K.K.K.K.K.K.K.K.K.K.K.K.K.K.K.K.K.K.K.K.K.K.K.K.K.K.K.K.K.K.K.K.K.K.K.K.K.K.K.K.K.K.K.K.K.K.K.K.K.K.K.K.K.K.K.",
"K.U.K.K.K.K.K.K.K.K.K.K.K.K.K.K.K.K.K.K.K.K.K.K.K.K.K.K.K.K.K.K.K.K.K.K.K.K.K.K.K.K.K.K.K.K.K.K.K.K.K.K.K.K.K.K.K.K.K.K.K.K.K.K.K.K.K.K.K.K.K.K.K.K.K.K.K.K.K.K.",
"K.K.K.K.K.K.K.K.K.K.K.K.K.K.K.K.K.K.K.K.K.K.K.U.K.K.K.K.K.K.K.K.K.K.K.K.K.K.K.K.K.K.K.K.K.K.K.K.K.K.U.K.K.K.K.K.K.K.K.K.K.K.K.K.K.K.K.K.K.K.K.K.K.K.K.K.K.K.K.K.",
"K.K.K.K.K.K.K.K.K.K.K.K.K.K.K.K.K.K.K.K.K.K.K.K.K.K.K.K.K.K.K.K.K.K.K.K.K.K.K.K.K.K.K.K.K.K.K.K.K.K.K.K.K.K.K.K.K.K.K.K.K.K.K.K.K.K.K.K.K.K.K.K.K.K.K.K.K.K.K.K.",
"K.K.K.K.K.K.K.K.K.K.K.K.K.K.K.K.K.K.K.K.K.K.K.K.K.K.K.K.K.K.K.K.K.K.K.K.K.K.K.K.K.K.K.K.K.K.K.K.K.K.K.K.K.K.K.K.K.K.K.K.K.K.K.K.K.K.K.K.K.K.K.K.K.K.K.K.K.K.K.K.",
"K.K.K.K.K.K.K.K.K.K.K.K.K.K.K.U.K.K.K.K.K.K.K.K.K.K.K.K.K.K.K.K.K.K.K.K.K.K.K.K.K.K.K.K.K.K.K.K.K.K.K.K.K.K.K.K.K.K.K.K.K.K.K.K.K.K.K.K.K.K.K.K.K.K.K.K.K.K.K.K.",
"K.K.K.K.K.K.K.K.K.K.K.K.K.K.K.K.K.K.K.K.K.K.K.K.K.K.K.K.K.K.K.K.K.K.K.K.K.K.K.K.U.K.K.K.K.K.K.K.K.K.K.K.K.K.K.K.K.K.K.K.K.U.K.K.K.K.K.K.K.K.K.K.K.K.K.K.K.K.K.K.",
"K.K.K.K.K.K.K.K.K.K.K.K.K.K.K.K.K.K.K.K.K.K.K.K.K.K.U.K.K.K.K.K.K.K.K.K.K.K.K.K.K.K.K.K.K.K.K.K.K.K.K.K.K.K.K.K.K.K.K.K.K.K.K.K.K.K.K.K.K.K.K.K.K.K.K.K.K.K.K.K.",
"K.K.K.K.K.K.K.K.K.K.K.K.K.K.K.K.K.K.K.K.K.K.K.K.K.K.K.K.K.K.K.K.K.K.K.K.K.K.K.K.K.K.K.K.K.K.K.K.K.K.K.K.U.K.K.K.K.K.K.K.K.K.K.K.K.K.K.K.K.K.K.K.K.K.K.K.K.K.K.K.",
"K.K.K.K.K.K.K.K.K.K.K.K.K.K.K.K.K.K.K.K.K.K.K.K.K.H.K.K.K.K.K.K.K.K.K.K.K.K.K.K.K.K.K.K.K.K.K.K.K.K.K.K.K.K.K.K.K.K.K.K.K.K.K.K.K.K.K.K.K.K.K.K.K.K.K.K.K.K.K.K.",
"K.K.K.K.K.K.K.K.K.K.K.K.K.K.K.K.K.K.K.K.K.K.K.K.K.K.H.H.K.K.K.K.K.K.K.K.K.K.K.K.K.K.K.K.K.K.K.K.K.K.K.K.K.K.K.K.K.K.K.K.K.K.K.K.K.K.K.K.K.K.K.K.K.K.K.K.K.K.K.K.",
"K.K.K.K.K.K.K.K.K.K.K.K.K.K.K.K.K.K.K.K.K.K.K.K.K.K.H.H.H.K.K.Y.U.K.K.K.K.K.K.K.K.K.K.K.K.K.K.H.K.K.K.K.K.K.K.K.K.K.K.K.K.K.K.K.K.K.K.K.K.K.K.K.K.K.K.K.K.K.K.K.",
"K.K.K.K.K.K.K.K.K.K.K.K.K.K.U.K.K.K.K.K.K.K.K.K.K.K.H.G.k.K.Y.{.).L.h.H.K.K.K.K.K.K.K.K.K.H.G.K.K.K.K.U.Y./.W.Y.Y.K.K.K.K.K.K.K.K.K.K.K.K.K.K.K.K.K.K.K.K.K.K.K.",
"K.K.K.K.K.K.K.K.K.K.K.K.K.K.K.K.K.K.K.K.K.K.K.K.K.K.H.G.g.P.!..XoX/.j.M.K.K.K.K.H.H.H.K.H.k.s.H.K.K.K.K.Q. X}.}.|.Q.U.K.K.K.K.K.K.K.K.K.K.K.K.K.K.K.K.K.K.K.K.K.",
"K.K.K.K.K.K.K.K.K.K.K.K.K.K.K.K.K.K.K.K.K.K.K.K.K.K.K.G.x.v._..X+X).N.i H.K.K.M.K.H.Z.H.H.i l.H.K.K.K.K.{.+X@X@X@X{.Y.K.K.K.K.K.K.K.K.K.K.K.K.K.K.K.K.K.K.K.K.K.",
"K.K.K.K.K.U.K.K.K.K.K.K.K.K.K.K.K.K.K.K.K.K.K.K.K.K.K.H.h.n.m.!.}.Q.g.b N.H.H.g.Z.H.Z.H.g.x g.H.K.H.H.U.{.+X$X$XoX{.U.K.K.K.K.K.K.U.K.K.K.K.K.K.K.K.K.K.K.K.K.K.",
"K.K.K.K.K.K.K.K.K.K.K.K.K.K.K.K.K.K.K.K.K.K.K.K.K.K.K.H.k.o.n.B.Q.R.d.6 i M.H.g f.H.H.M.e 8 k.K.K.k.k.Y.|.@X$X+X{.W.K.K.K.K.K.K.K.K.K.K.K.K.K.K.K.K.K.K.K.K.K.K.",
"K.K.K.K.K.K.K.K.K.K.K.K.K.K.K.K.K.K.K.K.K.K.K.K.H.K.K.K.G.d ..c.P.R.d.  x f.B. .i L.Z.l.h . k.H.j.h.H.^.XXOXOX XQ.K.K.K.K.K.K.K.K.K.K.K.K.K.K.K.K.K.K.K.K.K.K.K.",
"K.K.K.K.K.K.K.K.K.K.K.K.K.K.K.K.K.K.K.K.K.K.K.K.H.H.K.H.H.n.@. .v.J.d.+   q o.` t H.f.x +   j.m.c.N.Y.).}.^.^.!.J.K.K.K.K.K.K.K.K.K.K.K.K.K.K.K.K.K.K.K.K.K.K.K.",
"K.K.K.K.K.K.K.U.K.K.K.K.K.K.K.K.K.K.K.K.K.K.K.K.H.M.H.H.J.c.@.+...i l.+ @ & J K _ d.0 # X #  . .i P.Q.Q.Y.H.M.d.k.G.K.K.K.K.K.K.K.K.K.K.K.K.K.K.K.K.K.K.K.K.K.K.",
"K.K.K.K.K.K.K.K.K.K.K.K.U.K.K.K.K.K.K.K.K.K.K.K.G.s.u k.G.c.] #.+.m n o X : A A l k # X X $ J ) b.R.W.U.M.s.r l.G.H.K.K.K.K.K.K.K.K.K.K.K.K.K.K.K.K.K.U.K.K.K.K.",
"K.K.K.K.K.K.K.K.K.K.K.K.K.K.K.K.K.K.K.K.K.K.H.H.H.k.r e d.i ..$.$.[ M - : 1 S S - X X X : V B ( j.G.V.d.w h w M.H.K.K.K.K.K.K.K.K.K.K.K.K.K.K.K.K.K.K.K.K.K.K.K.",
"K.K.K.K.K.K.K.K.K.K.K.K.K.K.K.K.K.K.K.K.K.K.J.J.H.H.f.x h n K $.$.#.S B V S G P : - - 1 S S = 7 ( e b 8 # k g.H.H.K.K.K.K.K.K.K.K.K.K.K.K.K.K.K.K.K.K.K.K.K.K.K.",
"K.K.K.K.K.K.K.K.K.K.K.K.K.K.K.K.K.K.K.K.H.H.k.N.N.M.N.w * * N U { U P S H H H P Z 1 C D G B % $ @ @ @ X # r J.J.H.H.K.K.K.K.K.K.K.K.K.K.K.K.K.U.K.K.K.K.K.K.K.K.",
"K.K.K.K.K.K.K.K.K.K.K.K.K.K.K.K.K.K.K.K.K.H.M.d.g g s | 1 * 1 P P P P P H W ~ H G H R W H 9 $ @ X X X X 7 s.J.G.H.K.K.K.K.K.K.K.K.K.K.K.K.K.K.K.K.K.K.K.K.K.K.K.",
"K.K.K.K.K.K.K.K.K.K.K.K.K.K.K.K.K.K.K.K.K.H.K.M.,.Y @.K N V S H H H P P E 3.7.3.Q 1.&.1.H B = $ o X X X 7 c.j.V.H.K.K.K.K.K.K.K.K.K.K.K.K.K.K.K.K.K.K.K.K.K.K.K.",
"K.K.K.K.K.K.K.K.K.K.K.K.K.K.K.K.K.K.K.H.K.K.K.H.A.9./ #.{ P P E 3.3.1.1.4.;.>.>.;.;.:.6.~ G 1 3 3 1 1 - * e N.J.K.K.K.H.H.K.K.K.K.K.K.K.K.K.K.K.K.K.K.K.K.K.K.U.",
"K.K.K.K.K.K.K.K.K.K.K.K.K.K.K.K.K.K.H.K.H.H.H.K.H.g.../ U P P H 2.;.:.:.:.>.w.q.>.>.>.:.-.=.7.7.3.D 1 - $ x f.G.H.H.H.H.H.K.H.K.K.K.K.U.K.K.K.K.K.K.K.K.K.K.K.K.",
"K.K.K.K.K.K.K.K.K.K.K.K.K.K.K.K.K.K.H.M.H.M.H.M.Z.h.( J L P P P W -.:.>.w.w.t.t.q.q.q.>.q.w.w.>.*.3 ; $ X @ k r s.j.h.k.k.M.K.K.K.K.K.K.K.K.K.K.K.K.K.K.K.K.K.K.",
"K.K.K.K.K.K.K.K.K.K.K.K.K.K.K.K.K.K.K.M.V.h.l.i p e j * Z P P P W -.:.>.w.t.i.a.t.t.r.r.t.t.>.:.;.%.< $ X X X + 6 x q u s.h.H.K.K.K.K.K.K.K.K.K.K.K.K.K.K.K.K.K.",
"K.K.K.K.K.K.K.K.K.K.K.K.K.K.K.K.K.K.H.H.M.k.l.q k * % B S G P H ^ -.:.q.e.y.`.].a.a.p.p.u.r.>.>.;.&.3 $ X X X & h w l.f.M.H.H.K.K.K.K.K.K.K.K.K.K.K.K.K.K.K.K.K.",
"K.K.K.K.K.K.K.K.K.K.K.K.K.K.K.K.K.K.H.K.H.J.g.a c 9 B S P P P H 2.;.:.q.r.i.'.[.].].].`.p.t.e.0.7.~ D > o @ & w d.k.G.H.H.K.K.K.K.K.K.K.K.K.K.K.K.K.K.U.K.K.K.K.",
"K.K.K.K.K.K.K.K.K.K.K.K.K.K.K.K.K.K.K.H.M.x._ ) K I U P P P P H 2.:.:.q.t.i.].[.[.[.[.[.a.y.r.;.1.H S S V > c x.H.K.K.K.K.K.K.K.K.K.K.K.K.K.K.K.K.K.K.K.K.K.K.K.",
"K.K.K.K.K.K.K.K.K.K.K.K.K.K.K.K.H.H.k.y ( m ' +.$.$.#.P P P P E 3.:.0.r.u.a.[.[.[.[.[.].a.y.t.8.! H S Z B B K ` a j.M.H.H.K.K.K.K.K.K.K.K.K.K.K.K.K.K.K.K.K.K.K.",
"K.K.K.K.K.K.K.K.K.K.K.K.K.K.K.K.H.G.M.k.g.v.x.a  .' K L G P H ! -.>.q.w.t.u.'.].[.[.].`.i.y.t.w.5.F 1 - @ $ n u l.x.h.H.H.K.K.K.K.K.K.K.K.K.K.K.K.K.K.K.K.K.K.K.",
"K.K.K.K.K.K.K.K.K.K.K.K.K.K.K.K.H.K.K.K.H.K.H.M.d.a v 9 V H 1.4.;.;.:.:.e.y.u.i.].a.a.p.r.w.q.:.8.5 < $ @ @ x k.K.K.K.K.H.K.K.K.K.K.K.K.K.K.K.K.K.K.K.K.K.K.K.K.",
"K.K.K.K.K.K.K.K.K.K.K.K.K.K.K.K.H.H.K.K.K.K.K.K.J.i j $ > T ! 2.2.4.-.q.e.r.q.e.'.t.t.t.t.>.:.:.;.%.< - X X 7 u G.K.K.K.K.K.K.K.K.K.K.K.K.K.K.K.K.K.K.K.K.K.K.K.",
"K.K.K.K.K.K.K.K.K.K.K.K.K.K.K.K.K.K.K.K.K.K.K.H.d.x # % > S H H H T 5 q.w.q.:.>.p.q.>.q.e.q.:.:.*.4 % o X X + 8 l.H.H.K.K.K.K.K.K.K.K.K.K.K.K.K.K.K.K.K.K.K.U.K.",
"K.K.K.K.K.K.K.K.K.K.K.K.K.K.K.K.K.K.K.K.K.H.G.l.z & $ = > S H G B > 2 ;.-.-.;.:.t.>.:.:.q.q.:.;.2.D > @ X X X + 8 l.G.K.K.K.K.K.K.K.K.K.K.K.K.K.K.K.K.K.K.K.K.K.",
"K.K.K.K.K.K.K.K.K.K.K.K.K.K.K.K.K.K.K.K.H.G.l.q b 0 n v L U A - - X < 5 4 F Q &.e.:.;.;.:.:.:.;.Q G B = 8 x 0 x 8 z u k.H.H.K.K.K.K.K.K.K.K.K.K.K.K.K.K.K.K.K.K.",
"K.K.K.K.K.K.K.K.K.K.K.K.K.K.K.K.K.K.K.K.G.k.h.k.H.C.| ' +.O.m # X X o o > 9 : < 0.=.2.1.3.*.;.*.3 > A J y k.H.k.h.s.u h.H.K.K.K.K.K.K.K.K.K.K.K.K.K.K.K.K.K.K.K.",
"K.K.K.K.K.K.K.K.K.K.K.K.K.K.K.K.K.K.K.K.H.H.K.K.G.x.` O.n.F.i . X X X @ > - @ @ %.4 G H D 2 5 &.2 = v m } <.N.Z.H.H.H.H.H.H.H.K.K.K.K.K.K.K.K.K.K.K.K.K.K.K.K.K.",
"K.K.K.K.K.K.K.K.K.K.K.K.K.K.K.K.K.K.K.K.K.H.K.H.j.a o.m.I.P.x.7 X X X @ = $ X X O ; B P Z $ , 2 , . s c.f X.<.D.Z.H.H.H.H.H.K.K.K.K.K.K.K.K.K.K.K.K.K.K.K.K.K.K.",
"K.K.K.K.K.K.K.K.K.K.K.K.K.K.K.K.K.K.K.K.K.K.H.V.l.c.I.R.!.Y.u   X + k n n z   X X X > P A 9 & % X 7 s.Z.N.<.S.Z.Z.K.K.K.K.K.K.K.K.K.K.K.K.K.K.K.K.K.K.K.K.K.K.K.",
"K.K.K.K.K.K.K.K.K.K.K.K.K.K.K.K.K.K.K.K.K.H.H.~.~.E.).(.Y.H.r   # 0 x.d.g.s.b + X @ 9 I I m e h + # p J.K.Z.M.M.K.K.K.K.K.K.K.K.K.K.K.K.K.K.K.K.K.K.K.K.K.K.K.K.",
"K.K.K.K.U.K.K.K.K.K.K.K.K.K.U.K.K.K.K.K.K.Y.(..XoXoX.XQ.K.M.0 6 w k.G.M.H.H.l.7 X   b O.] _ k.s.z   q M.K.K.K.K.K.K.K.K.K.K.K.K.K.K.K.K.K.K.K.K.K.K.K.K.K.K.K.K.",
"K.K.K.K.K.K.K.K.K.K.K.K.K.K.K.K.K.K.K.K.K.U.{.oX#X#XoXQ.H.g.0 r k.K.H.G.K.K.H.x X h x.d ' _ P.H.s.z z f.K.K.K.K.K.K.K.K.K.K.K.K.K.K.K.K.K.K.K.K.K.K.K.K.K.K.K.K.",
"K.K.K.K.K.K.K.K.K.K.K.K.K.K.K.K.K.K.K.K.K.U.).oX#X@X|.Q.J.u p k.H.K.K.K.K.K.K.r + e P.v._ o.J.K.H.s.0 x.H.K.K.K.K.K.K.K.K.K.K.K.K.K.K.K.K.K.K.K.K.K.K.K.K.K.K.K.",
"K.K.K.K.K.K.K.K.K.K.K.K.K.K.K.K.K.K.K.K.K.U./..XOX{.T.L.M.s.k.H.K.K.K.K.K.K.K.h.# z.T.I.s z.J.K.H.H.f.d.M.K.K.K.K.K.K.K.K.K.K.K.K.K.K.K.K.K.K.K.K.K.K.K.K.K.K.K.",
"K.K.K.K.K.K.K.K.K.K.K.K.K.K.K.K.K.K.K.K.K.K.Y.!.!.K.K.H.G.G.H.K.K.K.K.K.K.K.K.H.7 h.Y.T.v.i J.L.K.H.H.H.H.K.K.K.K.K.K.K.K.K.K.K.K.K.K.K.K.K.K.K.K.K.K.K.K.K.K.K.",
"K.K.K.K.K.K.K.K.K.K.K.K.K.K.K.K.K.K.K.K.K.K.K.K.K.K.K.K.K.H.K.K.K.K.K.K.K.K.K.K.6 L.Q.Q.I.i G.K.K.H.H.H.H.K.K.K.K.K.K.K.K.K.K.K.K.K.K.K.U.K.K.K.K.K.K.K.K.K.K.K.",
"U.K.K.K.K.K.K.K.K.K.K.K.K.K.K.K.K.K.K.K.K.K.K.K.K.K.K.K.K.H.K.K.K.K.K.K.K.K.K.K.( Y./.}.(.~.P.K.K.K.K.K.K.H.K.K.K.K.K.K.K.K.K.K.K.K.K.K.K.K.K.K.K.K.K.K.K.K.K.K.",
"K.K.K.K.K.K.K.K.K.K.K.K.K.K.K.K.K.K.K.K.K.K.K.K.K.K.K.K.K.K.K.K.K.K.K.K.K.K.K.K.k.^.|.XX.X_.T.K.K.K.K.K.K.K.K.K.K.K.K.K.K.K.K.K.K.K.K.K.K.K.K.K.K.U.K.K.K.K.K.K.",
"K.K.K.K.K.K.K.K.K.K.K.K.K.K.K.K.K.K.K.K.K.K.K.K.K.K.K.K.K.K.K.K.K.K.K.K.K.K.K.K.K.^.|.oX X^.K.K.K.K.K.K.K.K.K.K.K.K.K.K.K.K.K.K.K.K.K.K.K.K.K.K.K.K.K.K.K.U.K.K.",
"K.K.K.K.K.K.K.K.K.K.K.K.K.K.K.K.K.K.K.K.K.K.K.K.K.K.K.K.K.K.K.K.K.K.K.K.K.K.K.K.K.Q.|.}.^.K.K.K.K.K.K.K.K.K.K.K.K.K.K.K.K.K.K.K.K.K.K.K.K.K.K.K.K.K.K.K.K.K.K.K.",
"K.K.K.K.K.K.K.K.K.K.K.K.K.K.U.K.K.K.K.K.K.K.K.K.K.K.K.K.K.K.K.K.K.K.K.K.K.K.K.K.K.U.Q.W.U.K.H.K.K.K.K.K.K.K.K.K.K.K.K.K.K.K.K.K.K.K.K.K.K.K.K.K.K.K.K.K.K.K.K.K.",
"K.K.K.K.K.K.K.K.K.K.K.K.K.K.K.K.K.K.K.K.K.K.K.K.K.K.K.K.K.K.K.K.K.K.K.K.K.K.K.K.K.K.K.K.K.K.K.K.K.K.K.K.K.K.K.K.K.K.K.K.K.K.K.K.K.K.K.U.K.K.K.K.K.K.K.K.K.K.K.K.",
"K.K.K.K.K.K.K.K.K.K.K.K.K.K.K.K.K.K.K.K.K.K.K.K.K.K.K.K.K.K.K.K.K.K.K.K.K.K.K.K.K.K.K.K.K.K.K.K.K.K.K.K.K.K.K.K.K.K.K.K.K.K.K.K.K.K.K.K.K.K.K.K.K.K.K.K.K.K.K.K.",
"K.K.K.K.K.K.K.K.K.K.K.K.K.K.K.K.K.K.K.K.K.K.K.K.K.K.K.K.K.K.K.K.K.K.K.K.K.K.K.K.K.K.K.K.K.K.K.K.K.K.K.K.K.K.K.K.K.K.K.K.K.K.K.K.K.K.K.K.K.K.K.K.U.K.K.K.K.K.K.K.",
"K.K.K.K.K.K.K.K.K.K.K.K.K.K.K.K.K.K.K.K.K.K.K.K.K.K.K.K.K.K.K.K.K.K.K.K.K.K.K.K.K.K.K.K.K.K.K.K.K.K.K.K.K.K.K.K.K.K.K.K.K.K.K.K.K.K.K.K.K.K.K.K.K.K.K.K.K.K.K.K.",
"K.K.K.K.K.K.K.K.K.K.K.K.K.K.K.K.K.K.K.K.K.K.K.K.K.K.K.K.K.K.K.K.K.K.K.K.K.K.K.K.K.K.K.K.K.K.K.K.K.K.K.K.K.K.K.K.K.K.K.K.K.K.K.K.K.K.K.K.K.K.K.K.K.K.K.K.K.K.K.K.",
"K.K.K.K.K.K.K.K.K.K.K.K.K.K.K.K.K.K.K.K.K.K.K.K.K.K.K.K.K.K.K.K.K.K.K.K.K.K.K.K.K.K.K.K.K.K.K.K.K.K.K.K.K.K.K.K.K.K.K.K.K.K.K.K.K.K.K.K.K.K.K.K.K.K.K.K.K.K.K.U.",
"K.K.K.K.K.K.K.K.K.K.K.K.K.K.K.K.K.K.K.K.K.K.K.K.K.K.K.K.K.K.K.K.K.K.K.K.K.K.K.K.K.K.K.K.K.K.K.K.K.K.K.K.K.K.K.K.K.K.K.K.K.K.K.K.K.K.K.K.K.K.K.K.K.K.K.K.K.K.K.K.",
"K.K.K.K.K.K.K.K.K.K.K.K.K.K.K.K.K.K.K.K.K.K.K.K.K.K.K.K.K.K.K.K.K.K.K.K.K.K.K.K.K.K.K.K.K.K.K.K.U.K.K.K.K.K.K.K.K.K.K.K.K.K.K.K.K.K.K.K.K.K.K.K.K.K.K.K.K.K.K.K.",
"K.K.K.U.K.K.K.K.K.K.K.K.K.K.K.K.K.K.K.K.K.K.K.K.K.K.K.K.K.K.U.K.K.K.K.K.K.K.K.K.K.K.K.K.K.K.K.K.K.K.K.K.K.K.K.K.K.K.K.K.K.K.K.K.K.K.K.K.K.K.K.K.K.K.K.K.K.K.K.K.",
"K.K.K.K.K.K.K.K.K.K.K.K.K.K.K.K.K.K.K.K.K.K.K.K.K.K.U.K.K.K.K.K.K.K.K.K.K.K.K.K.K.K.K.K.K.K.K.K.K.K.K.K.K.K.K.K.K.K.K.K.K.K.K.K.K.K.K.K.K.K.K.K.K.K.K.K.K.K.K.K.",
"K.K.K.K.K.K.K.K.K.K.K.K.K.K.K.K.K.K.K.K.K.K.K.K.K.K.K.K.K.K.K.K.K.K.K.K.K.K.K.K.K.K.K.K.K.U.K.K.K.K.K.K.K.K.K.K.K.K.K.K.K.K.K.K.K.K.K.K.K.K.K.K.U.K.K.K.K.K.K.K.",
"K.K.K.K.K.K.K.K.K.K.K.K.K.K.K.K.K.K.K.K.K.K.K.U.K.K.K.K.K.K.K.K.K.K.K.K.K.K.K.K.K.K.K.K.K.K.K.K.K.K.K.K.K.K.K.K.K.K.K.K.K.K.K.K.K.K.K.K.K.K.K.K.K.K.K.K.K.K.K.K.",
"K.K.K.K.K.K.K.K.K.K.K.K.K.K.K.K.K.K.K.K.K.K.K.K.K.K.K.K.K.K.K.K.U.K.K.K.K.K.K.K.K.K.K.K.K.K.K.K.K.K.K.K.K.K.K.K.K.K.K.K.K.K.K.K.K.K.K.K.K.K.K.K.K.K.K.K.K.K.K.K.",
"K.K.K.K.K.K.K.K.K.K.K.K.K.K.K.K.K.K.K.U.K.K.K.K.K.K.K.K.K.K.K.K.K.K.K.K.K.K.K.K.K.K.K.K.K.K.K.K.K.K.K.K.K.K.K.K.K.K.K.K.K.K.K.K.K.K.K.K.K.K.K.K.K.K.K.K.K.K.K.K.",
"K.K.K.K.K.K.K.K.K.K.K.K.K.K.K.K.K.K.K.K.K.K.K.K.K.K.K.K.K.K.K.K.K.K.K.K.K.K.K.K.K.K.K.K.K.K.K.K.K.K.K.K.K.K.K.K.K.K.K.K.K.K.K.K.K.K.K.K.K.K.K.K.K.K.K.K.K.K.K.K.",
"K.K.K.K.K.K.K.K.K.K.K.K.K.K.K.K.K.K.K.K.K.K.K.K.K.K.K.K.K.K.K.K.K.K.K.K.K.K.K.K.K.K.K.K.K.K.K.K.K.K.K.K.K.K.K.K.K.K.K.K.K.K.K.K.K.K.K.K.K.K.K.K.K.K.K.K.K.K.K.K.",
"K.K.K.K.K.K.K.K.K.K.K.K.K.K.K.K.K.K.K.K.K.K.K.K.K.K.K.U.K.K.K.K.K.K.K.K.K.K.K.K.K.K.K.U.K.K.K.K.K.K.K.K.K.K.K.K.K.K.K.K.K.K.K.K.K.K.K.K.K.K.K.K.K.K.K.K.K.K.K.K."
};
