/* XPM */
static xpm_row_t const explosion_xpm_6[] = {
/* columns rows colors chars-per-pixel */
"80 80 185 2 ",
"   c #DF363C",
".  c #DC383F",
"X  c #ED2B2D",
"o  c #ED332F",
"O  c #EF392E",
"+  c #E62E34",
"@  c #EA2D31",
"#  c #E43036",
"$  c #ED3333",
"%  c #EF3E34",
"&  c #E3343A",
"*  c #E43A3D",
"=  c #EB3B3C",
"-  c #F03636",
";  c #F03A36",
":  c #F23739",
">  c #F23D3B",
",  c #EF4232",
"<  c #F14A34",
"1  c #F3433D",
"2  c #F54D3E",
"3  c #F15233",
"4  c #F5533D",
"5  c #F66439",
"6  c #F4643A",
"7  c #F66B3A",
"8  c #F67839",
"9  c #D63C45",
"0  c #DA3B42",
"q  c #D43F48",
"w  c #BD5563",
"e  c #BC5967",
"r  c #B45D6D",
"t  c #BB5B68",
"y  c #BC636E",
"u  c #BE7E6F",
"i  c #AD6475",
"p  c #AA6678",
"a  c #A66A7D",
"s  c #AB6B7C",
"d  c #B36373",
"f  c #B36A7A",
"g  c #BA6A78",
"h  c #AF797E",
"j  c #B97977",
"k  c #CE444E",
"l  c #D3434B",
"z  c #DD4449",
"x  c #DA4A4F",
"c  c #CD4550",
"v  c #CA4B55",
"b  c #C54E5A",
"n  c #C84E58",
"m  c #D24B53",
"M  c #C1525F",
"N  c #CC565E",
"B  c #DB525A",
"V  c #D85A5F",
"C  c #E14347",
"Z  c #EC4649",
"A  c #EA484B",
"S  c #F44443",
"D  c #F54746",
"F  c #F94B45",
"G  c #F64C4C",
"H  c #FA4E4B",
"J  c #F75441",
"K  c #FA5547",
"L  c #F75D41",
"P  c #FD544D",
"I  c #FE5B4D",
"U  c #E75155",
"Y  c #EA5357",
"T  c #E2585D",
"R  c #FD5351",
"E  c #F35658",
"W  c #FA5A5C",
"Q  c #FC6B47",
"!  c #FE634B",
"~  c #FB7544",
"^  c #FD7C46",
"/  c #FE7349",
"(  c #CB5A64",
")  c #D45C65",
"_  c #D95C64",
"`  c #D35F68",
"'  c #E75E64",
"]  c #C6616D",
"[  c #CC636D",
"{  c #D06263",
"}  c #D3636D",
"|  c #DE7360",
" . c #C46771",
".. c #C77179",
"X. c #E56162",
"o. c #ED6267",
"O. c #E86A60",
"+. c #E4656A",
"@. c #FA6466",
"#. c #F4656B",
"$. c #F78639",
"%. c #F9823D",
"&. c #FCA43D",
"*. c #FDAA3B",
"=. c #FEB43C",
"-. c #FEBC3B",
";. c #FEC53C",
":. c #FFC83F",
">. c #B98877",
",. c #FE8345",
"<. c #FE8D43",
"1. c #FE9342",
"2. c #FE9A43",
"3. c #FEA740",
"4. c #FCB643",
"5. c #FEC342",
"6. c #FECA44",
"7. c #FEC248",
"8. c #FECD4C",
"9. c #FECF50",
"0. c #FDD154",
"q. c #FDD55B",
"w. c #FED761",
"e. c #FDD964",
"r. c #FEDC6B",
"t. c #FDDE70",
"y. c #FDE075",
"u. c #FDE37B",
"i. c #9E7286",
"p. c #9B758B",
"a. c #97788E",
"s. c #9B798E",
"d. c #947D94",
"f. c #9B7D92",
"g. c #A36E82",
"h. c #A86E80",
"j. c #A37486",
"k. c #AA7284",
"l. c #A0768A",
"z. c #AA7789",
"x. c #A57B8E",
"c. c #AA7B8C",
"v. c #B17484",
"b. c #9E8A8E",
"n. c #8D839C",
"m. c #8F889C",
"M. c #948197",
"N. c #9A8491",
"B. c #92839B",
"V. c #928A9C",
"C. c #9A8999",
"Z. c #8C909E",
"A. c #A0968C",
"S. c #A48395",
"D. c #8787A2",
"F. c #8987A1",
"G. c #858BA6",
"H. c #898BA2",
"J. c #00b140",
"K. c #928CA4",
"L. c #8790AA",
"P. c #8C93AC",
"I. c #9393AB",
"U. c #9B96AC",
"Y. c #9999AE",
"T. c #949BB2",
"R. c #9A9EB3",
"E. c #A69BAE",
"W. c #99A1B6",
"Q. c #9DA4B9",
"!. c #A6A7B9",
"~. c #B2A6B6",
"^. c #FDE784",
"/. c #FEEA8B",
"(. c #FEED91",
"). c #A9AFC1",
"_. c #ADB2C4",
"`. c #B2B7C7",
"'. c #B6BACA",
"]. c #BABDCC",
"[. c #BCC1CF",
"{. c #BEC2D0",
"}. c #C1C4D2",
"|. c #C5C8D5",
" X c #CBCED9",
/* pixels */
"J.J.J.J.J.J.J.J.J.J.J.J.J.J.J.J.J.J.J.J.J.J.J.J.J.J.J.J.J.J.J.J.J.J.J.J.J.J.J.J.J.L.J.J.J.J.J.J.J.J.J.J.J.J.J.J.J.J.J.J.J.J.J.J.J.J.J.J.J.J.J.J.J.J.J.J.L.J.J.J.",
"J.J.J.J.J.J.J.J.J.J.J.J.J.J.J.J.J.J.J.J.J.J.J.J.J.J.J.J.J.J.J.J.J.J.J.J.J.J.J.J.J.J.J.J.J.J.J.J.J.J.J.J.J.J.J.J.J.J.J.J.J.J.J.J.J.J.J.J.J.J.J.J.J.J.J.J.J.J.J.J.",
"J.J.J.J.J.J.J.J.J.J.J.J.J.J.J.J.J.J.J.J.J.J.J.J.J.J.J.J.J.J.J.J.J.J.J.J.J.J.J.J.J.J.J.J.J.J.J.J.J.J.J.J.J.J.J.J.J.J.J.J.J.J.J.J.J.J.J.J.J.J.J.J.J.J.J.J.J.J.J.J.",
"J.J.J.J.J.J.J.J.J.J.J.J.J.J.J.J.J.J.J.J.J.J.J.J.J.J.J.J.J.J.J.J.J.J.J.J.J.J.J.J.J.J.J.J.J.J.J.J.J.J.J.J.J.J.J.J.J.J.J.J.J.J.J.J.J.J.J.J.J.J.J.J.J.J.J.J.J.J.J.J.",
"J.J.J.J.J.J.J.J.J.J.J.J.J.J.J.J.J.J.J.J.J.J.J.J.J.J.J.J.J.J.J.J.J.J.J.J.J.J.J.J.J.J.J.J.J.J.J.J.J.J.J.J.J.J.J.J.J.J.J.J.J.J.J.J.J.J.J.J.J.J.J.J.J.J.J.J.J.J.J.J.",
"J.J.J.J.J.J.J.J.J.J.J.J.J.J.J.J.J.J.J.J.J.J.J.J.J.J.J.J.J.J.J.J.J.J.J.J.J.J.J.J.J.J.J.J.J.J.J.J.J.J.J.J.J.J.J.J.J.J.J.J.J.J.J.J.J.J.J.J.J.J.J.J.J.J.J.J.J.J.J.J.",
"J.J.J.J.J.J.J.J.J.J.J.J.J.J.J.J.J.J.J.J.J.J.J.J.J.J.J.J.J.J.J.J.J.J.J.J.J.J.J.J.J.J.J.J.J.J.J.J.J.J.J.J.J.J.J.J.J.J.J.J.J.J.J.J.J.J.J.J.J.J.J.J.J.J.J.J.J.J.J.J.",
"J.J.J.J.J.J.J.J.J.J.J.J.J.J.J.L.J.J.J.J.J.J.J.J.J.J.J.J.J.J.J.J.J.J.J.J.J.J.J.J.J.J.J.J.J.J.J.J.J.J.J.J.J.J.J.J.J.J.J.J.J.J.J.J.J.J.J.J.J.J.J.J.J.J.J.J.J.J.J.J.",
"J.J.J.J.J.J.J.J.J.J.J.J.J.J.J.J.J.J.J.J.J.J.J.J.J.J.J.J.J.J.J.J.J.J.J.J.J.J.J.J.J.J.J.J.J.J.J.J.J.J.J.J.J.J.J.J.J.J.J.J.J.J.J.J.J.J.J.J.J.J.J.J.J.J.J.J.J.J.J.J.",
"J.J.J.J.J.J.J.J.J.J.J.J.J.J.J.J.J.J.J.J.J.J.J.J.J.J.J.J.J.J.J.J.J.J.J.J.J.J.J.J.J.J.J.J.J.J.J.J.J.J.J.J.J.J.J.J.J.J.J.J.J.J.J.J.J.J.J.J.J.J.J.J.J.J.J.J.J.J.J.J.",
"J.J.J.J.J.J.J.J.J.J.J.J.J.J.J.J.J.J.J.J.J.J.J.J.J.J.J.J.J.J.J.J.J.J.J.J.J.J.J.J.J.J.J.J.J.J.J.J.J.J.J.J.J.J.J.J.J.J.J.J.J.J.J.J.J.J.J.J.J.J.J.J.J.J.J.J.J.J.J.J.",
"J.J.J.J.J.J.J.J.J.J.J.J.J.J.J.J.J.J.J.J.J.J.J.J.J.J.J.J.J.J.J.J.J.J.J.J.J.J.J.J.J.J.J.J.J.J.J.J.J.J.J.J.J.J.J.J.J.J.J.J.J.J.J.J.J.J.J.J.J.J.J.J.J.J.J.J.J.J.J.J.",
"J.J.J.J.J.J.J.J.J.J.J.J.J.J.J.J.J.J.J.J.J.J.J.J.J.J.J.J.J.J.J.J.J.J.J.J.J.J.J.J.J.J.J.J.L.J.J.J.J.J.J.J.J.J.J.J.J.J.J.J.J.J.J.J.J.J.J.J.J.J.L.J.J.J.J.J.J.J.J.J.",
"J.J.J.J.J.J.J.J.J.J.J.L.J.J.J.J.J.J.J.J.J.J.J.J.J.J.J.J.J.J.J.J.J.J.J.J.J.J.J.J.J.J.J.J.J.J.J.J.J.J.J.J.J.J.J.J.J.J.J.J.J.J.J.J.J.J.J.J.J.J.J.J.J.J.J.J.J.J.J.J.",
"L.J.J.J.J.J.J.J.J.J.J.J.J.J.J.J.J.J.J.J.J.J.J.J.J.J.J.J.J.J.J.J.J.J.J.J.J.J.J.J.J.J.J.J.J.J.J.J.J.J.J.J.J.J.J.J.J.J.J.J.J.J.J.J.J.J.J.J.J.J.J.J.J.J.J.J.J.J.J.J.",
"J.J.J.J.J.J.J.J.J.J.J.J.J.J.J.J.J.J.J.J.J.J.J.J.J.J.J.J.J.J.J.J.J.L.J.J.J.J.J.J.J.J.J.J.J.J.J.J.J.J.J.J.J.J.J.J.J.J.J.J.J.J.J.J.J.J.J.J.J.J.J.J.J.J.J.J.J.J.J.J.",
"J.J.J.J.J.J.J.J.J.J.J.J.J.J.J.J.J.J.J.J.J.J.J.J.J.J.J.J.J.J.J.J.J.J.J.J.J.J.J.J.J.J.J.J.J.J.J.J.J.J.J.J.J.J.J.J.J.J.J.J.J.J.J.J.J.J.J.J.J.J.J.J.J.J.J.J.J.J.J.J.",
"J.J.J.J.J.J.J.J.J.J.J.J.J.J.J.J.J.J.J.J.J.J.J.J.J.J.J.J.J.J.J.J.J.J.J.J.J.J.J.J.J.J.J.J.J.J.J.J.J.J.J.J.J.J.J.J.J.J.J.J.J.J.J.J.J.J.J.J.J.J.J.J.J.J.J.J.J.J.J.J.",
"J.J.J.J.J.J.J.J.J.J.J.J.J.J.J.J.J.J.J.J.J.J.J.J.J.J.J.J.J.J.J.J.J.J.J.J.J.J.J.J.J.J.J.J.J.J.J.J.J.J.J.J.J.J.J.J.J.J.J.J.J.J.J.J.J.J.J.J.J.J.J.J.J.J.J.J.J.J.J.J.",
"J.J.J.J.J.J.J.J.J.J.J.J.J.J.J.J.J.J.J.J.J.J.J.J.J.J.J.G.J.G.J.J.J.J.J.J.J.J.J.J.J.J.J.J.J.J.J.J.J.J.J.J.J.J.J.J.J.J.J.J.J.J.J.J.L.J.J.J.J.J.J.J.J.J.L.J.J.J.J.L.",
"J.J.J.J.J.J.J.J.J.J.J.J.J.J.J.J.J.J.J.J.J.J.J.J.J.J.J.G.J.J.J.J.J.J.J.J.J.J.J.J.J.J.J.J.J.J.G.J.J.J.J.J.J.J.J.J.J.J.J.J.J.J.J.J.J.J.J.J.J.J.J.J.J.J.J.J.J.J.J.J.",
"J.J.J.J.J.J.J.J.J.J.L.J.J.J.J.J.J.J.J.J.J.J.L.J.J.J.G.J.D.D.D.L.T.T.G.G.G.J.J.J.J.J.J.G.G.G.J.J.J.J.J.L.L.J.J.J.J.J.J.J.J.J.J.J.J.J.J.J.J.J.J.J.J.J.J.J.J.J.J.J.",
"J.J.J.J.J.J.J.J.J.J.J.J.J.J.J.J.J.J.J.J.J.J.J.J.J.J.J.J.D.n.V.T.`.`.P.M.G.G.J.J.G.G.G.J.D.d.D.J.J.J.P.Q.Q.Q.Q.T.J.J.J.J.J.J.J.J.J.J.J.J.J.J.J.J.J.J.J.J.J.J.J.J.",
"J.J.J.J.J.J.J.J.J.J.J.J.J.J.J.J.J.J.J.J.J.J.J.J.J.J.J.J.J.d.f.U.'.}.R.a.n.G.J.Z.J.G.G.G.d.g.G.J.J.J.T.'.{.{.{.Q.J.J.J.J.J.J.J.J.J.J.J.J.J.J.J.L.J.J.J.J.J.J.J.J.",
"J.J.J.J.J.J.J.J.J.J.J.J.J.J.J.J.J.J.J.J.J.J.J.J.J.J.J.J.G.B.k.S.!.~.Y.g.h.F.J.f.m.G.Z.n.i a H.G.H.G.W.[. X X{.Q.J.J.J.J.J.J.J.J.J.J.J.J.J.J.J.J.J.J.J.J.J.J.J.J.",
"J.J.J.J.J.J.J.J.J.J.J.J.J.J.J.J.J.J.J.J.J.J.J.J.J.J.J.J.J.F.v.g C.W.I.p w d.D.h M.G.G.i.b a G.H.n.H.Q.{. X|._.T.J.J.J.J.J.J.J.J.J.J.J.J.J.J.J.J.J.J.J.J.J.J.J.J.",
"J.J.L.J.J.J.J.J.J.J.J.J.J.J.J.J.J.J.J.J.J.J.J.J.G.G.G.J.J.H.c.[ h K.U.d q p N. .s G.d.w 9 g.H.f.M.P.).[.{.'.T.G.J.J.J.J.J.J.J.J.J.J.J.J.J.J.J.J.J.J.J.J.J.J.J.J.",
"J.J.J.J.J.J.J.J.J.J.J.J.J.J.J.J.J.J.J.J.J.J.J.J.J.G.G.G.G.G.x.} } k.d.r # c ] ) y n.p 0   d c.h.V.Y.!.Q.T.Y.m.D.J.J.J.J.J.J.J.J.J.J.J.J.J.J.J.J.J.J.J.J.J.J.J.J.",
"J.J.J.J.J.J.J.J.J.J.J.J.J.J.J.J.J.J.J.J.J.J.J.J.G.J.D.M.n.D.s.} o.{ d M @ $ A U N d l @ @ m [ k.K.T.I.F.a.p.M.G.J.J.J.J.J.J.J.J.L.J.J.J.J.J.J.J.J.J.L.J.J.J.J.L.",
"J.J.J.J.J.J.J.J.L.J.J.J.J.J.J.J.J.J.J.J.J.J.J.J.J.J.D.a.p p.j.} #.#.B z $ : D G * # X @ : Z N f.P.F.s.i r a.G.G.J.J.J.J.J.J.J.J.J.J.J.J.J.J.J.J.J.J.J.J.J.J.J.J.",
"J.J.J.J.J.J.J.J.J.J.J.J.J.J.J.J.J.J.J.J.J.J.J.G.G.G.G.n.p w e V #.@.W S 1 S H H : - - > D 1 x d a r v q i n.J.J.J.J.J.J.J.J.J.J.J.J.J.J.J.J.J.J.J.J.J.J.J.J.J.J.",
"J.J.J.J.J.J.J.J.J.J.J.J.J.J.J.J.J.J.J.J.J.J.J.G.D.d.n.n.i.v z Z W @.W H H P P R D > 1 H F : #   . & + v a.G.J.J.J.J.J.J.J.J.J.J.J.J.J.J.J.J.J.J.J.J.J.J.J.J.J.J.",
"J.J.J.J.J.J.J.J.J.J.J.J.J.J.J.J.J.J.J.J.J.J.J.J.m.l.u j g m = 1 R R R R R ! / I P K Q I F - o X X X # t n.m.G.J.J.J.J.J.J.J.J.J.J.J.J.J.J.J.J.J.J.J.J.J.J.J.J.J.",
"J.J.J.J.J.J.J.J.J.J.J.J.J.J.J.J.J.J.J.G.J.G.J.G.G.M.>.| ' U D F I ! I R ! ,.3.2.^ <.&.Q F : $ o X X & t a.n.G.G.J.J.J.G.G.J.J.J.J.J.J.J.J.J.J.J.J.J.J.J.J.J.J.J.",
"J.J.J.J.J.J.J.J.J.J.J.J.J.J.J.J.J.J.J.J.G.G.G.J.J.G.C.>.O.o.W R ! 1.2.<.2.=.5.5.-.;.=.1.Q L 6 6 1 > = m p.n.J.G.G.G.G.G.J.J.J.J.J.J.J.J.J.J.J.J.J.J.J.J.J.J.J.J.",
"J.J.J.J.J.J.J.J.J.J.J.J.J.J.J.J.J.J.J.J.J.G.G.G.G.G.D.j.V E R R I ,.-.;.;.6.8.8.;.:.;.;.4.4.4.1.J > $ 0 r a.n.n.D.G.G.G.J.J.J.J.J.J.J.J.J.J.J.J.J.J.J.J.J.J.J.J.",
"J.J.J.J.J.J.J.J.J.J.J.J.J.J.J.J.J.J.J.J.G.G.n.n.d.a.i.i x A R R P / =.;.6.0.q.r.9.9.6.8.0.8.:.*.7 ; X X & l e p g.a.d.D.J.J.J.J.J.J.J.J.J.J.J.J.J.J.J.J.J.J.J.J.",
"J.J.J.J.J.J.J.J.J.J.J.J.J.J.J.J.J.J.J.J.G.G.n.d.i.i n l = S H R P / -.;.6.q.y.^.t.r.r.r.q.6.;.4.$.< X X X # k e a d.d.D.G.J.J.J.J.J.J.J.J.J.J.J.J.J.J.J.J.J.J.J.",
"J.J.J.J.J.J.J.J.J.J.J.J.J.J.J.J.J.J.J.G.J.G.G.H.s.d x = S G R R I <.-.;.8.w.u.(.^./.^.y.q.9.6.3.~ 2 $ X # b s d.d.G.G.J.J.J.J.J.J.J.J.J.J.J.J.J.J.J.J.J.J.J.J.J.",
"J.J.J.J.J.J.J.J.J.J.J.J.J.J.J.J.J.J.J.J.J.J.H.s.d ( T E R R H P I <.;.;.8.r.^.(.(.(.(.^.r.0.5.,.I H D 1 z s n.G.G.J.J.J.J.J.J.J.J.J.J.J.J.J.J.J.J.J.J.J.J.J.J.J.",
"J.J.J.J.J.J.J.L.J.J.J.J.J.J.J.J.J.J.J.G.D.a.r ( _ ' #.#.W R R R ! 1.;.6.w.y./.(.(.(.(./.r.q.7.,.P H S S U _ d d.D.G.G.J.J.J.J.J.J.J.J.J.J.J.J.J.J.J.J.J.J.J.J.J.",
"J.J.J.J.J.J.J.J.J.J.J.J.J.J.J.J.J.J.J.G.D.n.d.a.l.h. ._ Y R R ! ,.4.5.6.9.w.u.^././.^.y.e.q.6.2.4 ; $ $ v s s.a.n.D.G.J.J.J.J.J.J.J.J.J.J.J.J.J.J.J.J.J.J.J.J.J.",
"J.J.J.J.J.J.J.J.J.J.J.J.J.J.J.J.J.J.J.J.J.J.J.G.D.D.d.y C S K / 1.*.=.;.6.q.w.e./.t.r.e.8.6.:.4.8 < o X l j.G.G.J.G.G.J.J.J.J.J.J.J.J.J.J.J.J.J.J.J.J.J.J.J.J.J.",
"J.J.J.J.J.J.J.J.J.J.J.J.J.J.J.J.J.J.J.J.J.J.J.J.J.J.d.w & : F Q / / ,.&.6.8.6.6.u.8.8.0.6.;.;.=.7 , X X + M d.G.J.J.J.J.J.J.J.J.J.J.J.J.J.J.J.J.J.J.J.J.J.J.J.J.",
"J.J.J.J.J.J.J.J.J.J.J.J.J.J.J.J.J.J.J.J.J.J.J.G.G.d.w 0 $ - F P P F 4 %.;.-.;.;.e.;.;.6.6.;.-.$.J : X X X   w d.G.G.J.J.J.J.J.J.J.J.J.J.J.J.J.J.J.J.J.J.J.J.J.J.",
"J.J.J.J.J.J.J.J.J.J.J.J.J.J.J.J.J.J.J.J.J.J.G.G.a.r b v m A E G 1 - ; 3 8 ~ 8 *.9.;.-.;.;.;.=.8 K > * l c c q w a.G.J.G.J.J.J.J.J.J.J.J.J.J.J.J.J.J.J.J.J.J.J.J.",
"J.J.J.J.J.J.J.J.J.J.J.J.J.J.J.J.J.J.J.J.J.G.G.n.d.d.B.p.( X.+._ & X X O 1 1 > 3 5.&.1.1.&.=.*.5 1 Z N j.n.d.p.g.i.d.G.J.J.J.J.J.J.J.J.J.J.J.J.J.J.J.J.J.J.J.J.J.",
"J.J.J.J.J.J.J.J.J.J.J.J.J.J.J.J.J.J.J.J.J.J.G.G.G.J.F.h.` ..c.h.q X X X - - - X 8 6 P P 4 8 $.3 * B { j N.Z.G.G.D.J.G.J.J.J.J.J.J.J.J.J.J.J.J.J.J.J.J.J.J.J.J.J.",
"J.J.J.J.J.J.J.J.J.J.J.J.J.J.J.J.J.J.J.J.J.J.J.J.J.D.s.g z.K.K.l.q X X + * & @ X o > F F = % 3 , l s h u >.A.Z.J.J.J.J.G.J.J.J.J.J.J.J.J.J.J.J.J.J.J.J.J.J.J.J.J.",
"J.J.J.J.J.J.J.J.J.J.J.J.J.J.J.J.J.J.J.J.J.J.J.J.J.n.c.f.U.T.I.k.9 + q ( t e q + X @ S E A z   X l p.n.N.b.V.G.G.J.J.J.J.J.J.J.J.J.J.J.J.J.J.J.J.J.J.J.J.J.J.J.J.",
"J.J.J.J.J.J.J.J.J.J.J.J.J.J.J.J.J.J.J.J.J.J.J.J.I.~.~.).).T.F.i 9 c g.d.d.n.a 0 X & B o.V s r 0 . a H.G.G.G.G.J.J.J.J.J.J.J.J.J.J.J.J.J.J.J.J.L.J.J.J.J.J.J.J.J.",
"J.J.J.J.J.J.J.J.J.J.J.J.J.J.J.J.J.J.J.J.J.J.J.J.R.].|.|.`.P.d.r w p.F.F.G.J.n.b X k d } ) s.B.i k d n.G.J.G.J.J.J.J.J.J.J.J.J.J.J.J.J.J.J.J.J.J.J.J.J.J.J.J.J.J.",
"J.J.J.J.L.J.J.J.J.J.J.J.J.J.J.J.J.J.J.J.J.J.J.J.Q.{. X|.).P.a.i p.G.G.G.J.J.G.r + r f.g ( d.J.n.i r M.G.J.J.J.J.J.J.J.J.J.J.J.J.J.J.J.J.J.J.J.J.J.J.J.J.J.J.J.J.",
"J.J.J.J.J.J.J.J.J.J.J.J.J.J.J.J.J.J.J.J.J.J.J.J.R.'.{.).T.G.a.a.n.G.G.G.J.J.J.d.  j.I.z.f B.J.G.n.i.M.G.G.J.J.J.J.J.J.J.J.J.J.J.J.J.J.J.J.J.J.J.J.J.J.J.J.J.J.J.",
"J.J.J.J.J.J.J.J.J.J.J.J.J.J.J.J.J.J.J.J.J.J.J.J.P.T.R.L.J.G.D.D.G.J.J.J.J.J.J.G.9 B.I.C.k.B.J.J.G.D.D.G.J.J.J.J.J.J.J.J.J.J.J.J.J.J.J.J.J.J.J.J.J.J.J.J.J.J.J.J.",
"J.J.J.J.J.J.J.J.J.J.J.J.J.J.J.L.J.J.J.J.J.J.J.J.J.J.J.J.J.J.G.J.J.J.J.J.J.J.J.J.c P.T.U.x.B.J.J.J.G.J.G.J.J.J.J.J.J.J.J.J.J.J.J.J.J.J.J.J.J.J.J.J.J.J.J.J.J.J.J.",
"J.J.J.J.J.J.J.J.J.J.J.J.J.J.J.J.J.J.J.J.J.J.J.J.J.J.J.J.J.J.J.J.J.J.J.J.J.J.J.J.d T.)._.E.I.G.J.J.J.J.J.J.J.J.J.J.J.J.J.J.J.J.J.J.J.J.J.L.J.J.J.J.J.L.J.J.J.J.J.",
"J.J.J.J.J.J.J.J.J.J.J.J.J.J.J.J.J.J.J.J.J.J.J.J.J.J.J.J.J.J.J.J.J.J.J.J.J.J.J.J.m.Q.'.[.).P.J.J.J.J.J.J.J.J.J.J.J.J.J.J.J.J.J.J.J.J.J.J.J.J.J.J.J.J.J.J.J.J.J.J.",
"J.J.J.J.J.J.J.J.J.J.J.J.J.J.J.J.J.J.J.J.J.J.J.J.J.J.J.J.J.J.J.J.J.J.J.J.J.J.J.J.L.W._.).R.L.J.J.J.J.J.J.J.J.J.J.J.J.J.J.J.J.J.J.J.J.J.J.J.J.J.J.J.J.J.J.J.J.J.J.",
"J.J.J.J.J.J.J.J.J.J.J.J.J.J.J.J.J.J.J.J.J.J.J.J.J.J.J.J.J.J.J.J.J.J.J.J.J.J.J.J.L.P.W.T.L.J.J.J.J.J.J.J.J.J.J.J.J.J.J.J.J.J.J.J.J.J.J.J.J.J.J.J.J.J.J.J.J.J.J.J.",
"J.J.J.J.J.J.J.J.J.J.J.J.J.J.J.J.J.J.J.J.J.J.J.J.J.J.J.J.J.J.J.J.J.J.J.J.J.J.J.J.J.G.J.J.J.J.J.J.J.J.J.J.J.J.J.J.J.J.J.J.J.J.J.J.J.J.J.J.J.J.J.J.J.J.J.J.J.J.J.J.",
"J.J.J.J.J.J.J.J.J.J.J.L.J.J.J.J.J.J.J.J.J.J.J.J.J.J.J.J.J.J.J.J.J.J.J.J.J.J.J.J.J.G.J.J.J.J.J.J.J.J.J.J.J.J.J.J.J.J.J.J.J.J.J.J.J.J.J.J.J.J.J.J.J.J.J.J.J.J.J.J.",
"L.J.J.J.J.J.J.J.J.J.J.J.J.J.J.J.J.J.J.J.J.J.J.J.J.J.J.J.J.J.J.J.J.J.J.J.J.J.J.J.J.J.J.J.J.J.J.J.J.J.J.J.J.J.J.J.J.J.J.J.J.J.J.J.J.J.J.J.J.J.J.J.J.J.J.J.J.J.J.J.",
"J.J.J.J.J.J.J.J.J.J.J.J.J.J.J.J.J.J.J.J.J.J.J.J.J.J.J.J.J.J.J.J.J.J.J.J.J.J.J.J.J.J.J.J.J.J.J.J.J.J.J.J.J.J.J.J.J.J.J.J.J.J.J.J.J.J.J.J.J.J.J.J.J.J.J.J.J.J.J.J.",
"J.J.J.J.J.J.J.J.J.J.J.J.J.J.J.J.J.J.J.J.J.J.J.J.J.J.J.J.J.J.J.J.J.J.J.J.J.J.J.J.J.J.J.J.J.J.J.J.J.J.J.J.J.J.J.L.J.J.J.J.J.J.J.J.J.J.J.J.J.J.J.J.J.J.J.J.J.J.J.J.",
"J.J.J.J.J.J.J.J.J.J.J.J.J.J.J.J.J.J.J.J.J.J.J.J.J.J.J.J.J.J.J.J.J.J.J.J.J.J.J.J.J.J.J.J.J.J.J.J.J.J.J.J.J.J.J.J.J.J.J.J.J.J.J.J.J.J.J.J.J.J.J.J.J.J.J.J.J.J.J.J.",
"J.J.J.J.J.J.J.J.J.J.J.J.J.J.J.J.J.J.J.J.J.J.J.J.J.J.J.J.J.J.J.J.J.J.J.J.J.J.J.J.J.J.J.J.J.J.J.J.J.J.J.J.J.J.J.J.J.J.J.J.J.J.J.J.J.J.J.J.J.J.J.J.J.J.J.J.J.J.J.J.",
"J.J.J.J.J.J.J.J.J.J.J.J.J.J.J.J.J.J.J.J.J.J.J.J.J.J.J.J.J.J.J.J.J.J.J.J.J.J.J.J.J.J.J.J.J.J.J.J.J.J.J.J.J.J.J.J.J.J.J.J.J.J.J.J.J.J.J.J.J.J.J.J.J.J.J.J.J.J.J.J.",
"J.J.J.J.J.J.J.J.J.J.J.J.J.J.J.J.J.J.J.J.J.J.J.J.J.J.J.J.J.J.J.J.J.J.J.J.J.J.J.J.J.J.J.J.J.J.J.J.J.J.J.J.J.J.J.J.J.J.J.J.J.L.J.J.J.J.J.J.J.J.J.J.J.J.L.J.J.J.J.J.",
"J.J.J.J.J.J.J.J.J.J.J.J.J.J.J.J.J.J.J.J.J.J.J.J.J.J.J.J.J.J.J.J.J.J.J.J.J.J.J.J.J.J.J.J.J.J.J.J.J.J.J.J.J.J.J.J.J.J.J.J.J.J.J.J.J.J.J.J.J.J.J.J.J.J.J.J.J.J.J.J.",
"J.J.J.J.J.J.J.J.J.J.J.J.J.J.J.J.J.J.J.J.J.J.J.J.J.J.J.J.J.J.J.J.J.J.J.J.J.J.J.J.J.J.J.J.J.J.J.J.J.J.J.J.J.J.J.J.J.J.J.J.J.J.J.J.J.J.J.J.J.J.J.J.J.J.J.J.J.J.J.J.",
"J.J.J.J.J.J.J.J.J.J.J.J.J.J.J.J.J.J.J.J.J.J.J.J.J.J.J.J.J.J.J.J.J.J.J.J.J.J.J.J.J.J.J.J.J.J.J.J.J.J.J.J.J.J.J.J.J.J.J.J.J.J.J.J.J.J.J.J.J.J.J.J.J.J.J.J.J.J.J.J.",
"J.J.J.J.J.J.J.J.J.J.J.J.J.J.J.J.J.J.J.J.J.J.J.J.J.J.J.J.J.J.J.J.J.J.J.J.J.J.J.J.J.J.J.J.J.J.J.J.J.J.J.J.J.J.J.J.J.J.J.J.J.J.J.J.J.J.J.J.J.J.J.J.J.J.J.J.J.J.J.J.",
"J.J.J.J.J.J.J.J.J.J.J.J.J.J.J.J.J.J.J.J.J.J.J.J.J.J.J.J.J.L.J.J.J.J.J.J.L.J.J.J.J.L.J.J.J.J.J.J.J.J.J.J.J.J.J.J.J.J.J.J.J.J.J.J.J.J.L.J.J.J.J.J.J.J.J.J.J.J.J.J.",
"J.J.J.L.J.J.J.J.J.J.J.J.J.J.J.J.J.J.J.J.J.L.J.J.J.J.J.J.J.J.J.J.J.J.J.J.J.J.J.J.J.J.J.J.J.J.J.J.J.J.J.J.J.J.J.J.J.J.J.J.J.J.J.J.J.J.J.J.J.J.J.J.J.J.J.J.J.J.J.J.",
"J.J.J.J.J.J.J.J.J.J.J.J.J.J.J.J.J.J.J.J.J.J.J.J.J.J.J.J.J.J.J.J.J.J.J.J.J.J.J.J.J.J.J.J.J.J.J.J.J.J.J.J.J.J.J.J.J.J.J.J.J.J.J.J.J.J.J.J.J.J.J.J.J.J.J.J.J.J.J.J.",
"J.J.J.J.J.J.J.J.J.J.J.J.J.J.J.J.J.J.J.J.J.J.J.J.J.J.J.J.J.J.J.J.J.J.J.J.J.J.J.J.J.J.J.J.J.J.J.J.J.J.J.J.J.J.J.J.J.J.J.J.J.J.J.J.J.J.J.J.J.J.J.J.J.J.J.J.J.J.J.J.",
"J.J.J.J.J.J.J.J.J.J.J.J.J.J.J.J.J.J.J.J.J.J.J.J.J.J.L.J.J.J.J.J.J.J.J.J.J.J.J.J.J.J.J.J.J.J.J.J.J.J.J.J.J.J.J.J.J.J.J.J.J.J.J.J.J.J.J.J.J.J.J.J.J.L.J.J.J.J.J.J.",
"J.J.J.J.J.J.J.J.J.J.J.J.J.J.J.J.J.J.J.J.J.J.J.J.J.J.J.J.J.J.J.J.J.J.J.J.J.J.J.J.J.J.J.J.J.J.L.J.J.J.J.J.J.J.J.J.J.J.J.J.J.J.J.J.J.J.J.J.J.J.J.J.J.J.J.J.J.J.J.J.",
"J.J.J.J.J.J.J.J.J.J.J.J.J.J.J.J.J.J.J.J.J.J.J.J.J.J.J.J.J.J.J.J.J.J.J.J.J.L.J.J.J.J.J.J.J.J.J.J.J.J.J.J.J.J.J.J.J.J.J.J.J.J.J.J.J.J.J.J.J.J.J.J.J.J.J.J.J.J.J.J."
};
