/* XPM */
static xpm_row_t const explosion_xpm_2[] = {
/* columns rows colors chars-per-pixel */
"80 80 189 2 ",
"   c #DF373F",
".  c #DF393D",
"X  c #EF292D",
"o  c #EF332E",
"O  c #E72F34",
"+  c #EC2E31",
"@  c #F02E30",
"#  c #E73035",
"$  c #EF3434",
"%  c #E2353B",
"&  c #EB3A3A",
"*  c #EA3B3C",
"=  c #F03635",
"-  c #F13A36",
";  c #F33C3B",
":  c #F3482F",
">  c #F24633",
",  c #F34839",
"<  c #F45736",
"1  c #F56735",
"2  c #F77838",
"3  c #D73F47",
"4  c #DB3B43",
"5  c #D73F48",
"6  c #D83F48",
"7  c #F73F40",
"8  c #BE5664",
"9  c #BC5867",
"0  c #B65E6E",
"q  c #BA5B6A",
"w  c #B65F71",
"e  c #BD616F",
"r  c #AE6679",
"t  c #AB6B7D",
"y  c #B36374",
"u  c #BB6573",
"i  c #B96976",
"p  c #B46B7B",
"a  c #AD707F",
"s  c #BA7878",
"d  c #DB4046",
"f  c #D3434C",
"g  c #DB454A",
"h  c #DD494E",
"j  c #CF4751",
"k  c #CC4A54",
"l  c #C84D57",
"z  c #C74E5A",
"x  c #DA4C52",
"c  c #C4515E",
"v  c #CF575F",
"b  c #D5535B",
"n  c #DA555C",
"m  c #D85859",
"M  c #DD585F",
"N  c #E44245",
"B  c #E24449",
"V  c #F64443",
"C  c #F94544",
"Z  c #F94846",
"A  c #F64C4C",
"S  c #FB4D4B",
"D  c #F85840",
"F  c #FD514E",
"G  c #FF5E4F",
"H  c #EC4D52",
"J  c #EB5357",
"K  c #FF5452",
"L  c #FF5A50",
"P  c #F35558",
"I  c #FF5C5C",
"U  c #DC6457",
"Y  c #D7775B",
"T  c #FF624E",
"R  c #FF6D4C",
"E  c #FE7846",
"W  c #FF724B",
"Q  c #FF7A4A",
"!  c #ED6D5F",
"~  c #C15562",
"^  c #CF5760",
"/  c #C75D67",
"(  c #CB5A64",
")  c #C65E69",
"_  c #DE5B62",
"`  c #E35B61",
"'  c #E85E64",
"]  c #FE5F61",
"[  c #C2616D",
"{  c #CD646E",
"}  c #C46977",
"|  c #CF6F71",
" . c #EF6267",
".. c #ED6168",
"X. c #FE6264",
"o. c #F76569",
"O. c #F4666B",
"+. c #FB6A6E",
"@. c #FA7864",
"#. c #E56B73",
"$. c #FF6D71",
"%. c #F88938",
"&. c #F98D3A",
"*. c #FA9738",
"=. c #FEAC3D",
"-. c #FEB23D",
";. c #FFBB3C",
":. c #FFC73B",
">. c #FFC83E",
",. c #B98177",
"<. c #B2A27F",
"1. c #D6885D",
"2. c #E98B4C",
"3. c #FF8647",
"4. c #FF8C45",
"5. c #FA9346",
"6. c #FF9C42",
"7. c #F69555",
"8. c #D5B25F",
"9. c #FFA241",
"0. c #FFAA41",
"q. c #FEB34B",
"w. c #E6BB50",
"e. c #D08C63",
"r. c #CAA16B",
"t. c #FEC444",
"y. c #FFCA42",
"u. c #FFCE4A",
"i. c #FFD14F",
"p. c #FDC052",
"a. c #FFD253",
"s. c #FFD65C",
"d. c #FFD85F",
"f. c #FFD760",
"g. c #FED963",
"h. c #FEDD6B",
"j. c #FEE174",
"k. c #FEE47A",
"l. c #9D768B",
"z. c #9D7A8E",
"x. c #967D94",
"c. c #9A7C92",
"v. c #A66F83",
"b. c #A96F81",
"n. c #A47286",
"m. c #AB7283",
"M. c #A37689",
"N. c #A1798D",
"B. c #B3798B",
"V. c #8E859D",
"C. c #958197",
"Z. c #9E8592",
"A. c #92839B",
"S. c #8E919F",
"D. c #9A9595",
"F. c #A79D89",
"G. c #8B87A1",
"H. c #868CA6",
"J. c #8A8AA3",
"K. c #00b140",
"L. c #8A90A3",
"P. c #8790AB",
"I. c #8B93AD",
"U. c #8F97B0",
"Y. c #949BB3",
"T. c #989FB6",
"R. c #A692A7",
"E. c #99A1B6",
"W. c #9DA4BA",
"Q. c #A0A7BB",
"!. c #A3AABE",
"~. c #B2A8B8",
"^. c #FEE781",
"/. c #FEE986",
"(. c #FEEB8C",
"). c #FFEF93",
"_. c #A6ADC0",
"`. c #A9AFC1",
"'. c #ADB2C4",
"]. c #B1B6C7",
"[. c #B5B5C6",
"{. c #B5BBCA",
"}. c #B9BECD",
"|. c #BBC0CF",
" X c #BEC3D1",
".X c #C2C6D4",
"XX c #C6CAD6",
"oX c #CACED9",
"OX c #CED1DC",
/* pixels */
"K.K.K.K.K.K.K.K.K.K.K.K.K.K.K.K.K.K.K.K.K.K.K.K.K.K.K.K.K.K.K.K.K.K.K.K.K.K.K.K.K.K.K.K.K.K.K.K.K.K.K.K.K.K.K.K.K.K.K.K.K.K.K.K.K.K.K.K.K.K.K.K.K.K.K.K.K.K.K.K.",
"K.K.K.K.K.K.K.K.K.K.K.K.K.P.K.K.K.K.K.K.K.K.K.K.K.K.K.K.K.K.K.K.K.K.K.K.K.K.K.K.K.K.K.K.K.K.K.K.K.K.K.K.K.K.K.K.K.K.K.K.K.K.K.K.K.K.K.K.K.K.K.K.K.K.K.K.K.K.K.K.",
"K.K.K.K.K.K.K.K.K.K.K.K.K.K.K.K.K.K.K.K.K.K.K.K.K.K.K.K.K.K.K.K.K.K.K.K.K.K.K.K.K.K.K.K.K.K.K.K.K.K.K.K.K.K.K.K.K.K.K.K.K.K.K.K.K.K.K.K.K.K.K.K.K.K.K.K.K.K.K.K.",
"K.K.K.K.K.K.K.K.K.K.K.K.K.K.K.K.K.K.K.K.K.K.K.K.K.K.K.K.K.K.K.K.K.K.K.K.K.K.K.K.K.K.K.K.K.K.K.K.K.K.K.K.K.K.K.K.K.K.K.K.K.K.K.K.K.K.K.K.K.K.K.K.K.K.K.K.K.K.K.K.",
"K.K.K.K.K.K.K.K.K.K.K.K.K.K.K.K.K.K.K.K.K.K.K.K.K.K.K.K.K.K.K.K.K.K.K.K.K.K.K.K.K.K.K.K.K.K.K.K.K.K.K.K.K.K.K.K.K.K.K.K.K.K.K.K.K.K.K.K.K.K.K.K.K.K.K.K.K.K.K.K.",
"K.K.K.K.K.K.K.K.K.K.K.K.K.K.K.K.K.K.K.K.K.K.K.K.K.K.K.K.K.K.K.K.K.K.K.K.K.K.K.K.K.K.K.K.K.K.K.K.K.K.K.K.K.K.K.K.K.K.K.K.K.K.K.K.K.K.K.K.K.K.K.K.K.K.K.K.K.K.K.K.",
"K.K.K.K.K.K.K.K.K.K.K.K.K.K.K.K.K.K.K.H.K.K.K.K.K.K.K.K.K.K.K.K.K.K.K.K.P.K.K.K.K.K.K.K.K.K.K.K.K.K.K.K.K.K.K.K.K.K.K.K.K.K.K.K.K.K.K.K.K.K.K.K.K.K.K.K.K.K.K.K.",
"K.K.K.K.K.K.K.K.K.K.K.K.K.K.K.K.K.K.K.K.K.J.K.K.K.K.K.K.K.K.K.K.K.K.K.K.K.K.K.K.K.K.K.K.K.K.K.K.K.K.K.K.K.K.K.K.K.K.K.K.K.K.K.K.K.K.K.K.K.K.K.K.K.K.P.K.K.K.K.K.",
"K.K.K.K.K.K.K.K.K.K.K.K.K.K.K.K.K.K.K.K.H.J.K.K.P.H.P.!.W.K.K.H.K.K.K.K.K.K.K.K.K.K.K.K.K.K.K.K.K.K.K.K.K.K.K.K.K.K.K.K.K.K.K.K.K.K.K.K.K.K.K.K.K.K.K.K.K.K.K.K.",
"K.K.K.K.K.K.K.K.K.K.K.K.K.K.K.K.K.K.K.K.P.C.z.K.K.P.W.OX.XW.K.r J.K.K.K.K.K.K.K.K.K.K.K.K.K.K.K.K.H.K.K.K.K.K.K.K.K.K.W.].K.K.K.K.K.K.K.K.K.K.K.K.K.K.K.K.K.K.K.",
"K.K.K.K.K.K.K.K.K.K.K.P.K.K.K.K.K.K.K.K.K.J.z.A.K.P.T.OXOX'.K.l.J.K.K.K.K.K.K.K.K.K.K.K.K.K.K.K.V.r K.K.K.K.K.K.K.K.K.|.OXE.U.|. XT.K.K.K.K.K.K.K.K.K.K.K.K.K.K.",
"K.K.K.K.K.K.K.K.K.K.K.K.K.K.K.K.K.K.K.K.K.K.a M.K.|.XXOXOXXX_.A.b.K.K.K.K.K.K.K.K.K.K.K.K.K.K.K.x.l K.K.K.K.K.K.K.K.P.|.OXXXXXOXOX XU.K.K.K.K.K.K.K.K.K.K.K.K.K.",
"K.K.K.K.K.K.K.K.K.K.K.K.K.K.K.K.K.K.K.K.K.K.m.v c.K.oXoXOXoXW.K.  K.K.K.K.K.K.S.K.K.F.<.K.K.K.J.j n.H.H.K.K.H.K.K.K.{.OXOXOXOXOXOXOXT.K.K.K.K.K.K.K.K.K.K.K.K.K.",
"K.K.K.K.K.K.K.K.K.K.K.K.K.K.K.K.K.K.K.K.K.K.P.i u V.P.E.XX`.P.K.% x.H.K.K.K.K.a K.K.K.K.K.K.K.x.  l.K.K.K.K.H.J.K.K.'.OXOXOXOXOXOXXXY.K.K.K.K.K.K.K.K.K.K.K.K.K.",
"P.K.K.K.K.K.K.K.K.K.K.K.K.K.K.K.K.K.K.K.P.H.K.} n n.K.P.W.'.P.K.  # H.K.K.K.K.| V.K.S.K.K.K.K..   x.K.K.P.K.x.x.K.K.W.XXOXOXOXOXoX_.I.K.K.K.K.K.K.K.K.K.K.K.K.K.",
"K.K.K.K.P.K.K.K.K.K.K.K.K.K.K.K.K.K.K.K.K.P.K.p ' b z.K.I.W.I.K.% X y K.K.K.K.Y a K.S.K.K.K.t X 4 H.K.K.P.V.m.K.K.Y. XOXOXOXOX X_.U.K.K.K.K.K.K.K.K.K.K.K.K.K.K.",
"K.K.K.K.K.K.K.K.K.K.K.K.K.K.K.K.K.K.K.K.K.K.K.C.#._ ( A.K._.W.K.% X 4 J.P.P.B.^ b.K.H.K.K.J.4 X 4 K.K.K.K.y J.K.K.Q.XXOXOXOXOX{.K.K.K.K.K.K.K.K.K.K.K.K.K.K.K.K.",
"K.K.K.K.K.K.K.K.K.K.K.K.K.K.K.K.K.K.K.K.K.K.K.K.[ O.b u K.I.I.H.% X O 9 K.P.#.n / K.H.K.K.~ X X 3 K.K.H.p i K.K.K._.oXoXQ.|.OX{.K.K.K.K.K.K.K.K.K.K.K.K.K.K.K.K.",
"K.K.K.K.K.K.K.K.K.K.K.K.K.K.K.K.K.K.K.K.K.K.K.K.e +.+.b i K.K.K.  X X X r M.O.n U K.H.H.9 + X X 4 x.R.B.b V.K.K.T.oX'.U.K.I.U.I.A.G.K.K.K.K.K.K.K.K.K.K.K.K.K.K.",
"K.K.K.K.K.K.K.K.K.K.K.K.K.K.K.K.K.V.H.K.K.K.K.K.e ..$.` b p V.K.% X X X % h o.n ^ H.J.b.4 X X X 4 B.} b ) G.K.T.{.K.K.K.K.H.H.n.r K.K.K.K.K.K.K.K.K.K.K.K.K.K.K.",
"K.K.K.K.K.K.K.K.K.K.K.K.K.K.K.K.K.x.l.V.K.K.K.K.[ n $.$.M b v M.% X X X @ V ] n b N.y + X X X X @ H ` b c.K.Y.{.K.K.K.K.K.x.r 8 K.K.K.K.K.K.K.K.K.K.K.K.K.K.K.K.",
"K.P.K.K.K.K.K.K.K.K.K.K.K.K.K.K.K.H.q l l.K.K.K.[ b $.$.O.M b h $ + @ = = Z K ; 4 = X X X X X X 7 A b ^ x.K.'.K.K.K.K.V.n.  ~ K.K.K.K.K.K.K.K.K.K.K.K.K.K.K.K.K.",
"K.K.K.K.K.K.K.K.K.K.K.K.K.K.K.K.K.K.K.9   t H.H.[ b $.$.+.O.M N = = = $ ; S K S = @ @ X X X X ; F C h t J.I.K.K.K.J.t l O j J.K.K.K.K.K.K.K.K.K.K.K.K.K.K.K.K.K.",
"K.K.K.K.K.K.K.K.K.K.K.K.K.K.K.K.K.K.K.V.l   0 A.[ m +.$.$.$.O.A = $ $ ; S K K K = = = + = + C K S = 7 w G.K.K.V.0 k % X X x.K.K.K.K.K.K.K.K.K.K.K.K.K.K.K.K.K.K.",
"K.K.K.K.K.K.K.K.K.K.K.K.H.K.K.K.K.K.K.H.l.X O d b b +.$.$.$.X.K F Z S F G K K K 7 $ $ $ $ Z K K F = = % 5 5 5 6 O X X X w K.K.K.K.K.K.K.K.K.K.K.K.K.K.K.K.K.K.K.",
"K.K.K.K.K.K.K.K.K.K.K.K.K.y A.K.K.K.K.K.J.y X $ # = ] $.+.X.K K K K K T R K K K S $ = = C K K K ; = = @ X X X X X X X X x.H.S.F.K.K.K.K.K.K.K.K.K.K.K.K.K.K.K.K.",
"K.K.K.K.K.K.K.P.K.K.K.K.K.K.z.b 1.D.J.J.J.b.= $ = = K K K K K K K K K K T G K K K K K K 5.R K K ; = = @ X X X X X X X r H.K.K.K.K.K.K.K.K.K.K.K.K.K.K.K.K.K.K.K.",
"K.K.K.K.K.K.K.K.K.K.K.K.P.K.K.M.v 2.m b b b B = = & K K K K K K K K K K 4.3.G K K K K G 5.R K S = = = + X X X X X X X l.K.K.J.J.K.K.K.K.K.K.K.K.K.K.K.K.K.K.K.K.",
"K.K.K.K.K.K.K.K.K.K.K.K.K.K.K.K.,.! J ..M m B ; ; S K K K K K K K K K G 9.:.4.Q T T Q 6.:.R K K = = = @ X X X X X X X M.G.c.C.C.K.K.K.K.K.K.K.K.K.K.K.K.K.K.K.K.",
"K.K.K.K.K.K.K.K.K.K.K.K.K.K.K.K.F.e.7.! +...P K K K K T 4.Q L F K K T 9.:.>.:.:.9.9.:.:.:.E K K C = = = > = @ + = = = e i t c.K.K.K.K.K.K.K.K.K.K.K.K.K.K.K.K.K.",
"K.K.K.K.K.K.K.K.K.K.K.K.K.K.K.P.L.D.1.U 2.$.+.I K K K T q.;.6.6.6.6.9.:.:.u.y.:.:.:.:.:.:.0.Q K S V , 3.&., C C C ; $ N m.H.K.K.K.K.K.K.K.K.K.K.K.K.K.K.K.K.K.K.",
"K.K.K.K.K.K.K.K.K.K.K.K.K.K.K.K.K.K.A.m ` O.] K K K K K 3.:.:.:.:.:.:.:.:.i.a.:.:.:.:.:.:.:.;.0.0.0.q.t.6.F F C ; = = $ z.K.K.K.K.K.K.K.K.K.K.K.K.K.K.K.K.K.K.K.",
"K.K.K.K.K.K.K.K.K.K.K.K.K.K.K.K.K.K.K.b b ` ] K K K K K T *.:.:.:.u.u.:.:.a.s.y.:.>.u.:.:.:.:.:.y.s.u.:.=.G ; = = $ $ X # c K.H.K.K.K.K.K.K.H.K.K.K.K.K.K.K.K.K.",
"K.K.K.K.K.K.K.K.H.J.J.H.K.K.K.K.K.K.K.k b h V K K K I K K 4.:.:.:.:.s.s.u.u.^.g.:.u.a.:.:.:.:.a.d.i.:.:.:.T $ $ $ o X X X X X f M.V.G.G.J.G.J.J.K.K.K.K.K.K.K.K.",
"K.K.K.K.K.K.K.K.H.w y J.x.x.x.z.x.z.z.7 = = V K K K K K K 4.:.:.:.:.y.d.f.g./.h.d.d.d.u.y.a.f.j.s.:.:.:.:.:., > $ X X X X X X X X X X O 4 l k l l.K.K.K.K.K.K.K.",
"K.K.K.K.K.K.K.K.K.K.K.J.j f % X X X = = = = Z K K K K K K 4.:.:.:.:.>.d.j.h./.).g.h.d.d.d.h.(.g.i.:.:.:.:.:.:.2 $ $ X X X X X X X X f j l J.H.H.K.K.K.K.K.K.K.K.",
"K.K.K.K.K.K.K.K.K.K.K.K.K.J.n.~ 4 $ $ $ = S K K K K K K G 6.:.:.u.u.u.a.j.).).).(.).k.j.k.(.k.s.:.:.:.y.>.:.3.1 $ $ X X X X X O k q A.K.K.K.K.K.K.K.K.K.K.K.K.K.",
"K.K.K.K.K.K.K.K.K.K.K.K.K.K.J.n.b * $ $ A K K K K K K T 6.;.:.:.u.u.g.f.h./.).).).).).).).k.d.s.i.i.i.y.:.3.F V = $ $ X X X   t x.K.K.K.K.K.K.K.K.K.K.K.K.K.K.K.",
"K.K.K.K.K.K.K.K.K.K.K.K.K.z.[ ( b x J Z K K K K K K K L 3.:.:.:.:.:.u.g.^.(.).).).).).).).(./.^.d.s.i.:.9.L K F S C = $ X O l.K.K.K.K.K.K.K.K.K.K.K.K.K.K.K.K.K.",
"K.K.K.K.K.K.K.K.K.K.K.v.( b b b ` +.+.X.K K K K K K K K W ;.>.:.:.u.s.g.k.).).).).).).).).).).g.s.a.:.:.Q K K K K K F F V h i V.K.K.K.K.K.K.K.K.K.K.K.K.K.K.K.K.",
"K.K.K.K.K.K.H.H.z.( b b b n  .$.$.$.$.+.K K K K K K K K Q :.:.:.a.g.f.k.).).).).).).).).).).).g.s.d.u.:.W K F K F F S V V ` ..` [ x.J.H.K.K.K.K.K.K.K.K.K.K.K.K.",
"K.K.K.K.K.J.c.c.z.z.m.{ ) ) ( n M O.+.O.X.K K K K K K T 9.>.i.u.:.j.d.d.j.).).).).).).).).(.(.^.g.d.d.u.3.K F V $ $ = $ $ b ( ) / ) ) t K.K.K.K.K.K.K.K.K.K.K.K.",
"K.K.K.K.K.K.K.K.K.K.K.K.K.H.V.b.u ^ b b J S K K K K T 4.:.:.:.:.:.:.y.s.j.(.(.(.).).).).(.h.s.i.j.d.a.a.u.R $ $ = = $ $ $ u G.K.K.H.K.K.K.J.G.K.K.K.K.K.K.K.K.K.",
"K.K.K.K.K.K.K.K.K.K.K.K.K.K.K.K.J.M.v x * ; A K K Q 9.:.:.:.:.:.:.:.:.s.k.^.h.j.).(.k.(.).h.s.:.:.:.:.:.u.q.1 - = = $ X X c H.K.K.K.K.K.K.K.K.K.K.K.K.K.K.K.K.K.",
"K.K.K.K.K.K.K.K.K.K.K.K.K.K.K.K.P.H.z.x $ = ; F 3.;.:.:.:.:.:.:.:.:.a.g.h.a.u.s.).h.d.h.^.h.d.:.:.:.:.:.:.:.;.2 = + X X X + l.K.K.K.K.K.K.K.K.K.K.K.K.K.K.K.K.K.",
"K.K.K.K.K.K.K.K.K.K.K.K.K.K.K.K.K.P.J.# $ $ $ Z R R W W R R 6.:.:.:.d.f.y.:.>.a.(.s.y.y.a.k.g.a.:.:.:.:.:.:.< < = + X X X X j J.K.K.K.K.K.K.K.K.K.K.K.K.K.K.K.K.",
"K.K.K.K.K.K.K.K.K.K.K.K.K.K.K.K.K.V.d X = = $ Z K K K K K K L R ;.s.f.>.:.:.:.u.(.i.:.:.:.y.d.s.:.:.:.:.:.R $ = = X X X X X + z K.K.K.K.K.K.K.K.K.K.K.K.K.K.K.K.",
"K.K.K.K.K.K.K.K.K.P.K.K.K.K.H.H.x.3 X X = = = Z K K K K K K , = p.:.>.:.:.:.:.:.h.>.:.:.:.:.:.a.y.:.:.:.6.L Z = = + X X X X X X 8 J.K.K.K.K.K.K.K.K.K.K.K.K.K.K.",
"K.K.K.K.K.K.K.K.K.K.K.K.K.K.G.q # X X # & # & Z K K K S V = = = -.:.=.-.=.;.:.:.s.:.:.:.:.:.:.:.u.:.:.:.R F K = = + X X X X X X X l c.J.K.K.K.K.K.K.K.K.K.K.K.K.",
"K.K.K.K.K.K.K.K.K.K.K.K.P.l.0 6 j k k r h h J I I S Z = @ = @ > %.&.V K F W *.:.a.:.:.>.:.:.:.:.:.>.:.:.R K K S = = % j j k j 3 % X 3 t K.K.K.K.K.K.K.K.K.K.K.K.",
"K.K.K.K.K.K.K.K.K.K.K.x.x.t y x.J.K.K.p b n O.$. .M @ X X X X : o o ; K S ; = 2 i.:.:.0.6.6.:.:.:.:.:.=.D Z Z F C B p J.J.K.J.x.t q q ~ w H.K.K.K.K.K.K.K.K.K.K.",
"K.K.K.K.K.K.K.K.K.K.K.A.V.K.K.K.K.K.K.b n O.@.@.p C.X X X X X X X - ; S = = = = i.;.3.R L L Q Q *.:.:.*.> = = N J ` ) V.K.K.K.K.K.K.K.A.t H.H.K.K.K.K.K.K.K.K.K.",
"K.K.K.K.K.K.K.K.K.K.K.K.H.K.K.K.K.K.i b J O.} Z.J.P.f X X X X X X = Z ; = $ + = %.&.Z F K K K V > 2 :.*.: = $ 7 n J m s H.K.K.K.K.K.K.K.K.K.K.K.K.K.K.K.K.K.K.K.",
"K.K.K.K.K.K.K.K.K.K.K.K.K.K.K.K.K.A.v m #.i L.H.P.K.z X X X X X X = S $ + X X X o > , K K K K $ $ = 1 &.: X O M.b b 2.Y r.w.K.K.K.K.K.K.K.K.K.K.K.K.K.K.K.K.K.K.",
"K.K.K.K.K.K.K.K.K.K.K.K.K.K.K.H.H.[ b #.P.P.K.'.Y.K.l X X X X X X = = $ X X X X X X $ V K K K $ $ $ $ 1 > X # K.K.J.i 2.U J.w.8.L.K.K.K.K.K.K.K.K.K.K.K.K.K.K.K.",
"K.K.K.K.K.K.K.K.K.K.K.K.K.K.K.J.u ( t K.K.I.'.E.H.K.f X X X X + . N g k % + X X X X @ ; S K I = $ $ + X X X O H.K.P.K.M.1.z.K.K.L.H.K.K.K.K.K.K.K.K.K.K.K.K.K.K.",
"K.K.K.K.K.K.K.K.K.K.K.K.K.K.K.M.i V.K.I.E.'.W.K.K.K.X X X X 4 9 J.b M.K.l.4 X X X X X @ A ] X.h d f O X X X + x.K.K.K.K.K.p J.H.K.K.K.K.K.K.K.K.K.K.K.K.P.K.K.K.",
"K.K.K.K.K.K.K.K.K.K.K.K.K.K.x.R.~.I.W.{.|.W.K.K.K.V.X X X j x.K.K.m.K.K.H.n.  X X X X 6 _ +.$.b / x.r 3 X X X j K.K.K.K.K.K.V.K.K.K.K.K.K.K.K.K.K.K.K.K.K.K.K.K.",
"K.K.K.K.K.K.K.K.K.K.K.K.P.W.[..XOX|.XXOX.XK.K.K.K.0 X O z x.K.K.z.K.K.K.K.K.k X X X O w i +.$.b / K.K.l.4 X X 3 K.K.K.K.K.K.K.K.K.K.K.K.K.K.K.K.K.K.K.K.K.K.K.K.",
"K.K.K.K.K.K.K.K.K.K.K.K.P.}.oXoXOXOXOXOXE.H.K.K.H.4 X 8 V.K.K.K.A.K.K.K.K.K.x.# X X f G.c.( $.b ) K.K.H.x.O X 4 K.K.K.K.K.K.K.K.K.K.K.K.K.K.K.K.K.K.K.K.K.K.K.K.",
"K.K.K.K.K.K.K.K.K.K.K.K.K.U.Q.oXOXOXOXOX{.H.H.H.x.  9 V.K.K.K.K.K.K.K.K.K.K.K.  X O 8 K.P.[ +.b / K.K.K.K.V.X + 8 K.K.K.K.K.K.K.K.K.K.K.K.K.K.K.K.K.K.K.K.K.K.K.",
"K.K.K.K.K.K.K.K.K.K.K.K.K.U.XXOXOXOXOXOX|.K.K.H.f . K.K.K.K.K.K.K.K.K.K.K.K.H.f X 4 K.K.K.b._ b i K.K.K.K.K.V.O k K.K.K.K.K.K.K.K.K.K.K.K.K.K.K.K.K.K.K.K.K.K.K.",
"K.K.K.K.K.K.K.K.K.K.K.K.K.Y.OXOXOXOX XP.K.K.H.V.l V.K.K.K.K.K.K.K.K.K.K.K.K.H.t X 5 K.Q.T.P.^ b N.K.K.K.K.K.K.x.c V.K.H.K.K.K.K.K.K.K.K.K.K.K.K.K.K.K.K.K.K.K.K.",
"K.K.K.K.K.K.K.K.K.K.K.K.K.I.{..X X|.I.K.K.K.H.y x.K.K.K.K.K.K.K.K.K.K.K.K.K.K.K.X z K.Q.T.P.m.^ c.K.K.K.K.K.K.K.l.t K.K.K.K.K.K.K.K.P.K.K.K.K.K.K.K.K.K.K.K.K.K.",
"K.K.K.K.K.K.K.K.K.K.K.K.K.K.K.Y.W.K.K.K.K.K.K.K.K.K.K.K.K.K.K.K.K.K.K.K.K.K.K.K.O M.K.U.T.I.K.b m.K.K.K.K.K.K.K.K.K.K.K.K.K.K.K.K.K.K.K.K.K.K.K.K.K.K.K.K.K.K.K.",
"K.K.K.K.K.K.K.K.K.K.K.K.K.P.K.K.K.K.K.K.K.K.K.K.K.K.K.K.K.K.K.K.K.K.K.K.K.K.K.K.O K.K.K.`.U.K.p [ K.K.K.K.K.K.K.K.K.K.K.K.K.K.K.K.K.K.K.K.K.K.K.K.K.K.K.K.K.K.K.",
"K.K.K.K.K.K.K.K.K.K.K.K.K.K.K.K.K.K.K.K.K.K.K.K.K.K.K.K.K.K.K.K.K.K.K.K.K.K.K.K.O K.K.I.].Y.K.V.) K.K.K.K.K.K.K.K.K.K.K.K.K.K.K.K.K.K.K.K.K.K.K.K.K.K.K.K.K.K.K.",
"K.K.K.K.K.K.K.K.K.K.K.K.K.K.K.K.K.K.K.K.K.K.K.K.K.K.K.K.K.K.K.K.K.K.K.K.K.K.K.K.O K.K.Q..X}.I.P.i K.K.K.K.K.K.K.K.K.K.K.K.K.K.K.K.K.K.K.K.K.K.K.K.K.K.K.K.K.K.K.",
"K.K.K.K.K.K.K.K.K.K.K.K.K.K.K.K.K.K.K.K.K.K.K.K.K.K.K.K.K.K.K.K.K.K.K.K.K.K.K.K.m.K.W.].{..X X.X{.K.K.K.K.K.K.K.K.K.K.K.K.K.K.K.K.K.K.K.K.K.K.K.K.P.K.K.K.K.K.K.",
"K.K.K.K.K.K.K.K.K.K.K.K.K.K.K.K.K.K.K.K.K.K.K.K.K.K.K.K.K.K.K.K.K.K.K.K.K.K.K.K.K.U.}..X.X.X.X.X'.K.K.K.K.K.K.K.K.K.K.K.K.K.K.K.K.K.K.K.K.K.K.K.K.K.K.K.K.K.K.K.",
"K.K.K.K.K.K.K.K.K.K.K.K.K.K.K.K.K.K.K.K.K.K.K.K.K.K.K.K.K.K.K.K.K.K.K.K.K.K.K.K.K.K.W..X.X.X.X'.K.K.K.K.K.K.K.K.K.K.K.K.K.K.K.P.K.K.K.K.K.K.K.K.K.K.K.K.K.K.K.K.",
"K.K.K.K.K.K.K.K.K.K.K.K.K.K.K.K.K.K.K.K.K.K.K.K.K.K.K.K.K.K.K.K.K.K.K.K.K.K.K.K.K.K.W..X.X'.}.I.K.K.K.K.K.K.K.K.K.K.K.K.K.K.K.K.K.K.K.K.K.K.K.K.K.K.K.K.K.K.K.K.",
"K.K.K.K.K.K.K.P.K.K.K.K.K.K.K.K.K.K.K.K.K.K.K.K.K.K.K.K.K.K.K.K.K.K.K.K.K.K.K.K.K.K.T..X.XY.T.K.K.K.K.K.K.K.K.K.K.K.K.K.K.K.K.K.K.K.K.K.K.K.K.K.K.K.K.K.K.K.K.K.",
"K.K.K.K.K.K.K.K.K.K.K.K.P.K.K.K.K.K.K.K.K.K.K.K.K.K.K.K.K.K.K.K.K.K.K.K.K.K.K.K.K.K.I.Y.Y.I.K.K.K.K.K.K.K.K.K.K.K.K.K.K.K.K.K.K.K.K.K.K.K.K.K.K.K.K.K.K.K.K.K.K.",
"K.K.K.K.K.K.K.K.K.K.K.K.K.K.K.K.K.K.K.K.K.K.K.K.K.K.K.K.K.K.K.K.K.K.K.K.K.K.K.K.K.K.K.K.K.K.K.K.K.K.K.K.K.K.K.K.K.K.K.P.K.K.K.K.K.K.K.K.K.K.K.K.K.K.K.K.K.K.K.K.",
"K.K.K.K.K.K.K.K.K.K.K.K.K.K.K.K.K.K.K.K.K.K.K.K.K.K.K.K.K.K.K.K.K.K.K.K.K.K.K.K.K.K.K.K.K.K.K.K.K.K.K.K.K.K.K.K.K.K.K.K.K.K.K.K.K.K.K.K.K.K.K.K.K.K.K.K.K.K.K.K.",
"K.K.K.K.K.K.K.K.K.K.K.K.K.K.K.K.K.K.K.K.K.K.K.K.K.K.K.K.K.K.K.K.K.K.K.K.K.K.K.K.K.K.K.K.K.K.K.K.K.K.K.K.K.K.K.K.K.K.K.K.K.K.K.K.K.K.K.K.K.K.K.K.K.K.K.K.K.K.K.K.",
"K.K.K.K.K.K.K.K.K.K.K.K.K.K.K.K.K.K.K.K.K.K.K.K.K.K.K.K.K.K.K.K.K.K.K.K.K.K.K.K.K.K.K.K.K.K.K.K.K.K.K.K.K.K.K.K.K.K.K.K.K.K.K.K.K.K.K.K.K.K.K.K.K.P.K.K.K.K.K.K.",
"K.K.K.K.K.K.K.K.K.K.K.K.K.K.K.K.K.K.K.K.K.K.K.K.K.K.K.K.K.K.K.K.K.K.K.K.K.K.K.K.K.K.K.K.K.K.P.K.K.K.K.K.K.K.K.K.K.K.K.K.K.K.K.K.K.K.K.K.K.K.K.K.K.K.K.K.K.K.K.K.",
"K.K.K.K.K.K.K.K.K.K.K.K.K.K.K.K.K.K.K.K.K.K.K.K.K.K.K.K.K.K.K.K.K.K.K.K.K.K.K.K.K.K.K.K.K.K.K.K.K.K.K.K.K.K.K.K.K.K.K.K.K.K.K.K.K.K.K.K.K.P.K.K.K.K.K.K.K.K.K.K."
};
