/* XPM */
static xpm_row_t const explosion_xpm_4[] = {
/* columns rows colors chars-per-pixel */
"80 80 198 2 ",
"   c #DE373E",
".  c #DD383F",
"X  c #EE2A2D",
"o  c #F03A2E",
"O  c #E72F34",
"+  c #EB2E31",
"@  c #E53137",
"#  c #EE3433",
"$  c #EF3834",
"%  c #E23339",
"&  c #E93739",
"*  c #E43B3E",
"=  c #EC3939",
"-  c #F03635",
";  c #F03837",
":  c #F13638",
">  c #F23C3B",
",  c #EE402F",
"<  c #F14234",
"1  c #F24B35",
"2  c #F4413D",
"3  c #F25335",
"4  c #F35938",
"5  c #F6633A",
"6  c #F66D39",
"7  c #F77839",
"8  c #D73E46",
"9  c #DA3B43",
"0  c #E23D41",
"q  c #BD5664",
"w  c #BC5866",
"e  c #B55E6E",
"r  c #B95B69",
"t  c #AE6576",
"y  c #AC6679",
"u  c #A66B7E",
"i  c #AB6B7D",
"p  c #B36272",
"a  c #BA6674",
"s  c #B56977",
"d  c #B66979",
"f  c #BD6C78",
"g  c #B3787B",
"h  c #CF444F",
"j  c #D3444D",
"k  c #DB474D",
"l  c #CD4751",
"z  c #CB4954",
"x  c #C54F5B",
"c  c #C84C58",
"v  c #D34D54",
"b  c #DA4C52",
"n  c #C2515E",
"m  c #CE525B",
"M  c #D4565E",
"N  c #DD545B",
"B  c #E34245",
"V  c #EB4749",
"C  c #F54443",
"Z  c #F84745",
"A  c #F94A46",
"S  c #F94748",
"D  c #F64B4C",
"F  c #FB4C4B",
"G  c #FA5546",
"H  c #FD524D",
"J  c #FE5B4E",
"K  c #EA4E52",
"L  c #E7575C",
"P  c #F75657",
"I  c #FF5351",
"U  c #FD5B5C",
"Y  c #D5765C",
"T  c #FB6445",
"R  c #FF644C",
"E  c #FF6E4B",
"W  c #FE7E46",
"Q  c #FF734A",
"!  c #FF7A48",
"~  c #E8745C",
"^  c #C25461",
"/  c #C45B66",
"(  c #CB5B64",
")  c #C45E69",
"_  c #C95F6A",
"`  c #D15B64",
"'  c #D55B64",
"]  c #DB5C64",
"[  c #E35C63",
"{  c #EB5E64",
"}  c #FF5F60",
"|  c #C3626D",
" . c #CE616C",
".. c #C76868",
"X. c #D46369",
"o. c #C8766A",
"O. c #D2736F",
"+. c #CA6975",
"@. c #EB6264",
"#. c #E96167",
"$. c #EB6A6C",
"%. c #F66766",
"&. c #FB6164",
"*. c #F5666B",
"=. c #FD696D",
"-. c #FE6C70",
";. c #F98D3B",
":. c #F99838",
">. c #FDA53D",
",. c #FEAB3D",
"<. c #FEB43D",
"1. c #FFBC3B",
"2. c #FFC53B",
"3. c #FFC83E",
"4. c #B4997C",
"5. c #FF8346",
"6. c #FE8C45",
"7. c #FF8248",
"8. c #FF9443",
"9. c #FE9B42",
"0. c #FEA141",
"q. c #FEAD42",
"w. c #CB8568",
"e. c #D08366",
"r. c #FFC445",
"t. c #FECA43",
"y. c #FDC148",
"u. c #FECE4B",
"i. c #FED04F",
"p. c #FFCC50",
"a. c #FED153",
"s. c #FED55B",
"d. c #FFD760",
"f. c #FED963",
"g. c #FEDC6B",
"h. c #FDDF72",
"j. c #FDE074",
"k. c #FEE47D",
"l. c #9F7287",
"z. c #9D758A",
"x. c #977A8F",
"c. c #9B7A8E",
"v. c #957D94",
"b. c #9A7C91",
"n. c #927F98",
"m. c #A46E82",
"M. c #AC6F80",
"N. c #A47185",
"B. c #A97183",
"V. c #A3768A",
"C. c #A37A8C",
"Z. c #B47583",
"A. c #AC7E91",
"S. c #8E849C",
"D. c #8D889E",
"F. c #948297",
"G. c #91829A",
"H. c #978498",
"J. c #8D909F",
"K. c #91929C",
"L. c #A78987",
"P. c #A4978A",
"I. c #8A87A1",
"U. c #858CA6",
"Y. c #898AA3",
"T. c #00b140",
"R. c #888EA8",
"E. c #948BA2",
"W. c #8A90A3",
"Q. c #8790AA",
"!. c #8B93AD",
"~. c #9490A7",
"^. c #9395AC",
"/. c #8F98B0",
"(. c #949CB3",
"). c #999EB4",
"_. c #AF97A7",
"`. c #9AA1B7",
"'. c #9DA4B9",
"]. c #A4A7BA",
"[. c #A2A9BD",
"{. c #FEE784",
"}. c #FEE886",
"|. c #FEEB8C",
" X c #FEEE92",
".X c #A7ADC1",
"XX c #A8AEC1",
"oX c #ACB2C4",
"OX c #B1B7C7",
"+X c #B2B7C9",
"@X c #B5BACA",
"#X c #B9BDCC",
"$X c #BEC2D1",
"%X c #C1C5D3",
"&X c #C6CAD6",
"*X c #C8CCD7",
"=X c #CACED9",
"-X c #CDD0DB",
/* pixels */
"T.T.T.T.T.T.T.T.T.T.T.T.T.T.T.T.T.T.T.T.T.T.T.T.T.T.T.T.T.T.T.T.T.T.T.T.T.T.T.T.T.T.T.T.T.T.T.T.T.T.T.T.T.T.T.T.T.T.T.T.T.T.T.Q.T.T.T.T.T.T.T.T.T.T.T.T.T.T.T.T.",
"T.T.T.T.T.T.T.T.T.T.T.T.T.Q.T.T.T.T.T.T.T.T.T.T.T.T.T.T.T.T.T.T.T.T.T.T.T.T.T.T.T.T.T.T.T.T.T.T.T.T.T.T.T.T.Q.T.T.T.T.T.T.T.T.T.T.T.T.T.T.T.T.T.T.T.T.T.T.T.T.T.",
"T.T.T.T.T.T.T.T.T.T.T.T.T.T.T.T.T.T.T.T.T.T.T.T.T.T.T.T.T.T.T.T.T.T.T.T.T.T.T.T.T.T.T.T.T.T.T.T.T.T.T.T.T.T.T.T.T.T.T.T.T.T.T.T.T.T.T.T.T.T.T.T.T.T.T.T.T.T.T.T.",
"T.T.T.T.T.T.T.T.T.T.T.T.T.T.T.T.T.T.T.T.T.T.T.T.T.T.T.T.T.T.T.T.T.T.T.T.T.T.T.T.T.T.T.T.T.T.T.T.T.T.T.T.T.T.T.T.T.T.T.T.T.T.T.T.T.T.T.T.T.T.T.!.T.T.T.T.T.T.T.T.",
"T.T.T.T.T.T.T.T.T.T.T.T.T.T.T.T.T.T.T.T.T.T.T.T.T.T.T.T.T.T.T.T.T.T.T.T.T.T.T.T.T.T.T.T.T.T.T.T.T.T.T.T.T.T.T.T.T.T.T.T.T.T.T.T.T.T.T.T.T.T.T.T.T.T.T.T.T.T.T.T.",
"T.T.T.T.T.T.T.T.T.T.T.T.T.T.T.T.T.T.T.T.T.T.T.T.T.T.T.T.T.T.T.T.T.T.T.T.T.T.T.T.T.T.T.T.T.T.T.T.T.T.T.T.T.T.T.T.T.T.T.T.T.T.T.T.T.T.T.T.T.T.T.T.T.T.T.T.T.T.T.T.",
"T.T.T.T.T.T.T.T.T.T.T.T.T.T.T.T.T.T.T.T.T.T.T.T.T.T.T.T.T.T.T.T.T.T.T.T.T.T.T.T.T.T.T.T.T.T.T.T.T.T.T.T.T.T.T.T.T.T.T.T.T.T.T.T.T.T.T.T.T.T.T.T.T.T.T.T.T.T.T.T.",
"T.T.T.T.T.T.T.T.T.T.T.T.T.T.T.T.T.T.T.T.T.T.T.T.T.T.T.T.T.T.T.T.T.T.T.T.T.T.T.T.T.T.T.T.T.T.T.T.T.T.T.T.T.T.T.T.T.T.T.T.T.T.T.T.T.T.T.T.T.T.T.T.T.T.T.T.T.T.T.T.",
"T.T.T.T.T.T.T.T.T.T.T.T.T.T.T.T.T.T.T.T.T.T.T.T.T.T.T.T.T.T.T.T.T.T.T.T.T.T.T.T.T.T.T.T.T.T.T.T.T.T.T.T.T.T.T.T.T.T.T.T.T.T.T.T.T.T.T.T.T.T.T.T.T.T.T.T.T.T.T.T.",
"T.T.T.T.T.T.T.T.T.T.T.T.T.T.T.T.T.T.T.T.T.T.T.T.T.T.T.T.T.T.T.T.T.T.T.T.T.T.T.T.T.T.T.T.T.T.T.T.T.T.T.T.T.T.T.T.T.T.T.T.T.T.T.T.T.T.T.T.T.T.T.T.T.T.T.T.T.T.T.T.",
"T.T.T.T.T.T.T.T.T.T.T.Q.T.T.T.T.T.T.T.T.T.T.T.T.T.T.T.Q.T.T.T.T.T.T.T.T.T.T.T.T.T.T.T.T.T.T.T.T.T.T.T.T.T.T.T.T.T.T.T.T.T.T.T.T.T.T.T.T.T.T.T.T.T.T.T.T.T.T.T.T.",
"T.T.T.T.T.T.T.T.T.T.T.T.T.T.T.T.T.T.T.T.T.T.T.T.T.T.T.T.T.T.T.T.T.T.T.T.T.T.T.T.T.T.T.T.T.T.T.T.T.T.T.T.T.T.T.T.T.T.T.T.T.T.T.T.T.T.T.T.T.T.T.T.T.T.T.T.T.T.T.T.",
"T.T.T.T.T.T.T.T.T.T.T.T.T.T.T.T.T.T.T.T.T.T.T.T.T.T.T.T.T.T.T.T.T.T.T.T.T.T.T.T.T.T.T.T.T.T.T.T.T.T.T.T.T.T.T.T.T.T.T.T.T.T.T.T.T.T.T.T.T.T.T.T.T.T.T.T.T.T.T.T.",
"T.T.T.T.T.T.T.T.T.T.T.T.T.T.T.T.T.T.T.T.T.T.T.T.T.T.T.T.T.T.T.T.T.T.T.T.T.T.T.T.T.T.T.T.T.T.T.T.T.T.T.T.T.T.T.T.T.T.T.T.T.T.T.T.T.T.T.T.T.T.T.T.T.T.T.T.T.T.T.T.",
"Q.T.T.T.T.T.T.T.T.T.T.T.T.T.T.T.T.T.T.T.T.T.T.T.U.U.T.T.T.T.T.T.T.T.T.T.T.T.T.T.T.T.T.T.T.T.T.T.T.T.T.T.T.T.T.T.T.T.T.T.T.T.T.T.T.T.T.T.T.T.T.T.T.T.T.T.T.T.T.T.",
"T.T.T.T.Q.T.T.T.T.T.T.T.T.T.T.T.T.T.T.T.T.T.T.T.U.U.U.U.T.Q./.!.T.T.T.T.T.T.T.T.T.T.T.T.T.T.T.T.T.T.T.T.T.T.T.T.T.T.T.T.Q.T.T.T.T.T.T.T.T.T.T.T.T.T.T.T.T.T.T.T.",
"T.T.T.T.T.T.T.T.T.T.T.T.T.T.T.T.T.T.T.T.T.T.T.T.T.I.n.U.T.(.@X.X!.c.U.T.T.T.T.T.T.Q.U.U.T.T.U.Y.T.T.T.T.T.T.!.'./.Q.Q.T.T.T.T.T.T.T.T.T.T.T.T.T.T.T.T.T.T.T.T.T.",
"T.T.T.T.T.T.T.T.T.T.T.T.T.T.T.T.T.T.T.T.T.T.T.T.T.U.b.n.Q..X%X#X).c.S.T.T.T.T.T.T.U.U.T.T.T.n.l.T.T.T.T.T.T.(.#X.X.XOX.XQ.T.T.T.T.T.T.T.T.T.T.T.T.T.T.T.T.T.T.T.",
"T.T.T.T.T.T.T.T.T.T.T.T.T.T.T.T.T.T.T.T.T.T.T.T.T.T.V.M.~.@X=X=XoXE.p T.T.T.T.U.T.W.K.U.T.T.y y T.T.T.T.T.Q..X=X=X*X=X#X(.T.T.T.T.T.T.T.T.T.T.T.T.T.T.T.T.T.T.T.",
"T.T.T.T.T.T.T.T.T.Q.T.T.T.T.T.T.T.T.T.T.T.T.T.T.T.T.n.a V.).OX#X`.I.l I.T.T.T.b.T.W.J.T.T.n.l b.T.T.T.T.T.Q.#X=X-X-X-X%X(.T.T.T.T.T.T.T.T.T.T.T.T.T.T.T.T.T.T.T.",
"T.T.T.T.T.T.T.T.T.T.T.T.T.T.T.T.T.T.T.T.T.T.T.T.T.T.U.f | F./.[.(.Y.9 e Y.U.T.g S.W.W.T.I.e 8 n.T.T.I.n.Y.!.+X=X-X=X=XXX!.T.T.T.T.T.T.T.T.T.T.T.T.T.T.T.T.T.T.T.",
"T.Q.T.T.T.T.T.T.T.T.T.T.T.T.T.T.T.T.T.T.T.T.T.T.T.T.U.Z.] d G.(.(.I.% h c.R.Y.o.l.U.U.T.z.8 8 U.T.U.n.n.Q.).&X=X-X&XXX/.T.T.T.T.T.T.T.T.T.T.T.T.T.T.T.T.T.T.T.T.",
"T.T.T.T.T.T.T.T.T.T.T.T.T.T.T.T.T.T.T.T.T.T.T.T.T.T.R.n.X.X.B.~./.I.% % e I.L.` s U.U.S.^ O 8 U.U.C.z.I.Q..X&X#X$X$X(.U.T.T.T.T.T.T.T.T.T.T.T.T.T.T.T.T.T.T.T.T.",
"T.T.T.T.T.T.T.T.T.T.T.T.T.T.T.T.T.T.T.T.T.T.T.T.T.T.U.E. .*. .V.I.I.@ X 8 p +.M ..U.S.e 9 X 9 G.A.M.b.R.(.OX.X(.).).E.I.T.T.T.T.T.T.T.T.T.T.T.T.T.T.T.T.T.T.T.T.",
"T.T.T.T.T.T.T.T.T.T.T.T.T.T.T.T.T.T.T.T.T.T.U.S.I.U.U.S._ *.{ _ M.v.@ X + 0 L L ( F.p 9 X X % +.+.d E.(.'./.!.U.I.c.c.Y.U.T.T.T.T.T.T.T.T.T.T.T.T.T.T.T.T.T.T.T.",
"T.T.T.T.T.T.T.T.T.T.T.T.T.T.T.T.T.T.T.T.U.T.D.l.l.S.T.S.( *.*.[ ` ) # + + : D K b z . X X X = K ` M.^.).!.T.U.v.t y n.U.T.T.T.T.T.T.T.T.T.T.T.T.T.T.T.T.T.T.T.T.",
"T.T.T.T.T.T.T.Q.T.T.T.T.T.T.T.T.T.T.T.T.Q.Q.U.v.q e S.S._ @.-.*.[ 0 # # - > F F $ + X X X : S V ( b.Q.Q.U.G.y l x v.U.T.T.T.T.T.T.T.T.T.T.T.T.T.T.T.T.T.T.T.T.T.",
"T.T.T.T.T.T.T.T.T.T.T.T.T.T.T.T.T.T.T.T.U.U.U.U.l.l ^ u ( @.=.=.*.D ; ; > F I I - - X # ; F F = h m.v.x.t l @ 9 m.Y.U.T.T.T.T.T.T.T.T.T.T.T.T.T.T.T.T.T.T.T.T.T.",
"T.T.T.T.T.T.T.T.T.T.T.T.T.T.T.T.T.T.U.S.I.U.U.U.D.r @ * k L =.=.&.I F F H J I I Z - ; 2 F H Z # # % 9 % + X + q S.Y.U.T.T.T.T.T.T.T.T.T.T.T.T.T.T.T.T.T.T.T.T.T.",
"T.T.T.T.T.T.T.T.T.T.T.T.T.T.T.T.T.T.T.n.b.N.L.H.n.l.9 # ; F U U I I I I J R J I F Z A T J H > - # X X + X X % N.U.J.U.T.T.T.T.T.T.T.T.T.T.T.T.T.T.T.T.T.T.T.T.T.",
"T.T.T.T.T.T.T.T.T.T.T.T.T.T.T.Q.T.T.T.T.S.g o.o.| | k $ > F I I I I I I J W ! R I J E 5.R I > - X X X X X X j F.D.I.U.U.T.T.T.T.T.T.T.T.T.T.T.T.T.T.T.T.T.T.T.T.",
"T.T.T.T.T.T.T.T.T.T.T.T.T.T.T.T.T.T.T.U.U.H.w.~ @.L K C A H J R J I I J ! q.q.9.W 5.>.0.E H > $ - - X X X + j N.c.G.Y.T.T.T.T.T.T.T.T.T.T.T.T.T.T.T.T.T.T.T.T.T.",
"T.T.T.T.T.T.T.T.T.T.T.T.T.T.T.T.T.T.T.T.U.U.P.e.~ %.} I I I Q 9.6.7.7.6.>.2.r.2.1.1.2.<.6.J F 2 4 5 2 = > ; * a F.I.T.U.T.T.T.T.T.T.T.T.T.T.T.T.T.T.T.T.T.T.T.T.",
"T.T.T.T.T.T.T.T.T.T.T.T.T.T.T.T.T.U.T.T.T.T.U.c.X.#.*.P I I R 9.1.2.2.2.2.t.u.t.2.3.2.2.1.>.0.0.q.9.R A > - # r G.U.T.U.T.T.T.U.T.T.T.T.T.T.T.T.T.T.T.T.T.T.T.T.",
"T.T.T.T.T.T.T.T.T.T.T.T.T.T.T.U.U.U.U.U.U.U.U.v./ N P I I I I Q <.2.3.t.t.t.s.i.3.t.t.3.3.3.t.a.t.,.T = - # X O c N.F.I.I.I.U.I.T.T.T.T.T.T.T.T.T.T.T.T.T.T.T.T.",
"T.T.T.T.T.T.T.T.T.T.T.T.T.T.U.U.n.n.S.G.v.v.b.N.v B C I I I I E q.3.3.t.a.s.g.g.u.a.u.t.u.s.a.t.2.1.7 1 - X X X X @ l r p t l.l.n.T.T.T.T.T.T.T.T.T.T.T.T.T.T.T.",
"T.T.T.T.T.T.T.T.T.T.T.T.T.T.T.U.S.n.v.u r x l k = ; C I I I I Q <.2.3.t.s.g.k.}.g.g.s.s.g.g.i.2.3.2.,.7 , X X X X X O   l q u z.n.T.T.T.T.T.T.T.T.T.T.T.T.T.T.T.",
"T.T.T.T.T.T.T.T.T.T.T.T.T.T.T.T.U.U.S.v.m.n * - # C H I I H J 6.<.2.t.u.s.j.|. X|.{.k.{.k.g.t.3.3.2.>.Q < # X X X   x t x.n.U.U.T.T.T.T.T.T.T.T.T.T.T.T.T.T.T.T.",
"T.T.T.T.T.T.T.T.T.T.T.T.T.T.T.T.T.T.T.S.M./ b B C F I I I I E 9.2.2.t.u.d.k.|. X X X X|.k.j.s.i.t.,.Q G C > - X   e v.I.U.T.U.T.T.T.T.T.T.T.T.T.T.T.T.T.T.T.T.T.",
"T.T.T.T.T.T.T.T.T.T.T.T.T.T.T.T.T.I.B.r ( ' { } U I I I I I J 6.1.2.3.u.f.k. X X X X X X|.j.s.i.r.6.J I H D Z 2 b m.I.T.T.T.T.T.T.T.T.T.T.T.T.T.T.T.T.T.T.T.T.T.",
"T.T.T.T.T.T.T.T.T.T.T.T.T.U.Y.n.d ( M M { *.=.=.} I I I I I R 9.2.2.a.f.j.|. X X X X X X Xj.s.s.y.6.J H F A 2 C L [ _ V.G.U.U.U.T.T.T.T.T.T.T.T.T.T.T.T.T.T.T.T.",
"T.T.T.T.T.T.T.T.T.T.T.T.U.U.G.G.v.V.M.i d | ] { { P I I I J ! <.r.t.t.s.s.k.|. X X X X|.k.j.g.s.p.9.R C - - - & m s M.M.M.G.U.U.T.T.T.T.T.T.T.T.T.T.T.T.T.T.T.T.",
"T.T.T.T.T.T.T.T.T.T.T.T.T.T.T.T.T.T.T.T.Y.b.M.) b C F H R 5.,.2.2.2.3.t.s.h.j.k. X{.{.{.g.t.a.u.u.q.;.1 ; - X # q n.U.U.U.T.U.U.T.T.T.T.T.T.T.T.T.T.T.T.T.T.T.T.",
"T.T.T.T.T.T.T.T.T.T.T.T.T.T.T.T.T.T.T.T.T.T.I.B.k = ; G ! 9.q.>.<.2.3.t.s.s.a.s.|.g.f.g.g.u.2.2.3.3.,.7 < + X X 8 l.U.T.T.T.T.U.T.T.T.T.T.T.T.T.T.T.T.T.T.T.T.T.",
"T.T.T.T.T.T.T.T.T.T.T.T.T.T.T.T.T.T.T.T.T.T.I.y 0 # - A R E E E W 9.2.u.a.t.3.u.{.a.t.i.s.a.2.2.3.2.;.3 - X X X O n n.T.T.T.T.T.T.T.T.T.T.T.T.T.T.T.T.T.T.T.T.T.",
"T.T.T.T.T.T.T.T.T.T.T.T.T.T.T.T.T.T.T.T.U.I.y 8 + - - Z I I I I F 4 y.t.t.2.2.2.j.3.2.2.t.a.t.2.3.>.T 2 - + X X X % w n.U.T.T.T.T.T.T.T.T.T.T.T.T.T.Q.T.T.T.T.T.",
"T.T.T.T.T.T.T.T.T.T.T.T.T.T.T.T.T.T.U.U.n.w @ O @ = = A I H F > - < <.1.,.<.1.2.a.2.2.2.2.2.t.2.1.6.J C # + X X X X @ n v.U.T.T.T.T.T.T.T.T.T.T.T.T.T.T.T.T.T.T.",
"T.T.T.T.T.T.T.T.T.T.T.T.T.T.T.T.T.U.I.v.e x w r / b L } P C - X X 1 7 4 D G 6 >.a.2.2.1.2.2.2.2.1.W H F 0   8 w q n 8 9 c z.Y.T.T.T.T.T.Q.T.T.T.T.T.T.T.T.T.T.T.",
"T.T.T.T.T.T.T.T.T.T.T.T.T.T.T.T.T.Y.G.v.c.I.U.n.| ] $.$.+.k X X X o + = Z > # 3 r.<.8.5.6.>.,.1.,.6 < C D b B.U.T.I.b.l.N.u G.U.T.T.T.T.T.T.T.T.T.T.T.T.T.T.T.T.",
"T.T.T.T.T.T.T.T.T.T.T.T.T.T.T.T.T.U.Y.U.U.U.U.B.` [ O.Z.v.r + X X X X > > # # # ;.7 J I J G 4 :.:.4 & 2 N M ..L.K.Q.T.U.U.S.D.U.T.T.T.T.T.T.T.T.T.T.T.T.T.T.T.T.",
"T.T.T.T.T.T.T.T.T.T.T.T.T.T.T.T.T.T.U.T.U.U.v.|  .Z.E.^.Y.e O X X X X ; : + X X , 1 Z I I 2 ; 1 6 3 O n y p Y w.4.P.K.T.T.U.T.U.T.T.T.T.T.T.T.T.T.T.T.T.T.T.T.T.",
"T.T.T.T.T.T.T.T.T.Q.T.T.T.T.T.T.T.T.T.T.T.I.d a C.E.).'.U.e O X X X @ * 0 # X X X X > F I 0 # : o o + p n.n.4.w.L.P.K.W.T.T.T.T.T.T.T.T.T.T.T.T.T.T.T.T.T.T.T.T.",
"T.T.T.T.T.T.T.T.T.T.T.T.T.T.T.T.T.T.T.T.I.V.V.G.^.'.'.!.I.q X X @ x i ) B.w @ X X X # D U K 0 9 + X X w D.U.U.S.x.D.T.U.U.T.T.T.T.T.T.T.T.T.T.T.T.T.T.T.T.T.T.T.",
"T.T.T.T.T.T.T.T.T.T.T.T.T.T.T.T.T.T.T.R.~._.].'.@XXXQ.T.S.m X 8 t S.S.b.U.n.q O X X 9 L *.L ( N.n @ X . v.U.T.U.U.U.U.T.T.T.T.T.T.T.T.T.T.T.T.T.T.T.T.T.T.T.T.T.",
"T.T.T.T.T.T.T.T.T.T.T.T.T.T.T.T.T.T.T.).#X&X*X*X%X`.T.T.z.8 h u I.U.F.T.T.T.N.9 X @ ^ f $.[ ) T.S.r @   x.U.U.T.U.U.T.T.T.T.T.T.T.T.T.T.T.T.T.T.T.T.T.T.T.T.T.T.",
"T.T.T.T.T.T.T.T.Q.T.T.T.T.T.T.T.T.T.T.).@X=X-X-X%X).T.I.t l m.I.T.U.U.T.T.T.I.l X 8 N.b.+.] ) T.U.S.w   e D.T.T.U.Q.T.T.T.T.T.T.T.T.T.T.T.T.T.T.T.T.T.T.T.T.T.T.",
"T.T.T.T.T.T.T.T.T.T.T.T.T.T.T.T.T.T.T.!.@X=X-X=X#X).U.n.q u Y.T.T.U.T.T.T.T.T.q X n I.E.f ' a T.T.T.S.w x S.T.T.Q.T.T.T.T.T.T.T.T.T.T.T.T.T.T.T.T.T.T.T.T.T.T.T.",
"T.T.T.T.T.T.T.T.T.T.T.T.T.T.T.T.T.T.T./.#X&X$XOX/.T.U.z.u I.U.T.T.T.T.T.T.T.T.b.O e !.(.V.( V.T.T.U.U.S.y x.T.T.T.T.T.T.Q.T.T.T.T.T.T.T.T.T.T.T.T.T.T.T.T.T.T.T.",
"T.T.T.T.T.T.T.T.T.T.T.T.T.T.T.T.T.T.T.Q.).[.'.!.T.T.U.S.S.U.T.T.T.T.T.T.T.T.T.U.@ z.!.(.Y.a B.T.T.T.T.T.D.S.T.T.T.T.T.T.T.T.T.T.T.T.T.T.T.T.T.T.T.T.T.T.T.T.T.T.",
"T.T.T.T.T.T.T.T.T.T.T.T.T.T.T.T.T.T.T.T.T.Q.Q.Q.T.T.T.U.U.T.T.T.T.T.T.T.T.T.T.T.9 Y.!.`.^.V.d T.T.T.T.T.U.U.T.T.T.T.T.T.T.T.T.T.T.T.T.T.T.T.T.T.T.T.T.T.T.T.T.T.",
"T.T.T.T.T.T.T.T.T.Q.T.T.T.T.T.T.T.T.T.T.T.T.T.T.T.T.T.T.T.T.T.T.T.T.T.T.T.T.T.U.9 T./.[.(.D.s Q.T.T.T.T.T.T.T.T.T.T.T.T.T.T.T.T.T.T.T.T.T.T.T.T.T.T.T.T.T.T.T.T.",
"T.T.T.T.T.T.T.T.T.T.T.T.T.T.T.T.T.T.T.T.T.T.T.T.T.T.T.T.T.T.T.T.T.T.T.T.T.T.T.T.r Q.].@X+X[._.Q.T.T.T.T.T.T.T.T.T.T.T.T.T.T.T.T.T.T.T.T.T.T.T.T.T.T.T.T.T.T.T.T.",
"T.T.T.T.T.T.T.T.T.T.T.T.T.T.T.T.T.T.T.T.T.T.T.T.T.T.T.T.T.T.T.T.T.T.T.T.T.T.T.T.S.).@X$X%X%X[.Q.T.T.T.T.T.T.T.T.T.T.T.T.T.T.T.T.T.T.T.T.T.T.T.T.T.T.T.T.T.T.T.T.",
"T.T.T.T.T.T.T.T.T.T.T.T.T.T.T.T.T.T.T.T.T.T.T.T.T.T.T.T.T.T.T.T.T.T.T.T.T.T.T.T.U.(.OX$X%XoX!.T.T.T.T.T.T.T.T.T.T.T.T.T.T.T.T.T.T.T.T.T.T.!.T.T.T.T.T.T.T.T.T.T.",
"T.T.T.T.T.T.T.T.T.T.T.T.T.T.T.T.T.T.T.Q.T.T.T.T.T.T.T.T.T.T.T.T.T.T.T.T.T.T.T.T.T./.+X@X.X/.T.T.T.T.T.T.T.T.T.T.T.T.T.T.T.T.T.T.T.T.T.T.T.T.T.T.T.T.T.T.T.T.T.T.",
"T.T.T.T.T.T.T.T.T.T.Q.T.T.T.T.T.T.T.T.T.T.T.T.T.T.T.T.T.T.T.T.T.T.T.T.T.T.T.T.T.T.Q.`.'./.T.T.T.T.T.T.T.T.T.T.T.T.T.T.T.T.T.T.T.T.T.T.T.T.T.T.T.T.T.T.T.T.T.T.T.",
"T.T.T.T.T.T.T.T.T.T.T.T.T.T.T.T.T.T.T.T.T.T.T.T.T.T.T.T.T.T.T.T.T.T.T.T.T.T.T.T.T.T.T.T.T.T.T.T.T.T.T.T.T.T.T.T.T.T.T.T.T.T.T.T.T.T.T.T.T.T.T.T.T.T.T.T.T.T.T.T.",
"T.T.T.T.T.T.T.T.T.T.T.T.T.T.T.T.T.T.T.T.T.Q.T.T.T.T.T.T.T.T.T.T.T.T.T.T.T.T.T.T.T.T.T.T.T.T.T.T.T.T.T.T.T.T.T.T.T.T.T.T.T.T.T.T.T.T.T.T.T.T.T.T.T.T.T.T.T.T.T.T.",
"T.T.T.T.T.T.T.T.T.T.T.T.T.T.T.T.T.T.T.T.T.T.T.T.T.T.T.T.T.Q.T.T.T.T.T.T.T.T.T.T.T.T.T.T.T.T.T.T.T.T.T.T.T.T.T.T.T.T.T.T.T.T.T.T.T.T.T.T.T.T.T.T.T.T.T.T.T.T.T.T.",
"T.T.T.T.T.T.T.T.T.T.T.T.T.T.T.T.T.T.T.Q.T.T.T.T.T.T.T.T.T.T.T.T.T.T.T.T.T.T.T.T.T.T.T.T.T.T.T.T.T.T.T.T.T.T.T.T.T.T.T.T.T.T.T.T.T.T.!.T.T.T.T.T.T.T.T.T.T.T.T.T.",
"T.T.T.T.T.T.T.T.Q.T.T.T.T.T.T.T.T.T.T.T.T.T.T.T.T.T.T.T.T.T.T.T.T.Q.T.T.T.T.T.T.T.T.T.T.T.T.T.T.T.T.T.T.T.T.T.T.T.T.T.T.T.!.T.T.T.T.T.T.T.T.T.T.T.T.T.T.T.T.T.T.",
"T.T.T.T.T.T.T.T.T.T.T.T.T.T.T.T.T.T.T.T.T.T.T.T.T.T.T.T.T.T.T.T.T.T.T.T.T.T.T.T.T.T.T.T.T.T.T.T.T.T.T.T.T.T.T.T.T.T.T.T.T.T.T.T.T.T.T.T.T.T.T.T.T.T.T.T.T.T.T.T.",
"T.T.T.T.T.T.T.T.T.T.T.T.T.T.T.T.Q.T.T.T.T.T.T.T.T.T.T.T.T.T.T.T.T.T.T.T.T.T.T.T.T.T.T.T.T.T.T.T.T.T.T.T.T.T.T.T.T.T.T.T.T.T.T.T.T.T.T.T.T.T.T.T.T.T.T.T.T.T.T.T.",
"T.T.T.T.T.T.T.T.T.T.T.T.T.T.T.Q.T.T.T.T.T.T.T.T.T.T.T.T.T.T.T.T.T.T.T.T.T.T.T.T.T.T.T.T.T.T.T.T.T.T.T.T.T.T.T.T.T.T.T.T.T.T.T.T.T.T.T.T.T.T.T.T.T.T.T.T.T.T.T.T.",
"T.T.T.T.T.T.T.T.T.T.T.T.T.T.T.T.T.T.T.T.T.T.T.T.T.T.T.T.T.T.T.T.T.T.T.T.T.T.T.T.T.T.T.T.T.T.T.T.T.T.T.T.T.T.T.T.T.T.T.T.T.T.T.T.T.T.T.T.T.T.T.T.T.T.T.T.T.T.T.T.",
"T.T.T.T.T.T.T.T.T.T.T.T.T.T.T.T.T.T.T.T.T.T.T.T.T.T.T.T.T.T.T.T.T.T.T.T.T.T.T.T.T.T.T.T.T.T.T.T.T.T.T.T.T.T.T.T.T.T.T.T.T.T.T.T.T.T.T.T.T.T.T.T.T.T.T.T.T.T.T.T.",
"T.T.T.T.T.T.T.T.T.T.T.T.T.T.T.T.T.T.T.T.T.T.T.T.T.T.T.T.T.T.T.T.T.T.T.T.T.T.T.T.T.T.T.T.T.T.T.T.T.T.T.T.T.T.T.T.T.T.T.T.T.T.T.T.T.T.T.T.T.T.T.T.T.T.T.T.T.T.T.T.",
"T.T.T.T.T.T.T.T.T.T.T.T.T.T.T.T.T.T.T.T.T.T.T.T.T.T.T.T.T.T.T.T.T.T.T.T.T.T.T.T.T.T.T.T.T.T.T.T.T.T.T.T.T.T.T.T.T.T.T.T.T.T.T.T.T.T.T.T.T.T.T.T.T.T.T.T.T.T.T.T.",
"T.T.T.T.T.T.T.T.T.T.T.T.T.T.T.T.T.T.T.T.T.T.T.T.T.T.T.T.T.T.T.T.T.T.T.T.T.T.T.T.T.T.T.T.T.T.T.T.T.T.T.T.T.T.T.T.T.T.T.T.T.T.T.T.T.T.T.T.T.T.T.T.T.T.T.T.T.T.T.T.",
"T.T.T.T.T.T.T.T.T.T.T.T.T.T.T.T.T.T.T.T.T.T.T.T.T.T.T.T.T.T.T.T.T.T.T.T.T.T.T.T.T.T.T.T.T.T.T.T.T.T.T.T.T.T.T.T.T.T.T.T.T.T.T.T.T.T.T.T.T.T.T.T.T.T.T.T.T.T.T.T."
};
