/* XPM */
static xpm_row_t const explosion_xpm_1[] = {
/* columns rows colors chars-per-pixel */
"80 80 166 2 ",
"   c #EF292D",
".  c #F02A2D",
"X  c #E62F35",
"o  c #EE2D31",
"O  c #F02E30",
"+  c #E73036",
"@  c #EE3434",
"#  c #EF3B37",
"$  c #E4353B",
"%  c #ED3639",
"&  c #EB3A3B",
"*  c #F03635",
"=  c #F23936",
"-  c #F33638",
";  c #F33C3B",
":  c #F93C3D",
">  c #F6423A",
",  c #F5413F",
"<  c #F76635",
"1  c #F86837",
"2  c #F57637",
"3  c #F97038",
"4  c #F67E38",
"5  c #D73E44",
"6  c #DC3D44",
"7  c #E33D42",
"8  c #E83C40",
"9  c #BE5866",
"0  c #BA5D6C",
"q  c #AE6877",
"w  c #AB697C",
"e  c #B46475",
"r  c #BC6675",
"t  c #B46977",
"y  c #BA6877",
"u  c #B36C7C",
"i  c #B96A7A",
"p  c #D5424C",
"a  c #DA424A",
"s  c #DC4B4F",
"d  c #CD4A55",
"f  c #C64F5B",
"g  c #CA4E59",
"h  c #D34751",
"j  c #DA4F55",
"k  c #C7515D",
"l  c #DA5C57",
"z  c #D6535A",
"x  c #DB565C",
"c  c #E44346",
"v  c #E14448",
"b  c #F74342",
"n  c #F94544",
"m  c #FB4847",
"M  c #FD4D4D",
"N  c #FD514F",
"B  c #FF5B4E",
"V  c #E1585E",
"C  c #E9595E",
"Z  c #FF5452",
"A  c #FF5A51",
"S  c #FF5A5B",
"D  c #DE6754",
"F  c #FF614E",
"G  c #FF6C4D",
"H  c #FF734A",
"J  c #FF7F48",
"K  c #EA7854",
"L  c #C25562",
"P  c #C35966",
"I  c #CB5A64",
"U  c #C65F6A",
"Y  c #CB5D6A",
"T  c #D05761",
"R  c #E45B62",
"E  c #EB5F65",
"W  c #FF5F62",
"Q  c #C86566",
"!  c #C2626D",
"~  c #C06573",
"^  c #EA6066",
"/  c #ED656B",
"(  c #FF6465",
")  c #F5666B",
"_  c #FF6669",
"`  c #FC6A6E",
"'  c #FF6D71",
"]  c #FF7170",
"[  c #FA8735",
"{  c #FA8F37",
"}  c #F78638",
"|  c #F88739",
" . c #FB9739",
".. c #FCA63A",
"X. c #FFAC3F",
"o. c #FFB33E",
"O. c #FFBC3C",
"+. c #FFC73B",
"@. c #FFC83D",
"#. c #BE9375",
"$. c #EB8C4A",
"%. c #FF8447",
"&. c #FF8B46",
"*. c #ED9249",
"=. c #FF9544",
"-. c #FF945A",
";. c #FFA541",
":. c #FAA548",
">. c #FAB240",
",. c #E6BA51",
"<. c #CAA86C",
"1. c #D3B065",
"2. c #C4AA71",
"3. c #FFCB44",
"4. c #FFCE4A",
"5. c #FFD04E",
"6. c #FFD354",
"7. c #FFD75C",
"8. c #FFD85E",
"9. c #FFDB64",
"0. c #FFDD6A",
"q. c #FFE173",
"w. c #FFE57A",
"e. c #9D7A8F",
"r. c #957E97",
"t. c #9A7C93",
"y. c #A56E81",
"u. c #AD6B80",
"i. c #A27386",
"p. c #AC7283",
"a. c #A2758A",
"s. c #A87688",
"d. c #A1798D",
"f. c #8D869F",
"g. c #93839B",
"h. c #969398",
"j. c #8B86A0",
"k. c #858DA7",
"l. c #898AA4",
"z. c #00b140",
"x. c #898DAA",
"c. c #8D92A2",
"v. c #8591AA",
"b. c #8C94AD",
"n. c #939BB2",
"m. c #BD98B0",
"M. c #9AA1B7",
"N. c #9DA4BA",
"B. c #A0A7BC",
"V. c #A3AABD",
"C. c #C69CB2",
"Z. c #FFE681",
"A. c #FFE885",
"S. c #FEEB8C",
"D. c #FFEF94",
"F. c #A2AAC0",
"G. c #A8AEC1",
"H. c #ADB3C5",
"J. c #B5BACA",
"K. c #BABFCE",
"L. c #BEC4D1",
"P. c #C2C6D4",
"I. c #C4C8D4",
"U. c #C8CCD7",
"Y. c #CACED9",
"T. c #CED1DC",
/* pixels */
"z.z.z.z.z.z.z.z.z.z.z.z.z.z.z.z.z.z.z.z.z.z.z.z.z.z.z.z.z.z.z.z.z.z.z.z.z.z.z.z.z.z.z.z.z.z.z.z.z.z.z.z.z.z.z.z.z.z.z.z.z.z.z.z.z.z.z.z.z.z.z.z.z.z.z.z.z.z.z.z.",
"z.z.z.z.z.z.z.z.z.z.z.z.z.v.z.z.z.z.z.z.z.z.z.z.z.z.z.z.z.z.z.z.z.z.z.z.z.z.z.z.z.z.z.v.z.z.z.z.z.z.z.z.z.z.z.z.z.z.z.z.z.z.z.z.z.z.z.z.z.z.z.z.z.z.z.z.z.z.z.z.",
"z.z.z.z.z.z.z.z.z.z.z.z.z.z.z.z.z.k.k.z.z.z.z.z.z.z.z.z.z.z.z.z.z.z.z.z.z.z.z.z.z.z.z.z.z.z.z.z.z.z.z.z.z.z.z.z.z.z.z.z.z.z.z.z.z.z.z.z.z.z.z.z.z.z.z.z.z.z.z.z.",
"z.z.z.z.z.z.z.z.z.z.z.z.z.z.z.z.z.z.g.x.z.z.z.z.z.z.z.z.z.z.z.z.z.z.z.z.z.z.z.z.z.z.z.z.z.z.z.z.z.z.z.z.z.z.z.z.z.z.z.z.z.z.z.z.z.z.z.z.z.z.z.z.z.z.z.z.z.z.z.z.",
"z.z.z.z.z.z.z.z.z.z.z.z.z.z.z.z.z.z.z.k.z.z.z.z.z.Y.Y.z.z.z.z.z.z.z.z.z.z.z.z.z.z.z.z.z.z.z.z.z.z.z.z.z.z.z.z.z.z.z.z.z.z.z.z.z.z.z.z.z.z.z.z.z.z.z.z.z.z.z.z.z.",
"z.z.z.z.z.z.z.z.z.z.z.z.z.z.z.z.z.z.z.z z.z.z.z.G.T.T.T.z.z.6 z.z.z.z.z.z.z.z.z.z.z.z.z.z.z.z.z.z.z.z.z.z.z.z.z.z.z.z.z.z.z.L.T.z.z.z.z.z.z.z.z.z.z.z.z.z.z.z.z.",
"z.z.z.z.z.z.z.z.z.z.z.z.z.z.z.z.z.z.z.z.i z.z.b.b.T.T.T.z.x.t.z.z.z.z.z.z.z.z.z.z.z.z.z.z.z.z.z.z.z.p z.z.z.z.z.z.z.z.z.z.z.T.T.B.b.T.T.T.z.x.v.z.z.z.z.z.z.z.z.",
"z.z.z.z.z.z.z.z.z.z.z.z.z.z.z.z.z.z.z.z.z z.z.Y.T.T.T.T.T.n.g.t z.z.z.z.z.z.z.z.z.z.z.c.z.z.z.z.z.z.  z.z.z.z.z.z.z.z.z.z.b.T.T.T.T.T.T.T.L.z.z.z.z.z.z.z.z.z.z.",
"z.z.z.z.z.z.z.z.z.z.z.z.z.z.z.z.z.z.z.z.z z z.z.T.Y.T.T.T.z.k.  z.z.z.z.z.z.z.v.v.z.z.,.z.z.z.z.z.p q z.z.z.z.z.z.z.z.z.x.T.T.T.T.T.T.T.T.T.z.z.z.z.z.z.z.z.z.z.",
"z.z.z.z.z.z.z.z.z.z.z.z.z.z.z.z.z.z.z.z.k.z p.z.b.n.T.T.z.z.z.  z.z.z.z.z.z.z.u v.z.z.c.z.z.z.z.z.  y.x.z.z.z.z.z.z.z.z.z.T.T.T.T.T.T.T.T.Y.z.z.z.z.z.z.z.z.z.z.",
"z.z.z.z.z.z.z.z.z.z.z.z.z.z.z.v.z.z.z.z.z.E z l.z.z.n.Y.M.z.z.    z.z.z.z.z.k.Q l.v.z.z.z.z.z.z.h   i.x.z.z.z.z.z.u v.z.v.N.T.T.T.T.T.T.T.n.z.z.z.z.z.z.z.z.z.z.",
"z.z.z.z.z.z.z.z.z.z.z.z.z.z.z.z.z.z.z.z.z.x z z z.z.z.H.z.z.z.    l.z.z.z.z.z.$.p.v.h.z.z.z.z.v.    f.z.z.z.z.z.U z.z.z.x.Y.T.T.T.T.T.T.P.z.z.z.z.z.z.z.z.z.z.z.",
"z.z.z.z.z.z.z.z.z.z.z.z.z.z.z.z.z.z.z.z.z.I ' z ~ z.z.z.J.z.z.      z.z.z.z.x.l u v.k.z.z.z.z.$     z.z.z.z.z.t.f.z.z.z.I.Y.T.T.T.T.T.z.z.z.z.z.z.z.z.z.z.z.z.z.",
"z.z.z.z.z.z.z.z.z.z.z.z.z.z.z.z.z.z.z.z.z.z.) V z d.z.z.T.z.z.      g.z.z.z./ z u v.k.z.z.z.z.      z.z.z.z.k.z k.z.z.z.L.Y.T.T.T.T.T.z.z.z.z.z.z.z.z.z.z.z.z.z.",
"z.z.z.z.z.z.z.z.z.z.z.z.z.z.z.z.z.z.z.z.z.z.z ' z z l.z.z.z.k.        z.z.k.' z z z.z.z.z.z.        z.z.z.z.z u.k.z.z.z.T.T.T.z.J.T.Y.z.z.z.z.z.z.z.z.z.z.z.z.z.",
"z.z.z.z.z.z.z.z.z.z.z.z.z.x.z.z.z.z.z.z.z.z.z ' ' z z z.z.z.k.          z.r ' z D z.z.z.k.          t.z.C.z z x.z.z.z.T.T.n.z.z.z.z.z.z.t.z.z.z.z.z.z.z.z.z.z.z.",
"z.z.x.v.z.z.z.z.z.z.z.z.z.z.f.l.k.k.z.z.z.z.z ) ' ^ z z j.z.z..       . 6 z ' z z z.z.z.P           y.m.z z ! z.z.z.T.z.z.z.z.z.z.z.z.6 x.k.z.z.z.z.z.z.z.z.z.z.",
"z.z.z.z.z.z.z.z.z.z.z.z.z.z.e.g.k.k.z.z.z.z.z T ' ' x z z I k.    .   . * m ' z z g.z.o             7 ` z z z.z.z.T.z.z.z.z.z.z.z.r.X x.z.k.z.z.z.z.z.z.z.z.z.z.",
"z.z.z.z.z.z.z.z.z.z.z.z.z.z.z.6 P k.z.z.z.x.z z ' ' ' z z z z *     * * @ Z Z & j @                 Z z z z z.z.Y.z.z.z.z.z.z.z.5   z.z.z.z.z.z.z.z.z.z.z.z.z.x.",
"z.z.z.z.z.z.z.z.z.z.z.z.z.z.z.z.  X z.z.z.x.z z ' ' ' ' z z 7 * = * * * * Z Z n * @               Z M j z u z.b.z.z.z.z.z.z.w     l.z.z.z.z.z.z.z.z.z.z.z.z.z.z.",
"z.z.z.z.z.z.z.z.z.z.z.z.z.z.z.z.z.    z.z.z.z z ' ' ' ' ' z * * @ = @ @ Z Z Z Z * * *   .       Z Z ; @ z z.z.z.z.z.z.z.t.      0 z.z.z.z.z.z.z.z.z.z.z.z.z.z.z.",
"z.z.z.z.z.z.z.z.z.z.z.z.z.z.z.z.z.i.    0 l.z z ' ' ' ' ' ' M % @ * @ Z Z Z Z Z * * * @ @ * @ Z Z Z * * @ t z.z.z.z.g     .   . z.z.z.z.z.z.z.z.z.z.z.z.z.z.z.z.",
"z.z.z.z.z.z.z.x.k.z.z.z.z.z.z.z.z.k.      @ j z ) ] ' ' ' Z Z Z Z Z Z B Z Z Z Z n * * * * * Z Z Z Z * * *                     t.z.z.z.z.z.z.z.z.z.z.z.z.z.z.z.z.",
"z.z.z.z.z.v.z.z.z.! e.z.z.z.z.k.z.z.j.  * @ @ % S ' ' _ Z Z Z Z Z Z Z =.Z Z Z Z Z @ * * * Z Z Z Z ; * * *                     z.z.k.2.z.z.z.z.z.z.z.z.z.z.z.z.z.",
"z.z.z.z.z.z.z.z.z.z.l.z l <.k.k.z.z.k.@ * * * * Z Z Z Z Z Z Z Z Z Z Z Z G Z Z Z Z Z Z Z Z O.Z Z Z ; * * *                   t.x.z.k.z.z.z.z.z.z.z.z.z.z.z.z.z.z.",
"z.z.z.z.z.z.z.z.z.z.z.z.z z O.z z z z z * * * * Z Z Z Z Z Z Z Z Z Z Z Z +.Z Z Z Z Z Z Z Z ;.Z Z Z - * * *                   z.k.z.k.z.k.z.z.z.z.z.z.z.z.z.z.z.z.",
"z.z.z.z.z.z.z.z.z.z.z.z.z.z ) z z z z z * - * Z Z Z Z Z Z Z Z Z Z Z Z Z +.+.A Z Z Z Z Z +.+.Z Z Z ; @ @ *                   z.z.x.k.s.k.z.z.z.z.z.z.z.z.z.z.z.z.",
"z.z.z.z.z.z.v.z.z.z.z.z.v.+.D ` ' ' C T 8 Z Z Z Z A Z Z Z Z Z Z Z Z Z +.+.+.+.+.%.G O.+.+.+.Z Z Z ; - * * *   .           : z.d.z ~ z.z.z.z.z.z.z.z.z.z.z.z.z.z.",
"z.z.z.z.z.z.z.z.z.z.z.z.z.z.<.+.K ' ' ' W Z Z Z Z Z +.+.H Z Z Z Z A +.+.+.4.+.+.+.+.+.+.@.+.F Z Z Z * @ * @ 3 * * o - Z @ - z z k.k.z.z.z.z.z.z.z.z.z.z.z.z.z.z.",
"z.z.z.z.z.z.z.z.z.z.z.z.z.z.z.I z *.' ' ( Z Z Z Z Z =.+.+.+.+.+.+.+.+.+.+.7.+.+.@.+.+.+.+.+.+.&.Z Z Z b 2 4. .b N Z M * @ @ v z.z.z.z.z.z.z.z.z.z.z.z.z.z.z.z.z.",
"z.z.z.z.z.z.z.z.z.z.z.z.z.z.z.z.z z R ' Z Z Z Z Z Z Z +.+.+.+.+.+.+.+.+.+.8.6.+.+.+.+.+.+.+.+.+.+.+.+.4.6.+.&.Z Z b * @ * @   r.z.z.z.z.z.z.z.z.z.z.z.z.z.z.z.z.",
"z.z.z.z.z.z.z.z.z.z.z.z.z.z.z.z.z z z ' Z Z Z Z Z Z Z G +.+.+.+.4.6.+.+.+.7.7.3.+.+.6.+.+.+.+.+.+.+.7.7.+.+.X.Z ; @ * * @       h z.z.z.z.z.z.z.z.z.z.z.z.z.z.z.",
"z.z.z.z.z.z.z.k.z.k.z.k.z.z.x.x.z z z @ Z Z Z Z Z Z Z Z +.+.+.+.+.7.7.6.3.7.S.7.+.3.7.+.+.+.+.+.6.7.7.+.+.+.+.M @ @ * *             $ q z.z.z.z.z.z.z.z.z.z.z.z.",
"z.z.z.k.j.6 e k.z.z.z.k.z.k.k.k.c * @ @ Z Z A Z Z Z Z Z +.+.+.+.+.+.7.7.7.7.D.7.7.7.0.5.+.+.6.7.w.9.3.+.+.+.+.O.@ = * *                       + 6 5 6 6 6 z.z.z.",
"z.z.z.z.x.x.x.l.              * * * % @ Z Z Z Z Z Z Z Z +.+.+.+.+.+.6.D.7.7.D.D.7.7.7.7.7.7.7.D.9.7.+.+.+.+.+.+.+.1 * @                           l.z.k.z.z.z.z.",
"z.z.z.z.z.k.z.z.k.z.e       * @ * * - Z Z Z Z Z Z Z Z Z +.+.+.+.+.+.+.7.D.D.D.D.w.D.9.9.7.0.D.D.7.+.+.+.+.+.+.+.+.+.* * .     .             k.z.k.z.z.z.z.z.z.z.",
"z.z.z.z.z.z.z.z.k.z.z.z.t.@ * @ * @ Z Z Z Z Z Z Z Z Z &.+.+.+.7.7.7.7.8.Z.D.D.D.D.D.D.D.D.D.D.7.7.+.+.+.+.7.+.+.M @ * * @             p z.z.z.z.k.z.z.z.z.z.z.z.",
"z.z.z.z.z.z.z.z.z.z.z.r.z z & @ * Z Z Z Z Z Z Z Z Z O.@.+.+.+.+.+.0.0.9.0.D.D.D.D.D.D.D.D.D.8.7.6.9.7.7.3.+.+.Z Z Z ; * * @         k.z.z.z.z.z.z.z.z.z.z.z.z.z.",
"z.z.z.z.z.z.z.x.z.t.z z z z z E Z Z Z Z Z Z Z Z Z Z Z +.+.+.+.+.+.+.7.Z.D.D.D.D.D.D.D.D.D.D.D.D.D.7.7.6.+.+.J Z Z Z Z Z , @ * @ . k.z.z.z.z.z.z.z.z.z.z.z.z.z.z.",
"z.z.z.z.z.z.z.i z z T z z ` ` ' ` Z Z Z Z Z A Z Z Z Z ;.+.+.+.+.4.7.8.8.D.D.D.D.D.D.D.D.D.D.D.D.9.7.7.3.+.+.Z Z Z Z Z Z Z Z Z n j T f.z.z.z.z.z.z.z.z.z.z.z.z.z.",
"z.z.x.z.i z z z z z ^ ' ' ' ' ' ` Z Z Z Z Z Z Z A Z Z +.+.+.+.7.7.7.q.D.D.D.D.D.D.D.D.D.D.D.D.D.7.7.7.7.+.+.Z Z Z Z Z Z Z n n b / E E x u.z.z.z.z.z.z.v.z.z.z.z.",
"l.a.a.a.a.a.~ R z z z z x R ' ' ' ` Z Z Z Z Z Z Z Z &.+.3.7.3.3.Z.0.7.7.D.D.D.D.D.D.D.D.D.D.D.D.D.7.7.9.6.+.Z Z Z N @ @ * * @ @ z z z z z z z u z.z.z.z.z.z.z.z.",
"z.z.z.z.z.z.z.z.x.z.z.w z z z z z C Z Z Z Z Z Z Z F @.+.+.+.+.+.+.+.7.7.A.D.D.D.D.D.D.D.D.D.7.7.4.D.q.6.7.7.+.Z = @ * @ * * = @ I r.k.z.z.z.z.z.z.l.g.z.z.z.z.z.",
"z.z.z.z.z.z.z.z.z.z.v.z.v.f.z z z s @ Z Z Z Z Z H +.@.+.+.+.+.+.+.+.7.7.D.D.0.D.D.D.D.D.D.D.7.7.+.+.+.3.+.3.7.-.@ @ * = = @     i.z.z.z.z.z.z.z.z.z.z.z.z.z.z.z.",
"z.z.z.z.z.z.z.z.z.z.z.z.z.z.z.z z * @ = Z Z Z o.+.+.+.+.+.+.+.+.+.+.7.9.D.7.7.7.D.D.7.9.D.D.7.7.+.+.+.+.+.+.+.@. .# * * @         k.x.z.z.z.z.z.z.z.z.z.z.z.z.z.",
"z.z.z.z.z.z.z.z.z.v.z.z.z.z.z.z.s * * * @ F +.+.+.+.+.+.+.+.+.+.+.7.7.D.+.+.+.7.D.9.7.7.7.D.8.7.3.+.+.+.+.+.+.+.@.+.* *           e z.z.z.z.z.z.z.z.z.z.z.z.z.z.",
"z.z.z.z.z.z.z.z.z.z.z.z.z.z.z.g.  # * * @ Z Z Z Z Z Z Z Z O.+.+.+.7.0.+.+.+.+.6.D.7.+.+.+.4.D.7.7.+.+.+.+.+.+.+.= * * *             l.z.z.z.z.z.z.z.z.z.z.z.z.z.",
"z.z.z.z.z.z.z.z.z.z.z.z.z.z.f.    @ @ = * Z Z Z Z Z Z Z Z Z F +.7.0.@.+.+.+.+.4.D.6.+.+.+.+.+.9.7.+.+.+.+.+.+.Z @ * * @               l.z.z.z.z.z.z.z.z.z.z.z.z.",
"z.z.z.z.z.z.z.z.z.z.z.z.z.t.    . * * * * Z Z Z Z Z Z Z Z - * 7.+.+.+.+.+.+.+.+.q.+.+.+.+.+.+.+.7.3.+.+.+.+.=.Z m * * @           .     l.z.z.z.z.z.z.z.z.z.z.z.",
"z.z.z.z.z.z.z.z.z.z.z.z.p       . * * * * Z Z Z Z Z Z @ * * = +.+.@.+.+.+.+.+.+.7.+.+.+.+.+.+.+.+.6.+.+.+.+.Z Z Z * @ *                 . i.v.k.z.z.z.z.z.z.z.z.",
"z.z.z.z.z.z.z.z.z.z.z.          0 c v c S Z Z Z Z - @ @ * O * +.O., Z Z N ..+.+.7.+.+.+.+.3.+.+.+.+.3.+.+.+.Z Z Z N * = . .                 k k.z.z.z.z.z.z.z.z.",
"z.z.z.z.z.z.z.z.z.g   0 r.z.z.z.g.T z z ' ' _ n @ @   .     [ . * = Z Z Z ; @ +.5.+.+.+.+.+.+.+.+.+.+.+.+...Z Z Z Z : @ @ w k.z.z.z.y.w       + z.z.z.z.z.z.z.z.",
"z.z.z.z.z.z.z.u.i.z.z.z.z.z.z.z.T z z ' ' ' z t .               * @ N N @ * * > 4.+.+.+.G H H +.+.+.+.+.+.| * @ ; Z N z z k.z.z.z.z.z.z.z.z.k.a.  l.z.z.z.z.z.z.",
"z.z.z.z.z.z.z.z.z.z.z.z.z.z.z.z.z z ) ' :.z x.z.                * - Z * * @ @ = 4.+.A Z Z Z Z Z Z < +.+.@.3 * * * * x ' z z z.z.z.z.z.z.z.z.z.z.k.k.k.z.z.z.z.z.",
"z.z.z.z.z.z.z.z.z.z.z.z.z.z.z.z z x ] z l.x.z.z.f               @ N ; * @ @ @ @ 2 { ; Z Z Z Z Z ; @ @ +.+.} @ * * & z z E z #.z.z.z.z.z.z.z.z.z.z.z.z.z.z.z.z.z.",
"z.z.z.z.z.z.z.z.z.z.z.z.z.z.g.z z ' I z.z.z.b.z.f               * Z @ @           * * Z Z Z Z Z @ @ * * 4 {   O . l.z z z >.z 1.+.z.z.z.z.z.z.z.z.z.z.z.z.z.z.z.",
"z.z.z.z.z.z.z.z.z.z.z.z.z.z.z z / k.z.z.z.U.z.z.f               * = @               @ @ Z Z Z Z @ * * * .  .      z.z.z.f.z :.z z.,.+.l.v.k.z.z.z.z.z.z.z.z.z.z.",
"z.z.z.z.z.z.z.z.z.z.z.z.k.z z y z.z.z.z.T.k.z.z.d               & & p       .       . @ M Z Z Z @ * * *           x.z.z.z.z.r *.t.z.z.x.h.z.z.z.z.z.z.z.z.z.z.z.",
"z.z.z.z.z.z.z.z.z.z.z.z.r z k.z.z.z.N.T.z.z.z.z.            d z.z r k.z.a .           @ @ Z S ( c & *             z.z.z.z.z.k.k.I z.z.v.z.z.z.z.z.z.z.z.z.z.z.z.",
"z.z.z.z.z.z.z.z.z.z.z.t.t z.z.z.N.J.T.z.z.z.z.z.          x.z.z.z v.z.z.k.$             @ ' ' ' z z d.9           6 z.z.z.z.z.v.x.t.z.z.z.z.z.z.z.z.z.z.z.z.z.z.",
"z.z.z.z.z.z.z.z.z.z.t.l.T.T.k.P.T.T.v.z.z.z.k.g.      6 z.z.z.k.z.z.z.z.z.k.            d.z ' ' z z v.v.z.        $ z.z.z.z.z.z.z.z.z.z.z.z.z.z.z.z.v.x.z.z.z.z.",
"z.z.z.z.z.z.z.z.z.F.T.T.T.T.T.T.T.T.z.z.z.z.z.p     f z.z.z.z.t z.z.z.z.z.z.7         g z.z ' ' z z z.z.z.z.+       z.z.z.z.z.z.z.z.z.z.z.z.z.z.z.z.z.z.z.z.z.z.",
"z.z.z.z.z.z.z.z.z.L.T.T.T.T.T.T.T.b.z.z.z.z.k.    9 z.z.z.z.k.k.z.z.z.z.z.z.k.        x.z.g.z ' z z z.z.z.z.z.      k.z.z.z.z.z.z.z.z.z.z.z.z.z.z.z.z.z.z.z.z.z.",
"z.z.z.z.z.z.z.z.z.x.z.T.T.T.T.T.T.Y.k.z.z.z.a.  0 z.z.z.z.z.k.z.z.z.z.z.z.z.x.      p z.z.z.z ' z z z.z.z.z.z.k.    + z.z.z.z.z.z.z.z.z.z.z.z.z.z.z.z.z.z.z.z.z.",
"z.z.z.z.z.z.z.z.z.z.L.T.T.T.T.T.T.T.v.z.z.k.  $ k.v.z.z.z.z.z.z.z.z.z.z.z.z.z.$     k.z.z.z.r R z Y z.z.z.z.z.v.z.    v.z.z.z.z.z.z.z.z.z.z.z.z.z.z.z.z.z.z.z.z.",
"z.z.z.z.z.z.z.z.z.z.T.T.T.T.T.T.b.z.z.z.z.z.  z.z.z.z.z.z.z.z.z.z.z.x.z.z.z.z.0   o k.z.K.z.z.z z p.z.z.z.z.z.z.z.z.  k.z.z.z.z.z.z.z.z.z.z.z.z.z.z.v.z.z.z.z.z.",
"z.z.z.z.z.z.z.z.z.z.Y.T.T.T.T.z.z.z.z.z.z.  z.z.z.z.z.z.z.z.z.z.z.z.z.z.z.z.z.z.  6 z.z.P.z.z.I z r.x.x.z.z.z.z.z.z.z.  z.z.z.z.z.z.z.z.z.z.z.z.z.z.z.z.z.z.z.z.",
"z.z.z.z.z.z.z.z.z.z.z.z.L.V.z.z.z.z.z.z.z.z.z.z.z.z.z.z.z.z.z.z.z.z.z.z.z.z.z.z.  L z.z.V.z.z.k.z p.x.x.z.z.z.z.z.z.z.z.z.z.z.z.z.z.z.z.z.z.z.z.z.z.z.z.z.z.z.z.",
"z.z.z.z.z.z.z.z.x.v.z.z.z.z.z.z.z.z.z.z.z.z.z.z.z.z.z.z.z.z.z.z.z.z.z.z.z.z.z.z.  z.z.z.b.H.z.z.z y z.z.z.z.z.z.z.z.z.z.l.z.z.z.z.z.z.z.z.z.z.z.z.z.z.z.z.z.z.z.",
"z.z.z.z.z.z.z.z.z.z.z.z.z.z.z.z.z.z.z.z.z.z.z.z.z.z.z.z.z.z.z.z.z.z.z.z.z.z.z.z.  z.z.z.b.P.z.z.t.z z.z.z.z.z.z.z.z.z.z.z.z.z.z.z.z.z.z.z.z.z.z.z.z.z.z.z.z.z.z.",
"z.z.z.z.z.z.z.z.z.z.z.z.z.z.z.z.z.z.z.z.z.z.z.z.z.z.z.z.v.z.z.z.z.z.z.z.z.z.z.z.  z.z.z.n.P.z.z.z.z z.z.z.z.z.z.z.z.z.z.z.z.z.z.z.z.z.z.z.z.z.z.z.z.z.z.z.z.z.z.",
"z.z.z.z.z.z.z.z.z.z.z.z.z.z.z.z.z.z.z.z.z.z.z.z.z.z.z.z.z.z.z.z.z.z.z.z.z.z.v.z.  z.z.z.P.P.P.x.z.U z.z.z.z.z.z.z.z.z.z.z.z.z.z.z.z.v.z.z.z.z.z.z.z.z.z.z.z.x.v.",
"z.z.z.z.z.z.z.z.z.z.z.z.z.z.z.z.z.z.z.z.z.z.z.z.z.z.z.z.z.z.z.z.z.z.z.z.z.z.z.z.p.z.x.P.V.P.P.L.P.P.z.z.z.z.z.z.z.z.z.z.z.z.v.z.z.z.z.z.z.z.z.z.z.z.z.z.z.z.z.z.",
"z.z.z.z.z.z.z.z.z.z.z.z.z.z.z.z.z.z.z.z.z.z.z.z.z.z.z.z.z.z.z.z.z.z.z.v.z.z.z.z.x.z.L.P.P.P.P.P.P.P.z.z.z.z.z.z.z.z.z.z.z.z.z.z.z.z.z.z.v.z.z.z.z.z.z.z.z.z.z.z.",
"z.z.z.z.z.z.z.z.v.x.z.z.z.z.z.z.z.z.z.z.z.z.z.z.z.z.z.z.z.z.z.z.z.z.z.z.z.z.z.z.z.z.b.P.P.P.P.P.P.z.z.z.z.z.z.z.z.z.z.z.z.z.z.z.z.z.z.z.z.z.z.z.z.z.z.z.z.z.z.z.",
"z.z.z.z.z.z.z.z.z.z.z.z.v.x.z.z.z.z.z.z.z.z.z.z.z.z.z.z.z.z.z.z.z.z.z.z.z.z.z.z.z.z.b.P.P.P.P.P.n.z.z.z.z.z.z.z.z.z.z.z.z.z.z.z.z.z.z.z.z.z.z.z.z.z.z.z.z.z.z.z.",
"z.z.z.z.z.z.z.z.z.z.z.z.z.z.z.z.z.z.z.z.z.z.z.z.z.z.z.v.z.z.z.z.z.z.z.z.z.z.z.z.z.z.b.L.P.P.z.K.k.k.z.z.z.z.z.z.z.z.z.z.z.z.z.z.z.z.z.z.z.z.z.z.z.z.z.z.z.z.z.z.",
"z.z.z.z.z.z.z.z.z.z.z.z.z.z.z.z.z.z.z.z.z.z.z.z.z.z.z.z.z.z.z.z.z.z.z.z.z.x.v.z.z.z.z.I.P.P.z.z.z.z.z.z.z.z.z.z.z.z.z.z.z.z.z.z.z.z.z.z.z.z.z.z.z.z.z.z.z.z.z.z.",
"z.z.z.z.z.z.z.z.z.z.z.z.z.z.z.z.z.v.z.z.z.z.z.z.z.z.z.z.z.z.z.z.z.z.z.z.z.z.z.z.z.z.z.z.z.z.z.z.z.z.z.z.z.z.z.z.z.z.z.z.z.z.z.z.z.z.z.z.z.z.z.z.z.z.z.z.z.z.z.z.",
"z.z.z.z.z.z.z.z.z.z.z.z.z.z.z.z.z.z.z.z.z.z.z.z.z.z.z.z.z.z.z.z.z.z.z.z.z.z.z.z.z.z.z.z.z.z.z.z.z.z.z.z.z.z.z.z.z.z.z.z.z.z.z.z.z.z.z.z.z.z.z.z.z.z.z.z.z.z.z.z."
};
