/* XPM */
static xpm_row_t const explosion_xpm_3[] = {
/* columns rows colors chars-per-pixel */
"80 80 202 2 ",
"   c #DF373E",
".  c #DE383F",
"X  c #EE2A2D",
"o  c #EF332F",
"O  c #F1392E",
"+  c #E72F35",
"@  c #EB2E31",
"#  c #F02F32",
"$  c #E63136",
"%  c #EF3434",
"&  c #EF3A34",
"*  c #E2343A",
"=  c #E73A3C",
"-  c #ED3A3A",
";  c #F03635",
":  c #F03B35",
">  c #F3373A",
",  c #F33C3B",
"<  c #F24932",
"1  c #F5423E",
"2  c #F35535",
"3  c #F45C34",
"4  c #F4543B",
"5  c #F46236",
"6  c #F46B34",
"7  c #F77638",
"8  c #D73E47",
"9  c #DB3B43",
"0  c #D63F48",
"q  c #E93E40",
"w  c #BF5664",
"e  c #BC5867",
"r  c #B55E6F",
"t  c #BA5B6A",
"y  c #B45F70",
"u  c #BD636E",
"i  c #AD6778",
"p  c #AB687A",
"a  c #AB6B7D",
"s  c #B26272",
"d  c #BB6573",
"f  c #BC6977",
"g  c #B46B7A",
"h  c #B57579",
"j  c #CF454F",
"k  c #D4424B",
"l  c #DC444A",
"z  c #D7484E",
"x  c #DC494E",
"c  c #CE4751",
"v  c #C74C56",
"b  c #CA4B56",
"n  c #C64F5A",
"m  c #C84D58",
"M  c #D14550",
"N  c #D34B53",
"B  c #DC4D53",
"V  c #C3515D",
"C  c #D4535B",
"Z  c #DB565D",
"A  c #DD5A5C",
"S  c #E54549",
"D  c #EF494B",
"F  c #F64342",
"G  c #F84645",
"H  c #F94945",
"J  c #F44B4C",
"K  c #FB4C4B",
"L  c #FC5F47",
"P  c #FD524D",
"I  c #FF5C4F",
"U  c #E04C50",
"Y  c #EB5256",
"T  c #E4565C",
"R  c #FF5451",
"E  c #FF5A50",
"W  c #F45B5E",
"Q  c #FD5A5A",
"!  c #DE7856",
"~  c #FB6745",
"^  c #FF644D",
"/  c #FF6D4C",
"(  c #FE7C47",
")  c #FF754A",
"_  c #FF7D48",
"`  c #ED6F5D",
"'  c #E87A58",
"]  c #C25461",
"[  c #C65B66",
"{  c #CB5B65",
"}  c #CD5A64",
"|  c #C45E69",
" . c #D35B62",
".. c #DC5961",
"X. c #E45C62",
"o. c #E95F65",
"O. c #FB5E61",
"+. c #C2616C",
"@. c #CC6569",
"#. c #DA646C",
"$. c #CA7A66",
"%. c #CE7074",
"&. c #ED6465",
"*. c #ED646A",
"=. c #FE6264",
"-. c #F3656A",
";. c #F46568",
":. c #FC6569",
">. c #FB6A6E",
",. c #E16A72",
"<. c #FE6C70",
"1. c #F88B37",
"2. c #FA983C",
"3. c #FBA739",
"4. c #FEAC3E",
"5. c #FEB53C",
"6. c #FFBC3C",
"7. c #FFC63B",
"8. c #FFC83E",
"9. c #B3887C",
"0. c #B4927C",
"q. c #BCA476",
"w. c #FF8447",
"e. c #FF8B46",
"r. c #FF8048",
"t. c #FF9244",
"y. c #FE9D42",
"u. c #FFA241",
"i. c #FCAB42",
"p. c #FFA74B",
"a. c #FDBF4E",
"s. c #CE8569",
"d. c #FFC142",
"f. c #FFCB43",
"g. c #FFCE4B",
"h. c #FFD04E",
"j. c #FFD254",
"k. c #FED55A",
"l. c #FFD85F",
"z. c #FED760",
"x. c #FEDA64",
"c. c #FEDD6C",
"v. c #FEDF70",
"b. c #FEE276",
"n. c #FEE37B",
"m. c #9F7287",
"M. c #9D758B",
"N. c #9C7A8F",
"B. c #957D94",
"V. c #997D92",
"C. c #A56E82",
"Z. c #AC6F81",
"A. c #A37386",
"S. c #AB7284",
"D. c #A3768A",
"F. c #A1798B",
"G. c #B77281",
"H. c #B07F91",
"J. c #CA7784",
"K. c #8E859D",
"L. c #948197",
"P. c #9F8096",
"I. c #92829A",
"U. c #938A9B",
"Y. c #8F929F",
"T. c #93949A",
"R. c #A89688",
"E. c #B4909F",
"W. c #8B87A0",
"Q. c #868CA6",
"!. c #898AA3",
"~. c #00b140",
"^. c #888FA9",
"/. c #928CA4",
"(. c #8E92A0",
"). c #8790AA",
"_. c #8B93AC",
"`. c #8F97B0",
"'. c #9097B0",
"]. c #949CB3",
"[. c #AB97A9",
"{. c #99A1B6",
"}. c #9DA4B9",
"|. c #A0A6BC",
" X c #A4AABD",
".X c #B5AEBD",
"XX c #FEE782",
"oX c #FEE986",
"OX c #FEEB8B",
"+X c #FEEE93",
"@X c #A7AEC0",
"#X c #A8AEC2",
"$X c #ACB2C4",
"%X c #B1B6C7",
"&X c #B1B7C8",
"*X c #B5BBCB",
"=X c #B9BECD",
"-X c #BCC1CE",
";X c #BEC2D1",
":X c #C2C6D3",
">X c #CACED9",
",X c #CDD1DB",
/* pixels */
"~.~.~.~.~.~.~.~.~.~.~.~.~.~.~.~.~.~.~.~.~.~.~.~.~.~.~.~.~.~.~.~.~.~.~.~.~.~.~.~.~.~.~.~.~.~.~.~.~.~.~.~.~.~.~.~.~.~.~.~.~.~.~.~.~.~.~.~.~.~.~.~.~.~.~.~.~.~.~.~.",
"~.~.~.~.~.~.~.~.~.~.~.~.~.).~.~.~.~.~.~.~.~.~.~.~.~.~.~.~.~.~.~.~.~.~.~.~.~.~.~.~.~.~.~.~.~.~.~.~.~.~.~.~.~.~.~.~.~.~.~.~.~.~.~.~.~.~.~.~.~.~.~.~.~.~.~.~.~.~.~.",
"~.~.~.~.~.~.~.~.~.~.~.~.~.~.~.~.~.~.~.~.~.~.~.~.~.~.~.~.~.~.~.~.~.~.~.~.~.~.~.~.~.~.~.~.~.~.~.~.~.~.~.~.~.~.~.~.~.~.~.~.~.~.~.~.~.~.~.~.~.~.~.~.~.~.~.~.~.~.~.~.",
"~.~.~.~.~.~.~.~.~.~.~.~.~.~.~.~.~.~.~.~.~.~.~.~.~.~.~.~.~.~.~.~.~.~.~.~.~.~.~.~.~.~.~.~.~.~.~.~.~.~.~.~.~.~.~.~.~.~.~.~.~.~.~.~.~.~.~.~.~.~.~.~.~.~.~.~.~.~.~.~.",
"~.~.~.~.~.~.~.~.~.~.~.~.~.~.~.~.~.~.~.~.~.~.~.~.~.~.~.~.~.~.~.~.~.~.~.~.~.~.~.~.~.~.~.~.~.~.~.~.~.~.~.~.~.~.~.~.~.~.~.~.~.~.).~.~.~.~.~.~.~.~.~.~.~.~.~.~.~.~.~.",
"~.~.~.~.~.~.~.~.~.~.~.~.~.~.~.~.~.~.~.~.~.~.~.~.~.~.~.~.~.~.~.~.~.~.~.~.~.~.~.~.~.~.~.~.~.~.~.~.~.~.~.~.~.~.~.~.~.~.~.~.~.~.~.~.~.~.~.~.~.~.~.~.~.~.~.~.~.~.~.~.",
"~.~.~.~.~.~.~.~.~.~.~.~.~.~.~.~.~.~.~.~.~.~.~.~.~.~.~.~.~.~.~.~.~.~.~.~.~.~.~.~.~.~.~.~.~.~.~.~.~.~.~.~.~.~.~.~.~.~.~.~.~.~.~.~.~.~.~.~.~.~.~.~.~.~.~.~.~.~.~.~.",
"~.~.~.~.~.~.~.~.~.~.~.~.~.~.~.~.~.~.~.~.~.~.~.~.~.~.~.~.~.~.~.~.~.~.~.~.~.~.~.~.~.~.~.~.~.~.~.~.~.~.~.~.~.~.~.~.~.~.~.~.~.~.~.~.~.~.~.~.~.~.~.~.~.~.~.~.~.~.~.~.",
"~.~.~.~.~.~.~.~.~.~.~.~.~.~.~.~.~.~.~.~.~.~.~.~.~.~.~.~.~.~.~.~.~.~.~.~.~.~.~.~.~.~.~.~.~.~.~.~.~.~.~.~.~.~.~.~.~.~.~.~.~.~.~.~.~.~.~.~.~.~.~.~.~.~.~.~.~.~.~.~.",
"~.~.~.~.~.~.~.~.~.~.~.~.~.~.~.~.~.~.~.~.~.~.~.~.~.~.~.~.~.~.~.~.~.~.~.~.~.~.~.~.~.~.~.~.~.~.~.~.~.~.~.~.~.~.~.~.~.~.~.~.~.~.~.~.~.~.~.~.~.~.~.~.~.~.~.~.~.~.~.~.",
"~.~.~.~.~.~.~.~.~.~.~.).~.~.~.~.~.~.~.~.~.~.~.~.~.~.~.~.~.~.~.~.~.~.~.~.~.~.~.~.~.~.~.~.~.~.~.~.~.~.~.~.~.~.~.~.~.~.~.~.~.).~.~.~.~.~.~.~.~.~.~.~.~.~.~.~.~.~.~.",
"~.~.~.~.~.~.~.~.~.~.~.~.~.~.~.~.~.~.~.~.~.~.~.Q.~.~.~.~.~.~.~.~.~.~.~.~.~.~.~.~.~.~.~.~.~.~.~.~.~.~.~.~.~.~.~.~.~.~.~.~.~.~.~.~.~.~.~.~.~.~.~.~.~.~.~.~.~.~.~.~.",
"~.~.~.~.~.~.~.~.~.~.~.~.~.~.~.~.~.~.~.~.~.~.~.W.!.~.~.~.]. X'.~.~.~.~.~.~.~.~.~.~.~.~.~.~.~.~.~.~.Q.~.~.~.~.~.~.~.).~.~.~.~.~.~.~.~.~.~.~.~.~.~.~.~.~.~.~.~.~.~.",
"~.~.~.~.~.~.~.~.~.~.~.~.~.~.~.~.~.~.~.~.~.~.~.W.V.W.~._.#X>X$X_.C.W.~.~.~.~.~.~.~.~.~.Q.~.~.~.Q.!.~.~.~.~.~.~.~.`.$X{.).`.`.~.~.~.~.~.~.~.~.~.~.~.~.~.~.~.~.~.~.",
").~.~.~.~.~.~.~.~.~.~.~.~.~.~.~.~.~.~.~.~.~.~.Q.N.V.~.].&X,X:X].V.I.~.~.~.~.~.~.~.~.^.Q.~.~.~.B.p ~.~.~.~.~.).).].;X*X@X;X;X}.).~.~.~.~.~.~.~.~.~.~.~.~.~.~.~.~.",
"~.~.~.~.).~.~.~.~.~.~.~.~.~.~.~.~.~.~.~.~.~.~._.D.d W.#X>X>X>X%X!.] ~.~.~.~.~.~.~.^.T.T.~.~.Q.s p ~.~.~.~.~.~._.#X>X>X>X,X>X-X`.~.~.~.~.~.~.~.~.~.~.~.~.~.~.~.~.",
"~.~.~.~.~.~.~.~.~.~.~.~.~.~.~.~.~.~.~.~.~.~.~.~.I.d S._. X=X;X].Q.. K.Q.Q.).Q.L.Q.Q.Y.(.~.~.B.8 B.~.~.~.^.!.~._.*X>X,X,X,X,X:X'.~.~.~.~.~.~.~.~.~.~.~.~.~.~.~.~.",
"~.~.~.~.~.~.~.~.~.~.~.~.~.~.~.~.~.~.~.~.~.~.~.~.~.G. .V.^.{.#X'.~.  V Q.).Q.Q.h Y.Q.Q.~.~.~.w 9 B.~.~.~.W.B.~._.$X>X,X,X,X,X@X_.~.~.~.~.~.~.~.~.~.~.~.~.~.~.~.~.",
"~.~.~.~.~.~.~.~.~.~.~.~.~.~.~.~.~.~.~.~.~.~.~.~.~.Z.X.| L._.].].~.. . m.Q.).~.$.A.Q.W.~.~.M.* 8 !.~.~.!.N.W.~.].:X>X>X,X:X@X`.~.~.~.~.~.~.~.~.~.~.~.~.~.~.~.~.~.",
"~.~.~.~.~.~.~.~.~.~.~.~.~.~.~.~.~.~.~.~.~.~.~.~.~.I.,...d W.].|.Q.  @ V Q.~.H. .a Q.~.~.Q.m @ 0 ~.~.Q.A.B.~.^.@X>X>X,X>X=X~.~.~.~.~.~.~.~.~.~.~.~.~.~.~.~.~.~.~.",
"~.~.~.~.~.~.~.~.~.~.~.~.~.~.~.~.~.~.Q.~.~.~.~.~.~.~.+.*. .S.^._.Q.  X   p K.J...@.Q.Q.!.s * X 0 Q.!.D.G.B.~._.%X:X#X#X=X%XQ.Q.~.~.~.~.~.~.~.~.~.~.~.~.~.~.~.~.~.",
"~.).~.~.~.~.~.~.~.~.~.~.~.~.~.~.~.~.Q.Q.~.~.~.~.~.~.| >.*.} D.W.Q.  X X 8 t ,.A @.^.Q.p * X X 9 V.H.@.A.~.).@X&X]._._._./.V.W.~.~.~.~.~.~.~.~.~.~.~.~.~.~.~.~.~.",
"~.~.~.~.~.~.~.~.~.~.~.~.~.~.~.~.~.~.~.~.B.K.Q.~.~.~.| o.>.X.} g L.$ X X X S W Z C L.p k @ X X $ #. .+.B._.#X}.~._.~.W.B.i B.~.~.~.~.~.~.~.~.~.~.~.~.~.~.~.~.~.~.",
"~.~.~.~.~.~.~.~.~.~.~.~.~.~.~.~.~.~.~.~.K.s C.W.~.~.+.A <.-...C [ $ X X % , R D x c * X X X X > Y  .G.W.].].~.~.~.I.y e M.~.~.~.~.~.~.~.~.~.~.~.~.~.~.~.~.~.~.~.",
"~.~.~.~.~.~.~.~.~.~.~.~.~.~.~.~.~.~.~.~.Q.m.v s K.Q.u A <.<.-.X.S % % o : G R H ; ; X X X X > K D C D.Q.`.~.Q.W.a m 0 C.~.~.~.~.~.~.~.~.~.~.~.~.~.~.~.~.~.~.~.~.",
"~.~.~.~.~.~.~.~.~.~.~.~.~.~.~.~.~.~.~.~.Q.Q.p k t L.+.Z <.<.<.-.J % % - 1 K R R ; ; # X o > K K - z D.W.~.W.y N   @ e W.~.~.~.~.~.~.~.~.~.~.~.~.~.~.~.~.~.~.~.~.",
"~.~.~.~.~.~.~.).~.~.~.~.~.~.~.~.Q.Q.Q.~.Q.Q.I.c $ 9 N Z >.<.<.=.E K K K P R R R q > % : , P P K ; % 9 8 0 8 # X X c B.~.Q.Q.~.~.~.~.~.~.~.~.~.~.~.~.~.~.~.~.~.~.",
"~.~.~.~.~.~.~.~.~.~.~.~.~.~.~.~.N.V.K.W.Q.Q.Q.A.= % % , O.:.O.Q R R P R ^ E R R P : : 1 P R R , % % X X X X X X X t W.!.T.~.~.~.~.~.~.~.~.~.~.~.~.~.~.~.~.~.~.~.",
"~.~.~.~.~.~.~.~.~.~.~.~.~.~.~.~.Q.I.u $.0.F.M.a l % % : R R R R R R R R ^ / I R R R P ) _ E R > % % X X X X X X 8 B.Q.^.!.Q.).~.~.~.~.~.~.~.~.~.~.~.~.~.~.~.~.~.",
"~.~.~.~.~.~.~.~.~.~.~.~.~.~.~.~.~.~.K.@.' A A A S - : G R R R R R R R R ) u.r.^ I I / t.r.E K : > % X X X X X X 0 L.K.K.U.Q.~.~.~.~.~.~.~.~.~.~.~.~.~.~.~.~.~.~.",
"~.~.~.~.~.~.~.~.~.~.~.~.~.~.~.).~.Q.~.0.s.' W &.Y J H R R / / E R R P / y.6.6.i.e.e.4.7.t.E R , % % % o # X # ; l a A.N.K.~.~.~.~.~.~.~.~.~.~.~.~.~.~.~.~.~.~.~.",
"~.~.~.~.~.~.~.~.~.~.~.~.~.~.~.~.~.~.~.Y.0.' ` >.:.Q R R E w.i.t.w.e.e.y.7.f.f.7.6.6.7.8.i._ R K , 4 7 4 , q , : = [ V.!.~.~.~.~.~.~.~.~.~.~.~.~.~.~.~.~.~.~.~.~.",
"~.~.~.~.~.~.~.~.~.~.~.~.~.~.~.~.~.~.~.^.(.a A &.:.Q R R R ) 4.7.7.6.7.7.7.f.h.8.7.7.7.7.7.6.3.y.y.i.i.~ P G : ; % ] K.~.~.~.~.~.~.~.~.~.~.~.~.~.~.~.~.~.~.~.~.~.",
"~.~.~.~.~.~.~.~.~.~.~.~.~.~.~.~.^.~.~.~.~.M.Z Z O.R R R R R r.6.8.7.g.f.7.g.k.g.7.8.f.7.7.7.7.f.j.g.6.( 1 & ; % X @ k M.W.~.~.~.~.B.~.~.~.~.~.~.~.~.~.~.~.~.~.~.",
"~.~.~.~.~.~.~.~.~.~.~.Q.Q.B.B.Q.!.!.W.Q.Q.D.B l F P R R R R ) 6.8.8.8.j.j.j.b.x.f.h.h.7.8.f.k.k.g.7.8.t.1 % % X X X X X 9 i M.M.M.B.B.B.Q.~.~.~.~.~.~.~.~.~.~.~.",
"~.~.~.~.~.~.~.~.~.~.~.Q.Q.m.V.M.p i s s s ] - % q P R R R R ) 6.7.7.8.f.x.x.n.n.l.l.k.h.j.c.c.j.8.7.7.7.1.2 % X X X X X X X X $ 9 w y y B.~.~.~.~.~.~.~.~.~.~.~.",
"~.~.~.~.~.~.~.~.~.~.~.~.~.~.~.V.p e 0 $ # ; ; , K R R R R R _ 5.7.f.f.g.x.n.OX+Xn.n.c.c.n.n.z.f.7.7.7.7.4.7 ; o X X X X X 9 c s C.B.~.~.~.~.~.~.~.~.~.~.~.~.~.~.",
"~.~.~.~.~.~.~.~.~.~.~.~.~.~.~.~.~.K.a z $ ; , K P R R R R / y.7.7.f.g.k.x.n.+X+X+X+XoXOXXXb.k.f.f.f.8.5.) L ; $ X X X @ n C.B.Q.~.~.~.~.~.~.~.~.~.~.~.~.~.~.~.~.",
"~.~.~.~.~.~.~.~.~.~.~.~.~.~.~.~.I.Z.u C U D K R R R R R R ) 4.7.7.7.f.j.v.oX+X+X+X+X+X+XOXn.n.k.j.f.a.r.P P F 1 ; @ @ e B.Q.Q.~.~.~.~.~.~.~.~.~.~.~.~.~.~.~.~.~.",
"~.~.~.~.~.~.~.~.~.~.~.~.~.~.K.g | C C X.-.O.Q R R R R R R ^ y.7.8.7.g.k.c.OX+X+X+X+X+X+X+X+Xc.k.j.8.2.^ P R R K K G S t K.~.~.~.~.~.~.~.~.~.~.~.~.~.~.~.~.~.~.~.",
"~.~.~.~.~.~.~.~.~.~.Q.Q.D.[ C C C o.-.<.<.<.O.R R R R R R / 4.7.7.j.x.c.XX+X+X+X+X+X+X+X+X+Xc.k.k.g.y.I R K K K F F Y X.X.d V.W.~.~.~.~.~.~.~.~.~.~.~.~.~.~.~.~.",
"~.~.~.~.~.~.~.~.~.Q.B.B.V.V.S.f d d { ..*.&.o.Q R R R R E e.6.g.f.f.x.k.c.oX+X+X+X+X+X+XOXn.n.x.k.k.p./ K F ; % ; ; x +.d f d g B.~.Q.~.~.~.~.~.~.~.~.~.~.~.~.~.",
"~.~.~.~.~.~.~.~.~.~.~.~.~.~.~.~.Q.!.N.a | C U G K R R ^ r.5.7.7.7.7.7.g.x.XXXXoX+X+XOX+Xn.l.f.l.j.g.g.y.4 % % ; # # N B.Q.~.~.Q.~.~.~.~.~.~.~.~.~.~.~.~.~.~.~.~.",
"~.~.~.~.~.~.~.~.~.~.~.~.~.~.~.~.~.~.~.Q.V.t S - , P ) u.6.7.7.7.7.7.8.g.c.c.k.z.+Xn.v.XXn.z.8.7.8.8.8.d.2.5 ; ; X X   C.~.~.~.~.~.~.~.~.~.~.~.~.~.~.~.~.~.~.~.~.",
"~.~.~.~.~.~.~.~.~.~.~.~.~.~.~.~.~.~.~.~.!.a - % ; G ) e.t.t.t.u.7.7.f.k.k.g.f.j.OXk.g.j.v.x.h.8.7.7.7.7.1.6 % # X X X v K.~.~.~.~.~.~.~.~.~.~.~.~.~.~.~.~.~.~.~.",
"~.~.~.~.~.~.~.~.~.~.~.~.~.~.~.~.~.~.~.Q.B.M % ; ; G P E E E E ^ _ 6.j.j.f.8.7.g.OXg.8.8.g.k.j.7.7.7.7.3.4 & % @ X X X + e Q.~.~.~.~.~.~.~.~.~.~.~.~.~.~.~.~.~.~.",
"~.~.~.~.~.~.~.~.~.~.~.~.~.~.~.~.~.~.Q.V.8 X @ ; - F R R R R R G , d.8.8.7.7.7.7.c.8.7.7.8.8.j.8.7.7.5.) H % $ X X X X X + r Q.Q.~.~.~.~.~.~.~.~.~.~.~.~.~.~.~.~.",
"~.~.~.~.~.~.~.~.~.~.~.~.~.~.~.~.Q.K.r * X @ = - - G R R P H > ; - 5.6.4.3.i.7.7.j.8.8.7.8.7.7.g.8.7.y.I R , % X X X X X X X ] B.~.~.~.~.~.~.~.~.~.~.~.~.~.~.~.~.",
"~.~.~.~.~.~.~.~.~.~.~.~.~.~.~.~.B.s m V w e [ B Y Q Q J , # @ X < 7 7 G P ^ 7 4.j.7.7.7.6.6.7.7.7.7.2.P P K : = M ] w ] b 9   m M.B.~.~.~.~.~.~.~.~.~.~.~.~.~.~.",
"~.~.~.~.~.~.~.~.~.~.~.~.~.~.Q.B.V.A.B.~.~.B.{ ..;.>.#.} X X X X O X ; , K , : 3 g.7.u.e.e.3.5.6.8.6.7 1 1 J D B C.W.~.~.K.M.p p i B.~.~.~.~.~.~.~.~.~.~.~.~.~.~.",
"~.~.~.~.~.~.~.~.~.~.~.~.~.~.Q.!.Q.~.~.~.Q.Z.Z X.,.%.P.N.$ X X X # X ; F , % # ; i.2.~ E R ^ L 6 3.6.7 : ; 1 T A +.W.~.~.~.~.~.Q.B.Q.~.~.~.~.~.~.~.~.~.~.~.~.~.~.",
"~.~.~.~.~.~.~.~.~.~.~.~.~.~.~.~.~.~.~.~.B.{ X.#.R.I.^.I.9 X X X X X : G ; @ @ @ 2 2 K R R R : - 3 1.6 O $ [ C A ! s.q.Y.~.~.~.~.~.~.~.~.~.~.~.~.~.~.~.~.~.~.~.~.",
"~.~.~.~.~.~.~.~.~.~.~.~.~.~.~.~.~.~.~.W.d ..G.U.!.|.`.I.k X X X X X ; : @ X X X X o : K R R - % % 2 3 o @ V.B.M.$.r.9.q.q.^.Q.~.~.~.~.~.~.~.~.~.~.~.~.~.~.~.~.~.",
"~.~.~.~.~.~.~.~.~.~.~.~.~.~.~.~.~.~.!.g | S.^.).|.{.~.B.9 X X X X   = l 9 + X X X X % G R R - % % X X X @ K.Q.Q.I.h 9.U.Y.Y.Q.~.~.~.~.~.~.~.~.~.~.~.~.~.~.~.~.~.",
"~.~.~.~.~.~.~.~.~.~.~.~.~.~.~.~.^.Q.F.g I.).]. X|.^.~.V.X X X 9 e K.| V.B.w + X X X @ q Q =.U S k + X X X a ~.~.Q.Q.N.I.~.~.^.Q.~.~.~.~.~.~.~.~.~.~.~.~.~.~.~.~.",
"~.~.~.~.~.~.~.~.~.~.~.~.~.~.~.~.)./.[..X{.$X-X@X).~.^.C.X @ j m.^.W.N.~.~.B.c X X X $ Z *.<...+.V.s . X X j ~.~.~.Q.~.K.~.).Q.).~.~.~.~.~.~.~.~.~.~.~.~.~.~.~.~.",
"~.~.~.~.~.~.~.~.~.~.~.~.~.~.~.~.{.&X;X,X;X>X;X{.~.~.!.v + v M.Q.Q.V.~.~.~.~.p $ X @ j a %.-.Z t ~.!.p . X . Q.Q.~.~.~.~.~.~.~.~.~.~.~.~.~.~.~.~.~.~.~.~.~.~.~.~.",
"~.~.~.~.~.~.~.~.~.~.~.~.~.~.~.~.{.&X,X,X,X,X-X`.~.~.B.. n B.Q.~.Q.!.Q.~.~.~.!.8 X $ y K.g *.Z | ~.Q.Q.p     M.Q.~.~.~.~.~.~.~.~.~.~.~.~.~.~.~.~.~.~.~.~.~.~.~.~.",
"~.~.~.~.~.~.~.~.~.~.~.~.~.~.~.~._.$X,X,X,X,X;X{.~.Q.e k B.Q.~.~.Q.~.~.~.~.~.Q.c X k I.Q.N.,.C d ~.~.~.Q.a   V Q.~.~.~.~.~.~.~.~.~.~.~.~.~.~.~.~.~.~.~.~.~.~.~.~.",
"~.~.~.~.~.~.~.~.~.~.~.~.~.~.~.~.`.;X,X,X,X*X{._.~.K.v M.Q.~.~.~.).~.~.~.).~.Q.i X v _.{./.+. .D.~.~.~.~.Q.a V !.~.~.~.~.~.~.~.~.~.~.~.~.~.~.~.~.~.).~.~.~.~.~.~.",
"~.~.~.~.~.~.~.~.~.~.~.~.~.~.~.~._.$X;X;X&X_.~.~.~.C.M.Q.~.~.~.~.~.~.~.~.~.~.~.!.X e _.}._.A.C L.~.~.~.~.~.Q.M.M.~.~.~.~.~.~.~.~.~.~.~.~.~.~.~.~.~.~.~.~.~.~.~.~.",
"~.~.~.~.~.~.~.~.~.~.~.~.~.~.~.~.~.~.`.].).~.~.~.~.Q.Q.~.~.~.~.~.~.~.~.~.~.~.Q.~.  B.Q.`.`.Q.@.D.~.~.~.~.~.~.Q.Q.Q.~.~.~.~.~.~.~.~.~.~.~.~.~.~.~.~.~.~.~.~.~.~.~.",
"~.~.~.~.~.~.~.~.~.~.~.~.~.~.~.~.~.~.~.~.~.~.~.~.~.~.~.~.~.~.~.~.~.~.~.~.~.~.~.~.  Y.).{.}.).a s ~.~.~.~.~.~.~.Q.~.~.~.~.~.~.~.~.~.~.~.~.~.~.~.~.~.~.~.~.~.~.~.~.",
"~.~.~.~.~.~.~.~.~.~.~.~.~.~.~.~.~.~.~.~.~.~.~.~.~.~.~.~.~.~.~.~.~.~.~.~.~.~.~.~.  ).). X X_.K.s ~.~.~.~.~.~.~.~.~.~.~.~.~.~.~.~.~.~.~.~.~.~.~.~.~.~.~.~.~.~.~.~.",
"~.~.~.~.~.~.~.~.~.~.~.~.~.~.~.).~.~.~.~.).~.~.~.~.~.~.~.~.~.~.~.~.~.~.~.~.~.~.~.e ~.].&X=X$X@XE.~.~.~.~.~.~.~.~.~.~.~.~.~.~.~.~.~.~.~.~.~.~.~.~.~.~.~.~.~.~.~.~.",
"~.~.~.~.~.~.~.~.~.~.~.~.~.~.~.~.~.~.~.~.~.~.~.~.~.~.~.~.~.~.).~.~.~.~.~.~.~.~.~.W.].*X=X:X:X:X$X~.~.~.~.~.~.~.~.~.~.~.~.~.~.~.~.~.~.~.~.~.~.~.~.~.~.~.~.~.~.~.~.",
"~.~.~.~.~.~.~.~.~.~.~.~.~.~.~.~.~.~.~.~.~.~.~.~.~.~.~.~.~.~.~.~.~.~.~.~.~.~.~.~.~.`.$X:X:X:X&X`.~.~.~.~.~.~.~.~.~.~.~.~.~.~.~.~.~.~.~.~.~.~.~.~.~.~.~.~.~.~.~.~.",
"~.~.~.~.~.~.~.~.~.~.~.~.~.~.~.~.~.~.~.~.~.~.~.~.~.~.~.~.~.~.~.~.~.~.~.~.~.~.~.~.~._.#X:X*X*X].~.~.~.~.~.~.~.~.~.~.~.~.~.~.~.~.~.~.~.~.~.~._.~.~.~.~.~.~.~.~.~.~.",
"~.~.~.~.~.~.~.~.~.~.~.~.~.~.~.~.~.~.~.~.~.~.~.~.~.~.~.~.~.~.~.~.~.~.~.~.~.~.~.~.~.).@X=X@X].~.~.~.~.~.~.~.~.~.~.~.~.~.~.~.~.~.~.~.~.~.~.~.~.~.~.~.~.~.~.~.~.~.~.",
"~.~.~.~.~.~.~.~.~.~.~.~.~.~.~.~.~.~.).~.~.~.~.~.~.~.~.).~.~.~.~.~.~.~.~.~.~.~.~.~.~.`.'._.~.~.~.~.~.~.~.~.~.~.~.~.~.~.~.~.~.~.~.~.~.~.~.~.~.~.~.~.~.~.~.~.~.~.~.",
"~.~.~.~.~.~.~.~.~.~.~.~.~.~.~.~.~.~.~.~.~.~.~.~.~.~.~.~.~.~.~.~.~.~.~.~.~.~.~.~.~.~.~.~.~.~.~.~.~.~.~.~.~.~.~.~.~.~.~.~.~.~.~.~.~.~.~.~.~.~.~.~.).~.~.~.~.~.~.~.",
"~.~.~.~.~.~.~.~.~.~.~.~.~.~.~.).~.~.~.~.~.~.~.~.~.~.~.~.~.~.~.~.~.~.~.~.~.~.~.~.~.~.~.~.~.~.~.~.~.~.~.~.~.~.~.~.~.~.~.~.~.~.~.~.~.~.~.~.~.~.~.~.~.~.~.~.~.~.~.~.",
"~.~.~.~.~.~.~.~.~.~.~.~.~.~.~.~.~.~.~.~.~.~.~.~.~.~.~.~.~.~.~.~.~.~.~.~.~.~.~.~.~.~.~.~.~.~.~.~.~.~.~.~.~.~.~.~.~.~.~.~.~.~.~.~.~.~.~.~.~.~.~.~.~.~.~.~.~.~.~.~.",
"~.~.~.~.~.~.~.~.~.~.~.~.~.~.~.~.).~.~.~.~.~.~.~.~.~.~.~.~.~.~.~.~.~.~.~.).~.~.~.~.~.~.~.~.~.~.~.~.~.~.~.~.~.~.~.~.~.~.~.~.~.~.~.~.~.~.~.~.~.~.~.~.~.~.~.).~.~.~.",
"~.~.~.~.~.~.~.~.~.~.~.~.~.~.~.~.~.~.~.~.~.~.~.~.~.~.~.~.~.~.~.~.~.~.~.~.~.~.~.~.~.~.~.~.~.~.~.~.~.~.~.~.~.~.~.~.~.~.~.~.~.~.~.~.~.~.~.~.~.~.~.~.~.~.~.~.~.~.~.~.",
"~.~.~.~.~.~.~.~.~.~.~.~.~.~.~.~.~.~.~.~.~.~.~.~.~.~.~.~.~.~.~.~.~.~.~.~.~.~.~.~.~.~.~.~.~.~.~.~.~.~.~.~.~.~.~.~.~.~.~.~.~.~.~.~.~.~.~.~.~.~.~.~.~.~.~.~.~.~.~.~.",
"~.~.~.~.~.~.~.~.~.~.~.~.~.~.~.~.~.~.~.~.~.~.~.~.~.~.~.~.~.~.~.~.~.~.~.~.~.~.~.~.~.~.~.~.~.~.~.~.~.~.~.~.~.~.~.~.~.~.~.~.~.~.~.~.~.~.~.~.~.~.~.~.~.~.~.~.~.~.~.~.",
"~.~.~.~.~.~.~.~.~.~.~.~.~.~.~.~.~.~.~.~.~.~.~.~.~.~.~.~.~.~.~.~.~.~.~.~.~.~.~.~.~.~.~.~.~.~.~.~.~.~.~.~.~.~.~.~.~.~.~.~.~.~.~.~.~.~.~.~.~.~.~.~.~.~.~.).~.~.~.~.",
"~.~.~.~.~.~.~.~.~.~.~.~.~.~.~.~.~.~.~.~.~.~.~.~.~.~.~.~.~.~.~.~.~.~.~.~.~.~.~.~.~.~.~.~.~.~.~.~.~.~.~.~.~.~.~.~.~.~.~.~.~.~.~.~.~.~.~.~.~.~.~.~.~.~.~.~.~.~.~.~.",
"~.~.~.~.~.~.~.~.~.~.~.~.~.~.~.~.~.~.~.~.~.~.~.~.~.~.~.~.~.~.~.~.~.~.~.~.~.~.~.~.~.~.~.~.~.~.~.~.~.~.~.~.~.~.~.~.~.~.~.~.~.~.~.~.~.~.~.~.~.~.~.~.~.~.~.~.~.~.~.~."
};
