/* XPM */
static xpm_row_t const p2_left_2[] = {
/* columns rows colors chars-per-pixel */
"60 90 186 2 ",
"   c #FFFFFF",
".  c #F0F0F0",
"X  c #E0E0E0",
"o  c #D0D0D0",
"O  c #C0C0C0",
"+  c #B0B0B0",
"@  c #A0A0A0",
"#  c #909090",
"$  c #808080",
"%  c #707070",
"&  c #605050",
"*  c #504040",
"=  c #403030",
"-  c #302020",
";  c #201010",
":  c #101010",
">  c #202020",
",  c #303030",
"<  c #404040",
"1  c #505050",
"2  c #606060",
"3  c #505050",
"4  c #606060",
"5  c #707070",
"6  c #505050",
"7  c #606060",
"8  c #707070",
"9  c #808080",
"0  c #909090",
"q  c #A0A0A0",
"w  c #808080",
"e  c #909090",
"r  c #A0A0A0",
"t  c #B0B0B0",
"y  c #C0C0C0",
"u  c #B0B0B0",
"i  c #C0C0C0",
"p  c #433D20",
"a  c #4C3723",
"s  c #433B33",
"d  c #483F35",
"f  c #403730",
"g  c #6B4318",
"h  c #744518",
"j  c #734C19",
"k  c #784716",
"l  c #6F5716",
"z  c #775217",
"x  c #72641F",
"c  c #4C4422",
"v  c #5D542C",
"b  c #4A4136",
"n  c #4E4439",
"m  c #41413F",
"M  c #53463A",
"N  c #776720",
"B  c #2D3253",
"V  c #2E3353",
"C  c #313960",
"Z  c #403F40",
"A  c #434343",
"S  c #484847",
"D  c #484748",
"F  c #4C4B4C",
"G  c #5E5245",
"H  c #504F50",
"J  c #535353",
"K  c #5A5A5A",
"L  c #635445",
"P  c #645648",
"I  c #6D5D4D",
"U  c #67584A",
"Y  c #7E6B58",
"T  c #786758",
"R  c #494D63",
"E  c #5E6278",
"W  c #78787B",
"Q  c #686867",
"!  c #894C16",
"~  c #894D18",
"^  c #804918",
"/  c #8D5119",
"(  c #8C591A",
")  c #935518",
"_  c #945919",
"`  c #9D5D19",
"'  c #8C6118",
"]  c #9D6219",
"[  c #A76619",
"{  c #A76819",
"}  c #AF7218",
"|  c #BD7A1C",
" . c #935E2E",
".. c #845A33",
"X. c #917825",
"o. c #8E7D38",
"O. c #B97B21",
"+. c #A36C3B",
"@. c #A06836",
"#. c #84725D",
"$. c #AA794D",
"%. c #B07D4D",
"&. c #8B7862",
"*. c #917D66",
"=. c #B18E18",
"-. c #9A852B",
";. c #94823A",
":. c #B39327",
">. c #C8941A",
",. c #C58B15",
"<. c #DBAD1D",
"1. c #D2A113",
"2. c #DCB51B",
"3. c #E5BB19",
"4. c #E4B816",
"5. c #CA9728",
"6. c #CFB023",
"7. c #DBB42A",
"8. c #DCB124",
"9. c #CBB13E",
"0. c #DCBE35",
"q. c #E2B622",
"w. c #E3BA2E",
"e. c #E1B73D",
"r. c #F6D01A",
"t. c #EDC72C",
"y. c #F2CB25",
"u. c #F5D12C",
"i. c #EDCA3B",
"p. c #F1CC39",
"a. c #F8D53C",
"s. c #B38254",
"d. c #BA8859",
"f. c #99846B",
"g. c #A48669",
"h. c #A48B72",
"j. c #AC8E73",
"k. c #AB937A",
"l. c #B29779",
"z. c #BA9A7D",
"x. c #B29679",
"c. c #B99169",
"v. c #E8BB44",
"b. c #C6986C",
"n. c #C8A37F",
"m. c #EDC548",
"M. c #6E7285",
"N. c #868585",
"B. c #898C9A",
"V. c #939292",
"C. c #999899",
"Z. c #BA9F82",
"A. c #A09E9E",
"S. c #BEA283",
"D. c #999AA4",
"F. c #A5A4A4",
"G. c #ABAAA9",
"H. c #BBBABA",
"J. c #C3A385",
"K. c #CBA687",
"L. c #C7AA89",
"P. c #CDAC8C",
"I. c #CBAA87",
"U. c #DBB38D",
"Y. c #DEBA95",
"T. c #D5B693",
"R. c #D5AB82",
"E. c #E3BE9A",
"W. c #E5BE95",
"Q. c #E6C29D",
"!. c #E6C097",
"~. c #DCC3B0",
"^. c #EBC6A1",
"/. c #EDCAA4",
"(. c #EFCDAF",
"). c #F0CAA4",
"_. c #EFCFB3",
"`. c #F3D3B8",
"'. c #CBCACA",
"]. c #C4C3C3",
"[. c #D3D3D3",
"{. c #DBDADA",
"}. c #D8D7D7",
"|. c #F7DDCA",
" X c #E4E3E3",
".X c #00B140",
/* pixels */
".X.X.X.X.X.X.X.X.X.X.X.X.X.X.X.X.X.X.X.X.X.X.X.X.X.X.X.X.X.X.X.X.X.X.X.X.X.X.X.X.X.X.X.X.X.X.X.X.X.X.X.X.X.X.X.X.X.X.X.X",
".X.X.X.X.X.X.X.X.X.X.X.X.X.X.X.X.X.X.X.X.X.X.X.X.X.X.X.X.X.X.X.X.X.X.X.X.X.X.X.X.X.X.X.X.X.X.X.X.X.X.X.X.X.X.X.X.X.X.X.X",
".X.X.X.X.X.X.X.X.X.X.X.X.X.X.X.X.X.X.X.X.X.X.X.X.X.X.X.X.X.X.X.X.X.X.X.X.X.X.X.X.X.X.X.X.X.X.X.X.X.X.X.X.X.X.X.X.X.X.X.X",
".X.X.X.X.X.X.X.X.X.X.X.X.X.X.X.X.X.X.X.X.X.X.X.X.X.X.X.X.X.X.X.X.X.X.X.X.X.X.X.X.X.X.X.X.X.X.X.X.X.X.X.X.X.X.X.X.X.X.X.X",
".X.X.X.X.X.X.X.X.X.X.X.X.X.X.X.X.X.X.X.X.X.X.X.X.X.X.X.X.X.X.X.X.X.X.X.X.X.X.X.X.X.X.X.X.X.X.X.X.X.X.X.X.X.X.X.X.X.X.X.X",
".X.X.X.X.X.X.X.X.X.X.X.X.X.X.X.X.X.X.X.X.X.X.X.X.X.X.X.X.X.X.X.X.X.Xo o .X.X.X.X.X.X.X.X.X.X.X.X.X.X.X.X.X.X.X.X.X.X.X.X",
".X.X.X.X.X.X.X.X.X.X.X.X.X.X.X.X.X.X.X.X.X.X.X.X.X.X.X.X.X.X.Xo o O > > o .X.X.X.X.X.X.X.X.X.X.X.X.X.X.X.X.X.X.X.X.X.X.X",
".X.X.X.X.X.X.X.X.X.X.X.X.X.X.X.X.X.X.X.X.X.X.X.XO O o o o O + > 0 A J A + o .X.X.X.X.X.X.X.X.X.X.X.X.X.X.X.X.X.X.X.X.X.X",
".X.X.X.X.X.X.X.X.X.X.X.X.X.X.X.X.X.X.X.XO O o + $ 1 6 e e S F J K K K H 0 $ o .X.X.X.X.X.X.X.X.X.X.X.X.X.X.X.X.X.X.X.X.X",
".X.X.X.X.X.X.X.X.X.X.X.X.X.X.X.X.X.XO O + 5 e S J K K K K K K K K K K K J F 4 O o .X.X.X.X.X.X.X.X.X.X.X.X.X.X.X.X.X.X.X",
".X.X.X.X.X.X.X.X.X.X.X.X.X.X.X.Xo O > e F K K J K K K K K K K J J J J J K K K 0 O o .X.X.X.X.X.X.X.X.X.X.X.X.X.X.X.X.X.X",
".X.X.X.X.X.X.X.X.X.X.X.X.X.Xo o > e K K K J K K K K K K K K K K K K K K K K K K S 1 O o .X.X.X.X.X.X.X.X.X.X.X.X.X.X.X.X",
".X.X.X.X.X.X.X.X.X.X.X.X.Xo O e J K K K K K K K K K K K K K K K K K K J K K K K K J e $ O .X.X.X.X.X.X.X.X.X.X.X.X.X.X.X",
".X.X.X.X.X.X.X.X.X.X.X.Xo , S K K K K K K K K K K K K K K K K K K K J K K J J K J K J S , o .X.X.X.X.X.X.X.X.X.X.X.X.X.X",
".X.X.X.X.X.X.X.X.X.XO O 6 J K K Q K K K K K K K K K K K K K J K J K J J J J K K K K K K H < o .X.X.X.X.X.X.X.X.X.X.X.X.X",
".X.X.X.X.X.X.X.X.Xo O 0 J K K K K K K K K K K K J K K K J K K K K J J K K K J J J K J K K F 1 O .X.X.X.X.X.X.X.X.X.X.X.X",
".X.X.X.X.X.X.X.Xo + e K K K K K K K K K K J K K K K J K J J J J J H J H H J J H H J H H K K J 1 o .X.X.X.X.X.X.X.X.X.X.X",
".X.X.X.X.X.X.Xo $ m K K K K K K K K K K K K J J J K J J J J J J J J H H H J H J J H J H H J K J 1 o .X.X.X.X.X.X.X.X.X.X",
".X.X.X.X.X.Xo O m K K K K K K K K K K J J J J J J J J J K J J J J H H J J H H J H H H H D F F H e O o .X.X.X.X.X.X.X.X.X",
".X.X.X.X.XO O Z K K K K K K K J J J J J J J J J J J J J J J J J J H H J H H H H F H H F A D F D A 0 O o .X.X.X.X.X.X.X.X",
".X.X.X.X.Xo e K K K K K K J H H H K J K K J J K J J J J H H H J H H J H H H F F H H S F F F F S A 0 1 o o .X.X.X.X.X.X.X",
".X.X.X.Xo 0 J K K K J J J J J K K J K J J J J J H J J H J J H H J H J H H H H F S F F F F S S S A 0 0 , O .X.X.X.X.X.X.X",
".X.X.Xo > J K K K J J J K J J J H H H H F H H H J H J H H H J H J J H H H F D F F H F S F S S F D e 0 0 O o .X.X.X.X.X.X",
".X.X.Xo A K K J J J J J J H H H H H H H J H H J H J H H F H J J H H H F F F H H F D D D A Z S S A e 0 e 1 O .X.X.X.X.X.X",
".X.Xo 1 K K J F F H J H J H H J H H H H J H H J H H H H F R H F F F F H H H F S D F D A Z Z S m e e 0 0 0 + o .X.X.X.X.X",
".X.XO A K J J H J H H H H H J H J H J J H H J H H H F F F F S S F F F F F A A F D A A A e S m e e e e e 0 , O .X.X.X.X.X",
".Xo < J J H H F F H H H H H J J J F F F H H H J H F S S F F F F F F S F S F F A A S Z e A m w e e e 0 0 e 1 + o .X.X.X.X",
".Xo e K A A S A A S F H H H F F F F F F D S D D F F F H F F F F F S F S S F A A A Z Z S S V m e e e e e e 0 > O .X.X.X.X",
".XO D S V n Z e A S A S S S A A S S F F A S D D S F S F S D D D D S S A A m A m e m D A m e e Z e e e e e 0 1 O .X.X.X.X",
".XO 0 e e e e Z A S S A n V A A S S A F S S D D S S S S D D A A S A A A Z e Z A S A Z e e e e e e e e e e 0 9 $ o .X.X.X",
".Xo 1 0 e m m A A m A S S S S S S F F F S S A A A A A A A Z e e Z A A A A A S A m e e e Z Z Z e e e e 0 e 0 0 1 O .X.X.X",
".Xo > 6 e m m Z e e e m A A A A A A A A m m A A A A e Z e Z Z A A A A S S A e e e e Z e e Z Z Z e e e 0 e 0 4 1 O .X.X.X",
".XO O 1 0 e e e e e e Z e e m n m m Z Z A A A A Z e e e Z m m Z Z A S A m e e e e m Z Z e m Z e e e e 0 e 0 0 1 O o .X.X",
".X.XO O 1 0 e e e e 0 e e e e V Z Z m Z A m A A A A Z A S A S S A A m e e e m e e Z Z Z Z e e e e e 0 e e e 0 1 $ o .X.X",
".X.X.Xo O 1 0 0 0 e e 0 e e 0 e Z e Z Z Z Z Z Z Z e Z e Z A m e Z e e e Z e e m m Z e e e e e e e e 0 e e 0 0 0 > O .X.X",
".X.X.X.Xo O , 1 0 0 e 0 w e e 0 e e e e e Z e Z Z e e e 0 e e e B w e e e m e e e Z m e e e e e e 0 e e e 0 1 1 > O .X.X",
".X.X.X.XX o o + , 1 1 0 0 e e e 0 e e e e e e 0 e e e e e e e e e e e e e e e m m m e e e e e e 0 0 0 e e 0 0 1 > o .X.X",
".X.X.X.Xo % r # + > 1 1 1 4 0 0 0 e e e Z e e e e e e e e m e e e m e e m Z e Z e e e e e e e e 0 e e e 0 9 0 1 < + + .X",
".X.X.X.Xo % k h - o X + > 1 1 0 0 0 9 e e e e e e Z Z e e e e e e e e Z e e Z e e 0 e e e e e e e e e e 0 0 0 0 1 O O .X",
".X.X.X.X.Xo y r o + s 5 O O > 1 0 e 0 0 0 e e e e 0 0 e 0 e e m Z Z e e e e e e 0 e e e e e 0 0 e 0 0 0 0 0 1 1 1 O + .X",
".X.X.X.X.X. o o n &.l.l.#.b O O 1 1 0 0 0 e e e e e e e e m e e e e e 0 e 0 0 0 e e e e e 0 e e 0 e e 0 0 0 1 1 1 + O .X",
".X.X.X.X.X.X. + f.T./.Q.T.S.#.4 O > 1 0 0 0 e 0 0 e e e e e e e e e 0 e 0 e e 0 0 e e 0 0 0 e 0 e e 0 0 0 0 1 1 1 O O .X",
".X.X.X.X.X.X. , L./.).Q.!.R.$...u O > 1 0 0 0 e e e e e e e e e 0 e e e e 0 0 9 e e 0 0 0 e 0 e e 0 0 0 1 1 1 1 1 O O .X",
".X.X.X.X.X.X. 7 L.W./.U.+.( ~ ~ ( i O > 0 6 0 e 0 0 e e 0 e 0 0 e e 0 0 0 0 0 e 0 0 e e e e e e 0 0 0 0 0 1 1 1 1 + O .X",
".X.X.X.X.X.X. 7 P.^.!.s.( @.d.b.d. .; + > 9 6 0 0 0 0 0 0 0 e 0 0 0 0 0 e e 0 e 0 e e 0 e 0 0 0 e 0 6 0 1 1 1 > 1 O O .X",
".X.X.X.X.X.XX s T.Y.+.+.b.I.z.S.J.n.g.5 + 1 0 0 0 0 e 0 0 0 0 0 0 0 0 e 0 0 0 e e e e e e 0 e 0 0 9 0 1 1 1 1 1 < O .X.X",
".X.X.X.X.X.XX w J.%.%.g.L 6 < < 3 b f.Y O $ 0 0 9 0 0 0 e 0 e 0 0 0 e 0 e e 0 e 0 0 0 0 0 0 0 0 6 9 6 1 1 1 > 1 , O .X.X",
".X.X.X.X.X.Xo a $.c.I > 1 N.G.F.N.H w n.m o 1 0 0 0 0 0 0 0 0 0 e e 0 0 0 0 0 0 0 e e 0 e 0 0 0 0 0 1 1 9 > 1 1 > o .X.X",
".X.X.X.X.X.Xo 8 x.G O 9 C D. X{.'.A.q P.f.X < 0 1 0 1 0 0 0 0 0 0 0 0 0 0 0 0 0 0 0 0 0 0 1 0 0 1 1 1 0 1 > 1 1 + O .X.X",
".X.X.X.X.X.XX , n > : : V E {.{.'.F.q L.L.< > 9 1 0 1 0 1 0 0 0 0 0 0 1 9 0 0 1 1 0 1 0 0 0 1 1 1 1 1 1 1 1 1 > O O .X.X",
".X.X.X.X.X.X.XO , M.9 @ B E {.{.'.C.7 P.Q.n + 1 1 1 0 0 0 0 0 0 1 0 6 0 6 6 0 0 0 1 0 1 1 1 1 0 1 1 0 1 1 > > > O .X.X.X",
".X.X.X.X.X.X.XO > C.R B C B. X{.'.W b Q./.P O , 1 1 0 1 1 0 1 1 1 0 1 0 9 0 1 0 6 9 0 1 1 1 1 1 1 0 1 1 > 1 1 + o .X.X.X",
".X.X.X.X.X.X.XO , K A.M.B.}. X}.H.Z Y /./.I O 1 1 1 1 1 0 1 0 0 0 1 0 1 1 0 1 1 1 1 0 1 9 5 1 0 0 1 1 1 2 1 1 o .X.X.X.X",
".X.X.X.X.X.X.X, T 4 N.[.{.{.}.].Q 7 P./.h.1 O > 1 1 0 1 1 1 1 1 1 1 1 1 1 1 1 0 0 1 0 0 0 6 0 1 1 1 > 1 1 1 > O .X.X.X.X",
".X.X.X.X.X.X.X% j.#.< K V.F.V.H < j./.h., O + > < 1 1 9 0 0 < 1 1 1 0 1 0 0 0 0 0 0 1 0 9 1 1 > > 1 > > 1 < o .X.X.X.X.X",
".X.X.X.X.X.X.X+ f L U 7 < 1 < n l.Q.h.< c c + , > 1 1 0 0 1 1 1 0 1 1 1 1 1 1 1 1 1 1 1 1 1 1 1 1 > 1 1 1 O o .X.X.X.X.X",
".X.X.X.X.X.X.XO p ; , b U &.l.T.z.P > v 9.c O 2 > 1 1 1 0 0 0 0 1 1 1 1 1 1 1 2 1 1 2 1 1 1 1 > > 1 1 > O o .X.X.X.X.X.X",
".X.X.X.X.X.X.XO X.7.-.c % 1 e 7 , 8 ;.i.2.- > > 1 1 1 1 1 1 1 0 1 0 0 1 1 1 1 1 > 1 1 1 > > > 1 1 1 > o o .X.X.X.X.X.X.X",
".X.X.X.X.X.X.Xo h 4.y.6.:.o.x x -.w.a.y.=.& > 1 1 > 1 1 1 1 1 1 1 1 1 1 1 1 1 < > 1 > 1 1 2 1 1 > > o o .X.X.X.X.X.X.X.X",
".X.X.X.X.X.X.Xo - l X.:.m.y.3.3.4.q.p.<.' O > 1 > 1 > 1 1 1 1 1 1 1 1 1 1 1 1 1 1 1 1 > 1 1 > > O o . .X.X.X.X.X.X.X.X.X",
".X.X.X.X.X.X.Xo o u 5.p.r.<.7.y.8.=.w.5.x O > > 1 1 > 1 1 2 > > 1 > > 1 1 > 1 > 1 > 1 1 > > O o . .X.X.X.X.X.X.X.X.X.X.X",
".X.X.X.X.X.X.X.Xo t } v.q.r.3.3.t.8.v.O.l O > 2 > 1 > 1 1 > 1 1 1 1 1 1 > 1 > 1 > > > O o o X .X.X.X.X.X.X.X.X.X.X.X.X.X",
".X.X.X.X.X.X.X.Xo % ( | | 1.1.,.>.v.:.z ; o $ 1 1 > 1 1 1 1 2 > > > > > $ 2 $ O O o o X . .X.X.X.X.X.X.X.X.X.X.X.X.X.X.X",
".X.X.X.X.X.X.X.XO O h ` [ { { | } k % o o o O $ > 2 O O O O O O O O O O O O o X . .X.X.X.X.X.X.X.X.X.X.X.X.X.X.X.X.X.X.X",
".X.X.X.X.X.X.X.X.XO j / / ` / ) [ * o o O O O + O + + X O + O > 0 e e e 0 1 O . .X.X.X.X.X.X.X.X.X.X.X.X.X.X.X.X.X.X.X.X",
".X.X.X.X.X.X.X.X.Xo & ( ) ) / ) g @ o O 0 e 0 0 e e > o e m + 0 H F F H S e 9 o O .X.X.X.X.X.X.X.X.X.X.X.X.X.X.X.X.X.X.X",
".X.X.X.X.X.X.X.X.Xo o g / ) / ( t o o > e m m A S e + 0 K J $ 0 K K K J F e e > O .X.X.X.X.X.X.X.X.X.X.X.X.X.X.X.X.X.X.X",
".X.X.X.X.X.X.X.X.X.XX t ! ` ~ r o o o 1 e m m A S 1 > J K S + 0 J J J J F m e 1 O .X.X.X.X.X.X.X.X.X.X.X.X.X.X.X.X.X.X.X",
".X.X.X.X.X.X.X.X.X.XO + k _ ^ % o o o 0 e V e S 0 O 0 J F e + 0 J J J F F Z Z 0 + O .X.X.X.X.X.X.X.X.X.X.X.X.X.X.X.X.X.X",
".X.X.X.X.X.X.X.X.X.X.Xo i g = O o o > e w b Z Z $ > m F S 0 O 0 J J J F S Z Z 0 $ O .X.X.X.X.X.X.X.X.X.X.X.X.X.X.X.X.X.X",
".X.X.X.X.X.X.X.X.X.X.XO @ + o O .XO 1 0 e Z m 1 O 9 S S e 0 O e J J J F A m e Z < o .X.X.X.X.X.X.X.X.X.X.X.X.X.X.X.X.X.X",
".X.X.X.X.X.X.X.X.X.X.X.Xo O o .Xo O 0 e e m e + > 0 A m e 1 X e S S F A m Z e m 1 O + .X.X.X.X.X.X.X.X.X.X.X.X.X.X.X.X.X",
".X.X.X.X.X.X.X.X.X.X.X.X.X.X.X.XO O 0 e e e 1 X $ 1 0 e e 1 O e S S S A Z Z e e 4 + O .X.X.X.X.X.X.X.X.X.X.X.X.X.X.X.X.X",
".X.X.X.X.X.X.X.X.X.X.X.X.X.X.X.Xo > 0 0 e 0 @ 7 6 + O > 1 + + Z A A A Z Z Z e e 0 + O .X.X.X.X.X.X.X.X.X.X.X.X.X.X.X.X.X",
".X.X.X.X.X.X.X.X.X.X.X.X.X.X.X.XO $ 0 e 0 O M S.P.k.T 0 + o > m Z A A m Z m e 0 9 $ O .X.X.X.X.X.X.X.X.X.X.X.X.X.X.X.X.X",
".X.X.X.X.X.X.X.X.X.X.X.X.X.X.X.Xo > 0 e 1 > j.E./.`.|.~.h.q > Z A Z Z Z Z Z e e 6 > O .X.X.X.X.X.X.X.X.X.X.X.X.X.X.X.X.X",
".X.X.X.X.X.X.X.X.X.X.X.X.X.X.X.Xo > 0 0 1 3 z.^.)._.`._.Q.Y + e m Z Z m m e e e 0 > O .X.X.X.X.X.X.X.X.X.X.X.X.X.X.X.X.X",
".X.X.X.X.X.X.X.X.X.X.X.X.X.X.X.Xo > 9 0 1 $ g.!./._._.).Y.Y + e Z m m Z Z e 0 0 9 > O .X.X.X.X.X.X.X.X.X.X.X.X.X.X.X.X.X",
".X.X.X.X.X.X.X.X.X.X.X.X.X.X.X.XO > 6 6 9 O L I.Q./.Q.!.L.n > e Z Z e e e e e 0 4 > O .X.X.X.X.X.X.X.X.X.X.X.X.X.X.X.X.X",
".X.X.X.X.X.X.X.X.X.X.X.X.X.X.X.Xo , 1 9 4 , + L x.K.I.z.U + 9 e e e e e e 0 0 0 1 > O .X.X.X.X.X.X.X.X.X.X.X.X.X.X.X.X.X",
".X.X.X.X.X.X.X.X.X.X.X.X.X.X.X.XO > 1 1 0 9 , o < b b 5 + < 0 0 0 0 0 0 0 0 1 0 1 > o .X.X.X.X.X.X.X.X.X.X.X.X.X.X.X.X.X",
".X.X.X.X.X.X.X.X.X.X.X.X.X.X.X.Xo > 1 1 4 1 0 < $ + O $ 1 9 0 0 0 1 0 1 1 0 1 < > + + .X.X.X.X.X.X.X.X.X.X.X.X.X.X.X.X.X",
".X.X.X.X.X.X.X.X.X.X.X.X.X.X.X.XO O O O + + $ $ + > + > > > > + $ $ $ $ $ O O O o O o .X.X.X.X.X.X.X.X.X.X.X.X.X.X.X.X.X",
".X.X.X.X.X.X.X.X.X.X.X.X.X.X.X.XO $ < O O o + O O O O O X O o O O O + $ $ > < < O + .X.X.X.X.X.X.X.X.X.X.X.X.X.X.X.X.X.X",
".X.X.X.X.X.X.X.X.X.X.X.X.X.X.X.Xo $ < $ O $ $ $ $ % $ O o .X.XO O , 5 6 6 6 6 5 + o .X.X.X.X.X.X.X.X.X.X.X.X.X.X.X.X.X.X",
".X.X.X.X.X.X.X.X.X.X.X.X.X.X.X.XO O O o o o $ $ $ $ O O .X.XO + $ + $ 5 5 5 5 , + O .X.X.X.X.X.X.X.X.X.X.X.X.X.X.X.X.X.X",
".X.X.X.X.X.X.X.X.X.X.X.X.X.X.X.X.X.X.Xo o O o o + + O O .X.XO 6 w $ O $ $ $ $ + O O .X.X.X.X.X.X.X.X.X.X.X.X.X.X.X.X.X.X",
".X.X.X.X.X.X.X.X.X.X.X.X.X.X.X.X.X.X.X.X.X.X.XO O O O O .X.XO $ % O O O O O o O O .X.X.X.X.X.X.X.X.X.X.X.X.X.X.X.X.X.X.X",
".X.X.X.X.X.X.X.X.X.X.X.X.X.X.X.X.X.X.X.X.X.X.X.X.X.X.X.X.X.X+ O O O O .X.X.X.X.X.X.X.X.X.X.X.X.X.X.X.X.X.X.X.X.X.X.X.X.X",
".X.X.X.X.X.X.X.X.X.X.X.X.X.X.X.X.X.X.X.X.X.X.X.X.X.X.X.X.X.X.X.X.X.X.X.X.X.X.X.X.X.X.X.X.X.X.X.X.X.X.X.X.X.X.X.X.X.X.X.X"
};
