/* XPM */
static xpm_row_t const p2_left_4[] = {
/* columns rows colors chars-per-pixel */
"60 90 186 2 ",
"   c #FFFFFF",
".  c #F0F0F0",
"X  c #E0E0E0",
"o  c #D0D0D0",
"O  c #C0C0C0",
"+  c #B0B0B0",
"@  c #A0A0A0",
"#  c #909090",
"$  c #808080",
"%  c #707070",
"&  c #605050",
"*  c #504040",
"=  c #403030",
"-  c #302020",
";  c #201010",
":  c #101010",
">  c #202020",
",  c #303030",
"<  c #404040",
"1  c #505050",
"2  c #606060",
"3  c #505050",
"4  c #606060",
"5  c #707070",
"6  c #505050",
"7  c #606060",
"8  c #707070",
"9  c #808080",
"0  c #909090",
"q  c #A0A0A0",
"w  c #808080",
"e  c #909090",
"r  c #A0A0A0",
"t  c #B0B0B0",
"y  c #C0C0C0",
"u  c #B0B0B0",
"i  c #C0C0C0",
"p  c #4A3F35",
"a  c #433D25",
"s  c #594618",
"d  c #644A17",
"f  c #69461A",
"g  c #754517",
"h  c #5B4827",
"j  c #5F5425",
"k  c #4A4136",
"l  c #41403F",
"z  c #4D4339",
"x  c #554A3E",
"c  c #584C3F",
"v  c #685C28",
"b  c #7E5C3C",
"n  c #292B44",
"m  c #2A2F51",
"M  c #333A5C",
"N  c #403F40",
"B  c #3E4466",
"V  c #434343",
"C  c #484748",
"Z  c #4B4B4B",
"A  c #5A4E42",
"S  c #5D5143",
"D  c #504F50",
"F  c #4F5050",
"G  c #535353",
"H  c #585758",
"J  c #5A5A5A",
"K  c #585755",
"L  c #625445",
"P  c #6C5D4D",
"I  c #60554A",
"U  c #6F604F",
"Y  c #61605F",
"T  c #756453",
"R  c #796755",
"E  c #7E6B58",
"W  c #535461",
"Q  c #565A73",
"!  c #696868",
"~  c #854E18",
"^  c #894C16",
"/  c #8E5119",
"(  c #845218",
")  c #925418",
"_  c #9B5C19",
"`  c #935D18",
"'  c #8B7018",
"]  c #AB6A1A",
"[  c #A56619",
"{  c #B6761A",
"}  c #AA7717",
"|  c #915722",
" . c #99612E",
".. c #9B6331",
"X. c #827334",
"o. c #86742B",
"O. c #A26C3A",
"+. c #80654B",
"@. c #936840",
"#. c #836E5B",
"$. c #89725E",
"%. c #82705B",
"&. c #B27F4F",
"*. c #A97442",
"=. c #8B7761",
"-. c #8E7A64",
";. c #927A63",
":. c #9A7F67",
">. c #AD931C",
",. c #A38C29",
"<. c #AC8021",
"1. c #AE9534",
"2. c #B7A03A",
"3. c #C6881C",
"4. c #C78F16",
"5. c #CB9819",
"6. c #D6A514",
"7. c #E0B519",
"8. c #E8BE1A",
"9. c #E2B918",
"0. c #D0972D",
"q. c #C48424",
"w. c #D5A926",
"e. c #CBA92F",
"r. c #E1B730",
"t. c #E6BE28",
"y. c #EBC31E",
"u. c #F7CE1A",
"i. c #EAC32B",
"p. c #ECC523",
"a. c #F0C721",
"s. c #EFCD31",
"d. c #F0CB34",
"f. c #F8D433",
"g. c #B68558",
"h. c #9A836A",
"j. c #A0896F",
"k. c #B08D69",
"l. c #B39579",
"z. c #B8997C",
"x. c #A99075",
"c. c #E7BC42",
"v. c #C2976F",
"b. c #C89D74",
"n. c #CEA479",
"m. c #E4C640",
"M. c #F5D045",
"N. c #6E7183",
"B. c #888786",
"V. c #939293",
"C. c #999897",
"Z. c #888A95",
"A. c #BD9F82",
"S. c #A8978B",
"D. c #BAA081",
"F. c #9799A4",
"G. c #A4A5AE",
"H. c #B3B2B2",
"J. c #BEBDBD",
"K. c #CCAD8C",
"L. c #C7A787",
"P. c #D3AA81",
"I. c #D8B28C",
"U. c #D3B291",
"Y. c #DCB996",
"T. c #DDBA96",
"R. c #E3BE9A",
"E. c #E3BC94",
"W. c #E6C29D",
"Q. c #E9C39E",
"!. c #DDC5B3",
"~. c #E9C6A3",
"^. c #EDC9A4",
"/. c #EFCCAC",
"(. c #F3CDA6",
"). c #F0CCAA",
"_. c #EFCEB2",
"`. c #EFD0B6",
"'. c #BABAC0",
"]. c #C5C3C3",
"[. c #D3D2D3",
"{. c #DEDDDD",
"}. c #F7DAC4",
"|. c #E0DFDF",
" X c #E4E3E3",
".X c #00B140",
/* pixels */
".X.X.X.X.X.X.X.X.X.X.X.X.X.X.X.X.X.X.X.X.X.X.X.X.X.X.X.X.X.X.X.X.X.X.X.X.X.X.X.X.X.X.X.X.X.X.X.X.X.X.X.X.X.X.X.X.X.X.X.X",
".X.X.X.X.X.X.X.X.X.X.X.X.X.X.X.X.X.X.X.X.X.X.X.X.X.X.X.X.X.X.X.X.X.X.X.X.X.X.X.X.X.X.X.X.X.X.X.X.X.X.X.X.X.X.X.X.X.X.X.X",
".X.X.X.X.X.X.X.X.X.X.X.X.X.X.X.X.X.X.X.X.X.X.X.X.X.X.X.X.X.X.X.X.X.X.X.X.X.X.X.X.X.X.X.X.X.X.X.X.X.X.X.X.X.X.X.X.X.X.X.X",
".X.X.X.X.X.X.X.X.X.X.X.X.X.X.X.X.X.X.X.X.X.X.X.X.X.X.X.X.X.X.X.X.X.X.X.X.X.X.X.X.X.X.X.X.X.X.X.X.X.X.X.X.X.X.X.X.X.X.X.X",
".X.X.X.X.X.X.X.X.X.X.X.X.X.X.X.X.X.X.X.X.X.X.X.X.X.X.X.X.X.X.X.X.X.X.X.X.X.X.X.X.X.X.X.X.X.X.X.X.X.X.X.X.X.X.X.X.X.X.X.X",
".X.X.X.X.X.X.X.X.X.X.X.X.X.X.X.X.X.X.X.X.X.X.X.X.X.X.X.X.X.X.X.X.X.XX X .X.X.X.X.X.X.X.X.X.X.X.X.X.X.X.X.X.X.X.X.X.X.X.X",
".X.X.X.X.X.X.X.X.X.X.X.X.X.X.X.X.X.X.X.X.X.X.X.X.X.X.X.X.X.XX X X $ < : X .X.X.X.X.X.X.X.X.X.X.X.X.X.X.X.X.X.X.X.X.X.X.X",
".X.X.X.X.X.X.X.X.X.X.X.X.X.X.X.X.X.X.X.X.X.X.X.XX X X X o o $ < w Z G C $ X .X.X.X.X.X.X.X.X.X.X.X.X.X.X.X.X.X.X.X.X.X.X",
".X.X.X.X.X.X.X.X.X.X.X.X.X.X.X.X.X.X.X.X.Xo X o $ < 9 w l Z G J J J J G w : X X .X.X.X.X.X.X.X.X.X.X.X.X.X.X.X.X.X.X.X.X",
".X.X.X.X.X.X.X.X.X.X.X.X.X.X.X.X.X.Xo X o < w Z G J J J J J J J J H J J K G q o X .X.X.X.X.X.X.X.X.X.X.X.X.X.X.X.X.X.X.X",
".X.X.X.X.X.X.X.X.X.X.X.X.X.X.X.XX o : w Z J J J J J J J J J J G G G G G J J J l : o o .X.X.X.X.X.X.X.X.X.X.X.X.X.X.X.X.X",
".X.X.X.X.X.X.X.X.X.X.X.X.X.XX X $ q F J J G G J J J Y J J J J J J J J J J J J J G q + o .X.X.X.X.X.X.X.X.X.X.X.X.X.X.X.X",
".X.X.X.X.X.X.X.X.X.X.X.X.X. o 5 F J J J J J J J J J J J J J J J J J K K G H H H H H C > X .X.X.X.X.X.X.X.X.X.X.X.X.X.X.X",
".X.X.X.X.X.X.X.X.X.X.X.XX : V H Y J J J J J Y J J J Y J J J J J J H K H H H H H K G H G 9 o o .X.X.X.X.X.X.X.X.X.X.X.X.X",
".X.X.X.X.X.X.X.X.X.X.XX > Z J J J J J Y J J J J J J J J K H H J J G H G H H H J J J J J K 9 o o .X.X.X.X.X.X.X.X.X.X.X.X",
".X.X.X.X.X.X.X.X.XX o < F J J J J J J J J J J H H K J H J J G H G H H K H H G G G G H K J H w o X .X.X.X.X.X.X.X.X.X.X.X",
".X.X.X.X.X.X.X.Xo o 9 G J J J J J J J J J H K H J G G G H G G G G F F G G G G D F G F F G H J w o o .X.X.X.X.X.X.X.X.X.X",
".X.X.X.X.X.X.XX o 9 G J J J J J Y J J J J H H G H G G H G K G G G G F F G G Z G G F G F F F H H q o o .X.X.X.X.X.X.X.X.X",
".X.X.X.X.X.Xo o 9 J J J J J J J J J J K G G G G K G G G G G G G G F G F Z G G D Z F F F C C C Z n > X .X.X.X.X.X.X.X.X.X",
".X.X.X.X.X.Xo < G J J J J J J H G G G G G G G G G G G K G G G G F G D G F G D F Z F F C C C Z Z C 9 : o .X.X.X.X.X.X.X.X",
".X.X.X.X.XX > G J J J J K K G F G G G J H K G H G G G G G G G F F G D G G Z Z Z F Z Z Z Z Z Z C C q 9 : X .X.X.X.X.X.X.X",
".X.X.X.Xo : Z J J J J G F G K K J G J G G G G F G F F F F G Z G G F F D G Z D Z Z Z Z Z Z C C C C q 9 5 o X .X.X.X.X.X.X",
".X.X.X.Xo V J J K G G K H G G G G G F F Z F F G G F F G F F G G G F G D G Z Z Z Z Z Z Z C C C C C q q 9 > o .X.X.X.X.X.X",
".X.X.XX 3 J J J K G G G G G D G Z G G F F G F F F D G D D Z Z G F D D Z Z Z Z Z Z Z C C V N C C l w w 9 9 o o .X.X.X.X.X",
".X.XX + Z J K Z F F F F G G D D G F Z G G G Z G F G Z F Z F F Z Z Z Z D D Z Z Z Z C C V N V C N w w w 9 9 > o .X.X.X.X.X",
".X.XX 9 J H G Z F G G F F F F G G G F G G G G G G Z Z Z Z Z Z Z Z D Z Z C C C C C V V l w C N w w w w 9 w < o X .X.X.X.X",
".X.Xo Z J G F F D F F F F G F F D G Z Z Z Z Z D G Z Z Z Z Z Z Z Z Z C C C Z C C V V V w V V w w w w w 9 w 8 : X .X.X.X.X",
".XX < G Z V C C C C D F F F F Z Z Z Z Z Z C Z C Z Z Z Z Z Z Z C C C Z C C C l V V N N C V N w w w w w w w 9 < o o .X.X.X",
".XX 9 G p N V w p V l C C C C V Z C C C Z C C C C Z Z C C C C Z C C C V V N N N w V C V w w w l w w w w w 9 9 : X .X.X.X",
".XX 9 V l n w w N C Z Z l l l V C C C Z C C C Z C C Z C Z C V l V V V V l i N V C l w w w w l w w w w w 9 w 9 > o .X.X.X",
".Xo : 9 w l l V C C V Z C C C V C C C C C C V V V V w V p l l l V V V V z C C V w w w w w l l w l z w 9 w 9 9 < o X .X.X",
".XX $ 9 w V l l w w w n l C V C C V C V V w V V V V V w n l l V V V V C C C n w w w N w l l l l w n w 9 9 w 9 9 $ X .X.X",
".X.Xo < 9 w w w l n w w w w l N V V V w V V V V V w w w N V V N l V V V l w w w w l l V w l w w w w w 9 w w 8 8 : . .X.X",
".X.Xo o < 9 w w w q w w w w w w w w V V N l V V V V l V C V V V V V l w w w N w w N l w V w w w w w 9 w 9 w 9 8 : o .X.X",
".X.X.Xo o < 9 q q w q q w w w w w w N V V w l V N w N w w V V N w w w w w w N w w l N l w w w w w w 9 w 9 w 9 8 < o X .X",
".X.X.X.XX o > < 8 9 w 9 w w w 9 w w w w w w w l w N w w 9 w w 9 w w w w w N l w N w N w w w w w w w 9 w w w 8 8 < o X .X",
".X.X.X.X.XX X $ < < 8 8 8 w w w w w w w w w w 9 w w w w w w w w w w w w N w w N N N w 9 w w N w 9 9 9 w w 9 9 8 < $ o .X",
".X.X.X.X.XX = O o : , < 8 8 8 9 9 9 w w w w w w w w w w w N w N w w N w w l l N w w w w N w w w 9 w w w 9 8 8 8 < $ o .X",
".X.X.X.X.XO u g * o X : > < 8 8 w 9 8 w w w w w N w w N N w w w w w l l N w w w w w w w w w w 9 9 w 9 w 9 9 8 8 < : o .X",
".X.X.X.X.X. = f *   > , o o $ < 8 9 w 8 9 w w w w 9 w 9 9 w w w w N w w w w w 9 9 9 w w w w 9 9 w w w 9 9 9 8 8 < : + .X",
".X.X.X.X.X. X o $ c h.h.%.z $ o : < 8 q 9 q w w w 9 w w w N N w w w w 9 w 9 9 w 9 w w 9 w 9 9 w q w w 8 9 8 8 < 8 : o .X",
".X.X.X.X.X.X.X  c D.Y.W.R.D.-.w - - , 8 9 q 9 9 q w w w w w w w w w 9 w 9 w w 9 9 w w w 9 9 w w w w 8 w 9 8 8 < < : o .X",
".X.X.X.X.X.X.X  R Q.^.(.^.T.n...h % o < 8 9 9 n w w w w w w 9 w 9 w w w w 9 9 9 9 w 9 9 9 w 9 w 9 9 w 8 8 8 < < < : o .X",
".X.X.X.X.X.X.XX $.R.Q.Q.n. ./ ~ ( g % + < 8 q w 9 9 9 w 9 w w 9 w w 9 9 8 9 w w w 9 9 w w w w w 9 q 9 8 8 < 8 : < : o .X",
".X.X.X.X.X.X.Xo =.W.^.I...^ O.g.g...f o $ 8 8 9 9 w 9 8 9 9 w 9 9 9 9 9 w w 9 9 9 w 9 w w 9 9 9 w q 8 8 8 : < < < : o .X",
".X.X.X.X.X.X.XX -.~.n...*.n.I.K.U.K.v.L o : 8 9 9 9 w w w 9 8 8 9 9 9 9 9 9 w w w 9 w 9 9 9 w 9 9 8 8 8 < < < : , $ o .X",
".X.X.X.X.X.X.Xo =.P.*.g.h.S 4 2 2 i T l.q o , 8 9 9 8 9 9 w 9 w w 9 w w w w 9 9 9 9 9 w w w 9 9 8 8 8 8 < 8 : > < o o .X",
".X.X.X.X.X.X.XO b &.k.A : V B.C.B.! < =.h.o , 8 8 9 8 8 9 8 9 q 9 w 9 9 9 9 9 9 w 9 w 9 9 9 9 8 8 8 8 < 8 8 : < < o o .X",
".X.X.X.X.X.X.XO R l.i - n Q [. X[.].J U T.q o 8 8 8 8 8 9 9 9 9 9 9 9 9 9 9 9 8 8 9 8 8 8 8 8 5 8 < < 8 < < : : : o .X.X",
".X.X.X.X.X.X.XX x p - ; n M G. X[.].! S ).E X < 8 8 8 8 9 8 5 8 9 8 8 8 5 8 9 9 8 8 9 8 8 8 8 < < 8 8 8 < < < < - o .X.X",
".X.X.X.X.X.X.Xo X l H @ 1 M F. X[.'.Y P ).l.+ > < < 8 8 8 8 8 8 8 8 5 8 8 8 8 8 8 9 9 8 5 < < 8 < 8 8 < : < < < - o .X.X",
".X.X.X.X.X.X.Xo . K Z.n m W '. X[.!.V $.(.K.> $ < < 8 5 8 9 8 5 8 8 9 8 8 8 9 8 5 < < < < 8 8 8 8 8 < > < : > : X .X.X.X",
".X.X.X.X.X.X.Xo O < V.N.Q F.{.{.[.C.5 D.(.U.4 - , < < < 8 8 8 8 9 5 8 8 8 < < < < 8 8 5 8 8 8 8 8 < < < : < < $ o .X.X.X",
".X.X.X.X.X.X.X. i z Z J.[.{.{.[.H.C L Q.W.R o $ < > < 8 < < < < < < < < < 8 8 8 8 8 8 8 8 8 8 8 < > : < < < > o .X.X.X.X",
".X.X.X.X.X.X.X. x l.6 C V.H.H.Z.V q K.Q.R o . $ < : < 8 8 8 8 < 8 < < 5 8 8 8 8 8 8 8 8 < < < : < < : : < < o X .X.X.X.X",
".X.X.X.X.X.X.XX 2 U E p > 8 8 < c L.W.E $ j & : : < < < 9 8 8 8 < < < < < < < 5 < < < < < < < < < : < < : - o .X.X.X.X.X",
".X.X.X.X.X.X.XX O & & i A P =.z.U.l.A $ b 2.$ $ : < < < < 8 8 8 8 8 8 < < < < < < > : < < < > < < < < > + o .X.X.X.X.X.X",
".X.X.X.X.X.X.Xo % 1.,.h & 2 k S i : 6 1.f.>.- : < : < < 8 < 8 8 8 < 8 < < < < < 1 < < : < : < > < < : o X .X.X.X.X.X.X.X",
".X.X.X.X.X.X.X.X% } u.f.>.o.v s v ,.m.f.a.' X : : < < < < 8 < < < < < < < < < < < : < > < < 1 < : $ o X .X.X.X.X.X.X.X.X",
".X.X.X.X.X.X.Xo X s ' ,.e.M.i.9.9.7.i.d.6.s X > < : : < < < < < < < < < < < < < < < : < : < > - o X   .X.X.X.X.X.X.X.X.X",
".X.X.X.X.X.X.X.XO X d e.s.u.w.p.y.w.4.r.>.s X < < : < < : < < : : < < : < : < < > > < > > o o o   .X.X.X.X.X.X.X.X.X.X.X",
".X.X.X.X.X.X.X.X.XX f 0.M.y.7.y.p.t.w.c.{ s X : : < < : < < : < < : < < : < : : : : - o o X . .X.X.X.X.X.X.X.X.X.X.X.X.X",
".X.X.X.X.X.X.X.X.Xo e ] q.3.6.6.3.w.m.} f % o : < : : < < : : < : - : $ $ + - o o o o .   .X.X.X.X.X.X.X.X.X.X.X.X.X.X.X",
".X.X.X.X.X.X.X.X.XX # ~ [ ] [ } 3.] f % o o X o - : $ - o o o o o o o $ $ $ - .   .X.X.X.X.X.X.X.X.X.X.X.X.X.X.X.X.X.X.X",
".X.X.X.X.X.X.X.X.Xo % ( / ) _ / [ ` O X X - X o - o - $ o o o o o 9 w l l w < o   .X.X.X.X.X.X.X.X.X.X.X.X.X.X.X.X.X.X.X",
".X.X.X.X.X.X.X.X.X.XX * _ ) ) / / y X o $ 9 q 8 q w w l 9 o l w + < F G G V w 8 X .X.X.X.X.X.X.X.X.X.X.X.X.X.X.X.X.X.X.X",
".X.X.X.X.X.X.X.X.X.Xo o ( / ) / / = o X > w l l V F G H w o F K 9 o q H G C w 9 $ o .X.X.X.X.X.X.X.X.X.X.X.X.X.X.X.X.X.X",
".X.X.X.X.X.X.X.X.X.X.Xo t / _ ~ * o X o 8 w l l C G J J w + F K l : - N F C l w , o .X.X.X.X.X.X.X.X.X.X.X.X.X.X.X.X.X.X",
".X.X.X.X.X.X.X.X.X.X.Xo # ~ _ g % o X o 9 w l l V C F K l $ Z G V q - > Z F N w 8 o o .X.X.X.X.X.X.X.X.X.X.X.X.X.X.X.X.X",
".X.X.X.X.X.X.X.X.X.X.Xo O y g * o X o > w w l l C V V F l o q F C w < o q A n w q $ o .X.X.X.X.X.X.X.X.X.X.X.X.X.X.X.X.X",
".X.X.X.X.X.X.X.X.X.X.X.XX O # o X X o < w w w V V C V C l o < C C N q $ $ w N w w : X .X.X.X.X.X.X.X.X.X.X.X.X.X.X.X.X.X",
".X.X.X.X.X.X.X.X.X.X.X.X.Xo X o .Xo o 9 w w n z l C Z Z V $ : l V w w < o < w w N < X .X.X.X.X.X.X.X.X.X.X.X.X.X.X.X.X.X",
".X.X.X.X.X.X.X.X.X.X.X.X.X.Xo .X.Xo - w w w l w l l V V C < $ q w 9 3 ; X o 8 w w < o o .X.X.X.X.X.X.X.X.X.X.X.X.X.X.X.X",
".X.X.X.X.X.X.X.X.X.X.X.X.X.X.X.X.X. $ 9 w w w V w l V V V < o < : @ o 0 U A + 3 w 8 o X .X.X.X.X.X.X.X.X.X.X.X.X.X.X.X.X",
".X.X.X.X.X.X.X.X.X.X.X.X.X.X.X.X.X+ : 9 9 w w N V w N w V 9 o o > I S.!.~.U.A o 9 9 $ X .X.X.X.X.X.X.X.X.X.X.X.X.X.X.X.X",
".X.X.X.X.X.X.X.X.X.X.X.X.X.X.X.X.Xo : 8 w w w N l l V N V w o x A.~.}.}./.R.x.+ < 8 : o .X.X.X.X.X.X.X.X.X.X.X.X.X.X.X.X",
".X.X.X.X.X.X.X.X.X.X.X.X.X.X.X.X.Xo > 8 9 w N w w V N V l w o h.R.)._.`.).R.l.> < 8 : X .X.X.X.X.X.X.X.X.X.X.X.X.X.X.X.X",
".X.X.X.X.X.X.X.X.X.X.X.X.X.X.X.X.Xo , 8 8 w w w N w l l l w o R R.^.)./.^.T.;.O < 9 : X .X.X.X.X.X.X.X.X.X.X.X.X.X.X.X.X",
".X.X.X.X.X.X.X.X.X.X.X.X.X.X.X.X.XX > 8 8 9 w w w V l N l w : 7 A.R.R.R.Y.l.i o 9 < : X .X.X.X.X.X.X.X.X.X.X.X.X.X.X.X.X",
".X.X.X.X.X.X.X.X.X.X.X.X.X.X.X.X.XX > < 8 8 9 q w w l w w l 8 + p :.b.l.$.6 o < 9 < : X .X.X.X.X.X.X.X.X.X.X.X.X.X.X.X.X",
".X.X.X.X.X.X.X.X.X.X.X.X.X.X.X.X.Xo : < 9 8 9 9 9 9 9 9 9 q q < - + , , o $ < 8 8 : : X .X.X.X.X.X.X.X.X.X.X.X.X.X.X.X.X",
".X.X.X.X.X.X.X.X.X.X.X.X.X.X.X.X.Xo : < < < < 8 8 < 8 8 9 8 8 8 8 , : : , < < , , : - X .X.X.X.X.X.X.X.X.X.X.X.X.X.X.X.X",
".X.X.X.X.X.X.X.X.X.X.X.X.X.X.X.X.Xo o o o $ o $ : $ : $ $ : : : $ $ + + $ o o o o o o o .X.X.X.X.X.X.X.X.X.X.X.X.X.X.X.X",
".X.X.X.X.X.X.X.X.X.X.X.X.X.X.X.X.X.XX o o o o o X o X X X o o o o o $ & + X o .X.X.X.X.X.X.X.X.X.X.X.X.X.X.X.X.X.X.X.X.X",
".X.X.X.X.X.X.X.X.X.X.X.X.X.X.X.X.X.X.X.X.X.X.X.X.XX $ 7 : o > 4 7 5 5 7 $ X .X.X.X.X.X.X.X.X.X.X.X.X.X.X.X.X.X.X.X.X.X.X",
".X.X.X.X.X.X.X.X.X.X.X.X.X.X.X.X.X.X.X.X.X.X.X.X.XX & 7 < o $ 4 5 5 4 4 o o .X.X.X.X.X.X.X.X.X.X.X.X.X.X.X.X.X.X.X.X.X.X",
".X.X.X.X.X.X.X.X.X.X.X.X.X.X.X.X.X.X.X.X.X.X.X.X.Xo X o o o + $ & , 4 $ o .X.X.X.X.X.X.X.X.X.X.X.X.X.X.X.X.X.X.X.X.X.X.X",
".X.X.X.X.X.X.X.X.X.X.X.X.X.X.X.X.X.X.X.X.X.X.X.X.Xo o o o o o o X $ $ $ o .X.X.X.X.X.X.X.X.X.X.X.X.X.X.X.X.X.X.X.X.X.X.X",
".X.X.X.X.X.X.X.X.X.X.X.X.X.X.X.X.X.X.X.X.X.X.X.X.X.Xo .X.X.X.X.Xo X o o X .X.X.X.X.X.X.X.X.X.X.X.X.X.X.X.X.X.X.X.X.X.X.X",
".X.X.X.X.X.X.X.X.X.X.X.X.X.X.X.X.X.X.X.X.X.X.X.X.X.X.X.X.X.X.X.X.X.X.X.X.X.X.X.X.X.X.X.X.X.X.X.X.X.X.X.X.X.X.X.X.X.X.X.X"
};
