/* XPM */
static xpm_row_t const cursor_xpm[] = {
/* columns rows colors chars-per-pixel */
"24 24 3 1 ",
"  c #000000",
". c #00b140",
"+ c #FFFFFF",
/* pixels */
"........................",
"........................",
".......  ...............",
"......     .............",
".....  ++   ............",
".....  ++++  ...........",
".....  +++++  ..........",
".....  ++++++   ........",
".....  +++++++   .......",
".....  +++++++++  ......",
"...... ++++++++++  .....",
"...... +++++++++++  ....",
"...... ++++++++++++  ...",
"...... +++++++++++++  ..",
"...... +++++++++++++  ..",
"...... ++++++        ...",
"...... +++++   .........",
"...... ++++  ...........",
"...... +++  ............",
"......  ++ .............",
"......     .............",
".......  ...............",
"........................",
"........................"
};
