/* XPM */
static xpm_row_t const wall[] = {
/* columns rows colors chars-per-pixel */
"60 70 250 2 ",
"   c #661E0C",
".  c #6B1C0F",
"X  c #741D0B",
"o  c #7C1C0D",
"O  c #661710",
"+  c #671C13",
"@  c #6A1B14",
"#  c #621E1C",
"$  c #6C1D18",
"%  c #731B13",
"&  c #7C1E12",
"*  c #741C1B",
"=  c #5B280B",
"-  c #53330F",
";  c #5B271A",
":  c #65250C",
">  c #6D240C",
",  c #762707",
"<  c #7E2B04",
"1  c #73230D",
"2  c #7C240B",
"3  c #7C2C0B",
"4  c #6A370B",
"5  c #7B320D",
"6  c #642314",
"7  c #6B2214",
"8  c #6C221A",
"9  c #6A2A19",
"0  c #772616",
"q  c #742B13",
"w  c #732B1B",
"e  c #6C3416",
"r  c #6D321A",
"t  c #743318",
"y  c #5F2820",
"u  c #6C2921",
"i  c #752B22",
"p  c #7A2B24",
"a  c #6A3326",
"s  c #793627",
"d  c #714A16",
"f  c #7E432A",
"g  c #7B4929",
"h  c #7D592F",
"j  c #811A0C",
"k  c #822B03",
"l  c #882B07",
"z  c #822B0A",
"x  c #853109",
"c  c #953406",
"v  c #812913",
"b  c #88281A",
"n  c #922B19",
"m  c #883618",
"M  c #973613",
"N  c #9A3615",
"B  c #953B15",
"V  c #9A3915",
"C  c #96381B",
"Z  c #9C3A19",
"A  c #A23311",
"S  c #A43515",
"D  c #A33519",
"F  c #A53918",
"G  c #B5391E",
"H  c #8C2F21",
"J  c #843D26",
"K  c #853428",
"L  c #853D2A",
"P  c #993C24",
"I  c #853931",
"U  c #893931",
"Y  c #A73A24",
"T  c #B83D26",
"R  c #C43E28",
"E  c #8A441E",
"W  c #97421E",
"Q  c #AC441D",
"!  c #B44C1D",
"~  c #844827",
"^  c #85422A",
"/  c #944222",
"(  c #9A4223",
")  c #9A4429",
"_  c #964829",
"`  c #8A542A",
"'  c #844C32",
"]  c #895A36",
"[  c #975132",
"{  c #93583A",
"}  c #A94629",
"|  c #BA4426",
" . c #B54528",
".. c #BC432C",
"X. c #B64B2B",
"o. c #BC4A2C",
"O. c #BB572B",
"+. c #BD4534",
"@. c #B64B37",
"#. c #BB4C32",
"$. c #A95133",
"%. c #B95739",
"&. c #8B673B",
"*. c #8B643C",
"=. c #91633A",
"-. c #9B643C",
";. c #8C753F",
":. c #C7462A",
">. c #CD432C",
",. c #D8492B",
"<. c #C55729",
"1. c #D5532B",
"2. c #DB542D",
"3. c #CE4432",
"4. c #C74A34",
"5. c #D24433",
"6. c #D54936",
"7. c #D94A35",
"8. c #D84738",
"9. c #D64A39",
"0. c #D94A3A",
"q. c #C75638",
"w. c #D45236",
"e. c #DB5836",
"r. c #D5533A",
"t. c #DA543D",
"y. c #EE5524",
"u. c #EB5B25",
"i. c #E5562A",
"p. c #ED5429",
"a. c #EC5D2A",
"s. c #F05424",
"d. c #F35D25",
"f. c #F45C2B",
"g. c #EC5331",
"h. c #E15A35",
"j. c #CA6326",
"k. c #C7623B",
"l. c #D76638",
"z. c #DC743C",
"x. c #EC632C",
"c. c #F3622C",
"v. c #F7692F",
"b. c #E96938",
"n. c #F76B35",
"m. c #EB743D",
"M. c #F7743A",
"N. c #FB743C",
"B. c #945E42",
"V. c #B05B42",
"C. c #8D6540",
"Z. c #8D6C41",
"A. c #956343",
"S. c #926C44",
"D. c #9B6B45",
"F. c #8E7443",
"G. c #8D7844",
"H. c #927244",
"J. c #997345",
"K. c #9C6956",
"L. c #A66D48",
"P. c #BA6847",
"I. c #B8724C",
"U. c #BC6E51",
"Y. c #BA7755",
"T. c #C95A44",
"R. c #D75C43",
"E. c #DD5C43",
"W. c #E55A45",
"Q. c #E25D45",
"!. c #C9684A",
"~. c #D56243",
"^. c #DD6145",
"/. c #D5634B",
"(. c #DB654A",
"). c #D6694A",
"_. c #DB6A4C",
"`. c #C4714E",
"'. c #DC7546",
"]. c #DA6951",
"[. c #C87656",
"{. c #DA7656",
"}. c #DB7C5C",
"|. c #E26246",
" X c #E56844",
".X c #E4634A",
"XX c #E9644C",
"oX c #E36A4D",
"OX c #EA6A4D",
"+X c #F26A4C",
"@X c #E77747",
"#X c #F67844",
"$X c #FB7A43",
"%X c #E66852",
"&X c #EC6B52",
"*X c #F26E55",
"=X c #EC7355",
"-X c #ED755A",
";X c #E57958",
":X c #F27456",
">X c #F2755A",
",X c #F17959",
"<X c #D27B62",
"1X c #E17E62",
"2X c #00B140",
"3X c #FA823E",
"4X c #BE8B68",
"5X c #D8825D",
"6X c #FB8547",
"7X c #FD8C4B",
"8X c #FA9747",
"9X c #FD934B",
"0X c #E4835C",
"qX c #FC8654",
"wX c #FE9352",
"eX c #FF9058",
"rX c #C78767",
"tX c #D98967",
"yX c #D5916E",
"uX c #DB916D",
"iX c #C98E71",
"pX c #CD9A79",
"aX c #D69777",
"sX c #DB9673",
"dX c #D49C7B",
"fX c #DB9B7B",
"gX c #E48966",
"hX c #EA9270",
"jX c #E59A77",
"kX c #CEA17E",
"lX c #D9A57D",
"zX c #E8A17E",
"xX c #CEA382",
"cX c #DAA884",
"vX c #DEB38B",
"bX c #DDB994",
"nX c #DDBC9B",
"mX c #E6A986",
"MX c #EBAC8B",
"NX c #E5B48D",
"BX c #EBB28E",
"VX c #EDAE91",
"CX c #E7B793",
"ZX c #EEB192",
"AX c #E3BA94",
"SX c #DEC39C",
"DX c #E1C29C",
"FX c #DCC9A3",
"GX c #DAC9A7",
"HX c #E2C4A3",
/* pixels */
"2X2X2X2X2X2X2Xd , , 0 v j 0 & & o j j & j j j & & o o o 2 0 o & & o o % O @ . . X @ % X 1 & 1 % & % > e d 2X2X2X2X2X2X2X",
"2X2X2X2X2Xd 4 , C } @.T.T.4.4.+. .......T T T T T ....:.4.4.4.+.+.T Y Y P B.A.{ U C Y } X.X.X.X.Y Y M v > 4 d 2X2X2X2X2X",
"2X2X2X2Xd , P q.(.%X*X:X-X-X=X=X=X&X&X*XXXXXoX.XXX%X%XXXoXOX&X&X&XXX+X X}.BXNXrX$.~.#XN.$XM.$XM.#X@X Xl.4.C 3 d 2X2X2X2X",
"2X2X2X4 P %.%X&XXXQ.W.t.t.t.r.t.r.9.0.0.6.9.6.6.9.9.9.9.6.9.6.r.E..X+X X}.ZXcXI.O.m.#XM.M.n.n.n.n.n.M.M.#X X<.B d 2X2X2X",
"2X2Xd P !.-X=XQ.W.9.6.>.5.5.5.5.5.R 8.R R 5.5.5.5.5.3.3.5.3.3.3.8.t.oX'.5XCXlXP.O.m.v.x.f.f.f.f.f.f.c.n.M.N.$X XQ d 2X2X",
"2Xd / ~.;X=XE.9.3.3.>.3.5.5.5.5.5.>.8.5.8.3.3.3.5.5.5.5.5.3.>.6.>.t..XoXtXNXlXI.O.#XM.c.f.f.f.f.f.f.a.x.n.N.N.$Xz.Q 4 2X",
"2X5 %.;XoXR.5.3.5.5.3.3.5.5.5.R 3.5.5.3.5.5.5.5.3.3.5.3.5.3.3.>.6.t. XoX0XDXlX`.<.M.n.f.f.f.f.d.f.f.d.f.c.c.N.$XM.z.B 2X",
"e m T.oXoXR.9.6.6.6.5.6.6.8.8.8.6.5.6.8.5.5.3.6.5.8.6.6.8.6.6.3.w.|.OX@X0XBXNXk.:.b.$Xv.f.f.d.d.d.f.f.f.f.f.n.#X6X@XW , ",
"7 ) %X*X=X=XOXoX.X.XXXXXoX.X.XoX.X.X|.^.E.E.E.|..X|.|.|..X^.|..X X=X=X;XtXBXMX[.! b.6XN.n.v.c.f.f.f.c.c.c.v.#X$X6X@XX.0 ",
"7 P E.:X,X,X,X-X>X-X>X,X-X,X-X-X>X>X>X-X=X,X,X>X>X>X,X,X,X>X,X>X,X>X%X(.tXZXzX5X! 1.#X6X$X$XN.N.N.n.N.n.$X$X$X$X$X@X+.1 ",
"  n 4.w.q.q.q.w.q.q.q.q.r.k.r.~.~.R.R.~.~.l.R.R.~.~.).).~.~.R.R.~.r.w.!.yXCXvX<X} | 1.e.i.e.e.h.i.2.i.2.2.2.g.h.e.e.T X ",
"6 0 N A A A S S S S F S D S F F F D F F D F F Z D F D D D F D S D D Y $.pXSXnXxXP. .T G :.:.:.R ,.>.>.>.>.5.R R >.R A o ",
"9 H P Z N Z Z C B B N Z F D N Z C B B B C C Z C B N Z Z N Z N N F } $.rXvXFXFXnXdXU.$.@.q.T.4.T.q.4.+.4.4.R 4.R T T Z * ",
"; { <X`.U.Y.Y.Y.Y.Y.Y.Y.Y.Y.U.U.I.I.I.U.U.U.`.I.U.Y.Y.[.U.U.P.P.I.[.pXbXDXFXGXGXnXcXpXdXfXfXcXfXcXaXaXaXaXfXxXxXxXxXY.a ",
"; K.VXMXNXNXAXAXAXAXAXnXDXnXAXnXnXnXbXSXAXAXAXAXCXBXBXBXVXVXMXMXmXMXmXMXmXmXmXMXMXmXmXmXmXMXmXVXVXCXMXVXZXVXZXZXZXCXpXa ",
"; [ {.;X{.{.{.{.1XgXgXaXcXFXGXGXGXDXAXzXjXjXhXhXgXgXgX;X-X]././.(./.E.^././././././././.E./.R./././././.].].].{.>XmX<Xt ",
"7 } |.b.a.i.2.i.h.2.6.q.!.cXSXFXbXcX}.~.w.7.w.7.9.9.w.9.9.9.R W.0.9.8.0.6.6.9.6.0.0.0.8.0.9.9.9.E.W.W.W.Q.Q.W.XXQ.R.@.1 ",
"> X.@XN.c.y.s.u.y.p.p.,.8.[.vXbXfX[.w.7.,.,.,.7.8.0.6.9.8.R.W.0.9.9.9.9.9.8.9.0.0.0.0.0.9.9.9.9.9.0.8.8.9.R.Q.&XXX.X+.X ",
"5 %.qX$Xc.y.s.s.s.s.p.i.4.P.fXmX[.+.3.9.8.8.0.0.8.0.0.9.9.9.0.0.0.7.8.9.0.0.0.0.0.0.0.0.0.0.9.9.0.9.8.9.w.w.r..X%X%XV.% ",
"z k.qX$Xx.y.s.s.y.s.s.g.1.%.sXfX!.R 3.9.9.8.0.8.9.0.9.6.8.9.8.9.0.0.9.0.0.9.9.9.8.0.0.8.0.7.8.6.0.9.8.9.w.r.r.XX&X%X+.* ",
"z q.qX#Xx.p.p.p.p.p.d.c.b.%.uXsXT.T 3.t.t.8.7.9.8.9.9.9.8.9.9.9.9.8.6.6.9.8.8.9.8.6.9.9.9.9.8.6.9.9.6.6.9.w.r.oXoX%X@.. ",
"5 %.qX#Xu.u.s.s.p.y.y.n.l.k.lXjXP.T 6.Q.E.9.9.9.9.9.6.8.6.6.8.6.9.8.8.6.9.5.6.6.8.8.8.8.8.0.8.8.8.8.6.8.9.9.r..X&X%X#.1 ",
"< O.qX$Xx.y.y.y.y.p.c.N.l.P.lXlXV.T 3.Q.W.E.0.9.9.9.9.6.6.9.8.6.9.9.6.w.9.6.9.9.9.9.9.6.0.9.6.8.9.9.9.6.9.r.r.Q.OXXX+.X ",
"1 %.qX6Xn.u.u.u.u.a.n.#Xk.I.NXcXP.G 4.E.Q.Q.E.r.9.r.r.9.r.w.9.r.r.9.r.w.r.w.r.r.w.9.9.9.9.9.r.0.9.9.9.9.w.w.R..XXX%X+.& ",
"1 } 0X6XN.n.c.x.b.b.#Xm.O.I.vXNX`.F :.E..XQ.Q.Q.E.E.E.E.E..XE.Q.^.|.l.Q.^.E.^.^.E.R.E.E.E.E.E.E.E.E.E.E.E.E.^.|.|..XT * ",
"> P ^.#X#X$XN.$X#X#X X<.) Y.bXbX[. .| r.E..XoX(.(.oX(._._.(.(._.(._.(.oX.X.X.X.X.X.X.X.X.X.X.X|.%X^.XX.X.X|.|.^.E.E.T & ",
"# m o.:.,.,.t.h.e.e.:.Q ( Y.AXAXrX} G  .o.o.o.#.#.#.o.X.X.X.X.X.X.o.o.| o.o.X.o.| |  .| |  .| | ..o.o.o.o.o.:.o.| | Z 1 ",
"6 5 F G G G T T R R T F [ 4XSXDXsX%.F V N V B N B C N N N N M N N B M M M M V V M M M N M M M M M M M B N N M N N N n 0 ",
"= K $.} }  . . ...} } $.4XbXFXFXAXyXV.} _ _ _ / / ) ) ) ) ( ( / / E E W W W W / / P / E E / E W W E C / W ( / C ) ) P 9 ",
"; K.VXCXcXcXjXsXhXsXsXsXNXNXCXCXCXBXzXsXuXuXuXuXsXuXuXyXyXyXiXaXdXpXlXlXkXkXkXxXxXxXxXkXpXpXpXpXpXyXyXdXaXdXcXcXvXcX4Xa ",
"; K.HXCXmXjXgXgXtX0X5X5X{.}.}.5X}.5X5X5X}.5X;X0X0X;X0X0XgXhXjXzXmXMXBXDXFXFXGXGXGXFXSXCXmXlXjXsXuXuXuXuXuXuXuXsXfXcXiXa ",
"; { hX,XoXh.e.e.2.7.7.7.9.0.7.0.9.r.r.r.r.6.r.7.2.7.,.2.w.w.2.e.t..X{.tXlXDXFXGXGXbXaX[.q.e.2.w.i.2.2.2.i.h.e.^.@X;X`.i ",
"8 Y *X*XW.W.T.8.W.8.8.0.9.9.9.9.R.8.8.8.0.8.0.0.0.0.8.W.8.8.8.R r.0.7.r._.jXDXHXbXyXk.,.p.p.y.s.s.s.p.y.y.y.u.n.6XqXk.v ",
"v +.*X*XW.0.R 8.8.R R.9.9.9.0.9.8.8.8.8.8.0.0.0.8.8.8.R 8.W.8.W.0.9.8.,.r.5XCXSXcX!.1.p.p.p.y.y.s.s.s.y.y.y.u.n.7XeX'.m ",
"j @.*X*XXX8.8.8.R 0.9.9.8.8.8.8.8.8.8.8.8.8.W.R 8.8.R R.8.8.8.8.9.9.8.7.w.).NXNXrXq.,.i.s.s.y.y.y.y.y.y.y.y.x.M.7XeX'.C ",
"v @.*X*XW.W.W.R R W.6.6.9.9.6.6.R 8.T.8.8.0.8.R 8.8.8.8.8.8.8.8.7.8.7.7.w.!.mXCXtX<.,.u.p.s.y.y.y.y.y.y.y.y.u.M.qXeX{.J ",
"j +.-X,XW.W.8.8.0.W.8.8.0.0.9.9.W.8.8.R.8.8.8.8.W.8.8.T.8.8.8.R 7.9.9.7.1.~.zXNXrXq.1.y.p.s.y.y.s.s.y.y.s.s.u.M.7XwX'.m ",
"2 #.>X:XW.W.R W.8.8.8.8.0.0.0.0.8.8.8.8.8.8.W.8.8.8.8.8.8.W.8.W.9.9.6.5.3.T.mXZXtXO.,.y.s.y.y.y.y.y.s.s.s.y.x.M.9X9X@XE ",
"3 @.>X>X*XW.R.8.W.8.8.0.9.0.0.9.0.0.8.8.W.8.R.8.8.8.8.8.0.0.8.8.9.8.5.5.3.T.mXVXtXq.,.i.y.s.y.y.y.s.y.y.y.y.x.3X9X9Xz.B ",
"v %.*X:X*XXXR 8.R 8.0.8.8.0.9.8.0.8.R R.8.8.R 8.8.W.8.8.R W.R W.8.R R R 3.T.mXCXyX<.1.i.p.p.y.y.y.s.s.y.y.d.n.7X9X9Xz.m ",
"v T.-X>X*X*XW.5.5.3.3.3.3.3.3.3.8.R 5.5.3.T.R R R.R 8.8.8.8.R R 3.>.>.,.9.!.BXAXyX%.e.b.x.x.a.c.x.x.x.x.n.N.6X9X9XwX'.m ",
"0 V.-X,X>X>X%XW.r.5.R >.R R R R R R R R R 4.R 8.R R 8.R R T.8.8.9.0.Q.W.XXtXBXAXyXk.l.6X6X6X6X3X3X3X6X9X9X9X9X8X8X9Xz.m ",
"q %.;X-X>X>X>X*X&XXXQ.W.|.Q.E.R.W.W.W.W.W.XXXXXXW.XX.X.XXXXXXX%X&X&X*X>X-XtXBXAXyXO.q.m.3X8X7X7X8X7X8XwXwX9X8X9X9X9Xz.m ",
"q %.&X,X*X>X>X>X*X&X.XW.(.(.R././././././././.]./.].]./.]./.%X].].].%X-X;X5XiX4X4X} Q O.j.j.j.j.j.j.j.l.z.@X6X9XwX9Xz.x ",
"0 @.=X:X>X&X%XT.T D n j b b b b b b b b H H H H H H H H b H H H H H Y q.!.U.L.L.` v M F A W c c c c c l c A ! l.6XwX'.m ",
"q $.=X>X%XT.Y H & o % O % @ O @ O $ $ * O # @ @ @ $ $ @ @ @ @ @ @ O & H ) $.L.A.f q b x c l k < < k < k k k c c ! @X'./ ",
"q } (.T.T b $ O @ # $ @ @ @ O * @ @ $ O O @ @ @ @ @ @ @ @ @ @ O @ O @ % K _ L.B.s 1 0 z k k k k k k k < k k k k x ! %.m ",
": P @.Y j % @ @ @ @ @ @ O % @ O $ O O $ @ @ O @ @ @ @ @ @ @ @ @ $ @ @ $ p ^ A.] r 1 v z < k k k k k k k k k k l k x P 0 ",
"9 J m 0 % @ @ @ @ O @ @ @ @ @ @ @ @ @ $ @ @ @ O % @ @ @ @ @ @ @ % @ @ $ 0 J *.*.q 1 v l k k k < k k k k k k k k k k v $ ",
"; a 0 0 $ @ @ $ O $ @ + @ # @ @ @ @ @ @ # @ @ @ O @ @ @ @ @ @ @ @ @ + $ p ' &.] e 1 v k k k k k k k k k k k k k k z 0 6 ",
"y u p * @ # @ @ % @ @ + @ @ @ @ @ @ @ @ @ @ @ @ O $ @ @ @ @ @ + @ @ $ 8 r ] &.h e > z k < k k k k k k k k k k k k j 2 6 ",
"y i 8 $ $ @ @ @ O @ O + O @ O @ X O O + O @ O @ @ @ @ O @ @ @ + @ + # 9 e ] ;.h e > 0 l k k k k k k k k k k k k k k q 6 ",
"y u w $ $ @ @ + O @ @ @ @ @ + @ + + + @ @ @ @ @ @ @ @ @ @ @ @ @ @ + 6 r g ;.S.&.g q 0 b z z z < k k k k k k < z z 2 % 6 ",
"y 9 8 + $ @ @ + + @ * @ @ @ @ + $ + + @ @ @ @ + @ O + + + + + # 6 8 r ' &.F.H.H.*.g t 0 5 z z z < x x x 5 < 3 < , X . # ",
"; a s s r u w 9 9 w 8 9 8 8 9 9 w 9 w a u r u r w r r r r r r d g ] *.H.G.G.F.F.H.H.=.' ~ d g ~ ` ` ` ` ` ` ` ` ~ g a ; ",
"; g S.Z.*.] *.*.*.*.C.C.*.C.C.C.C.C.S.S.S.S.S.C.C.Z.Z.&.Z.F.F.F.Z.F.H.F.G.G.G.G.;.;.H.H.=.;.;.H.H.H.H.;.;.;.S.F.S.;.] 9 ",
"; g D.H.H.H.J.J.H.H.G.G.H.;.G.H.H.J.H.S.H.S.S.S.S.Z.C.S.&.*.&.Z.&.*.*.=.] *.{ =.] =.=.=.=.=.=.=.=.=.=.=.=.*.=.*.-.S.B.a ",
"; s ^ ` { -.-.-.-.-.-.-.;.J.G.G.A.{ ' ' g ' ' f f f f s f f f s f s ^ L ^ L ^ J J L J ^ ^ J L L ^ J J L J ^ L L ' ' f 8 ",
"; q v E W W ( W W W W / ` -.J.A.` L J K I L L U I I I I U U U U U U U U I K L I K I I U L I I U L L U I L U I I K i i * ",
"; 8 m B B B B V B B B x E { L.{ K w p p p s K s s s I s I s s K K s K p p p p p p p p p p p p p K p p p p p p p i 8 8 * ",
"# 7 2 k l x c k k l x x 5 ~ -.{ w @ @ @ @ @ $ $ u $ $ $ 7 8 * 8 $ @ @ @ + + @ . O $ @ @ @ @ O $ O @ % O % @ @ @ + + $ $ ",
"; 6 2 < k k k < k k k k k E -.{ w @ @ @ @ @ . % $ @ @ $ @ . @ . $ @ @ @ @ @ @ @ @ @ @ @ @ @ $ @ @ @ @ @ + $ @ @ @ 7 .   ",
"; = 1 3 z z k < k x k k 5 E -.{ w @ @ @ @ + @ O . @ O + + @ + @ + + @ @ @ @ $ @ @ $ $ $ $ O @ O @ $ @ @ @ @ $ + @ +   . ",
"2X= > 0 z k k < k k k k < E -.{ 0 @ @ $ + + @ @ @ @ $ @ @ $ O O $ $ @ @ @ @ @ @ O @ @ @ @ $ $ O @ @ @ @ + + + @ @ @ 7 6 ",
"2X2X= % 2 k k k z k < k 3 d =.{ a . + @ + @ @ @ @ @ @ @ @ O @ @ @ @ @ @ @ . O . @ @ @ . . @ . + @ . O @ @ + + + .   = 2X",
"2X2X2X= > 2 k k k k k < 3 E A.{ s   + @ @ @ @ @ @ @ @ @ @ @ @ @ $ O O @ @ @ @ @ @ @ $ + @ @ @ . @ @ @ @ @ @ @ + : = 2X2X",
"2X2X2X2X= > X 2 3 z < < 5 ~ S.C.s + + @ O $ $ + O @ @ @ O @ O @ $ O O @ @ @ @ @ @ @ @ @ @ @ + + @ + @ @ @ $ 7 : = 2X2X2X",
"2X2X2X2X2X= : > 1 1 0 3 q g A.A.f > @ @ + + @ @ @ $ @ O @ @ @ @ $ @ @ @ @ $ @ @ @ O @ @ O @ @ @ @ $ * $ $ = = - 2X2X2X2X",
"2X2X2X2X2X2X2X4 = > 7 . > e ' g t 7 @ $ + . + O @ + @ @ @ O O @ @ O @ @ @ @ @ @ O O O O O O @ @ $ $ O = = - 2X2X2X2X2X2X",
"2X2X2X2X2X2X2X2Xm 3 < X > : e 9 6 7 $ 7 @ $ @ $ @ $ $ @ $ @ @ * $ @ @ $ @ @ @ @ $ % $ + @ $ @ $ $ 8 8 w 2X2X2X2X2X2X2X2X"
};
