/* XPM */
static xpm_row_t const p1_right_7[] = {
/* columns rows colors chars-per-pixel */
"60 80 178 2 ",
"   c #666666",
".  c #151513",
"X  c #1A1917",
"o  c #1C1C1A",
"O  c #171717",
"+  c #211F1C",
"@  c #201A14",
"#  c #2D2217",
"$  c #22211E",
"%  c #2C2318",
"&  c #262317",
"*  c #3A2E17",
"=  c #332618",
"-  c #382718",
";  c #3C2C18",
":  c #362918",
">  c #1E1F23",
",  c #221C24",
"<  c #242423",
"1  c #292723",
"2  c #2A2926",
"3  c #2B2B2B",
"4  c #282728",
"5  c #312D26",
"6  c #332F2B",
"7  c #3B3224",
"8  c #32312C",
"9  c #3C352D",
"0  c #38382E",
"q  c #2A2937",
"w  c #343333",
"e  c #3D3833",
"r  c #3C3B3C",
"t  c #393734",
"y  c #442D18",
"u  c #4E3316",
"i  c #433C1D",
"p  c #473C16",
"a  c #573819",
"s  c #603B15",
"d  c #453A25",
"f  c #443C33",
"g  c #423F3B",
"h  c #5B451A",
"j  c #654119",
"k  c #67451A",
"l  c #744518",
"z  c #62551C",
"x  c #574D23",
"c  c #5F5524",
"v  c #42413F",
"b  c #4E4439",
"n  c #484137",
"m  c #54493D",
"M  c #784B23",
"N  c #655A2A",
"B  c #6A5D23",
"V  c #7C6E33",
"C  c #272942",
"Z  c #2C314C",
"A  c #403F40",
"S  c #434343",
"D  c #484748",
"F  c #4C4B4B",
"G  c #504F4F",
"H  c #5E5144",
"J  c #504F50",
"K  c #535353",
"L  c #585758",
"P  c #5A5A5A",
"I  c #625446",
"U  c #6B5B4B",
"Y  c #675847",
"T  c #705E4E",
"R  c #7A6755",
"E  c #736352",
"W  c #484E6C",
"Q  c #5F5F60",
"!  c #505671",
"~  c #5F6378",
"^  c #626160",
"/  c #7A7979",
"(  c #894E19",
")  c #854E19",
"_  c #8D5218",
"`  c #8D5B19",
"'  c #925418",
"]  c #9C5C19",
"[  c #88751F",
"{  c #967215",
"}  c #AB6D18",
"|  c #BB7C1A",
" . c #B5771C",
".. c #895120",
"X. c #935925",
"o. c #9A602C",
"O. c #9D6A3C",
"+. c #AD7320",
"@. c #A36C3A",
"#. c #816B57",
"$. c #88745F",
"%. c #9E7854",
"&. c #AB7A4D",
"*. c #AC7F53",
"=. c #8B7661",
"-. c #8C7862",
";. c #927B65",
":. c #9B7F67",
">. c #BF8A19",
",. c #AE802A",
"<. c #B08A29",
"1. c #B59A28",
"2. c #BEA538",
"3. c #C38917",
"4. c #C7981D",
"5. c #DCB41B",
"6. c #DDB117",
"7. c #E3B91F",
"8. c #E2B619",
"9. c #C9AB28",
"0. c #DAAF24",
"q. c #D7B62A",
"w. c #D9A936",
"e. c #DEB333",
"r. c #E4BB25",
"t. c #E5B938",
"y. c #F1CA1A",
"u. c #EDC62F",
"i. c #F0C924",
"p. c #E7C533",
"a. c #F4D135",
"s. c #AE865E",
"d. c #B48252",
"f. c #9A8269",
"g. c #918276",
"h. c #A5896D",
"j. c #A58D72",
"k. c #A88B71",
"l. c #AE9378",
"z. c #B1977B",
"x. c #B99C7F",
"c. c #C5976B",
"v. c #C89E76",
"b. c #EECD40",
"n. c #787A88",
"m. c #878787",
"M. c #969595",
"N. c #9B9A9A",
"B. c #989AA7",
"V. c #A9A9AA",
"C. c #CAAA8A",
"Z. c #C2A385",
"A. c #D2AE89",
"S. c #D5B18D",
"D. c #CAB29E",
"F. c #D6B593",
"G. c #D9B593",
"H. c #DDBA96",
"J. c #D6B698",
"K. c #E3BD94",
"L. c #E3BE9A",
"P. c #E8C39E",
"I. c #E7C49E",
"U. c #EDC7A2",
"Y. c #EECAA5",
"T. c #EFCCAA",
"R. c #F2CCA5",
"E. c #F1CEAE",
"W. c #F0CFB1",
"Q. c #F0D1B7",
"!. c #C5C4C4",
"~. c #C7C7CA",
"^. c #CFCFD1",
"/. c #DAD9D9",
"(. c #D6D5D6",
"). c #F7DCC8",
"_. c #E3E2E2",
"`. c #00b140",
/* pixels */
"`.`.`.`.`.`.`.`.`.`.`.`.`.`.`.`.`.`.`.`.`.`.`.`.`.`.`.`.`.`.`.`.`.`.`.`.`.`.`.`.`.`.`.`.`.`.`.`.`.`.`.`.`.`.`.`.`.`.`.`.",
"`.`.`.`.`.`.`.`.`.`.`.`.`.`.`.`.`.`.`.`.`.`.`.`.`.`.`.`.`.`.`.`.`.`.`.`.`.`.`.`.`.`.`.`.`.`.`.`.`.`.`.`.`.`.`.`.`.`.`.`.",
"`.`.`.`.`.`.`.`.`.`.`.`.`.`.`.`.`.`.`.`.`.`.`.`.`.`.`.`.`.`.`.`.`.`.`.`.`.`.`.`.`.`.`.`.`.`.`.`.`.`.`.`.`.`.`.`.`.`.`.`.",
"`.`.`.`.`.`.`.`.`.`.`.`.`.`.`.`.`.`.`.`.`.`.`.`.`.`.`.`.`.`.`.`.`.`.`.`.`.`.`.`.`.`.`.`.`.`.`.`.`.`.`.`.`.`.`.`.`.`.`.`.",
"`.`.`.`.`.`.`.`.`.`.`.`.`.`.`.`.`.`.`.`.`.`.`.`.`.`.`.`.`.`.`.`.`.`.`.`.`.`.`.`.`.`.`.`.`.`.`.`.`.`.`.`.`.`.`.`.`.`.`.`.",
"`.`.`.`.`.`.`.`.`.`.`.`.`.`.`.`.`.`.`.`.`.`.`.`.`.`.`.X `.`.`.`.`.`.`.`.`.`.`.`.`.`.`.`.`.`.`.`.`.`.`.`.`.`.`.`.`.`.`.`.",
"`.`.`.`.`.`.`.`.`.`.`.`.`.`.`.`.`.`.`.`.`.`.`.`.`.`.o 2 < X X `.`.`.`.`.`.`.`.`.`.`.`.`.`.`.`.`.`.`.`.`.`.`.`.`.`.`.`.`.",
"`.`.`.`.`.`.`.`.`.`.`.`.`.`.`.`.`.`.`.`.`.`.`.`.X o 3 L K v 8 < o o X X `.`.`.`.`.`.`.`.`.`.`.`.`.`.`.`.`.`.`.`.`.`.`.`.",
"`.`.`.`.`.`.`.`.`.`.`.`.`.`.`.`.`.`.`.`.`.`.`.o < w F P P P P K F S r 8 < $ X X `.`.`.`.`.`.`.`.`.`.`.`.`.`.`.`.`.`.`.`.",
"`.`.`.`.`.`.`.`.`.`.`.`.`.`.`.`.`.`.`.`.`.o o 3 G P P K K K P P P P P P K F r 2 o X `.`.`.`.`.`.`.`.`.`.`.`.`.`.`.`.`.`.",
"`.`.`.`.`.`.`.`.`.`.`.`.`.`.`.`.`.`.`.`.o 2 v K P P P P P P P P P P P P P P P K S 3 o X `.`.`.`.`.`.`.`.`.`.`.`.`.`.`.`.",
"`.`.`.`.`.`.`.`.`.`.`.`.`.`.`.`.`.`.+ o 0 K P P P P K P P P P P Q P P P P P P P P L S 4 X `.`.`.`.`.`.`.`.`.`.`.`.`.`.`.",
"`.`.`.`.`.`.`.`.`.`.`.`.`.`.`.`.`.o < S K P P K K K P K P P P P P P P P P P P P P P P K w o `.`.`.`.`.`.`.`.`.`.`.`.`.`.",
"`.`.`.`.`.`.`.`.`.`.`.`.`.`.`.`.O < D P P K P P P P K P K P P K P P P P P Q P P P P P ^ P v $ X `.`.`.`.`.`.`.`.`.`.`.`.",
"`.`.`.`.`.`.`.`.`.`.`.`.`.`.`.X 3 F P K K K J J K K K K K K K K P P L L L P P P P P P P P P S $ X `.`.`.`.`.`.`.`.`.`.`.",
"`.`.`.`.`.`.`.`.`.`.`.`.`.`.X < F P K F K J K J K K K K K P K K K K K L P L L P ^ P P P P P P S < X `.`.`.`.`.`.`.`.`.`.",
"`.`.`.`.`.`.`.`.`.`.`.`.`.X + w D F F D J J G J K K J K J K K K K K K K L K K P P P P P P P P P D $ X `.`.`.`.`.`.`.`.`.",
"`.`.`.`.`.`.`.`.`.`.`.`.`.o w r D F D D F J G F J J K J G K K K K L K K K K K K K K K P P P P P P D + X `.`.`.`.`.`.`.`.",
"`.`.`.`.`.`.`.`.`.`.`.`.o 3 w v D D F F F F G F F J J J K G K G K K K K K K K K L K K K P L P P P P v o `.`.`.`.`.`.`.`.",
"`.`.`.`.`.`.`.`.`.`.`.X 4 w t S D D D D F F F F F J J J J K J K J K J K K K K K K P P K K K K K P P P w o `.`.`.`.`.`.`.",
"`.`.`.`.`.`.`.`.`.`.`.o w w r r D S S D D F F F F F G J J K G G J J K J K J J G K K K K K K P K L P P J 2 X `.`.`.`.`.`.",
"`.`.`.`.`.`.`.`.`.`.o 4 w w r r A D A A S D D F F J F G F G G G G G G K J J K J J J J G J K K K J K P P S o `.`.`.`.`.`.",
"`.`.`.`.`.`.`.`.`.`.> 3 t w r r r r S A S S D D D F F G G D F F F F G G J J K J K G K J J J K J G G G P P 3 X `.`.`.`.`.",
"`.`.`.`.`.`.`.`.`.X < w r r r r r r S S A S S D D D D D D F F F F D F F G G G G G K J J K J G K J J G J P S o `.`.`.`.`.",
"`.`.`.`.`.`.`.`.`.o 3 t r r t r A r r S S A A S S S D D D D F F F J F F F D D D F F F G J J J J F F F F F K 1 `.`.`.`.`.",
"`.`.`.`.`.`.`.`.X < w t w r r r A r r r A S S A A A S S D S D D D D D F D F D F D F D S D D D S S b Z S S J w O `.`.`.`.",
"`.`.`.`.`.`.`.`.X 3 w t r r r r r A A r r r A D S S S S S A A S S S D D D D D D D D D S A S S F D v r r r S 8 O `.`.`.`.",
"`.`.`.`.`.`.`.`.o 3 w w t t v r A r A A r r r r A S D S S S r r r S S r S S S S D D D S D S S S S S S r r w < X `.`.`.`.",
"`.`.`.`.`.`.`.X > 3 w w t w r r r r r A A r r r r A S S S A S A S r r S S S r S v S S S S A r r r r r A r 3 + `.`.`.`.`.",
"`.`.`.`.`.`.`.X < 3 w r r r e Z r r r A r A A r A r r A A S S S S r S S S S r S v S A A r r r r e r r r 8 < o `.`.`.`.`.",
"`.`.`.`.`.`.`.X < 3 w t w w w r r r r r A r A A A r r r r r r r r r r r S r S S v A Z r r r r t r w w w < o `.`.`.`.`.`.",
"`.`.`.`.`.`.`.o 4 w w w r r r w r r r r r A r A r r r r r r r r r r r r r r r r t r t w r t t w w w 3 + X `.`.`.`.`.`.`.",
"`.`.`.`.`.`.`.o 3 3 3 w w r r w r r r r r r r A S r r r r r r A r r r r r r r r r r t t w w 8 3 4 > o X O `.`.`.`.`.`.`.",
"`.`.`.`.`.`.`.o 3 3 w w w r w r w r r r r w r r r r A A r r r r r r r r r r r r w w w w q 3 4 < + % u # `.`.`.`.`.`.`.`.",
"`.`.`.`.`.`.`.+ 3 3 w w w r r w r w r r r w r w r r r r r A r r r w r r w r r w t t w 3 < + $ o @ s l & `.`.`.`.`.`.`.`.",
"`.`.`.`.`.`.X o 3 3 3 w w w r w r w w w r r w w r w w r r r r A r r r w r r w w w 3 < o 8 H =.R 7 + & O `.`.`.`.`.`.`.`.",
"`.`.`.`.`.`.o $ 3 3 3 3 w w w r r r w w r r w w w r r w r r r r r r r r w w w w 3 > 1 Y z.F.I.H.j.2 . `.`.`.`.`.`.`.`.`.",
"`.`.`.`.`.`.`.$ 3 3 3 3 w w r w w r r r w w w r w w w r w r w w w r w w r w w 3 o y M O.c.K.I.I.F.f   `.`.`.`.`.`.`.`.`.",
"`.`.`.`.`.`.`.o 3 < 3 3 w 3 w w r w r w r w w w r w w w r w w w w w w r w w 3 O - ..o.` _ @.P.I.S.f `.`.`.`.`.`.`.`.`.`.",
"`.`.`.`.`.`.`.o 4 3 3 3 3 3 w w w w r w r w r r w w r w w w w w w r w w w 3 > 8 &.v.S.A.c.@.d.I.G.f `.`.`.`.`.`.`.`.`.`.",
"`.`.`.`.`.`.`.o 2 2 3 3 3 w w w w w r r w w w w w w r r w r r w w w w w w < $ f.R m g n U f.&.d.A.f `.`.`.`.`.`.`.`.`.`.",
"`.`.`.`.`.`.`.o > 3 < 3 3 3 3 w 3 w 3 w w w w w w w w w w w w w w w w 3 8 $ H j.0 / M.N.Q 3 I s.*.d `.`.`.`.`.`.`.`.`.`.",
"`.`.`.`.`.`.`.X > 2 < 3 8 3 3 3 3 w w w w 3 w w w w 3 w 3 w w w 3 w 3 w 3 $ j.f.P !.(._.n.Z > b h.7 `.`.`.`.`.`.`.`.`.`.",
"`.`.`.`.`.`.`.`.o < 3 2 3 8 q 3 8 3 3 3 3 w 3 w 3 w w w w 3 w 3 w w 3 3 $ 0 L.f.^ !./.^.W C > q f < `.`.`.`.`.`.`.`.`.`.",
"`.`.`.`.`.`.`.`.o < 3 2 4 3 w 3 3 w 3 3 3 3 w 3 w 3 w 3 w w w w 3 w 3 3 o K R.j.K !./.(.! q q / 6 X `.`.`.`.`.`.`.`.`.`.",
"`.`.`.`.`.`.`.`.`.$ 3 3 4 4 4 3 w 3 w w w 3 3 3 3 3 3 w 3 3 3 3 3 3 3 4 o E R.C.g V./._.B.W ~ m., X `.`.`.`.`.`.`.`.`.`.",
"`.`.`.`.`.`.`.`.`.< < 3 4 4 3 4 3 3 3 w 3 w w w 3 w 3 3 3 3 3 3 3 3 3 4 o 8 z.R.U P !._./.~.V.v b o `.`.`.`.`.`.`.`.`.`.",
"`.`.`.`.`.`.`.`.`.`.O < 4 4 4 4 3 3 3 3 3 w 3 3 w 3 3 3 3 3 w 3 w 3 4 4 $ & 0 x.F.b G m.N./ v T $.+ `.`.`.`.`.`.`.`.`.`.",
"`.`.`.`.`.`.`.`.`.`.`.o < 4 3 4 4 3 3 4 3 4 3 4 3 3 3 8 w 3 w w 3 3 2 4 o N N f l.C.R n 9 f m H f X `.`.`.`.`.`.`.`.`.`.",
"`.`.`.`.`.`.`.`.`.`.`.O X $ 4 3 2 4 4 4 4 2 4 3 3 3 3 3 3 3 3 3 8 3 4 4 > z p.V 3 H f.=.H f 5 c i . `.`.`.`.`.`.`.`.`.`.",
"`.`.`.`.`.`.`.`.`.`.`.`.`.X o < 3 4 4 4 4 4 3 3 3 3 3 3 3 3 3 3 3 4 4 4 > p 5.a.2.B i d x [ q.r.h O `.`.`.`.`.`.`.`.`.`.",
"`.`.`.`.`.`.`.`.`.`.`.`.`.`.O X o < 4 4 4 4 4 3 3 3 3 3 3 3 3 3 4 4 4 4 > * >.p.u.5.5.q.a.9.1.{ : X `.`.`.`.`.`.`.`.`.`.",
"`.`.`.`.`.`.`.`.`.`.`.`.`.`.`.`.O X o $ < 4 2 4 4 3 3 2 2 4 4 4 3 4 4 4 > * >.e.4.7.i.0.y.t.<.- X `.`.`.`.`.`.`.`.`.`.`.",
"`.`.`.`.`.`.`.`.`.`.`.`.`.`.`.`.`.`.. X X X o > > > < < < 4 4 2 4 4 4 4 > % ` w.t.r.6.8.6.t. .= X `.`.`.`.`.`.`.`.`.`.`.",
"`.`.`.`.`.`.`.`.`.`.`.`.`.`.`.`.`.`.`.`.`.. O o < $ > o o o o $ $ < < < o X % h +.>.3.3.|  .l + `.`.`.`.`.`.`.`.`.`.`.`.",
"`.`.`.`.`.`.`.`.`.`.`.`.`.`.`.`.`.`.`.`.`.O o w A S v 2 o > o > $ > o o o o o X u } ] ] ] ' k o `.`.`.`.`.`.`.`.`.`.`.`.",
"`.`.`.`.`.`.`.`.`.`.`.`.`.`.`.`.`.`.`.`.`.o 3 A F K w > 0 J 2 8 S v r t w r > O # ) ' ' ' _ : X `.`.`.`.`.`.`.`.`.`.`.`.",
"`.`.`.`.`.`.`.`.`.`.`.`.`.`.`.`.`.`.`.`.X $ t A D w o 8 J L < r P L G S A A 3 o + a ( ' ' j X `.`.`.`.`.`.`.`.`.`.`.`.`.",
"`.`.`.`.`.`.`.`.`.`.`.`.`.`.`.`.`.`.`.`.o 4 r A w o 3 S K F > D P K F S A A w o X + l ] ( - o `.`.`.`.`.`.`.`.`.`.`.`.`.",
"`.`.`.`.`.`.`.`.`.`.`.`.`.`.`.`.`.`.`.`.o 8 r 8 o 3 r S J w < J K D S S r r 0 $ X X u ( k @ `.`.`.`.`.`.`.`.`.`.`.`.`.`.",
"`.`.`.`.`.`.`.`.`.`.`.`.`.`.`.`.`.`.`.o o w 8 o < 0 A S r > 8 G D S D A A A r 4 o X o y - X `.`.`.`.`.`.`.`.`.`.`.`.`.`.",
"`.`.`.`.`.`.`.`.`.`.`.`.`.`.`.`.`.`.`.o > < 8 0 o 3 r A 8 > A D D D S A A r r 3 o `.o o X `.`.`.`.`.`.`.`.`.`.`.`.`.`.`.",
"`.`.`.`.`.`.`.`.`.`.`.`.`.`.`.`.`.`.`.o o 0 x.J.g.0 o 3 < 2 D D S S A A r r r w o `.`.o `.`.`.`.`.`.`.`.`.`.`.`.`.`.`.`.",
"`.`.`.`.`.`.`.`.`.`.`.`.`.`.`.`.`.`.`.o o f.L.W.).D.H > o 0 S S A A A A r r r w o X `.`.`.`.`.`.`.`.`.`.`.`.`.`.`.`.`.`.",
"`.`.`.`.`.`.`.`.`.`.`.`.`.`.`.`.`.`.`.o $ k.P.E.Q.E.G.H , A S A A A A A r r r q > X `.`.`.`.`.`.`.`.`.`.`.`.`.`.`.`.`.`.",
"`.`.`.`.`.`.`.`.`.`.`.`.`.`.`.`.`.`.`.o o R K.Y.T.Y.L.I 1 A A S S A A A r r w 8 > X `.`.`.`.`.`.`.`.`.`.`.`.`.`.`.`.`.`.",
"`.`.`.`.`.`.`.`.`.`.`.`.`.`.`.`.`.`.`.+ $ 5 :.G.L.K.k.5 8 v r S A A A A r 0 w 8 $ o `.`.`.`.`.`.`.`.`.`.`.`.`.`.`.`.`.`.",
"`.`.`.`.`.`.`.`.`.`.`.`.`.`.`.`.`.`.`.o 4 < 1 H #.Y 5 < r b Z r A A r r r w w 3 $ o `.`.`.`.`.`.`.`.`.`.`.`.`.`.`.`.`.`.",
"`.`.`.`.`.`.`.`.`.`.`.`.`.`.`.`.`.`.`.o 3 3 3 + $ > 3 w r t r t r r w w w w w 3 $ o `.`.`.`.`.`.`.`.`.`.`.`.`.`.`.`.`.`.",
"`.`.`.`.`.`.`.`.`.`.`.`.`.`.`.`.`.`.`.o < 4 3 w 8 3 w 8 8 w w w w 8 3 w 3 8 3 2 o o `.`.`.`.`.`.`.`.`.`.`.`.`.`.`.`.`.`.",
"`.`.`.`.`.`.`.`.`.`.`.`.`.`.`.`.`.`.`.o o o o o o > $ < < < < < < < < < 4 > $ $ o o `.`.`.`.`.`.`.`.`.`.`.`.`.`.`.`.`.`.",
"`.`.`.`.`.`.`.`.`.`.`.`.`.`.`.`.`.`.`.`.`.`.`.X o o $ < o > + o o $ $ X X o o o o `.`.`.`.`.`.`.`.`.`.`.`.`.`.`.`.`.`.`.",
"`.`.`.`.`.`.`.`.`.`.`.`.`.`.`.`.`.`.`.`.`.`.`.`.o X $ 0 0 0 5 & o 8 5 X `.`.`.`.`.`.`.`.`.`.`.`.`.`.`.`.`.`.`.`.`.`.`.`.",
"`.`.`.`.`.`.`.`.`.`.`.`.`.`.`.`.`.`.`.`.`.`.`.`.`.X + 8 8 5 5 $ o $ X o `.`.`.`.`.`.`.`.`.`.`.`.`.`.`.`.`.`.`.`.`.`.`.`.",
"`.`.`.`.`.`.`.`.`.`.`.`.`.`.`.`.`.`.`.`.`.`.`.`.`.`.o $ $ $ o o o o `.`.`.`.`.`.`.`.`.`.`.`.`.`.`.`.`.`.`.`.`.`.`.`.`.`.",
"`.`.`.`.`.`.`.`.`.`.`.`.`.`.`.`.`.`.`.`.`.`.`.`.`.`.X o o o X X `.`.`.`.`.`.`.`.`.`.`.`.`.`.`.`.`.`.`.`.`.`.`.`.`.`.`.`.",
"`.`.`.`.`.`.`.`.`.`.`.`.`.`.`.`.`.`.`.`.`.`.`.`.`.`.`.o `.`.`.`.`.`.`.`.`.`.`.`.`.`.`.`.`.`.`.`.`.`.`.`.`.`.`.`.`.`.`.`.",
"`.`.`.`.`.`.`.`.`.`.`.`.`.`.`.`.`.`.`.`.`.`.`.`.`.`.`.`.`.`.`.`.`.`.`.`.`.`.`.`.`.`.`.`.`.`.`.`.`.`.`.`.`.`.`.`.`.`.`.`.",
"`.`.`.`.`.`.`.`.`.`.`.`.`.`.`.`.`.`.`.`.`.`.`.`.`.`.`.`.`.`.`.`.`.`.`.`.`.`.`.`.`.`.`.`.`.`.`.`.`.`.`.`.`.`.`.`.`.`.`.`.",
"`.`.`.`.`.`.`.`.`.`.`.`.`.`.`.`.`.`.`.`.`.`.`.`.`.`.`.`.`.`.`.`.`.`.`.`.`.`.`.`.`.`.`.`.`.`.`.`.`.`.`.`.`.`.`.`.`.`.`.`."
};
