/* XPM */
static xpm_row_t const p1_right_3[] = {
/* columns rows colors chars-per-pixel */
"60 80 169 2 ",
"   c #161514",
".  c #181715",
"X  c #1A1917",
"o  c #1C1B1A",
"O  c #221D17",
"+  c #201F1C",
"@  c #22211E",
"#  c #2A2218",
"$  c #2C281A",
"%  c #3C2917",
"&  c #3B2A18",
"*  c #352817",
"=  c #1F1E20",
"-  c #211A21",
";  c #252423",
":  c #292623",
">  c #2B2A25",
",  c #2B2B2B",
"<  c #312D2A",
"1  c #34322A",
"2  c #3C3627",
"3  c #232439",
"4  c #312F3A",
"5  c #343433",
"6  c #393735",
"7  c #3C3834",
"8  c #373738",
"9  c #3B3B3B",
"0  c #442C15",
"q  c #453118",
"w  c #543518",
"e  c #663E17",
"r  c #433C33",
"t  c #483D34",
"y  c #574718",
"u  c #6B4919",
"i  c #664517",
"p  c #784618",
"a  c #7C4B19",
"s  c #74451B",
"d  c #6C521E",
"f  c #5C522B",
"g  c #4C433B",
"h  c #4A4136",
"j  c #52483D",
"k  c #554A3E",
"l  c #7C4C20",
"z  c #685C25",
"x  c #60503E",
"c  c #755537",
"v  c #383941",
"b  c #2C3150",
"n  c #353B5C",
"m  c #403F40",
"M  c #434343",
"N  c #484748",
"B  c #4C4B4C",
"V  c #594E40",
"C  c #5F5245",
"Z  c #504F50",
"A  c #535353",
"S  c #5A5A5A",
"D  c #625446",
"F  c #645649",
"G  c #67594B",
"H  c #6B5C4C",
"J  c #685746",
"K  c #715F4E",
"L  c #665D56",
"P  c #73604F",
"I  c #766553",
"U  c #7D6A56",
"Y  c #7B6956",
"T  c #5E6070",
"R  c #666666",
"E  c #61657D",
"W  c #797878",
"Q  c #864D18",
"!  c #8E5219",
"~  c #935418",
"^  c #975819",
"/  c #9D5C19",
"(  c #856C16",
")  c #90681D",
"_  c #A6681A",
"`  c #B87819",
"'  c #8F5827",
"]  c #925823",
"[  c #897626",
"{  c #947A21",
"}  c #8C7B33",
"|  c #AC7824",
" . c #A16936",
".. c #A26A38",
"X. c #82674D",
"o. c #816E5A",
"O. c #81705E",
"+. c #AB7848",
"@. c #B17E4F",
"#. c #B78718",
"$. c #BD8117",
"%. c #AE9528",
"&. c #B89C27",
"*. c #CA9C1E",
"=. c #DBAB1B",
"-. c #DDB21E",
";. c #E1B718",
":. c #C99125",
">. c #D29830",
",. c #C2A629",
"<. c #D8A425",
"1. c #D6B335",
"2. c #E5BC37",
"3. c #F4CE1F",
"4. c #EBC42A",
"5. c #ECC424",
"6. c #F3CC24",
"7. c #EFCE3B",
"8. c #EBC537",
"9. c #B88A5D",
"0. c #98826A",
"q. c #A0886F",
"w. c #A38468",
"e. c #A48B70",
"r. c #AB8F74",
"t. c #B1977A",
"y. c #BC9A7D",
"u. c #C5976A",
"i. c #C99D71",
"p. c #C29871",
"a. c #CAA47E",
"s. c #7C7F92",
"d. c #878786",
"f. c #858797",
"g. c #8F9096",
"h. c #9C9C9C",
"j. c #949292",
"k. c #B09780",
"l. c #BB9E81",
"z. c #BFA284",
"x. c #BCA591",
"c. c #9C9EA9",
"v. c #A9A7A7",
"b. c #AAABB4",
"n. c #B2B2B1",
"m. c #CBAA89",
"M. c #C7A686",
"N. c #CEB18F",
"B. c #D5B491",
"V. c #DEBC98",
"C. c #DBB895",
"Z. c #E2BE9A",
"A. c #E5C19C",
"S. c #E9C49E",
"D. c #EBC6A1",
"F. c #ECC9A3",
"G. c #EFCDAD",
"H. c #F0CDAC",
"J. c #F3CDA6",
"K. c #EFD0B5",
"L. c #CECDCD",
"P. c #C0C0C0",
"I. c #D0CFCF",
"U. c #D4D4D4",
"Y. c #DCDBDB",
"T. c #F3D7C1",
"R. c #E0DFDF",
"E. c #E3E3E2",
"W. c #00b140",
/* pixels */
"W.W.W.W.W.W.W.W.W.W.W.W.W.W.W.W.W.W.W.W.W.W.W.W.W.W.W.W.W.W.W.W.W.W.W.W.W.W.W.W.W.W.W.W.W.W.W.W.W.W.W.W.W.W.W.W.W.W.W.W.",
"W.W.W.W.W.W.W.W.W.W.W.W.W.W.W.W.W.W.W.W.W.W.W.W.W.W.W.W.W.W.W.W.W.W.W.W.W.W.W.W.W.W.W.W.W.W.W.W.W.W.W.W.W.W.W.W.W.W.W.W.",
"W.W.W.W.W.W.W.W.W.W.W.W.W.W.W.W.W.W.W.W.W.W.W.W.W.W.W.W.W.W.W.W.W.W.W.W.W.W.W.W.W.W.W.W.W.W.W.W.W.W.W.W.W.W.W.W.W.W.W.W.",
"W.W.W.W.W.W.W.W.W.W.W.W.W.W.W.W.W.W.W.W.W.W.W.W.W.W.W.W.W.W.W.W.W.W.W.W.W.W.W.W.W.W.W.W.W.W.W.W.W.W.W.W.W.W.W.W.W.W.W.W.",
"W.W.W.W.W.W.W.W.W.W.W.W.W.W.W.W.W.W.W.W.W.W.W.W.W.W.W.W.W.W.W.W.W.W.W.W.W.W.W.W.W.W.W.W.W.W.W.W.W.W.W.W.W.W.W.W.W.W.W.W.",
"W.W.W.W.W.W.W.W.W.W.W.W.W.W.W.W.W.W.W.W.W.W.W.W.W.W.W.W.W.W.W.W.W.W.W.W.W.W.W.W.W.W.W.W.W.W.W.W.W.W.W.W.W.W.W.W.W.W.W.W.",
"W.W.W.W.W.W.W.W.W.W.W.W.W.W.W.W.W.W.W.W.W.W.W.W.W.+ @ o X W.W.W.W.W.W.W.W.W.W.W.W.W.W.W.W.W.W.W.W.W.W.W.W.W.W.W.W.W.W.W.",
"W.W.W.W.W.W.W.W.W.W.W.W.W.W.W.W.W.W.W.W.W.W.W.X + 6 A M 5 ; + X X X X W.W.W.W.W.W.W.W.W.W.W.W.W.W.W.W.W.W.W.W.W.W.W.W.W.",
"W.W.W.W.W.W.W.W.W.W.W.W.W.W.W.W.W.W.W.W.W.W.o @ 5 N S S S S B M 9 8 < ; o X W.W.W.W.W.W.W.W.W.W.W.W.W.W.W.W.W.W.W.W.W.W.",
"W.W.W.W.W.W.W.W.W.W.W.W.W.W.W.W.W.W.W.W.W.@ > B S S S A S S S S S S S A N 6 ; + X W.W.W.W.W.W.W.W.W.W.W.W.W.W.W.W.W.W.W.",
"W.W.W.W.W.W.W.W.W.W.W.W.W.W.W.W.W.W.W.o ; 9 A S S S A S A S S S S S S S S S A N , + X W.W.W.W.W.W.W.W.W.W.W.W.W.W.W.W.W.",
"W.W.W.W.W.W.W.W.W.W.W.W.W.W.W.W.W.W.o > B S S S A S S S S S S S S S S S S S S S A M ; X W.W.W.W.W.W.W.W.W.W.W.W.W.W.W.W.",
"W.W.W.W.W.W.W.W.W.W.W.W.W.W.W.W.. o 9 A A A S A S A S S S S S S S S S S S S S S S S A 6 + W.W.W.W.W.W.W.W.W.W.W.W.W.W.W.",
"W.W.W.W.W.W.W.W.W.W.W.W.W.W.W.X @ m S S S S S S A S A A S S S S S S S S S S S S S S S S m + X W.W.W.W.W.W.W.W.W.W.W.W.W.",
"W.W.W.W.W.W.W.W.W.W.W.W.W.W.X @ M S A A A A A A A A A A A A S S S S S S S S S S S S R S S M ; X W.W.W.W.W.W.W.W.W.W.W.W.",
"W.W.W.W.W.W.W.W.W.W.W.W.W.X @ N S A A A A A A A A A A A A A A A A A A S S S S S S S S S S S N ; X W.W.W.W.W.W.W.W.W.W.W.",
"W.W.W.W.W.W.W.W.W.W.W.W.W.o 5 A B B B A A Z Z A A Z A A A A A A A A S A A A S S S S S S S S S Z ; X W.W.W.W.W.W.W.W.W.W.",
"W.W.W.W.W.W.W.W.W.W.W.W.o , 9 N N N B B Z B Z Z Z A Z A Z A A A A A A A A A A A S A S S S S S S B ; X W.W.W.W.W.W.W.W.W.",
"W.W.W.W.W.W.W.W.W.W.W.o ; 5 M N B B B N B Z B B Z Z Z A A Z A A A A A A A S S A A A A A S A S S S N @ W.W.W.W.W.W.W.W.W.",
"W.W.W.W.W.W.W.W.W.W.X @ 5 5 M N N N B B B B B Z Z Z Z A Z A A B Z A Z Z A A A A A S A A S A A S S S 9 o W.W.W.W.W.W.W.W.",
"W.W.W.W.W.W.W.W.W.W.o < 5 9 m N M N N N B B B B B Z A A Z A B A A A A Z Z Z B Z A A A A A A S A A S S < X W.W.W.W.W.W.W.",
"W.W.W.W.W.W.W.W.W.X @ 5 5 9 9 M N m M N N N B Z B B B B B Z A B B Z Z A A Z A Z Z Z Z Z Z A A Z A A S Z @ W.W.W.W.W.W.W.",
"W.W.W.W.W.W.W.W.W.o , 5 8 9 m 9 M M m M N N N N B B B B B B B B B A A A A Z A Z Z A A Z A Z A Z Z Z A S 8 X W.W.W.W.W.W.",
"W.W.W.W.W.W.W.W.X @ 1 8 8 9 9 9 9 M M m M M N N N B B B B B B B N B B B Z Z B Z Z Z Z Z Z Z Z A Z Z A A B + W.W.W.W.W.W.",
"W.W.W.W.W.W.W.W.X : 5 9 9 8 9 9 9 m N M m M M M N B N N B B B B B B B N N N N B B B B Z Z B B N N N M N A , X W.W.W.W.W.",
"W.W.W.W.W.W.W.W.o 5 8 8 9 9 9 m 9 9 m M M m m m m M N N M N N N B B B B N N B N N N M N M N N M m 9 m g B 8 X W.W.W.W.W.",
"W.W.W.W.W.W.W.X ; 5 8 8 9 9 9 m m 9 9 9 9 M M M m M M M M m M M M M N M N N N N N N M M M M N N M m 9 9 9 , X W.W.W.W.W.",
"W.W.W.W.W.W.W.o ; 5 8 8 6 9 9 9 m m 9 9 9 9 m M N M M M M 9 m 9 m m M M M M M N N N M N N M M 9 M m M 9 5 @ X W.W.W.W.W.",
"W.W.W.W.W.W.W.o , 5 8 9 5 9 9 9 9 m m m m 9 9 9 m M M M M m M m 9 9 m M M M M m M M g M 9 9 9 9 9 9 9 8 , + W.W.W.W.W.W.",
"W.W.W.W.W.W.X o , 5 8 8 5 9 m 9 9 9 m m m 9 9 m 9 9 m M M M M M M m M M M m m M M m 9 9 9 9 8 8 9 8 8 5 @ o W.W.W.W.W.W.",
"W.W.W.W.W.W.X + , 5 5 9 8 8 9 9 9 9 9 9 m 9 m 9 9 9 9 9 9 9 9 9 9 9 9 M m M m m 9 9 8 9 9 9 9 8 8 8 , = X W.W.W.W.W.W.W.",
"W.W.W.W.W.W.o ; , 5 8 8 9 5 8 9 9 9 9 m m 9 9 m m 9 9 9 9 9 9 9 9 9 9 9 9 9 8 8 9 8 8 8 9 8 5 5 , ; o X W.W.W.W.W.W.W.W.",
"W.W.W.W.W.W.X ; , 5 5 8 9 8 8 8 9 9 9 9 9 9 m 9 9 9 m 9 9 m 9 9 9 9 9 9 9 9 9 9 8 8 8 6 5 , , : = O O . W.W.W.W.W.W.W.W.",
"W.W.W.W.W.W.o ; , , 5 5 8 8 8 8 9 9 9 9 9 9 9 9 m m 9 9 9 9 9 m m 9 9 9 9 9 9 8 6 5 5 , , : ; o * e & X W.W.W.W.W.W.W.W.",
"W.W.W.W.W.W.X , , 5 5 5 8 9 8 8 8 9 9 9 9 8 8 6 9 9 9 m 9 9 9 8 8 8 8 9 8 9 8 8 8 5 , @ o : > X 0 e # X W.W.W.W.W.W.W.W.",
"W.W.W.W.W.W.X > , 5 5 5 5 8 8 8 8 5 8 9 6 8 8 5 8 9 8 9 9 m m 9 9 8 9 8 8 5 8 5 , ; o 1 K e.e.H : X . W.W.W.W.W.W.W.W.W.",
"W.W.W.W.W.W.@ , , , , 5 5 8 8 8 9 5 8 8 6 8 5 8 9 8 9 9 9 9 9 9 9 9 9 9 8 5 5 , @ @ x t.V.D.D.N.V   W.W.W.W.W.W.W.W.W.W.",
"W.W.W.W.W.W.o , > , , 5 5 8 8 8 8 9 9 5 8 8 8 5 5 8 8 8 8 8 8 8 8 9 5 8 5 1 , @ % s ' @.i.A.F.D.I   W.W.W.W.W.W.W.W.W.W.",
"W.W.W.W.W.W.o ; , ; , 5 5 5 8 8 6 9 9 8 8 8 6 5 5 5 5 8 5 8 8 8 5 5 8 8 5 , @ $ a ....] ! i.F.Z.Y . W.W.W.W.W.W.W.W.W.W.",
"W.W.W.W.W.W.o ; , , > , 5 , 5 8 5 5 8 5 8 9 6 8 8 8 5 5 5 5 5 5 8 8 5 5 , ; @ Y p.m.m.a.9.{ u.D.o.. W.W.W.W.W.W.W.W.W.W.",
"W.W.W.W.W.W.o ; , , , , , 5 5 5 8 8 8 8 5 8 5 8 8 8 5 8 8 8 8 5 5 5 5 5 , o G 0.j 7 7 r H 0.9.u.U X W.W.W.W.W.W.W.W.W.W.",
"W.W.W.W.W.W.X @ ; , , , , , , 5 1 5 5 8 5 5 5 5 5 8 8 8 5 5 , 5 5 , 5 , ; > t.j R h.n.h.v , I 9.c O W.W.W.W.W.W.W.W.W.W.",
"W.W.W.W.W.W.W.+ ; , ; , , , , , 1 5 , , 5 , 5 5 5 , , 5 5 5 5 5 , 5 , 5 o G B.g v.L.E.b.n 3 + Y J X W.W.W.W.W.W.W.W.W.W.",
"W.W.W.W.W.W.W.X ; ; , , 5 , , 5 , , 5 5 5 5 , 5 5 , 5 5 , 5 , 5 5 1 , > + q.V.g v.L.E.f.b = 5 9 : X W.W.W.W.W.W.W.W.W.W.",
"W.W.W.W.W.W.W.X = , , , , 5 , , , , , , , 5 , 5 , 5 5 5 5 , 5 , 5 , , ; ; z.A.j j.U.E.c.n 3 T R . o W.W.W.W.W.W.W.W.W.W.",
"W.W.W.W.W.W.W.W.o > , ; ; , , 5 5 5 5 , , , , , 5 , , , , 5 , 5 , , , ; > x.J.Y S L.R.U.s.E g.9 o W.W.W.W.W.W.W.W.W.W.W.",
"W.W.W.W.W.W.W.W.o ; , ; , , , , , 5 5 5 5 5 5 , 5 , , , , , , , , , ; ; o D V.m.9 0.L.Y.U.P.S k r . W.W.W.W.W.W.W.W.W.W.",
"W.W.W.W.W.W.W.W.W.o ; , , ; ; > , , , , , , 5 , , , 5 , , , , 5 5 > , ; + $ G Z.r.7 S s.W M h q.t . W.W.W.W.W.W.W.W.W.W.",
"W.W.W.W.W.W.W.W.W.W.X ; > , , ; ; , , , , , , ; , , , , , 5 , 5 , , , ; = %.2 C z.l.I V t h g 1 O X W.W.W.W.W.W.W.W.W.W.",
"W.W.W.W.W.W.W.W.W.W.  + + , , , , , , ; ; , , , , , , 4 5 , , , , , ; ;   %.1.f 1 G U G r 2 z [ $ W.W.W.W.W.W.W.W.W.W.W.",
"W.W.W.W.W.W.W.W.W.W.W.W.X = ; , , ; , , , , , , , , , , , , 1 , , , > , = z 6.7.%.z y z [ ,.6.#.# W.W.W.W.W.W.W.W.W.W.W.",
"W.W.W.W.W.W.W.W.W.W.W.W.W.  X o ; , ; ; ; , ; , , , , , , , , , , ; > > o u <.8.-.-.;.4.7.&.{ y o W.W.W.W.W.W.W.W.W.W.W.",
"W.W.W.W.W.W.W.W.W.W.W.W.W.W.W.X o + ; ; ; , ; , , , , ; , , , ; , ; , ; o u :.1.:.5.5.-.6.2.) o X W.W.W.W.W.W.W.W.W.W.W.",
"W.W.W.W.W.W.W.W.W.W.W.W.W.W.W.W.W.X X o + = = ; = ; ; , , ; , ; ; , , ; o q _ 2.8.-.=.;.<.>.a o W.W.W.W.W.W.W.W.W.W.W.W.",
"W.W.W.W.W.W.W.W.W.W.W.W.W.W.W.W.W.W.W.W.      o = o o o X = = = = ; ; = X o * d ` $.$.` ` _ w X W.W.W.W.W.W.W.W.W.W.W.W.",
"W.W.W.W.W.W.W.W.W.W.W.W.W.W.W.W.W.W.W.W.W.  = 1 9 9 8 5 ; o @ o X o = o X o X . e _ ^ ) ~ ! q X W.W.W.W.W.W.W.W.W.W.W.W.",
"W.W.W.W.W.W.W.W.W.W.W.W.W.W.W.W.W.W.W.W.W.+ 1 m B A A A 8 ; Z 8 = , 9 5 8 5 + X & ~ ~ ! ^ u O W.W.W.W.W.W.W.W.W.W.W.W.W.",
"W.W.W.W.W.W.W.W.W.W.W.W.W.W.W.W.W.W.W.W.X ; 9 M Z Z S S 9 @ A S 8 = 9 M m 9 ; X + e ! ~ ! 0 X W.W.W.W.W.W.W.W.W.W.W.W.W.",
"W.W.W.W.W.W.W.W.W.W.W.W.W.W.W.W.W.W.W.W.o , 9 M B Z A S M @ 9 A B > @ 9 M 9 , o X O a / p O o W.W.W.W.W.W.W.W.W.W.W.W.W.",
"W.W.W.W.W.W.W.W.W.W.W.W.W.W.W.W.W.W.W.W.+ 5 9 M B B A A B = 1 M Z 9 = ; m 9 5 @ X + w Q w o W.W.W.W.W.W.W.W.W.W.W.W.W.W.",
"W.W.W.W.W.W.W.W.W.W.W.W.W.W.W.W.W.W.W.o @ 9 9 M N Z Z A B ; , 9 M m 5 o , 9 8 ; X X o & # X W.W.W.W.W.W.W.W.W.W.W.W.W.W.",
"W.W.W.W.W.W.W.W.W.W.W.W.W.W.W.W.W.W.W.+ ; 9 9 9 M N B N B 5 + 8 m 9 , o o 5 9 , o W.X o X W.W.W.W.W.W.W.W.W.W.W.W.W.W.W.",
"W.W.W.W.W.W.W.W.W.W.W.W.W.W.W.W.W.W.W.o , 9 9 M M M M N N 9 + , , + ; C C @ , 1 o W.W.W.W.W.W.W.W.W.W.W.W.W.W.W.W.W.W.W.",
"W.W.W.W.W.W.W.W.W.W.W.W.W.W.W.W.W.W.W.o , 8 9 M 9 m M M M m @ o > L x.A.C.I @ , o W.W.W.W.W.W.W.W.W.W.W.W.W.W.W.W.W.W.W.",
"W.W.W.W.W.W.W.W.W.W.W.W.W.W.W.W.W.W.W.o , 9 9 m m m M M M M > 2 k.T.T.H.D.r.: , o W.W.W.W.W.W.W.W.W.W.W.W.W.W.W.W.W.W.W.",
"W.W.W.W.W.W.W.W.W.W.W.W.W.W.W.W.W.W.o + , 8 9 9 m m m m 9 M , G A.G.K.G.S.e.@ , + . W.W.W.W.W.W.W.W.W.W.W.W.W.W.W.W.W.W.",
"W.W.W.W.W.W.W.W.W.W.W.W.W.W.W.W.W.W.X o , 5 8 9 m m m m m m , r m.S.F.S.B.H + , + X W.W.W.W.W.W.W.W.W.W.W.W.W.W.W.W.W.W.",
"W.W.W.W.W.W.W.W.W.W.W.W.W.W.W.W.W.W.X + , 5 8 8 9 9 m 9 9 m 8 ; I y.m.y.K # , , + X W.W.W.W.W.W.W.W.W.W.W.W.W.W.W.W.W.W.",
"W.W.W.W.W.W.W.W.W.W.W.W.W.W.W.W.W.W.X + , , 5 8 8 8 8 5 8 8 9 1 @ 1 r > = > , , + X W.W.W.W.W.W.W.W.W.W.W.W.W.W.W.W.W.W.",
"W.W.W.W.W.W.W.W.W.W.W.W.W.W.W.W.W.W.W.o : , < 5 5 5 5 5 5 5 5 5 , > ; , , 5 , , - X W.W.W.W.W.W.W.W.W.W.W.W.W.W.W.W.W.W.",
"W.W.W.W.W.W.W.W.W.W.W.W.W.W.W.W.W.W.W.o o o o @ = @ ; @ ; ; @ ; ; ; ; ; @ @ @ + o X W.W.W.W.W.W.W.W.W.W.W.W.W.W.W.W.W.W.",
"W.W.W.W.W.W.W.W.W.W.W.W.W.W.W.W.W.W.W.o ; > > ; @ @ o = X o X X o o o o o = X o @ + o W.W.W.W.W.W.W.W.W.W.W.W.W.W.W.W.W.",
"W.W.W.W.W.W.W.W.W.W.W.W.W.W.W.W.W.W.W.o > 1 1 1 1 > @ . W.W.W.W.X @ $ @ @ @ + X o o W.W.W.W.W.W.W.W.W.W.W.W.W.W.W.W.W.W.",
"W.W.W.W.W.W.W.W.W.W.W.W.W.W.W.W.W.W.o + = $ $ > ; o > @ o W.W.W.W.o + + o o X o W.W.W.W.W.W.W.W.W.W.W.W.W.W.W.W.W.W.W.W.",
"W.W.W.W.W.W.W.W.W.W.W.W.W.W.W.W.W.W.W.W.X X + o o o 1 > + W.W.W.W.o o o o W.W.W.W.W.W.W.W.W.W.W.W.W.W.W.W.W.W.W.W.W.W.W.",
"W.W.W.W.W.W.W.W.W.W.W.W.W.W.W.W.W.W.W.W.W.W.W.o X o @ o o W.W.W.W.X W.W.W.W.W.W.W.W.W.W.W.W.W.W.W.W.W.W.W.W.W.W.W.W.W.W.",
"W.W.W.W.W.W.W.W.W.W.W.W.W.W.W.W.W.W.W.W.W.W.W.W.W.W.W.W.W.W.W.W.W.W.W.W.W.W.W.W.W.W.W.W.W.W.W.W.W.W.W.W.W.W.W.W.W.W.W.W.",
"W.W.W.W.W.W.W.W.W.W.W.W.W.W.W.W.W.W.W.W.W.W.W.W.W.W.W.W.W.W.W.W.W.W.W.W.W.W.W.W.W.W.W.W.W.W.W.W.W.W.W.W.W.W.W.W.W.W.W.W.",
"W.W.W.W.W.W.W.W.W.W.W.W.W.W.W.W.W.W.W.W.W.W.W.W.W.W.W.W.W.W.W.W.W.W.W.W.W.W.W.W.W.W.W.W.W.W.W.W.W.W.W.W.W.W.W.W.W.W.W.W.",
"W.W.W.W.W.W.W.W.W.W.W.W.W.W.W.W.W.W.W.W.W.W.W.W.W.W.W.W.W.W.W.W.W.W.W.W.W.W.W.W.W.W.W.W.W.W.W.W.W.W.W.W.W.W.W.W.W.W.W.W."
};
