/* XPM */
static xpm_row_t const p1_right_4[] = {
/* columns rows colors chars-per-pixel */
"60 80 169 2 ",
"   c #161513",
".  c #181716",
"X  c #1A1917",
"o  c #171818",
"O  c #1C1B1A",
"+  c #211F1C",
"@  c #221C16",
"#  c #22211E",
"$  c #2B2218",
"%  c #2D2013",
"&  c #3B2A18",
"*  c #3B351E",
"=  c #1D1E27",
"-  c #211B22",
";  c #242423",
":  c #292725",
">  c #2B2925",
",  c #2B2B2B",
"<  c #272728",
"1  c #312D26",
"2  c #332F2C",
"3  c #333026",
"4  c #323129",
"5  c #3A342D",
"6  c #39352B",
"7  c #242233",
"8  c #333333",
"9  c #383634",
"0  c #3C3935",
"q  c #3B3B3B",
"w  c #33333A",
"e  c #442E18",
"r  c #4B3018",
"t  c #48381B",
"y  c #563917",
"u  c #683E17",
"i  c #443423",
"p  c #423A32",
"a  c #433F3B",
"s  c #6A4519",
"d  c #6A4917",
"f  c #7B4A19",
"g  c #71531A",
"h  c #74641C",
"j  c #4D4526",
"k  c #5C5227",
"l  c #4B4137",
"z  c #4C4339",
"x  c #53483E",
"c  c #6C5F25",
"v  c #625623",
"b  c #7B5029",
"n  c #282A45",
"m  c #2D324E",
"M  c #3F3F40",
"N  c #403F40",
"B  c #434343",
"V  c #484748",
"C  c #4C4B4B",
"Z  c #4C4844",
"A  c #5A4E41",
"S  c #504F4E",
"D  c #5E5144",
"F  c #504F50",
"G  c #535353",
"H  c #5A5A5A",
"J  c #575758",
"K  c #625345",
"L  c #6B5B4B",
"P  c #6F6050",
"I  c #756452",
"U  c #7B6B5B",
"Y  c #796855",
"T  c #515672",
"R  c #5E6279",
"E  c #626261",
"W  c #864D1A",
"Q  c #8A4E19",
"!  c #8E5318",
"~  c #825718",
"^  c #915418",
"/  c #975819",
"(  c #9C5C19",
")  c #946D19",
"_  c #9C7E1C",
"`  c #A4641A",
"'  c #B5731A",
"]  c #935823",
"[  c #807132",
"{  c #A16937",
"}  c #936B46",
"|  c #816E5A",
" . c #8B735E",
".. c #AC7A4C",
"X. c #A8774A",
"o. c #AB7D52",
"O. c #937B65",
"+. c #BF8417",
"@. c #BC9C1A",
"#. c #A6812A",
"$. c #B59A28",
"%. c #C48A16",
"&. c #CEA01F",
"*. c #D4AF1C",
"=. c #E2B81B",
"-. c #E3B715",
";. c #C38C28",
":. c #D29A30",
">. c #C2A72D",
",. c #D6A628",
"<. c #C0A83D",
"1. c #CBB034",
"2. c #DDB936",
"3. c #E4BB28",
"4. c #E5B825",
"5. c #E7BF3E",
"6. c #ECC41F",
"7. c #F2CC23",
"8. c #E8C639",
"9. c #F4CF36",
"0. c #F5D132",
"q. c #B48252",
"w. c #978269",
"e. c #9D856C",
"r. c #9D8165",
"t. c #A38769",
"y. c #BE8F61",
"u. c #A38A71",
"i. c #AE9378",
"p. c #B39377",
"a. c #C89B71",
"s. c #CDA176",
"d. c #7B7D8B",
"f. c #858584",
"g. c #8C8C8B",
"h. c #86878A",
"j. c #9E9D9C",
"k. c #BC9F81",
"l. c #A09F9F",
"z. c #BDA183",
"x. c #AAABB5",
"c. c #BFBDBD",
"v. c #B3B3B4",
"b. c #C6A787",
"n. c #C9AA8B",
"m. c #D2AB87",
"M. c #D1B08F",
"N. c #D8B089",
"B. c #DAB592",
"V. c #DCBA96",
"C. c #DAB895",
"Z. c #E3BD95",
"A. c #E2BD99",
"S. c #E7C39D",
"D. c #E8C29D",
"F. c #EBC7A2",
"G. c #EDC9A3",
"H. c #EFCDAC",
"J. c #F0CBA5",
"K. c #F0CBA8",
"L. c #EDD1BB",
"P. c #F3D4BB",
"I. c #C4C2C2",
"U. c #CDCDCE",
"Y. c #D6D6D6",
"T. c #D8D7D7",
"R. c #DCDBDB",
"E. c #E4E3E3",
"W. c #00b140",
/* pixels */
"W.W.W.W.W.W.W.W.W.W.W.W.W.W.W.W.W.W.W.W.W.W.W.W.W.W.W.W.W.W.W.W.W.W.W.W.W.W.W.W.W.W.W.W.W.W.W.W.W.W.W.W.W.W.W.W.W.W.W.W.",
"W.W.W.W.W.W.W.W.W.W.W.W.W.W.W.W.W.W.W.W.W.W.W.W.W.W.W.W.W.W.W.W.W.W.W.W.W.W.W.W.W.W.W.W.W.W.W.W.W.W.W.W.W.W.W.W.W.W.W.W.",
"W.W.W.W.W.W.W.W.W.W.W.W.W.W.W.W.W.W.W.W.W.W.W.W.W.W.W.W.W.W.W.W.W.W.W.W.W.W.W.W.W.W.W.W.W.W.W.W.W.W.W.W.W.W.W.W.W.W.W.W.",
"W.W.W.W.W.W.W.W.W.W.W.W.W.W.W.W.W.W.W.W.W.W.W.W.W.W.W.W.W.W.W.W.W.W.W.W.W.W.W.W.W.W.W.W.W.W.W.W.W.W.W.W.W.W.W.W.W.W.W.W.",
"W.W.W.W.W.W.W.W.W.W.W.W.W.W.W.W.W.W.W.W.W.W.W.W.W.W.W.W.W.W.W.W.W.W.W.W.W.W.W.W.W.W.W.W.W.W.W.W.W.W.W.W.W.W.W.W.W.W.W.W.",
"W.W.W.W.W.W.W.W.W.W.W.W.W.W.W.W.W.W.W.W.W.W.W.W.X O W.W.W.W.W.W.W.W.W.W.W.W.W.W.W.W.W.W.W.W.W.W.W.W.W.W.W.W.W.W.W.W.W.W.",
"W.W.W.W.W.W.W.W.W.W.W.W.W.W.W.W.W.W.W.W.W.W.W.O > 8 : O O o W.W.W.W.W.W.W.W.W.W.W.W.W.W.W.W.W.W.W.W.W.W.W.W.W.W.W.W.W.W.",
"W.W.W.W.W.W.W.W.W.W.W.W.W.W.W.W.W.W.W.W.W.W.o # V H G V q 4 > ; ; O O X W.W.W.W.W.W.W.W.W.W.W.W.W.W.W.W.W.W.W.W.W.W.W.W.",
"W.W.W.W.W.W.W.W.W.W.W.W.W.W.W.W.W.W.W.W.W.+ 4 V J H H H H H J J G C l 8 > O o W.W.W.W.W.W.W.W.W.W.W.W.W.W.W.W.W.W.W.W.W.",
"W.W.W.W.W.W.W.W.W.W.W.W.W.W.W.W.W.W.W.O + M H H J G G J H H H H H H J J G V 8 + X W.W.W.W.W.W.W.W.W.W.W.W.W.W.W.W.W.W.W.",
"W.W.W.W.W.W.W.W.W.W.W.W.W.W.W.W.W.W.o 4 C H H H H J H H H H H H H H H H J H H S 8 + X W.W.W.W.W.W.W.W.W.W.W.W.W.W.W.W.W.",
"W.W.W.W.W.W.W.W.W.W.W.W.W.W.W.W.o # q G H J J J J J H H H H H H H H H H H H H H J C > O W.W.W.W.W.W.W.W.W.W.W.W.W.W.W.W.",
"W.W.W.W.W.W.W.W.W.W.W.W.W.W.W.X # V J J G J J G J G H H H H H H H H H H H E H H H H G 8 O W.W.W.W.W.W.W.W.W.W.W.W.W.W.W.",
"W.W.W.W.W.W.W.W.W.W.W.W.W.W.X ; V H H H H J H J J J J J J H J J H H J J H H E H H H E J q # X W.W.W.W.W.W.W.W.W.W.W.W.W.",
"W.W.W.W.W.W.W.W.W.W.W.W.W.X : C H J G G S G G G G G S G G G J J J J J J J H H H H H H H H B ; X W.W.W.W.W.W.W.W.W.W.W.W.",
"W.W.W.W.W.W.W.W.W.W.W.W.X ; C J G S S G G S G G S G S J J G G G G J J J J J H H H E H H H H V ; X W.W.W.W.W.W.W.W.W.W.W.",
"W.W.W.W.W.W.W.W.W.W.W.W.+ 8 C C C C S F F F F F G G S G G G G G G G G G G G G J J H H H H H H C ; X W.W.W.W.W.W.W.W.W.W.",
"W.W.W.W.W.W.W.W.W.W.W.O , q V C V V C S C C F F G C G F G F G G G G J G J J G G G G G J H H H H V # X W.W.W.W.W.W.W.W.W.",
"W.W.W.W.W.W.W.W.W.W.X < 8 M V C V C C C F C F F G G G F F G G F G S G G G G J J J G G G G G H H H q O W.W.W.W.W.W.W.W.W.",
"W.W.W.W.W.W.W.W.W.o # 8 9 M C V V C C C C C C F C G F G G C G F G G S G S S S S G G G J H G G J H H 8 X W.W.W.W.W.W.W.W.",
"W.W.W.W.W.W.W.W.W.O , 9 q M V V B C V C C F C C C F F G S F C S S G G F F C G G G F G G F G F G J H G ; W.W.W.W.W.W.W.W.",
"W.W.W.W.W.W.W.W.o # 8 8 q q M V M M B V V V C C S C C C C F S F G S F G G F S S F G G F G F F S C J H q O W.W.W.W.W.W.W.",
"W.W.W.W.W.W.W.W.o < 8 8 9 q q M B M M V V C V V C C C C C V C V C C F G F G F G F G F F S G F S S S J G ; W.W.W.W.W.W.W.",
"W.W.W.W.W.W.W.W.# , q q 9 q q q M B M B M B V C V V C C C C C C C C C C V C C C C C S F F S C V V V V G 9 X W.W.W.W.W.W.",
"W.W.W.W.W.W.W.X ; 8 q q q q M q q B V M M B B B B V V V V C C C C C C B B V C V V V B V V V V M q M M V B O W.W.W.W.W.W.",
"W.W.W.W.W.W.W.O < 9 9 q q q q M q M M B B M M M B B B B B B V V B C V C C V C V V B B M B V V B M q q q 8 O W.W.W.W.W.W.",
"W.W.W.W.W.W.W.+ 8 w 9 q q q q M M q q q M B B B B B B B M M M M M M B B V B B C V V B V B B M B B B q 9 : X W.W.W.W.W.W.",
"W.W.W.W.W.W.X ; 8 9 9 w M q q q M M q q q q M B B B B B M M M M M M B B M B B M B B B M M q q 0 q q q 8 # X W.W.W.W.W.W.",
"W.W.W.W.W.W.O : , 9 q 8 q q q q M M M M q q 0 q B B B M B B B M q M B B B B M B M M M q M q q q q 9 8 < O W.W.W.W.W.W.W.",
"W.W.W.W.W.W.O < 8 w q 8 8 q q q q M M M q M M q M q M M B B M M M M B M M M M M q q q q w 9 q 9 9 8 ; O W.W.W.W.W.W.W.W.",
"W.W.W.W.W.W.O , 2 8 q q q q q 9 q q M M M q a M q q q 0 q q 9 q q M q q q q q q q w q 9 9 w 8 2 < ; O W.W.W.W.W.W.W.W.W.",
"W.W.W.W.W.X O , 8 8 w q 8 q q q q q 0 q M q M M M 0 q q q q q q q q q q q q q q q 9 w 8 8 8 , ; O @ X W.W.W.W.W.W.W.W.W.",
"W.W.W.W.W.O # , 4 8 8 q q 8 8 M q M q q q q M q q q q M q q M q q q q q q q q 8 9 w 8 , > ; # # r y X W.W.W.W.W.W.W.W.W.",
"W.W.W.W.W.o # , , 8 8 q q q 8 8 q q q 8 q q q q M M q q q q q q q q q q q q 8 8 9 2 : = O ; O % s r X W.W.W.W.W.W.W.W.W.",
"W.W.W.W.W.O # , 8 , 8 8 q q 8 q q q q q 8 q q q q q q q M q q q q q q q q 8 q 8 , # + 0 Y w.Y 6 + X W.W.W.W.W.W.W.W.W.W.",
"W.W.W.W.W.O ; , , 8 8 8 8 8 q 8 8 8 q q 8 8 8 q 9 9 q q q q q M q 8 8 q 8 8 8 < + > I z.V.F.V.w.@ W.W.W.W.W.W.W.W.W.W.W.",
"W.W.W.W.W.O ; , , , 8 8 8 q q q q 8 8 q q 8 8 8 q q q w q q 9 q q q q 9 8 8 , O e b ..a.S.G.G.z.> W.W.W.W.W.W.W.W.W.W.W.",
"W.W.W.W.W.O # , , , , 8 8 8 8 q q q q 8 8 8 q 8 8 8 8 q q 9 w 9 8 8 9 8 4 , O * ~ ] ] Q X.S.S.b.6 W.W.W.W.W.W.W.W.W.W.W.",
"W.W.W.W.W.+ O , < , , 8 8 8 8 8 8 q q 8 8 q 8 q 8 8 8 8 8 w 8 8 q 8 8 8 4 # > } s.N.s.y.{ q.S.M.6 W.W.W.W.W.W.W.W.W.W.W.",
"W.W.W.W.W.W.O , < , , , 8 8 8 q 8 q 8 8 q 8 q 8 q q 8 8 8 8 8 8 8 8 8 8 < + U e.L x x L r...q.s.5 W.W.W.W.W.W.W.W.W.W.W.",
"W.W.W.W.W.W.O < < , 4 , 8 8 , 8 8 q w q 8 8 8 8 8 q 9 q q 8 8 8 8 8 8 , + z u.9 E f.g.H > x t.q.i W.W.W.W.W.W.W.W.W.W.W.",
"W.W.W.W.W.W.O : > < , , < , 8 8 4 8 8 8 8 8 8 8 8 8 8 8 8 8 8 8 , 8 8 , O w.u.G I.Y.E.d.m = p t.6 W.W.W.W.W.W.W.W.W.W.W.",
"W.W.W.W.W.W.X # < < < 8 , , , , 8 8 , 8 , 8 8 8 8 , , 8 8 8 , 8 , 8 , ; 1 M.e.H I.T.T.T n = w 5 # W.W.W.W.W.W.W.W.W.W.W.",
"W.W.W.W.W.W.W.O < < < , 8 , 8 , , , 8 , 8 8 , 4 8 , 8 8 , 8 8 , 8 , , = l S.i.V c.T.R.R n 7 d.9 X W.W.W.W.W.W.W.W.W.W.W.",
"W.W.W.W.W.W.W.O ; < < , , 8 , , 8 , , , , 8 , 8 8 8 , 8 8 8 , 8 , , < O A G.B.l l.T.E.x.T R h.> X W.W.W.W.W.W.W.W.W.W.W.",
"W.W.W.W.W.W.W.X # , < < < , , 8 8 , 8 8 , , , , , , , , , , , , , , < # 4 z.G.U F c.R.R.U.v.C D > W.W.W.W.W.W.W.W.W.W.W.",
"W.W.W.W.W.W.W.W.O < , < < < , , , , 8 , 8 8 8 8 8 , , , , , , 8 , , < # X 6 z.V.A C g.j.f.z D e.> W.W.W.W.W.W.W.W.W.W.W.",
"W.W.W.W.W.W.W.W.W.O < , < < , , , , , , , , , , , , , , , 8 8 , , , < ; * k 5 i.M.U l 0 0 z x 6 @ W.W.W.W.W.W.W.W.W.W.W.",
"W.W.W.W.W.W.W.W.W.X O ; < < < < , , < , < , , < , , , 8 8 , , , , , < = * 1.[ 6 D e.e.L p 1 v c O W.W.W.W.W.W.W.W.W.W.W.",
"W.W.W.W.W.W.W.W.W.W.  O ; : , < < < < < < < , , , 2 , , 8 , , 8 , < < ; @ @.0.<.c t 6 j h >.7.) X W.W.W.W.W.W.W.W.W.W.W.",
"W.W.W.W.W.W.W.W.W.W.W.  O O : < < < < < , , , , , , , , , , , < > < < : + ) 3.0.=.*.*.8.5.$._ y O W.W.W.W.W.W.W.W.W.W.W.",
"W.W.W.W.W.W.W.W.W.W.W.W.W.  O # ; > < > > < < < , , < , < < < < , < > : O ~ ,.,.,.6.3.=.7.2.g O X W.W.W.W.W.W.W.W.W.W.W.",
"W.W.W.W.W.W.W.W.W.W.W.W.W.W.W.. X O ; ; < < < > < < < < < < < > < < < < O d ;.5.3.=.-.-.4.:.s o W.W.W.W.W.W.W.W.W.W.W.W.",
"W.W.W.W.W.W.W.W.W.W.W.W.W.W.W.W.W.    X o O + + # # # # ; < < > > > > = @ @ y #.$.%.%.+.' ` e o W.W.W.W.W.W.W.W.W.W.W.W.",
"W.W.W.W.W.W.W.W.W.W.W.W.W.W.W.W.W.W.W.W.W.  o # < < # # O o X O O + + X . O O @ ~ ' ( ( / ! & O W.W.W.W.W.W.W.W.W.W.W.W.",
"W.W.W.W.W.W.W.W.W.W.W.W.W.W.W.W.W.W.W.W.W.o < q V V V M < ; , O > 2 , < , : O O r ^ ! ^ / s + W.W.W.W.W.W.W.W.W.W.W.W.W.",
"W.W.W.W.W.W.W.W.W.W.W.W.W.W.W.W.W.W.W.W.O # 8 B F H J F ; q J , < C V M M q # o $ f ! ! ! e . W.W.W.W.W.W.W.W.W.W.W.W.W.",
"W.W.W.W.W.W.W.W.W.W.W.W.W.W.W.W.W.W.W.W.X , q V F F J S # q J C = q C B M q > o . & W ( f $ O W.W.W.W.W.W.W.W.W.W.W.W.W.",
"W.W.W.W.W.W.W.W.W.W.W.W.W.W.W.W.W.W.W.W.O 8 q B C S J F # 8 C F > ; z B M q , O X + u ! y X W.W.W.W.W.W.W.W.W.W.W.W.W.W.",
"W.W.W.W.W.W.W.W.W.W.W.W.W.W.W.W.W.W.W.o # q q M C S F C # , B F q O w M M q 8 # X O @ r @ O W.W.W.W.W.W.W.W.W.W.W.W.W.W.",
"W.W.W.W.W.W.W.W.W.W.W.W.W.W.W.W.W.W.W.O ; q M M V C C C # , q B q ; < M M q q ; X W.O O O W.W.W.W.W.W.W.W.W.W.W.W.W.W.W.",
"W.W.W.W.W.W.W.W.W.W.W.W.W.W.W.W.W.W.W.+ > q q M M V C B ; < q M q > O 8 M q q , O W.W.X W.W.W.W.W.W.W.W.W.W.W.W.W.W.W.W.",
"W.W.W.W.W.W.W.W.W.W.W.W.W.W.W.W.W.W.W.O , q M M M B B B > # , ; # + X > q q q , O W.W.W.W.W.W.W.W.W.W.W.W.W.W.W.W.W.W.W.",
"W.W.W.W.W.W.W.W.W.W.W.W.W.W.W.W.W.W.W.O , q q B M M B M > O > V U u.w.1 , q q , O W.W.W.W.W.W.W.W.W.W.W.W.W.W.W.W.W.W.W.",
"W.W.W.W.W.W.W.W.W.W.W.W.W.W.W.W.W.W.X O , q q M M M M M : D n.L.P.J.S.I # q w , # W.W.W.W.W.W.W.W.W.W.W.W.W.W.W.W.W.W.W.",
"W.W.W.W.W.W.W.W.W.W.W.W.W.W.W.W.W.W.O # 2 w q q M M B q # e.H.P.L.G.S. .O 9 w , O X W.W.W.W.W.W.W.W.W.W.W.W.W.W.W.W.W.W.",
"W.W.W.W.W.W.W.W.W.W.W.W.W.W.W.W.W.W.O O , w 9 q q M M q #  .V.H.H.F.B.K ; 9 8 , O X W.W.W.W.W.W.W.W.W.W.W.W.W.W.W.W.W.W.",
"W.W.W.W.W.W.W.W.W.W.W.W.W.W.W.W.W.W.O O , 8 9 9 q q q q > p i.B.V.M. .: < 9 2 , # O W.W.W.W.W.W.W.W.W.W.W.W.W.W.W.W.W.W.",
"W.W.W.W.W.W.W.W.W.W.W.W.W.W.W.W.W.W.X O < 8 8 9 8 8 8 8 8 ; 4 K L l # > 8 8 8 > O O W.W.W.W.W.W.W.W.W.W.W.W.W.W.W.W.W.W.",
"W.W.W.W.W.W.W.W.W.W.W.W.W.W.W.W.W.W.W.O # ; < < , , 8 2 , , ; O O # < < > < ; ; O O W.W.W.W.W.W.W.W.W.W.W.W.W.W.W.W.W.W.",
"W.W.W.W.W.W.W.W.W.W.W.W.W.W.W.W.W.W.W.O O O O O O # O O # O # O + + + O O o O o O W.W.W.W.W.W.W.W.W.W.W.W.W.W.W.W.W.W.W.",
"W.W.W.W.W.W.W.W.W.W.W.W.W.W.W.W.W.W.W.W.O ; 4 3 4 > > O o X X O + # # # O O 3 : O W.W.W.W.W.W.W.W.W.W.W.W.W.W.W.W.W.W.W.",
"W.W.W.W.W.W.W.W.W.W.W.W.W.W.W.W.W.W.W.W.+ # 3 4 4 1 # + + O W.O # # $ # + O # + O W.W.W.W.W.W.W.W.W.W.W.W.W.W.W.W.W.W.W.",
"W.W.W.W.W.W.W.W.W.W.W.W.W.W.W.W.W.W.W.W.O # # # ; # O 4 6 O X O O + O O O o O O W.W.W.W.W.W.W.W.W.W.W.W.W.W.W.W.W.W.W.W.",
"W.W.W.W.W.W.W.W.W.W.W.W.W.W.W.W.W.W.W.W.O X O X o O X # # O W.O O X O W.W.W.W.W.W.W.W.W.W.W.W.W.W.W.W.W.W.W.W.W.W.W.W.W.",
"W.W.W.W.W.W.W.W.W.W.W.W.W.W.W.W.W.W.W.W.W.W.W.W.W.W.W.X X O W.W.W.W.W.W.W.W.W.W.W.W.W.W.W.W.W.W.W.W.W.W.W.W.W.W.W.W.W.W.",
"W.W.W.W.W.W.W.W.W.W.W.W.W.W.W.W.W.W.W.W.W.W.W.W.W.W.W.W.W.W.W.W.W.W.W.W.W.W.W.W.W.W.W.W.W.W.W.W.W.W.W.W.W.W.W.W.W.W.W.W.",
"W.W.W.W.W.W.W.W.W.W.W.W.W.W.W.W.W.W.W.W.W.W.W.W.W.W.W.W.W.W.W.W.W.W.W.W.W.W.W.W.W.W.W.W.W.W.W.W.W.W.W.W.W.W.W.W.W.W.W.W.",
"W.W.W.W.W.W.W.W.W.W.W.W.W.W.W.W.W.W.W.W.W.W.W.W.W.W.W.W.W.W.W.W.W.W.W.W.W.W.W.W.W.W.W.W.W.W.W.W.W.W.W.W.W.W.W.W.W.W.W.W.",
"W.W.W.W.W.W.W.W.W.W.W.W.W.W.W.W.W.W.W.W.W.W.W.W.W.W.W.W.W.W.W.W.W.W.W.W.W.W.W.W.W.W.W.W.W.W.W.W.W.W.W.W.W.W.W.W.W.W.W.W."
};
