/* XPM */
static xpm_row_t const p1_right_9[] = {
/* columns rows colors chars-per-pixel */
"60 80 166 2 ",
"   c #151513",
".  c #181715",
"X  c #1A1917",
"o  c #1C1C1A",
"O  c #211F1C",
"+  c #22211E",
"@  c #2A2219",
"#  c #262117",
"$  c #322618",
"%  c #382717",
"&  c #221D29",
"*  c #252424",
"=  c #292724",
"-  c #2A2925",
";  c #22222D",
":  c #2B2B2B",
">  c #322D27",
",  c #302F2E",
"<  c #393424",
"1  c #34322C",
"2  c #3B342D",
"3  c #353024",
"4  c #333333",
"5  c #3A3734",
"6  c #3C3934",
"7  c #3B3B3B",
"8  c #4A3217",
"9  c #573A17",
"0  c #643D18",
"q  c #663C17",
"w  c #583B21",
"e  c #413A32",
"r  c #413F3D",
"t  c #4B421B",
"y  c #5E4018",
"u  c #674318",
"i  c #7C4D19",
"p  c #784717",
"a  c #6F5317",
"s  c #584829",
"d  c #5C5226",
"f  c #4B433B",
"g  c #53473C",
"h  c #564A3E",
"j  c #655A28",
"k  c #6E563E",
"l  c #2D3353",
"z  c #383D5C",
"x  c #403F40",
"c  c #3D425A",
"v  c #434343",
"b  c #484847",
"n  c #484748",
"m  c #4B4B4B",
"M  c #504F4F",
"N  c #5A4E42",
"B  c #50504F",
"V  c #5F5345",
"C  c #504F50",
"Z  c #535353",
"A  c #50505F",
"S  c #5A5A5A",
"D  c #615446",
"F  c #6C5B4B",
"G  c #675D54",
"H  c #70614F",
"J  c #726251",
"K  c #7B6A58",
"L  c #4E5372",
"P  c #646363",
"I  c #757473",
"U  c #7D7D7D",
"Y  c #824A18",
"T  c #8D511C",
"R  c #865918",
"E  c #935518",
"W  c #9C5D19",
"Q  c #957C17",
"!  c #A36219",
"~  c #B6751B",
"^  c #BF7E1D",
"/  c #866720",
"(  c #8C7926",
")  c #9E6734",
"_  c #91663F",
"`  c #BA7F22",
"'  c #826E5A",
"]  c #88735E",
"[  c #AB7645",
"{  c #AF7F54",
"}  c #B07E51",
"|  c #887560",
" . c #907963",
".. c #987F67",
"X. c #BE9F19",
"o. c #918034",
"O. c #A98329",
"+. c #AF9831",
"@. c #C48A18",
"#. c #CC9615",
"$. c #C79A1E",
"%. c #E1B41E",
"&. c #E4BA1B",
"*. c #CE9622",
"=. c #C2A424",
"-. c #CAA721",
";. c #D6B728",
":. c #DDB329",
">. c #C2A93D",
",. c #D0A130",
"<. c #D4B334",
"1. c #DBBD3B",
"2. c #E7BE25",
"3. c #E5B83E",
"4. c #EBC325",
"5. c #F7D129",
"6. c #F8D337",
"7. c #A3815E",
"8. c #BB8A5B",
"9. c #9C856C",
"0. c #A3876C",
"q. c #A6896B",
"w. c #A48B72",
"e. c #AC8F73",
"r. c #AE9679",
"t. c #AA9077",
"y. c #BD9B7E",
"u. c #C9A077",
"i. c #D2A67C",
"p. c #81838E",
"a. c #878A99",
"s. c #949393",
"d. c #A39286",
"f. c #BA9E80",
"g. c #A2A1A1",
"h. c #AEACAC",
"j. c #B3B2B2",
"k. c #B7B7BC",
"l. c #CDAC8C",
"z. c #C2A586",
"x. c #DBB38C",
"c. c #D9B48E",
"v. c #CAAD93",
"b. c #D6B391",
"n. c #DCBB97",
"m. c #DCB996",
"M. c #E1BC96",
"N. c #E1BC98",
"B. c #E5C29C",
"V. c #E8C49F",
"C. c #EBC6A1",
"Z. c #EEC9A3",
"A. c #EFCBA9",
"S. c #F1CCA8",
"D. c #F0CFB1",
"F. c #EFD0B6",
"G. c #F0D0B6",
"H. c #BFBFC4",
"J. c #CACACC",
"K. c #D0CFCF",
"L. c #D4D3D3",
"P. c #DAD9D9",
"I. c #F8DCC7",
"U. c #E0DFDF",
"Y. c #E3E2E1",
"T. c #00b140",
/* pixels */
"T.T.T.T.T.T.T.T.T.T.T.T.T.T.T.T.T.T.T.T.T.T.T.T.T.T.T.T.T.T.T.T.T.T.T.T.T.T.T.T.T.T.T.T.T.T.T.T.T.T.T.T.T.T.T.T.T.T.T.T.",
"T.T.T.T.T.T.T.T.T.T.T.T.T.T.T.T.T.T.T.T.T.T.T.T.T.T.T.T.T.T.T.T.T.T.T.T.T.T.T.T.T.T.T.T.T.T.T.T.T.T.T.T.T.T.T.T.T.T.T.T.",
"T.T.T.T.T.T.T.T.T.T.T.T.T.T.T.T.T.T.T.T.T.T.T.T.T.T.T.T.T.T.T.T.T.T.T.T.T.T.T.T.T.T.T.T.T.T.T.T.T.T.T.T.T.T.T.T.T.T.T.T.",
"T.T.T.T.T.T.T.T.T.T.T.T.T.T.T.T.T.T.T.T.T.T.T.T.T.T.T.T.T.T.T.T.T.T.T.T.T.T.T.T.T.T.T.T.T.T.T.T.T.T.T.T.T.T.T.T.T.T.T.T.",
"T.T.T.T.T.T.T.T.T.T.T.T.T.T.T.T.T.T.T.T.T.T.T.T.T.T.T.T.T.T.T.T.T.T.T.T.T.T.T.T.T.T.T.T.T.T.T.T.T.T.T.T.T.T.T.T.T.T.T.T.",
"T.T.T.T.T.T.T.T.T.T.T.T.T.T.T.T.T.T.T.T.T.T.T.T.T.o O T.T.T.T.T.T.T.T.T.T.T.T.T.T.T.T.T.T.T.T.T.T.T.T.T.T.T.T.T.T.T.T.T.",
"T.T.T.T.T.T.T.T.T.T.T.T.T.T.T.T.T.T.T.T.T.T.T.T.o , 6 * + o . T.T.T.T.T.T.T.T.T.T.T.T.T.T.T.T.T.T.T.T.T.T.T.T.T.T.T.T.T.",
"T.T.T.T.T.T.T.T.T.T.T.T.T.T.T.T.T.T.T.T.T.T.T.X - B S Z b 7 , - * + o o o T.T.T.T.T.T.T.T.T.T.T.T.T.T.T.T.T.T.T.T.T.T.T.",
"T.T.T.T.T.T.T.T.T.T.T.T.T.T.T.T.T.T.T.T.T.+ + 6 B Z S S S S S S Z Z b 7 1 * o . T.T.T.T.T.T.T.T.T.T.T.T.T.T.T.T.T.T.T.T.",
"T.T.T.T.T.T.T.T.T.T.T.T.T.T.T.T.T.T.T.T.o - b S S S Z B Z S S S S S S S Z B 7 - o o T.T.T.T.T.T.T.T.T.T.T.T.T.T.T.T.T.T.",
"T.T.T.T.T.T.T.T.T.T.T.T.T.T.T.T.T.T.X + 7 Z S S S S S S S S S S S S S S S S S S v - o T.T.T.T.T.T.T.T.T.T.T.T.T.T.T.T.T.",
"T.T.T.T.T.T.T.T.T.T.T.T.T.T.T.T.T.X - c S Z S S Z S S S S S S S S S S S S S S S S Z 7 + o T.T.T.T.T.T.T.T.T.T.T.T.T.T.T.",
"T.T.T.T.T.T.T.T.T.T.T.T.T.T.T.T.. 4 B S Z S S Z Z Z Z S S S S S S S S S S S S S S S S m - o T.T.T.T.T.T.T.T.T.T.T.T.T.T.",
"T.T.T.T.T.T.T.T.T.T.T.T.T.T.T.o 4 Z S S S S Z S S S Z S S S S Z S S S S S S S S S S S S C : o T.T.T.T.T.T.T.T.T.T.T.T.T.",
"T.T.T.T.T.T.T.T.T.T.T.T.T.T.o 5 S S Z Z B B B Z Z B B Z Z Z Z S Z S S S S S S S S S P S S Z 4 o T.T.T.T.T.T.T.T.T.T.T.T.",
"T.T.T.T.T.T.T.T.T.T.T.T.T.o 4 Z Z B B B Z B Z B B Z B Z Z Z Z B Z Z Z Z Z S S S S S S S S S Z 5 o T.T.T.T.T.T.T.T.T.T.T.",
"T.T.T.T.T.T.T.T.T.T.T.T.o * 7 m m b m C C C C C B Z B B Z Z Z S Z Z B Z Z Z Z Z S S S S S S S S 4 X T.T.T.T.T.T.T.T.T.T.",
"T.T.T.T.T.T.T.T.T.T.T.o + 4 r b m b m m C m m C B B Z B Z B B Z Z Z Z Z Z Z S Z B Z Z S S S S S Z 4 o T.T.T.T.T.T.T.T.T.",
"T.T.T.T.T.T.T.T.T.T.T.O , 4 c b b m m m m B B m B B Z B B B B Z Z Z Z Z Z Z Z S S Z Z Z Z Z S S S Z - X T.T.T.T.T.T.T.T.",
"T.T.T.T.T.T.T.T.T.T.o : 5 7 f b b b b m m m m m B B B Z B Z Z B Z Z Z Z Z C B B B Z Z Z Z S Z S S S m O T.T.T.T.T.T.T.T.",
"T.T.T.T.T.T.T.T.T.o + 4 4 7 c m v v b b m m C m B B B B Z B B B C C B B Z B B Z B B B Z Z Z Z Z Z S S 7 o T.T.T.T.T.T.T.",
"T.T.T.T.T.T.T.T.T.o - 4 6 6 6 7 b e c b b b n m B B c h B B b B C C B Z B B B B B Z B B B Z B B m C S Z * X T.T.T.T.T.T.",
"T.T.T.T.T.T.T.T.o o 4 4 4 7 7 7 r v 7 v n b n n b b b B c h c h m m B Z B Z B B B B B Z B B B B Z m Z S 7 X T.T.T.T.T.T.",
"T.T.T.T.T.T.T.T.o * 4 7 6 7 7 r 7 v f 6 c v n n b h c b b B B B m m m m m m m m B B B B B B B b n n m Z Z + T.T.T.T.T.T.",
"T.T.T.T.T.T.T.T.o : 7 7 7 7 7 7 7 r b v r r v x c f c h c b b b m m m b b b b b b b b f m b f c x x r r B : X T.T.T.T.T.",
"T.T.T.T.T.T.T.o * : 4 5 7 7 7 r 7 7 7 7 v v r x r r v b v b f b c m b b b b b m b b c r v b b f x 7 7 7 v : X T.T.T.T.T.",
"T.T.T.T.T.T.T.o - 4 7 4 6 7 7 7 r r 7 7 7 r r c v v v v 7 7 r r r v v v v f n n b b f c b b v c v v l f 4 + X T.T.T.T.T.",
"T.T.T.T.T.T.T.o : , 7 7 2 c 7 7 r e c 7 r 7 6 v v v b v v v r 7 7 7 x v v c v v v b v f 7 7 7 7 7 x f 7 : o T.T.T.T.T.T.",
"T.T.T.T.T.T.X o : 4 7 6 4 7 7 7 7 7 r r r 7 7 7 7 v v v v v r v 7 r v v v c f 7 r 7 r 7 7 7 7 7 7 7 7 , * X T.T.T.T.T.T.",
"T.T.T.T.T.T.o O : 4 7 6 4 7 7 7 7 7 e c r x 7 x 7 7 7 r r v c r x x x x r r x r c 7 7 7 7 7 4 7 7 4 , * o T.T.T.T.T.T.T.",
"T.T.T.T.T.T.o * : 4 4 6 7 4 7 7 7 7 7 7 7 7 7 x 7 7 7 7 7 7 7 7 7 7 7 7 7 7 7 7 7 4 4 7 7 4 7 4 , : + X T.T.T.T.T.T.T.T.",
"T.T.T.T.T.T.X * 4 , 4 l 7 4 6 7 7 7 7 7 x x x 7 7 r 7 7 7 7 4 7 r 7 7 7 7 7 7 7 7 7 7 7 4 , : : * O X . T.T.T.T.T.T.T.T.",
"T.T.T.T.T.T.o - 4 : 4 4 c 4 4 7 7 7 7 7 7 7 7 x x 7 7 7 7 7 7 7 7 7 7 7 7 7 7 7 4 4 4 4 : : = O # 8 $ . T.T.T.T.T.T.T.T.",
"T.T.T.T.T.T.o - : 4 4 4 4 7 7 4 7 7 7 7 4 7 7 7 7 x 7 7 7 7 7 6 7 7 7 7 7 7 7 4 5 4 , ; * o o X 9 p $ T.T.T.T.T.T.T.T.T.",
"T.T.T.T.T.T.o - : 4 4 4 4 4 7 4 4 7 7 7 7 4 4 7 7 7 7 7 r x c 6 4 4 7 7 7 7 4 4 , : O O e H J 2 O # . T.T.T.T.T.T.T.T.T.",
"T.T.T.T.T.T.o : : : 4 4 4 7 7 4 7 4 4 7 7 4 4 7 4 7 7 7 7 7 7 7 r 7 7 4 4 4 4 4 * o e | z.n.m.r.e   T.T.T.T.T.T.T.T.T.T.",
"T.T.T.T.T.T.+ : : : : 4 4 4 7 7 7 7 4 4 7 4 4 4 4 7 7 7 7 7 7 4 7 7 4 7 4 4 , * O 9 _ u.M.Z.Z.B.D   T.T.T.T.T.T.T.T.T.T.",
"T.T.T.T.T.T.O : : : : , 4 4 4 7 7 4 7 7 4 7 7 4 4 4 4 4 4 7 4 7 4 7 4 7 4 , * O q E E T ) x.Z.n.H . T.T.T.T.T.T.T.T.T.T.",
"T.T.T.T.T.T.o * * : : : 4 4 4 7 4 7 4 7 7 4 7 4 7 4 4 4 7 4 4 4 4 4 4 4 4 : o s 7.i.i.8.) [ x.B.J . T.T.T.T.T.T.T.T.T.T.",
"T.T.T.T.T.T.o * : : : : : 4 4 4 7 4 4 4 4 7 4 7 4 4 7 4 4 4 4 4 7 4 4 4 : o e t. .H F K 0.8.[ x.K . T.T.T.T.T.T.T.T.T.T.",
"T.T.T.T.T.T.O + : ; : : : , 4 : 4 4 4 7 4 4 4 4 4 4 c 4 7 4 4 4 , 4 , 4 * * 9.V r P I S , N 7.8.k X T.T.T.T.T.T.T.T.T.T.",
"T.T.T.T.T.T.X + - - : , : , , 4 : 4 4 4 4 4 4 4 4 4 : 4 4 4 4 4 , , , , o f z.f g.J.Y.k.c ; 1 0.k O T.T.T.T.T.T.T.T.T.T.",
"T.T.T.T.T.T.T.O * - - : , : : : 4 4 , : , 4 4 4 4 : , , , , 4 , 4 , , : o 9.m.f h.L.Y.a.l * * 6 e . T.T.T.T.T.T.T.T.T.T.",
"T.T.T.T.T.T.T.X ; - - - , , : , : : : 4 , : 4 : , 4 , , , 4 , , , , : ; * y.n.f g.L.Y.a.l & A S . X T.T.T.T.T.T.T.T.T.T.",
"T.T.T.T.T.T.T.o + : - : : : 4 : , : : : : : : 4 4 4 : 4 , 4 , , , : : * - l.V.D U L.Y.H.L c p.B . T.T.T.T.T.T.T.T.T.T.T.",
"T.T.T.T.T.T.T.T.o * : ; : * : , 4 4 4 4 : 4 : : : : : , : , : : : : * * * 9.S.t.r j.P.U.J.k.U 2 3 T.T.T.T.T.T.T.T.T.T.T.",
"T.T.T.T.T.T.T.T.o + : : * : * : : : 4 : : 4 4 : 4 : : : : : , , , : ; * o - w.V.H v s.j.h.I 6 9.g . T.T.T.T.T.T.T.T.T.T.",
"T.T.T.T.T.T.T.T.T.o o : * : : : : : : : : 4 : : : : : : : 4 , , : : : * # d 3 9.m.K e 7 1 6 D D @ X T.T.T.T.T.T.T.T.T.T.",
"T.T.T.T.T.T.T.T.T.T.X O - : : - : : ; : : * ; - , , : , , 4 , : : : - - + +.o.< V t.r.' V 2 < t + T.T.T.T.T.T.T.T.T.T.T.",
"T.T.T.T.T.T.T.T.T.T.T.X o * : : * : - - ; : : : : : , : , : : , : * : ; o Q 5.>.j < < < t ( ;.$.$ T.T.T.T.T.T.T.T.T.T.T.",
"T.T.T.T.T.T.T.T.T.T.T.T.  o o ; : * ; - - : : : : : : : : : : : : * ; - o a %.6.2.-.X.<.1.=.=.R O T.T.T.T.T.T.T.T.T.T.T.",
"T.T.T.T.T.T.T.T.T.T.T.T.T.T.. o + * - - - : * : : : : * : - ; - ; : : : o u *.:.$.&.4.&.5.<./ # X T.T.T.T.T.T.T.T.T.T.T.",
"T.T.T.T.T.T.T.T.T.T.T.T.T.T.T.T.o o O + * * * - * : - - : * * : - : ; - o t ^ 3.:.4.&.&.2.3.E O T.T.T.T.T.T.T.T.T.T.T.T.",
"T.T.T.T.T.T.T.T.T.T.T.T.T.T.T.T.T.T.    X o o o o o + + * * * * - * - * o + y O.,.@.#.#.O.~ q X T.T.T.T.T.T.T.T.T.T.T.T.",
"T.T.T.T.T.T.T.T.T.T.T.T.T.T.T.T.T.T.T.T.T.  . * : - - + o o . o o O + o . X . # i ~ ! ! ! E 8 . T.T.T.T.T.T.T.T.T.T.T.T.",
"T.T.T.T.T.T.T.T.T.T.T.T.T.T.T.T.T.T.T.T.T.X - 6 c b b 4 o , + * , , : * - - o . 8 E T E E Y $ o T.T.T.T.T.T.T.T.T.T.T.T.",
"T.T.T.T.T.T.T.T.T.T.T.T.T.T.T.T.T.T.T.T.T.* 4 r B Z B + 4 Z 1 1 B B f v v 7 + X O Y E E E 9 . T.T.T.T.T.T.T.T.T.T.T.T.T.",
"T.T.T.T.T.T.T.T.T.T.T.T.T.T.T.T.T.T.T.T.X - 6 f B B 1 + v S 4 : S Z b f v 7 - X X $ Y W Y $ o T.T.T.T.T.T.T.T.T.T.T.T.T.",
"T.T.T.T.T.T.T.T.T.T.T.T.T.T.T.T.T.T.T.T.o 4 r c B 7 + 1 c Z 4 : Z b f c x x 4 o . O q E q o T.T.T.T.T.T.T.T.T.T.T.T.T.T.",
"T.T.T.T.T.T.T.T.T.T.T.T.T.T.T.T.T.T.T.o o 4 r 7 c - # 7 b b - : m c b v x 7 4 + X o @ 9 8 . T.T.T.T.T.T.T.T.T.T.T.T.T.T.",
"T.T.T.T.T.T.T.T.T.T.T.T.T.T.T.T.T.T.T.o * 7 7 r 1 o 1 7 c r # 1 b f c r x 7 7 - o T.X X o T.T.T.T.T.T.T.T.T.T.T.T.T.T.T.",
"T.T.T.T.T.T.T.T.T.T.T.T.T.T.T.T.T.T.T.+ - 7 7 7 - o 4 7 r 7 + 4 c b r r 7 7 7 : o T.T.o T.T.T.T.T.T.T.T.T.T.T.T.T.T.T.T.",
"T.T.T.T.T.T.T.T.T.T.T.T.T.T.T.T.T.T.T.o : 7 7 : - : o + : : o 6 f r r r 7 4 7 , o T.T.T.T.T.T.T.T.T.T.T.T.T.T.T.T.T.T.T.",
"T.T.T.T.T.T.T.T.T.T.T.T.T.T.T.T.T.T.T.o : 4 , 3 w.v.r.S < o + 7 r r 7 c 7 7 7 , o T.T.T.T.T.T.T.T.T.T.T.T.T.T.T.T.T.T.T.",
"T.T.T.T.T.T.T.T.T.T.T.T.T.T.T.T.T.T.T.o : 7 + F N.G.I.G.l.J & r v x x r 7 6 4 , o X T.T.T.T.T.T.T.T.T.T.T.T.T.T.T.T.T.T.",
"T.T.T.T.T.T.T.T.T.T.T.T.T.T.T.T.T.T.X + : 5 + K N.A.G.S.Z.e.= 5 x x x r 7 7 4 , + o T.T.T.T.T.T.T.T.T.T.T.T.T.T.T.T.T.T.",
"T.T.T.T.T.T.T.T.T.T.T.T.T.T.T.T.T.T.X o : 4 * g l.C.A.Z.N. .+ 7 x x f l 7 4 4 , + o T.T.T.T.T.T.T.T.T.T.T.T.T.T.T.T.T.T.",
"T.T.T.T.T.T.T.T.T.T.T.T.T.T.T.T.T.T.o + : 4 : O F y.c.l.0.3 : 7 r r 7 7 4 4 4 : O o T.T.T.T.T.T.T.T.T.T.T.T.T.T.T.T.T.T.",
"T.T.T.T.T.T.T.T.T.T.T.T.T.T.T.T.T.T.X o : : 4 : O > g f = * 4 5 4 4 4 4 4 , , : O X T.T.T.T.T.T.T.T.T.T.T.T.T.T.T.T.T.T.",
"T.T.T.T.T.T.T.T.T.T.T.T.T.T.T.T.T.T.T.o + * * : : * O + = : , , , , , : : : - * O X T.T.T.T.T.T.T.T.T.T.T.T.T.T.T.T.T.T.",
"T.T.T.T.T.T.T.T.T.T.T.T.T.T.T.T.T.T.T.o o o X o o O o O o * o o + o o o o o o o X T.T.T.T.T.T.T.T.T.T.T.T.T.T.T.T.T.T.T.",
"T.T.T.T.T.T.T.T.T.T.T.T.T.T.T.T.T.T.T.T.T.T.T.X + > - - - * o o o o o T.T.T.T.T.T.T.T.T.T.T.T.T.T.T.T.T.T.T.T.T.T.T.T.T.",
"T.T.T.T.T.T.T.T.T.T.T.T.T.T.T.T.T.T.T.T.T.T.T.T.o 1 2 3 1 - o < 1 o o T.T.T.T.T.T.T.T.T.T.T.T.T.T.T.T.T.T.T.T.T.T.T.T.T.",
"T.T.T.T.T.T.T.T.T.T.T.T.T.T.T.T.T.T.T.T.T.T.T.T.o - > - + + o * + o o T.T.T.T.T.T.T.T.T.T.T.T.T.T.T.T.T.T.T.T.T.T.T.T.T.",
"T.T.T.T.T.T.T.T.T.T.T.T.T.T.T.T.T.T.T.T.T.T.T.T.o # O o o O o o o X o T.T.T.T.T.T.T.T.T.T.T.T.T.T.T.T.T.T.T.T.T.T.T.T.T.",
"T.T.T.T.T.T.T.T.T.T.T.T.T.T.T.T.T.T.T.T.T.T.T.T.o X X T.T.T.T.T.T.T.T.T.T.T.T.T.T.T.T.T.T.T.T.T.T.T.T.T.T.T.T.T.T.T.T.T.",
"T.T.T.T.T.T.T.T.T.T.T.T.T.T.T.T.T.T.T.T.T.T.T.T.T.T.T.T.T.T.T.T.T.T.T.T.T.T.T.T.T.T.T.T.T.T.T.T.T.T.T.T.T.T.T.T.T.T.T.T.",
"T.T.T.T.T.T.T.T.T.T.T.T.T.T.T.T.T.T.T.T.T.T.T.T.T.T.T.T.T.T.T.T.T.T.T.T.T.T.T.T.T.T.T.T.T.T.T.T.T.T.T.T.T.T.T.T.T.T.T.T.",
"T.T.T.T.T.T.T.T.T.T.T.T.T.T.T.T.T.T.T.T.T.T.T.T.T.T.T.T.T.T.T.T.T.T.T.T.T.T.T.T.T.T.T.T.T.T.T.T.T.T.T.T.T.T.T.T.T.T.T.T.",
"T.T.T.T.T.T.T.T.T.T.T.T.T.T.T.T.T.T.T.T.T.T.T.T.T.T.T.T.T.T.T.T.T.T.T.T.T.T.T.T.T.T.T.T.T.T.T.T.T.T.T.T.T.T.T.T.T.T.T.T."
};
