/* XPM */
static xpm_row_t const p1_right_5[] = {
/* columns rows colors chars-per-pixel */
"60 80 164 2 ",
"   c #141412",
".  c #181715",
"X  c #1A1917",
"o  c #1C1C1A",
"O  c #171718",
"+  c #211F1C",
"@  c #22211E",
"#  c #2F2617",
"$  c #322518",
"%  c #372818",
"&  c #3C2C18",
"*  c #342717",
"=  c #3D371D",
"-  c #1F1F21",
";  c #252423",
":  c #282727",
">  c #2B2A25",
",  c #2B2B2B",
"<  c #232029",
"1  c #332D26",
"2  c #352E29",
"3  c #3B3623",
"4  c #33322B",
"5  c #3B342C",
"6  c #252232",
"7  c #232638",
"8  c #333333",
"9  c #3C3933",
"0  c #3B3B3B",
"q  c #483218",
"w  c #443718",
"e  c #5D3918",
"r  c #583716",
"t  c #473422",
"y  c #443D34",
"u  c #403E3C",
"i  c #4C431F",
"p  c #554018",
"a  c #6A4419",
"s  c #6B4017",
"d  c #774518",
"f  c #6C571B",
"g  c #5C5223",
"h  c #494037",
"j  c #41403D",
"k  c #51453A",
"l  c #564A3E",
"z  c #655927",
"x  c #776930",
"c  c #383646",
"v  c #363C5D",
"b  c #383E60",
"n  c #403F40",
"m  c #434343",
"M  c #484748",
"N  c #4C4B4B",
"B  c #5B4E42",
"V  c #5E5044",
"C  c #50504F",
"Z  c #504F50",
"A  c #535353",
"S  c #585758",
"D  c #5A5A5A",
"F  c #585756",
"G  c #6C5D4D",
"H  c #655749",
"J  c #766553",
"K  c #7F6C59",
"L  c #776757",
"P  c #4F5369",
"I  c #6B6A6A",
"U  c #7F736A",
"Y  c #6A6D7E",
"T  c #76767A",
"R  c #8A4F19",
"E  c #8D521A",
"W  c #935519",
"Q  c #9A5A19",
"!  c #976619",
"~  c #A26219",
"^  c #BA781C",
"/  c #9D6738",
"(  c #A36D3A",
")  c #896441",
"_  c #826E5A",
"`  c #876D54",
"'  c #85715D",
"]  c #88745F",
"[  c #93775B",
"{  c #A77140",
"}  c #8F7963",
"|  c #857567",
" . c #947E67",
".. c #807F7F",
"X. c #A38017",
"o. c #BA971B",
"O. c #BB9E22",
"+. c #A59137",
"@. c #BDA229",
"#. c #C78D17",
"$. c #D09E14",
"%. c #D5A81D",
"&. c #E4BA1A",
"*. c #CE952D",
"=. c #C39E31",
"-. c #C8AA28",
";. c #D3A525",
":. c #CFB02C",
">. c #D5A735",
",. c #D7B437",
"<. c #E3B826",
"1. c #E9BE36",
"2. c #EDC31D",
"3. c #EAC626",
"4. c #F5CE28",
"5. c #F4D038",
"6. c #B4865B",
"7. c #9A846B",
"8. c #9E8367",
"9. c #A0886F",
"0. c #A0866A",
"q. c #BF8E60",
"w. c #A68B71",
"e. c #B9987B",
"r. c #B8977A",
"t. c #DBBD41",
"y. c #C7986C",
"u. c #C9A077",
"i. c #D1A67B",
"p. c #6C7087",
"a. c #828181",
"s. c #908F8E",
"d. c #939292",
"f. c #B89E80",
"g. c #BDA082",
"h. c #A0A0A1",
"j. c #ACADB5",
"k. c #B4B3B3",
"l. c #B2B2BA",
"z. c #C8A989",
"x. c #D6AD84",
"c. c #D4B08E",
"v. c #DFBC99",
"b. c #D8B492",
"n. c #E1BE99",
"m. c #E2BB93",
"M. c #E7C39E",
"N. c #E8C39E",
"B. c #ECC7A1",
"V. c #EEC9A3",
"C. c #EFCCAC",
"Z. c #F6CFA8",
"A. c #EFCEB1",
"S. c #F3D3B8",
"D. c #BABBC0",
"F. c #C8C7C7",
"G. c #CCCCCD",
"H. c #C6C5C5",
"J. c #D4D4D5",
"K. c #D8D7D8",
"L. c #DEDDDD",
"P. c #F8DDC8",
"I. c #E1E0E0",
"U. c #00b140",
/* pixels */
"U.U.U.U.U.U.U.U.U.U.U.U.U.U.U.U.U.U.U.U.U.U.U.U.U.U.U.U.U.U.U.U.U.U.U.U.U.U.U.U.U.U.U.U.U.U.U.U.U.U.U.U.U.U.U.U.U.U.U.U.",
"U.U.U.U.U.U.U.U.U.U.U.U.U.U.U.U.U.U.U.U.U.U.U.U.U.U.U.U.U.U.U.U.U.U.U.U.U.U.U.U.U.U.U.U.U.U.U.U.U.U.U.U.U.U.U.U.U.U.U.U.",
"U.U.U.U.U.U.U.U.U.U.U.U.U.U.U.U.U.U.U.U.U.U.U.U.U.U.U.U.U.U.U.U.U.U.U.U.U.U.U.U.U.U.U.U.U.U.U.U.U.U.U.U.U.U.U.U.U.U.U.U.",
"U.U.U.U.U.U.U.U.U.U.U.U.U.U.U.U.U.U.U.U.U.U.U.U.U.U.U.U.U.U.U.U.U.U.U.U.U.U.U.U.U.U.U.U.U.U.U.U.U.U.U.U.U.U.U.U.U.U.U.U.",
"U.U.U.U.U.U.U.U.U.U.U.U.U.U.U.U.U.U.U.U.U.U.U.U.U.U.U.U.U.U.U.U.U.U.U.U.U.U.U.U.U.U.U.U.U.U.U.U.U.U.U.U.U.U.U.U.U.U.U.U.",
"U.U.U.U.U.U.U.U.U.U.U.U.U.U.U.U.U.U.U.U.U.U.U.o + X U.U.U.U.U.U.U.U.U.U.U.U.U.U.U.U.U.U.U.U.U.U.U.U.U.U.U.U.U.U.U.U.U.U.",
"U.U.U.U.U.U.U.U.U.U.U.U.U.U.U.U.U.U.U.U.U.o o 0 N 0 > @ + X X . X X U.U.U.U.U.U.U.U.U.U.U.U.U.U.U.U.U.U.U.U.U.U.U.U.U.U.",
"U.U.U.U.U.U.U.U.U.U.U.U.U.U.U.U.U.U.U.U.X + 4 C D D F C N m n 0 8 , @ o X U.U.U.U.U.U.U.U.U.U.U.U.U.U.U.U.U.U.U.U.U.U.U.",
"U.U.U.U.U.U.U.U.U.U.U.U.U.U.U.U.U.U.U.X @ M A F D A D D D D D D F S C m 8 ; o . U.U.U.U.U.U.U.U.U.U.U.U.U.U.U.U.U.U.U.U.",
"U.U.U.U.U.U.U.U.U.U.U.U.U.U.U.U.U.U.@ , C D D F A A S S D D D D D D F F D A 0 ; o U.U.U.U.U.U.U.U.U.U.U.U.U.U.U.U.U.U.U.",
"U.U.U.U.U.U.U.U.U.U.U.U.U.U.U.U.O - 0 A D D D D D D D D D D D D D D D D D D D A 0 @ X U.U.U.U.U.U.U.U.U.U.U.U.U.U.U.U.U.",
"U.U.U.U.U.U.U.U.U.U.U.U.U.U.U.X ; N D S F F F F S D D D I D D D D D D D D D D D D N , o U.U.U.U.U.U.U.U.U.U.U.U.U.U.U.U.",
"U.U.U.U.U.U.U.U.U.U.U.U.U.U.X , A D A D S D S A A S D S S D S D D D D D D D D D D D S 8 o X U.U.U.U.U.U.U.U.U.U.U.U.U.U.",
"U.U.U.U.U.U.U.U.U.U.U.U.U.X , C D A D A A A S S S A S A S D S S D D D D D D D D D D D D 0 @ X U.U.U.U.U.U.U.U.U.U.U.U.U.",
"U.U.U.U.U.U.U.U.U.U.U.U.o , A F A A A C A C A C C A A A A A S A F D F F D D D D D D D D D m @ X U.U.U.U.U.U.U.U.U.U.U.U.",
"U.U.U.U.U.U.U.U.U.U.U.X ; N S Z C A C A C A A C A A A A S A A A A A A A A D D D D D D D D D M @ X U.U.U.U.U.U.U.U.U.U.U.",
"U.U.U.U.U.U.U.U.U.U.U.o 8 N N M M A Z N Z A A A Z A Z Z A A A A A A A A A A A A A S S D D D D m @ X U.U.U.U.U.U.U.U.U.U.",
"U.U.U.U.U.U.U.U.U.U.o , 0 M N M M M Z A N N N Z C A Z A Z A C A A S A S S S S S A A C A F D D D m o U.U.U.U.U.U.U.U.U.U.",
"U.U.U.U.U.U.U.U.U.X ; 8 n M N N N N N N C N C A A C A A Z A Z C C A A N N A A A A S D S S A D D D 8 X U.U.U.U.U.U.U.U.U.",
"U.U.U.U.U.U.U.U.U.o 4 8 0 M M M M N N N N N N N A N A A Z Z A A Z C C A A N Z A A C C A A C C S D S : X U.U.U.U.U.U.U.U.",
"U.U.U.U.U.U.U.U.X : 0 0 0 M M m M M M N N N Z N N C C N C C N C A Z A Z A C C Z C A C A A C N N A D m o U.U.U.U.U.U.U.U.",
"U.U.U.U.U.U.U.U.o 8 8 0 0 n m m c m M M M N N N N N N N N N N C C Z A Z A A Z A A C Z C C C A C A F F , X U.U.U.U.U.U.U.",
"U.U.U.U.U.U.U.o ; 8 8 0 0 0 0 m j m m m M M N M M N N N N N N M N C N N N N C N N C Z Z C N M M M M C m o U.U.U.U.U.U.U.",
"U.U.U.U.U.U.U.o , 8 0 0 0 0 0 n M j m m m M M M N M N M N N N C N M N M M M M N M M N N M M m n n m m M + U.U.U.U.U.U.U.",
"U.U.U.U.U.U.X ; , 0 0 8 0 n 0 0 n M m 0 n n n m M M M M N M M N N M N M M M M M M j m m M M m 0 0 0 0 0 o U.U.U.U.U.U.U.",
"U.U.U.U.U.U.X : 8 0 0 0 0 0 n 0 0 0 j m m m n j m m m n m m m m m m m m M M N M M m M m M j n m m m 8 , o U.U.U.U.U.U.U.",
"U.U.U.U.U.U.o , 8 0 8 0 0 0 n 0 0 0 0 0 0 m M m m m m 0 0 0 n 0 m m m m m M m m M M m 0 0 0 0 0 0 0 8 : o U.U.U.U.U.U.U.",
"U.U.U.U.U.U.- 8 8 0 8 0 0 0 n m m n 0 0 0 0 n m M m m n m m 0 0 0 m m m m n n m j c 0 0 0 0 0 0 0 9 , o U.U.U.U.U.U.U.U.",
"U.U.U.U.U.X o , 8 0 8 0 0 0 0 0 n n n n 0 0 0 0 n n m m m m m n m m m n n m n 0 0 0 0 0 0 0 0 0 8 , o X U.U.U.U.U.U.U.U.",
"U.U.U.U.U.X ; 8 8 0 0 8 0 0 0 0 0 n 0 n n n n n 0 0 0 0 n m 0 0 0 0 n 0 0 n 0 0 0 8 0 0 8 8 8 , : o X U.U.U.U.U.U.U.U.U.",
"U.U.U.U.U.X ; , 8 0 8 8 8 0 0 0 0 0 n 0 0 0 n n 0 0 0 0 0 0 0 0 0 0 0 0 0 0 0 0 0 0 0 8 8 , : + o o U.U.U.U.U.U.U.U.U.U.",
"U.U.U.U.U.o ; 8 8 8 0 0 0 8 0 0 0 0 0 n j 0 0 0 0 n 0 0 0 0 0 0 0 0 0 0 0 0 0 8 8 8 , , , ; + * e # U.U.U.U.U.U.U.U.U.U.",
"U.U.U.U.U.o < 4 8 8 0 8 0 8 0 0 0 0 0 0 0 0 n 0 0 0 0 0 0 0 0 0 0 0 0 0 0 0 8 0 8 , : + - o . r s # U.U.U.U.U.U.U.U.U.U.",
"U.U.U.U.U.o , 4 8 8 8 0 8 0 8 0 0 0 0 8 8 0 0 0 0 n 0 0 0 0 0 0 8 0 8 0 0 8 8 8 , o - y L L h @ X . U.U.U.U.U.U.U.U.U.U.",
"U.U.U.U.U.+ , , 7 8 8 0 0 0 8 8 0 0 0 0 0 8 8 0 0 0 0 0 0 n 0 0 0 0 8 0 8 8 8 ; - 4 _ z.n.n.g.h   U.U.U.U.U.U.U.U.U.U.U.",
"U.U.U.U.U.o , , , 4 8 8 8 0 0 0 8 8 0 0 8 8 0 0 8 0 0 0 0 0 0 0 0 0 0 8 8 8 ; - t / u.m.N.V.M.G   U.U.U.U.U.U.U.U.U.U.U.",
"U.U.U.U.U.o , , , 8 8 8 8 0 0 8 0 8 8 0 8 8 8 8 0 0 8 0 8 8 0 0 0 8 8 8 8 , o w R E E / x.B.v.K . U.U.U.U.U.U.U.U.U.U.U.",
"U.U.U.U.U.o , , , , 8 8 0 8 8 0 0 0 0 8 8 0 0 8 8 8 0 8 0 0 8 8 8 0 8 8 , o 3 ( y.i.q./ ( x.B.] X U.U.U.U.U.U.U.U.U.U.U.",
"U.U.U.U.U.@ ; ; , , , 8 8 8 8 8 0 8 8 0 0 8 0 8 8 8 8 8 8 8 8 8 8 8 8 4 @ > 8.w.] J ' 7.6.{ i.} X U.U.U.U.U.U.U.U.U.U.U.",
"U.U.U.U.U.O ; , , , , , 8 8 8 8 8 0 8 8 8 0 8 8 0 0 8 8 8 8 8 8 , 8 8 , o J ' 8 C I D 8 h [ 6.) @ U.U.U.U.U.U.U.U.U.U.U.",
"U.U.U.U.U.X @ , : , , 8 8 , 8 8 8 0 8 0 8 8 8 8 8 8 0 8 8 8 8 8 8 8 , , > e.V ..H.L.G.P 7 ; ' ` + U.U.U.U.U.U.U.U.U.U.U.",
"U.U.U.U.U.U.+ , ; , , , , , 8 , 7 8 8 8 8 8 8 8 , 8 8 8 8 8 8 8 8 , , - l M.B d.G.I.j.v 6 < 4 9 X U.U.U.U.U.U.U.U.U.U.U.",
"U.U.U.U.U.U.X ; ; , , 4 , , 8 8 8 8 4 , , 8 8 , 8 8 8 8 , , 8 , 8 , , o K N.H ..G.L.l.v 6 c T o X U.U.U.U.U.U.U.U.U.U.U.",
"U.U.U.U.U.U.o + , : , , 8 , , , , , , 8 8 8 , 8 , 8 , , 8 8 , 8 , , , o 7.Z.} F F.L.K.p.b T I X o U.U.U.U.U.U.U.U.U.U.U.",
"U.U.U.U.U.U.U.o : : : : , 8 , , 8 , , , , , 8 8 , 8 , 8 8 , , , , , : o K V.c.0 d.J.L.J.l.h.0 k X U.U.U.U.U.U.U.U.U.U.U.",
"U.U.U.U.U.U.U.o ; , : , , , , 8 , 8 8 , , , , , 8 , , , , , 8 , , , < o @ | B.7.0 a.k.k.d.j J ' o U.U.U.U.U.U.U.U.U.U.U.",
"U.U.U.U.U.U.U.U.o : , ; : , : , , 8 , 8 8 8 8 , , , , , , , , 8 , : : - = % ' v.7.h 9 0 9 l V 1 o U.U.U.U.U.U.U.U.U.U.U.",
"U.U.U.U.U.U.U.U.O o 7 , , ; , , , , , , , , , , , , , 8 , 8 8 , , , , o z +.3 k w.g.7.G h 1 g i X U.U.U.U.U.U.U.U.U.U.U.",
"U.U.U.U.U.U.U.U.U.X o ; , , : , , , : : : , , , , , 4 4 8 , , 8 , , , o w 3.,.x = 3 5 3 f -.<.f O U.U.U.U.U.U.U.U.U.U.U.",
"U.U.U.U.U.U.U.U.U.U.X o @ , , ; : : : : , : , , , , , , , , , , ; ; , ; * o.4.5.-.o.@.t.:.@.X.w X U.U.U.U.U.U.U.U.U.U.U.",
"U.U.U.U.U.U.U.U.U.U.U.  X o ; ; , , : : : 7 , , , , , , , , , : , , : > @ ! <.;.%.2.%.2.3.=.p O U.U.U.U.U.U.U.U.U.U.U.U.",
"U.U.U.U.U.U.U.U.U.U.U.U.U.. X o @ ; : , : : ; , : , : , , : : : , ; : ; @ ! >.,.<.2.<.&.5.*.r X U.U.U.U.U.U.U.U.U.U.U.U.",
"U.U.U.U.U.U.U.U.U.U.U.U.U.U.U.. X o o @ @ ; ; ; < : ; : : : ; : ; , : ; X q ! >.;.#.$.#.^ ~ & X U.U.U.U.U.U.U.U.U.U.U.U.",
"U.U.U.U.U.U.U.U.U.U.U.U.U.U.U.U.U.U.  X X X o - - - o @ @ - - @ - - - o X X o q ! ^ ! ~ Q E * U.U.U.U.U.U.U.U.U.U.U.U.U.",
"U.U.U.U.U.U.U.U.U.U.U.U.U.U.U.U.U.U.U.U.U.  @ , 8 8 8 , o o o - + ; @ + @ @ X X s W E W W a + U.U.U.U.U.U.U.U.U.U.U.U.U.",
"U.U.U.U.U.U.U.U.U.U.U.U.U.U.U.U.U.U.U.U.U.- 8 0 M C C n @ 0 4 - n m 0 0 c 4 o X & W E W W & X U.U.U.U.U.U.U.U.U.U.U.U.U.",
"U.U.U.U.U.U.U.U.U.U.U.U.U.U.U.U.U.U.U.U.X > 0 m C A F 0 ; A N @ M S N n n 0 @ . X q R Q d + U.U.U.U.U.U.U.U.U.U.U.U.U.U.",
"U.U.U.U.U.U.U.U.U.U.U.U.U.U.U.U.U.U.U.U.o 8 0 N C A A ; , C A , 8 C M m n 0 , X X + d Q e X U.U.U.U.U.U.U.U.U.U.U.U.U.U.",
"U.U.U.U.U.U.U.U.U.U.U.U.U.U.U.U.U.U.U.X + 8 n m N C N @ 8 M C , ; m M n 0 0 4 o U.o $ e * X U.U.U.U.U.U.U.U.U.U.U.U.U.U.",
"U.U.U.U.U.U.U.U.U.U.U.U.U.U.U.U.U.U.U.X @ 0 0 n N C m - 4 m N 4 @ 0 m n 0 0 0 - X U.X o X U.U.U.U.U.U.U.U.U.U.U.U.U.U.U.",
"U.U.U.U.U.U.U.U.U.U.U.U.U.U.U.U.U.U.U.o , 0 0 n m N 0 - 8 n m 0 o 0 m n n 0 0 ; X U.U.o U.U.U.U.U.U.U.U.U.U.U.U.U.U.U.U.",
"U.U.U.U.U.U.U.U.U.U.U.U.U.U.U.U.U.U.U.+ , 0 0 m n m 8 o 8 0 0 8 @ , n n 0 0 0 , X U.U.U.U.U.U.U.U.U.U.U.U.U.U.U.U.U.U.U.",
"U.U.U.U.U.U.U.U.U.U.U.U.U.U.U.U.U.U.U.o , 0 0 m j m , X @ o @ o X , 0 n 0 0 0 , o U.U.U.U.U.U.U.U.U.U.U.U.U.U.U.U.U.U.U.",
"U.U.U.U.U.U.U.U.U.U.U.U.U.U.U.U.U.U.X @ , 0 0 0 m 0 ; h L U U ' B @ 0 0 0 0 0 , o U.U.U.U.U.U.U.U.U.U.U.U.U.U.U.U.U.U.U.",
"U.U.U.U.U.U.U.U.U.U.U.U.U.U.U.U.U.U.X - , 0 0 0 n 8 > g.A.P.S.V.z.5 4 0 c 0 8 , o U.U.U.U.U.U.U.U.U.U.U.U.U.U.U.U.U.U.U.",
"U.U.U.U.U.U.U.U.U.U.U.U.U.U.U.U.U.U.X + 8 8 0 0 0 8 y c.V.S.A.V.b.h , 0 n 9 8 , + U.U.U.U.U.U.U.U.U.U.U.U.U.U.U.U.U.U.U.",
"U.U.U.U.U.U.U.U.U.U.U.U.U.U.U.U.U.U.X ; , 8 0 0 0 , 2 e.M.C.V.B.e.1 8 0 0 8 , , o X U.U.U.U.U.U.U.U.U.U.U.U.U.U.U.U.U.U.",
"U.U.U.U.U.U.U.U.U.U.U.U.U.U.U.U.U.U.X o , , 8 8 0 0 ; l r.c.c.e.l - 8 8 4 8 8 , + X U.U.U.U.U.U.U.U.U.U.U.U.U.U.U.U.U.U.",
"U.U.U.U.U.U.U.U.U.U.U.U.U.U.U.U.U.U.X o , , 4 8 8 8 , @ 1 k k 2 + , 8 4 8 4 , : o o U.U.U.U.U.U.U.U.U.U.U.U.U.U.U.U.U.U.",
"U.U.U.U.U.U.U.U.U.U.U.U.U.U.U.U.U.U.U.o o o @ ; ; ; ; @ + X o o @ > ; ; - ; + + o U.U.U.U.U.U.U.U.U.U.U.U.U.U.U.U.U.U.U.",
"U.U.U.U.U.U.U.U.U.U.U.U.U.U.U.U.U.U.U.U.U.o @ @ @ @ @ @ o o o o o @ o X O . X X U.U.U.U.U.U.U.U.U.U.U.U.U.U.U.U.U.U.U.U.",
"U.U.U.U.U.U.U.U.U.U.U.U.U.U.U.U.U.U.U.U.U.o : 4 4 4 2 @ o o + @ @ @ @ X > : o U.U.U.U.U.U.U.U.U.U.U.U.U.U.U.U.U.U.U.U.U.",
"U.U.U.U.U.U.U.U.U.U.U.U.U.U.U.U.U.U.U.U.U.o @ 1 1 > > o > 9 @ + @ + o o @ # o U.U.U.U.U.U.U.U.U.U.U.U.U.U.U.U.U.U.U.U.U.",
"U.U.U.U.U.U.U.U.U.U.U.U.U.U.U.U.U.U.U.U.U.o o + + + + X + @ o o X o X o o o o U.U.U.U.U.U.U.U.U.U.U.U.U.U.U.U.U.U.U.U.U.",
"U.U.U.U.U.U.U.U.U.U.U.U.U.U.U.U.U.U.U.U.U.U.o X X X o o o X o U.U.U.U.U.U.U.U.U.U.U.U.U.U.U.U.U.U.U.U.U.U.U.U.U.U.U.U.U.",
"U.U.U.U.U.U.U.U.U.U.U.U.U.U.U.U.U.U.U.U.U.U.U.U.U.U.U.U.U.U.U.U.U.U.U.U.U.U.U.U.U.U.U.U.U.U.U.U.U.U.U.U.U.U.U.U.U.U.U.U.",
"U.U.U.U.U.U.U.U.U.U.U.U.U.U.U.U.U.U.U.U.U.U.U.U.U.U.U.U.U.U.U.U.U.U.U.U.U.U.U.U.U.U.U.U.U.U.U.U.U.U.U.U.U.U.U.U.U.U.U.U.",
"U.U.U.U.U.U.U.U.U.U.U.U.U.U.U.U.U.U.U.U.U.U.U.U.U.U.U.U.U.U.U.U.U.U.U.U.U.U.U.U.U.U.U.U.U.U.U.U.U.U.U.U.U.U.U.U.U.U.U.U.",
"U.U.U.U.U.U.U.U.U.U.U.U.U.U.U.U.U.U.U.U.U.U.U.U.U.U.U.U.U.U.U.U.U.U.U.U.U.U.U.U.U.U.U.U.U.U.U.U.U.U.U.U.U.U.U.U.U.U.U.U.",
"U.U.U.U.U.U.U.U.U.U.U.U.U.U.U.U.U.U.U.U.U.U.U.U.U.U.U.U.U.U.U.U.U.U.U.U.U.U.U.U.U.U.U.U.U.U.U.U.U.U.U.U.U.U.U.U.U.U.U.U."
};
