/* XPM */
static xpm_row_t const p1_right_3[] = {
/* columns rows colors chars-per-pixel */
"60 90 138 2 ",
"   c #191817",
".  c #1A1917",
"X  c #1A1918",
"o  c #1B1918",
"O  c #1B1A18",
"+  c #1C1A18",
"@  c #1C1B18",
"#  c #1D1B18",
"$  c #1C1B1A",
"%  c #1D1C1A",
"&  c #1E1D1B",
"*  c #1F1E1E",
"=  c #272017",
"-  c #21201E",
";  c #29261E",
":  c #332517",
">  c #3E2A17",
",  c #222221",
"<  c #242422",
"1  c #262522",
"2  c #2A2925",
"3  c #2D2A25",
"4  c #282828",
"5  c #2A2A2A",
"6  c #2A2A2A",
"7  c #2B2B2B",
"8  c #2C2C2C",
"9  c #2D2D2D",
"0  c #2E2E2E",
"q  c #2F2F2F",
"w  c #302D25",
"e  c #332F28",
"r  c #343227",
"t  c #3B352E",
"y  c #3C3A2F",
"u  c #313131",
"i  c #353434",
"p  c #353535",
"a  c #363636",
"s  c #373737",
"d  c #383838",
"f  c #393939",
"g  c #3A3A3A",
"h  c #3B3B3B",
"j  c #3D3C3B",
"k  c #3C3C3C",
"l  c #3E3D3C",
"z  c #3E3E3E",
"x  c #3F3F3F",
"c  c #4F3617",
"v  c #5C3C18",
"b  c #473F34",
"n  c #6E4319",
"m  c #734919",
"M  c #7D6618",
"N  c #5F562C",
"B  c #4F4439",
"V  c #54493D",
"C  c #73662B",
"Z  c #292A41",
"A  c #282B46",
"S  c #2C3152",
"D  c #333A5C",
"F  c #403F40",
"G  c #444344",
"H  c #444344",
"J  c #444344",
"K  c #464546",
"L  c #484748",
"P  c #494849",
"I  c #4A4A4A",
"U  c #4C4B4C",
"Y  c #4D4C4D",
"T  c #4E4D4E",
"R  c #5B4E41",
"E  c #515151",
"W  c #525252",
"Q  c #535353",
"!  c #555555",
"~  c #565656",
"^  c #585858",
"/  c #595959",
"(  c #5A5A5A",
")  c #5B5B5B",
"_  c #5C5C5C",
"`  c #685849",
"'  c #6C5C4B",
"]  c #756452",
"[  c #464C6C",
"{  c #56596C",
"}  c #7B7A7A",
"|  c #8C5018",
" . c #975A1C",
".. c #A76A19",
"X. c #BF7D1C",
"o. c #845E3B",
"O. c #996129",
"+. c #8B7328",
"@. c #846E59",
"#. c #AC7646",
"$. c #907963",
"%. c #A08A2C",
"&. c #BFA429",
"*. c #C5891F",
"=. c #C5951F",
"-. c #D3A31B",
";. c #D2AD3B",
":. c #E3B920",
">. c #F1CA26",
",. c #EAC130",
"<. c #F8D536",
"1. c #B7885C",
"2. c #99826A",
"3. c #A08970",
"4. c #B2967A",
"5. c #C39568",
"6. c #CCA178",
"7. c #686C82",
"8. c #808087",
"9. c #8A8888",
"0. c #8E8F96",
"q. c #A2A1A2",
"w. c #AAABB1",
"e. c #B8B7B6",
"r. c #C3A484",
"t. c #CBAB89",
"y. c #D6B391",
"u. c #DFBB97",
"i. c #E2BE9A",
"p. c #E8C49E",
"a. c #EDC9A2",
"s. c #F2CCA7",
"d. c #EECEB3",
"f. c #C5C4C5",
"g. c #D2D2D2",
"h. c #F6DBC5",
"j. c #E1E1E0",
"k. c #00B140",
/* pixels */
"k.k.k.k.k.k.k.k.k.k.k.k.k.k.k.k.k.k.k.k.k.k.k.k.k.k.k.k.k.k.k.k.k.k.k.k.k.k.k.k.k.k.k.k.k.k.k.k.k.k.k.k.k.k.k.k.k.k.k.k.",
"k.k.k.k.k.k.k.k.k.k.k.k.k.k.k.k.k.k.k.k.k.k.k.k.k.k.k.k.k.k.k.k.k.k.k.k.k.k.k.k.k.k.k.k.k.k.k.k.k.k.k.k.k.k.k.k.k.k.k.k.",
"k.k.k.k.k.k.k.k.k.k.k.k.k.k.k.k.k.k.k.k.k.k.k.k.k.k.k.k.k.k.k.k.k.k.k.k.k.k.k.k.k.k.k.k.k.k.k.k.k.k.k.k.k.k.k.k.k.k.k.k.",
"k.k.k.k.k.k.k.k.k.k.k.k.k.k.k.k.k.k.k.k.k.k.k.k.k.k.k.k.k.k.k.k.k.k.k.k.k.k.k.k.k.k.k.k.k.k.k.k.k.k.k.k.k.k.k.k.k.k.k.k.",
"k.k.k.k.k.k.k.k.k.k.k.k.k.k.k.k.k.k.k.k.k.k.k.k.k.k.k.k.k.k.k.k.k.k.k.k.k.k.k.k.k.k.k.k.k.k.k.k.k.k.k.k.k.k.k.k.k.k.k.k.",
"k.k.k.k.k.k.k.k.k.k.k.k.k.k.k.k.k.k.k.k.k.k.k.k.k.k.k.k.k.k.k.k.k.k.k.k.k.k.k.k.k.k.k.k.k.k.k.k.k.k.k.k.k.k.k.k.k.k.k.k.",
"k.k.k.k.k.k.k.k.k.k.k.k.k.k.k.k.k.k.k.k.k.k.k.k.o $ O . k.k.k.k.k.k.k.k.k.k.k.k.k.k.k.k.k.k.k.k.k.k.k.k.k.k.k.k.k.k.k.k.",
"k.k.k.k.k.k.k.k.k.k.k.k.k.k.k.k.k.k.k.k.k.k.k.+ , l y - # o @ k.k.k.k.k.k.k.k.k.k.k.k.k.k.k.k.k.k.k.k.k.k.k.k.k.k.k.k.k.",
"k.k.k.k.k.k.k.k.k.k.k.k.k.k.k.k.k.k.k.k.k.k.O - h ) ( T G u 1 * $ # @ o O k.k.k.k.k.k.k.k.k.k.k.k.k.k.k.k.k.k.k.k.k.k.k.",
"k.k.k.k.k.k.k.k.k.k.k.k.k.k.k.k.k.k.k.k.@ $ 6 x Y ( ) _ _ ( ! T P H h u 1 & O . k.k.k.k.k.k.k.k.k.k.k.k.k.k.k.k.k.k.k.k.",
"k.k.k.k.k.k.k.k.k.k.k.k.k.k.k.k.k.k.k.O & h ! / / ~ Q Q ^ ( ) _ _ _ ) / ! U h 5 & + . k.k.k.k.k.k.k.k.k.k.k.k.k.k.k.k.k.",
"k.k.k.k.k.k.k.k.k.k.k.k.k.k.k.k.k.O $ 6 K ( _ ( ^ ! ! ! ! ! ( ) ) ) ) / ^ ^ / ! P y * @ k.k.k.k.k.k.k.k.k.k.k.k.k.k.k.k.",
"k.k.k.k.k.k.k.k.k.k.k.k.k.k.k.k.@ , x ~ _ ) ( ( / / ( ) ) ( ) ) ) ) ) ) ) / ~ ~ ) / I q % . k.k.k.k.k.k.k.k.k.k.k.k.k.k.",
"k.k.k.k.k.k.k.k.k.k.k.k.k.k.O $ 9 Y ^ ! ! ! ! ! ~ ~ ^ ) ) ) ) ) ) ) ) ) ) ) ) ( ) ) _ ^ J < O k.k.k.k.k.k.k.k.k.k.k.k.k.",
"k.k.k.k.k.k.k.k.k.k.k.k.k.O % s ! ~ ! ^ ^ ~ ~ ! ! ! ! ( ( ( ( ( ) ) ) ) ) ) ) ) ) ) ) ) _ E q X @ k.k.k.k.k.k.k.k.k.k.k.",
"k.k.k.k.k.k.k.k.k.k.k.k.O * f ^ ) / / / ^ ^ ^ ^ ^ ^ ~ / / ~ ^ ^ ^ ^ / ( ) ) ) ) ) ) ) ) ) _ ! s % O k.k.k.k.k.k.k.k.k.k.",
"k.k.k.k.k.k.k.k.k.k.k.. * G / / ! W W W W W Q Q Q Q Q W Q ! ~ ^ ^ / / ^ ^ / ( ) ) ) ) ) ) ) ) ~ j * o k.k.k.k.k.k.k.k.k.",
"k.k.k.k.k.k.k.k.k.k.O * J ^ ~ W E E E E E E E E E E E Q Q Q Q Q ! ! ! ^ / ^ ~ / ( ) ) ) ) ) ) ) ^ H - O k.k.k.k.k.k.k.k.",
"k.k.k.k.k.k.k.k.k.@ O u W E T I T E T E E E E E E E E Q ! ! Q Q Q Q ! ! ! Q ! ^ ( ) ) ) ) ) ( ) ) ( K - O k.k.k.k.k.k.k.",
"k.k.k.k.k.k.k.k.k.% 5 h L P L K I T T U T T T E E E E E E W Q ! ! Q W W Q Q W W Q ^ ^ / ) ) ( ( ) ) ) J * . k.k.k.k.k.k.",
"k.k.k.k.k.k.k.k.# 1 p x P I I K P I T Y U Y T E E E E E E E E W Q ! ! ! W W Q Q Q W W W ! / ^ ( ) ) ) ( F & O k.k.k.k.k.",
"k.k.k.k.k.k.k.O - i p H L I I U Y I I Y T Y Y T E E E E E E E E E E E Q Q ! ! ! ~ ~ ! Q E E Q Q ! ( ) ) / f % k.k.k.k.k.",
"k.k.k.k.k.k.O % y p s J P L P P I U Y I I Y T T T E E E E E E E E E E E E E E E Q ! ! ~ ! ! ! Q Q ! ( ( / ! 0 O k.k.k.k.",
"k.k.k.k.k.k.# 4 s p g G P K J L P P I Y Y I I U Y T E E E T T T E E E E E E T Y Y T E E W Q ! ~ ~ ! ! ^ / ( T , O k.k.k.",
"k.k.k.k.k.O & y a a k l H L G H K P P P I Y T Y Y Y T T E E T Y Y T E E E E E E T T E E E E E E W E E Q ~ ( ) z $ k.k.k.",
"k.k.k.k.k.# < i p s h k g J J l H J K P P P I U Y Y U I I U Y T Y T E E E E E E T T E E E E E E E E E Y U Q ) ! 4 . k.k.",
"k.k.k.k.O & 9 s p d f h k h J H l J J K P P P P P I Y Y U I P P I U Y T E E E E E E E E E E E T T T E T T T ~ _ G $ k.k.",
"k.k.k.k.O < u f f f h k k k z K H l J J J K P P P P P I U Y Y U I P U Y Y Y Y Y U Y T T T E E T T E E Y Y T T ~ Q < O k.",
"k.k.k.k.% 7 i f k f g z z k k G K J z F J H J K P P P P P P I U Y Y Y I P P L P P I I I I Y T T Y U P J J L J P ~ p + k.",
"k.k.k.o , q p d f h f l z z h k z H J G z x x G J K L L K P P P P P I P P P K L P P P L J J L K K J J H l z H x U H $ k.",
"k.k.k.$ 4 u a d s k g k l x z k k h z H J H F x G J H H x G J K K L L L L K K L P P P K J H x H K P L J l l l h G d X k.",
"k.k.. % 9 u s f a k l h l z x z k k h h z J K K J H J G x l z x x G G H H J K K L P P L K K L K K J J K J F z h i 4 $ k.",
"k.k.. * 0 u d f a f z h l z z x z l l k g h G J K K J H H F l k l x G G J H F H K J J K K J J H G h g h F G H k y < @ k.",
"k.k.@ , 9 u d f a s k k k l l x x x z l l k h l G J J G x H J H l h l G J J J H F F H H G x k h k h h h k h g i 7 % @ k.",
"k.k.$ < 0 u d f d a f l h l h z x z z z l z l l k l x G J K K J J H H H H G F G H H x z z l h h g f f f g f p 8 * + k.k.",
"k.k.O 1 q u d f f a d h h g k g z z z z z z z k k k k k h z F g g k k z G G G G G z l k f f g f f f f f s i 7 * O k.k.k.",
"k.@ % 4 y y s f f d p f k g k h g l x z z l z z h g f f f f f f g k l l k k h h g g f f a f h g s a i u 9 1 % @ k.k.k.k.",
"k.O * 6 y y i d f f a s g k k l g g l z z z l k l z l k h h k k k h g f f f f g g h g f f d a i u 0 7 1 * O   O k.k.k.k.",
"k.o * 7 y y u p f f f p s g l k l d f h l z z z k k k k l z x z l l l l l l l l h f p p i u q 9 7 4 , % = > % . k.k.k.k.",
"k.+ - 7 9 y u i s f f d p d h l k h a s g k k l z z l h g g g h h h g k k k k h s i a a y 8 4 < * O O > m n & k.k.k.k.k.",
"k.@ , 9 8 y y i i f f f d p s h h h g a p a f h h k l z z l k g s a s f f f f a p d p q 1 * O - r e   : v > $ k.k.k.k.k.",
"k.O , 0 7 q y i p p f f f d p s f f d a s s a a s g g f h l z z l h f f f f a p p u 6 < O ; R $.4.3.' 3   # @ k.k.k.k.k.",
"k.O < 0 6 8 q y p i a f f f d a a d f p i a f f f f f g h h h h k g f g d p p i y 5 * & B 2.t.i.a.p.t.' X . k.k.k.k.k.k.",
"k.@ , 7 4 7 9 y u s i a f f f f s p s d s i i a d d f d d d s d g g g d f a u y 5 & : n O.5.y.p.a.s.a.$.$ k.k.k.k.k.k.k.",
"k.+ , 7 4 6 7 q y i s p p d f f f d a a s d a i i p a s s s d d s p i s s u y 6 & : n | | | | 1.p.p.u.2.$ k.k.k.k.k.k.k.",
"k.o - 6 4 5 6 9 y y i d s p p s f f f d a a s s a i i p a a i i i s d p u u 9 * - m #.5.5.#. . .6.a.p.2.$ k.k.k.k.k.k.k.",
"k.O * 6 4 5 8 6 q y y u a d s p i p a d d d s a a p i i i i i a d p u u i q < O ' 6.r.4.4.r.t.1.O.5.a.2.$ k.k.k.k.k.k.k.",
"k.O % 5 5 4 8 9 8 q y y y i a d d s a p i p a a a s d d d s a i u y u i u 5 O b 4.R w 2 2 2 b @.1.#.6.2.$ k.k.k.k.k.k.k.",
"k.k.O 1 5 4 6 q 7 7 0 y y y y u i i p p i i i i i s d s i u u i u y u y y < & 3.$.y 8.q.w.q.! * b 3.1.o.# k.k.k.k.k.k.k.",
"k.k.O , 4 4 4 9 0 7 8 9 q y y y y y y y y u u u u u u u u i i u y y y q 0 & b i.] ( f.g.j.g.{ S * w 3.@.O k.k.k.k.k.k.k.",
"k.k.. * 1 4 4 5 q 0 9 9 8 9 q y y y y y u u u y y y y y y y y y y y q 8 6 O @.s.` _ f.g.j.w.D Z * , t B @ k.k.k.k.k.k.k.",
"k.k.k.O 1 4 4 4 7 q q 9 0 0 8 8 9 q y y y y y y y y y y y y y y y y 8 7 1 - 4.s.] ~ f.g.j.q.D 1 O { Y O O k.k.k.k.k.k.k.",
"k.k.k.@ , 7 4 4 4 6 0 y 0 0 y q 9 8 8 9 0 q y y y y y y y y y y y 9 6 5 , ; t.s.2.j e.g.j.f.[ S A 0.~   O k.k.k.k.k.k.k.",
"k.k.k.O % 7 6 4 4 4 5 9 y y y y y y q 9 8 8 8 9 9 0 0 0 0 0 9 8 8 8 5 4 - 3 t.s.t.r 9.g.j.j.w.7.8.0.3 - O k.k.k.k.k.k.k.",
"k.k.k.k.@ , 9 5 4 4 4 4 7 0 y y y y y y y y q 0 9 7 6 7 7 7 9 0 q 8 4 4 - O R y.a.] s q.g.j.j.g.e.G R b . k.k.k.k.k.k.k.",
"k.k.k.k.k.X 1 6 4 4 4 5 5 6 6 8 0 q y y y y q 0 9 8 8 9 7 0 y y q 6 4 4 , % & R u.u.V i } q.q.} f b 4.V o k.k.k.k.k.k.k.",
"k.k.k.k.k.O O < 4 6 5 4 4 6 8 6 4 5 6 6 6 6 6 6 7 7 8 9 q y y q 7 7 4 4 , ; C ; ` y.y.] e 3 3 w V ] R ; . k.k.k.k.k.k.k.",
"k.k.k.k.k.k.. O , 4 8 5 4 4 5 5 4 5 4 5 5 5 6 8 9 0 q y y y 0 7 9 7 4 4 < - &.%.w t $.t.r.2.] V e ; r - O k.k.k.k.k.k.k.",
"k.k.k.k.k.k.k.O X * 1 6 5 4 4 4 4 4 4 5 6 7 9 8 8 7 8 0 0 8 7 0 8 4 4 4 < O %.<.;.N ; 3 t r ; r C &.=.; k.k.k.k.k.k.k.k.",
"k.k.k.k.k.k.k.k.O # % , 1 5 5 4 4 4 5 6 7 7 8 8 8 7 7 7 7 9 0 7 4 4 4 4 1 O M ,.<.<.&.+.M +.%.&.>.>...= k.k.k.k.k.k.k.k.",
"k.k.k.k.k.k.k.k.k.k.o $ & , 1 4 4 4 4 4 5 5 6 6 6 6 6 6 6 5 5 4 5 5 4 4 1 O n =.>.:.;.:.:.,.<.&.%.M c O k.k.k.k.k.k.k.k.",
"k.k.k.k.k.k.k.k.k.k.k.. o $ % - < 1 4 4 4 4 4 5 4 4 4 4 4 4 4 4 4 4 4 4 1 O m *.:.=.-.>.,.-.>.>.;.m   . k.k.k.k.k.k.k.k.",
"k.k.k.k.k.k.k.k.k.k.k.k.k.k.. O X % * , < < 1 1 1 4 4 4 4 4 4 4 4 4 4 4 1 O v ..,.:.,.:.:.:.:.,.*.v X k.k.k.k.k.k.k.k.k.",
"k.k.k.k.k.k.k.k.k.k.k.k.k.k.k.k.. O O # O O O % & * * , , < < 1 1 1 4 4 , O & v +.;.=.*.-.-.X.X...> # k.k.k.k.k.k.k.k.k.",
"k.k.k.k.k.k.k.k.k.k.k.k.k.k.k.k.k.k.k..   , 6 8 4 < - & O O O O % & * * O       & v ..X.......O.| = O k.k.k.k.k.k.k.k.k.",
"k.k.k.k.k.k.k.k.k.k.k.k.k.k.k.k.k.k.k.O < u z K K J G d * 1 i *   & , - & * - O O =  . .|  .| | m = k.k.k.k.k.k.k.k.k.k.",
"k.k.k.k.k.k.k.k.k.k.k.k.k.k.k.k.k.k.O % i l P W ~ ! Q I * s ) K < * p k s z d - O O v  .| |  . .: $ k.k.k.k.k.k.k.k.k.k.",
"k.k.k.k.k.k.k.k.k.k.k.k.k.k.k.k.k.k.+ < f z I T Q ^ ( Q , y ! / I , - h G G k 4 O X > | | | | m % O k.k.k.k.k.k.k.k.k.k.",
"k.k.k.k.k.k.k.k.k.k.k.k.k.k.k.k.k.k.% 9 l x U Y W ! ! ~ 7 , H T Q f & , g G h y % @ $ > |  .| > $ k.k.k.k.k.k.k.k.k.k.k.",
"k.k.k.k.k.k.k.k.k.k.k.k.k.k.k.k.k.O * p l z P Y T Q ! ~ d % i J Y P y % < l h p , + . = m  .m = o k.k.k.k.k.k.k.k.k.k.k.",
"k.k.k.k.k.k.k.k.k.k.k.k.k.k.k.k.k.@ , f l x K Y T T E T G % 6 k J L l 8 O 5 g f 4 # O % : n c X k.k.k.k.k.k.k.k.k.k.k.k.",
"k.k.k.k.k.k.k.k.k.k.k.k.k.k.k.k.k.X 4 l k x H P Y U T E Y < - a z G l u &   7 d 0 O O O $ = & o k.k.k.k.k.k.k.k.k.k.k.k.",
"k.k.k.k.k.k.k.k.k.k.k.k.k.k.k.k.. % 8 z h x G J P P L P I i O 0 g s 6 % < t - < y * O k.k.O o k.k.k.k.k.k.k.k.k.k.k.k.k.",
"k.k.k.k.k.k.k.k.k.k.k.k.k.k.k.k.O & q g h G G H H K L P I G * < 9 * % V 4.t.$.; < - O k.k.k.k.k.k.k.k.k.k.k.k.k.k.k.k.k.",
"k.k.k.k.k.k.k.k.k.k.k.k.k.k.k.k.O * q d h G G G H H H H H H 5 O O t 3.d.s.p.y.` % * @ k.k.k.k.k.k.k.k.k.k.k.k.k.k.k.k.k.",
"k.k.k.k.k.k.k.k.k.k.k.k.k.k.k.k.@ , y d h G G G G H H H H J a O R y.h.h.d.a.i.$.% * # k.k.k.k.k.k.k.k.k.k.k.k.k.k.k.k.k.",
"k.k.k.k.k.k.k.k.k.k.k.k.k.k.k.k.# < y d g z G G x x G G H H f * 3.p.d.d.d.a.u.@.% - $ k.k.k.k.k.k.k.k.k.k.k.k.k.k.k.k.k.",
"k.k.k.k.k.k.k.k.k.k.k.k.k.k.k.k.$ < y a f h G G G G x x x G g & @.u.p.s.s.p.t.V % < $ k.k.k.k.k.k.k.k.k.k.k.k.k.k.k.k.k.",
"k.k.k.k.k.k.k.k.k.k.k.k.k.k.k.k.$ < q i f f k z x x x x x x z 1 t 4.y.i.u.r.] - 1 1 X k.k.k.k.k.k.k.k.k.k.k.k.k.k.k.k.k.",
"k.k.k.k.k.k.k.k.k.k.k.k.k.k.k.k.$ < 9 u a f f g k l z z z z x s * t @.$.@.b & < 0 < X k.k.k.k.k.k.k.k.k.k.k.k.k.k.k.k.k.",
"k.k.k.k.k.k.k.k.k.k.k.k.k.k.k.k.$ < 6 y u p d f f d d f f g g f u , % & % * 4 q 9 < X k.k.k.k.k.k.k.k.k.k.k.k.k.k.k.k.k.",
"k.k.k.k.k.k.k.k.k.k.k.k.k.k.k.k.# , 4 8 y u u u u u u i i i i i i y 8 8 9 q u 0 6 < O o k.k.k.k.k.k.k.k.k.k.k.k.k.k.k.k.",
"k.k.k.k.k.k.k.k.k.k.k.k.k.k.k.k.+ O & * , < 4 5 5 6 7 7 7 8 8 7 7 7 6 6 6 5 4 1 < * O & @ k.k.k.k.k.k.k.k.k.k.k.k.k.k.k.",
"k.k.k.k.k.k.k.k.k.k.k.k.k.k.k.k.o % , - & % O O O O % % % % % % % % % % O O O O O O & - O k.k.k.k.k.k.k.k.k.k.k.k.k.k.k.",
"k.k.k.k.k.k.k.k.k.k.k.k.k.k.k.k.O < r r r r w 3 < % o . O @ @ @ O O & - - - - * O O % X O k.k.k.k.k.k.k.k.k.k.k.k.k.k.k.",
"k.k.k.k.k.k.k.k.k.k.k.k.k.k.k.. O < w e r r r 2 * O @ k.k.k.k.k.k.# * ; ; , * % O $ . k.k.k.k.k.k.k.k.k.k.k.k.k.k.k.k.k.",
"k.k.k.k.k.k.k.k.k.k.k.k.k.k.k.O O & - , ; 3 < O , 2 # k.k.k.k.k.k.O O * * % O @ @ k.k.k.k.k.k.k.k.k.k.k.k.k.k.k.k.k.k.k.",
"k.k.k.k.k.k.k.k.k.k.k.k.k.k.k.k.k.O + $ O & O & r b - @ k.k.k.k.k.k.O O X O k.k.k.k.k.k.k.k.k.k.k.k.k.k.k.k.k.k.k.k.k.k.",
"k.k.k.k.k.k.k.k.k.k.k.k.k.k.k.k.k.k.k.k.. . O O & < & @ k.k.k.k.k.k.. O k.k.k.k.k.k.k.k.k.k.k.k.k.k.k.k.k.k.k.k.k.k.k.k.",
"k.k.k.k.k.k.k.k.k.k.k.k.k.k.k.k.k.k.k.k.k.k.k.k.O + O k.k.k.k.k.k.k.k.k.k.k.k.k.k.k.k.k.k.k.k.k.k.k.k.k.k.k.k.k.k.k.k.k."
};
