/* XPM */
static xpm_row_t const p1_right_6[] = {
/* columns rows colors chars-per-pixel */
"60 80 173 2 ",
"   c #141413",
".  c #181715",
"X  c #1A1917",
"o  c #1C1C1A",
"O  c #211F1B",
"+  c #201D17",
"@  c #2B2117",
"#  c #23211E",
"$  c #2B2319",
"%  c #2C281C",
"&  c #352617",
"*  c #3B351F",
"=  c #211C28",
"-  c #252423",
";  c #282725",
":  c #2B2925",
">  c #2B2B2B",
",  c #20222F",
"<  c #322D27",
"1  c #322F2A",
"2  c #32312C",
"3  c #3C342C",
"4  c #383323",
"5  c #2A2A33",
"6  c #2F3030",
"7  c #333333",
"8  c #3D3731",
"9  c #3B3935",
"0  c #3B3B3B",
"q  c #452F18",
"w  c #4B3218",
"e  c #5B3B16",
"r  c #533719",
"t  c #533918",
"y  c #633C18",
"u  c #683F18",
"i  c #433D23",
"p  c #41382F",
"a  c #433B33",
"s  c #493E35",
"d  c #413F3D",
"f  c #6A4C17",
"g  c #7C4B19",
"h  c #774819",
"j  c #61541C",
"k  c #765617",
"l  c #4C4321",
"z  c #47433D",
"x  c #4C4339",
"c  c #494036",
"v  c #52463B",
"b  c #544A3E",
"n  c #5B4A39",
"m  c #6A4523",
"M  c #6A5E27",
"N  c #614931",
"B  c #75573B",
"V  c #766829",
"C  c #2B2F4D",
"Z  c #2B3050",
"A  c #353B57",
"S  c #403F40",
"D  c #434343",
"F  c #484748",
"G  c #4B4B4B",
"H  c #494641",
"J  c #5A4E42",
"K  c #5C5043",
"L  c #504F50",
"P  c #535353",
"I  c #585758",
"U  c #5A5A5A",
"Y  c #615345",
"T  c #6B5B4B",
"R  c #665748",
"E  c #756452",
"W  c #77695B",
"Q  c #494E69",
"!  c #565B78",
"~  c #696868",
"^  c #626371",
"/  c #7B7B7A",
"(  c #8B4F1B",
")  c #875119",
"_  c #925418",
"`  c #9C5D19",
"'  c #84631D",
"]  c #AD6B1B",
"[  c #B7761A",
"{  c #925722",
"}  c #9B7726",
"|  c #9B6738",
" . c #B97E22",
".. c #A46D3B",
"X. c #806E5A",
"o. c #9F7F5E",
"O. c #AB7645",
"+. c #8A7660",
"@. c #947D64",
"#. c #9D8217",
"$. c #B68B1C",
"%. c #9B8836",
"&. c #AB8D20",
"*. c #AB9329",
"=. c #BBA12B",
"-. c #C58D16",
";. c #C18418",
":. c #CA9B1E",
">. c #CEAB19",
",. c #D4AE1F",
"<. c #DEB31D",
"1. c #E4B91B",
"2. c #CA9629",
"3. c #DAAF2A",
"4. c #DCA737",
"5. c #CEB33E",
"6. c #DEB936",
"7. c #E6BD23",
"8. c #E2B628",
"9. c #E0BE35",
"0. c #EAC426",
"q. c #F5CF21",
"w. c #F8D22D",
"e. c #E3C33A",
"r. c #F5D036",
"t. c #AE8157",
"y. c #B58557",
"u. c #9B836B",
"i. c #97806A",
"p. c #A2886F",
"a. c #BE8E63",
"s. c #A48C72",
"d. c #AA8E73",
"f. c #B2997B",
"g. c #E8BE40",
"h. c #C49569",
"j. c #C89B70",
"k. c #737689",
"l. c #7E8192",
"z. c #838382",
"x. c #8A8989",
"c. c #8B8C93",
"v. c #969594",
"b. c #A39182",
"n. c #B99D81",
"m. c #BFA182",
"M. c #ADACAC",
"N. c #A4A3A8",
"B. c #B5B3B3",
"V. c #CAAA8A",
"C. c #C7A686",
"Z. c #D5AD86",
"A. c #DDB68D",
"S. c #D6B18F",
"D. c #D5B391",
"F. c #DBB794",
"G. c #DBB895",
"H. c #DEBE9A",
"J. c #E6C29D",
"K. c #E9C49F",
"L. c #EBC7A1",
"P. c #EECAA5",
"I. c #EECAA8",
"U. c #F0CAA4",
"Y. c #EFCFB2",
"T. c #F0CFB4",
"R. c #BEBEC2",
"E. c #CECED0",
"W. c #D2D2D2",
"Q. c #DCDCDB",
"!. c #F6D9C3",
"~. c #E3E2E2",
"^. c #00b140",
/* pixels */
"^.^.^.^.^.^.^.^.^.^.^.^.^.^.^.^.^.^.^.^.^.^.^.^.^.^.^.^.^.^.^.^.^.^.^.^.^.^.^.^.^.^.^.^.^.^.^.^.^.^.^.^.^.^.^.^.^.^.^.^.",
"^.^.^.^.^.^.^.^.^.^.^.^.^.^.^.^.^.^.^.^.^.^.^.^.^.^.^.^.^.^.^.^.^.^.^.^.^.^.^.^.^.^.^.^.^.^.^.^.^.^.^.^.^.^.^.^.^.^.^.^.",
"^.^.^.^.^.^.^.^.^.^.^.^.^.^.^.^.^.^.^.^.^.^.^.^.^.^.^.^.^.^.^.^.^.^.^.^.^.^.^.^.^.^.^.^.^.^.^.^.^.^.^.^.^.^.^.^.^.^.^.^.",
"^.^.^.^.^.^.^.^.^.^.^.^.^.^.^.^.^.^.^.^.^.^.^.^.^.^.^.^.^.^.^.^.^.^.^.^.^.^.^.^.^.^.^.^.^.^.^.^.^.^.^.^.^.^.^.^.^.^.^.^.",
"^.^.^.^.^.^.^.^.^.^.^.^.^.^.^.^.^.^.^.^.^.^.^.^.^.^.^.^.^.^.^.^.^.^.^.^.^.^.^.^.^.^.^.^.^.^.^.^.^.^.^.^.^.^.^.^.^.^.^.^.",
"^.^.^.^.^.^.^.^.^.^.^.^.^.^.^.^.^.^.^.^.^.^.^.^.^.o X ^.^.^.^.^.^.^.^.^.^.^.^.^.^.^.^.^.^.^.^.^.^.^.^.^.^.^.^.^.^.^.^.^.",
"^.^.^.^.^.^.^.^.^.^.^.^.^.^.^.^.^.^.^.^.^.^.^.o # 9 7 - o X . ^.^.^.^.^.^.^.^.^.^.^.^.^.^.^.^.^.^.^.^.^.^.^.^.^.^.^.^.^.",
"^.^.^.^.^.^.^.^.^.^.^.^.^.^.^.^.^.^.^.^.^.^.X o 2 I U I G 0 2 > - - o o . ^.^.^.^.^.^.^.^.^.^.^.^.^.^.^.^.^.^.^.^.^.^.^.",
"^.^.^.^.^.^.^.^.^.^.^.^.^.^.^.^.^.^.^.^.^.+ ; D P U U U U U U U I P G 0 2 # X . ^.^.^.^.^.^.^.^.^.^.^.^.^.^.^.^.^.^.^.^.",
"^.^.^.^.^.^.^.^.^.^.^.^.^.^.^.^.^.^.^.# o 2 P U U P P P U U U U U U U U I L d ; o X ^.^.^.^.^.^.^.^.^.^.^.^.^.^.^.^.^.^.",
"^.^.^.^.^.^.^.^.^.^.^.^.^.^.^.^.^.^.X ; D U U U U U U U U U U U U U U U U U U U S ; o ^.^.^.^.^.^.^.^.^.^.^.^.^.^.^.^.^.",
"^.^.^.^.^.^.^.^.^.^.^.^.^.^.^.^.^.o 6 P U U P U U P U U U U U U U U U U U U U U U P 9 # X ^.^.^.^.^.^.^.^.^.^.^.^.^.^.^.",
"^.^.^.^.^.^.^.^.^.^.^.^.^.^.^.^.o 0 U P U U U U P P P U U U U U U U U U U U U U U U U F - o ^.^.^.^.^.^.^.^.^.^.^.^.^.^.",
"^.^.^.^.^.^.^.^.^.^.^.^.^.^.X O 0 U U U P P P P U P P U P U U P U U U U U U U U U U U ~ G > X ^.^.^.^.^.^.^.^.^.^.^.^.^.",
"^.^.^.^.^.^.^.^.^.^.^.^.^.^.o D U P P L P P L P L P P P P P P U I I U U U U U U U U U U U P 6 X ^.^.^.^.^.^.^.^.^.^.^.^.",
"^.^.^.^.^.^.^.^.^.^.^.^.^.o 0 I P L G P L P P L P P P P U P P P P P P P P U U U U U U U U U P 7 o ^.^.^.^.^.^.^.^.^.^.^.",
"^.^.^.^.^.^.^.^.^.^.^.^.X > D G G F G P L L L L L P L P P P P P P P P P P P P P P U U U U U U I 2 . ^.^.^.^.^.^.^.^.^.^.",
"^.^.^.^.^.^.^.^.^.^.^.X ; 7 D G F F F G L G G L P L P L L L L P P P P P P P U P P P P I I U U U P 6 o ^.^.^.^.^.^.^.^.^.",
"^.^.^.^.^.^.^.^.^.^.. - 7 0 D F G G G G G L L G P P P L P P L L P P P P P P P U U P I P P P U U U P - . ^.^.^.^.^.^.^.^.",
"^.^.^.^.^.^.^.^.^.^.X > 7 0 F F F F G G G G G G G L L P L L L P P P G P P P L P P P P P I I P I I U D # ^.^.^.^.^.^.^.^.",
"^.^.^.^.^.^.^.^.^.X - 0 0 0 D F D D F G G G G L G L L P P P L G P P G P P L G G P L P L L P P L P U U 9 . ^.^.^.^.^.^.^.",
"^.^.^.^.^.^.^.^.^.o > 7 7 0 0 D D S D D G F G G G L G G G G G L G P P P L P P P P P L P L P L L G P I P - ^.^.^.^.^.^.^.",
"^.^.^.^.^.^.^.^.X # 7 7 0 0 0 0 D D S D D G F F G F G G G G G G G G G P P L G P P P L L L L L P L P P I 7 . ^.^.^.^.^.^.",
"^.^.^.^.^.^.^.^.X ; 0 7 0 0 0 0 0 F D S D D D F F F G F G G G G G G G G F G G G G G G L L L L G D F F P G # ^.^.^.^.^.^.",
"^.^.^.^.^.^.^.X # 6 7 0 0 0 0 0 0 S D D S S D S D F F G F G F F G G G F F F F G F F D F F F D D S S S S G ; ^.^.^.^.^.^.",
"^.^.^.^.^.^.^.X ; 6 7 0 0 0 0 0 0 0 0 S D D S S S D D D D D F F F F F F F F F F F F D D D F G D S 0 0 0 d - ^.^.^.^.^.^.",
"^.^.^.^.^.^.^.o > 7 0 7 0 0 0 S d 0 0 0 0 S D D D D S D S S S S d D D D D D F F F F D F D D D S D D D 0 6 o ^.^.^.^.^.^.",
"^.^.^.^.^.^.^.o > 7 0 0 0 0 0 S 0 d c A 0 0 0 S D F D D S S S 0 0 d d D D D D D D D D D S d 0 0 0 0 0 7 > o ^.^.^.^.^.^.",
"^.^.^.^.^.^.. # 6 7 0 7 7 A 0 0 d d S 0 S 0 0 0 0 S D D S D D D 0 D D F D D 0 D D A c 0 0 0 9 0 0 0 7 > # . ^.^.^.^.^.^.",
"^.^.^.^.^.^.X - > 7 0 7 8 8 0 0 0 0 S d 0 S S 0 0 S 0 0 S D D S S 0 0 D 0 D D S 0 0 9 9 0 7 0 0 0 7 > # . ^.^.^.^.^.^.^.",
"^.^.^.^.^.^.o ; 6 6 0 0 9 0 0 0 0 0 0 0 S S 0 S 0 0 0 0 0 0 0 7 0 0 0 0 0 0 0 0 0 7 0 0 0 7 7 7 6 ; o X ^.^.^.^.^.^.^.^.",
"^.^.^.^.^.^.o ; 6 7 7 0 9 7 7 0 0 d 0 0 0 S S 0 S 0 0 0 0 0 0 0 0 0 0 0 0 0 7 0 0 0 7 7 7 6 5 ; # o X ^.^.^.^.^.^.^.^.^.",
"^.^.^.^.^.^.o - 6 6 7 0 0 7 7 0 0 0 0 0 0 d a A d 9 0 0 0 0 S 0 0 0 0 0 0 0 0 0 7 7 7 6 > ; # o & e + ^.^.^.^.^.^.^.^.^.",
"^.^.^.^.^.^.o > > 6 7 7 0 0 0 7 0 0 0 0 7 9 9 0 0 c A 0 0 0 0 0 0 0 0 0 0 0 7 7 7 7 > - o # # X e f O ^.^.^.^.^.^.^.^.^.",
"^.^.^.^.^.^.# > > 7 7 7 7 0 0 7 7 0 0 0 0 7 7 0 9 0 0 0 0 S 0 0 0 7 0 0 0 0 7 0 6 - # > K +.W a O + + ^.^.^.^.^.^.^.^.^.",
"^.^.^.^.^.^.o > > 6 7 7 7 7 0 7 7 7 7 0 0 7 7 0 7 0 0 0 0 0 0 0 0 0 0 7 7 7 6 > # # b s.D.L.H.f.3   ^.^.^.^.^.^.^.^.^.^.",
"^.^.^.^.^.^.# > > > 6 7 7 7 0 0 0 7 7 0 0 7 7 7 0 0 0 9 0 0 7 0 0 0 9 0 7 6 6 # & m | j.A.K.K.J.v   ^.^.^.^.^.^.^.^.^.^.",
"^.^.^.^.^.^.o > ; > > 6 7 7 7 0 0 0 0 7 7 0 0 7 6 7 7 7 0 7 0 7 7 7 7 9 6 6 # # h _ { ( | A.L.A.J   ^.^.^.^.^.^.^.^.^.^.",
"^.^.^.^.^.^.o ; ; > > 6 7 7 7 0 7 7 7 0 0 7 0 7 0 7 7 7 0 7 7 7 7 0 7 7 6 - # B a.Z.j.h...O.A.J.Y . ^.^.^.^.^.^.^.^.^.^.",
"^.^.^.^.^.^.o ; > ; > > > 7 7 7 0 0 7 7 7 0 7 0 7 7 7 0 7 7 7 7 7 7 6 7 > o K s.W K K T i.y.y.j.Y   ^.^.^.^.^.^.^.^.^.^.",
"^.^.^.^.^.^.o - , ; > > > 7 7 > 7 7 9 7 0 7 7 7 7 7 0 0 7 7 7 6 6 7 6 6 - : d.z P / x.~ 5 x i.y.N + ^.^.^.^.^.^.^.^.^.^.",
"^.^.^.^.^.^.X = > > > 6 > > 6 6 6 6 6 6 6 6 7 7 7 7 7 7 7 7 7 7 6 6 6 6 # T C.z B.E.~.N.A , < u.n . ^.^.^.^.^.^.^.^.^.^.",
"^.^.^.^.^.^.^.o > - ; > 6 > > 6 6 6 6 6 6 6 7 7 7 > > 7 7 7 6 6 6 6 6 > # d.V.H B.W.~.k.C # 6 9 < . ^.^.^.^.^.^.^.^.^.^.",
"^.^.^.^.^.^.^.o - - > > > 6 6 > 6 6 6 6 7 6 6 6 6 6 7 6 6 2 6 6 6 6 > - : V.D.z M.W.~.l.Z = ^ P . ^.^.^.^.^.^.^.^.^.^.^.",
"^.^.^.^.^.^.^.. - > ; ; ; 6 6 > 6 6 1 > > > 6 6 2 6 7 6 6 6 6 6 6 > > # 2 G.K.K l.W.~.R.! Q c.0 . ^.^.^.^.^.^.^.^.^.^.^.",
"^.^.^.^.^.^.^.^.X > > ; > ; > 5 6 6 6 6 > 6 > > > > > > > > > > > > ; - - u.U.u.c M.Q.Q.E.R.~ x 2 ^.^.^.^.^.^.^.^.^.^.^.",
"^.^.^.^.^.^.^.^.X o > ; ; > ; > 1 6 6 6 6 7 7 6 6 6 > > > > 6 6 6 > ; - X - u.K.E 0 i.N.v.U a u.a ^.^.^.^.^.^.^.^.^.^.^.",
"^.^.^.^.^.^.^.^.^.. = > ; > > ; > > > > > > > > > > > > 6 6 6 6 > > ; - % M 2 u.D.i.D 9 9 c K c O ^.^.^.^.^.^.^.^.^.^.^.",
"^.^.^.^.^.^.^.^.^.^.o # ; > ; ; ; > > ; > ; > > > > 6 6 6 6 > > > > ; , $ =.%.4 H u.s.W v 4 l M @ ^.^.^.^.^.^.^.^.^.^.^.",
"^.^.^.^.^.^.^.^.^.^.^.. o ; > > ; ; ; > > , > 5 > > > > 6 > > 6 > ; ; ; o #.w.5.V w * i j *.0.$.@ ^.^.^.^.^.^.^.^.^.^.^.",
"^.^.^.^.^.^.^.^.^.^.^.^.  X # - > , > ; > > > > > > > > > > 6 > ; > ; ; o k 8.r.0.,.>.6.e.=.&.f o ^.^.^.^.^.^.^.^.^.^.^.",
"^.^.^.^.^.^.^.^.^.^.^.^.^.  X o # - - ; ; ; ; ; > ; > ; > > - , > ; > > o f 2.3.>.7.0.<.q.6.' + X ^.^.^.^.^.^.^.^.^.^.^.",
"^.^.^.^.^.^.^.^.^.^.^.^.^.^.^.  . o o # - - ; ; ; ; > - > ; > ; ; ; ; ; o t $.g.8.7.1.1.8.4.g o ^.^.^.^.^.^.^.^.^.^.^.^.",
"^.^.^.^.^.^.^.^.^.^.^.^.^.^.^.^.^.^.. . X o o o o o o - # - - - , ; > - X @ r } 2.$.-.;. .] t X ^.^.^.^.^.^.^.^.^.^.^.^.",
"^.^.^.^.^.^.^.^.^.^.^.^.^.^.^.^.^.^.^.^.^.  X - 6 > - - o . X o o o o o . . . + h [ ` ` ` _ w X ^.^.^.^.^.^.^.^.^.^.^.^.",
"^.^.^.^.^.^.^.^.^.^.^.^.^.^.^.^.^.^.^.^.^.X > 7 F G G 7 o 6 # - 7 6 > > > > X . q _ _ _ _ h @ X ^.^.^.^.^.^.^.^.^.^.^.^.",
"^.^.^.^.^.^.^.^.^.^.^.^.^.^.^.^.^.^.^.^.^.# 7 D L I L - 6 U 6 > P L F S D 0 # X + g _ ( _ r X ^.^.^.^.^.^.^.^.^.^.^.^.^.",
"^.^.^.^.^.^.^.^.^.^.^.^.^.^.^.^.^.^.^.^.o ; 0 D G P 6 # D U 9 > I I G D S 0 ; o o $ ) ` ) + X ^.^.^.^.^.^.^.^.^.^.^.^.^.",
"^.^.^.^.^.^.^.^.^.^.^.^.^.^.^.^.^.^.^.^.o 6 d D G F # > D P 9 ; P G D D S 0 6 # X + y _ y + ^.^.^.^.^.^.^.^.^.^.^.^.^.^.",
"^.^.^.^.^.^.^.^.^.^.^.^.^.^.^.^.^.^.^.X # 7 d S G 6 # 7 F G > ; D D F D S 0 7 # . o O w & . ^.^.^.^.^.^.^.^.^.^.^.^.^.^.",
"^.^.^.^.^.^.^.^.^.^.^.^.^.^.^.^.^.^.^.o - 0 0 S S # ; 0 D D ; ; F F D S S 0 0 - X ^.X X o ^.^.^.^.^.^.^.^.^.^.^.^.^.^.^.",
"^.^.^.^.^.^.^.^.^.^.^.^.^.^.^.^.^.^.^.o ; S 0 D 6 o 6 9 S 0 - > F D S S S 0 0 6 X ^.^.o ^.^.^.^.^.^.^.^.^.^.^.^.^.^.^.^.",
"^.^.^.^.^.^.^.^.^.^.^.^.^.^.^.^.^.^.^.o > 7 0 7 - - o # ; 6 # 6 S S S d d 7 0 > o ^.^.^.^.^.^.^.^.^.^.^.^.^.^.^.^.^.^.^.",
"^.^.^.^.^.^.^.^.^.^.^.^.^.^.^.^.^.^.^.o > 0 0 ; K m.s.~ a - X 6 S S S S 0 0 0 6 o ^.^.^.^.^.^.^.^.^.^.^.^.^.^.^.^.^.^.^.",
"^.^.^.^.^.^.^.^.^.^.^.^.^.^.^.^.^.^.^.o > 0 6 < m.P.!.!.H.s.< 6 d S S d 0 0 7 6 o X ^.^.^.^.^.^.^.^.^.^.^.^.^.^.^.^.^.^.",
"^.^.^.^.^.^.^.^.^.^.^.^.^.^.^.^.^.^.. = 6 7 > 8 V.L.T.Y.U.F.v > z c d d S 7 7 6 o o ^.^.^.^.^.^.^.^.^.^.^.^.^.^.^.^.^.^.",
"^.^.^.^.^.^.^.^.^.^.^.^.^.^.^.^.^.^.o o > 7 7 : d.J.U.I.L.C.p 1 D A 0 0 0 7 7 > # o ^.^.^.^.^.^.^.^.^.^.^.^.^.^.^.^.^.^.",
"^.^.^.^.^.^.^.^.^.^.^.^.^.^.^.^.^.^.. # > 2 7 - s d.S.F.C.T = 7 d 0 0 0 7 7 6 6 o o ^.^.^.^.^.^.^.^.^.^.^.^.^.^.^.^.^.^.",
"^.^.^.^.^.^.^.^.^.^.^.^.^.^.^.^.^.^.. # ; 6 6 > # : v Y p O > 7 0 7 7 7 6 6 > > # . ^.^.^.^.^.^.^.^.^.^.^.^.^.^.^.^.^.^.",
"^.^.^.^.^.^.^.^.^.^.^.^.^.^.^.^.^.^.^.o o - ; > > - o # O < 1 5 > > > > > > > - o o ^.^.^.^.^.^.^.^.^.^.^.^.^.^.^.^.^.^.",
"^.^.^.^.^.^.^.^.^.^.^.^.^.^.^.^.^.^.^.^.o X X X o o o o o # o O o o o o o o o o o ^.^.^.^.^.^.^.^.^.^.^.^.^.^.^.^.^.^.^.",
"^.^.^.^.^.^.^.^.^.^.^.^.^.^.^.^.^.^.^.^.^.^.^.o : 2 : : : # . = o o o . ^.^.^.^.^.^.^.^.^.^.^.^.^.^.^.^.^.^.^.^.^.^.^.^.",
"^.^.^.^.^.^.^.^.^.^.^.^.^.^.^.^.^.^.^.^.^.^.^.X # 4 4 2 2 # o 9 : # # o ^.^.^.^.^.^.^.^.^.^.^.^.^.^.^.^.^.^.^.^.^.^.^.^.",
"^.^.^.^.^.^.^.^.^.^.^.^.^.^.^.^.^.^.^.^.^.^.^.X o : < : % o o % o o % X ^.^.^.^.^.^.^.^.^.^.^.^.^.^.^.^.^.^.^.^.^.^.^.^.",
"^.^.^.^.^.^.^.^.^.^.^.^.^.^.^.^.^.^.^.^.^.^.^.o o o o o o o o o o X X o ^.^.^.^.^.^.^.^.^.^.^.^.^.^.^.^.^.^.^.^.^.^.^.^.",
"^.^.^.^.^.^.^.^.^.^.^.^.^.^.^.^.^.^.^.^.^.^.^.^.o o ^.^.^.^.^.^.^.^.^.^.^.^.^.^.^.^.^.^.^.^.^.^.^.^.^.^.^.^.^.^.^.^.^.^.",
"^.^.^.^.^.^.^.^.^.^.^.^.^.^.^.^.^.^.^.^.^.^.^.^.^.^.^.^.^.^.^.^.^.^.^.^.^.^.^.^.^.^.^.^.^.^.^.^.^.^.^.^.^.^.^.^.^.^.^.^.",
"^.^.^.^.^.^.^.^.^.^.^.^.^.^.^.^.^.^.^.^.^.^.^.^.^.^.^.^.^.^.^.^.^.^.^.^.^.^.^.^.^.^.^.^.^.^.^.^.^.^.^.^.^.^.^.^.^.^.^.^.",
"^.^.^.^.^.^.^.^.^.^.^.^.^.^.^.^.^.^.^.^.^.^.^.^.^.^.^.^.^.^.^.^.^.^.^.^.^.^.^.^.^.^.^.^.^.^.^.^.^.^.^.^.^.^.^.^.^.^.^.^.",
"^.^.^.^.^.^.^.^.^.^.^.^.^.^.^.^.^.^.^.^.^.^.^.^.^.^.^.^.^.^.^.^.^.^.^.^.^.^.^.^.^.^.^.^.^.^.^.^.^.^.^.^.^.^.^.^.^.^.^.^."
};
