/* XPM */
static xpm_row_t const p1_right_1[] = {
/* columns rows colors chars-per-pixel */
"60 80 172 2 ",
"   c #161513",
".  c #1A1917",
"X  c #171818",
"o  c #1C1B1A",
"O  c #181715",
"+  c #211F1C",
"@  c #241D16",
"#  c #22211E",
"$  c #2B2218",
"%  c #2D2013",
"&  c #382918",
"*  c #3B351E",
"=  c #1D1E27",
"-  c #211B22",
";  c #252423",
":  c #292623",
">  c #2A2926",
",  c #2B2B2B",
"<  c #262528",
"1  c #322E26",
"2  c #322E2A",
"3  c #343126",
"4  c #32312C",
"5  c #3A332C",
"6  c #3A392F",
"7  c #28293F",
"8  c #262436",
"9  c #333333",
"0  c #3C3934",
"q  c #373838",
"w  c #3B3B3B",
"e  c #36363E",
"r  c #422E18",
"t  c #482F18",
"y  c #432C17",
"u  c #4D3318",
"i  c #433C1F",
"p  c #4A3717",
"a  c #573817",
"s  c #663D18",
"d  c #433222",
"f  c #423B32",
"g  c #473F36",
"h  c #684518",
"j  c #7A4919",
"k  c #715219",
"l  c #7B6A1D",
"z  c #524A27",
"x  c #5F5528",
"c  c #42413F",
"v  c #4D4439",
"b  c #52463B",
"n  c #544A3E",
"m  c #6A5D23",
"M  c #7E5129",
"N  c #716325",
"B  c #282C49",
"V  c #2D324E",
"C  c #403F40",
"Z  c #434343",
"A  c #484748",
"S  c #4C4B4C",
"D  c #5B4F42",
"F  c #504F4F",
"G  c #514A45",
"H  c #5D5144",
"J  c #504F50",
"K  c #535353",
"L  c #575858",
"P  c #5A5A5A",
"I  c #595756",
"U  c #635445",
"Y  c #6A5A4B",
"T  c #7E6A56",
"R  c #7D6C5A",
"E  c #766351",
"W  c #4E546F",
"Q  c #5F5F61",
"!  c #545976",
"~  c #5D627B",
"^  c #696868",
"/  c #63677C",
"(  c #7D7D7C",
")  c #874D18",
"_  c #8D5219",
"`  c #825718",
"'  c #935518",
"]  c #9C5C19",
"[  c #975919",
"{  c #926B19",
"}  c #95791C",
"|  c #AF6F19",
" . c #A26219",
".. c #B7741B",
"X. c #945A26",
"o. c #857533",
"O. c #A17C28",
"+. c #A26B38",
"@. c #99704A",
"#. c #86725D",
"$. c #A97749",
"%. c #B17E4E",
"&. c #AC7D52",
"*. c #997F63",
"=. c #BD8117",
"-. c #BD9D19",
";. c #B39828",
":. c #C38816",
">. c #CEA11F",
",. c #D7B11C",
"<. c #E3B716",
"1. c #E2B81C",
"2. c #C18A27",
"3. c #D0962E",
"4. c #C8AD2D",
"5. c #D8A82A",
"6. c #C5AC3E",
"7. c #CEB233",
"8. c #DCB437",
"9. c #E5BC29",
"0. c #E6BB21",
"q. c #ECC520",
"w. c #F3CC23",
"e. c #E6C339",
"r. c #F3CE35",
"t. c #F6D231",
"y. c #B58353",
"u. c #998167",
"i. c #96816A",
"p. c #9D856C",
"a. c #A58768",
"s. c #BF9164",
"d. c #A68D73",
"f. c #AD9277",
"g. c #B6987B",
"h. c #CB9E74",
"j. c #7A7C8A",
"k. c #858586",
"l. c #8C8C8B",
"z. c #989797",
"x. c #949393",
"c. c #BA9D80",
"v. c #A09F9F",
"b. c #ACADB6",
"n. c #BEBDBD",
"m. c #B1B0B1",
"M. c #C3A585",
"N. c #CDAD8C",
"B. c #D2AC88",
"V. c #D7B18B",
"C. c #CCB097",
"Z. c #D3B290",
"A. c #DDBA96",
"S. c #DEB996",
"D. c #E3BC94",
"F. c #E3BF9A",
"G. c #E8C49E",
"H. c #E7C39D",
"J. c #ECC7A1",
"K. c #EEC9A4",
"L. c #EFCCAC",
"P. c #F0CAA4",
"I. c #EFD0B5",
"U. c #F3D4BA",
"Y. c #C5C4C4",
"T. c #CFCFD0",
"R. c #D6D6D6",
"E. c #D8D7D7",
"W. c #DBDBDB",
"Q. c #EDD4C2",
"!. c #E3E3E2",
"~. c #00b140",
/* pixels */
"~.~.~.~.~.~.~.~.~.~.~.~.~.~.~.~.~.~.~.~.~.~.~.~.~.~.~.~.~.~.~.~.~.~.~.~.~.~.~.~.~.~.~.~.~.~.~.~.~.~.~.~.~.~.~.~.~.~.~.~.",
"~.~.~.~.~.~.~.~.~.~.~.~.~.~.~.~.~.~.~.~.~.~.~.~.~.~.~.~.~.~.~.~.~.~.~.~.~.~.~.~.~.~.~.~.~.~.~.~.~.~.~.~.~.~.~.~.~.~.~.~.",
"~.~.~.~.~.~.~.~.~.~.~.~.~.~.~.~.~.~.~.~.~.~.~.~.~.~.~.~.~.~.~.~.~.~.~.~.~.~.~.~.~.~.~.~.~.~.~.~.~.~.~.~.~.~.~.~.~.~.~.~.",
"~.~.~.~.~.~.~.~.~.~.~.~.~.~.~.~.~.~.~.~.~.~.~.~.~.~.~.~.~.~.~.~.~.~.~.~.~.~.~.~.~.~.~.~.~.~.~.~.~.~.~.~.~.~.~.~.~.~.~.~.",
"~.~.~.~.~.~.~.~.~.~.~.~.~.~.~.~.~.~.~.~.~.~.~.~.~.~.~.~.~.~.~.~.~.~.~.~.~.~.~.~.~.~.~.~.~.~.~.~.~.~.~.~.~.~.~.~.~.~.~.~.",
"~.~.~.~.~.~.~.~.~.~.~.~.~.~.~.~.~.~.~.~.~.~.~.~.. . ~.~.~.~.~.~.~.~.~.~.~.~.~.~.~.~.~.~.~.~.~.~.~.~.~.~.~.~.~.~.~.~.~.~.",
"~.~.~.~.~.~.~.~.~.~.~.~.~.~.~.~.~.~.~.~.~.~.~.o , q : o . . ~.~.~.~.~.~.~.~.~.~.~.~.~.~.~.~.~.~.~.~.~.~.~.~.~.~.~.~.~.~.",
"~.~.~.~.~.~.~.~.~.~.~.~.~.~.~.~.~.~.~.~.~.~.o ; A P K S w 4 , : ; + . . ~.~.~.~.~.~.~.~.~.~.~.~.~.~.~.~.~.~.~.~.~.~.~.~.",
"~.~.~.~.~.~.~.~.~.~.~.~.~.~.~.~.~.~.~.~.~.+ 4 A L L P P P P L L K S Z 9 > o . ~.~.~.~.~.~.~.~.~.~.~.~.~.~.~.~.~.~.~.~.~.",
"~.~.~.~.~.~.~.~.~.~.~.~.~.~.~.~.~.~.~.o # c P P L L K L L P P P L L P P K A 4 # o ~.~.~.~.~.~.~.~.~.~.~.~.~.~.~.~.~.~.~.",
"~.~.~.~.~.~.~.~.~.~.~.~.~.~.~.~.~.~.. 4 S P P P L L P P P P Q P P Q L L L P P F 9 o . ~.~.~.~.~.~.~.~.~.~.~.~.~.~.~.~.~.",
"~.~.~.~.~.~.~.~.~.~.~.~.~.~.~.~.. # w L P L L L L L P P P P P P P P P P P P P P L S > o ~.~.~.~.~.~.~.~.~.~.~.~.~.~.~.~.",
"~.~.~.~.~.~.~.~.~.~.~.~.~.~.~.. # S L L L L L L L K L P P P P P P P L P P P P Q P P I 9 . ~.~.~.~.~.~.~.~.~.~.~.~.~.~.~.",
"~.~.~.~.~.~.~.~.~.~.~.~.~.~.. ; S P P P L L L P L L L L L L L L P P P P P P P P P P P P w # . ~.~.~.~.~.~.~.~.~.~.~.~.~.",
"~.~.~.~.~.~.~.~.~.~.~.~.~.o > S P L K K F F K K F L F F K K K L I P P P L L P P Q P P Q P Z ; . ~.~.~.~.~.~.~.~.~.~.~.~.",
"~.~.~.~.~.~.~.~.~.~.~.~.. ; S L K F F F F F F K F F F L L K K K K I K K P P P P P P P P P P S # . ~.~.~.~.~.~.~.~.~.~.~.",
"~.~.~.~.~.~.~.~.~.~.~.. o q S S S S K S F K J K K F J F K K K K K K K K K K K K L L P P P P P A ; . ~.~.~.~.~.~.~.~.~.~.",
"~.~.~.~.~.~.~.~.~.~.~.o , w A S A A S S S S F J J K K K K K K K K K K K K P K K K K L L P P P P A + . ~.~.~.~.~.~.~.~.~.",
"~.~.~.~.~.~.~.~.~.~.o < q c A S S S S S F S S J J K J K F J K F K K K K K K L P L K K K K L P P P w o ~.~.~.~.~.~.~.~.~.",
"~.~.~.~.~.~.~.~.~.. # 9 9 Z A A A A S S S S S F J J K J K F J K K J K K J K S K K K K L P K K L P P 9 . ~.~.~.~.~.~.~.~.",
"~.~.~.~.~.~.~.~.~.o , 9 w C A Z Z A A S S S S S S J J K J J S F F J J K F S K K K F K F K J K K I L K : ~.~.~.~.~.~.~.~.",
"~.~.~.~.~.~.~.~.X # 9 q w w C A c c A A A S S S J S S S S S J F F K J J K J K S F K K J J K F S S I P w . ~.~.~.~.~.~.~.",
"~.~.~.~.~.~.~.~.o < 9 q q w w Z Z w v A A S S S S S J S S S A S S F K F K K F K F F F J F J K J J F I K : ~.~.~.~.~.~.~.",
"~.~.~.~.~.~.~.~.o 4 w q q w w w c A V C Z Z A A A A A A S S S S A S S S A S A S S S F K F S S Z A A Z K q O ~.~.~.~.~.~.",
"~.~.~.~.~.~.~.. ; 9 w w q w c w w Z A c C Z Z Z A A A A A A S S S S A A Z A A A A A Z A A Z A c w C w A Z . ~.~.~.~.~.~.",
"~.~.~.~.~.~.~.o , q q w w w c w w w c Z Z C C C C Z Z Z Z A A A A A A A A A A S A Z Z c A A A Z C w w w 4 o ~.~.~.~.~.~.",
"~.~.~.~.~.~.. ; 2 q q w c w w v Z w w w w Z A Z Z Z Z Z w C Z C Z Z Z Z Z A A A A A A A Z Z V v Z Z w q ; . ~.~.~.~.~.~.",
"~.~.~.~.~.~.. ; 9 9 q q w w w V w w w w w w C Z A Z Z Z Z w w w w C Z Z C Z Z Z Z Z Z c w w c 0 w w q 9 ; . ~.~.~.~.~.~.",
"~.~.~.~.~.~.. ; , q w q q w w g C Z C w C w w w C Z Z Z Z Z Z Z w C Z Z Z Z C Z C g V w w q q w w q 9 ; . ~.~.~.~.~.~.~.",
"~.~.~.~.~.~.. , 2 q q q q w w g w w C w C C C w w w w Z Z Z c C Z C C Z C C Z w w w g w q q w w q 9 ; O ~.~.~.~.~.~.~.~.",
"~.~.~.~.~.~.o , 9 9 q q q q w V w w w Z w w C C w w w w q w q w w w C w w w w q q q w w q q 9 , , + O ~.~.~.~.~.~.~.~.~.",
"~.~.~.~.~.. # , 9 9 q q q q q f w w w w C C w w w w w w w w w w w q w q w w w w q q q 9 9 , , ; o @ . ~.~.~.~.~.~.~.~.~.",
"~.~.~.~.~.. o , 9 2 q w q q q w w w w q w w c c c w w w w C C w C w w C w w w q q 9 4 , , ; o $ a a o ~.~.~.~.~.~.~.~.~.",
"~.~.~.~.~.. ; , 9 9 9 q w q q q w w w q q w w w C w C C w q w w w q w w w q 9 q q , ; # o : o % s r . ~.~.~.~.~.~.~.~.~.",
"~.~.~.~.~.. ; , , 9 9 9 q q q q w w w w q q q q q w w w w Z w w q q w q q 9 q 9 , # # 0 R p.R 6 o . ~.~.~.~.~.~.~.~.~.~.",
"~.~.~.~.~.o ; , , , 4 q 9 w q q 9 q w q q 9 0 q q q q q w w w w w q w q q 9 4 > # > T M.F.J.A.i.o ~.~.~.~.~.~.~.~.~.~.~.",
"~.~.~.~.~.o ; , , 9 9 9 q q q q w q q q q 9 9 q q q w q q q q w w w q q 9 9 < o t M $.h.D.J.K.M.: ~.~.~.~.~.~.~.~.~.~.~.",
"~.~.~.~.~.. ; , < , , 9 9 q 9 w q q q 9 q q q 9 9 q q q q q q q 9 9 q q 4 , o * _ X.X.) $.G.G.M.1 ~.~.~.~.~.~.~.~.~.~.~.",
"~.~.~.~.~.. # , < , , 9 9 9 9 q w 0 w q q 9 q 9 q 9 9 q q 9 9 9 q q 9 9 , # 1 @.h.V.B.s.+.y.F.N.5 ~.~.~.~.~.~.~.~.~.~.~.",
"~.~.~.~.~.. o < , < , , 9 , q q q 9 9 q q q q q q q 9 9 9 9 9 e 9 4 9 9 ; # #.u.H v v Y *.&.y.h.5 ~.~.~.~.~.~.~.~.~.~.~.",
"~.~.~.~.~.~.o , < , , , 9 9 9 9 9 q q q q 9 9 9 e 9 q q q q 9 9 9 9 9 , # b d.9 ^ l.x.Q > n a.&.d ~.~.~.~.~.~.~.~.~.~.~.",
"~.~.~.~.~.~.. ; , > , , , , , 9 2 9 9 9 9 9 9 9 9 9 9 9 9 9 9 9 , 9 9 , o p.p.L Y.E.!.j.V = f *.3 ~.~.~.~.~.~.~.~.~.~.~.",
"~.~.~.~.~.~.. ; > > , 4 , , , 9 9 9 9 , 9 9 9 9 9 , , 9 4 9 9 , , 9 , ; 1 Z.p.P Y.E.R.W 7 - e 5 # ~.~.~.~.~.~.~.~.~.~.~.",
"~.~.~.~.~.~.~.o < > < , 9 , , , , , , 9 , , 9 , 9 , 9 9 9 , , 9 9 , , ; v G.f.S n.E.W.! B 8 j.q . ~.~.~.~.~.~.~.~.~.~.~.",
"~.~.~.~.~.~.~.. ; , < < , 9 , , 9 , 9 , , , 9 9 9 9 , 9 , 9 9 9 , , , o D K.Z.g v.W.!.b.! / k.: o ~.~.~.~.~.~.~.~.~.~.~.",
"~.~.~.~.~.~.~.. # , < , ; < 9 9 9 9 , , 9 , , , , , , , , , < , , , < o 5 c.P.R S n.W.W.T.m.Z U : ~.~.~.~.~.~.~.~.~.~.~.",
"~.~.~.~.~.~.~.~.o ; , < < , , , , , 9 9 , 9 9 , 9 , , 9 , 9 4 4 , < , # o 5 g.A.H A k.z.( c U p.: ~.~.~.~.~.~.~.~.~.~.~.",
"~.~.~.~.~.~.~.~.~.o > , < < < , , , , , , 9 , , , , , , , , 4 9 , , < ; * x 6 f.Z.#.v f f b b 3 @ ~.~.~.~.~.~.~.~.~.~.~.",
"~.~.~.~.~.~.~.~.~.. o ; , , < , > , < , < , , < , , 9 , 9 9 , , , > < ; * 7.o.1 D u.i.Y f 3 m N o ~.~.~.~.~.~.~.~.~.~.~.",
"~.~.~.~.~.~.~.~.~.~.O . # < , < > > > , , < , > , , , , , , , , , > > ; $ -.t.6.N i 6 z l 4.w.{ o ~.~.~.~.~.~.~.~.~.~.~.",
"~.~.~.~.~.~.~.~.~.~.~.  . o ; < > < > < < , , , , , , , , , , < < > < < . { 9.r.1.,.,.r.9.;.} p . ~.~.~.~.~.~.~.~.~.~.~.",
"~.~.~.~.~.~.~.~.~.~.~.~.~.X . # ; > < < , ; , , , , , , , < , , , < , < o ` 5.5.5.q.9.1.w.8.k . . ~.~.~.~.~.~.~.~.~.~.~.",
"~.~.~.~.~.~.~.~.~.~.~.~.~.~.~.X o o # ; ; < < < , < , ; , ; , ; > > > < o h 2.e.9.1.<.<.8.3.s . ~.~.~.~.~.~.~.~.~.~.~.~.",
"~.~.~.~.~.~.~.~.~.~.~.~.~.~.~.~.~.  X . o o + + o = # ; ; ; ; > < < < ; . $ a O.;.=.:.=... .y . ~.~.~.~.~.~.~.~.~.~.~.~.",
"~.~.~.~.~.~.~.~.~.~.~.~.~.~.~.~.~.~.~.~.~.  o ; > ; ; # o o o o o o o o O . . @ ) | ] ] [ _ & X ~.~.~.~.~.~.~.~.~.~.~.~.",
"~.~.~.~.~.~.~.~.~.~.~.~.~.~.~.~.~.~.~.~.~.. < q A A A c ; ; , o > 9 , > 2 > o . u ' _ ' [ h + ~.~.~.~.~.~.~.~.~.~.~.~.~.",
"~.~.~.~.~.~.~.~.~.~.~.~.~.~.~.~.~.~.~.~.o # q c K K L K ; w K > , S A C C q # o $ j ' ' _ r . ~.~.~.~.~.~.~.~.~.~.~.~.~.",
"~.~.~.~.~.~.~.~.~.~.~.~.~.~.~.~.~.~.~.~.o , w A S K K K ; w P A # C S C C w > X . $ ) ] j $ ~.~.~.~.~.~.~.~.~.~.~.~.~.~.",
"~.~.~.~.~.~.~.~.~.~.~.~.~.~.~.~.~.~.~.~.o 9 w Z S K K S # 9 S K , ; Z Z C w 4 o . @ s _ u . ~.~.~.~.~.~.~.~.~.~.~.~.~.~.",
"~.~.~.~.~.~.~.~.~.~.~.~.~.~.~.~.~.~.~.o # q w Z S F K A # 4 Z S 9 o w C C w 9 # . . + u $ . ~.~.~.~.~.~.~.~.~.~.~.~.~.~.",
"~.~.~.~.~.~.~.~.~.~.~.~.~.~.~.~.~.~.~.o > w q Z A S F A # , Z A w ; > w C w q ; . ~.. . . ~.~.~.~.~.~.~.~.~.~.~.~.~.~.~.",
"~.~.~.~.~.~.~.~.~.~.~.~.~.~.~.~.~.~.~.o , w w c Z Z A Z # > w w w > o w C q w , o ~.~.. ~.~.~.~.~.~.~.~.~.~.~.~.~.~.~.~.",
"~.~.~.~.~.~.~.~.~.~.~.~.~.~.~.~.~.~.~.o , q w Z C Z Z Z ; ; > ; # o o , w q q 9 o ~.~.~.~.~.~.~.~.~.~.~.~.~.~.~.~.~.~.~.",
"~.~.~.~.~.~.~.~.~.~.~.~.~.~.~.~.~.~.~.# , q w c C C Z Z < o , S R d.#.: 9 w q , o ~.~.~.~.~.~.~.~.~.~.~.~.~.~.~.~.~.~.~.",
"~.~.~.~.~.~.~.~.~.~.~.~.~.~.~.~.~.~.. o , e w C C c Z w ; E C.Q.U.P.A.U ; q q , o ~.~.~.~.~.~.~.~.~.~.~.~.~.~.~.~.~.~.~.",
"~.~.~.~.~.~.~.~.~.~.~.~.~.~.~.~.~.~.. # 4 q w w C C w w ; f.K.U.I.P.F.T + q 9 , + . ~.~.~.~.~.~.~.~.~.~.~.~.~.~.~.~.~.~.",
"~.~.~.~.~.~.~.~.~.~.~.~.~.~.~.~.~.~.. ; , 9 q w w w Z w : u.H.K.L.G.V.n ; q 9 , = . ~.~.~.~.~.~.~.~.~.~.~.~.~.~.~.~.~.~.",
"~.~.~.~.~.~.~.~.~.~.~.~.~.~.~.~.~.~.. o , 4 q q w w w w : v g.A.S.N.T # 2 9 9 < + . ~.~.~.~.~.~.~.~.~.~.~.~.~.~.~.~.~.~.",
"~.~.~.~.~.~.~.~.~.~.~.~.~.~.~.~.~.~.. # < 4 9 9 q w 9 q 4 # 9 U Y c # > 4 9 4 > o o ~.~.~.~.~.~.~.~.~.~.~.~.~.~.~.~.~.~.",
"~.~.~.~.~.~.~.~.~.~.~.~.~.~.~.~.~.~.~.o # ; < > , , , , , , : o o ; ; > , > < ; o ~.~.~.~.~.~.~.~.~.~.~.~.~.~.~.~.~.~.~.",
"~.~.~.~.~.~.~.~.~.~.~.~.~.~.~.~.~.~.~.. . o # + . o o # o o o o o o o o o o o o o ~.~.~.~.~.~.~.~.~.~.~.~.~.~.~.~.~.~.~.",
"~.~.~.~.~.~.~.~.~.~.~.~.~.~.~.~.~.~.~.~.o ; , 3 3 > > o o . o o # # # ; o o 3 # . ~.~.~.~.~.~.~.~.~.~.~.~.~.~.~.~.~.~.~.",
"~.~.~.~.~.~.~.~.~.~.~.~.~.~.~.~.~.~.~.~.o # 3 4 4 3 # # # . . o # $ ; # o o # + o ~.~.~.~.~.~.~.~.~.~.~.~.~.~.~.~.~.~.~.",
"~.~.~.~.~.~.~.~.~.~.~.~.~.~.~.~.~.~.~.~.o # # # # # o 3 6 o . o o o + o . o o o ~.~.~.~.~.~.~.~.~.~.~.~.~.~.~.~.~.~.~.~.",
"~.~.~.~.~.~.~.~.~.~.~.~.~.~.~.~.~.~.~.~.o o . o o o o o # o . o o . . ~.~.~.~.~.~.~.~.~.~.~.~.~.~.~.~.~.~.~.~.~.~.~.~.~.",
"~.~.~.~.~.~.~.~.~.~.~.~.~.~.~.~.~.~.~.~.~.~.~.~.~.~.~.~.. . ~.~.~.~.~.~.~.~.~.~.~.~.~.~.~.~.~.~.~.~.~.~.~.~.~.~.~.~.~.~.",
"~.~.~.~.~.~.~.~.~.~.~.~.~.~.~.~.~.~.~.~.~.~.~.~.~.~.~.~.~.~.~.~.~.~.~.~.~.~.~.~.~.~.~.~.~.~.~.~.~.~.~.~.~.~.~.~.~.~.~.~.",
"~.~.~.~.~.~.~.~.~.~.~.~.~.~.~.~.~.~.~.~.~.~.~.~.~.~.~.~.~.~.~.~.~.~.~.~.~.~.~.~.~.~.~.~.~.~.~.~.~.~.~.~.~.~.~.~.~.~.~.~.",
"~.~.~.~.~.~.~.~.~.~.~.~.~.~.~.~.~.~.~.~.~.~.~.~.~.~.~.~.~.~.~.~.~.~.~.~.~.~.~.~.~.~.~.~.~.~.~.~.~.~.~.~.~.~.~.~.~.~.~.~.",
"~.~.~.~.~.~.~.~.~.~.~.~.~.~.~.~.~.~.~.~.~.~.~.~.~.~.~.~.~.~.~.~.~.~.~.~.~.~.~.~.~.~.~.~.~.~.~.~.~.~.~.~.~.~.~.~.~.~.~.~."
};
