/* XPM */
static xpm_row_t const p1_right_2[] = {
/* columns rows colors chars-per-pixel */
"60 80 169 2 ",
"   c #10100F",
".  c #161514",
"X  c #181716",
"o  c #1A1917",
"O  c #1C1C1A",
"+  c #221C17",
"@  c #211F1C",
"#  c #22211E",
"$  c #2B2319",
"%  c #2C281A",
"&  c #3C2917",
"*  c #382718",
"=  c #3A2A18",
"-  c #1E1E20",
";  c #211920",
":  c #242423",
">  c #292622",
",  c #2A2924",
"<  c #2B2B2B",
"1  c #322D26",
"2  c #312F2C",
"3  c #333229",
"4  c #3C352D",
"5  c #3B3523",
"6  c #232539",
"7  c #343434",
"8  c #3C3732",
"9  c #393836",
"0  c #3B3B3B",
"q  c #33323D",
"w  c #432E17",
"e  c #443218",
"r  c #4F3418",
"t  c #533418",
"y  c #513E16",
"u  c #623D19",
"i  c #413B24",
"p  c #443C33",
"a  c #5D511A",
"s  c #694718",
"d  c #77461A",
"f  c #7A4A19",
"g  c #4C433A",
"h  c #43413F",
"j  c #554A3E",
"k  c #54493D",
"l  c #61562C",
"z  c #725336",
"x  c #6E6128",
"c  c #716323",
"v  c #2C314F",
"b  c #373942",
"n  c #343A5B",
"m  c #403F40",
"M  c #434343",
"N  c #484748",
"B  c #4C4B4C",
"V  c #484847",
"C  c #5C4F42",
"Z  c #5E5144",
"A  c #504F50",
"S  c #535353",
"D  c #5A5A5A",
"F  c #585856",
"G  c #625344",
"H  c #645649",
"J  c #6A5A4A",
"K  c #66594A",
"L  c #70614F",
"P  c #6C625A",
"I  c #746452",
"U  c #796753",
"Y  c #7A6956",
"T  c #7C6B59",
"R  c #6D6D6C",
"E  c #636362",
"W  c #626474",
"Q  c #787777",
"!  c #844C18",
"~  c #8D5219",
"^  c #925418",
"/  c #9C5C19",
"(  c #975919",
")  c #866C16",
"_  c #90671D",
"`  c #A86818",
"'  c #A2661B",
"]  c #B26F1A",
"[  c #BA7C18",
"{  c #814F22",
"}  c #8F5826",
"|  c #945A26",
" . c #8E7823",
".. c #937E27",
"X. c #8F7E34",
"o. c #A97523",
"O. c #A56D3B",
"+. c #A16A37",
"@. c #856D55",
"#. c #AD7A4B",
"$. c #967E67",
"%. c #A07F60",
"&. c #B38318",
"*. c #AE9522",
"=. c #B69B2B",
"-. c #CB9D1F",
";. c #DAAA1B",
":. c #DDB11D",
">. c #E2B718",
",. c #CA9025",
"<. c #D0952E",
"1. c #C6A929",
"2. c #D6A125",
"3. c #D7B436",
"4. c #E4BB36",
"5. c #F4CE1F",
"6. c #ECC526",
"7. c #EBC42B",
"8. c #F3CC24",
"9. c #ECC737",
"0. c #F0CF3D",
"q. c #B98A5C",
"w. c #9C8169",
"e. c #A1866D",
"r. c #B88C61",
"t. c #A68E73",
"y. c #AA9075",
"u. c #B6997B",
"i. c #C6996C",
"p. c #C69B72",
"a. c #C8A37E",
"s. c #676B81",
"d. c #858484",
"f. c #818495",
"g. c #939395",
"h. c #9D9C9D",
"j. c #BEA182",
"k. c #B9A088",
"l. c #BEA690",
"z. c #9C9DA9",
"x. c #ABAAAA",
"c. c #A4A4A4",
"v. c #A5A6B0",
"b. c #BBBABA",
"n. c #C5A585",
"m. c #CCAA8A",
"M. c #C9A886",
"N. c #D2AF8E",
"B. c #D0B28F",
"V. c #D5B391",
"C. c #DCBA97",
"Z. c #E2BE99",
"A. c #E6C19C",
"S. c #E9C59F",
"D. c #E9C4A0",
"F. c #EDC9A4",
"G. c #EFCCAB",
"H. c #F3CCA6",
"J. c #F0CFB1",
"K. c #EFD0B5",
"L. c #F5D7BF",
"P. c #CDCDCD",
"I. c #D0CFD0",
"U. c #D5D4D5",
"Y. c #DADAD9",
"T. c #F2D8C4",
"R. c #E0DFDF",
"E. c #E3E2E2",
"W. c #00b140",
/* pixels */
"W.W.W.W.W.W.W.W.W.W.W.W.W.W.W.W.W.W.W.W.W.W.W.W.W.W.W.W.W.W.W.W.W.W.W.W.W.W.W.W.W.W.W.W.W.W.W.W.W.W.W.W.W.W.W.W.W.W.W.W.",
"W.W.W.W.W.W.W.W.W.W.W.W.W.W.W.W.W.W.W.W.W.W.W.W.W.W.W.W.W.W.W.W.W.W.W.W.W.W.W.W.W.W.W.W.W.W.W.W.W.W.W.W.W.W.W.W.W.W.W.W.",
"W.W.W.W.W.W.W.W.W.W.W.W.W.W.W.W.W.W.W.W.W.W.W.W.W.W.W.W.W.W.W.W.W.W.W.W.W.W.W.W.W.W.W.W.W.W.W.W.W.W.W.W.W.W.W.W.W.W.W.W.",
"W.W.W.W.W.W.W.W.W.W.W.W.W.W.W.W.W.W.W.W.W.W.W.W.W.W.W.W.W.W.W.W.W.W.W.W.W.W.W.W.W.W.W.W.W.W.W.W.W.W.W.W.W.W.W.W.W.W.W.W.",
"W.W.W.W.W.W.W.W.W.W.W.W.W.W.W.W.W.W.W.W.W.W.W.W.W.W.W.W.W.W.W.W.W.W.W.W.W.W.W.W.W.W.W.W.W.W.W.W.W.W.W.W.W.W.W.W.W.W.W.W.",
"W.W.W.W.W.W.W.W.W.W.W.W.W.W.W.W.W.W.W.W.W.W.W.W.W.W.W.W.W.W.W.W.W.W.W.W.W.W.W.W.W.W.W.W.W.W.W.W.W.W.W.W.W.W.W.W.W.W.W.W.",
"W.W.W.W.W.W.W.W.W.W.W.W.W.W.W.W.W.W.W.W.W.W.W.W.W.@ : O o W.W.W.W.W.W.W.W.W.W.W.W.W.W.W.W.W.W.W.W.W.W.W.W.W.W.W.W.W.W.W.",
"W.W.W.W.W.W.W.W.W.W.W.W.W.W.W.W.W.W.W.W.W.W.W.O @ 9 S M 7 : @ o o o o W.W.W.W.W.W.W.W.W.W.W.W.W.W.W.W.W.W.W.W.W.W.W.W.W.",
"W.W.W.W.W.W.W.W.W.W.W.W.W.W.W.W.W.W.W.W.W.W.O # 7 B D D D D B M 0 9 2 : @ o W.W.W.W.W.W.W.W.W.W.W.W.W.W.W.W.W.W.W.W.W.W.",
"W.W.W.W.W.W.W.W.W.W.W.W.W.W.W.W.W.W.W.W.W.O < A D D D S D D D D D D D S V q , o o W.W.W.W.W.W.W.W.W.W.W.W.W.W.W.W.W.W.W.",
"W.W.W.W.W.W.W.W.W.W.W.W.W.W.W.W.W.W.W.O > 0 F D D D S F F F D D D D D D F F F V < O o W.W.W.W.W.W.W.W.W.W.W.W.W.W.W.W.W.",
"W.W.W.W.W.W.W.W.W.W.W.W.W.W.W.W.W.W.O 3 A D D F F D D D D D D D D D D D D D D D F M : o W.W.W.W.W.W.W.W.W.W.W.W.W.W.W.W.",
"W.W.W.W.W.W.W.W.W.W.W.W.W.W.W.W.O - 0 S D S S S S S F D D D D D D D D D D D D D D D F 7 O W.W.W.W.W.W.W.W.W.W.W.W.W.W.W.",
"W.W.W.W.W.W.W.W.W.W.W.W.W.W.W.o - b D D D D D D D F D S D D D D D D D D D D D D D D D D m - o W.W.W.W.W.W.W.W.W.W.W.W.W.",
"W.W.W.W.W.W.W.W.W.W.W.W.W.W.o : V D S S S S S S S S S S S S D D D D D D D D D D D D D D D M : o W.W.W.W.W.W.W.W.W.W.W.W.",
"W.W.W.W.W.W.W.W.W.W.W.W.W.X : V D S S A S S A S S S S S S S S S F S S D D F D D D P D D D D V : o W.W.W.W.W.W.W.W.W.W.W.",
"W.W.W.W.W.W.W.W.W.W.W.W.W.@ 7 A A B B S A A A S S A S A S S S S S S S S S S F D D D D D D D D B , X W.W.W.W.W.W.W.W.W.W.",
"W.W.W.W.W.W.W.W.W.W.W.W.o < m N B M N B A B B A A S A S S S S S F S S S S S S S F S D D D D D D B : o W.W.W.W.W.W.W.W.W.",
"W.W.W.W.W.W.W.W.W.W.W.O , 9 m N B B B B B A B A A S A S A S S S S S S S S D S D S S S S D S D D D V @ W.W.W.W.W.W.W.W.W.",
"W.W.W.W.W.W.W.W.W.W.o # 7 7 M N N N B B B B B B A A A A S B S B S A S A S S S S S D S S D S F D D D 0 O W.W.W.W.W.W.W.W.",
"W.W.W.W.W.W.W.W.W.W.O 3 7 0 M V M V N V B B B B B A A S S A A A A S S A A B B A A A S S S F S F F D F < o W.W.W.W.W.W.W.",
"W.W.W.W.W.W.W.W.W.O : 7 7 0 0 M V m M V B V B B B B B A A A A B B A S A S A S S A S S A S A S B A S D B ; W.W.W.W.W.W.W.",
"W.W.W.W.W.W.W.W.W.O < 7 7 0 0 0 M M m M N V B V B B B B B V B B B A A A S S A S S A A A S S S A A A F D 7 o W.W.W.W.W.W.",
"W.W.W.W.W.W.W.W.o - 7 9 9 0 0 0 b M m m M M V B V B B B B B B B V V A A A A B B A A A S A A A S A B A F B @ W.W.W.W.W.W.",
"W.W.W.W.W.W.W.W.o < 7 0 0 0 0 m 0 m N M m M M M V V V V V B B B B A B V V V V B B B B B A A B N M V V V S < o W.W.W.W.W.",
"W.W.W.W.W.W.W.W.@ 2 9 q 0 9 b m 0 0 m M M m m m m M V V V V V V V B B B V V V V B N M M N M M N m 0 M b B 9 o W.W.W.W.W.",
"W.W.W.W.W.W.W.o : 7 9 9 0 0 0 m m m 0 0 0 M M m m M M M m m M V M V V M M N N B N N M M M N N M M b 0 0 0 , o W.W.W.W.W.",
"W.W.W.W.W.W.W.O < 7 9 7 9 0 0 0 m m 0 0 0 0 m M M M M M m m 0 0 m m M M N M M N N M V N M M m m h M M 0 2 : o W.W.W.W.W.",
"W.W.W.W.W.W.W.O < 2 9 0 9 0 0 0 0 m m m 0 0 0 0 m M M M m M m m 0 m m M b M M m M M M m 0 0 0 0 0 0 0 9 < O W.W.W.W.W.W.",
"W.W.W.W.W.W.o O < 7 9 q 7 9 m 0 0 0 m 0 m m m 0 0 m m m M M M M M m M M M M M m m b m 0 0 0 q 0 0 0 9 < # o W.W.W.W.W.W.",
"W.W.W.W.W.W.o # < 7 q 0 9 9 b 0 0 0 m m 0 m m m 0 0 0 0 0 0 m 0 0 0 0 m m m m b 0 0 9 9 0 0 9 9 9 7 < # o W.W.W.W.W.W.W.",
"W.W.W.W.W.W.O : < 7 9 9 9 7 9 0 0 0 9 0 m m 0 0 m 0 0 0 0 0 0 0 0 0 0 0 0 0 0 0 9 0 9 0 0 7 7 7 < : O o W.W.W.W.W.W.W.W.",
"W.W.W.W.W.W.o : 7 < 7 0 7 0 7 b 0 0 0 0 0 m 0 0 m 0 0 0 0 0 0 0 0 0 0 0 0 0 0 0 0 9 9 7 7 2 < , - + + . W.W.W.W.W.W.W.W.",
"W.W.W.W.W.W.O : < < 7 7 0 0 7 9 0 0 0 0 0 0 0 0 0 0 m 0 0 0 0 0 0 m 0 0 0 m 0 7 9 q 2 < < : # O = s & X W.W.W.W.W.W.W.W.",
"W.W.W.W.W.W.o < < 7 7 7 0 7 9 7 0 0 0 0 0 7 0 0 0 0 0 m m 0 0 0 7 7 0 0 9 0 7 7 9 2 < ; O , 1 o w u $ W.W.W.W.W.W.W.W.W.",
"W.W.W.W.W.W.o < < < 7 7 7 0 9 0 7 7 7 0 0 7 7 0 0 0 0 0 0 0 m 0 0 0 0 9 9 0 7 7 < : O 4 P t.y.L > o . W.W.W.W.W.W.W.W.W.",
"W.W.W.W.W.W.@ < < < 7 7 7 7 0 0 0 7 7 0 0 7 7 7 7 0 7 0 0 0 0 0 0 0 0 0 7 7 7 < : $ G u.A.S.S.B.j   W.W.W.W.W.W.W.W.W.W.",
"W.W.W.W.W.W.O < < < < < 7 7 7 0 0 0 0 7 7 0 7 7 7 0 7 0 b 7 7 0 0 9 7 9 7 7 < - & f } #.i.A.F.A.I . W.W.W.W.W.W.W.W.W.W.",
"W.W.W.W.W.W.o < : < < 7 7 7 0 7 7 0 7 0 0 7 7 0 7 7 7 7 9 9 q 7 7 7 9 7 7 < - % ! O.O.( ~ a.S.A.U X W.W.W.W.W.W.W.W.W.W.",
"W.W.W.W.W.W.o : < < < < < 7 7 7 7 7 0 7 7 0 0 7 0 7 0 7 7 7 7 7 9 9 7 9 < : # @.u.M.M.a.q.+.i.S.T X W.W.W.W.W.W.W.W.W.W.",
"W.W.W.W.W.W.o : < : < < 7 7 7 7 7 0 7 7 7 7 7 0 q 9 7 9 9 9 7 7 7 7 7 7 < O K w.g 9 9 p J e.#.i.U X W.W.W.W.W.W.W.W.W.W.",
"W.W.W.W.W.W.o # < : < < < < < 7 7 7 7 7 7 0 7 7 7 7 9 9 7 7 7 7 7 < 7 < : 3 u.g R c.b.h.b < U q.z + W.W.W.W.W.W.W.W.W.W.",
"W.W.W.W.W.W.W.@ < < < < < < < < 7 7 < 7 < 7 7 7 7 < 7 < 7 7 7 7 < 7 < < O J B.g x.P.E.v.n 6 @ I G o W.W.W.W.W.W.W.W.W.W.",
"W.W.W.W.W.W.W.o - < : < 7 < < 7 < < 7 < 7 < 7 7 7 < 7 7 < 7 < 7 7 7 < < - t.C.h x.P.E.f.v O q 0 > o W.W.W.W.W.W.W.W.W.W.",
"W.W.W.W.W.W.W.o - < < < < 7 7 < < < < < < 7 7 < 7 2 < 7 7 7 7 7 7 < < : : l.A.k g.I.E.z.n 6 W E . W.W.W.W.W.W.W.W.W.W.W.",
"W.W.W.W.W.W.W.W.O < < : : < < < 7 7 7 < < < < < < 7 7 < < < < < < < < : , m.H.T E P.R.Y.f.W g.0 @ W.W.W.W.W.W.W.W.W.W.W.",
"W.W.W.W.W.W.W.W.O - < : < : < < < 7 < 7 7 < 7 < < < < < < < < < < < : : O Z C.m.8 d.P.Y.Y.b.F Z p . W.W.W.W.W.W.W.W.W.W.",
"W.W.W.W.W.W.W.W.W.- : < : < : < < < < 7 < 7 < 7 q < < < < < 7 < 7 : < : O % K Z.y.8 S Q R M g e.p . W.W.W.W.W.W.W.W.W.W.",
"W.W.W.W.W.W.W.W.W.W.o : , < < : < < < < < : : < < < < < < 7 < 7 < < : : > X.i C j.n.Y j g g g 1 @ o W.W.W.W.W.W.W.W.W.W.",
"W.W.W.W.W.W.W.W.W.W.X O @ < < < : < < : : < < < < < 7 < 7 2 < < < < < < O *.3.l 1 G T K i 5 x ..% W.W.W.W.W.W.W.W.W.W.W.",
"W.W.W.W.W.W.W.W.W.W.W.W.O O : < < : < : < : < < < < < < < < 2 < < : : : O ) 8.0.=.c a l  .1.8.&.$ W.W.W.W.W.W.W.W.W.W.W.",
"W.W.W.W.W.W.W.W.W.W.W.W.W.X o O : < : < < < < < < < < < < < < : < < < < O s ;.9.:.:.>.7.0.=. .y o W.W.W.W.W.W.W.W.W.W.W.",
"W.W.W.W.W.W.W.W.W.W.W.W.W.W.W.o o @ : < , , , , < : < < : < : < : < < : @ s ,.3.-.8.6.:.5.9._ + o W.W.W.W.W.W.W.W.W.W.W.",
"W.W.W.W.W.W.W.W.W.W.W.W.W.W.W.W.W.X o o - - - : : : : < < : < < < : : < o e _ 4.7.2.>.:.2.<.d O W.W.W.W.W.W.W.W.W.W.W.W.",
"W.W.W.W.W.W.W.W.W.W.W.W.W.W.W.W.W.W.W.W.  X O O - @ @ o O - - # : : : - o O % s o.[ [ [ ] ' r o W.W.W.W.W.W.W.W.W.W.W.W.",
"W.W.W.W.W.W.W.W.W.W.W.W.W.W.W.W.W.W.W.W.W.. # < b b 9 7 : O # o o - O - o O o . s ` ^ ( ^ ~ e o W.W.W.W.W.W.W.W.W.W.W.W.",
"W.W.W.W.W.W.W.W.W.W.W.W.W.W.W.W.W.W.W.W.W.@ 7 0 B S S A 9 : B 9 O < 0 7 9 7 O o & ^ ^ ^ ( s O W.W.W.W.W.W.W.W.W.W.W.W.W.",
"W.W.W.W.W.W.W.W.W.W.W.W.W.W.W.W.W.W.W.W.o : 9 M B A D D m : S D 7 : 0 M h 0 , o @ u ~ ^ ~ w o W.W.W.W.W.W.W.W.W.W.W.W.W.",
"W.W.W.W.W.W.W.W.W.W.W.W.W.W.W.W.W.W.W.W.O 2 0 M B S F F M O m B B : : 0 m 0 < O o + f / d + O W.W.W.W.W.W.W.W.W.W.W.W.W.",
"W.W.W.W.W.W.W.W.W.W.W.W.W.W.W.W.W.W.W.W.O 7 m m B A A F V # 7 M B 0 # < m 0 7 @ o + t ! t o W.W.W.W.W.W.W.W.W.W.W.W.W.W.",
"W.W.W.W.W.W.W.W.W.W.W.W.W.W.W.W.W.W.W.O - 0 0 m V A A A B : , m V 0 7 O 7 0 9 : o O O * + o W.W.W.W.W.W.W.W.W.W.W.W.W.W.",
"W.W.W.W.W.W.W.W.W.W.W.W.W.W.W.W.W.W.W.O : m 0 m m V V V B 2 - 9 0 0 < o O 7 0 < o W.W.o O W.W.W.W.W.W.W.W.W.W.W.W.W.W.W.",
"W.W.W.W.W.W.W.W.W.W.W.W.W.W.W.W.W.W.W.O < 0 0 M M M V V B 9 O 7 < O > Z j - 2 7 O W.W.W.W.W.W.W.W.W.W.W.W.W.W.W.W.W.W.W.",
"W.W.W.W.W.W.W.W.W.W.W.W.W.W.W.W.W.W.W.O < 7 0 m m m M M M m ; O , P l.A.B.Z : < @ W.W.W.W.W.W.W.W.W.W.W.W.W.W.W.W.W.W.W.",
"W.W.W.W.W.W.W.W.W.W.W.W.W.W.W.W.W.W.W.O < 9 0 m m m m m M m > h k.T.L.G.S.w.@ < @ W.W.W.W.W.W.W.W.W.W.W.W.W.W.W.W.W.W.W.",
"W.W.W.W.W.W.W.W.W.W.W.W.W.W.W.W.W.W.O O < 9 0 m M m m m m m # U D.J.K.G.A.$.: < O O W.W.W.W.W.W.W.W.W.W.W.W.W.W.W.W.W.W.",
"W.W.W.W.W.W.W.W.W.W.W.W.W.W.W.W.W.W.o O < 7 9 0 m m m m m m , j B.D.F.S.N.G @ < @ o W.W.W.W.W.W.W.W.W.W.W.W.W.W.W.W.W.W.",
"W.W.W.W.W.W.W.W.W.W.W.W.W.W.W.W.W.W.o : < 7 9 0 0 0 0 m 0 m 9 > @.n.m.u.J + < < O o W.W.W.W.W.W.W.W.W.W.W.W.W.W.W.W.W.W.",
"W.W.W.W.W.W.W.W.W.W.W.W.W.W.W.W.W.W.o @ < < 7 q 7 0 0 7 9 7 0 < @ 4 g , - , 2 < : o W.W.W.W.W.W.W.W.W.W.W.W.W.W.W.W.W.W.",
"W.W.W.W.W.W.W.W.W.W.W.W.W.W.W.W.W.W.W.O : < < 3 7 7 < 7 7 7 7 7 < < # , 2 2 < < O o W.W.W.W.W.W.W.W.W.W.W.W.W.W.W.W.W.W.",
"W.W.W.W.W.W.W.W.W.W.W.W.W.W.W.W.W.W.W.O O O O # - - : : : : : : : : : : - - # @ O O W.W.W.W.W.W.W.W.W.W.W.W.W.W.W.W.W.W.",
"W.W.W.W.W.W.W.W.W.W.W.W.W.W.W.W.W.W.W.o : , , , # # O O o O o o O O O O O - o O # O o W.W.W.W.W.W.W.W.W.W.W.W.W.W.W.W.W.",
"W.W.W.W.W.W.W.W.W.W.W.W.W.W.W.W.W.W.W.O # 3 3 3 3 , O o W.W.W.W.o @ % # # @ @ o O O W.W.W.W.W.W.W.W.W.W.W.W.W.W.W.W.W.W.",
"W.W.W.W.W.W.W.W.W.W.W.W.W.W.W.W.W.W.W.@ # % , , : # , # O W.W.W.o @ # @ O O o O W.W.W.W.W.W.W.W.W.W.W.W.W.W.W.W.W.W.W.W.",
"W.W.W.W.W.W.W.W.W.W.W.W.W.W.W.W.W.W.W.W.O O @ O O O 3 3 O W.W.W.W.o @ o O W.W.W.W.W.W.W.W.W.W.W.W.W.W.W.W.W.W.W.W.W.W.W.",
"W.W.W.W.W.W.W.W.W.W.W.W.W.W.W.W.W.W.W.W.W.W.W.W.O o O O O W.W.W.W.o W.W.W.W.W.W.W.W.W.W.W.W.W.W.W.W.W.W.W.W.W.W.W.W.W.W.",
"W.W.W.W.W.W.W.W.W.W.W.W.W.W.W.W.W.W.W.W.W.W.W.W.W.W.W.W.W.W.W.W.W.W.W.W.W.W.W.W.W.W.W.W.W.W.W.W.W.W.W.W.W.W.W.W.W.W.W.W.",
"W.W.W.W.W.W.W.W.W.W.W.W.W.W.W.W.W.W.W.W.W.W.W.W.W.W.W.W.W.W.W.W.W.W.W.W.W.W.W.W.W.W.W.W.W.W.W.W.W.W.W.W.W.W.W.W.W.W.W.W.",
"W.W.W.W.W.W.W.W.W.W.W.W.W.W.W.W.W.W.W.W.W.W.W.W.W.W.W.W.W.W.W.W.W.W.W.W.W.W.W.W.W.W.W.W.W.W.W.W.W.W.W.W.W.W.W.W.W.W.W.W.",
"W.W.W.W.W.W.W.W.W.W.W.W.W.W.W.W.W.W.W.W.W.W.W.W.W.W.W.W.W.W.W.W.W.W.W.W.W.W.W.W.W.W.W.W.W.W.W.W.W.W.W.W.W.W.W.W.W.W.W.W."
};
