/* XPM */
static xpm_row_t const p1_right_4[] = {
/* columns rows colors chars-per-pixel */
"60 90 133 2 ",
"   c #181716",
".  c #1A1917",
"X  c #1A1A17",
"o  c #1B1A17",
"O  c #1D1A17",
"+  c #1B1918",
"@  c #1B1A18",
"#  c #1B1B18",
"$  c #1A1A19",
"%  c #1B1A19",
"&  c #1C1B19",
"*  c #1D1C1A",
"=  c #1E1E1C",
"-  c #271F17",
";  c #201F1E",
":  c #2E2317",
">  c #3E2B17",
",  c #222120",
"<  c #252422",
"1  c #262522",
"2  c #2A2720",
"3  c #2F2B25",
"4  c #282828",
"5  c #2A2925",
"6  c #2B2B2A",
"7  c #2C2C2C",
"8  c #2D2D2D",
"9  c #2E2E2E",
"0  c #313028",
"q  c #36342B",
"w  c #3A352C",
"e  c #313131",
"r  c #323232",
"t  c #343434",
"y  c #353535",
"u  c #363636",
"i  c #373736",
"p  c #383737",
"a  c #393939",
"s  c #3A393A",
"d  c #3A3A3A",
"f  c #3B3B3A",
"g  c #3C3B3B",
"h  c #3C3C3C",
"j  c #3D3D3D",
"k  c #3E3E3E",
"l  c #3F3F3F",
"z  c #533418",
"x  c #653D19",
"c  c #40392F",
"v  c #453C33",
"b  c #5C421C",
"n  c #624B1B",
"m  c #714417",
"M  c #4B4237",
"N  c #574B3F",
"B  c #655927",
"V  c #282942",
"C  c #2A2F4C",
"Z  c #32385B",
"A  c #343B5D",
"S  c #403F40",
"D  c #3E4466",
"F  c #4A4A4A",
"G  c #414141",
"H  c #434243",
"J  c #454444",
"K  c #464546",
"L  c #474647",
"P  c #484748",
"I  c #494849",
"U  c #4A4949",
"Y  c #4B4A4B",
"T  c #4D4C4D",
"R  c #4E4E4E",
"E  c #4F4F4F",
"W  c #5F5345",
"Q  c #515151",
"!  c #525252",
"~  c #535353",
"^  c #555555",
"/  c #565656",
"(  c #575757",
")  c #575757",
"_  c #5A5A5A",
"`  c #5B5B5B",
"'  c #5C5C5C",
"]  c #705E4B",
"[  c #756758",
"{  c #555A73",
"}  c #894F18",
"|  c #905419",
" . c #9B5D18",
".. c #AC6C19",
"X. c #887124",
"o. c #9D6736",
"O. c #B17827",
"+. c #846F5B",
"@. c #907A63",
"#. c #A58727",
"$. c #AC9328",
"%. c #B7A03A",
"&. c #C78D1E",
"*. c #E1B71D",
"=. c #D0A323",
"-. c #D9AC21",
";. c #EBC224",
":. c #F6D12E",
">. c #AD8761",
",. c #B29578",
"<. c #BF9C7B",
"1. c #CCA278",
"2. c #E9C242",
"3. c #6E7183",
"4. c #88888B",
"5. c #969699",
"6. c #AE9984",
"7. c #B0AFB1",
"8. c #CAA987",
"9. c #D1B18F",
"0. c #DDB48B",
"q. c #DDB995",
"w. c #E3BE99",
"e. c #E8C39E",
"r. c #E7C7A7",
"t. c #F0CBA5",
"y. c #EFCEB1",
"u. c #C1C0C1",
"i. c #D2D1D2",
"p. c #D6D5D6",
"a. c #F7DAC4",
"s. c #E2E1E1",
"d. c #00B140",
/* pixels */
"d.d.d.d.d.d.d.d.d.d.d.d.d.d.d.d.d.d.d.d.d.d.d.d.d.d.d.d.d.d.d.d.d.d.d.d.d.d.d.d.d.d.d.d.d.d.d.d.d.d.d.d.d.d.d.d.d.d.d.d.",
"d.d.d.d.d.d.d.d.d.d.d.d.d.d.d.d.d.d.d.d.d.d.d.d.d.d.d.d.d.d.d.d.d.d.d.d.d.d.d.d.d.d.d.d.d.d.d.d.d.d.d.d.d.d.d.d.d.d.d.d.",
"d.d.d.d.d.d.d.d.d.d.d.d.d.d.d.d.d.d.d.d.d.d.d.d.d.d.d.d.d.d.d.d.d.d.d.d.d.d.d.d.d.d.d.d.d.d.d.d.d.d.d.d.d.d.d.d.d.d.d.d.",
"d.d.d.d.d.d.d.d.d.d.d.d.d.d.d.d.d.d.d.d.d.d.d.d.d.d.d.d.d.d.d.d.d.d.d.d.d.d.d.d.d.d.d.d.d.d.d.d.d.d.d.d.d.d.d.d.d.d.d.d.",
"d.d.d.d.d.d.d.d.d.d.d.d.d.d.d.d.d.d.d.d.d.d.d.d.d.d.d.d.d.d.d.d.d.d.d.d.d.d.d.d.d.d.d.d.d.d.d.d.d.d.d.d.d.d.d.d.d.d.d.d.",
"d.d.d.d.d.d.d.d.d.d.d.d.d.d.d.d.d.d.d.d.d.d.d.d.. o d.d.d.d.d.d.d.d.d.d.d.d.d.d.d.d.d.d.d.d.d.d.d.d.d.d.d.d.d.d.d.d.d.d.",
"d.d.d.d.d.d.d.d.d.d.d.d.d.d.d.d.d.d.d.d.d.d.d.@ < 7 ; % . d.d.d.d.d.d.d.d.d.d.d.d.d.d.d.d.d.d.d.d.d.d.d.d.d.d.d.d.d.d.d.",
"d.d.d.d.d.d.d.d.d.d.d.d.d.d.d.d.d.d.d.d.d.d.O ; J ) R h 6 , & % @ o @ @ d.d.d.d.d.d.d.d.d.d.d.d.d.d.d.d.d.d.d.d.d.d.d.d.",
"d.d.d.d.d.d.d.d.d.d.d.d.d.d.d.d.d.d.d.d.@ & 1 a R ' ' ' ) ! I l p r 6 < = % . d.d.d.d.d.d.d.d.d.d.d.d.d.d.d.d.d.d.d.d.d.",
"d.d.d.d.d.d.d.d.d.d.d.d.d.d.d.d.d.d.d.. * i Q ( ) ) / ( ` ' ' ' ' ` ( ! U f 6 = O X d.d.d.d.d.d.d.d.d.d.d.d.d.d.d.d.d.d.",
"d.d.d.d.d.d.d.d.d.d.d.d.d.d.d.d.d.o o < F _ ' ) / ~ Q ! ~ ( ` ` ` ` _ ) ( ) ( Y u , o X d.d.d.d.d.d.d.d.d.d.d.d.d.d.d.d.",
"d.d.d.d.d.d.d.d.d.d.d.d.d.d.d.d.o = i ! ' ` ` ` _ _ _ ` ) _ ` ` ` ` ` ` _ ( / ) ` Q a , O d.d.d.d.d.d.d.d.d.d.d.d.d.d.d.",
"d.d.d.d.d.d.d.d.d.d.d.d.d.d.d.% 4 I ) ) ( ( ( / / / ) ` ` ` ` ` ` ` ` ` ` ` _ _ ` ' ` R e * . d.d.d.d.d.d.d.d.d.d.d.d.d.",
"d.d.d.d.d.d.d.d.d.d.d.d.d.o = r ! ( ^ / ( ( ( ( ( / ( ` ` ` ` ` ` ` ` ` ` ` ` ` ` ` ` ' ( G , $ d.d.d.d.d.d.d.d.d.d.d.d.",
"d.d.d.d.d.d.d.d.d.d.d.d.X & y ( _ ) _ _ ) ( ( ( / / / ) ( ( ( ( ) ) _ ` ` ` ` ` ` ` ` ` ` ` Y 4 % d.d.d.d.d.d.d.d.d.d.d.",
"d.d.d.d.d.d.d.d.d.d.d.@ = h / _ ( ^ ~ ~ ~ ^ ( ^ ^ / ^ / / ( ( ( ) ) ( ( ) _ ` ` ` ` ` ` ` ` ` R 7 & @ d.d.d.d.d.d.d.d.d.",
"d.d.d.d.d.d.d.d.d.d.X = k ( ) ~ Q Q Q Q Q Q ! Q Q Q Q ! ! ! ~ ^ ^ ^ / ) ) ( ( ) ` ` ` ` ` ` ` ` Q r * o d.d.d.d.d.d.d.d.",
"d.d.d.d.d.d.d.d.d.o + u ( ^ Q R Q Q Q Q Q Q Q Q Q Q ! ^ / ^ ! ! ~ ~ ^ ( ^ ^ ( ) _ ` ` ` ` ` ` ` ` / y * o d.d.d.d.d.d.d.",
"d.d.d.d.d.d.d.d.d.& 4 k Y U I I R Q R R E E Q Q Q Q E Q ! ~ ^ ^ ! ! ! ! ~ ! ! ! ( ) ) _ ` ` _ _ ` ` / t & & d.d.d.d.d.d.",
"d.d.d.d.d.d.d.d.% < y G I Y L L I R E Y T E E Q Q Q Q Q Q Q ! ! ^ / ^ ! Q ! ~ ! ! ! ! ~ ( ) ) ` ` ` ` ^ w & d.d.d.d.d.d.",
"d.d.d.d.d.d.d.+ ; r i J P Y Y Y Y U T E T T R Q Q Q Q Q Q Q Q Q Q Q ! ~ ^ ^ / / ( / ~ ! Q ! ~ ^ ( ` ` ` ! 6 O d.d.d.d.d.",
"d.d.d.d.d.d.@ * 9 t p L I I I U T T Y Y T R R R E Q Q Q Q Q Q Q Q Q Q Q Q ! ! ~ ^ ( ( ( / ~ ! ! ! ( ` ) _ T , . d.d.d.d.",
"d.d.d.d.d.d.% 4 u u d K I K L I I U T T Y U Y R E Q Q Q Q E E Q Q Q Q Q Q Q R T E Q Q ! ! ~ ( ( ( / ( ) ) ` G * d.d.d.d.",
"d.d.d.d.d.X = r y i g G L L F J P I I Y T R R T T R E Q Q Q R R E Q Q Q Q Q Q E E E Q Q Q Q Q ! ! Q Q ~ ) ` ( w $ d.d.d.",
"d.d.d.d.d.o 1 y y p h g k P F S H L I I I U T R R T Y Y T R E R R E Q Q Q Q Q Q E E Q Q Q Q Q Q Q Q E T R ( ` T ; @ d.d.",
"d.d.d.d.X = 9 i y a d h d F K j G H J P I I I U Y T T T Y I U Y Y T E Q Q Q Q Q Q Q Q Q Q Q Q E E Q Q E R E ) _ r $ d.d.",
"d.d.d.d.% < r a i a g g h g H K j G J J L I I I I I U Y T T Y U I I T E E R R R R E E E E Q E E E Q Q R R E ! ) Y = d.d.",
"d.d.d.& * 6 t g g a g k j h k J L S k J J H L I I I I I I U Y T T T T U I I I I U Y Y Y T R E E E R I K L P J T / 5 @ d.",
"d.d.d.o , w u p g d d k k h g j H K H j F F F H K P I I I I I I U U U I I P K I I I I P J K I P J H J F j F G S Q i $ d.",
"d.d.d.& 5 e i i a g d j j l j h g j G J H l k l H H H J F J P I I I I I I P P I I I I K J G l H L I P G h h k d K r % d.",
"d.d.@ = 9 r p p i j g h j l l j h g g j H K K H G H H F k k l F F G H H H J K L P I I P K K L L L K J K H k j a r 1 O d.",
"d.d.# ; w r p p u g j g k k l l j j h d d k H L L J J H F k j j k F G H J H F J L K J K K K J H F g d j F F H s 9 ; + d.",
"d.d.% < 9 r a a u a j g j j k l l l k j h d h S H J J S F G G l g g j F H H H H S F H H G F j h h g g g h g d t 5 & d.d.",
"d.d.* 1 9 r a a i i g j g j h l l l k k j j h h h l G H J K J L H G H J J H F F G G S k k j g g a a a d d a t 6 = + d.d.",
"d.& * 4 9 r p a p y a h d h g h l k k k k k j j j j h j k H G h h j h k G F F G F k j h d d d a a a a a i r 6 = $ d.d.d.",
"d.X = 5 w e p a a u i d g a j d h l k k j j k h d d d d a a d a d h j k k j j h g d a p y a g a p i t r 8 1 * @ d.d.d.d.",
"d.# = 6 w e u a a p y p g h h h a g k l k j h j j j g d d d d g h g d a a a a a d g d d a a i y e 9 7 1 ; +   d.d.d.d.d.",
"d.@ ; 7 w w r i a a i y a h h j g a d j k k k j g j j j k k l k h h h h h h j j g a y y y r w 8 6 5 , * - > + d.d.d.d.d.",
"d.O , 7 9 w r t a a a u u a h h j a i a g h j k k j h d d g g h j j h j j j h g i t u u e 7 5 1 ; & & > m x * d.d.d.d.d.",
"d.% < 8 7 w e t u a a a u u a h h h p y u a g h h j k k j g d a i u i a a a a u t p u w 4 , & = 3 2   > x > % d.d.d.d.d.",
"d.o < 8 6 w w t t i a a a u y a d d a u i u u i p d d a h k k j g d a a a a u y u r 6 < & , M +.>.@.N , & o o d.d.d.d.d.",
"d.o < 9 6 9 w r u t p a a a i y i a p t y p a p p a d d g g h h h d a a p y y t w 5 ; * v @.8.q.e.w.<.N o d.d.d.d.d.d.d.",
"d.o < 7 5 6 9 w t u t p a a a p y u p i t r u p a a a a a a a a d d d a a u r w 6 = : b o.1.w.t.t.t.e.[ % d.d.d.d.d.d.d.",
"d.% < 6 4 6 7 w w y u t i a a a a i y i a i t r y u i i i i i p p i y u i r w 6 = : m } } | o.<.e.e.w.@.% d.d.d.d.d.d.d.",
"d.$ , 6 4 5 6 9 w e u p y y i a a a p u y i p i t t y i i i u t t u p u r e 8 ; = x o.>.>.o.} o.0.t.w.@.o d.d.d.d.d.d.d.",
"d.o ; 6 4 5 6 6 w w e y p i y y u i p a a i u u u y t r r r r y p i r r r 9 < + W <.8.9.8.9.1.O.o.1.r.@.o d.d.d.d.d.d.d.",
"d.@ = 6 4 4 8 6 9 w w w r u p p i y t y y i p p i u u u u i i u r e e t r 5 & c ,.[ c 3 3 q W >.>.o.8.@.o d.d.d.d.d.d.d.",
"d.& * 4 5 4 6 9 6 8 w w w w r y u i i u y t r r t i a p u r r r e w r e w < = @.@.6 [ 4.5.4.H ; N >.>.] O d.d.d.d.d.d.d.",
"d.d.* < 4 4 5 9 8 6 7 9 w w w w w w e e e e r r r t t r r r t r w w w 9 9 = v q.] ' u.i.s.i.{ C = v ,.[ O d.d.d.d.d.d.d.",
"d.d.$ ; 4 4 4 6 9 8 8 7 7 9 w w w w w w e r r w w w w e e e w w w w w 8 6 + +.t.W [ u.i.s.7.A V ; ; v N @ d.d.d.d.d.d.d.",
"d.d.X * 1 4 4 4 8 9 8 8 9 7 7 9 9 w w w w w w w w w w w w w w w w w 7 6 1 ; ,.t.] ' u.i.s.5.Z 1 + / H * + d.d.d.d.d.d.d.",
"d.d.d.& < 5 4 4 4 7 w 9 8 9 9 8 7 7 8 9 w w w w w w w w w w w w w 9 6 6 , 2 8.t.+.J u.p.s.u.D C V 4.(   @ d.d.d.d.d.d.d.",
"d.d.d.# ; 7 5 4 4 4 6 9 w 9 w w w 9 8 7 7 7 8 9 9 9 w w w 9 9 9 7 7 6 4 ; 3 9.t.<.0 5.p.s.s.5.{ 3.5.7 * X d.d.d.d.d.d.d.",
"d.d.d.d.& 1 7 4 4 4 4 6 8 w w w w w w w 9 9 8 7 7 6 6 6 6 6 6 7 9 8 4 4 ; = [ w.e.W J 7.p.s.s.i.u.U M v . d.d.d.d.d.d.d.",
"d.d.d.d.@ * 6 6 4 4 4 4 5 6 7 9 9 w w w w w w 9 9 7 7 8 7 8 w w w 6 4 4 , + & [ e.8.c J 5.7.7.5.L c ,.N + d.d.d.d.d.d.d.",
"d.d.d.d.d.@ ; 1 4 5 4 5 5 6 6 5 5 6 7 8 8 7 6 6 6 6 7 7 9 w w w 7 6 4 4 , 2 B , +.w.8.N 2 9 w 3 M [ ] 3 # d.d.d.d.d.d.d.",
"d.d.d.d.d.d.% = 1 6 6 4 4 4 6 6 4 5 4 4 4 4 6 6 7 9 9 w w w 9 7 7 6 4 4 , < %.X.< N ,.9.6.@.] W c < 2 * @ d.d.d.d.d.d.d.",
"d.d.d.d.d.d.d.O * < 6 6 4 4 4 4 4 4 4 5 6 6 7 7 7 7 8 9 9 8 6 8 8 4 4 4 < * $.:.$.c < v N M 3 2 n $.$.2 & d.d.d.d.d.d.d.",
"d.d.d.d.d.d.d.d.o & ; 1 5 5 4 4 4 5 5 6 6 6 7 7 7 6 6 6 6 7 9 8 5 4 4 4 1 + X.;.:.2.#.B n B X.$.:.:.O.- d.d.d.d.d.d.d.d.",
"d.d.d.d.d.d.d.d.d.X o * , 1 5 5 4 4 4 5 6 6 6 6 6 6 6 6 6 6 6 4 4 4 4 4 1 + n =.:.;.*.*.*.;.:.=.#.X.b & d.d.d.d.d.d.d.d.",
"d.d.d.d.d.d.d.d.d.d.d.. & * ; < 1 4 4 4 4 4 4 5 5 4 4 4 4 4 4 4 5 4 4 4 1 + n &.*.&.=.;.;.-.:.;.=.n + o d.d.d.d.d.d.d.d.",
"d.d.d.d.d.d.d.d.d.d.d.d.d.@ O * = ; , < 1 1 4 4 4 4 4 4 4 4 4 4 4 4 4 4 1 + b O.2.-.;.;.;.*.;.2.&.m + d.d.d.d.d.d.d.d.d.",
"d.d.d.d.d.d.d.d.d.d.d.d.d.d.d.@ . $ & * * * = ; ; , < < 1 1 1 1 4 4 4 4 < + - m #.2.=.&.=.-.&.&...> & d.d.d.d.d.d.d.d.d.",
"d.d.d.d.d.d.d.d.d.d.d.d.d.d.d.d.d.d.d..   = , , ; = * & & & * = = ; , , * + + & : n ..O.........} : + d.d.d.d.d.d.d.d.d.",
"d.d.d.d.d.d.d.d.d.d.d.d.d.d.d.d.d.d.d.o & 7 p G l h t = + * + = = = = * + + * + + -  . .|  .| | } : @ d.d.d.d.d.d.d.d.d.",
"d.d.d.d.d.d.d.d.d.d.d.d.d.d.d.d.d.d.d.* 8 d L E ~ T 5 = f l * r G k h i r p t = + + x | | | |  .> & d.d.d.d.d.d.d.d.d.d.",
"d.d.d.d.d.d.d.d.d.d.d.d.d.d.d.d.d.d.. ; u j U ! / a & u _ E = f ( ! T L l G h 1 + & > | | | | } = $ d.d.d.d.d.d.d.d.d.d.",
"d.d.d.d.d.d.d.d.d.d.d.d.d.d.d.d.d.d.o 4 h k Y E G = 1 H ( R = j ' ) Q P F F h 9 * @ & > }  .} z * d.d.d.d.d.d.d.d.d.d.d.",
"d.d.d.d.d.d.d.d.d.d.d.d.d.d.d.d.d.@ * e j k Y U 1 = y L ~ U = F ( E K K F F g t ; # @ - m  .} : $ d.d.d.d.d.d.d.d.d.d.d.",
"d.d.d.d.d.d.d.d.d.d.d.d.d.d.d.d.d.o ; i j k P u & 6 g I E a * G R J H L l F g p 1 O @ * > m x & @ d.d.d.d.d.d.d.d.d.d.d.",
"d.d.d.d.d.d.d.d.d.d.d.d.d.d.d.d.d.o < g h l h ; , u k I I 6 = F K J U H l l g d 6 * & . + : - $ d.d.d.d.d.d.d.d.d.d.d.d.",
"d.d.d.d.d.d.d.d.d.d.d.d.d.d.d.d.d.& 5 k g k 7 & 7 a l H k 1 , J U Y L F l l g d r * X d.& + O d.d.d.d.d.d.d.d.d.d.d.d.d.",
"d.d.d.d.d.d.d.d.d.d.d.d.d.d.d.d.X * 8 h d w &   ; 6 y h a ; 5 P K H G l F l d d u ; # d.d.o d.d.d.d.d.d.d.d.d.d.d.d.d.d.",
"d.d.d.d.d.d.d.d.d.d.d.d.d.d.d.d.# = 9 a 8 = N ] i = & < 5 * 9 H H F l l F j a a u , $ d.d.d.d.d.d.d.d.d.d.d.d.d.d.d.d.d.",
"d.d.d.d.d.d.d.d.d.d.d.d.d.d.d.d.@ ; w y = W 9.r.r.6.W 2 + & u G k k l F l g d a y < % d.d.d.d.d.d.d.d.d.d.d.d.d.d.d.d.d.",
"d.d.d.d.d.d.d.d.d.d.d.d.d.d.d.d.% , w 9 , >.w.y.a.a.r.<.N * g G F G F F j g d p r < & d.d.d.d.d.d.d.d.d.d.d.d.d.d.d.d.d.",
"d.d.d.d.d.d.d.d.d.d.d.d.d.d.d.d.o < w 5 2 ,.w.t.y.y.t.w.@.= a H H G F l h k d u w 1 & d.d.d.d.d.d.d.d.d.d.d.d.d.d.d.d.d.",
"d.d.d.d.d.d.d.d.d.d.d.d.d.d.d.d.& < 9 6 ; @.q.t.y.t.t.w.+.= p F l l l k h h p r w 1 * d.d.d.d.d.d.d.d.d.d.d.d.d.d.d.d.d.",
"d.d.d.d.d.d.d.d.d.d.d.d.d.d.d.d.& < 9 w = c ,.q.e.e.w.<.v , j l F F l j j a t w 9 1 & d.d.d.d.d.d.d.d.d.d.d.d.d.d.d.d.d.",
"d.d.d.d.d.d.d.d.d.d.d.d.d.d.d.d.& < 6 e 6 * q +.,.<.@.M * e j h j j d d a y e w 9 < * d.d.d.d.d.d.d.d.d.d.d.d.d.d.d.d.d.",
"d.d.d.d.d.d.d.d.d.d.d.d.d.d.d.d.o , 5 9 e 7 ; = 2 3 ; = 7 i u y u t r r r w w w 6 < * d.d.d.d.d.d.d.d.d.d.d.d.d.d.d.d.d.",
"d.d.d.d.d.d.d.d.d.d.d.d.d.d.d.d.O = , < 5 7 7 5 < < 4 8 w w w w 9 9 9 9 9 9 9 6 4 , & d.d.d.d.d.d.d.d.d.d.d.d.d.d.d.d.d.",
"d.d.d.d.d.d.d.d.d.d.d.d.d.d.d.d.d.@ % & & & = = ; ; ; , , , , , , , , , ; ; ; = = & $ d.d.d.d.d.d.d.d.d.d.d.d.d.d.d.d.d.",
"d.d.d.d.d.d.d.d.d.d.d.d.d.d.d.d.d.d.d.d.d.o & = < ; * = = * + + + + o @ @ + . @ X @ d.d.d.d.d.d.d.d.d.d.d.d.d.d.d.d.d.d.",
"d.d.d.d.d.d.d.d.d.d.d.d.d.d.d.d.d.d.d.d.d.d.@ , i q q q 0 2 + 2 q ; # d.d.d.d.d.d.d.d.d.d.d.d.d.d.d.d.d.d.d.d.d.d.d.d.d.",
"d.d.d.d.d.d.d.d.d.d.d.d.d.d.d.d.d.d.d.d.d.d.X * 0 q q 0 0 < & 3 c < % d.d.d.d.d.d.d.d.d.d.d.d.d.d.d.d.d.d.d.d.d.d.d.d.d.",
"d.d.d.d.d.d.d.d.d.d.d.d.d.d.d.d.d.d.d.d.d.d.d.* 2 0 3 2 < = + * * + & d.d.d.d.d.d.d.d.d.d.d.d.d.d.d.d.d.d.d.d.d.d.d.d.d.",
"d.d.d.d.d.d.d.d.d.d.d.d.d.d.d.d.d.d.d.d.d.d.d.& ; , = & + o $ % + + O d.d.d.d.d.d.d.d.d.d.d.d.d.d.d.d.d.d.d.d.d.d.d.d.d.",
"d.d.d.d.d.d.d.d.d.d.d.d.d.d.d.d.d.d.d.d.d.d.d.O & $ . o d.d.d.d.d.X d.d.d.d.d.d.d.d.d.d.d.d.d.d.d.d.d.d.d.d.d.d.d.d.d.d.",
"d.d.d.d.d.d.d.d.d.d.d.d.d.d.d.d.d.d.d.d.d.d.d.d.d.d.d.d.d.d.d.d.d.d.d.d.d.d.d.d.d.d.d.d.d.d.d.d.d.d.d.d.d.d.d.d.d.d.d.d."
};
