/* XPM */
static xpm_row_t const p1_right_8[] = {
/* columns rows colors chars-per-pixel */
"60 80 169 2 ",
"   c #0F0F0E",
".  c #151413",
"X  c #181715",
"o  c #1A1917",
"O  c #1C1B1A",
"+  c #171718",
"@  c #211F1B",
"#  c #211F16",
"$  c #2E2317",
"%  c #21211E",
"&  c #2C2318",
"*  c #3B2A17",
"=  c #342618",
"-  c #352B18",
";  c #352617",
":  c #3A351E",
">  c #1E1F26",
",  c #221E28",
"<  c #242423",
"1  c #282726",
"2  c #2A2926",
"3  c #2B2B2B",
"4  c #25252A",
"5  c #322D26",
"6  c #312F2D",
"7  c #33322A",
"8  c #3C352D",
"9  c #3B3523",
"0  c #343433",
"q  c #3A3835",
"w  c #3B3B3B",
"e  c #412D18",
"r  c #423617",
"t  c #4F3318",
"y  c #433118",
"u  c #553617",
"i  c #453E22",
"p  c #46392C",
"a  c #453C34",
"s  c #443E39",
"d  c #584D1D",
"f  c #674219",
"g  c #744418",
"h  c #774818",
"j  c #6C521C",
"k  c #6B5D1D",
"l  c #584F24",
"z  c #5E5429",
"x  c #4D4339",
"c  c #504030",
"v  c #52463B",
"b  c #564B3F",
"n  c #694422",
"m  c #716430",
"M  c #292B45",
"N  c #2E334C",
"B  c #403F40",
"V  c #3C4265",
"C  c #434343",
"Z  c #484847",
"A  c #484748",
"S  c #4B4B4B",
"D  c #574D40",
"F  c #594D41",
"G  c #5E5043",
"H  c #504F50",
"J  c #535353",
"K  c #5A5A5A",
"L  c #585758",
"P  c #645546",
"I  c #6B5C4B",
"U  c #645648",
"Y  c #705F50",
"T  c #70614F",
"R  c #736352",
"E  c #7D6C58",
"W  c #494D66",
"Q  c #575C76",
"!  c #6A6B76",
"~  c #7D7D7C",
"^  c #8B4F18",
"/  c #875119",
"(  c #8E531B",
")  c #925418",
"_  c #9B5B19",
"`  c #915E19",
"'  c #A36219",
"]  c #AE7018",
"[  c #B77A1C",
"{  c #935722",
"}  c #9B632F",
"|  c #986A3F",
" . c #A46F3E",
".. c #856344",
"X. c #89745F",
"o. c #AB7849",
"O. c #937A63",
"+. c #B98719",
"@. c #AC8A2B",
"#. c #BA882A",
"$. c #B69D2C",
"%. c #AF9938",
"&. c #C38618",
"*. c #CA9819",
"=. c #CEAA1A",
"-. c #DDB61E",
";. c #E3B91A",
":. c #E4B719",
">. c #CAAB28",
",. c #DDB322",
"<. c #DBAB38",
"1. c #DDB833",
"2. c #E8BF28",
"3. c #E6BC39",
"4. c #F2CB1D",
"5. c #ECC62A",
"6. c #F1CE36",
"7. c #AF855B",
"8. c #B58354",
"9. c #B9895C",
"0. c #968169",
"q. c #9F846B",
"w. c #80807F",
"e. c #93857A",
"r. c #A7896D",
"t. c #B28F6C",
"y. c #A38B71",
"u. c #AE9478",
"i. c #AA9277",
"p. c #B89A7E",
"a. c #C29369",
"s. c #CCA178",
"d. c #E2C441",
"f. c #8A8A8F",
"g. c #8F919D",
"h. c #9D9C9B",
"j. c #B99C80",
"k. c #BFA288",
"l. c #9597A5",
"z. c #ABAAAA",
"x. c #AEAEB1",
"c. c #BFBEBE",
"v. c #C5A486",
"b. c #CAA889",
"n. c #C8A888",
"m. c #D5AC83",
"M. c #D0AF8E",
"N. c #D6B18F",
"B. c #D3B391",
"V. c #DCB995",
"C. c #DEBC98",
"Z. c #DCB794",
"A. c #E3BC95",
"S. c #E2BE9A",
"D. c #E8C39C",
"F. c #EAC5A1",
"G. c #EEC9A4",
"H. c #E2C4A8",
"J. c #F0CAA5",
"K. c #EFCFB3",
"L. c #F0CFB1",
"P. c #F3D4BA",
"I. c #BCBCC1",
"U. c #C5C4C4",
"Y. c #D5D5D5",
"T. c #DADADA",
"R. c #F6DBC6",
"E. c #E4E3E3",
"W. c #00b140",
/* pixels */
"W.W.W.W.W.W.W.W.W.W.W.W.W.W.W.W.W.W.W.W.W.W.W.W.W.W.W.W.W.W.W.W.W.W.W.W.W.W.W.W.W.W.W.W.W.W.W.W.W.W.W.W.W.W.W.W.W.W.W.W.",
"W.W.W.W.W.W.W.W.W.W.W.W.W.W.W.W.W.W.W.W.W.W.W.W.W.W.W.W.W.W.W.W.W.W.W.W.W.W.W.W.W.W.W.W.W.W.W.W.W.W.W.W.W.W.W.W.W.W.W.W.",
"W.W.W.W.W.W.W.W.W.W.W.W.W.W.W.W.W.W.W.W.W.W.W.W.W.W.W.W.W.W.W.W.W.W.W.W.W.W.W.W.W.W.W.W.W.W.W.W.W.W.W.W.W.W.W.W.W.W.W.W.",
"W.W.W.W.W.W.W.W.W.W.W.W.W.W.W.W.W.W.W.W.W.W.W.W.W.W.W.W.W.W.W.W.W.W.W.W.W.W.W.W.W.W.W.W.W.W.W.W.W.W.W.W.W.W.W.W.W.W.W.W.",
"W.W.W.W.W.W.W.W.W.W.W.W.W.W.W.W.W.W.W.W.W.W.W.W.W.W.W.W.W.W.W.W.W.W.W.W.W.W.W.W.W.W.W.W.W.W.W.W.W.W.W.W.W.W.W.W.W.W.W.W.",
"W.W.W.W.W.W.W.W.W.W.W.W.W.W.W.W.W.W.W.W.W.W.W.W.W.W.W.O W.W.W.W.W.W.W.W.W.W.W.W.W.W.W.W.W.W.W.W.W.W.W.W.W.W.W.W.W.W.W.W.",
"W.W.W.W.W.W.W.W.W.W.W.W.W.W.W.W.W.W.W.W.W.W.W.W.W.W.O % 2 O O W.W.W.W.W.W.W.W.W.W.W.W.W.W.W.W.W.W.W.W.W.W.W.W.W.W.W.W.W.",
"W.W.W.W.W.W.W.W.W.W.W.W.W.W.W.W.W.W.W.W.W.W.W.W.W.O < S J C 6 % O o o O W.W.W.W.W.W.W.W.W.W.W.W.W.W.W.W.W.W.W.W.W.W.W.W.",
"W.W.W.W.W.W.W.W.W.W.W.W.W.W.W.W.W.W.W.W.W.W.W.O % 3 C J K K K J S x 0 6 < % + + W.W.W.W.W.W.W.W.W.W.W.W.W.W.W.W.W.W.W.W.",
"W.W.W.W.W.W.W.W.W.W.W.W.W.W.W.W.W.W.W.W.W.W.+ % C K K L L J L K K K K K J Z w < O O W.W.W.W.W.W.W.W.W.W.W.W.W.W.W.W.W.W.",
"W.W.W.W.W.W.W.W.W.W.W.W.W.W.W.W.W.W.W.W.# % q J K K K L L L L K K K K K K K L L C 6 O O W.W.W.W.W.W.W.W.W.W.W.W.W.W.W.W.",
"W.W.W.W.W.W.W.W.W.W.W.W.W.W.W.W.W.W.W.o 7 S L K L K L L K K K K K K K K K K K K K L C 2 O W.W.W.W.W.W.W.W.W.W.W.W.W.W.W.",
"W.W.W.W.W.W.W.W.W.W.W.W.W.W.W.W.W.# % q J L J L L L L L L K K K K K K K K K K K K K K K q % + W.W.W.W.W.W.W.W.W.W.W.W.W.",
"W.W.W.W.W.W.W.W.W.W.W.W.W.W.W.W.o % w K K L K L L L L L L K L L K K K K K K K K K K K K K C % O W.W.W.W.W.W.W.W.W.W.W.W.",
"W.W.W.W.W.W.W.W.W.W.W.W.W.W.W.o < C K J J J H J J J J J J J J L K L L L K K K K K K K K K K Z % o W.W.W.W.W.W.W.W.W.W.W.",
"W.W.W.W.W.W.W.W.W.W.W.W.W.W.O O C L J H J J H J H J J S H L J J L L J L K K L L K K K K K K K Z < O W.W.W.W.W.W.W.W.W.W.",
"W.W.W.W.W.W.W.W.W.W.W.W.W.W.O 6 Z S A A H H S H H H J J H J J J L J J J J J J L K K K K K K K K S < o W.W.W.W.W.W.W.W.W.",
"W.W.W.W.W.W.W.W.W.W.W.W.W.O 3 w A Z S A S H H S H H J H J H H J J J J J J J J J J L L K K K K K K S % o W.W.W.W.W.W.W.W.",
"W.W.W.W.W.W.W.W.W.W.W.W.O 2 0 w Z A S S S S S H H H H H H H H J J J J J L J J L J J J H L K K K K K C O W.W.W.W.W.W.W.W.",
"W.W.W.W.W.W.W.W.W.W.W.O % 0 0 B Z A Z A S S S S S S H J H J J H H J H J J J J J L K L L J J J J K K K w O W.W.W.W.W.W.W.",
"W.W.W.W.W.W.W.W.W.W.W.O 3 0 q w C Z C Z A A S S S S S J H J J H H H H H J H H S S H J J J L L L K K K J 2 O W.W.W.W.W.W.",
"W.W.W.W.W.W.W.W.W.W.O % 0 0 w w w Z B B A Z A S S H H S S H S J H H H J H J J J J H J H H J J J H J L K S O W.W.W.W.W.W.",
"W.W.W.W.W.W.W.W.W.W.+ 3 w 0 w w w w C B C C Z A S A S S S S S S S H H H J H H J H H H H J H H H H S H L K 7 O W.W.W.W.W.",
"W.W.W.W.W.W.W.W.W.+ < 6 w w w w w w x Z N C C A A A S A S S S S S Z Z S H H H H H H H H H H H H J H H J K S O W.W.W.W.W.",
"W.W.W.W.W.W.W.W.W.O 3 0 w w 0 w B w w C Z B B C C Z Z Z Z Z A A S H S S S Z Z S S S H S H H H H S S S S H L 3 X W.W.W.W.",
"W.W.W.W.W.W.W.W.W.@ 6 0 q w w w w B w w B C C B w B C C Z Z Z A Z Z S Z Z Z Z S A A A A A S A A C C C C C S w o W.W.W.W.",
"W.W.W.W.W.W.W.W.O < 0 0 q w w w w C B w w w w Z C B B C C B B C Z Z C Z Z Z Z Z A S Z C C C C A S C w w w C w o W.W.W.W.",
"W.W.W.W.W.W.W.W.O 3 6 w q q N w w w B B w w w w B Z Z C C B B B w B C B B Z C C A Z Z Z C A A C C C C B w 0 1 O W.W.W.W.",
"W.W.W.W.W.W.W.W.O 3 0 0 w 0 w B w w w C w w w w w B C Z C B B B w w w C B C C C C C C C C B B w w w w C w 0 < o W.W.W.W.",
"W.W.W.W.W.W.W.o > 3 0 0 w 0 0 w w w w C w C B B w w w B B B C C C C C C C C C C B C B B w w w w w q w w 0 2 O W.W.W.W.W.",
"W.W.W.W.W.W.W.o % 6 6 w w w 0 w w w w w w w w w B w w w w w w B w w w w B B B C w w w w w w w 0 w w 0 0 2 O O W.W.W.W.W.",
"W.W.W.W.W.W.W.O < 6 0 0 w 0 0 w w w w w w C C w w B w w w w w w w w w w w w w w w w w 0 w w w 0 0 0 3 1 O o W.W.W.W.W.W.",
"W.W.W.W.W.W.W.O 4 0 0 0 0 w w 0 w w w w w w w w w w w C w w w B w w w w w w w w w w 0 w 0 0 0 3 3 1 O O X W.W.W.W.W.W.W.",
"W.W.W.W.W.W.W.O 4 3 3 0 0 0 w w 0 w w w w 0 w w w C w w w w w w B w w w w w w w w 0 0 0 0 6 3 1 < # * & + W.W.W.W.W.W.W.",
"W.W.W.W.W.W.W.O 3 3 3 0 0 w w 0 w 0 w w w w 0 w w w w w C w w w w 0 w w w w w 0 0 w 0 5 < O O O o u h ; O W.W.W.W.W.W.W.",
"W.W.W.W.W.W.W.O 3 3 3 0 0 0 0 w 0 w 0 0 w 0 0 w w 0 0 w w w w B w w w 0 0 w w 0 0 6 1 @ < s R I 5 & ; o W.W.W.W.W.W.W.W.",
"W.W.W.W.W.W.W.% 3 3 3 3 0 0 0 w w w 0 w 0 w 0 0 0 w w w w w w w w w w w w 0 w 0 3 < @ v 0.n.C.V.r.5 . W.W.W.W.W.W.W.W.W.",
"W.W.W.W.W.W.W.% 2 4 3 3 3 0 w 0 0 w 0 w w 0 w 0 0 0 0 0 w 0 0 0 0 w 0 w 0 0 0 4 < - n ..s.D.D.J.C.v   W.W.W.W.W.W.W.W.W.",
"W.W.W.W.W.W.W.O 2 4 3 3 3 0 0 w q 0 0 N w 0 w 0 w 0 0 0 0 w 0 w 0 0 q 0 0 0 3 > $ h { ( (  .A.D.V.F . W.W.W.W.W.W.W.W.W.",
"W.W.W.W.W.W.W.O 4 2 3 3 3 0 3 0 0 q q 0 0 w 0 w 0 0 w 0 0 0 0 0 0 w 0 0 0 3 < < ..a.m.m.9.} 8.D.S.b . W.W.W.W.W.W.W.W.W.",
"W.W.W.W.W.W.W.O < 4 2 3 3 6 0 3 0 0 w 0 w 0 0 0 0 0 w w 0 w 0 0 0 0 0 0 0 1 O R q.T b G E r.o.8.V.b . W.W.W.W.W.W.W.W.W.",
"W.W.W.W.W.W.W.O < 4 3 3 3 3 3 0 3 0 3 0 0 0 0 0 0 0 0 0 0 0 0 0 0 0 0 3 6 % s i.q K ~ w.L 3 I 7.7.c W.W.W.W.W.W.W.W.W.W.",
"W.W.W.W.W.W.W.O % < 4 2 6 0 3 3 3 0 0 0 0 0 0 0 0 3 0 0 0 0 0 0 3 0 3 0 3 % 0.u.S c.Y.E.g.N > b t.p W.W.W.W.W.W.W.W.W.W.",
"W.W.W.W.W.W.W.W.O 1 2 4 3 3 3 3 3 3 3 3 3 3 0 3 0 0 3 3 0 3 3 0 0 0 3 3 < 7 B.y.L U.Y.T.Q M < 4 b 5 W.W.W.W.W.W.W.W.W.W.",
"W.W.W.W.W.W.W.W.O % 3 2 4 4 0 3 0 3 0 3 3 3 3 0 0 0 3 0 3 0 0 3 3 0 3 3 > x D.u.S c.Y.T.Q M < ! 8 o W.W.W.W.W.W.W.W.W.W.",
"W.W.W.W.W.W.W.W.W.% 3 2 2 2 3 3 3 3 0 3 0 3 3 3 3 3 0 3 3 0 3 0 3 3 3 2 % G G.M.x z.T.E.l.V W f.2 o W.W.W.W.W.W.W.W.W.W.",
"W.W.W.W.W.W.W.W.W.% % 3 4 2 4 2 3 0 3 0 0 0 0 0 0 3 0 3 3 3 3 3 3 3 3 3 % 7 u.G.I K U.T.T.c.x.J a # W.W.W.W.W.W.W.W.W.W.",
"W.W.W.W.W.W.W.W.W.W.+ < 2 3 3 4 3 3 3 3 3 3 3 3 3 3 3 3 3 3 3 6 0 3 3 4 > # 9 n.M.x K h.x.h.H b O.% W.W.W.W.W.W.W.W.W.W.",
"W.W.W.W.W.W.W.W.W.W.W.O % 4 3 2 2 4 3 2 3 4 2 3 3 3 3 3 3 0 6 0 3 3 3 < % l z a j.n.I q q 7 x T v O W.W.W.W.W.W.W.W.W.W.",
"W.W.W.W.W.W.W.W.W.W.W.W.o % 2 3 4 2 2 4 4 2 4 3 3 3 6 3 0 3 3 3 3 3 4 3 % d 1.m 5 T i.0.I x 7 c : + W.W.W.W.W.W.W.W.W.W.",
"W.W.W.W.W.W.W.W.W.W.W.W.W.+ O < 4 3 2 4 2 4 3 3 3 3 3 3 3 3 3 3 3 3 < 3 > : -.6.%.l : 9 i k $.,.j . W.W.W.W.W.W.W.W.W.W.",
"W.W.W.W.W.W.W.W.W.W.W.W.W.W.. O O < 2 2 3 2 2 3 3 3 3 3 3 3 3 3 3 2 2 2 % - +.5.5.-.=.>.d.>.>.+.e O W.W.W.W.W.W.W.W.W.W.",
"W.W.W.W.W.W.W.W.W.W.W.W.W.W.W.W.+ o O % < < 2 4 4 3 4 3 2 4 3 < < 2 4 2 % - [ 1.*.-.5.,.4.5.@.y O W.W.W.W.W.W.W.W.W.W.W.",
"W.W.W.W.W.W.W.W.W.W.W.W.W.W.W.W.W.W.. X O + % % % < < < 2 < 2 4 3 4 2 4 % & ` <.3.5.:.-.:.3.[ * + W.W.W.W.W.W.W.W.W.W.W.",
"W.W.W.W.W.W.W.W.W.W.W.W.W.W.W.W.W.W.W.W.W.. . O < % % % % O % % < < < < O O - j #.&.&.*.[ [ / # O W.W.W.W.W.W.W.W.W.W.W.",
"W.W.W.W.W.W.W.W.W.W.W.W.W.W.W.W.W.W.W.W.W.. % 6 w C w < + % O O % O O % X O O + u ] ' _ ' _ f O W.W.W.W.W.W.W.W.W.W.W.W.",
"W.W.W.W.W.W.W.W.W.W.W.W.W.W.W.W.W.W.W.W.W.O 3 w S H 7 O w S 3 3 B w w 0 6 0 < + $ ^ ^ ) ) ( y o W.W.W.W.W.W.W.W.W.W.W.W.",
"W.W.W.W.W.W.W.W.W.W.W.W.W.W.W.W.W.W.W.W.W.% 0 B Z 2 > 0 J L < w K L H C B B 3 O O f ) ) ) g O O W.W.W.W.W.W.W.W.W.W.W.W.",
"W.W.W.W.W.W.W.W.W.W.W.W.W.W.W.W.W.W.W.W.O 2 w w 2 O 0 B J C % S K L S C C w 0 O o @ g _ ( e O W.W.W.W.W.W.W.W.W.W.W.W.W.",
"W.W.W.W.W.W.W.W.W.W.W.W.W.W.W.W.W.W.W.W.O 6 w < > 7 w S S 7 2 J J Z C C B B 0 % X o t ) g # X W.W.W.W.W.W.W.W.W.W.W.W.W.",
"W.W.W.W.W.W.W.W.W.W.W.W.W.W.W.W.W.W.W.O % 2 < + < w C Z w O w S Z C Z B C w w 2 O O # t e O W.W.W.W.W.W.W.W.W.W.W.W.W.W.",
"W.W.W.W.W.W.W.W.W.W.W.W.W.W.W.W.W.W.W.% o < U b % < w w 2 < C Z Z Z Z B w w w 3 O W.O O o W.W.W.W.W.W.W.W.W.W.W.W.W.W.W.",
"W.W.W.W.W.W.W.W.W.W.W.W.W.W.W.W.W.W.W.O % X.C.H.e.3 > 2 O 0 S Z C C B B B w w 0 O W.W.O W.W.W.W.W.W.W.W.W.W.W.W.W.W.W.W.",
"W.W.W.W.W.W.W.W.W.W.W.W.W.W.W.W.W.W.W.+ i k.G.P.R.k.x O < w C C B B B B w w q 0 O o W.W.W.W.W.W.W.W.W.W.W.W.W.W.W.W.W.W.",
"W.W.W.W.W.W.W.W.W.W.W.W.W.W.W.W.W.W.W.o p b.F.K.K.J.k.5 5 C C B B B B C w w 0 0 % + W.W.W.W.W.W.W.W.W.W.W.W.W.W.W.W.W.W.",
"W.W.W.W.W.W.W.W.W.W.W.W.W.W.W.W.W.W.W.O , r.S.J.J.F.p.5 0 B B C C C B w w w w 3 < + W.W.W.W.W.W.W.W.W.W.W.W.W.W.W.W.W.W.",
"W.W.W.W.W.W.W.W.W.W.W.W.W.W.W.W.W.W.W.O O 8 r.B.Z.v.P < w B N x B B B w w w 0 0 % O W.W.W.W.W.W.W.W.W.W.W.W.W.W.W.W.W.W.",
"W.W.W.W.W.W.W.W.W.W.W.W.W.W.W.W.W.W.W.O 1 < 1 v G 8 @ 0 w w B x B B w B w 0 3 3 % O W.W.W.W.W.W.W.W.W.W.W.W.W.W.W.W.W.W.",
"W.W.W.W.W.W.W.W.W.W.W.W.W.W.W.W.W.W.W.O 3 3 3 < < 4 0 w w 0 w w w w 0 0 0 6 0 3 % O W.W.W.W.W.W.W.W.W.W.W.W.W.W.W.W.W.W.",
"W.W.W.W.W.W.W.W.W.W.W.W.W.W.W.W.W.W.W.O < 3 3 7 6 0 6 6 0 0 0 0 0 0 0 6 6 0 3 2 % o W.W.W.W.W.W.W.W.W.W.W.W.W.W.W.W.W.W.",
"W.W.W.W.W.W.W.W.W.W.W.W.W.W.W.W.W.W.W.O O O O O % < < < < < < < 2 < < < < < % < O O W.W.W.W.W.W.W.W.W.W.W.W.W.W.W.W.W.W.",
"W.W.W.W.W.W.W.W.W.W.W.W.W.W.W.W.W.W.W.W.W.W.o O + + O % O % O % + O % % + O O O O W.W.W.W.W.W.W.W.W.W.W.W.W.W.W.W.W.W.W.",
"W.W.W.W.W.W.W.W.W.W.W.W.W.W.W.W.W.W.W.W.W.W.W.W.O O % 7 7 7 7 2 # 2 5 % + W.W.W.W.W.W.W.W.W.W.W.W.W.W.W.W.W.W.W.W.W.W.W.",
"W.W.W.W.W.W.W.W.W.W.W.W.W.W.W.W.W.W.W.W.W.W.W.W.W.W.O 2 7 7 5 & O O O + W.W.W.W.W.W.W.W.W.W.W.W.W.W.W.W.W.W.W.W.W.W.W.W.",
"W.W.W.W.W.W.W.W.W.W.W.W.W.W.W.W.W.W.W.W.W.W.W.W.W.W.O % 2 % # O O O W.W.W.W.W.W.W.W.W.W.W.W.W.W.W.W.W.W.W.W.W.W.W.W.W.W.",
"W.W.W.W.W.W.W.W.W.W.W.W.W.W.W.W.W.W.W.W.W.W.W.W.W.W.W.O # X O O W.W.W.W.W.W.W.W.W.W.W.W.W.W.W.W.W.W.W.W.W.W.W.W.W.W.W.W.",
"W.W.W.W.W.W.W.W.W.W.W.W.W.W.W.W.W.W.W.W.W.W.W.W.W.W.W.O W.W.W.W.W.W.W.W.W.W.W.W.W.W.W.W.W.W.W.W.W.W.W.W.W.W.W.W.W.W.W.W.",
"W.W.W.W.W.W.W.W.W.W.W.W.W.W.W.W.W.W.W.W.W.W.W.W.W.W.W.W.W.W.W.W.W.W.W.W.W.W.W.W.W.W.W.W.W.W.W.W.W.W.W.W.W.W.W.W.W.W.W.W.",
"W.W.W.W.W.W.W.W.W.W.W.W.W.W.W.W.W.W.W.W.W.W.W.W.W.W.W.W.W.W.W.W.W.W.W.W.W.W.W.W.W.W.W.W.W.W.W.W.W.W.W.W.W.W.W.W.W.W.W.W.",
"W.W.W.W.W.W.W.W.W.W.W.W.W.W.W.W.W.W.W.W.W.W.W.W.W.W.W.W.W.W.W.W.W.W.W.W.W.W.W.W.W.W.W.W.W.W.W.W.W.W.W.W.W.W.W.W.W.W.W.W."
};
