/* XPM */
static xpm_row_t const p1_right_0[] = {
/* columns rows colors chars-per-pixel */
"60 80 171 2 ",
"   c #141413",
".  c #181715",
"X  c #1A1917",
"o  c #1C1B1A",
"O  c #171718",
"+  c #211F1B",
"@  c #201C17",
"#  c #22211E",
"$  c #2E2417",
"%  c #332618",
"&  c #3C2C18",
"*  c #372917",
"=  c #1F1F21",
"-  c #252423",
";  c #282725",
":  c #2B2A26",
">  c #2B2B2B",
",  c #24212A",
"<  c #332D24",
"1  c #332F2B",
"2  c #3B3526",
"3  c #32322C",
"4  c #3C352E",
"5  c #3A3523",
"6  c #242435",
"7  c #333333",
"8  c #383737",
"9  c #3C3A34",
"0  c #3B3B3B",
"q  c #462F18",
"w  c #463219",
"e  c #443C1B",
"r  c #593716",
"t  c #5A3718",
"y  c #533B18",
"u  c #643D17",
"i  c #413727",
"p  c #503822",
"a  c #433C34",
"s  c #483E35",
"d  c #403F3E",
"f  c #694419",
"g  c #764518",
"h  c #6D501A",
"j  c #70611D",
"k  c #4E4520",
"l  c #4C4237",
"z  c #40403F",
"x  c #4C4239",
"c  c #51453A",
"v  c #554A3E",
"b  c #655A26",
"n  c #7B6D31",
"m  c #363C5D",
"M  c #383747",
"N  c #403F40",
"B  c #3A4062",
"V  c #434343",
"C  c #484748",
"Z  c #4B4B4B",
"A  c #594E42",
"S  c #5D5144",
"D  c #504F50",
"F  c #535353",
"G  c #5A5A5A",
"H  c #585857",
"J  c #685A4B",
"K  c #655648",
"L  c #60605F",
"P  c #796654",
"I  c #7D6C5A",
"U  c #766654",
"Y  c #4F536A",
"T  c #6B6B6A",
"R  c #77787C",
"E  c #8A4F19",
"W  c #8D521A",
"Q  c #925519",
"!  c #9A5A19",
"~  c #965819",
"^  c #8D631D",
"/  c #9E6219",
"(  c #986718",
")  c #9F7C18",
"_  c #A4631A",
"`  c #B9771C",
"'  c #9A622F",
"]  c #82603F",
"[  c #A36D3B",
"{  c #916842",
"}  c #816D5A",
"|  c #836B53",
" . c #85715D",
".. c #91765B",
"X. c #A06D40",
"o. c #A77240",
"O. c #8D7963",
"+. c #86776B",
"@. c #8B7761",
"#. c #807F7F",
"$. c #BD991B",
"%. c #A99438",
"&. c #BBA02A",
"*. c #C68B17",
"=. c #CF9C14",
"-. c #D5A81E",
";. c #E6BB1B",
":. c #CE982A",
">. c #C49F31",
",. c #C4A829",
"<. c #D3AB22",
"1. c #D1B22C",
"2. c #D4A635",
"3. c #D9B538",
"4. c #E1B728",
"5. c #E8BC36",
"6. c #EDC41D",
"7. c #EAC423",
"8. c #EEC92A",
"9. c #F5CE28",
"0. c #F4D037",
"q. c #B4875C",
"w. c #9C846C",
"e. c #96816A",
"r. c #A3876B",
"t. c #AA8C71",
"y. c #A48A71",
"u. c #AF9075",
"i. c #BC9C7E",
"p. c #B69C7F",
"a. c #C08F61",
"s. c #C99A6F",
"d. c #CAA178",
"f. c #D1A67B",
"g. c #E0C241",
"h. c #6C6F80",
"j. c #6E7288",
"k. c #818080",
"l. c #8D8C8B",
"z. c #929191",
"x. c #BAA081",
"c. c #9F9FA0",
"v. c #ACADB5",
"b. c #B3B2B1",
"n. c #B2B3BA",
"m. c #C2A384",
"M. c #CEAD8C",
"N. c #C7AA89",
"B. c #D6AD83",
"V. c #D3AF8E",
"C. c #D5B08E",
"Z. c #DFBD99",
"A. c #DAB694",
"S. c #E2BC95",
"D. c #E5C29D",
"F. c #E9C39E",
"G. c #ECC6A1",
"H. c #EDC9A3",
"J. c #EFCBAA",
"K. c #F3CDA6",
"L. c #EFD0B6",
"P. c #F3D2B5",
"I. c #BDBDC2",
"U. c #CAC9C9",
"Y. c #CECDD0",
"T. c #D5D5D6",
"R. c #DEDDDD",
"E. c #D8D7D9",
"W. c #F8DDC9",
"Q. c #E1E0E0",
"!. c #00b140",
/* pixels */
"!.!.!.!.!.!.!.!.!.!.!.!.!.!.!.!.!.!.!.!.!.!.!.!.!.!.!.!.!.!.!.!.!.!.!.!.!.!.!.!.!.!.!.!.!.!.!.!.!.!.!.!.!.!.!.!.!.!.!.!.",
"!.!.!.!.!.!.!.!.!.!.!.!.!.!.!.!.!.!.!.!.!.!.!.!.!.!.!.!.!.!.!.!.!.!.!.!.!.!.!.!.!.!.!.!.!.!.!.!.!.!.!.!.!.!.!.!.!.!.!.!.",
"!.!.!.!.!.!.!.!.!.!.!.!.!.!.!.!.!.!.!.!.!.!.!.!.!.!.!.!.!.!.!.!.!.!.!.!.!.!.!.!.!.!.!.!.!.!.!.!.!.!.!.!.!.!.!.!.!.!.!.!.",
"!.!.!.!.!.!.!.!.!.!.!.!.!.!.!.!.!.!.!.!.!.!.!.!.!.!.!.!.!.!.!.!.!.!.!.!.!.!.!.!.!.!.!.!.!.!.!.!.!.!.!.!.!.!.!.!.!.!.!.!.",
"!.!.!.!.!.!.!.!.!.!.!.!.!.!.!.!.!.!.!.!.!.!.!.!.!.!.!.!.!.!.!.!.!.!.!.!.!.!.!.!.!.!.!.!.!.!.!.!.!.!.!.!.!.!.!.!.!.!.!.!.",
"!.!.!.!.!.!.!.!.!.!.!.!.!.!.!.!.!.!.!.!.!.!.o o o o !.!.!.!.!.!.!.!.!.!.!.!.!.!.!.!.!.!.!.!.!.!.!.!.!.!.!.!.!.!.!.!.!.!.",
"!.!.!.!.!.!.!.!.!.!.!.!.!.!.!.!.!.!.!.!.!.o o z C 8 : # o o X X X X !.!.!.!.!.!.!.!.!.!.!.!.!.!.!.!.!.!.!.!.!.!.!.!.!.!.",
"!.!.!.!.!.!.!.!.!.!.!.!.!.!.!.!.!.!.!.!.o + 7 F L G H F Z V z 0 7 : - o X !.!.!.!.!.!.!.!.!.!.!.!.!.!.!.!.!.!.!.!.!.!.!.",
"!.!.!.!.!.!.!.!.!.!.!.!.!.!.!.!.!.!.!.X - C F H G F G G G L L G G F F V 7 - o o !.!.!.!.!.!.!.!.!.!.!.!.!.!.!.!.!.!.!.!.",
"!.!.!.!.!.!.!.!.!.!.!.!.!.!.!.!.!.!.# 3 D G G H F F H G G G G G G G G G G F 0 - X !.!.!.!.!.!.!.!.!.!.!.!.!.!.!.!.!.!.!.",
"!.!.!.!.!.!.!.!.!.!.!.!.!.!.!.!.O = z G G H G H G G G G G G G G G G G G G G L F 0 # X !.!.!.!.!.!.!.!.!.!.!.!.!.!.!.!.!.",
"!.!.!.!.!.!.!.!.!.!.!.!.!.!.!.X > Z G F H H H H G G G G L G G G G G G G G G G G G Z : o !.!.!.!.!.!.!.!.!.!.!.!.!.!.!.!.",
"!.!.!.!.!.!.!.!.!.!.!.!.!.!.X > F G G G F G H H F G G G H G H G G G G G G G G G G G F 7 o o !.!.!.!.!.!.!.!.!.!.!.!.!.!.",
"!.!.!.!.!.!.!.!.!.!.!.!.!.X > F G F F H F G F F F F F F H H H H G G F G G G G G G G G G 0 + X !.!.!.!.!.!.!.!.!.!.!.!.!.",
"!.!.!.!.!.!.!.!.!.!.!.!.o > F G F D D F F F F D F F H F F F F H F G G G G G G G G G L G G V - X !.!.!.!.!.!.!.!.!.!.!.!.",
"!.!.!.!.!.!.!.!.!.!.!.o - F F F D F D F F F D F F F F F H F F F F F F F G H G G G G G G G G C # X !.!.!.!.!.!.!.!.!.!.!.",
"!.!.!.!.!.!.!.!.!.!.o o 7 Z Z C Z D D Z D D D D F D F F F F F H F F F H F F F F F H G G G G G V + X !.!.!.!.!.!.!.!.!.!.",
"!.!.!.!.!.!.!.!.!.!.o 3 z C Z C C C D D Z D D D D F D D F D D F F F F F G F H H F F F F H G G G V o !.!.!.!.!.!.!.!.!.!.",
"!.!.!.!.!.!.!.!.!.o - 7 z C C Z Z Z Z Z D D D D F D F D D F D D F F D D D F F F F H H F H H G G G 7 X !.!.!.!.!.!.!.!.!.",
"!.!.!.!.!.!.!.!.!.= 7 8 z C C C C Z Z D Z Z Z D D F D F D D D F D F F F Z D D F D F D F F D F F G F ; X !.!.!.!.!.!.!.!.",
"!.!.!.!.!.!.!.!.O > 8 0 0 C C V C C C Z Z Z D Z Z D D D D D D F D D F D F D D D F F D F D F D Z F G V o !.!.!.!.!.!.!.!.",
"!.!.!.!.!.!.!.!.= 7 8 7 0 0 C V z V C C C Z Z Z Z Z Z Z Z Z Z Z D F D F F F D F F D F Z D D D D F G H : X !.!.!.!.!.!.!.",
"!.!.!.!.!.!.!.o ; 7 8 8 0 0 0 C z z V C C C Z C Z Z Z Z Z Z Z C Z Z Z Z Z Z D Z Z F F D F D C C C V F V o !.!.!.!.!.!.!.",
"!.!.!.!.!.!.!.o > 8 8 8 0 0 0 z C z z V V C C C C C Z C Z Z D Z Z Z Z C C C Z C Z V Z C V V V z V d V C o !.!.!.!.!.!.!.",
"!.!.!.!.!.!.X - 3 8 0 0 0 z 0 0 z C V z N N V V V C C C C C C C Z Z C C C C Z C V V V V C C V N 0 0 0 0 o !.!.!.!.!.!.!.",
"!.!.!.!.!.!.o ; 7 8 8 0 0 0 z 0 0 0 z V V V z z V V V N z C V C V V V C C C C C C C V C V V V V V V 7 > o !.!.!.!.!.!.!.",
"!.!.!.!.!.!.= > 7 8 8 M 0 0 z z z 0 8 0 z V V V V V V N 0 0 z 0 N V V V V C V V V V V V z 8 0 0 0 0 7 - o !.!.!.!.!.!.!.",
"!.!.!.!.!.!.- > 7 8 8 0 0 0 M z z z 0 z 0 0 N V V V V N V V 0 0 z N V V N N V V z z 0 0 0 0 0 8 0 7 > o !.!.!.!.!.!.!.!.",
"!.!.!.!.!.o - > 7 0 8 8 z 0 z 0 z z z 0 z 0 0 0 N V C V C C C z z V V N N V N z M 0 0 0 8 0 0 8 7 : o o !.!.!.!.!.!.!.!.",
"!.!.!.!.!.X , > 7 8 8 8 0 0 0 0 0 z z 0 z z z 0 z 0 0 0 0 0 0 0 0 z z 0 z 0 0 0 8 8 0 8 8 7 7 1 ; o O !.!.!.!.!.!.!.!.!.",
"!.!.!.!.!.o - 1 7 8 0 8 7 0 0 z 0 0 z z 0 z z z 0 0 8 0 0 0 0 0 0 0 0 0 0 0 0 0 8 8 8 8 7 > ; = @ o !.!.!.!.!.!.!.!.!.!.",
"!.!.!.!.!.o ; 1 7 8 8 0 7 0 0 0 M 8 0 0 z z 0 0 M 0 0 0 0 0 0 0 0 0 0 0 0 0 0 7 8 7 7 > > = @ % u $ !.!.!.!.!.!.!.!.!.!.",
"!.!.!.!.!.O - 7 7 7 0 0 0 7 0 0 M 0 7 0 0 z M z 0 0 0 0 0 0 M z 0 0 M 0 0 0 7 0 7 > - o o o X r f @ !.!.!.!.!.!.!.!.!.!.",
"!.!.!.!.!.o > 3 > 7 7 0 0 7 7 0 z 0 0 0 8 0 0 0 z z 0 0 0 0 0 7 7 0 0 0 0 7 7 7 > # - l I  .l # X X !.!.!.!.!.!.!.!.!.!.",
"!.!.!.!.!.# > > 7 7 7 7 0 7 0 7 0 0 0 7 8 7 7 0 8 0 0 0 0 z z 0 0 7 0 7 7 7 7 - # 4 ..N.D.Z.x.a   !.!.!.!.!.!.!.!.!.!.!.",
"!.!.!.!.!.o > > 7 > 7 7 0 0 7 0 7 7 0 0 7 8 7 0 8 0 0 0 0 0 0 0 0 0 0 7 7 7 - o p { d.D.G.H.F.J   !.!.!.!.!.!.!.!.!.!.!.",
"!.!.!.!.!.# > > > > 7 7 7 7 0 0 0 7 8 8 0 7 7 7 8 0 8 0 0 7 0 0 0 8 0 7 7 ; o y E W W ' B.H.Z.P . !.!.!.!.!.!.!.!.!.!.!.",
"!.!.!.!.!.= > ; > > 7 7 0 7 0 7 0 8 8 8 7 0 0 7 7 7 7 7 7 0 7 7 7 7 7 3 > o 2 X.s.d.q.[ [ B.G. .X !.!.!.!.!.!.!.!.!.!.!.",
"!.!.!.!.!.# - > > > 7 > 7 7 0 7 8 0 0 8 0 7 8 7 0 7 7 7 7 7 7 7 7 7 7 3 # < r.t. .U I w.q.o.f...X !.!.!.!.!.!.!.!.!.!.!.",
"!.!.!.!.!.O - > - > > 7 7 7 7 7 8 7 8 7 7 7 0 0 7 7 7 0 7 7 7 7 7 7 7 > o P  .7 F T L 7 a ..q.] + !.!.!.!.!.!.!.!.!.!.!.",
"!.!.!.!.!.o # > - > > > 7 > 7 7 7 0 0 7 7 7 7 7 7 7 0 7 7 7 7 7 > 7 7 , : x.S k.U.R.Y.Y 6 ; } | @ !.!.!.!.!.!.!.!.!.!.!.",
"!.!.!.!.!.o o : > > 7 > > 7 > 7 > 7 > 7 7 7 7 7 7 7 7 7 7 7 7 > 7 > > = A D.S z.Y.Q.v.m 6 , 7 4 o !.!.!.!.!.!.!.!.!.!.!.",
"!.!.!.!.!.!.o ; > - > > > 7 > 7 7 7 > 7 7 7 7 7 7 > 7 7 7 > 7 7 > > > o  .K.J k.Y.R.n.m 6 M R o X !.!.!.!.!.!.!.!.!.!.!.",
"!.!.!.!.!.!.o # - > > > > > > > > > 3 > > > 7 > > 7 > > > 7 7 > 3 > > o e.K.O.H U.R.T.j.B h.T o o !.!.!.!.!.!.!.!.!.!.!.",
"!.!.!.!.!.!.!.# > - - > > 7 7 > 7 > > > > > 7 > 7 7 > 7 7 7 > > > > ; = I H.M.a z.T.Q.T.I.c.9 c X !.!.!.!.!.!.!.!.!.!.!.",
"!.!.!.!.!.!.!.o - > > > - > > > > 7 7 > 7 > 7 > > > > > > > > 7 > > ; o - I G.w.9 #.b.b.l.0 U } o !.!.!.!.!.!.!.!.!.!.!.",
"!.!.!.!.!.!.!.!.o > > > > 6 > > 7 > 7 7 > 7 7 > 7 > > > > > 7 > > > , o 5 5 I Z.r.x 9 9 4 v v < X !.!.!.!.!.!.!.!.!.!.!.",
"!.!.!.!.!.!.!.!.O o > - > - > > > > > > > > > > > > > > 7 7 7 > > > ; = b %.5 c w.p.e.J 9 < b k X !.!.!.!.!.!.!.!.!.!.!.",
"!.!.!.!.!.!.!.!.!.X o - : > , > > > ; > ; > > > > > 3 7 7 > > > > - : = e 7.3.n 5 < 2 5 j ,.7.h O !.!.!.!.!.!.!.!.!.!.!.",
"!.!.!.!.!.!.!.!.!.!.X o - : > > > , ; ; > > > > > > > > > > > > > > > - % $.9.0.<.$.,.g.1.&.) & X !.!.!.!.!.!.!.!.!.!.!.",
"!.!.!.!.!.!.!.!.!.!.!.  o o = ; : > > - , > > > > > > > > > ; > , ; ; ; + _ 4.<.-.6.4.6.8.>.y o !.!.!.!.!.!.!.!.!.!.!.!.",
"!.!.!.!.!.!.!.!.!.!.!.!.!.  o o - - - > ; ; > , > > , > ; > ; - ; > ; - # ^ 2.3.4.6.;.;.5.:.y O !.!.!.!.!.!.!.!.!.!.!.!.",
"!.!.!.!.!.!.!.!.!.!.!.!.!.!.!.  X o o # = - ; ; - ; > - > - ; > ; > ; - X w ^ 2.<.*.=.*.` / * X !.!.!.!.!.!.!.!.!.!.!.!.",
"!.!.!.!.!.!.!.!.!.!.!.!.!.!.!.!.!.!.  X O o o o o o O = = = + = = # = o X X o w / ` ! / ~ W % !.!.!.!.!.!.!.!.!.!.!.!.!.",
"!.!.!.!.!.!.!.!.!.!.!.!.!.!.!.!.!.!.!.!.!.  # > 7 7 7 > o o o o - # # = - + X X f ~ W Q ~ f @ !.!.!.!.!.!.!.!.!.!.!.!.!.",
"!.!.!.!.!.!.!.!.!.!.!.!.!.!.!.!.!.!.!.!.!.# 7 z D F D z # 0 3 - V V z 0 0 7 X X & W Q Q Q & X !.!.!.!.!.!.!.!.!.!.!.!.!.",
"!.!.!.!.!.!.!.!.!.!.!.!.!.!.!.!.!.!.!.!.o : 8 C D H H 7 ; H Z # C H Z V z 8 = O o q E ! g + !.!.!.!.!.!.!.!.!.!.!.!.!.!.",
"!.!.!.!.!.!.!.!.!.!.!.!.!.!.!.!.!.!.!.!.o 7 0 C Z F F - > D F : 7 D V z z 0 ; o X + g ~ r o !.!.!.!.!.!.!.!.!.!.!.!.!.!.",
"!.!.!.!.!.!.!.!.!.!.!.!.!.!.!.!.!.!.!.X # 8 z C Z F Z = > Z D > ; V C z z 0 3 o !.o % t % . !.!.!.!.!.!.!.!.!.!.!.!.!.!.",
"!.!.!.!.!.!.!.!.!.!.!.!.!.!.!.!.!.!.!.o - 0 0 V Z F V o 7 V Z 7 # z C z z 0 7 = X !.X o o !.!.!.!.!.!.!.!.!.!.!.!.!.!.!.",
"!.!.!.!.!.!.!.!.!.!.!.!.!.!.!.!.!.!.!.o > z 0 z V Z 8 o 7 V V 7 = 0 N z z 0 7 , X !.!.X !.!.!.!.!.!.!.!.!.!.!.!.!.!.!.!.",
"!.!.!.!.!.!.!.!.!.!.!.!.!.!.!.!.!.!.!.+ > 0 0 z V V > # 7 9 8 7 o 7 N z z 0 8 > X !.!.!.!.!.!.!.!.!.!.!.!.!.!.!.!.!.!.!.",
"!.!.!.!.!.!.!.!.!.!.!.!.!.!.!.!.!.!.!.= 3 0 0 V V V > o @ # + = O > z z 0 0 8 > o !.!.!.!.!.!.!.!.!.!.!.!.!.!.!.!.!.!.!.",
"!.!.!.!.!.!.!.!.!.!.!.!.!.!.!.!.!.!.o = > 8 0 z V 0 # v I R +.I v - 0 z 0 z 7 3 o !.!.!.!.!.!.!.!.!.!.!.!.!.!.!.!.!.!.!.",
"!.!.!.!.!.!.!.!.!.!.!.!.!.!.!.!.!.!.o # 7 8 0 z z > 4 M.P.W.P.G.i.< 3 0 z 0 7 > o !.!.!.!.!.!.!.!.!.!.!.!.!.!.!.!.!.!.!.",
"!.!.!.!.!.!.!.!.!.!.!.!.!.!.!.!.!.!.X # > 7 0 0 V > v A.H.L.P.H.M.a 3 0 0 8 7 > = !.!.!.!.!.!.!.!.!.!.!.!.!.!.!.!.!.!.!.",
"!.!.!.!.!.!.!.!.!.!.!.!.!.!.!.!.!.!.X = > 7 8 0 0 1 9 m.G.J.H.S.t.# 7 0 8 8 > > o !.!.!.!.!.!.!.!.!.!.!.!.!.!.!.!.!.!.!.",
"!.!.!.!.!.!.!.!.!.!.!.!.!.!.!.!.!.!.o # : 7 7 7 0 7 = K i.C.C.u.z - 7 8 7 > 7 > o !.!.!.!.!.!.!.!.!.!.!.!.!.!.!.!.!.!.!.",
"!.!.!.!.!.!.!.!.!.!.!.!.!.!.!.!.!.!.X o : 1 7 7 7 7 > # < c x : # > 7 3 7 7 > ; # !.!.!.!.!.!.!.!.!.!.!.!.!.!.!.!.!.!.!.",
"!.!.!.!.!.!.!.!.!.!.!.!.!.!.!.!.!.!.!.o o = # # - - - - o o o + - ; - - o # # + o !.!.!.!.!.!.!.!.!.!.!.!.!.!.!.!.!.!.!.",
"!.!.!.!.!.!.!.!.!.!.!.!.!.!.!.!.!.!.!.!.!.X - # # # # @ o o o o @ @ o o o O o !.!.!.!.!.!.!.!.!.!.!.!.!.!.!.!.!.!.!.!.!.",
"!.!.!.!.!.!.!.!.!.!.!.!.!.!.!.!.!.!.!.!.!.X - 3 3 3 < - o @ o - # # # o ; - o !.!.!.!.!.!.!.!.!.!.!.!.!.!.!.!.!.!.!.!.!.",
"!.!.!.!.!.!.!.!.!.!.!.!.!.!.!.!.!.!.!.!.!.o # : < < : @ ; a # # + + o o # # o !.!.!.!.!.!.!.!.!.!.!.!.!.!.!.!.!.!.!.!.!.",
"!.!.!.!.!.!.!.!.!.!.!.!.!.!.!.!.!.!.!.!.!.o + + o + o X + # o X o o o X o @ o !.!.!.!.!.!.!.!.!.!.!.!.!.!.!.!.!.!.!.!.!.",
"!.!.!.!.!.!.!.!.!.!.!.!.!.!.!.!.!.!.!.!.!.!.o o o o o o o o o !.!.!.!.!.!.!.!.!.!.!.!.!.!.!.!.!.!.!.!.!.!.!.!.!.!.!.!.!.",
"!.!.!.!.!.!.!.!.!.!.!.!.!.!.!.!.!.!.!.!.!.!.!.!.!.!.!.!.!.!.!.!.!.!.!.!.!.!.!.!.!.!.!.!.!.!.!.!.!.!.!.!.!.!.!.!.!.!.!.!.",
"!.!.!.!.!.!.!.!.!.!.!.!.!.!.!.!.!.!.!.!.!.!.!.!.!.!.!.!.!.!.!.!.!.!.!.!.!.!.!.!.!.!.!.!.!.!.!.!.!.!.!.!.!.!.!.!.!.!.!.!.",
"!.!.!.!.!.!.!.!.!.!.!.!.!.!.!.!.!.!.!.!.!.!.!.!.!.!.!.!.!.!.!.!.!.!.!.!.!.!.!.!.!.!.!.!.!.!.!.!.!.!.!.!.!.!.!.!.!.!.!.!.",
"!.!.!.!.!.!.!.!.!.!.!.!.!.!.!.!.!.!.!.!.!.!.!.!.!.!.!.!.!.!.!.!.!.!.!.!.!.!.!.!.!.!.!.!.!.!.!.!.!.!.!.!.!.!.!.!.!.!.!.!.",
"!.!.!.!.!.!.!.!.!.!.!.!.!.!.!.!.!.!.!.!.!.!.!.!.!.!.!.!.!.!.!.!.!.!.!.!.!.!.!.!.!.!.!.!.!.!.!.!.!.!.!.!.!.!.!.!.!.!.!.!."
};
