/* XPM */
static const char *exit_sp[] = {
/* columns rows colors chars-per-pixel */
"100 100 2 1 ",
"  c #00b140",
". c #FFFFFF",
/* pixels */
"                                                                                                    ",
"                                                                                                    ",
"                                                                                                    ",
"                                                                                                    ",
"                                                                                                    ",
"                                                                                                    ",
"                                                                                                    ",
"                                                                                                    ",
"                                                                                                    ",
"                                                                                                    ",
"                                                                                                    ",
"                                                                                                    ",
"                                                                                                    ",
"                                                                                                    ",
"                                                                                                    ",
"                                                                                                    ",
"                                                                                                    ",
"                                                                                                    ",
"                                                                                                    ",
"                                                                                                    ",
"                                                                                                    ",
"                                                                                                    ",
"                                                                                                    ",
"                                                                                                    ",
"                                                                                                    ",
"                                                                                                    ",
"                                      ....                                                          ",
"                                     ......                                                         ",
"                                    ........                                                        ",
"                                   .........                                                        ",
"                                  ..........                                                        ",
"                                 ...........                                                        ",
"                                ...........                                                         ",
"                               ...........                                                          ",
"                              ...........                                                           ",
"                             ...........                                                            ",
"                            ...........                                                             ",
"                           ...........                                                              ",
"                          ...........                                                               ",
"                         ...........                                                                ",
"                        ...........                                                                 ",
"                       ...........                                                                  ",
"                      ...........                                                                   ",
"                     ...........                                                                    ",
"                    ...........                                                                     ",
"                   ...........                                                                      ",
"                  ................................................................                  ",
"                 ..................................................................                 ",
"                ....................................................................                ",
"               .....................................................................                ",
"               .....................................................................                ",
"                ....................................................................                ",
"                 ..................................................................                 ",
"                  ................................................................                  ",
"                   ...........                                                                      ",
"                    ...........                                                                     ",
"                     ...........                                                                    ",
"                      ...........                                                                   ",
"                       ...........                                                                  ",
"                        ...........                                                                 ",
"                         ...........                                                                ",
"                          ...........                                                               ",
"                           ...........                                                              ",
"                            ...........                                                             ",
"                             ...........                                                            ",
"                              ...........                                                           ",
"                               ...........                                                          ",
"                                ...........                                                         ",
"                                 ...........                                                        ",
"                                  ..........                                                        ",
"                                   .........                                                        ",
"                                    ........                                                        ",
"                                     ......                                                         ",
"                                      ....                                                          ",
"                                                                                                    ",
"                                                                                                    ",
"                                                                                                    ",
"                                                                                                    ",
"                                                                                                    ",
"                                                                                                    ",
"                                                                                                    ",
"                                                                                                    ",
"                                                                                                    ",
"                                                                                                    ",
"                                                                                                    ",
"                                                                                                    ",
"                                                                                                    ",
"                                                                                                    ",
"                                                                                                    ",
"                                                                                                    ",
"                                                                                                    ",
"                                                                                                    ",
"                                                                                                    ",
"                                                                                                    ",
"                                                                                                    ",
"                                                                                                    ",
"                                                                                                    ",
"                                                                                                    ",
"                                                                                                    ",
"                                                                                                    "
};
