/* XPM */
static const char *exit_sp[] = {
/* columns rows colors chars-per-pixel */
"80 80 179 2 ",
"   c #7E2535",
".  c #7B2835",
"X  c #7A2935",
"o  c #6E3736",
"O  c #693B37",
"+  c #703436",
"@  c #713738",
"#  c #00b140",
"$  c #00b140",
"%  c #00b140",
"&  c #00b140",
"*  c #5E4938",
"=  c #4B5D3A",
"-  c #565139",
";  c #505839",
":  c #644137",
">  c #00b140",
",  c #00b140",
"<  c #00b140",
"1  c #7D4641",
"2  c #754D41",
"3  c #6C5541",
"4  c #645B41",
"5  c #675F4A",
"6  c #725A4E",
"7  c #75584E",
"8  c #7A5A53",
"9  c #7D5F57",
"0  c #7E5E57",
"q  c #486C40",
"w  c #4D6F40",
"e  c #4E6E40",
"r  c #5E6141",
"t  c #596541",
"y  c #447740",
"u  c #407A40",
"i  c #58734E",
"p  c #5B7752",
"a  c #65614A",
"s  c #60684B",
"d  c #60684C",
"f  c #831E34",
"g  c #831F35",
"h  c #841E34",
"j  c #881934",
"k  c #891934",
"l  c #891935",
"z  c #8A1935",
"x  c #881A35",
"c  c #8B1A35",
"v  c #891B36",
"b  c #8C1A36",
"n  c #8D1A36",
"m  c #8E1A36",
"M  c #8F1A37",
"N  c #8A1E38",
"B  c #8B1E38",
"V  c #901A37",
"C  c #911B37",
"Z  c #911B38",
"A  c #921B38",
"S  c #941B38",
"D  c #951B39",
"F  c #961B39",
"G  c #961C39",
"H  c #981C3A",
"J  c #991C3A",
"K  c #9A1C3B",
"L  c #9B1C3B",
"P  c #9C1D3C",
"I  c #9D1D3C",
"U  c #9F1D3D",
"Y  c #A01D3D",
"T  c #A11D3D",
"R  c #A11D3E",
"E  c #A11E3E",
"W  c #A31E3E",
"Q  c #A41E3F",
"!  c #A51E3F",
"~  c #A61E3F",
"^  c #822035",
"/  c #87253A",
"(  c #8C203A",
")  c #8C213B",
"_  c #88273C",
"`  c #8E243D",
"'  c #A71F40",
"]  c #A81F40",
"[  c #A91F40",
"{  c #A91F41",
"}  c #AA1F41",
"|  c #8F2C43",
" . c #8E2D43",
".. c #8C2F43",
"X. c #8D2F43",
"o. c #912A43",
"O. c #9D2A41",
"+. c #992D41",
"@. c #982E41",
"#. c #873544",
"$. c #893143",
"%. c #8B3941",
"&. c #893C41",
"*. c #8B3848",
"=. c #903046",
"-. c #90384B",
";. c #903A4C",
":. c #A32541",
">. c #A22641",
",. c #A42441",
"<. c #A52441",
"1. c #AA3E56",
"2. c #AC3F56",
"3. c #AC3F57",
"4. c #834041",
"5. c #88454E",
"6. c #834F51",
"7. c #864D51",
"8. c #844F51",
"9. c #8E5058",
"0. c #00b140",
"q. c #00b140",
"w. c #00b140",
"e. c #00b140",
"r. c #00b140",
"t. c #00b140",
"y. c #00b140",
"u. c #00b140",
"i. c #00b140",
"p. c #00b140",
"a. c #00b140",
"s. c #00b140",
"d. c #00b140",
"f. c #00b140",
"g. c #00b140",
"h. c #00b140",
"j. c #00b140",
"k. c #00b140",
"l. c #00b140",
"z. c #00b140",
"x. c #00b140",
"c. c #00b140",
"v. c #00b140",
"b. c #00b140",
"n. c #00b140",
"m. c #00b140",
"M. c #00b140",
"N. c #00b140",
"B. c #00b140",
"V. c #00b140",
"C. c #00b140",
"Z. c #00b140",
"A. c #00b140",
"S. c #00b140",
"D. c #00b140",
"F. c #00b140",
"G. c #00b140",
"H. c #00b140",
"J. c #00b140",
"K. c #00b140",
"L. c #00b140",
"P. c #00b140",
"I. c #00b140",
"U. c #00b140",
"Y. c #00b140",
"T. c #00b140",
"R. c #00b140",
"E. c #00b140",
"W. c #00b140",
"Q. c #00b140",
"!. c #00b140",
"~. c #00b140",
"^. c #00b140",
"/. c #00b140",
"(. c #00b140",
"). c #00b140",
"_. c #00b140",
"`. c #00b140",
"'. c #00b140",
/* pixels */
"F.F.F.F.F.F.F.F.F.F.F.F.F.F.F.F.F.F.F.F.F.F.F.F.F.F.F.F.F.F.b.V.u r 2 &.} } } } } } } } &.2 r u V.b.F.F.F.F.F.F.F.F.F.F.F.F.F.F.F.F.F.F.F.F.F.F.F.F.F.F.F.F.F.F.",
"F.F.F.F.F.F.F.F.F.F.F.F.F.F.F.F.F.F.F.F.F.F.F.F.F.F.F.V.y 3 O.} } } } } } } } } } } } } } } } } } O.3 y V.F.F.F.F.F.F.F.F.F.F.F.F.F.F.F.F.F.F.F.F.F.F.F.F.F.F.F.",
"F.F.F.F.F.F.F.F.F.F.F.F.F.F.F.F.F.F.F.F.F.F.F.F.M.k.1 ,.} } } } } } } } } } } } } } } } } } } } } } } } ,.1 k.M.F.F.F.F.F.F.F.F.F.F.F.F.F.F.F.F.F.F.F.F.F.F.F.F.",
"F.F.F.F.F.F.F.F.F.F.F.F.F.F.F.F.F.F.F.F.F.F.f.t +.} } } } } } } } } } } } } } } } } } } } } } } } } } } } } } +.t f.F.F.F.F.F.F.F.F.F.F.F.F.F.F.F.F.F.F.F.F.F.F.",
"F.F.F.F.F.F.F.F.F.F.F.F.F.F.F.F.F.F.F.F.C.4 ,.} } } } } } } } } } } } } } } } } } } } } } } } } } } } } } } } } } ,.4 C.F.F.F.F.F.F.F.F.F.F.F.F.F.F.F.F.F.F.F.F.",
"F.F.F.F.F.F.F.F.F.F.F.F.F.F.F.F.F.F.n.e +.} } } } } } } } } } } } } } } } } } } } } } } } } } } } } } } } } } } } } } +.e n.F.F.F.F.F.F.F.F.F.F.F.F.F.F.F.F.F.F.",
"F.F.F.F.F.F.F.F.F.F.F.F.F.F.F.F.F.g.4.} } } } } } } } } } } } } } } } } } } } } } } } } } } } } } } } } } } } } } } } } } 4.g.F.F.F.F.F.F.F.F.F.F.F.F.F.F.F.F.F.",
"F.F.F.F.F.F.F.F.F.F.F.F.F.F.F.n.e ,.} } } } } } } } } } } } } } } } } } } } } } } } } } } } } } } } } } } } } } } } } } } } ,.e n.F.F.F.F.F.F.F.F.F.F.F.F.F.F.F.",
"F.F.F.F.F.F.F.F.F.F.F.F.F.F.c.2 } } } } } } } } } } } } } } } } } } } } } } } } } } } } } } } } } } } } } } } } } } } } } } } } 2 c.F.F.F.F.F.F.F.F.F.F.F.F.F.F.",
"F.F.F.F.F.F.F.F.F.F.F.F.F.c.%.} } } } } } } } } } } } } } } } } } } } } } } } } } } } } } } } } } } } } } } } } } } } } } } } } } %.c.F.F.F.F.F.F.F.F.F.F.F.F.F.",
"F.F.F.F.F.F.F.F.F.F.F.F.j.:.} } } } } } } } } } } } } } } } } } } } } } } } } } } } } } } } } } } } } } } } } } } } } } } } } } } } :.j.F.F.F.F.F.F.F.F.F.F.F.F.",
"F.F.F.F.F.F.F.F.F.F.F.j.:.} } } } } } } } } } } } } } } } } } } } } } } } } } } } } } } } } } } } } } } } } } } } } } } } } } } } } } :.j.F.F.F.F.F.F.F.F.F.F.F.",
"F.F.F.F.F.F.F.F.F.F.j.:.} } } } } } } } } } } } } } } } } } } } } } } } } } } } } } } } } } } } } } } } } } } } } } } } } } } } } } } } :.j.F.F.F.F.F.F.F.F.F.F.",
"F.F.F.F.F.F.F.F.F.c.:.} } } } } } } } } } } } } } } } } } } } } } } } } } } } } } } } } } } } } } } } } } } } } } } } } } } } } } } } } } :.c.F.F.F.F.F.F.F.F.F.",
"F.F.F.F.F.F.F.F.c.%.} } } } } } } } } } } } } } } } } } } } } } } } } } } } } } } } } } } } } } } } } } } } } } } } } } } } } } } } } } } } %.c.F.F.F.F.F.F.F.F.",
"F.F.F.F.F.F.F.n.2 } } } } } } } } } } } } } } } } } } } } } } } } } } } } } } } } } } } } } } } } } } } } } } } } } } } } } } } } } } } } } } 2 n.F.F.F.F.F.F.F.",
"F.F.F.F.F.F.F.e } } } } } } } } } } } } } } } } } } } } } } } } } } } } } } } } } } } } } } } } } } } } } } } } } } } } } } } } } } } } } } } } e F.F.F.F.F.F.F.",
"F.F.F.F.F.F.g.,.} } } } } } } } } } } } } } } } } } } } } } } } } } } } } } } } } } } } } } } } } } } } } } } } } } } } } } } } } } } } } } } } ,.g.F.F.F.F.F.F.",
"F.F.F.F.F.n.4.} } } } } } } } } } } } } } } } } } } } } } } } } } } } } } } } } } } } } } } } } } } } } } } } } } } } } } } } } } } } } } } } } } 4.n.F.F.F.F.F.",
"F.F.F.F.F.e } } } } } } } } } } } } } } } } } } } } } } } } ! } } } } } } } } } } } } } } } } } } } } } } } } } } } } } } } } } } } } } } } } } } } e F.F.F.F.F.",
"F.F.F.F.C.+.} } } } } } } } } } } } } } 3.(.I.F.F.F.F.F.F.F.F.F.F.F.F.F.F.F.F.F.F.F.F.F.F.F.F.F.F.F.F.F.F.F.F.F.F.I.(.1.} } } } } } } } } } } } } } +.C.F.F.F.F.",
"F.F.F.F.4 } } } } } } } } } } } } } } } (.F.F.F.F.F.F.F.F.F.F.F.F.F.F.F.F.F.F.F.F.F.F.F.F.F.F.F.F.F.F.F.F.F.F.F.F.F.F.~.Y } } } } } } } } } } } } } } 4 F.F.F.F.",
"F.F.F.f.,.} } } } } } } } } } } } } } } I.F.F.F.F.F.F.F.F.F.F.F.F.F.F.F.F.F.F.F.F.F.F.F.F.F.F.F.F.F.F.F.F.F.F.F.F.F.F.I.j L } } } } } } } } } } } } } ,.f.F.F.F.",
"F.F.F.t } } } } } } } } } } } } } } } } F.F.F.F.F.F.F.F.F.F.F.F.F.F.F.F.F.F.F.F.F.F.F.F.F.F.F.F.F.F.F.F.F.F.F.F.F.F.F.F.j j G } } } } } } } } } } } } } t F.F.F.",
"F.F.M.+.} } } } } } } } } } } } } } } } F.F.F.F.F.F.F.F.F.F.F.F.F.F.F.F.F.F.F.F.F.F.F.F.F.F.F.F.F.F.F.F.F.F.F.F.F.F.F.F.j j j A } } } } } } } } } } } } +.M.F.F.",
"F.F.k.} } } } } } } } } } } } } } } } } F.F.F.F.F.j j j j j j j j j j j j j j j j j j j j j j j j j j j j j & F.F.F.F.F.j j j j b ! } } } } } } } } } } } k.F.F.",
"F.F.1 } } } } } } } } } } } } } } } } } F.F.F.F.F.j j j j j j j j j j j j j j j j j j j j j j j j j j j j j & F.F.F.F.F.j j j j j j Y } } } } } } } } } } 1 F.F.",
"F.V.,.} } } } } } } } } } } } } } } } } F.F.F.F.F.j j j j j j j j j j j j j j j j j j j j j j j j j j j j j & F.F.F.F.F.j j j j j j j P } } } } } } } } } ,.V.F.",
"F.y } } } } } } } } } } } } } } } } } } F.F.F.F.F.j j j j j j j j j j j j j j j j j j j j j j j j j j j j j & F.F.F.F.F.j j j j j j j j L } } } } } } } } } y F.",
"F.3 } } } } } } } } } } } } } } } } } } F.F.F.F.F.j j j j j j j j j j j j j j j j j j j j j j j j j j j j j & F.F.F.F.F.j j j j j j j j j D } } } } } } } } 3 F.",
"b.O.} } } } } } } } } } } } } } } } } } F.F.F.F.F.j j j j j j j j j -.d a | j j j j j j j j j j j j j j j j & F.F.F.F.F.j j j j j j j j j j C ! } } } } } } O.b.",
"V.} } } } } } } } } } } } } } } } } } } F.F.F.F.F.j j j j j j j j 8.A.F.F.'.=.j j j j j j j j j j j j j j j & F.F.F.F.F.j j j j j j j j j j j b Y } } } } } } V.",
"u } } } } } } } } } } } } } } } } } } } F.F.F.F.F.j j j j j j j 6.D.F.F.F.F.s j j j j j j j j j j j j j j j & F.F.F.F.F.j j j j j j j j j j j j j P } } } } } u ",
"r } } } } } } } } } } } } } } } } } } } F.F.F.F.F.j j j j j j 8.D.F.F.F.F.F.i j j j j j j j j j j j j j j j & F.F.F.F.F.j j j j j j j j j j j j j j L } } } } r ",
"2 } } } } } } } } } } } } } } } } } } } F.F.F.F.F.j j j j j 8.A.F.F.F.F.F.K.5.j j j j j j j j j j j j j j j & F.F.F.F.F.j j j j j j j j j j j j j j j D } } } 2 ",
"&.} } } } } } } } } } } } } } } } } } } F.F.F.F.F.j j j j 8.U.F.F.F.F.F.N.0 j j j j j j j j j j j j j j j j & F.F.F.F.F.j j j j j j j j j j j j j j j j A ' } &.",
"} } } } } } } } } } } } } } } } } } } } F.F.F.F.F.j j j 8.A.F.F.F.F.F.N.0 j j j j j j j j j j j j j j j j j & F.F.F.F.F.j j j j j j j j j j j j j j j j j b ! } ",
"} } } } } } } } } } } } } } } } } } } } F.F.F.F.F.j j 6.D.F.F.F.F.F.F.N.q.q.q.q.q.q.q.q.q.q.q.q.q.q.d.)._ j & F.F.F.F.F.j j j j j j j j j j j j j j j j j j b Y ",
"} } } } } } } } } } } } } } } } } } } } F.F.F.F.F.j #.Z.F.F.F.F.F.F.F.F.F.F.F.F.F.F.F.F.F.F.F.F.F.F.F.F._.j & F.F.F.F.F.j j j j j j j j j j j j j j j j j j j j ",
"} } } } } } } } } } } } } } } } } } } } F.F.F.F.F.j 5 F.F.F.F.F.F.F.F.F.F.F.F.F.F.F.F.F.F.F.F.F.F.F.F.F.T.o.& F.F.F.F.F.j j j j j j j j j j j j j j j j j j j j ",
"} } } } } } } } } } } } } } } } } } } } F.F.F.F.F.j 8 F.F.F.F.F.F.F.F.F.F.F.F.F.F.F.F.F.F.F.F.F.F.F.F.F.Y.` & F.F.F.F.F.j j j j j j j j j j j j j j j j j j j j ",
"} } } } } } } } } } } } } } } } } } } } F.F.F.F.F.j / l.F.F.F.F.F.F.F.F.F.F.F.F.F.F.F.F.F.F.F.F.F.F.F.K.0.j & F.F.F.F.F.j j j j j j j j j j j j j j j j j j j j ",
"} } } } } } } } } } } } } } } } } } } } F.F.F.F.F.j j | z.F.F.F.F.F.F.D.q > > > > > > > > > > > > > < 9.j j & F.F.F.F.F.j j j j j j j j j j j j j j j j j j j j ",
"} } } } } } } } } } } } } } } } } } } } F.F.F.F.F.j j j | z.F.F.F.F.F.F.E.( j j j j j j j j j j j j j j j j & F.F.F.F.F.j j j j j j j j j j j j j j j j j j j j ",
"&.} } } } } } } } } } } } } } } } } } } F.F.F.F.F.j j j j | R.F.F.F.F.F.F.W.B j j j j j j j j j j j j j j j & F.F.F.F.F.j j j j j j j j j j j j j j j j j j j o ",
"2 } } } } } } } } } } } } } } } } } } } F.F.F.F.F.j j j j j | z.F.F.F.F.F.F.7 j j j j j j j j j j j j j j j & F.F.F.F.F.j j j j j j j j j j j j j j j j j j j * ",
"r } } } } } } } } } } } } } } } } } } } F.F.F.F.F.j j j j j j | z.F.F.F.F.F.p j j j j j j j j j j j j j j j & F.F.F.F.F.j j j j j j j j j j j j j j j j j j j = ",
"u } } } } } } } } } } } } } } } } } } } F.F.F.F.F.j j j j j j j | z.F.F.F.J.6 j j j j j j j j j j j j j j j & F.F.F.F.F.j j j j j j j j j j j j j j j j j j j & ",
"V.} } } } } } } } } } } } } } } } } } } F.F.F.F.F.j j j j j j j j | Q.F.H.`.( j j j j j j j j j j j j j j j & F.F.F.F.F.j j j j j j j j j j j j j j j j j j j p.",
"b.O.} } } } } } } } } } } } } } } } } } F.F.F.F.F.j j j j j j j j j B *.$.j j j j j j j j j j j j j j j j j & F.F.F.F.F.j j j j j j j j j j j j j j j j j j   b.",
"F.3 } } } } } } } } } } } } } } } } } } F.F.F.F.F.j j j j j j j j j j j j j j j j j j j j j j j j j j j j j & F.F.F.F.F.j j j j j j j j j j j j j j j j j j - F.",
"F.y } } } } } } } } } } } } } } } } } } F.F.F.F.F.j j j j j j j j j j j j j j j j j j j j j j j j j j j j j & F.F.F.F.F.j j j j j j j j j j j j j j j j j j % F.",
"F.V.,.} } } } } } } } } } } } } } } } } F.F.F.F.F.j j j j j j j j j j j j j j j j j j j j j j j j j j j j j & F.F.F.F.F.j j j j j j j j j j j j j j j j j f p.F.",
"F.F.1 } } } } } } } } } } } } } } } } } F.F.F.F.F.j j j j j j j j j j j j j j j j j j j j j j j j j j j j j & F.F.F.F.F.j j j j j j j j j j j j j j j j j : F.F.",
"F.F.k.} } } } } } } } } } } } } } } } } F.F.F.F.F.* * * * * * * * * * * * * * * * * * * * * * * * * * * * * y.F.F.F.F.F.j j j j j j j j j j j j j j j j j t.F.F.",
"F.F.M.+.} } } } } } } } } } } } } } } } F.F.F.F.F.F.F.F.F.F.F.F.F.F.F.F.F.F.F.F.F.F.F.F.F.F.F.F.F.F.F.F.F.F.F.F.F.F.F.F.j j j j j j j j j j j j j j j j X s.F.F.",
"F.F.F.t } } } } } } } } } } } } } } } } F.F.F.F.F.F.F.F.F.F.F.F.F.F.F.F.F.F.F.F.F.F.F.F.F.F.F.F.F.F.F.F.F.F.F.F.F.F.F.F.j j j j j j j j j j j j j j j j , F.F.F.",
"F.F.F.f.,.} } } } } } } } } } } } } } } I.F.F.F.F.F.F.F.F.F.F.F.F.F.F.F.F.F.F.F.F.F.F.F.F.F.F.F.F.F.F.F.F.F.F.F.F.F.F.I.j j j j j j j j j j j j j j j h r.F.F.F.",
"F.F.F.F.4 } } } } } } } } } } } } } } } (.F.F.F.F.F.F.F.F.F.F.F.F.F.F.F.F.F.F.F.F.F.F.F.F.F.F.F.F.F.F.F.F.F.F.F.F.F.F.~.j j j j j j j j j j j j j j j ; F.F.F.F.",
"F.F.F.F.C.+.} } } } } } } } } } } } } } 3.^.I.F.F.F.F.F.F.F.F.F.F.F.F.F.F.F.F.F.F.F.F.F.F.F.F.F.F.F.F.F.F.F.F.F.F.I.~.;.j j j j j j j j j j j j j j X r.F.F.F.F.",
"F.F.F.F.F.e } } } } } } } } } } } } } } } ' C j j j j j j j j j j j j j j j j j j j j j j j j j j j j j j j j j j j j j j j j j j j j j j j j j j j $ F.F.F.F.F.",
"F.F.F.F.F.n.4.} } } } } } } } } } } } } } } } D j j j j j j j j j j j j j j j j j j j j j j j j j j j j j j j j j j j j j j j j j j j j j j j j j O n.F.F.F.F.F.",
"F.F.F.F.F.F.g.,.} } } } } } } } } } } } } } } } L j j j j j j j j j j j j j j j j j j j j j j j j j j j j j j j j j j j j j j j j j j j j j j j f w.F.F.F.F.F.F.",
"F.F.F.F.F.F.F.e } } } } } } } } } } } } } } } } } P j j j j j j j j j j j j j j j j j j j j j j j j j j j j j j j j j j j j j j j j j j j j j j # F.F.F.F.F.F.F.",
"F.F.F.F.F.F.F.n.2 } } } } } } } } } } } } } } } } } Y j j j j j j j j j j j j j j j j j j j j j j j j j j j j j j j j j j j j j j j j j j j j * n.F.F.F.F.F.F.F.",
"F.F.F.F.F.F.F.F.c.%.} } } } } } } } } } } } } } } } } Y b j j j j j j j j j j j j j j j j j j j j j j j j j j j j j j j j j j j j j j j j j + a.F.F.F.F.F.F.F.F.",
"F.F.F.F.F.F.F.F.F.c.:.} } } } } } } } } } } } } } } } } ! b j j j j j j j j j j j j j j j j j j j j j j j j j j j j j j j j j j j j j j j f a.F.F.F.F.F.F.F.F.F.",
"F.F.F.F.F.F.F.F.F.F.j.:.} } } } } } } } } } } } } } } } } } A j j j j j j j j j j j j j j j j j j j j j j j j j j j j j j j j j j j j j ^ i.F.F.F.F.F.F.F.F.F.F.",
"F.F.F.F.F.F.F.F.F.F.F.j.:.} } } } } } } } } } } } } } } } } } D j j j j j j j j j j j j j j j j j j j j j j j j j j j j j j j j j j j ^ i.F.F.F.F.F.F.F.F.F.F.F.",
"F.F.F.F.F.F.F.F.F.F.F.F.j.:.} } } } } } } } } } } } } } } } } } L j j j j j j j j j j j j j j j j j j j j j j j j j j j j j j j j j f i.F.F.F.F.F.F.F.F.F.F.F.F.",
"F.F.F.F.F.F.F.F.F.F.F.F.F.c.%.} } } } } } } } } } } } } } } } } } P j j j j j j j j j j j j j j j j j j j j j j j j j j j j j j j + a.F.F.F.F.F.F.F.F.F.F.F.F.F.",
"F.F.F.F.F.F.F.F.F.F.F.F.F.F.c.2 } } } } } } } } } } } } } } } } } } Y j j j j j j j j j j j j j j j j j j j j j j j j j j j j j * a.F.F.F.F.F.F.F.F.F.F.F.F.F.F.",
"F.F.F.F.F.F.F.F.F.F.F.F.F.F.F.n.e ,.} } } } } } } } } } } } } } } } } Y b j j j j j j j j j j j j j j j j j j j j j j j j j f # n.F.F.F.F.F.F.F.F.F.F.F.F.F.F.F.",
"F.F.F.F.F.F.F.F.F.F.F.F.F.F.F.F.F.g.4.} } } } } } } } } } } } } } } } } ! b j j j j j j j j j j j j j j j j j j j j j j j O w.F.F.F.F.F.F.F.F.F.F.F.F.F.F.F.F.F.",
"F.F.F.F.F.F.F.F.F.F.F.F.F.F.F.F.F.F.n.e +.} } } } } } } } } } } } } } } } } A j j j j j j j j j j j j j j j j j j j j X $ n.F.F.F.F.F.F.F.F.F.F.F.F.F.F.F.F.F.F.",
"F.F.F.F.F.F.F.F.F.F.F.F.F.F.F.F.F.F.F.F.C.4 ,.} } } } } } } } } } } } } } } } D j j j j j j j j j j j j j j j j j h ; r.F.F.F.F.F.F.F.F.F.F.F.F.F.F.F.F.F.F.F.F.",
"F.F.F.F.F.F.F.F.F.F.F.F.F.F.F.F.F.F.F.F.F.F.f.t +.} } } } } } } } } } } } } } } L j j j j j j j j j j j j j j X , r.F.F.F.F.F.F.F.F.F.F.F.F.F.F.F.F.F.F.F.F.F.F.",
"F.F.F.F.F.F.F.F.F.F.F.F.F.F.F.F.F.F.F.F.F.F.F.F.M.k.1 ,.} } } } } } } } } } } } } P j j j j j j j j j j f : t.s.F.F.F.F.F.F.F.F.F.F.F.F.F.F.F.F.F.F.F.F.F.F.F.F.",
"F.F.F.F.F.F.F.F.F.F.F.F.F.F.F.F.F.F.F.F.F.F.F.F.F.F.F.V.y 3 O.} } } } } } } } } } } Y j j j j j j   - % p.F.F.F.F.F.F.F.F.F.F.F.F.F.F.F.F.F.F.F.F.F.F.F.F.F.F.F.",
"F.F.F.F.F.F.F.F.F.F.F.F.F.F.F.F.F.F.F.F.F.F.F.F.F.F.F.F.F.F.b.V.u r 2 &.} } } } } } } ! @ * = & p.b.F.F.F.F.F.F.F.F.F.F.F.F.F.F.F.F.F.F.F.F.F.F.F.F.F.F.F.F.F.F."
};
