/* XPM */
static xpm_row_t const solid_wall_xpm[] = {
/* columns rows colors chars-per-pixel */
"60 80 214 2 ",
"   c #2F5A46",
".  c #2E574B",
"X  c #2F594A",
"o  c #395648",
"O  c #325C4D",
"+  c #2F5653",
"@  c #2F5558",
"#  c #325556",
"$  c #385656",
"%  c #335D54",
"&  c #3E5957",
"*  c #33565B",
"=  c #3A565D",
"-  c #34595C",
";  c #3B595C",
":  c #33604D",
">  c #376156",
",  c #396257",
"<  c #37605D",
"1  c #39625B",
"2  c #365664",
"3  c #365B61",
"4  c #3B5C63",
"5  c #3C6365",
"6  c #3E656B",
"7  c #3E686F",
"8  c #3F6570",
"9  c #48584D",
"0  c #495E54",
"q  c #445B5D",
"w  c #49625A",
"e  c #5A6859",
"r  c #63685A",
"t  c #435F65",
"y  c #485D61",
"u  c #415E68",
"i  c #436266",
"p  c #4D6165",
"a  c #4A6865",
"s  c #43656C",
"d  c #4A666C",
"f  c #446A6D",
"g  c #4A6A6D",
"h  c #556765",
"j  c #5D6A67",
"k  c #526B6C",
"l  c #5C6F69",
"z  c #54716D",
"x  c #5A716D",
"c  c #416771",
"v  c #436972",
"b  c #4B6D74",
"n  c #446978",
"m  c #496F7B",
"M  c #536D73",
"N  c #546E76",
"B  c #467076",
"V  c #4A7176",
"C  c #4C747B",
"Z  c #4F787E",
"A  c #577373",
"S  c #50767D",
"D  c #5B747A",
"F  c #52797E",
"G  c #5E797E",
"H  c #656D67",
"J  c #697367",
"K  c #67726C",
"L  c #6A726D",
"P  c #757464",
"I  c #7C756A",
"U  c #75786C",
"Y  c #646F72",
"T  c #6A7471",
"R  c #687674",
"E  c #6D7D7D",
"W  c #737974",
"Q  c #767B77",
"!  c #837D6C",
"~  c #8B7E6D",
"^  c #847E73",
"/  c #8B7F73",
"(  c #00B140",
")  c #59996D",
"_  c #7C816D",
"`  c #678373",
"'  c #7A8479",
"]  c #85816D",
"[  c #8B846C",
"{  c #8C896F",
"}  c #92856F",
"|  c #94886F",
" . c #868273",
".. c #8C8473",
"X. c #8E8973",
"o. c #87877A",
"O. c #8C867A",
"+. c #8B897C",
"@. c #918574",
"#. c #968777",
"$. c #938A75",
"%. c #9A8C75",
"&. c #958B7A",
"*. c #9B8D7B",
"=. c #8F907C",
"-. c #96917B",
";. c #9C917D",
":. c #A28E7D",
">. c #A3937D",
",. c #4F7580",
"<. c #517683",
"1. c #547B83",
"2. c #597C87",
"3. c #6E7F81",
"4. c #6E8082",
"5. c #7B8484",
"6. c #868786",
"7. c #8B8B82",
"8. c #938E82",
"9. c #9E8E83",
"0. c #908F8A",
"q. c #8D938C",
"w. c #959184",
"e. c #9C9283",
"r. c #9F9885",
"t. c #94958A",
"y. c #9D958A",
"u. c #9F988D",
"i. c #889192",
"p. c #989596",
"a. c #959897",
"s. c #9E9C91",
"d. c #A38E82",
"f. c #A88F85",
"g. c #A28F88",
"h. c #A39384",
"j. c #AA9386",
"k. c #A59A85",
"l. c #A99B85",
"z. c #A3958B",
"x. c #AA968A",
"c. c #A59B8D",
"v. c #AB9C8D",
"b. c #B0948B",
"n. c #B19E8E",
"m. c #A29791",
"M. c #A59C92",
"N. c #AA9E93",
"B. c #A79C9A",
"V. c #AA9F99",
"C. c #B19E92",
"Z. c #BA9D94",
"A. c #BD9F9A",
"S. c #98A19C",
"D. c #A1A18D",
"F. c #ADA18D",
"G. c #B1A28D",
"H. c #A6A094",
"J. c #ABA195",
"K. c #A6A49C",
"L. c #ACA39A",
"P. c #AFA89D",
"I. c #B3A393",
"U. c #BAA395",
"Y. c #B6A995",
"T. c #BAAA96",
"R. c #B3A49C",
"E. c #BBA49A",
"W. c #B3A99D",
"Q. c #BCAC9B",
"!. c #A19CA0",
"~. c #A6A4A0",
"^. c #ACA4A1",
"/. c #A5A9A2",
"(. c #ADAAA2",
"). c #B2A7A1",
"_. c #BCA7A1",
"`. c #B3A9A2",
"'. c #BCACA2",
"]. c #B3ADA9",
"[. c #BDAEAB",
"{. c #B4B2A5",
"}. c #BDB2A4",
"|. c #B5B1AA",
" X c #BDB2AA",
".X c #BBB9AD",
"XX c #C2A49B",
"oX c #C2AB9E",
"OX c #C8A99F",
"+X c #C1B19F",
"@X c #C6A6A0",
"#X c #C3ADA2",
"$X c #C9ADA4",
"%X c #C2AFA9",
"&X c #CAAEA9",
"*X c #C4B2A3",
"=X c #CAB3A5",
"-X c #CDBBA5",
";X c #C4B5AA",
":X c #CBB6AA",
">X c #C4B9AC",
",X c #CBB9AB",
"<X c #D3B5AB",
"1X c #D3BAAD",
"2X c #C4B6B4",
"3X c #CCB6B1",
"4X c #C3BCB3",
"5X c #CDBDB2",
"6X c #C6BBBB",
"7X c #C9BCBB",
"8X c #D1BDB2",
"9X c #DAB9B2",
"0X c #CCC1B5",
"qX c #CBC2C1",
/* pixels */
"( ( ( ( ( ( ( ( ` 6.p.!.B.!.V.B.~.^.p.W 0 o o o r O.z.z.h.j.h.j.h.h.h.z.h.z.h.x.z.x.h.z.x.h.j.h.#.^ P r 9 ( ( ( ( ( ( ( ",
"( ( ( ( ( ( ) a.(.|.2X6X6X6X7XqX7XqX6Xa.Y 0 9 e / R.:X$X$X$X$X#X$X$X$XoX$XoXQ.$X#X$X#X$X#X$X=X$X%XE.N.e.U e ( ( ( ( ( ( ",
"( ( ( ( ( t.{.>X5X>X;X2X%X%X[.[.2X6X7X].t.J H ^ C.&X$XE.A.XXZ.Z.Z.Z.Z.Z.Z.Z.Z.Z.A.Z.Z.Z.XXXXOX$X&X&X=X#XR.y.P ( ( ( ( ( ",
"( ( ( ( B.>X>X;X}.W.R.N.V.V.V.L.^._.3X6X^.I I h.@X$XZ.b.b.j.j.j.j.f.d.f.g.f.f.d.f.f.f.f.j.b.b.Z.A.XX$X$X=X'.z.Q ( ( ( ( ",
"( ( ( D.0X0X#XR.N.m.c.c.m.m.m.M.m.V.).2X`.O.! x.#X@Xb.:.:.d.d.9.d.9.d.g.9.y.9.g.9.d.d.d.d.:.d.f.j.Z.A.A.@X&X$XL.U ( ( ( ",
"( ( >.0X-XoXC.v.m.z.s.s.m.c.M.s.s.s.V.`.L./ ! d.oXE.j.f.d.d.h.h.h.z.g.g.g.g.y.z.y.z.9.9.9.9.h.d.:.f.x.C.E.XX#X&Xm.U ( ( ",
"( =.}.-XoXG.l.h.c.c.m.M.m.c.M.s.s.K.B.^.B.o.! *.E.XXj.f.d.h.d.j.h.z.g.x.g.z.z.g.g.g.d.d.h.d.d.d.d.d.g.d.x.C.XX:X&X0.e ( ",
"P L.0X+XG.l.l.k.k.c.c.B.m.M.c.S.M.M.B.B.M.+.! #.Z.Z.j.:.j.h.h.h.f.z.m.g.m.z.z.m.z.z.z.z.h.z.z.z.d.d.d.e.e.z.b.XX&XR.W ( ",
"O. X,XT.v.c.l.l.l.l.c.v.c.M.M.M.H.B.N.B.M.8.I } x.Z.j.d.h.d.d.z.z.z.m.m.z.y.z.z.z.z.z.z.z.z.y.g.g.z.d.d.h.e.g.x.E.'.7.w ",
"z.,X;XI.l.h.l.x.l.c.c.c.c.M.M.M.M.B.V.V.M.8.I ! h.l.j.h.h.h.z.z.z.m.z.m.s.u.p.z.z.s.p.y.z.y.z.y.y.h.j.d.d.9.z.g.B._.p.H ",
"U.,X*Xv.l.l.l.v.M.M.c.c.c.D.N.c.M.N.V.J.K.t.! ! #.j.j.h.x.d.z.x.x.m.m.m.m.u.m.z.z.m.z.z.m.y.c.u.y.h.d.x.z.y.e.y.x._.V.I ",
"#X,XE.l.l.l.l.v.c.c.c.H.M.N.c.B.M.H.B.H.H.t.o.! ..h.x.h.x.x.z.c.m.m.m.m.z.z.m.m.M.m.m.m.s.m.m.m.u.c.z.z.h.z.e.9.m.@X).^ ",
"*X:XY.l.l.v.v.v.v.c.c.B.J.N.c.M.B.J.B.B.B.M.7.I ! *.h.j.z.x.z.c.m.z.m.m.m.c.c.m.m.m.m.m.m.M.m.u.z.u.z.z.g.z.g.z.m._.[.^ ",
"*X:XI.x.l.l.v.c.F.c.J.H.N.c.M.J.J.N.H.J.L.M.8.^ ! $.h.z.l.j.z.c.m.m.x.m.m.m.m.m.m.m.m.m.m.p.m.m.u.u.y.m.z.y.y.d.C.@X).^ ",
"#X:XY.l.l.v.v.c.N.M.N.J.J.B.J.J.N.H.N.K.L.H.t.O.! [ *.k.l.z.h.c.x.m.M.M.M.c.m.c.m.M.s.m.m.m.p.m.m.s.m.m.z.z.y.z.b._._./ ",
"*X,XY.x.v.v.F.F.J.M.J.J.c.N.H.N.J.B.J.J.J.H.M.&.! ! @.;.v.x.x.x.x.m.x.M.v.m.M.M.M.m.m.m.M.M.m.m.s.m.m.m.m.z.y.f.N.#X'./ ",
"*X,XE.v.v.v.v.J.F.H.N.N.N.B.J.H.J.N.V.H.J.K.J.y.o.! ! *.h.c.c.x.x.c.m.c.v.m.c.m.M.m.M.M.M.m.M.M.m.s.M.m.m.z.u.h.x.#X'.O.",
";X5XE.N.n.v.v.D.D.J.J.J.J.J.J.B.J.J.V.L.L.J.K.B.-. .! @.;.j.l.x.v.x.c.M.M.v.M.v.v.M.c.m.M.s.M.M.m.M.p.m.s.c.u.z.N._._.O.",
" X0X}.C.v.n.F.N.J.H.J.L.J.J.L.J.J.J.J.J.K.V.J.K.u.X.^ ] $.e.l.v.x.v.v.c.v.v.v.N.M.N.M.M.M.M.M.M.M.M.M.m.m.m.z.z.C.#XQ...",
"L.0X5XW.C.N.v.J.H.J.J.J.H.J.L.J.J.L.L.L.L.J.L.L.B.y.+.!  .#.h.x.v.x.v.v.M.x.v.N.v.v.v.M.M.M.M.M.m.M.M.m.c.z.c.z.N.oX_.O.",
"+.{.0X;XQ.I.N.J.J.H.L.L.L.L.L.J.J.L.V.V.L.V.J.L.L.B.t.o.!  .&.h.v.n.l.v.v.v.n.x.x.v.N.v.M.M.B.M.m.m.x.m.M.c.c.z.N.#X'.O.",
"P t.W.'.#XR.I.I.L.L.L.L.L.L.L.L.R.L.L.L.L.L.^.L.^.L.M.t.+.] ~ *.h.v.v.x.v.n.l.n.v.v.F.v.v.N.v.M.M.M.M.m.m.m.c.z.n.oX'.O.",
"e _ w.r.F.I.J.I.J.L.L.L.J.L.L.L.L.L.L.L.^.R.L.L.L.L.L.M.r.+./ ..%.h.v.v.l.n.G.n.v.v.v.v.v.c.N.c.N.M.M.M.M.m.x.z.C.oX'.@.",
"e _ o.$.*.e.z.c.D.H.L.L.L.L.L.J.J.L.V.R.L.V.L.^.J.P.P.J.J.y.7...] $.;.l.l.n.G.v.n.J.v.F.F.v.v.N.c.M.M.M.m.M.c.c.N.#X_.O.",
"r _ X.] } } ..&.8.y.y.M.B.J.P.L.L.L.P.P.P.P.L.^.J.L.P.L.L.L.u.w.+...@.&.>.l.G.v.G.G.F.n.l.F.v.v.x.M.M.N.M.m.c.c.C.oX'.O.",
"I { [ [ [ ~ ~ [  .X.+.e.y.m.B.J.L.R.L.P.^.P.P.L.^.P.^.^.^.^.L.H.r.&...[ $.-.l.l.G.G.n.F.G.l.N.v.N.N.M.M.N.m.c.c.N.#X}.@.",
"e.h.&.} [ [ ] [ ! [ ..@.&.8.e.y.m.N.V.L.L.P.P.P.L.P.R.^.P.P.(.P.J.D.;.X.[ [ $.-.>.G.G.G.G.n.n.N.N.v.M.M.M.M.c.c.I.'.'.+.",
"I.Y.l.>.%.-.{ {  . .[  .....O.@.&.&.e.y.M.J.L.L.P.L.P.P.P.L.L.L.L.L.c.;.{ [ [ [ %.>.>.G.G.n.C.I.N.N.M.N.N.M.M.v.N.#X'.O.",
"Y.Q.G.>.>.F.;.;.;.&.$.X.X.[ / ~ ..../ #.*.*.9.z.c.N.J.M.c.c.y.e.w.9.;.-.{ [ [ [ [ | | >.v.G.C.C.F.v.M.N.M.M.c.M.C.%X[.O.",
"U.Q.Y.>.>.F.D.D.c.r.e.e.*.&.&.@.@.../ / / ~ @.@.&.*.e.e.&.&.@.X.@.X.$.&.%.{ [ [ [ [ [ | >.v.G.C.v.J.M.N.N.J.M.c.V.'.}.+.",
"Y.oX>.>.F.>.D.D.c.c.D.D.c.z.h.r.d.9.*.#.#.#.@.@...@.#.@.&.*.#.;.*.e.>.l.l.>.-.} { [ [ [ %.l.G.I.F.J.J.N.M.B.M.M.I.%X}.O.",
"Y.T.G.F.D.F.D.F.D.c.v.c.c.v.D.v.M.v.x.c.x.h.e.e.e.9.*.h.h.z.h.x.x.n.v.G.v.l.l.-.| [ [ [ } k.n.n.J.J.J.N.N.N.M.M.V.%X[.+.",
"Y.T.F.k.c.D.D.M.M.F.J.D.c.J.J.B.J.N.N.N.N.v.v.x.v.l.v.x.C.v.v.b.n.n.I.n.n.n.N.l.-.{ [ [ { %.l.C.F.J.N.N.J.M.M.c.R.'. X+.",
"Y.Q.D.c.D.J.M.H.H.M.M.H.H.H.J.J.V.N.C.N.N.N.N.N.N.F.J.N.N.I.v.C.C.v.v.C.n.n.G.v.k.&.] [ { { e.v.J.N.J.N.B.B.H.B.R.%X|.7.",
"Y.Q.F.c.F.c.M.H.H.J.B.J.H.F.v.N.N.N.N.N.N.N.N.V.N.N.N.L.N.N.N.N.N.N.N.b.C.n.C.N.v.e.X.X.{ X.X.r.v.N.J.N.H.V.B.N.R.%X[.+.",
"Y.Q.G.D.c.H.H.H.H.M.H.N.J.H.H.B.N.V.R.N.V.V.L.N.N.V.N.R.J.N.L.N.N.C.N.N.N.N.n.n.v.h.&...{ [ X.&.h.F.J.J.N.H.M.N.R.%X'.o.",
"Y.Q.Y.D.c.J.H.H.J.M.K.J.J.H.J.B.L.B.V.V.L.B.J.J.B.V.L.V.V.L.V.V.N.V.N.N.N.N.I.C.C.v.;.$.-.-.&.X.&.c.J.L.F.J.H.M.R.;X|.+.",
"Q.Q.F.D.F.D.H.H.H.J.J.V.K.J.K.L.J.L.B.J.L.V.J.L.N.J.V.B.V.V.V.N.V.N.B.B.N.N.N.N.C.C.h.*.e.k.k.-.@.;.x.J.J.H.B.N.R.%X X+.",
"Y.Q.F.D.c.J.H.J.H.J.N.K.J.K.K.K.L.L.L.L.L.J.L.J.L.B.L.B.V.V.V.V.B.B.V.V.N.N.C.N.C.C.h.*.;.c.F.;.@.@.h.c.v.v.J.N._.%X[.o.",
"T.Q.F.F.c.J.N.M.H.B.N.V.B.K.J.V.K.L.B.L.L.V.L.L.J.L.J.J.L.J.L.J.L.N.V.J.N.V.V.C.C.C.x.*.;.k.F.F.;.[ $.r.F.J.F.I.@X;XW.^ ",
"Y.T.F.c.v.D.N.M.J.M.J.J.J.J.P.V.L.L.L.K.B.L.L.L.V.L.J.L.L.R.J.V.N.V.N.J.N.N.N.C.C.C.n.*.;.l.F.F.k.$.X.#.l.F.I.Y.*X:XW. .",
"Q.T.v.F.l.F.F.J.N.J.J.J.J.J.N.L.L.L.L.L.^.L.R.L.L.L.L.J.J.J.L.J.I.N.N.N.N.N.C.N.C.C.l.:.;.l.l.F.F.k.@.} ;.v.I.oX:X8X'.+.",
"Q.Q.F.D.c.v.c.c.c.D.F.N.M.N.N.J.J.J.J.J.L.J.N.L.L.R.N.R.L.L.V.N.R.N.I.N.N.v.C.C.n.I.l.:.%.>.F.G.F.c.;.} | j.U.=X<X1X#X&.",
"Q.Q.G.l.v.l.D.F.F.c.J.D.N.v.J.c.V.J.V.V.V.N.V.N.V.L.V.R.R.N.C.R.C.N.I.C.I.N.n.C.n.U.n.*.%.>.G.G.F.F.>.$.| >.G.-X1X1X*X..",
"+X+XF.l.l.k.c.D.F.v.F.v.J.v.N.N.J.J.N.J.L.V.L.L.V.N.L.V.V.V.C.N.V.C.N.N.C.N.v.v.G.U.G.:.%.>.G.G.F.G.F.%.$.%.v.+X<X1X*X&.",
"+X}.I.l.k.k.l.l.D.c.c.v.v.J.c.J.F.J.B.J.J.J.V.V.J.J.L.V.C.L.N.N.N.N.N.N.N.C.v.I.I.Y.G.>.:.>.G.G.G.G.G.>.%.%.l.oX<X9X;Xw.",
"+X-XU.l.>.F.l.k.l.l.l.v.v.c.v.c.c.H.N.M.J.B.N.L.H.L.L.J.J.J.J.J.J.J.v.v.N.C.C.b.U.Q.U.:.%.>.G.G.G.F.G.>.%.{ -.T.<X1X-Xe.",
"*X:X+XG.F.l.>.k.D.k.c.D.c.c.D.c.v.H.H.M.J.N.J.N.H.F.J.D.H.J.J.D.v.v.F.N.v.b.C.Z.XX$XU.%.| j.T.U.G.G.G.F.-.[ { G.OX<X>Xe.",
"=X,X-X#XI.x.l.l.u.k.k.r.c.c.c.D.D.M.M.M.H.N.J.N.M.J.D.N.J.c.J.v.v.v.x.v.v.C.Z.@X$X=XY.*.| >.T.+XY.Y.J.F.l.{ ] ;.Q.=X#Xe.",
"*X,X,X;X*XE.I.v.c.c.c.c.c.c.c.c.c.c.M.H.M.c.M.v.N.c.N.v.N.F.N.v.C.N.C.C.I.XX$X<X<X:XY.X.[ ;.+X+X+XQ.+XQ.Y.D.[ { I.oX'.e.",
"%X:X5X,X,X,X*X*XQ.W.I.J.N.F.N.c.c.c.N.N.J.J.F.N.v.N.N.v.J.U.I.Y.T.Q.#X$X=X<X<X<X<X:XF.{ ] D.0X0X-X1X,X0X0XG.X.I e.Q.}.y.",
"$X-X1X:X:X-X,X:X-X;X;X;X;X}.*X}.}.}.}.'.Q.*X*X*X*X*X*X*X*X:X;X:X:X:X:X:X<X1X<X1X<X=XF._ ] D..X0X8X0X0X,X>XP.+.P o.J.'.8.",
"oX:X:X,X,X,X,X,X;X,X>X>X;X>X.X>X>X.X.X X;X>X>X,X*X,X>X-X>X-X;X:X:X,X,X8X3X:X3X3X[.^.7.L _ q.(..X>X4X0X.X|.S.' J L t.L.w.",
"_.>X2X X.X X|.|.|.].].|.(.(.(./././.K.~./.K.^.`.P.P.P.L.).(.`.W.).).).).^.^.!.B.6.Q K j x K ' q.a.a.S.a.i.5.E x K ' s.7.",
"^.[.].B.0.6.5.5.5.5.5.5.Q E 4.4.E 3.3.E E W T T K K K K T L T L L L L T H j h h h k d d g z z z A A A A D M A z a L q.o.",
"p.i.5.Y h p p t q q q y t d M D 2.R 2.G D k y y ; q & & ; & ; & q $ & q & & & ; 5 5 s g z f f z g g g V v g g a a l ' ' ",
"3.Y M p d d d t t 4 = y u s b N N m N b M d s t ; ; ; ; % - ; - * * - - 3 - 3 * 3 3 5 7 f B B f z f V f f g f s i w z x ",
"D h p a d g s s i 4 = q s d b u d g s d d s 4 = ; - - * = - * - - * - - * 3 3 * - < 5 6 f f f B f f f f f f f i ; % ; w ",
"N p d d d d d d d 4 = 2 s d d d s s d f d 4 4 = * * - - * - - - - - - - * - 3 * - - - 5 f f f f f f f f f g f i ; - $ ; ",
"h d p d s d c d t 4 $ t u d d d d d d d 4 = = * - = - - = * - - * = - - 3 - - - - @ - 3 5 f f V V f z f f f 7 5 3 - % $ ",
"d d d u d u d d u = = 4 t t t t d d 5 = - $ - - * * - * - * * - - @ * 3 * - - @ - - @ - - 4 6 f f f f f B f f 5 - * * * ",
"d u u d d c d c u t = = = = = t t 4 ; * * * * * - 4 3 - - * - * 3 * - * - * - - - - - @ * - - 6 f f z f f 7 5 3 - * * % ",
"d u n u d d d d u t = = = * = * = * * * - 4 i f V V n f 4 - * * - * * * - @ - < 5 f f s 5 3 3 3 6 7 5 f 6 5 3 3 * * * * ",
"c d d d s d t u u t = = * = * ; * * - 5 6 b C F F F F V v 5 3 - * - 3 @ - @ - 5 b C C F C n 5 5 > 1 5 , 5 3 3 3 @ * * * ",
"u d d u d d s s t * = = * * * * 2 4 c V ,.,.4.Z 1.Z Z 4.B B 7 3 - @ * * * @ 3 6 B Z Z F 2.1.C s 3 * - @ @ * * * * @ * @ ",
"u d u d c d t t ; * * = * * 4 6 f C Z 1.4.1.B Z B B B Z B Z B 7 5 @ * - - - 3 6 7 v v B B C Z Z n 3 - % * @ * * * * * * ",
"d d c u t u 4 $ # # * 2 4 6 b S 1.1.2.1.1.C V 7 7 7 7 7 n n B B f 5 * @ * * 3 3 f 7 f v v c v b V v 5 * @ + @ - @ @ @ @ ",
"u u u u 2 2 * * # - 3 8 m <.1.2.1.1.,.V n v v v 7 n 7 B 7 8 7 7 v 5 < - * * 3 6 8 f 7 7 s 7 c c f v v 6 3 * @ - 2 @ 2 * ",
"4 = ; * 4 2 * * 5 s V <.2.2.2.Z C n v 8 8 v v v n 8 v v 7 7 7 7 s 5 5 * * * 3 3 7 s 8 s 8 7 s 8 s 7 c f 5 * % * 2 @ * @ ",
"* $ $ # * * 2 s V ,.1.2.1.,.V n c v n 8 v 8 c v 8 n v n 7 7 8 7 6 5 5 3 * @ 2 6 7 7 8 s 6 c c c 7 8 s c 6 < * * @ 2 * @ ",
"* * # # = 6 b S ,.<.1.<.m v 8 n n 8 v v v c v v v n v 8 v 8 8 7 6 6 5 4 * @ 3 3 s 6 s 7 8 c c c 6 c 7 s s 5 - * * * * + ",
"2 * - - f b S <.,.,.,.n v 7 v v 8 v n c c c c v v 8 8 v v v v 8 7 5 6 5 3 @ * 3 7 7 8 c c c c c c c 7 6 s 6 5 - * @ % + ",
"* 3 6 c C 1.F V n v c v 8 c c 8 7 c 8 v 8 v c v 8 v 8 n v 8 v 7 7 6 i 5 - * * 3 6 6 s c c c c 8 8 7 7 6 5 s 5 3 - * + + ",
"( 4 7 V F F b v f 7 8 v c v n c c v c c c 8 n 8 8 n c v v v v c 6 6 6 5 - * @ - 4 s 6 c s c c s s 8 s 6 f 5 5 5 - + X ( ",
"( > < v n v f c c 7 c v c c c s c s v c v 8 8 v v 7 v v c v v s 6 s 6 5 - # * * 6 6 s 6 6 c 7 s 7 s 8 7 s 5 5 5 1 X ( ( ",
"( ( : - 6 7 7 7 c 8 8 v 8 8 c 7 7 v 8 c 8 v v c v v v v n v 7 8 7 6 6 6 - * # * 4 6 6 6 s 6 7 f 6 6 7 6 6 5 5 1 : ( ( ( ",
"( ( ( % < 6 6 f v c 8 8 v 8 7 8 c 7 c s v v v v v 7 v v c c c 8 7 s 6 3 * * # * 4 6 5 6 6 f 6 f 6 6 f 6 5 1 , O ( ( ( ( ",
"( ( ( ( O 1 5 f v c v s 8 v v f s v v 7 f v 8 v v s v v v v c c 6 6 4 - * * # * 5 5 6 5 6 6 6 6 6 6 5 5 1 >   ( ( ( ( ( ",
"( ( ( ( ( ( : 1 1 5 6 f v f f 7 7 f f f f 5 6 f f 7 f 7 f f v 7 f 5 < * # # # + 1 5 5 5 i 5 5 5 5 < % %   ( ( ( ( ( ( ( ",
"( ( ( ( ( ( ( ( ( O > > > > , > > 1 > > > % % 1 , , 1 1 1 1 , > % %   . .   O   O O : : O : : O O   ( ( ( ( ( ( ( ( ( ( "
};
