/* XPM */
static xpm_row_t const wall_xpm[] = {
/* columns rows colors chars-per-pixel */
"60 80 248 2 ",
"   c #661E0C",
".  c #6B1C0F",
"X  c #741D0B",
"o  c #7C1C0E",
"O  c #661812",
"+  c #671C13",
"@  c #6A1B14",
"#  c #6C1D18",
"$  c #731B13",
"%  c #7B1D12",
"&  c #741C1B",
"*  c #5C280B",
"=  c #53330F",
"-  c #5B271A",
";  c #65250C",
":  c #6D240C",
">  c #7E2B04",
",  c #74230D",
"<  c #7C240B",
"1  c #752808",
"2  c #7C2B0B",
"3  c #6A380C",
"4  c #7A320E",
"5  c #642314",
"6  c #6B2215",
"7  c #6C221A",
"8  c #692A19",
"9  c #772616",
"0  c #742B13",
"q  c #732B1B",
"w  c #6C3416",
"e  c #6D321A",
"r  c #743318",
"t  c #5F2820",
"y  c #6B2F24",
"u  c #752B22",
"i  c #7A2B24",
"p  c #763724",
"a  c #7F342D",
"s  c #714A16",
"d  c #7E432A",
"f  c #7C4929",
"g  c #7D592F",
"h  c #811A0C",
"j  c #822B03",
"k  c #882B07",
"l  c #822B0A",
"z  c #85320A",
"x  c #953406",
"c  c #812A13",
"v  c #882819",
"b  c #922C1A",
"n  c #893618",
"m  c #973613",
"M  c #9A3615",
"N  c #943B14",
"B  c #9A3A15",
"V  c #96381B",
"C  c #9C3A19",
"Z  c #A43515",
"A  c #AB3617",
"S  c #A33519",
"D  c #A53919",
"F  c #8C2F21",
"G  c #893622",
"H  c #843D26",
"J  c #81332E",
"K  c #853D2A",
"L  c #993C24",
"P  c #853931",
"I  c #893931",
"U  c #A73A25",
"Y  c #B83D26",
"T  c #C43E28",
"R  c #8A441E",
"E  c #97421E",
"W  c #AC441D",
"Q  c #B34C1C",
"!  c #844827",
"~  c #85422A",
"^  c #944222",
"/  c #984425",
"(  c #9A4429",
")  c #8A542A",
"_  c #8A4E32",
"`  c #895A36",
"'  c #93583A",
"]  c #A8462A",
"[  c #AE4E2F",
"{  c #BA4425",
"}  c #B8442A",
"|  c #B64B2B",
" . c #BC4A2C",
".. c #BA562B",
"X. c #BD4534",
"o. c #B64B37",
"O. c #BB4C32",
"+. c #A65536",
"@. c #B95739",
"#. c #8B6035",
"$. c #8B643C",
"%. c #8C6B3E",
"&. c #91633A",
"*. c #9B643C",
"=. c #8C753F",
"-. c #C7472A",
";. c #CD432D",
":. c #D9492B",
">. c #C55729",
",. c #D6542C",
"<. c #DB552D",
"1. c #CE4432",
"2. c #C74A34",
"3. c #D24433",
"4. c #D84737",
"5. c #D54936",
"6. c #DA4B35",
"7. c #D64B39",
"8. c #D94A3A",
"9. c #CC5536",
"0. c #C75638",
"q. c #D45235",
"w. c #DC5232",
"e. c #DE5B33",
"r. c #D5533A",
"t. c #DA543C",
"y. c #D65B3D",
"u. c #EE5524",
"i. c #EB5B25",
"p. c #E5562A",
"a. c #ED5429",
"s. c #EC5D2A",
"d. c #F05424",
"f. c #F35D25",
"g. c #F45C2B",
"h. c #E85030",
"j. c #E15A35",
"k. c #CA6326",
"l. c #C7623B",
"z. c #D86538",
"x. c #DC753C",
"c. c #EB642B",
"v. c #F2622C",
"b. c #F7692F",
"n. c #E86938",
"m. c #F76B35",
"M. c #EA733D",
"N. c #F7743A",
"B. c #FB743D",
"V. c #945E42",
"C. c #AC5B42",
"Z. c #8D6540",
"A. c #8D6C41",
"S. c #946343",
"D. c #926C44",
"F. c #9B6B45",
"G. c #8E7443",
"H. c #8D7844",
"J. c #927244",
"K. c #997345",
"L. c #9C6956",
"P. c #A66D48",
"I. c #BA6847",
"U. c #B8724C",
"Y. c #BC6E51",
"T. c #BA7755",
"R. c #C95944",
"E. c #D55E43",
"W. c #D95944",
"Q. c #DD5C44",
"!. c #E55A45",
"~. c #E25D45",
"^. c #C8684A",
"/. c #D56243",
"(. c #DE6045",
"). c #D5634B",
"_. c #DB654A",
"`. c #DA6A4B",
"'. c #C7714F",
"]. c #DC7546",
"[. c #DA6951",
"{. c #C87656",
"}. c #D97656",
"|. c #DB7C5B",
" X c #E26146",
".X c #E56945",
"XX c #E4634A",
"oX c #E9644C",
"OX c #E36A4D",
"+X c #EA6A4E",
"@X c #F26A4C",
"#X c #E77746",
"$X c #F67844",
"%X c #FB7A43",
"&X c #E66852",
"*X c #EC6B52",
"=X c #F26E55",
"-X c #EC7255",
";X c #EE755A",
":X c #E57958",
">X c #F27456",
",X c #F2755A",
"<X c #F17958",
"1X c #D27B62",
"2X c #E17E62",
"3X c #00B140",
"4X c #FA823E",
"5X c #BE8B68",
"6X c #D8825D",
"7X c #FB8548",
"8X c #FD8C4B",
"9X c #FA9747",
"0X c #FD934B",
"qX c #E4835C",
"wX c #FC8654",
"eX c #FE9253",
"rX c #C78667",
"tX c #D88867",
"yX c #D6916E",
"uX c #DB916D",
"iX c #C98E71",
"pX c #CD9A79",
"aX c #D79877",
"sX c #DB9B7B",
"dX c #E48966",
"fX c #EB9171",
"gX c #E59A77",
"hX c #D4A37D",
"jX c #E8A17E",
"kX c #CEA382",
"lX c #DBA884",
"zX c #DEB48B",
"xX c #DEB591",
"cX c #DDBB94",
"vX c #DDBC9B",
"bX c #E6A886",
"nX c #EBAC8B",
"mX c #E4B38C",
"MX c #ECB28E",
"NX c #EDAE91",
"BX c #E7B793",
"VX c #EEB192",
"CX c #E3BA94",
"ZX c #DEC39C",
"AX c #E2C29C",
"SX c #DCCAA3",
"DX c #DAC9A7",
"FX c #E2C4A3",
/* pixels */
"3X3X3X3X3X3X3Xs 1 , 9 9 v % % % % h h h h h h h % o o o < % % % 9 % X O X @ @ @ $ $ , $ X 9 , $ % X : w g 3X3X3X3X3X3X3X",
"3X3X3X3X3Xs 3 1 V ] o.R.0.2.2.O.} } } Y Y X.Y } } } Y -.2.2.O.-.X.Y Y U L ' S.' K b U ] | | | { U U b c ; 3 s 3X3X3X3X3X",
"3X3X3X3Xs > L 0.(.+X=X=X>X>X;X;X-X*X*X+XXXXXXXXXoX&X*XoXOX+X&X*X*X*X@X.X|.MXmXrX+./.$XB.%X4X$X$X$X#XM.z.2.C 1 s 3X3X3X3X",
"3X3X3X3 G @.&X*XoX~.!.t.t.r.r.r.q.5.r.8.7.7.7.7.7.7.7.8.7.7.5.r.W.!.@X.X|.VXlXU...M.%XN.m.m.m.b.m.m.N.N.$Xn.>.E s 3X3X3X",
"3X3X3X3 G 0.[.*XoX!.!.t.t.t.7.t.8.8.8.8.7.7.5.5.7.7.W.8.7.7.5.r.Q.oX@X.X}.MXzXU...M.N.N.b.m.m.b.m.B.N.$X$X.X>.V 3 3X3X3X",
"3X3Xs / ^.<X-X~.j.4.1.:.3.3.3.3.4.T 3.3.T 3.3.1.1.1.T 1.1.1.1.1.5.t.+X`.6XBXhXI...N.N.c.g.g.g.g.g.g.c.b.B.B.B..XQ 3 3X3X",
"3Xs R ^.-X-X(.7.4.T ;.1.1.3.3.3.3.3.1.3.4.3.1.3.3.3.3.3.3.3.3.3.;.t. XOXqXAXhXU...M.B.g.g.g.g.g.g.f.g.c.b.B.B.%XM.E 3 3X",
"3Xr @.OXOXE.5.1.4.4.1.3.1.1.3.3.3.4.T 3.3.3.1.1.3.3.3.1.3.3.1.1.5.t..XM.qXAXjXU.-.$Xm.g.g.g.g.g.g.g.f.g.g.v.B.%X4Xx.z 3X",
"w n /.&XOXy.5.6.4.3.1.7.5.5.5.3.5.5.3.7.1.5.5.5.5.5.3.5.5.5.5.5.q.~..X#X6XMXMX'.Q n.B.b.v.f.f.f.g.g.g.g.g.g.m.%X7X#XD : ",
": U [.*X>X-XOXOXXX[.&XOXXXXXXX[.&XXX(.(.Q.Q.Q. X(.XXXXXX X(.(.XXOX-X-X&XdXMXjX6X>.c.7XB.m.b.v.g.v.g.g.v.v.b.N.7X7X#X| 9 ",
": L _.>X;X<X;X;X,X,X,X;X:X<X;X,X,X,X;X;X-X;X;X>X<X>X<X<X;X<X;X<X,X;X&X].tXMXnX{.W ,.$X7X%X%X$XN.B.B.m.B.%X%X%X%X7X#XO.9 ",
"; F 2.9.9.9.9.9.9.9.0.y.y.y.E./.E.E././././.z.E./././.`./././.E.E.9.q.^.uXBXmX{.] Y ,.j.e.e.e.c.<.p.<.<.<.<.<.e.e.w.Y , ",
"  b 0.0.9.9.q.9.9.9.0.9.0.y././.E.E.E././././././.`./.`././.E.E.E.R.0.0.uXBXmXrX] Q -.j.n.e.j.j.<.<.p.<.j.j.j.h.w.6.Y o ",
"5 9 b Z Z Z Z Z Z S S Z S S Z Z D D Z Z Z S Z Z S S Z Z S S S S A A U @.hXFXvXkXI.Y Y } T -.T T ;.;.;.-.T T T 3.;.T Z % ",
"5 J L S M B B N N N B B S Z M C B N N N N C C C B M N C M C S b C ] +.rXxXSXZXvXkXY.o.o.O.0.R.R.R.2.2.-.T X.X.2.X.} L % ",
"5 ' 1X'.'.T.T.T.5XT.T.T.T.T.Y.U.Y.U.U.Y.Y.Y.Y.Y.Y.T.{.T.'.I.I.I.Y.{.pXxXZXSXDXSXCXxXpXpXsXgXsXsXkXaXaXaXaXsXsXaXaXpXT.y ",
"= L.NXnXbXBXCXCXmXCXCXCXvXvXvXvXvXvXvXcXcXCXCXmXBXBXVXNXnXnXnXbXbXnXbXnXbXbXNXNXNXNXbXbXbXbXnXmXNXNXmXnXMXnXMXBXBXBXkXy ",
"+ ' }.:X}.}.}.|.2X2XtXaXlXAXDXDXDXFXmXbXgXgXgXfXdXtXdX:X:X}.[.XXW.).).W.).).W.[.W.).W.&XW.).E.).).).).`.`.[.[.|.dXfX1Xr ",
"6 ] (.n.c.p.<.h.j.6.5.9.^.kXSXSXvXlX|.E.w.:.<.q.7.q.5.7.W.8.8.!.W.T 4.4.W.T 4.4.4.4.!.T 8.8.8.8.W.!.!.!.!.!.!.oXoXQ.} , ",
"1 [ #XB.c.i.u.u.u.a.p.h.7.{.zXcXlX[.2.4.6.:.:.4.7.7.7.7.4.4.W.T T !.4.W.4.4.8.8.T W.T W.7.8.8.4.4.8.8.8.t.t.~.+X=X XX.$ ",
"1 ..#XB.c.u.u.u.u.a.h.:.2.6XzXAXsX{.q.6.:.:.4.4.8.8.5.4.8.8.8.8.!.4.4.W.W.T 8.8.4.8.!.4.4.7.7.7.4.4.8.8.W.t.~.&X*XXXX.X ",
"4 0.<X%Xg.u.d.u.d.d.d.h.-.l.hXhX{.X.;.6.4.4.4.6.7.7.8.4.8.8.8.8.4.4.T 4.4.4.8.8.W.T 4.4.8.8.7.7.8.8.7.8.5.q.r.XX*X*Xo.@ ",
"l l.wX%Xc.u.d.d.d.d.u.s.,.@.uXjX^.T 1.8.8.4.4.4.4.8.4.7.8.8.4.7.W.4.!.4.4.4.4.W.8.8.8.4.7.7.7.4.8.8.8.7.7.9.t.OX&X&Xo.# ",
"4 l.wX$Xc.i.u.d.a.d.s.c.z.l.uXaXR.Y 3.W.8.8.8.6.4.7.7.4.7.7.7.7.T 4.4.4.!.T 4.4.4.4.8.8.4.7.7.5.4.8.4.7.r.5.y.OX&X&Xo.. ",
"2 @.wXB.s.i.a.d.d.u.u.m.z.l.sXsXI.Y 3.!.W.4.4.8.7.7.5.5.5.5.7.5.8.4.4.4.5.5.5.5.5.5.4.4.4.7.4.5.4.7.5.5.r.5.r.oX&X*XO., ",
"> ..wX%Xc.u.u.u.u.a.g.$Xz.I.jXhXI.Y 1.~.~.W.8.8.7.7.7.5.7.5.7.5.T !.7.7.5.5.5.7.7.7.7.5.4.8.7.7.7.5.5.5.6.8.q.XX+XOXX.$ ",
", ..wX7Xm.c.i.i.i.i.m.$Xl.U.mXlXI.] -.(.oX~.Q.r.7.r.7.7.r.7.8.r.!.W.3.r.r.r.r.r.7.7.7.5.7.8.7.7.7.7.7.5.7.r.y. X+X&X2.% ",
", [ <XwXN.b.c.c.n.M.$X(...U.mXzX'.A -.Q.~.~.~.~.Q._.Q.Q.(. XQ.Q.!.!.W.Q.Q.Q.(.~.Q.Q.Q.W.Q.Q.Q.Q.Q.Q.Q.Q.Q.Q.(.(.~.~.Y & ",
"6 [ <X8X%Xm.c.c.c.M.$Xx.| U.xXmX'.D -.Q.~.XX~. XQ.(.Q.Q.(.(.Q. X X~.z.(.(.(.(.~.Q.Q.Q.W.Q.~.Q.Q.Q.Q.Q.Q.Q.Q.Q. X_.oXY % ",
"  L z.$X$X%XB.%X$X$X$X>.( U.xXxX{.Y { r.Q.XX_._.XX[._._._.`._._.`._.XX.XXX_.XX.XXXOX_.OXXXXXXXXXXXOXXXXXXXXX X(.Q.W.Y o ",
"+ F  .9.;.:.p.j.y.r.;.A / 5XxXcXrX| A }  . .O.O.O.O.| | | | | | | |  . . . .|  .{ { { { { { { { {  .X.O. . .-.-. .Y L , ",
"5 2 S A Y Y Y T Y -.Y A ( iXcXZXaX@.D C M M B M B C B M B M M M M M m m m m B B m m m m m m m x N m m M V M m M M M b 9 ",
"  J [ | [ } ] } | | ] +.5XcXSXFXCXiXC.] ( / ( ( / ( / / ( ^ L / / ^ ^ R E ^ ^ ^ ^ G / R V ^ R E / V R E E E / ^ ( ( ( y ",
"- L.xXmXlXlXgXuXuXuXyXsXmXBXBXVXBXmXjXaXuXuXuXuXyXuXuXyXyXyXyXpXpXpXhXpXhXhXpXkXkXkXkXhXpXhXpXpXpXyXpXaXsXsXsXlXlXlX5Xy ",
"- L.FXVXbXgXdXdXdXqX6X|.|.|.2X2X2X6X6X6X6X:X:X6X6XqX:XqXdXfXgXjXnXnXMXCXZXSXDXDXDXSXZXBXlXjXsXaXuXuXuXtXtXuXuXaXhXlXiXy ",
"- V.fXqXOXe.w.w.<.6.6.6.6.8.4.4.5.r.r.r.r.q.w.q.6.<.w.w.q.w.w.r.Q._.}.tXlXAXDXDXDXcXaX'.y.9.,.<.<.<.e.p.j.j.w.n.#XqX^.q ",
"- C.fX2XoX!.6.w.w.w.6.5.!.4.4.4.7.t.r.q.r.5.6.6.w.6.w.6.4.8.8.r.z.`.[.tXhXAXSXSXDXcXaX'.y.q.<.<.<.h.h.<.e.j.w.z.#X:X^.q ",
": ] *X=X!.4.7.7.5.5.6.6.T W.T !.7.5.8.5.7.7.7.8.4.8.4.8.T W.8.8.8.5.6.q.}.jXAXSXCXyX0.<.a.a.a.u.a.u.u.u.u.u.i.m.7XwX^.n ",
"< X.=X=X!.!.8.8.T !.8.8.4.4.4.4.7.7.8.8.7.4.7.5.4.6.8.4.4.4.3.W.8.7.:.6.9.6XBXAXlX^.5.a.a.u.d.u.u.d.d.u.u.u.u.N.wXeX].n ",
"c o.-X=X!.!.4.4.4.T W.4.4.4.4.!.4.4.4.7.4.4.8.4.4.6.4.6.4.4.4.7.8.4.5.w.q.}.bXCXrX0.:.a.a.u.u.u.u.u.d.u.u.u.i.N.wXeX].G ",
"o O.-X-X~.8.4.4.4.4.4.4.7.4.W.T 5.4.7.7.4.4.7.4.4.8.4.8.4.4.4.4.8.4.4.6.5.^.bXVXtX9.,.u.u.d.u.u.d.u.u.d.u.u.c.N.8XeX}.n ",
"o O.,X>X&XW.4.4.4.4.8.4.7.8.T !.5.5.7.8.5.6.7.7.8.8.8.8.8.8.4.4.8.5.4.4.7.E.jXMXrX0.:.i.u.d.u.d.d.d.d.u.u.u.i.N.wXeX].N ",
"< O.>X,X+Xt.8.8.!.4.W.7.8.8.8.T 8.7.8.8.4.8.8.8.8.8.8.8.8.W.4.4.7.7.5.1.4.R.bXNX6X..,.u.u.a.u.u.u.u.u.d.u.u.c.N.8XeX#XR ",
"2 o.,X,X=Xt.5.4.T !.T 8.7.8.8.W.8.8.8.8.8.4.7.7.8.8.8.T 8.8.4.4.7.5.1.;.T R.bXBXtX>.:.p.u.u.u.u.u.d.d.u.u.u.c.4X0X0Xx.n ",
"c o.=X,X*X~.5.5.6.8.8.8.8.8.4.W.7.7.4.W.8.8.8.8.4.4.4.!.4.4.7.7.7.4.:.1.3.R.bXNXrX>.:.p.u.u.u.u.u.d.d.d.d.i.c.4X0X0Xx.R ",
"c @.=X,X=X!.5.4.4.4.8.7.7.4.4.8.4.4.4.8.7.8.6.8.4.!.4.4.4.!.T 4.4.T T ;.1.R.bXCXyX0.,.p.p.u.u.u.u.u.u.u.u.c.m.8X0X9Xx.z ",
"c I.,X,X=X*XQ.3.3.1.1.1.1.1.4.3.1.T 1.1.1.1.3.1.!.T W.T T W.T 3.1.;.;.:.q.'.nXCXyX@.e.n.n.v.c.f.i.c.i.v.b.N.7X0X0X0Xx.n ",
"9 @.;X,X,X=X*X~.7.5.T T -.T T T T T ;.T -.;.;.1.T T T 4.4.T 4.4.7.8.~.!.*X|.NXCXyXl.z.7X7X7X7X4X4X4X7X8X8X0X0X0X9X0X].n ",
"0 @.:X;X,X,X,X=X=XoXXX~.~.~.y.Q.W.W.W.~.XXXXXXXXXXXXXXoXoX&XoX*X*X&X=X,X:XtXnXCXyX@.k.M.9X4X8X8X9X9X0X0X9X9XeX9X9X0Xz.z ",
"4 o.-X>X=X,X,X,X=X&X~.Q._.).).E.).W.W.[.).).).).[.).[.[._._.[.[.[.[.&X;X<X6XiXiXT./ W >.k.k.k.k.k.k.k.z.x.4X7XeXeXeXx.n ",
"8 o.-X>X,X;X&XR.X.S v h v v v v v v F F v F F F F F F F v v F F F v U 0.^.'.P.K.' n M Z x x x x x x x k x Z Q z.7X0X].N ",
"0 o.-X;X[.R.U v % $ o $ @ @ @ @ @ @ O @ O # O # @ @ @ O @ @ O & @ @ 9 F ( +.P.S.d 0 c k x k j j > j > > > j x x W ].].H ",
"0 o.-X-X[.R.U v % % $ $ @ @ @ & @ @ @ @ @ @ @ @ @ @ @ @ @ @ @ @ @ @ % b ( +.P.S.d 0 c k k k j j > j > j j j k x Q #X].G ",
"8 ] )./.Y v $ @ O @ O @ $ @ @ O @ @ @ @ O @ @ @ @ @ @ @ @ @ @ @ @ @ @ & G ( P.V.p 6 c k j j j j j j j > j j j j x Q l.G ",
"1 E o.U h $ @ O @ @ @ @ @ $ @ @ @ @ @ $ @ @ @ @ @ @ @ @ # O # @ @ # @ @ i ~ S.' e , c l > j j j j z j j j j j j > z / 9 ",
"- H b 9 , @ @ @ @ @ @ O O @ @ O @ @ @ @ @ @ @ O @ @ @ @ # # O @ @ @ @ # q ~ S.` e , c j j j j j j j j j j j j j j j c 8 ",
"t u u 9 # @ @ @ $ O + O # @ O # @ @ @ @ @ @ @ @ @ @ @ @ @ @ @ @ @ @ O # i ~ %.` w : 2 j j j j j j j j j j j j j j j < 5 ",
"t 7 u 9 # # @ # @ @ O @ # @ O @ @ @ @ @ @ O $ O O @ @ @ @ @ @ O @ @ + 7 p g %.g w : c j > j j j j j j j j j j j j j 9 5 ",
"t y 7 7 # @ O O O @ O @ @ @ @ @ . O O . O . @ @ @ @ @ O @ O O @ # O # 7 w ` =.g w : c k j j j j j j j j j j j j j > 9 5 ",
"t 7 7 # # @ # + O @ O @ O @ O @ @ @ @ @ @ @ @ O # @ @ # O # @ + @ O + e g %.G.%.d 9 c c l j j > > j j j j j j 2 l < X 5 ",
"t 7 u # @ @ @ O O O @ @ @ + @ + @ @ @ @ @ @ @ O # O # O @ @ O @ @ O + e f %.J.%.f 0 c v l > > j j j > j > > > j j < $ - ",
"t t 7 6 6 @ @ @ @ @ & @ @ + + @ # @ @ @ O @ @ @ O @ @ @ 5 5 + 6 5 8 p g %.=.J.J.$.f r 9 0 4 z j z > > z > > l 2 1 X . # ",
"- y a p y 8 8 8 8 q 7 q 8 8 8 8 8 8 q y e e 8 e e e 8 e w w w p d ` $.A.G.H.G.G.J.J.#._ ! f R ! ) ) ) ) ) ) ) ) ! d y - ",
"- f D.%.$.Z.' $.#.$.Z.Z.&.$.Z.Z.Z.D.D.D.D.D.D.A.A.Z.%.A.A.A.G.=.A.=.G.H.H.H.G.G.H.=.G.J.%.%.=.=.K.J.J.G.%.G.G.A.G.D.` y ",
"= f F.J.J.J.J.K.=.*.=.=.=.=.H.H.J.K.D.D.G.D.D.D.J.D.A.A.Z.Z.$.%.#.$.#.$.` #.' &.` #.#.&.S.&.&.$.&.#.&.&.#.&.$.$.D.D.` p ",
"- p ! _ ` *.' F.*.#.*.K.K.K.H.J.D.` _ _ _ d d d d d d d d d d d H H ~ ~ ~ ~ ~ ~ ~ ~ ^ H ~ K ~ K H ~ H ~ ^ ~ ~ ~ ~ _ a y ",
"- 9 n ^ E E ] C E W E E ) *.K.S._ K H a K K K K P P P P P P a P I I I I I J I I P P K P P P P I I I I I P P K P a u q & ",
"- 7 v N N N C N E N R z N ) P.&.H q i u i i J J a a a a a a a a J J J i i i i q i i u i i i i i i i i i i i i i u u 7 & ",
"5 8 n N N N B E N N N z n ) F.V.H q i i u i J J a a J J a a J J J J J i u u i i i i i i i i i i i i i i i i i i u 7 u & ",
"- 5 < j j z k k z k z z 4 ^ S.' r @ @ @ + # & @ # 7 7 7 7 7 7 # # # @ . X @ . @ @ @ @ @ . @ @ @ O O & @ @ @ @ @ @ + O @ ",
"t O < j j z z j j j j j z R *.' q @ @ # # @ @ . . .   @   @ # @ @ @ @ @ @ @ @ @ @ @ @ @ @ @ @ @ & @ @ @ @ @ @ @ @ @ 6   ",
"- * , 2 j j j > z j j j z R *.' q $ $ @ O @ @ @ @ @ @ @ @ @ O @ @ @ O @ @ @ # @ @ @ # O @ @ # @ # @ @ # @ # @ @ @ @   : ",
"3X* 6 , l l j j > j > j j R *.' q O @ # O @ @ @ @ @ @ + + @ @ @ @ @ @ @ @ @ @ @ + @ @ @ @ @ @ . O @ @ @ @ @ + + @ @ 5 5 ",
"3X3X* : l j h j > j > j 4 r &.` e @ O @ @ @ @ @ @ @ @ @ # @ # O $ O O @ @ @ @ O @ @ @ @ @ @ . @ @ O O @ + @ @ 6     8 3X",
"3X3X3X5 . < j > > j j > 4 ! V.V.p   @ O O @ @ @ @ @ @ O @ O O @ @ @ @ @ @ @ @ @ @ @ @ @ @ @ @ . @ @ @ @ + @ + O ; * 3X3X",
"3X3X3X3X* : 1 < 2 j > > 4 f S.Z.p   @ # O @ # @ O @ @ @ @ @ @ @ @ . @ @ @ @ @ @ @ @ @ @ @ . @   @ @ @ @ @ @ 6 5 * 3X3X3X",
"3X3X3X3X* : 1 2 2 l j > 4 f D.S.d ; @ @ O @ # O @ @ @ @ @ @ O @ @ @ @ @ @ @ @ @ @ @ @ @ @ @ O @ @ @ @ @ @ # ; * * 3X3X3X",
"3X3X3X3X3X* ; , X 9 0 2 4 ! S.V.d @   @ + @ @ @ @ @ @ @ @ @ O @ @ O @ @ @ @ @ @ @ @ @ @ @ @   @ @ @ @ & # 5 * = 3X3X3X3X",
"3X3X3X3X3X3X3X= ; ; @ , : 4 f g p : # @ + . @ @ O O # @ @ @ O O @ . O @ @ @ . . O O O O O O O @ # # O ; * = 3X3X3X3X3X3X",
"3X3X3X3X3X3X3X3Xn 4 1 X   ; w 8 6 @ @ 7 @ @ @ @ @ # # @ @ @ # $ @ @ # # # @ # @ @ # @ . @ # # # # # 7 y 3X3X3X3X3X3X3X3X"
};
